<svg xmlns="http://www.w3.org/2000/svg" width="26" height="32" fill="none" viewBox="0 0 26 32">
  <path stroke="#E12121" stroke-linejoin="round" stroke-width="1.5" d="M10.895 23.413C9.814 25.097 8.628 26.3 8 26.5c-2.22.705-3.776-1.206 2.895-3.087Zm0 0a16.63 16.63 0 0 0 1.54-3.033m-1.54 3.033A36.705 36.705 0 0 1 12.499 23c.658-.155 1.262-.27 1.815-.35m-1.88-2.27c.654-1.72.981-3.581.59-5.273a.806.806 0 0 0-.08-.21c-1.008-1.78-2.388 2.032-.51 5.483Zm0 0a7.723 7.723 0 0 0 1.88 2.27m0 0c.93.768 2.139 1.42 3.686 1.85 2.29.458 2.366-2.736-3.686-1.85ZM15 1v8a2 2 0 0 0 2 2h8M5 31h16a4 4 0 0 0 4-4V11.695a3 3 0 0 0-.822-2.063l-7.29-7.695A3 3 0 0 0 14.71 1H5a4 4 0 0 0-4 4v22a4 4 0 0 0 4 4Z"/>
</svg>
