<svg xmlns="http://www.w3.org/2000/svg"
     fill="currentColor"
     viewBox="0 0 24 24">
    <path fill="#000"
          d="M12 12v-1a1 1 0 0 0-1 1h1Zm.085 0h1a1 1 0 0 0-1-1v1Zm0 .077v1a1 1 0 0 0 1-1h-1Zm-.085 0h-1a1 1 0 0 0 1 1v-1ZM20.6 12a8.6 8.6 0 0 1-8.6 8.6v2c5.854 0 10.6-4.746 10.6-10.6h-2ZM12 20.6A8.6 8.6 0 0 1 3.4 12h-2c0 5.854 4.746 10.6 10.6 10.6v-2ZM3.4 12A8.6 8.6 0 0 1 12 3.4v-2C6.146 1.4 1.4 6.146 1.4 12h2ZM12 3.4a8.6 8.6 0 0 1 8.6 8.6h2c0-5.854-4.746-10.6-10.6-10.6v2Zm3.8 8.6a3.8 3.8 0 0 1-3.8 3.8v2a5.8 5.8 0 0 0 5.8-5.8h-2ZM12 15.8A3.8 3.8 0 0 1 8.2 12h-2a5.8 5.8 0 0 0 5.8 5.8v-2ZM8.2 12A3.8 3.8 0 0 1 12 8.2v-2A5.8 5.8 0 0 0 6.2 12h2ZM12 8.2a3.8 3.8 0 0 1 3.8 3.8h2A5.8 5.8 0 0 0 12 6.2v2Zm0 4.8h.085v-2H12v2Zm-.915-1v.077h2V12h-2Zm1-.923H12v2h.085v-2Zm.915 1V12h-2v.077h2Z" />
</svg>