<svg xmlns="http://www.w3.org/2000/svg"
     fill="currentColor"
     viewBox="0 0 24 24">
    <path fill="#000"
          d="M22.096 12.6a1 1 0 1 0-2 0h2ZM11.496 4a1 1 0 1 0 0-2v2Zm5.8 8.6a1 1 0 1 0-2 0h2Zm-5.8-3.8a1 1 0 1 0 0-2v2Zm4.95.07a1 1 0 1 0-1.415-1.413l1.414 1.414Zm-5.657 2.83a1 1 0 0 0 1.414 1.413L10.789 11.7Zm11.315-6.506.707.707a1 1 0 0 0-.565-1.697l-.142.99Zm-3.818 3.818-.316.949a1 1 0 0 0 1.023-.242l-.707-.707Zm-3.394-3.394-.707-.707a1 1 0 0 0-.242 1.023l.949-.316ZM18.71 1.8l.99-.142a1 1 0 0 0-1.697-.565l.707.707Zm-2.97 6.364-.948.316a1 1 0 0 0 .632.632l.316-.948Zm3.394-3.394-.99.141a1 1 0 0 0 .849.849l.142-.99Zm.962 7.83a8.6 8.6 0 0 1-8.6 8.6v2c5.854 0 10.6-4.746 10.6-10.6h-2Zm-8.6 8.6a8.6 8.6 0 0 1-8.6-8.6h-2c0 5.854 4.745 10.6 10.6 10.6v-2Zm-8.6-8.6a8.6 8.6 0 0 1 8.6-8.6V2C5.64 2 .896 6.746.896 12.6h2Zm12.4 0a3.8 3.8 0 0 1-3.8 3.8v2a5.8 5.8 0 0 0 5.8-5.8h-2Zm-3.8 3.8a3.8 3.8 0 0 1-3.8-3.8h-2a5.8 5.8 0 0 0 5.8 5.8v-2Zm-3.8-3.8a3.8 3.8 0 0 1 3.8-3.8v-2a5.8 5.8 0 0 0-5.8 5.8h2Zm7.335-5.143-4.242 4.242 1.414 1.414 4.242-4.242-1.414-1.414Zm6.366-2.97L17.58 8.305l1.414 1.414 3.818-3.818-1.414-1.414ZM15.6 6.325l3.818-3.818-1.414-1.414-3.818 3.818L15.6 6.325Zm3.003 1.739-2.545-.849-.633 1.897 2.546.849.632-1.897Zm-1.913-.216-.848-2.546-1.898.632.849 2.546 1.897-.632Zm1.03-5.908.425 2.97 1.98-.283-.425-2.97-1.98.283Zm1.273 3.819 2.97.424.283-1.98-2.97-.424-.283 1.98Z" />
</svg>