<svg xmlns="http://www.w3.org/2000/svg"
     fill="currentColor"
     viewBox="0 0 24 24">
    <path stroke="currentColor"
          stroke-linejoin="round"
          stroke-width="2"
          d="M2.4 18.081V6.258a1 1 0 0 1 1.296-.956l.348.108c2.672.827 5.56.827 8.232 0a13.963 13.963 0 0 1 8.951.244l.373.139v12.782a.277.277 0 0 1-.373.26 13.964 13.964 0 0 0-8.95-.245 13.97 13.97 0 0 1-8.233 0L2.4 18.081Z" />
    <path stroke="currentColor"
          stroke-linejoin="round"
          stroke-width="2"
          d="M14.4 11.99a2.4 2.4 0 1 1-4.8 0 2.4 2.4 0 0 1 4.8 0Z" />
</svg>