<svg xmlns="http://www.w3.org/2000/svg"
     fill="currentColor"
     viewBox="0 0 24 24">
    <path fill="#000"
          d="M1.501 15.66h-1 1Zm0-9h1-1Zm10.2 12.4a1 1 0 0 0 0-2v2Zm-7.8-1v-1 1Zm16.8-11.4h-1 1Zm-18.6.8a1 1 0 1 0 0 2v-2Zm18 2a1 1 0 1 0 0-2v2Zm-4.802 7.4-.707-.707a1 1 0 0 0-.293.707h1Zm4.32-4.32.707-.707a1 1 0 0 0-1.414 0l.707.707Zm2.88 2.88.707.707a1 1 0 0 0 0-1.414l-.707.707Zm-4.32 4.32v1a1 1 0 0 0 .707-.293l-.707-.707Zm-2.88 0h-1a1 1 0 0 0 1 1v-1ZM3.901 5.26H18.3v-2H3.9v2Zm-1.4 10.4v-9h-2v9h2Zm9.2 1.4H3.9v2h7.8v-2Zm8-10.4v2.4h2v-2.4h-2ZM3.9 3.26a3.4 3.4 0 0 0-3.4 3.4h2a1.4 1.4 0 0 1 1.4-1.4v-2Zm14.399 2a1.4 1.4 0 0 1 1.4 1.4h2a3.399 3.399 0 0 0-3.4-3.4v2ZM.501 15.66a3.4 3.4 0 0 0 3.4 3.4v-2a1.4 1.4 0 0 1-1.4-1.4h-2Zm1.6-6.2h18v-2h-18v2Zm13.905 8.107 4.32-4.32-1.414-1.414-4.32 4.32 1.414 1.414Zm2.906-4.32 2.88 2.88 1.414-1.414-2.88-2.88-1.414 1.414Zm2.88 1.466-4.32 4.32 1.414 1.414 4.32-4.32-1.414-1.414ZM18.18 18.74H15.3v2h2.88v-2Zm-1.88 1v-2.88h-2v2.88h2Z" />
</svg>