<svg xmlns="http://www.w3.org/2000/svg"
     fill="currentColor"
     viewBox="0 0 24 24">
    <path fill="#000"
          d="M13.875 9.982a1 1 0 1 0 1.89-.654l-1.89.654ZM13.2 8.433l.044-.999a1.01 1.01 0 0 0-.044 0v1ZM10.8 12.1v1-1Zm2.4 3.667v1-1Zm-2.4 0-.044.999h.044v-1Zm-.675-1.55a1 1 0 1 0-1.89.654l1.89-.654ZM13 6.6a1 1 0 1 0-2 0h2Zm-2 1.833a1 1 0 1 0 2 0h-2Zm2 7.334a1 1 0 1 0-2 0h2ZM11 17.6a1 1 0 1 0 2 0h-2Zm4.765-8.272a2.831 2.831 0 0 0-.969-1.335L13.592 9.59a.831.831 0 0 1 .283.392l1.89-.654Zm-.969-1.335a2.78 2.78 0 0 0-1.552-.559l-.088 1.998a.78.78 0 0 1 .435.158l1.205-1.597Zm-1.596-.56h-2.4v2h2.4v-2Zm-2.4 0c-.749 0-1.463.303-1.986.837l1.427 1.4a.784.784 0 0 1 .559-.237v-2Zm-1.986.837A2.85 2.85 0 0 0 8 10.267h2a.85.85 0 0 1 .24-.596L8.815 8.27ZM8 10.267c0 .745.29 1.464.814 1.997l1.427-1.402a.85.85 0 0 1-.241-.595H8Zm.814 1.997a2.784 2.784 0 0 0 1.986.836v-2a.784.784 0 0 1-.56-.238l-1.426 1.402Zm1.986.836h2.4v-2h-2.4v2Zm2.4 0c.206 0 .408.083.56.238l1.426-1.402A2.784 2.784 0 0 0 13.2 11.1v2Zm.56.238a.85.85 0 0 1 .24.595h2a2.85 2.85 0 0 0-.814-1.997l-1.427 1.402Zm.24.595a.85.85 0 0 1-.24.596l1.426 1.401A2.85 2.85 0 0 0 16 13.933h-2Zm-.24.596a.784.784 0 0 1-.56.238v2c.749 0 1.463-.303 1.986-.837l-1.426-1.4Zm-.56.238h-2.4v2h2.4v-2Zm-2.356 0a.779.779 0 0 1-.435-.157l-1.205 1.596c.45.34.99.535 1.552.56l.088-1.998Zm-.435-.157a.831.831 0 0 1-.284-.393l-1.89.654c.184.531.52.997.969 1.335l1.204-1.596ZM11 6.6v1.833h2V6.6h-2Zm0 9.167V17.6h2v-1.833h-2ZM20.6 12a8.6 8.6 0 0 1-8.6 8.6v2c5.854 0 10.6-4.746 10.6-10.6h-2ZM12 20.6A8.6 8.6 0 0 1 3.4 12h-2c0 5.854 4.746 10.6 10.6 10.6v-2ZM3.4 12A8.6 8.6 0 0 1 12 3.4v-2C6.146 1.4 1.4 6.146 1.4 12h2ZM12 3.4a8.6 8.6 0 0 1 8.6 8.6h2c0-5.854-4.746-10.6-10.6-10.6v2Z" />
</svg>