<svg xmlns="http://www.w3.org/2000/svg"
     fill="currentColor"
     viewBox="0 0 25 24">
    <path fill="#000"
          d="M15.784 15.349a1 1 0 0 0 .632-1.898l-.632 1.898Zm-3.284-2.15h-1a1 1 0 0 0 .684.95l.316-.95Zm1-5.017a1 1 0 1 0-2 0h2Zm2.916 5.27-3.6-1.2-.632 1.897 3.6 1.2.632-1.898ZM13.5 13.2V8.182h-2V13.2h2Zm7.6-1.2a8.6 8.6 0 0 1-8.6 8.6v2c5.854 0 10.6-4.746 10.6-10.6h-2Zm-8.6 8.6A8.6 8.6 0 0 1 3.9 12h-2c0 5.854 4.746 10.6 10.6 10.6v-2ZM3.9 12a8.6 8.6 0 0 1 8.6-8.6v-2C6.646 1.4 1.9 6.146 1.9 12h2Zm8.6-8.6a8.6 8.6 0 0 1 8.6 8.6h2c0-5.854-4.746-10.6-10.6-10.6v2Z" />
</svg>