<svg xmlns="http://www.w3.org/2000/svg"
     fill="currentColor"
     viewBox="0 0 24 24">
    <path stroke="currentColor"
          stroke-linecap="round"
          stroke-width="2"
          d="m16.208 18.444-.932 2.796a.526.526 0 0 1-.499.36H9.223a.526.526 0 0 1-.499-.36l-.932-2.796m0-12.888.932-2.796a.526.526 0 0 1 .5-.36h5.553c.227 0 .428.145.5.36l.931 2.796M7.266 18.444h9.468c.872 0 1.578-.707 1.578-1.578V7.397c0-.871-.706-1.578-1.578-1.578H7.266c-.872 0-1.578.707-1.578 1.578v9.469c0 .871.706 1.578 1.578 1.578Z" />
</svg>