<svg width="72" height="74" viewBox="0 0 72 74" fill="none" xmlns="http://www.w3.org/2000/svg">
<path fill-rule="evenodd" clip-rule="evenodd" d="M53 62C54.1046 62 55 62.8954 55 64C55 65.1046 54.1046 66 53 66H35C34.8824 66 34.7673 65.9899 34.6553 65.9704C28.2305 65.687 22.3308 63.3828 17.5761 59.6779C17.1894 59.3766 16.6067 58.8771 16.1748 58.5013C15.8054 58.1799 15.3333 58 14.8436 58H10C8.89543 58 8 57.1046 8 56C8 54.8954 8.89543 54 10 54H12C13.1046 54 14 53.1046 14 52C14 50.8954 13.1046 50 12 50H7C5.89543 50 5 49.1046 5 48C5 46.8954 5.89543 46 7 46H8C9.10457 46 10 45.1046 10 44C10 42.8954 9.10457 42 8 42C7.1913 42 6.49962 41.4171 6.36506 40.6196C6.31617 40.3299 6.27734 40.0966 6.27093 40.0492C6.09227 38.7249 6 37.3732 6 36C6 19.4315 19.4315 6 36 6C41 6 46 6 51 6C52.1046 6 53 6.89543 53 8C53 9.10457 52.1046 10 51 10H48C46.8954 10 46 10.8954 46 12C46 13.1046 46.8954 14 48 14H60C61.1046 14 62 14.8954 62 16C62 17.1038 61.1058 17.9988 60.0022 18L57 18C55.8954 18 55 18.8954 55 20C55 21.1046 55.8954 22 57 22H61.306C62.0624 22 62.7556 22.4259 63.0835 23.1075C63.2807 23.5171 63.488 23.959 63.6237 24.2783C65.1536 27.8793 66 31.8408 66 36C66 37.3068 65.9164 38.5942 65.7544 39.8569C65.7271 40.0692 65.6853 40.3418 65.6398 40.6208C65.5093 41.4213 64.8111 42 64 42C62.8954 42 62 42.8954 62 44C62 45.1046 62.8954 46 64 46H65C66.1046 46 67 46.8954 67 48C67 49.1046 66.1046 50 65 50H63.7162C62.9901 50 62.3224 50.3942 61.9597 51.0232C61.7241 51.4317 61.4621 51.8761 61.2675 52.1794C60.8114 52.8903 60.326 53.5807 59.8132 54.2489C59.2981 54.9201 58.7553 55.5688 58.1864 56.1934C57.8743 56.5362 57.3685 57.044 56.974 57.4341C56.605 57.799 56.1061 58 55.5871 58H50C48.8954 58 48 58.8954 48 60C48 61.0969 48.883 61.9875 49.9769 61.9999L53 62Z" fill="url(#paint0_linear_6978_212598)"/>
<g opacity="0.1">
<path fill-rule="evenodd" clip-rule="evenodd" d="M32.9983 12.6749C34.8547 11.6031 37.1419 11.6031 38.9983 12.6749L54.6968 21.7385C56.5533 22.8103 57.6968 24.791 57.6968 26.9346V45.0617C57.6968 47.2053 56.5533 49.1861 54.6968 50.2579L38.9983 59.3214C37.1419 60.3932 34.8547 60.3932 32.9983 59.3214L17.2998 50.2579C15.4434 49.1861 14.2998 47.2053 14.2998 45.0617L14.2998 26.9346C14.2998 24.791 15.4434 22.8103 17.2998 21.7385L32.9983 12.6749Z" fill="#0602F3" style="mix-blend-mode:multiply"/>
</g>
<g filter="url(#filter0_d_6978_212598)">
<path fill-rule="evenodd" clip-rule="evenodd" d="M29.0713 33L42.9277 41L26.7595 69.0041C26.3824 69.6573 25.4455 69.6738 25.0456 69.0344L21.1245 62.7643L13.7339 62.5035C12.9801 62.4769 12.526 61.6573 12.9031 61.0041L29.0713 33Z" fill="#F55462"/>
</g>
<mask id="mask0_6978_212598" style="mask-type:luminance" maskUnits="userSpaceOnUse" x="12" y="33" width="31" height="37">
<path fill-rule="evenodd" clip-rule="evenodd" d="M29.0713 33L42.9277 41L26.7595 69.0041C26.3824 69.6573 25.4455 69.6738 25.0456 69.0344L21.1245 62.7643L13.7339 62.5035C12.9801 62.4769 12.526 61.6573 12.9031 61.0041L29.0713 33Z" fill="white"/>
</mask>
<g mask="url(#mask0_6978_212598)">
<path fill-rule="evenodd" clip-rule="evenodd" d="M24.5352 48.8555L31.4634 52.8555L22.4634 68.4439L15.5352 64.4439L24.5352 48.8555Z" fill="white"/>
</g>
<g filter="url(#filter1_d_6978_212598)">
<path fill-rule="evenodd" clip-rule="evenodd" d="M42.9277 33L29.0713 41L45.2395 69.0041C45.6166 69.6573 46.5535 69.6738 46.9534 69.0344L50.8745 62.7643L58.2652 62.5035C59.0189 62.4769 59.473 61.6573 59.0959 61.0041L42.9277 33Z" fill="#F55462"/>
</g>
<mask id="mask1_6978_212598" style="mask-type:luminance" maskUnits="userSpaceOnUse" x="29" y="33" width="31" height="37">
<path fill-rule="evenodd" clip-rule="evenodd" d="M42.9277 33L29.0713 41L45.2395 69.0041C45.6166 69.6573 46.5535 69.6738 46.9534 69.0344L50.8745 62.7643L58.2652 62.5035C59.0189 62.4769 59.473 61.6573 59.0959 61.0041L42.9277 33Z" fill="white"/>
</mask>
<g mask="url(#mask1_6978_212598)">
<path fill-rule="evenodd" clip-rule="evenodd" d="M47.4639 48.8555L40.5357 52.8555L49.5357 68.4439L56.4639 64.4439L47.4639 48.8555Z" fill="white"/>
</g>
<path style="mix-blend-mode:multiply" opacity="0.2" fill-rule="evenodd" clip-rule="evenodd" d="M33.9996 16.1531C35.2372 15.4386 36.762 15.4386 37.9996 16.1531L53.9182 25.3437C55.1558 26.0582 55.9182 27.3787 55.9182 28.8078V47.189C55.9182 48.618 55.1558 49.9386 53.9182 50.6531L37.9996 59.8437C36.762 60.5582 35.2372 60.5582 33.9996 59.8437L18.0811 50.6531C16.8435 49.9386 16.0811 48.618 16.0811 47.189L16.0811 28.8078C16.0811 27.3787 16.8435 26.0582 18.0811 25.3437L33.9996 16.1531Z" fill="#0602F3"/>
<path fill-rule="evenodd" clip-rule="evenodd" d="M54 22.677C54 22.2681 54.249 21.9004 54.6286 21.7486L58.1772 20.3291C58.5713 20.1715 59 20.4617 59 20.8862V36.323C59 36.7319 58.751 37.0996 58.3714 37.2514L54 39V22.677Z" fill="url(#paint1_linear_6978_212598)" stroke="url(#paint2_linear_6978_212598)" stroke-linecap="round" stroke-linejoin="round"/>
<mask id="mask2_6978_212598" style="mask-type:luminance" maskUnits="userSpaceOnUse" x="53" y="20" width="7" height="19">
<path fill-rule="evenodd" clip-rule="evenodd" d="M54 23.3541C54 22.5363 54.4979 21.8008 55.2572 21.4971L56.2572 21.0971C57.5709 20.5716 59 21.5391 59 22.9541V35.6459C59 36.4637 58.5021 37.1992 57.7428 37.5029L56.7428 37.9029C55.4291 38.4284 54 37.4609 54 36.0459V23.3541Z" fill="white" stroke="white"/>
</mask>
<g mask="url(#mask2_6978_212598)">
<g opacity="0.04">
<path fill-rule="evenodd" clip-rule="evenodd" d="M38.9987 12.6749C37.1423 11.6031 34.8552 11.6031 32.9987 12.6749L17.3002 21.7385C15.4438 22.8103 14.3002 24.791 14.3002 26.9346V45.0617C14.3002 47.2053 15.4438 49.1861 17.3002 50.2579L32.9987 59.3214C34.8551 60.3932 37.1423 60.3932 38.9987 59.3214L54.6973 50.2579C56.5537 49.1861 57.6973 47.2053 57.6973 45.0617L57.6973 26.9346C57.6973 24.791 56.5537 22.8103 54.6973 21.7385L38.9987 12.6749Z" fill="#0602F3" style="mix-blend-mode:multiply"/>
</g>
</g>
<path fill-rule="evenodd" clip-rule="evenodd" d="M18 22.677C18 22.2681 17.751 21.9004 17.3714 21.7486L13.8228 20.3291C13.4287 20.1715 13 20.4617 13 20.8862V36.323C13 36.7319 13.249 37.0996 13.6286 37.2514L18 39V22.677Z" fill="url(#paint3_linear_6978_212598)" stroke="url(#paint4_linear_6978_212598)" stroke-linecap="round" stroke-linejoin="round"/>
<mask id="mask3_6978_212598" style="mask-type:luminance" maskUnits="userSpaceOnUse" x="12" y="20" width="7" height="19">
<path fill-rule="evenodd" clip-rule="evenodd" d="M18 23.3541C18 22.5363 17.5021 21.8008 16.7428 21.4971L15.7428 21.0971C14.4291 20.5716 13 21.5391 13 22.9541V35.6459C13 36.4637 13.4979 37.1992 14.2572 37.5029L15.2572 37.9029C16.5709 38.4284 18 37.4609 18 36.0459V23.3541Z" fill="white" stroke="white"/>
</mask>
<g mask="url(#mask3_6978_212598)">
<g opacity="0.04">
<path fill-rule="evenodd" clip-rule="evenodd" d="M32.9983 12.6749C34.8547 11.6031 37.1419 11.6031 38.9983 12.6749L54.6968 21.7385C56.5533 22.8103 57.6968 24.791 57.6968 26.9346V45.0617C57.6968 47.2053 56.5533 49.1861 54.6968 50.2579L38.9983 59.3214C37.1419 60.3932 34.8547 60.3932 32.9983 59.3214L17.2998 50.2579C15.4434 49.1861 14.2998 47.2053 14.2998 45.0617L14.2998 26.9346C14.2998 24.791 15.4434 22.8103 17.2998 21.7385L32.9983 12.6749Z" fill="#0602F3" style="mix-blend-mode:multiply"/>
</g>
</g>
<path fill-rule="evenodd" clip-rule="evenodd" d="M49 17.3557C49 16.6829 48.349 16.2021 47.7059 16.4L36 20.0018L24.2941 16.4C23.651 16.2021 23 16.6829 23 17.3557V32.0018C23 32.5541 23.4477 33.0018 24 33.0018H48C48.5523 33.0018 49 32.5541 49 32.0018V17.3557Z" fill="url(#paint5_linear_6978_212598)" stroke="url(#paint6_linear_6978_212598)" stroke-linecap="round" stroke-linejoin="round"/>
<mask id="mask4_6978_212598" style="mask-type:luminance" maskUnits="userSpaceOnUse" x="22" y="15" width="28" height="10">
<path fill-rule="evenodd" clip-rule="evenodd" d="M49 17.354C49 16.6812 48.349 16.2003 47.7059 16.3982L36 20L24.2941 16.3982C23.651 16.2003 23 16.6812 23 17.354V23C23 23.5523 23.4477 24 24 24H48C48.5523 24 49 23.5523 49 23V17.354Z" fill="white" stroke="white" stroke-linecap="round" stroke-linejoin="round"/>
</mask>
<g mask="url(#mask4_6978_212598)">
<g opacity="0.04">
<path fill-rule="evenodd" clip-rule="evenodd" d="M32.9983 12.6749C34.8547 11.6031 37.1419 11.6031 38.9983 12.6749L54.6968 21.7385C56.5533 22.8103 57.6968 24.791 57.6968 26.9346V45.0617C57.6968 47.2053 56.5533 49.1861 54.6968 50.2579L38.9983 59.3214C37.1419 60.3932 34.8547 60.3932 32.9983 59.3214L17.2998 50.2579C15.4434 49.1861 14.2998 47.2053 14.2998 45.0617L14.2998 26.9346C14.2998 24.791 15.4434 22.8103 17.2998 21.7385L32.9983 12.6749Z" fill="#0602F3" style="mix-blend-mode:multiply"/>
</g>
</g>
<path fill-rule="evenodd" clip-rule="evenodd" d="M34 14.1547C35.2376 13.4402 36.7624 13.4402 38 14.1547L53.9186 23.3453C55.1562 24.0598 55.9186 25.3803 55.9186 26.8094V45.1906C55.9186 46.6197 55.1562 47.9402 53.9186 48.6547L38 57.8453C36.7624 58.5598 35.2376 58.5598 34 57.8453L18.0814 48.6547C16.8438 47.9402 16.0814 46.6197 16.0814 45.1906V26.8094C16.0814 25.3803 16.8438 24.0598 18.0814 23.3453L34 14.1547Z" fill="url(#paint7_linear_6978_212598)" stroke="#FFF04D" stroke-opacity="0.4"/>
<path d="M37.7496 14.5861C36.6667 13.9609 35.3325 13.9609 34.2496 14.5861L18.3311 23.7767C17.2482 24.4019 16.5811 25.5574 16.5811 26.8078L16.5811 45.189C16.5811 46.4394 17.2482 47.5949 18.3311 48.2201L34.2496 57.4107C35.3325 58.0359 36.6667 58.0359 37.7496 57.4107L53.6682 48.2201C54.7511 47.5949 55.4182 46.4394 55.4182 45.189V26.8078C55.4182 25.5574 54.7511 24.4019 53.6682 23.7767L37.7496 14.5861Z" stroke="#F9B307"/>
<path opacity="0.4" d="M37.75 57.4109C39.6222 56.33 40.9487 55.5642 41.7296 55.1133" stroke="white" stroke-linecap="round"/>
<path d="M55.4182 45.189V26.8078C55.4182 25.5574 54.7511 24.4019 53.6682 23.7767L37.7496 14.5861C36.6667 13.9609 35.3325 13.9609 34.2496 14.5861L18.3311 23.7767C17.2482 24.4019 16.5811 25.5574 16.5811 26.8078L16.5811 45.189" stroke="#FAC00E" stroke-linecap="round"/>
<path opacity="0.6" d="M55.4182 26.8078C55.4182 25.5574 54.7511 24.4019 53.6682 23.7767L37.7496 14.5861C36.6667 13.9609 35.3325 13.9609 34.2496 14.5861L18.3311 23.7767C17.2482 24.4019 16.5811 25.5574 16.5811 26.8078" stroke="#FDDB3D" stroke-linecap="round"/>
<path opacity="0.6" d="M37.7503 14.5861C36.6674 13.9609 35.3332 13.9609 34.2503 14.5861C34.2503 14.5861 28.9441 17.6496 26.291 19.1814" stroke="white" stroke-linecap="round"/>
<path d="M34.2502 14.5859C34.2502 14.5859 31.4419 16.2073 30.2705 16.8836" stroke="white" stroke-linecap="round"/>
<g filter="url(#filter2_d_6978_212598)">
<path fill-rule="evenodd" clip-rule="evenodd" d="M35 20.5774C35.6188 20.2201 36.3812 20.2201 37 20.5774L48.8564 27.4226C49.4752 27.7799 49.8564 28.4402 49.8564 29.1547V42.8453C49.8564 43.5598 49.4752 44.2201 48.8564 44.5774L37 51.4226C36.3812 51.7799 35.6188 51.7799 35 51.4226L23.1436 44.5774C22.5248 44.2201 22.1436 43.5598 22.1436 42.8453V29.1547C22.1436 28.4402 22.5248 27.7799 23.1436 27.4226L35 20.5774Z" fill="url(#paint8_linear_6978_212598)"/>
<path d="M34.8975 20.0654C35.6422 19.6993 36.525 19.726 37.25 20.1445L49.1064 26.9893L49.248 27.0781C49.9375 27.54 50.3563 28.3172 50.3564 29.1543V42.8457C50.3563 43.6828 49.9375 44.46 49.248 44.9219L49.1064 45.0107L37.25 51.8555C36.525 52.274 35.6422 52.3007 34.8975 51.9346L34.75 51.8555L22.8936 45.0107C22.1202 44.5642 21.6437 43.7387 21.6436 42.8457V29.1543C21.6437 28.2613 22.1202 27.4358 22.8936 26.9893L34.75 20.1445L34.8975 20.0654Z" stroke="#F5900D" stroke-opacity="0.1" style="mix-blend-mode:multiply"/>
</g>
<mask id="mask5_6978_212598" style="mask-type:luminance" maskUnits="userSpaceOnUse" x="22" y="20" width="28" height="32">
<path fill-rule="evenodd" clip-rule="evenodd" d="M35 20.5774C35.6188 20.2201 36.3812 20.2201 37 20.5774L48.8564 27.4226C49.4752 27.7799 49.8564 28.4402 49.8564 29.1547V42.8453C49.8564 43.5598 49.4752 44.2201 48.8564 44.5774L37 51.4226C36.3812 51.7799 35.6188 51.7799 35 51.4226L23.1436 44.5774C22.5248 44.2201 22.1436 43.5598 22.1436 42.8453V29.1547C22.1436 28.4402 22.5248 27.7799 23.1436 27.4226L35 20.5774Z" fill="white"/>
</mask>
<g mask="url(#mask5_6978_212598)">
<g style="mix-blend-mode:multiply" opacity="0.3">
<path fill-rule="evenodd" clip-rule="evenodd" d="M36 36L20 40V32L36 36ZM36 36L40 20H32L36 36ZM36 36L52 32V40L36 36ZM36 36L44.4853 21.8579L50.1421 27.5147L36 36ZM36 36L44.4853 50.1421L50.1421 44.4853L36 36ZM36 36L32 52H40L36 36ZM36 36L27.5147 50.1421L21.8579 44.4853L36 36Z" fill="#FFD640"/>
<path d="M27.5147 21.8579L21.8579 27.5147L36 36L27.5147 21.8579Z" fill="#FFD640"/>
</g>
<path opacity="0.4" d="M48.6064 27.8549L36.75 21.0096C36.2859 20.7416 35.7141 20.7416 35.25 21.0096C33.8555 21.8146 32.8675 22.3851 32.2859 22.7209C31.0754 23.4198 30.0873 23.9902 29.3218 24.4322C28.0044 25.1928 26.0283 26.3337 23.3936 27.8549" stroke="white" stroke-linecap="round"/>
<path opacity="0.4" d="M48.6064 44.11L36.75 50.9553C36.2859 51.2232 35.7141 51.2232 35.25 50.9553" stroke="white" stroke-linecap="round"/>
<path d="M35.2502 21.0078C33.8558 21.8129 32.8678 22.3833 32.2861 22.7191" stroke="white" stroke-linecap="round"/>
</g>
<g filter="url(#filter3_d_6978_212598)">
<path d="M33.45 32.4906L36.0002 28.7695L38.5504 32.4906L42.8774 33.7661L40.1265 37.3413L40.2506 41.8507L36.0002 40.3393L31.7499 41.8507L31.8739 37.3413L29.123 33.7661L33.45 32.4906Z" fill="white"/>
<path d="M36 27.7695C36.3298 27.7695 36.6387 27.9321 36.8252 28.2041L39.1738 31.6309L43.1602 32.8066C43.4765 32.8999 43.7262 33.1434 43.8281 33.457C43.93 33.7707 43.871 34.1146 43.6699 34.376L41.1357 37.6689L41.25 41.8232C41.2591 42.1529 41.1047 42.4663 40.8379 42.6602C40.5711 42.8537 40.2256 42.9034 39.915 42.793L36 41.4004L32.085 42.793C31.7743 42.9034 31.4289 42.8539 31.1621 42.6602C30.8953 42.4663 30.7409 42.1529 30.75 41.8232L30.8633 37.6689L28.3301 34.376C28.129 34.1146 28.07 33.7706 28.1719 33.457C28.2738 33.1435 28.5237 32.9 28.8398 32.8066L32.8252 31.6309L35.1758 28.2041L35.251 28.1074C35.4394 27.8941 35.7115 27.7696 36 27.7695Z" stroke="white" stroke-width="2" stroke-linejoin="round"/>
</g>
<path d="M33.45 32.4906L36.0002 28.7695L38.5504 32.4906L42.8774 33.7661L40.1265 37.3413L40.2506 41.8507L36.0002 40.3393L31.7499 41.8507L31.8739 37.3413L29.123 33.7661L33.45 32.4906Z" fill="url(#paint9_linear_6978_212598)"/>
<path opacity="0.4" d="M36.0001 36.0006V28.7695L33.416 32.4394L36.0001 36.0006Z" fill="url(#paint10_linear_6978_212598)"/>
<path opacity="0.8" d="M36.0002 35.9987L33.4161 32.4375L29.123 33.7642L36.0002 35.9987Z" fill="url(#paint11_linear_6978_212598)"/>
<path opacity="0.5" d="M36.0003 36L31.8162 37.3613L31.75 41.8501L36.0003 36Z" fill="url(#paint12_linear_6978_212598)"/>
<path opacity="0.4" d="M40.2503 41.8501L40.1841 37.3613L36 36L40.2503 41.8501Z" fill="url(#paint13_linear_6978_212598)"/>
<path d="M40.1841 37.3614L42.8772 33.7656L36 36.0002L40.1841 37.3614Z" fill="#FEBA1B"/>
<path opacity="0.6" d="M42.8772 33.7642L38.5841 32.4375L36 35.9987L42.8772 33.7642Z" fill="url(#paint14_linear_6978_212598)"/>
<g filter="url(#filter4_d_6978_212598)">
<path fill-rule="evenodd" clip-rule="evenodd" d="M46.9109 29.7799L46.3916 29.5751C46.0739 29.4498 45.918 29.0908 46.0433 28.7732C46.1061 28.6138 46.2322 28.4877 46.3916 28.4249L46.9109 28.2201C47.5098 27.9839 47.9839 27.5098 48.2201 26.9109L48.4249 26.3916C48.5502 26.0739 48.9092 25.918 49.2268 26.0433C49.3862 26.1061 49.5123 26.2322 49.5751 26.3916L49.7799 26.9109C50.0161 27.5098 50.4902 27.9839 51.0891 28.2201L51.6084 28.4249C51.9261 28.5502 52.082 28.9092 51.9567 29.2268C51.8939 29.3862 51.7678 29.5123 51.6084 29.5751L51.0891 29.7799C50.4902 30.0161 50.0161 30.4902 49.7799 31.0891L49.5751 31.6084C49.4498 31.9261 49.0908 32.082 48.7732 31.9567C48.6138 31.8939 48.4877 31.7678 48.4249 31.6084L48.2201 31.0891C47.9839 30.4902 47.5098 30.0161 46.9109 29.7799Z" fill="white"/>
</g>
<g filter="url(#filter5_d_6978_212598)">
<path fill-rule="evenodd" clip-rule="evenodd" d="M24.6073 46.52L24.261 46.3834C24.0493 46.2999 23.9453 46.0605 24.0289 45.8488C24.0707 45.7426 24.1548 45.6585 24.261 45.6166L24.6073 45.48C25.0065 45.3226 25.3226 45.0065 25.48 44.6073L25.6166 44.261C25.7001 44.0493 25.9395 43.9453 26.1512 44.0289C26.2574 44.0707 26.3415 44.1548 26.3834 44.261L26.52 44.6073C26.6774 45.0065 26.9935 45.3226 27.3927 45.48L27.739 45.6166C27.9507 45.7001 28.0547 45.9395 27.9711 46.1512C27.9293 46.2574 27.8452 46.3415 27.739 46.3834L27.3927 46.52C26.9935 46.6774 26.6774 46.9935 26.52 47.3927L26.3834 47.739C26.2999 47.9507 26.0605 48.0547 25.8488 47.9711C25.7426 47.9293 25.6585 47.8452 25.6166 47.739L25.48 47.3927C25.3226 46.9935 25.0065 46.6774 24.6073 46.52Z" fill="white"/>
</g>
<g filter="url(#filter6_d_6978_212598)">
<path fill-rule="evenodd" clip-rule="evenodd" d="M20.7591 31.1499L20.3263 30.9793C20.0616 30.8749 19.9317 30.5757 20.0361 30.311C20.0884 30.1782 20.1935 30.0731 20.3263 30.0207L20.7591 29.8501C21.2582 29.6532 21.6532 29.2582 21.8501 28.7591L22.0207 28.3263C22.1251 28.0616 22.4243 27.9317 22.689 28.0361C22.8218 28.0884 22.9269 28.1935 22.9793 28.3263L23.1499 28.7591C23.3468 29.2582 23.7418 29.6532 24.2409 29.8501L24.6737 30.0207C24.9384 30.1251 25.0683 30.4243 24.9639 30.689C24.9116 30.8218 24.8065 30.9269 24.6737 30.9793L24.2409 31.1499C23.7418 31.3468 23.3468 31.7418 23.1499 32.2409L22.9793 32.6737C22.8749 32.9384 22.5757 33.0683 22.311 32.9639C22.1782 32.9116 22.0731 32.8065 22.0207 32.6737L21.8501 32.2409C21.6532 31.7418 21.2582 31.3468 20.7591 31.1499Z" fill="white"/>
</g>
<g filter="url(#filter7_d_6978_212598)">
<path fill-rule="evenodd" clip-rule="evenodd" d="M46.4555 45.89L46.1958 45.7876C46.037 45.7249 45.959 45.5454 46.0216 45.3866C46.0531 45.3069 46.1161 45.2439 46.1958 45.2124L46.4555 45.11C46.7549 44.9919 46.9919 44.7549 47.11 44.4555L47.2124 44.1958C47.2751 44.037 47.4546 43.959 47.6134 44.0216C47.6931 44.0531 47.7561 44.1161 47.7876 44.1958L47.89 44.4555C48.0081 44.7549 48.2451 44.9919 48.5445 45.11L48.8042 45.2124C48.963 45.2751 49.041 45.4546 48.9784 45.6134C48.9469 45.6931 48.8839 45.7561 48.8042 45.7876L48.5445 45.89C48.2451 46.0081 48.0081 46.2451 47.89 46.5445L47.7876 46.8042C47.7249 46.963 47.5454 47.041 47.3866 46.9784C47.3069 46.9469 47.2439 46.8839 47.2124 46.8042L47.11 46.5445C46.9919 46.2451 46.7549 46.0081 46.4555 45.89Z" fill="white"/>
</g>
<defs>
<filter id="filter0_d_6978_212598" x="10.7676" y="33" width="34.1602" height="40.5039" filterUnits="userSpaceOnUse" color-interpolation-filters="sRGB">
<feFlood flood-opacity="0" result="BackgroundImageFix"/>
<feColorMatrix in="SourceAlpha" type="matrix" values="0 0 0 0 0 0 0 0 0 0 0 0 0 0 0 0 0 0 127 0" result="hardAlpha"/>
<feOffset dy="2"/>
<feGaussianBlur stdDeviation="1"/>
<feColorMatrix type="matrix" values="0 0 0 0 0.401412 0 0 0 0 0.333333 0 0 0 0 0.819608 0 0 0 0.2 0"/>
<feBlend mode="darken" in2="BackgroundImageFix" result="effect1_dropShadow_6978_212598"/>
<feBlend mode="normal" in="SourceGraphic" in2="effect1_dropShadow_6978_212598" result="shape"/>
</filter>
<filter id="filter1_d_6978_212598" x="27.0713" y="33" width="34.1602" height="40.5039" filterUnits="userSpaceOnUse" color-interpolation-filters="sRGB">
<feFlood flood-opacity="0" result="BackgroundImageFix"/>
<feColorMatrix in="SourceAlpha" type="matrix" values="0 0 0 0 0 0 0 0 0 0 0 0 0 0 0 0 0 0 127 0" result="hardAlpha"/>
<feOffset dy="2"/>
<feGaussianBlur stdDeviation="1"/>
<feColorMatrix type="matrix" values="0 0 0 0 0.401412 0 0 0 0 0.333333 0 0 0 0 0.819608 0 0 0 0.2 0"/>
<feBlend mode="darken" in2="BackgroundImageFix" result="effect1_dropShadow_6978_212598"/>
<feBlend mode="normal" in="SourceGraphic" in2="effect1_dropShadow_6978_212598" result="shape"/>
</filter>
<filter id="filter2_d_6978_212598" x="19.1436" y="18.3086" width="33.7129" height="37.3828" filterUnits="userSpaceOnUse" color-interpolation-filters="sRGB">
<feFlood flood-opacity="0" result="BackgroundImageFix"/>
<feColorMatrix in="SourceAlpha" type="matrix" values="0 0 0 0 0 0 0 0 0 0 0 0 0 0 0 0 0 0 127 0" result="hardAlpha"/>
<feOffset dy="1"/>
<feGaussianBlur stdDeviation="1"/>
<feColorMatrix type="matrix" values="0 0 0 0 0.927721 0 0 0 0 0.665867 0 0 0 0 0.0535899 0 0 0 0.4 0"/>
<feBlend mode="normal" in2="BackgroundImageFix" result="effect1_dropShadow_6978_212598"/>
<feBlend mode="normal" in="SourceGraphic" in2="effect1_dropShadow_6978_212598" result="shape"/>
</filter>
<filter id="filter3_d_6978_212598" x="25.123" y="25.7695" width="21.7539" height="21.082" filterUnits="userSpaceOnUse" color-interpolation-filters="sRGB">
<feFlood flood-opacity="0" result="BackgroundImageFix"/>
<feColorMatrix in="SourceAlpha" type="matrix" values="0 0 0 0 0 0 0 0 0 0 0 0 0 0 0 0 0 0 127 0" result="hardAlpha"/>
<feOffset dy="1"/>
<feGaussianBlur stdDeviation="1"/>
<feColorMatrix type="matrix" values="0 0 0 0 0.996078 0 0 0 0 0.733333 0 0 0 0 0.105882 0 0 0 1 0"/>
<feBlend mode="normal" in2="BackgroundImageFix" result="effect1_dropShadow_6978_212598"/>
<feBlend mode="normal" in="SourceGraphic" in2="effect1_dropShadow_6978_212598" result="shape"/>
</filter>
<filter id="filter4_d_6978_212598" x="44" y="24" width="10" height="10" filterUnits="userSpaceOnUse" color-interpolation-filters="sRGB">
<feFlood flood-opacity="0" result="BackgroundImageFix"/>
<feColorMatrix in="SourceAlpha" type="matrix" values="0 0 0 0 0 0 0 0 0 0 0 0 0 0 0 0 0 0 127 0" result="hardAlpha"/>
<feOffset/>
<feGaussianBlur stdDeviation="1"/>
<feColorMatrix type="matrix" values="0 0 0 0 1 0 0 0 0 0.94902 0 0 0 0 0.305882 0 0 0 1 0"/>
<feBlend mode="normal" in2="BackgroundImageFix" result="effect1_dropShadow_6978_212598"/>
<feBlend mode="normal" in="SourceGraphic" in2="effect1_dropShadow_6978_212598" result="shape"/>
</filter>
<filter id="filter5_d_6978_212598" x="22" y="42" width="8" height="8" filterUnits="userSpaceOnUse" color-interpolation-filters="sRGB">
<feFlood flood-opacity="0" result="BackgroundImageFix"/>
<feColorMatrix in="SourceAlpha" type="matrix" values="0 0 0 0 0 0 0 0 0 0 0 0 0 0 0 0 0 0 127 0" result="hardAlpha"/>
<feOffset/>
<feGaussianBlur stdDeviation="1"/>
<feColorMatrix type="matrix" values="0 0 0 0 1 0 0 0 0 0.94902 0 0 0 0 0.305882 0 0 0 1 0"/>
<feBlend mode="normal" in2="BackgroundImageFix" result="effect1_dropShadow_6978_212598"/>
<feBlend mode="normal" in="SourceGraphic" in2="effect1_dropShadow_6978_212598" result="shape"/>
</filter>
<filter id="filter6_d_6978_212598" x="18" y="26" width="9" height="9" filterUnits="userSpaceOnUse" color-interpolation-filters="sRGB">
<feFlood flood-opacity="0" result="BackgroundImageFix"/>
<feColorMatrix in="SourceAlpha" type="matrix" values="0 0 0 0 0 0 0 0 0 0 0 0 0 0 0 0 0 0 127 0" result="hardAlpha"/>
<feOffset/>
<feGaussianBlur stdDeviation="1"/>
<feColorMatrix type="matrix" values="0 0 0 0 1 0 0 0 0 0.94902 0 0 0 0 0.305882 0 0 0 1 0"/>
<feBlend mode="normal" in2="BackgroundImageFix" result="effect1_dropShadow_6978_212598"/>
<feBlend mode="normal" in="SourceGraphic" in2="effect1_dropShadow_6978_212598" result="shape"/>
</filter>
<filter id="filter7_d_6978_212598" x="44" y="42" width="7" height="7" filterUnits="userSpaceOnUse" color-interpolation-filters="sRGB">
<feFlood flood-opacity="0" result="BackgroundImageFix"/>
<feColorMatrix in="SourceAlpha" type="matrix" values="0 0 0 0 0 0 0 0 0 0 0 0 0 0 0 0 0 0 127 0" result="hardAlpha"/>
<feOffset/>
<feGaussianBlur stdDeviation="1"/>
<feColorMatrix type="matrix" values="0 0 0 0 1 0 0 0 0 0.94902 0 0 0 0 0.305882 0 0 0 1 0"/>
<feBlend mode="normal" in2="BackgroundImageFix" result="effect1_dropShadow_6978_212598"/>
<feBlend mode="normal" in="SourceGraphic" in2="effect1_dropShadow_6978_212598" result="shape"/>
</filter>
<linearGradient id="paint0_linear_6978_212598" x1="5" y1="6" x2="5" y2="66" gradientUnits="userSpaceOnUse">
<stop stop-color="#6F61EC"/>
<stop offset="1" stop-color="#3D2CD4"/>
</linearGradient>
<linearGradient id="paint1_linear_6978_212598" x1="59" y1="20" x2="59" y2="39" gradientUnits="userSpaceOnUse">
<stop stop-color="#F7C71A"/>
<stop offset="1" stop-color="#FBAA00"/>
</linearGradient>
<linearGradient id="paint2_linear_6978_212598" x1="59" y1="20" x2="59" y2="39" gradientUnits="userSpaceOnUse">
<stop stop-color="#FFDF6B"/>
<stop offset="1" stop-color="#F8A60A"/>
</linearGradient>
<linearGradient id="paint3_linear_6978_212598" x1="13" y1="20" x2="13" y2="39" gradientUnits="userSpaceOnUse">
<stop stop-color="#F7C71A"/>
<stop offset="1" stop-color="#FBAA00"/>
</linearGradient>
<linearGradient id="paint4_linear_6978_212598" x1="13" y1="20" x2="13" y2="39" gradientUnits="userSpaceOnUse">
<stop stop-color="#FFDF6B"/>
<stop offset="1" stop-color="#F8A60A"/>
</linearGradient>
<linearGradient id="paint5_linear_6978_212598" x1="23" y1="16.3555" x2="23" y2="33.0018" gradientUnits="userSpaceOnUse">
<stop stop-color="#F7C71A"/>
<stop offset="1" stop-color="#FBAA00"/>
</linearGradient>
<linearGradient id="paint6_linear_6978_212598" x1="23" y1="16.3555" x2="23" y2="33.0018" gradientUnits="userSpaceOnUse">
<stop stop-color="#FFDF6B"/>
<stop offset="1" stop-color="#F8A60A"/>
</linearGradient>
<linearGradient id="paint7_linear_6978_212598" x1="13" y1="13" x2="13" y2="59" gradientUnits="userSpaceOnUse">
<stop stop-color="#FDE046"/>
<stop offset="1" stop-color="#F9B800"/>
</linearGradient>
<linearGradient id="paint8_linear_6978_212598" x1="20" y1="20" x2="20" y2="52" gradientUnits="userSpaceOnUse">
<stop stop-color="#FFF550"/>
<stop offset="1" stop-color="#FFD541"/>
</linearGradient>
<linearGradient id="paint9_linear_6978_212598" x1="28.7691" y1="28.7695" x2="28.7691" y2="43.2317" gradientUnits="userSpaceOnUse">
<stop stop-color="#FCA50E"/>
<stop offset="1" stop-color="#FFC823"/>
</linearGradient>
<linearGradient id="paint10_linear_6978_212598" x1="33.416" y1="26.9618" x2="29.14" y2="30.0179" gradientUnits="userSpaceOnUse">
<stop stop-color="#FFEC36" stop-opacity="0.467505"/>
<stop offset="1" stop-color="#FFF7AB"/>
</linearGradient>
<linearGradient id="paint11_linear_6978_212598" x1="29.1665" y1="33.3166" x2="33.1962" y2="38.2768" gradientUnits="userSpaceOnUse">
<stop stop-color="#FFED08" stop-opacity="0.8"/>
<stop offset="1" stop-color="white"/>
</linearGradient>
<linearGradient id="paint12_linear_6978_212598" x1="33.8752" y1="43.3126" x2="37.2902" y2="38.3502" gradientUnits="userSpaceOnUse">
<stop stop-color="#FFED08" stop-opacity="0.01"/>
<stop offset="1" stop-color="#FFEF63"/>
</linearGradient>
<linearGradient id="paint13_linear_6978_212598" x1="36" y1="34.5375" x2="32.5849" y2="39.4999" gradientUnits="userSpaceOnUse">
<stop stop-color="#FFEC36" stop-opacity="0.467505"/>
<stop offset="1" stop-color="#FFE94A"/>
</linearGradient>
<linearGradient id="paint14_linear_6978_212598" x1="36" y1="31.5472" x2="34.9198" y2="35.7191" gradientUnits="userSpaceOnUse">
<stop stop-color="#FFEC36" stop-opacity="0.467505"/>
<stop offset="1" stop-color="#FFF7AB"/>
</linearGradient>
</defs>
</svg>
