<svg width="72" height="74" viewBox="0 0 72 74" fill="none" xmlns="http://www.w3.org/2000/svg">
<path fill-rule="evenodd" clip-rule="evenodd" d="M53 62C54.1046 62 55 62.8954 55 64C55 65.1046 54.1046 66 53 66H35C34.8824 66 34.7673 65.9899 34.6553 65.9704C28.2305 65.687 22.3308 63.3828 17.5761 59.6779C17.1894 59.3766 16.6067 58.8771 16.1748 58.5013C15.8054 58.1799 15.3333 58 14.8436 58H10C8.89543 58 8 57.1046 8 56C8 54.8954 8.89543 54 10 54H12C13.1046 54 14 53.1046 14 52C14 50.8954 13.1046 50 12 50H7C5.89543 50 5 49.1046 5 48C5 46.8954 5.89543 46 7 46H8C9.10457 46 10 45.1046 10 44C10 42.8954 9.10457 42 8 42C7.1913 42 6.49962 41.4171 6.36506 40.6196C6.31617 40.3299 6.27734 40.0966 6.27093 40.0492C6.09227 38.7249 6 37.3732 6 36C6 19.4315 19.4315 6 36 6C41 6 46 6 51 6C52.1046 6 53 6.89543 53 8C53 9.10457 52.1046 10 51 10H48C46.8954 10 46 10.8954 46 12C46 13.1046 46.8954 14 48 14H60C61.1046 14 62 14.8954 62 16C62 17.1038 61.1058 17.9988 60.0022 18L57 18C55.8954 18 55 18.8954 55 20C55 21.1046 55.8954 22 57 22H61.306C62.0624 22 62.7556 22.4259 63.0835 23.1075C63.2807 23.5171 63.488 23.959 63.6237 24.2783C65.1536 27.8793 66 31.8408 66 36C66 37.3068 65.9164 38.5942 65.7544 39.8569C65.7271 40.0692 65.6853 40.3418 65.6398 40.6208C65.5093 41.4213 64.8111 42 64 42C62.8954 42 62 42.8954 62 44C62 45.1046 62.8954 46 64 46H65C66.1046 46 67 46.8954 67 48C67 49.1046 66.1046 50 65 50H63.7162C62.9901 50 62.3224 50.3942 61.9597 51.0232C61.7241 51.4317 61.4621 51.8761 61.2675 52.1794C60.8114 52.8903 60.326 53.5807 59.8132 54.2489C59.2981 54.9201 58.7553 55.5688 58.1864 56.1934C57.8743 56.5362 57.3685 57.044 56.974 57.4341C56.605 57.799 56.1061 58 55.5871 58H50C48.8954 58 48 58.8954 48 60C48 61.0969 48.883 61.9875 49.9769 61.9999L53 62Z" fill="url(#paint0_linear_6978_212578)"/>
<g opacity="0.1">
<path fill-rule="evenodd" clip-rule="evenodd" d="M32.9983 12.6749C34.8547 11.6031 37.1419 11.6031 38.9983 12.6749L54.6968 21.7385C56.5533 22.8103 57.6968 24.791 57.6968 26.9346V45.0617C57.6968 47.2053 56.5533 49.1861 54.6968 50.2579L38.9983 59.3214C37.1419 60.3932 34.8547 60.3932 32.9983 59.3214L17.2998 50.2579C15.4434 49.1861 14.2998 47.2053 14.2998 45.0617L14.2998 26.9346C14.2998 24.791 15.4434 22.8103 17.2998 21.7385L32.9983 12.6749Z" fill="#0274F3" style="mix-blend-mode:multiply"/>
</g>
<g filter="url(#filter0_d_6978_212578)">
<path fill-rule="evenodd" clip-rule="evenodd" d="M29.0723 33L42.9287 41L26.7605 69.0041C26.3834 69.6573 25.4465 69.6738 25.0466 69.0344L21.1255 62.7643L13.7348 62.5035C12.9811 62.4769 12.527 61.6573 12.9041 61.0041L29.0723 33Z" fill="#2DCD6B"/>
</g>
<mask id="mask0_6978_212578" style="mask-type:luminance" maskUnits="userSpaceOnUse" x="12" y="33" width="31" height="37">
<path fill-rule="evenodd" clip-rule="evenodd" d="M29.0723 33L42.9287 41L26.7605 69.0041C26.3834 69.6573 25.4465 69.6738 25.0466 69.0344L21.1255 62.7643L13.7348 62.5035C12.9811 62.4769 12.527 61.6573 12.9041 61.0041L29.0723 33Z" fill="white"/>
</mask>
<g mask="url(#mask0_6978_212578)">
<path fill-rule="evenodd" clip-rule="evenodd" d="M24.5361 48.8555L31.4643 52.8555L22.4643 68.4439L15.5361 64.4439L24.5361 48.8555Z" fill="white"/>
</g>
<g filter="url(#filter1_d_6978_212578)">
<path fill-rule="evenodd" clip-rule="evenodd" d="M42.9287 33L29.0723 41L45.2405 69.0041C45.6176 69.6573 46.5545 69.6738 46.9544 69.0344L50.8755 62.7643L58.2661 62.5035C59.0199 62.4769 59.474 61.6573 59.0969 61.0041L42.9287 33Z" fill="#2DCD6B"/>
</g>
<mask id="mask1_6978_212578" style="mask-type:luminance" maskUnits="userSpaceOnUse" x="29" y="33" width="31" height="37">
<path fill-rule="evenodd" clip-rule="evenodd" d="M42.9287 33L29.0723 41L45.2405 69.0041C45.6176 69.6573 46.5545 69.6738 46.9544 69.0344L50.8755 62.7643L58.2661 62.5035C59.0199 62.4769 59.474 61.6573 59.0969 61.0041L42.9287 33Z" fill="white"/>
</mask>
<g mask="url(#mask1_6978_212578)">
<path fill-rule="evenodd" clip-rule="evenodd" d="M47.4648 48.8555L40.5366 52.8555L49.5366 68.4439L56.4648 64.4439L47.4648 48.8555Z" fill="white"/>
</g>
<path style="mix-blend-mode:multiply" opacity="0.2" fill-rule="evenodd" clip-rule="evenodd" d="M33.9996 16.1531C35.2372 15.4386 36.762 15.4386 37.9996 16.1531L53.9182 25.3437C55.1558 26.0582 55.9182 27.3787 55.9182 28.8078V47.189C55.9182 48.618 55.1558 49.9386 53.9182 50.6531L37.9996 59.8437C36.762 60.5582 35.2372 60.5582 33.9996 59.8437L18.0811 50.6531C16.8435 49.9386 16.0811 48.618 16.0811 47.189L16.0811 28.8078C16.0811 27.3787 16.8435 26.0582 18.0811 25.3437L33.9996 16.1531Z" fill="#0274F3"/>
<path fill-rule="evenodd" clip-rule="evenodd" d="M34 14.1547C35.2376 13.4402 36.7624 13.4402 38 14.1547L53.9186 23.3453C55.1562 24.0598 55.9186 25.3803 55.9186 26.8094V45.1906C55.9186 46.6197 55.1562 47.9402 53.9186 48.6547L38 57.8453C36.7624 58.5598 35.2376 58.5598 34 57.8453L18.0814 48.6547C16.8438 47.9402 16.0814 46.6197 16.0814 45.1906V26.8094C16.0814 25.3803 16.8438 24.0598 18.0814 23.3453L34 14.1547Z" fill="url(#paint1_linear_6978_212578)" stroke="#FFF04D" stroke-opacity="0.4"/>
<mask id="mask2_6978_212578" style="mask-type:luminance" maskUnits="userSpaceOnUse" x="15" y="13" width="42" height="46">
<path fill-rule="evenodd" clip-rule="evenodd" d="M34 14.1547C35.2376 13.4402 36.7624 13.4402 38 14.1547L53.9186 23.3453C55.1562 24.0598 55.9186 25.3803 55.9186 26.8094V45.1906C55.9186 46.6197 55.1562 47.9402 53.9186 48.6547L38 57.8453C36.7624 58.5598 35.2376 58.5598 34 57.8453L18.0814 48.6547C16.8438 47.9402 16.0814 46.6197 16.0814 45.1906V26.8094C16.0814 25.3803 16.8438 24.0598 18.0814 23.3453L34 14.1547Z" fill="white" stroke="white"/>
</mask>
<g mask="url(#mask2_6978_212578)">
<path d="M37.7496 14.5861C36.6667 13.9609 35.3325 13.9609 34.2496 14.5861L18.3311 23.7767C17.2482 24.4019 16.5811 25.5574 16.5811 26.8078L16.5811 45.189C16.5811 46.4394 17.2482 47.5949 18.3311 48.2201L34.2496 57.4107C35.3325 58.0359 36.6667 58.0359 37.7496 57.4107L53.6682 48.2201C54.7511 47.5949 55.4182 46.4394 55.4182 45.189V26.8078C55.4182 25.5574 54.7511 24.4019 53.6682 23.7767L37.7496 14.5861Z" stroke="#F9B607" stroke-linecap="round"/>
<path d="M55.4182 45.189V26.8078C55.4182 25.5574 54.7511 24.4019 53.6682 23.7767L37.7496 14.5861C36.6667 13.9609 35.3325 13.9609 34.2496 14.5861L18.3311 23.7767C17.2482 24.4019 16.5811 25.5574 16.5811 26.8078L16.5811 45.189" stroke="#FBC618" stroke-linecap="round"/>
<path opacity="0.6" d="M55.4182 26.8078C55.4182 25.5574 54.7511 24.4019 53.6682 23.7767L37.7496 14.5861C36.6667 13.9609 35.3325 13.9609 34.2496 14.5861L18.3311 23.7767C17.2482 24.4019 16.5811 25.5574 16.5811 26.8078" stroke="#FFF24E" stroke-linecap="round"/>
<path opacity="0.4" d="M37.7503 14.5861C36.6674 13.9609 35.3332 13.9609 34.2503 14.5861C34.2503 14.5861 28.9441 17.6496 26.291 19.1814" stroke="white" stroke-linecap="round"/>
<path d="M34.2502 14.5859C34.2502 14.5859 31.4419 16.2073 30.2705 16.8836" stroke="white" stroke-linecap="round"/>
<path opacity="0.4" d="M37.75 57.4109C39.6222 56.33 40.9487 55.5642 41.7296 55.1133" stroke="white" stroke-linecap="round"/>
</g>
<g filter="url(#filter2_d_6978_212578)">
<path fill-rule="evenodd" clip-rule="evenodd" d="M35 20.5774C35.6188 20.2201 36.3812 20.2201 37 20.5774L48.8564 27.4226C49.4752 27.7799 49.8564 28.4402 49.8564 29.1547V42.8453C49.8564 43.5598 49.4752 44.2201 48.8564 44.5774L37 51.4226C36.3812 51.7799 35.6188 51.7799 35 51.4226L23.1436 44.5774C22.5248 44.2201 22.1436 43.5598 22.1436 42.8453V29.1547C22.1436 28.4402 22.5248 27.7799 23.1436 27.4226L35 20.5774Z" fill="url(#paint2_linear_6978_212578)"/>
<path d="M34.8975 20.0654C35.6422 19.6993 36.525 19.726 37.25 20.1445L49.1064 26.9893L49.248 27.0781C49.9375 27.54 50.3563 28.3172 50.3564 29.1543V42.8457C50.3563 43.6828 49.9375 44.46 49.248 44.9219L49.1064 45.0107L37.25 51.8555C36.525 52.274 35.6422 52.3007 34.8975 51.9346L34.75 51.8555L22.8936 45.0107C22.1202 44.5642 21.6437 43.7387 21.6436 42.8457V29.1543C21.6437 28.2613 22.1202 27.4358 22.8936 26.9893L34.75 20.1445L34.8975 20.0654Z" stroke="#F5900D" stroke-opacity="0.1" style="mix-blend-mode:multiply"/>
</g>
<mask id="mask3_6978_212578" style="mask-type:luminance" maskUnits="userSpaceOnUse" x="22" y="20" width="28" height="32">
<path fill-rule="evenodd" clip-rule="evenodd" d="M35 20.5774C35.6188 20.2201 36.3812 20.2201 37 20.5774L48.8564 27.4226C49.4752 27.7799 49.8564 28.4402 49.8564 29.1547V42.8453C49.8564 43.5598 49.4752 44.2201 48.8564 44.5774L37 51.4226C36.3812 51.7799 35.6188 51.7799 35 51.4226L23.1436 44.5774C22.5248 44.2201 22.1436 43.5598 22.1436 42.8453V29.1547C22.1436 28.4402 22.5248 27.7799 23.1436 27.4226L35 20.5774Z" fill="white"/>
</mask>
<g mask="url(#mask3_6978_212578)">
<g style="mix-blend-mode:multiply" opacity="0.3">
<path fill-rule="evenodd" clip-rule="evenodd" d="M36 35.9999L40 20H32L36 36L27.5147 21.8579L21.8579 27.5147L36 36L20 32V40L36 36L21.8579 44.4853L27.5147 50.1422L36 36L32 52H40L36 36L44.4853 50.1421L50.1421 44.4853L36 36L52 40V32L36 35.9999ZM36 35.9999L50.1421 27.5147L44.4853 21.8578L36 35.9999Z" fill="#FFD640"/>
</g>
<path opacity="0.4" d="M48.6064 27.8549L36.75 21.0096C36.2859 20.7416 35.7141 20.7416 35.25 21.0096C33.8555 21.8146 32.8675 22.3851 32.2859 22.7209C31.0754 23.4198 30.0873 23.9902 29.3218 24.4322C28.0044 25.1928 26.0283 26.3337 23.3936 27.8549" stroke="white" stroke-linecap="round"/>
<path d="M35.2502 21.0078C33.8558 21.8129 32.8678 22.3833 32.2861 22.7191" stroke="white" stroke-linecap="round"/>
</g>
<g filter="url(#filter3_d_6978_212578)">
<path d="M33.45 32.4906L36.0002 28.7695L38.5504 32.4906L42.8774 33.7661L40.1265 37.3413L40.2506 41.8507L36.0002 40.3393L31.7499 41.8507L31.8739 37.3413L29.123 33.7661L33.45 32.4906Z" fill="white"/>
<path d="M36 27.7695C36.3298 27.7695 36.6387 27.9321 36.8252 28.2041L39.1738 31.6309L43.1602 32.8066C43.4765 32.8999 43.7262 33.1434 43.8281 33.457C43.93 33.7707 43.871 34.1146 43.6699 34.376L41.1357 37.6689L41.25 41.8232C41.2591 42.1529 41.1047 42.4663 40.8379 42.6602C40.5711 42.8537 40.2256 42.9034 39.915 42.793L36 41.4004L32.085 42.793C31.7743 42.9034 31.4289 42.8539 31.1621 42.6602C30.8953 42.4663 30.7409 42.1529 30.75 41.8232L30.8633 37.6689L28.3301 34.376C28.129 34.1146 28.07 33.7706 28.1719 33.457C28.2738 33.1435 28.5237 32.9 28.8398 32.8066L32.8252 31.6309L35.1758 28.2041L35.251 28.1074C35.4394 27.8941 35.7115 27.7696 36 27.7695Z" stroke="white" stroke-width="2" stroke-linejoin="round"/>
</g>
<g filter="url(#filter4_i_6978_212578)">
<path d="M33.45 32.4906L36.0002 28.7695L38.5504 32.4906L42.8774 33.7661L40.1265 37.3413L40.2506 41.8507L36.0002 40.3393L31.7499 41.8507L31.8739 37.3413L29.123 33.7661L33.45 32.4906Z" fill="url(#paint3_linear_6978_212578)"/>
</g>
<g filter="url(#filter5_d_6978_212578)">
<path fill-rule="evenodd" clip-rule="evenodd" d="M45.9109 28.7799L45.3916 28.5751C45.0739 28.4498 44.918 28.0908 45.0433 27.7732C45.1061 27.6138 45.2322 27.4877 45.3916 27.4249L45.9109 27.2201C46.5098 26.9839 46.9839 26.5098 47.2201 25.9109L47.4249 25.3916C47.5502 25.0739 47.9092 24.918 48.2268 25.0433C48.3862 25.1061 48.5123 25.2322 48.5751 25.3916L48.7799 25.9109C49.0161 26.5098 49.4902 26.9839 50.0891 27.2201L50.6084 27.4249C50.9261 27.5502 51.082 27.9092 50.9567 28.2268C50.8939 28.3862 50.7678 28.5123 50.6084 28.5751L50.0891 28.7799C49.4902 29.0161 49.0161 29.4902 48.7799 30.0891L48.5751 30.6084C48.4498 30.9261 48.0908 31.082 47.7732 30.9567C47.6138 30.8939 47.4877 30.7678 47.4249 30.6084L47.2201 30.0891C46.9839 29.4902 46.5098 29.0161 45.9109 28.7799Z" fill="white"/>
</g>
<g filter="url(#filter6_d_6978_212578)">
<path fill-rule="evenodd" clip-rule="evenodd" d="M25.6073 44.52L25.261 44.3834C25.0493 44.2999 24.9453 44.0605 25.0289 43.8488C25.0707 43.7426 25.1548 43.6585 25.261 43.6166L25.6073 43.48C26.0065 43.3226 26.3226 43.0065 26.48 42.6073L26.6166 42.261C26.7001 42.0493 26.9395 41.9453 27.1512 42.0289C27.2574 42.0707 27.3415 42.1548 27.3834 42.261L27.52 42.6073C27.6774 43.0065 27.9935 43.3226 28.3927 43.48L28.739 43.6166C28.9507 43.7001 29.0547 43.9395 28.9711 44.1512C28.9293 44.2574 28.8452 44.3415 28.739 44.3834L28.3927 44.52C27.9935 44.6774 27.6774 44.9935 27.52 45.3927L27.3834 45.739C27.2999 45.9507 27.0605 46.0547 26.8488 45.9711C26.7426 45.9293 26.6585 45.8452 26.6166 45.739L26.48 45.3927C26.3226 44.9935 26.0065 44.6774 25.6073 44.52Z" fill="white"/>
</g>
<g filter="url(#filter7_d_6978_212578)">
<path fill-rule="evenodd" clip-rule="evenodd" d="M24.3036 29.26L24.1305 29.1917C24.0246 29.1499 23.9727 29.0303 24.0144 28.9244C24.0354 28.8713 24.0774 28.8292 24.1305 28.8083L24.3036 28.74C24.5033 28.6613 24.6613 28.5033 24.74 28.3036L24.8083 28.1305C24.8501 28.0246 24.9697 27.9727 25.0756 28.0144C25.1287 28.0354 25.1708 28.0774 25.1917 28.1305L25.26 28.3036C25.3387 28.5033 25.4967 28.6613 25.6964 28.74L25.8695 28.8083C25.9754 28.8501 26.0273 28.9697 25.9856 29.0756C25.9646 29.1287 25.9226 29.1708 25.8695 29.1917L25.6964 29.26C25.4967 29.3387 25.3387 29.4967 25.26 29.6964L25.1917 29.8695C25.1499 29.9754 25.0303 30.0273 24.9244 29.9856C24.8713 29.9646 24.8292 29.9226 24.8083 29.8695L24.74 29.6964C24.6613 29.4967 24.5033 29.3387 24.3036 29.26Z" fill="white"/>
</g>
<g filter="url(#filter8_d_6978_212578)">
<path fill-rule="evenodd" clip-rule="evenodd" d="M45.4555 45.89L45.1958 45.7876C45.037 45.7249 44.959 45.5454 45.0216 45.3866C45.0531 45.3069 45.1161 45.2439 45.1958 45.2124L45.4555 45.11C45.7549 44.9919 45.9919 44.7549 46.11 44.4555L46.2124 44.1958C46.2751 44.037 46.4546 43.959 46.6134 44.0216C46.6931 44.0531 46.7561 44.1161 46.7876 44.1958L46.89 44.4555C47.0081 44.7549 47.2451 44.9919 47.5445 45.11L47.8042 45.2124C47.963 45.2751 48.041 45.4546 47.9784 45.6134C47.9469 45.6931 47.8839 45.7561 47.8042 45.7876L47.5445 45.89C47.2451 46.0081 47.0081 46.2451 46.89 46.5445L46.7876 46.8042C46.7249 46.963 46.5454 47.041 46.3866 46.9784C46.3069 46.9469 46.2439 46.8839 46.2124 46.8042L46.11 46.5445C45.9919 46.2451 45.7549 46.0081 45.4555 45.89Z" fill="white"/>
</g>
<defs>
<filter id="filter0_d_6978_212578" x="10.7686" y="33" width="34.1602" height="40.5039" filterUnits="userSpaceOnUse" color-interpolation-filters="sRGB">
<feFlood flood-opacity="0" result="BackgroundImageFix"/>
<feColorMatrix in="SourceAlpha" type="matrix" values="0 0 0 0 0 0 0 0 0 0 0 0 0 0 0 0 0 0 127 0" result="hardAlpha"/>
<feOffset dy="2"/>
<feGaussianBlur stdDeviation="1"/>
<feColorMatrix type="matrix" values="0 0 0 0 0.333333 0 0 0 0 0.615373 0 0 0 0 0.819608 0 0 0 0.2 0"/>
<feBlend mode="darken" in2="BackgroundImageFix" result="effect1_dropShadow_6978_212578"/>
<feBlend mode="normal" in="SourceGraphic" in2="effect1_dropShadow_6978_212578" result="shape"/>
</filter>
<filter id="filter1_d_6978_212578" x="27.0723" y="33" width="34.1602" height="40.5039" filterUnits="userSpaceOnUse" color-interpolation-filters="sRGB">
<feFlood flood-opacity="0" result="BackgroundImageFix"/>
<feColorMatrix in="SourceAlpha" type="matrix" values="0 0 0 0 0 0 0 0 0 0 0 0 0 0 0 0 0 0 127 0" result="hardAlpha"/>
<feOffset dy="2"/>
<feGaussianBlur stdDeviation="1"/>
<feColorMatrix type="matrix" values="0 0 0 0 0.333333 0 0 0 0 0.615373 0 0 0 0 0.819608 0 0 0 0.2 0"/>
<feBlend mode="darken" in2="BackgroundImageFix" result="effect1_dropShadow_6978_212578"/>
<feBlend mode="normal" in="SourceGraphic" in2="effect1_dropShadow_6978_212578" result="shape"/>
</filter>
<filter id="filter2_d_6978_212578" x="19.1436" y="18.3086" width="33.7129" height="37.3828" filterUnits="userSpaceOnUse" color-interpolation-filters="sRGB">
<feFlood flood-opacity="0" result="BackgroundImageFix"/>
<feColorMatrix in="SourceAlpha" type="matrix" values="0 0 0 0 0 0 0 0 0 0 0 0 0 0 0 0 0 0 127 0" result="hardAlpha"/>
<feOffset dy="1"/>
<feGaussianBlur stdDeviation="1"/>
<feColorMatrix type="matrix" values="0 0 0 0 0.927721 0 0 0 0 0.665867 0 0 0 0 0.0535899 0 0 0 0.4 0"/>
<feBlend mode="normal" in2="BackgroundImageFix" result="effect1_dropShadow_6978_212578"/>
<feBlend mode="normal" in="SourceGraphic" in2="effect1_dropShadow_6978_212578" result="shape"/>
</filter>
<filter id="filter3_d_6978_212578" x="25.123" y="25.7695" width="21.7539" height="21.082" filterUnits="userSpaceOnUse" color-interpolation-filters="sRGB">
<feFlood flood-opacity="0" result="BackgroundImageFix"/>
<feColorMatrix in="SourceAlpha" type="matrix" values="0 0 0 0 0 0 0 0 0 0 0 0 0 0 0 0 0 0 127 0" result="hardAlpha"/>
<feOffset dy="1"/>
<feGaussianBlur stdDeviation="1"/>
<feColorMatrix type="matrix" values="0 0 0 0 0.996078 0 0 0 0 0.733333 0 0 0 0 0.105882 0 0 0 1 0"/>
<feBlend mode="normal" in2="BackgroundImageFix" result="effect1_dropShadow_6978_212578"/>
<feBlend mode="normal" in="SourceGraphic" in2="effect1_dropShadow_6978_212578" result="shape"/>
</filter>
<filter id="filter4_i_6978_212578" x="29.123" y="28.7695" width="13.7539" height="14.082" filterUnits="userSpaceOnUse" color-interpolation-filters="sRGB">
<feFlood flood-opacity="0" result="BackgroundImageFix"/>
<feBlend mode="normal" in="SourceGraphic" in2="BackgroundImageFix" result="shape"/>
<feColorMatrix in="SourceAlpha" type="matrix" values="0 0 0 0 0 0 0 0 0 0 0 0 0 0 0 0 0 0 127 0" result="hardAlpha"/>
<feOffset dy="1"/>
<feGaussianBlur stdDeviation="0.5"/>
<feComposite in2="hardAlpha" operator="arithmetic" k2="-1" k3="1"/>
<feColorMatrix type="matrix" values="0 0 0 0 1 0 0 0 0 0.634454 0 0 0 0 0 0 0 0 0.4 0"/>
<feBlend mode="normal" in2="shape" result="effect1_innerShadow_6978_212578"/>
</filter>
<filter id="filter5_d_6978_212578" x="43" y="23" width="10" height="10" filterUnits="userSpaceOnUse" color-interpolation-filters="sRGB">
<feFlood flood-opacity="0" result="BackgroundImageFix"/>
<feColorMatrix in="SourceAlpha" type="matrix" values="0 0 0 0 0 0 0 0 0 0 0 0 0 0 0 0 0 0 127 0" result="hardAlpha"/>
<feOffset/>
<feGaussianBlur stdDeviation="1"/>
<feColorMatrix type="matrix" values="0 0 0 0 1 0 0 0 0 0.94902 0 0 0 0 0.305882 0 0 0 1 0"/>
<feBlend mode="normal" in2="BackgroundImageFix" result="effect1_dropShadow_6978_212578"/>
<feBlend mode="normal" in="SourceGraphic" in2="effect1_dropShadow_6978_212578" result="shape"/>
</filter>
<filter id="filter6_d_6978_212578" x="23" y="40" width="8" height="8" filterUnits="userSpaceOnUse" color-interpolation-filters="sRGB">
<feFlood flood-opacity="0" result="BackgroundImageFix"/>
<feColorMatrix in="SourceAlpha" type="matrix" values="0 0 0 0 0 0 0 0 0 0 0 0 0 0 0 0 0 0 127 0" result="hardAlpha"/>
<feOffset/>
<feGaussianBlur stdDeviation="1"/>
<feColorMatrix type="matrix" values="0 0 0 0 1 0 0 0 0 0.94902 0 0 0 0 0.305882 0 0 0 1 0"/>
<feBlend mode="normal" in2="BackgroundImageFix" result="effect1_dropShadow_6978_212578"/>
<feBlend mode="normal" in="SourceGraphic" in2="effect1_dropShadow_6978_212578" result="shape"/>
</filter>
<filter id="filter7_d_6978_212578" x="22" y="26" width="6" height="6" filterUnits="userSpaceOnUse" color-interpolation-filters="sRGB">
<feFlood flood-opacity="0" result="BackgroundImageFix"/>
<feColorMatrix in="SourceAlpha" type="matrix" values="0 0 0 0 0 0 0 0 0 0 0 0 0 0 0 0 0 0 127 0" result="hardAlpha"/>
<feOffset/>
<feGaussianBlur stdDeviation="1"/>
<feColorMatrix type="matrix" values="0 0 0 0 1 0 0 0 0 0.94902 0 0 0 0 0.305882 0 0 0 1 0"/>
<feBlend mode="normal" in2="BackgroundImageFix" result="effect1_dropShadow_6978_212578"/>
<feBlend mode="normal" in="SourceGraphic" in2="effect1_dropShadow_6978_212578" result="shape"/>
</filter>
<filter id="filter8_d_6978_212578" x="43" y="42" width="7" height="7" filterUnits="userSpaceOnUse" color-interpolation-filters="sRGB">
<feFlood flood-opacity="0" result="BackgroundImageFix"/>
<feColorMatrix in="SourceAlpha" type="matrix" values="0 0 0 0 0 0 0 0 0 0 0 0 0 0 0 0 0 0 127 0" result="hardAlpha"/>
<feOffset/>
<feGaussianBlur stdDeviation="1"/>
<feColorMatrix type="matrix" values="0 0 0 0 1 0 0 0 0 0.94902 0 0 0 0 0.305882 0 0 0 1 0"/>
<feBlend mode="normal" in2="BackgroundImageFix" result="effect1_dropShadow_6978_212578"/>
<feBlend mode="normal" in="SourceGraphic" in2="effect1_dropShadow_6978_212578" result="shape"/>
</filter>
<linearGradient id="paint0_linear_6978_212578" x1="5" y1="6" x2="5" y2="66" gradientUnits="userSpaceOnUse">
<stop stop-color="#90B3FF"/>
<stop offset="1" stop-color="#0066FF"/>
</linearGradient>
<linearGradient id="paint1_linear_6978_212578" x1="13" y1="13" x2="13" y2="59" gradientUnits="userSpaceOnUse">
<stop stop-color="#FDE046"/>
<stop offset="1" stop-color="#F9B800"/>
</linearGradient>
<linearGradient id="paint2_linear_6978_212578" x1="20" y1="20" x2="20" y2="52" gradientUnits="userSpaceOnUse">
<stop stop-color="#FFF550"/>
<stop offset="1" stop-color="#FFD541"/>
</linearGradient>
<linearGradient id="paint3_linear_6978_212578" x1="28.7691" y1="28.7695" x2="28.7691" y2="43.2317" gradientUnits="userSpaceOnUse">
<stop stop-color="#FFC823"/>
<stop offset="1" stop-color="#FCA50E"/>
</linearGradient>
</defs>
</svg>
