<svg width="72" height="74" viewBox="0 0 72 74" fill="none" xmlns="http://www.w3.org/2000/svg">
<path fill-rule="evenodd" clip-rule="evenodd" d="M53 62C54.1046 62 55 62.8954 55 64C55 65.1046 54.1046 66 53 66H35C34.8824 66 34.7673 65.9899 34.6553 65.9704C28.2305 65.687 22.3308 63.3828 17.5761 59.6779C17.1894 59.3766 16.6067 58.8771 16.1748 58.5013C15.8054 58.1799 15.3333 58 14.8436 58H10C8.89543 58 8 57.1046 8 56C8 54.8954 8.89543 54 10 54H12C13.1046 54 14 53.1046 14 52C14 50.8954 13.1046 50 12 50H7C5.89543 50 5 49.1046 5 48C5 46.8954 5.89543 46 7 46H8C9.10457 46 10 45.1046 10 44C10 42.8954 9.10457 42 8 42C7.1913 42 6.49962 41.4171 6.36506 40.6196C6.31617 40.3299 6.27734 40.0966 6.27093 40.0492C6.09227 38.7249 6 37.3732 6 36C6 19.4315 19.4315 6 36 6C41 6 46 6 51 6C52.1046 6 53 6.89543 53 8C53 9.10457 52.1046 10 51 10H48C46.8954 10 46 10.8954 46 12C46 13.1046 46.8954 14 48 14H60C61.1046 14 62 14.8954 62 16C62 17.1038 61.1058 17.9988 60.0022 18L57 18C55.8954 18 55 18.8954 55 20C55 21.1046 55.8954 22 57 22H61.306C62.0624 22 62.7556 22.4259 63.0835 23.1075C63.2807 23.5171 63.488 23.959 63.6237 24.2783C65.1536 27.8793 66 31.8408 66 36C66 37.3068 65.9164 38.5942 65.7544 39.8569C65.7271 40.0692 65.6853 40.3418 65.6398 40.6208C65.5093 41.4213 64.8111 42 64 42C62.8954 42 62 42.8954 62 44C62 45.1046 62.8954 46 64 46H65C66.1046 46 67 46.8954 67 48C67 49.1046 66.1046 50 65 50H63.7162C62.9901 50 62.3224 50.3942 61.9597 51.0232C61.7241 51.4317 61.4621 51.8761 61.2675 52.1794C60.8114 52.8903 60.326 53.5807 59.8132 54.2489C59.2981 54.9201 58.7553 55.5688 58.1864 56.1934C57.8743 56.5362 57.3685 57.044 56.974 57.4341C56.605 57.799 56.1061 58 55.5871 58H50C48.8954 58 48 58.8954 48 60C48 61.0969 48.883 61.9875 49.9769 61.9999L53 62Z" fill="url(#paint0_linear_6978_212638)"/>
<g opacity="0.2">
<path fill-rule="evenodd" clip-rule="evenodd" d="M32.9983 12.6751C34.8547 11.6033 37.1419 11.6033 38.9983 12.6751L54.6968 21.7387C56.5533 22.8105 57.6968 24.7912 57.6968 26.9348V45.0619C57.6968 47.2055 56.5533 49.1863 54.6968 50.2581L38.9983 59.3216C37.1419 60.3934 34.8547 60.3934 32.9983 59.3216L17.2998 50.2581C15.4434 49.1863 14.2998 47.2055 14.2998 45.0619L14.2998 26.9348C14.2998 24.7912 15.4434 22.8105 17.2998 21.7387L32.9983 12.6751Z" fill="#A4053A" fill-opacity="0.2" style="mix-blend-mode:multiply"/>
</g>
<g filter="url(#filter0_d_6978_212638)">
<path fill-rule="evenodd" clip-rule="evenodd" d="M22 33H38V63.382C38 64.1253 37.2177 64.6088 36.5528 64.2764L30 61L23.4472 64.2764C22.7823 64.6088 22 64.1253 22 63.382V33Z" fill="#7F45F6"/>
</g>
<g filter="url(#filter1_d_6978_212638)">
<path fill-rule="evenodd" clip-rule="evenodd" d="M34 33H50V63.382C50 64.1253 49.2177 64.6088 48.5528 64.2764L42 61L35.4472 64.2764C34.7823 64.6088 34 64.1253 34 63.382V33Z" fill="#7F45F6"/>
</g>
<g filter="url(#filter2_d_6978_212638)">
<path fill-rule="evenodd" clip-rule="evenodd" d="M28 38H44V68.382C44 69.1253 43.2177 69.6088 42.5528 69.2764L36 66L29.4472 69.2764C28.7823 69.6088 28 69.1253 28 68.382V38Z" fill="white"/>
</g>
<mask id="mask0_6978_212638" style="mask-type:luminance" maskUnits="userSpaceOnUse" x="28" y="38" width="16" height="32">
<path fill-rule="evenodd" clip-rule="evenodd" d="M28 38H44V68.382C44 69.1253 43.2177 69.6088 42.5528 69.2764L36 66L29.4472 69.2764C28.7823 69.6088 28 69.1253 28 68.382V38Z" fill="white"/>
</mask>
<g mask="url(#mask0_6978_212638)">
<rect x="32" y="38" width="8" height="32" fill="#F55462"/>
</g>
<path style="mix-blend-mode:multiply" opacity="0.8" fill-rule="evenodd" clip-rule="evenodd" d="M33.9996 16.1531C35.2372 15.4386 36.762 15.4386 37.9996 16.1531L53.9182 25.3437C55.1558 26.0582 55.9182 27.3787 55.9182 28.8078V47.189C55.9182 48.618 55.1558 49.9386 53.9182 50.6531L37.9996 59.8437C36.762 60.5582 35.2372 60.5582 33.9996 59.8437L18.0811 50.6531C16.8435 49.9386 16.0811 48.618 16.0811 47.189L16.0811 28.8078C16.0811 27.3787 16.8435 26.0582 18.0811 25.3437L33.9996 16.1531Z" fill="#A4053A" fill-opacity="0.2"/>
<path fill-rule="evenodd" clip-rule="evenodd" d="M19 24.5L14 22.5V21.5L9.19839 19.4993C8.72617 19.3026 8.24011 19.7491 8.39625 20.2363L14.0921 38.0074C14.1911 38.3164 14.4339 38.5581 14.7433 38.6558L19 40V24.5Z" fill="url(#paint1_linear_6978_212638)" stroke="url(#paint2_linear_6978_212638)" stroke-linecap="round" stroke-linejoin="round"/>
<mask id="mask1_6978_212638" style="mask-type:luminance" maskUnits="userSpaceOnUse" x="8" y="20" width="12" height="20">
<path fill-rule="evenodd" clip-rule="evenodd" d="M19 25.8541C19 25.0363 18.5021 24.3008 17.7428 23.9971L14.4678 22.6871C14.1853 22.5741 14 22.3005 14 21.9961C14 21.6957 13.8194 21.4247 13.542 21.3092L11.9946 20.6644C10.4205 20.0086 8.80036 21.4971 9.32084 23.121L13.9342 37.5148C14.1323 38.1327 14.6178 38.6161 15.2365 38.8115L16.3977 39.1782C17.6868 39.5853 19 38.6229 19 37.2711V25.8541Z" fill="white" stroke="white"/>
</mask>
<g mask="url(#mask1_6978_212638)">
<g style="mix-blend-mode:multiply" opacity="0.6" filter="url(#filter3_i_6978_212638)">
<path d="M19.1858 30.0359C19.4422 30.1384 19.5669 30.4294 19.4644 30.6858C19.3618 30.9422 19.0708 31.0669 18.8144 30.9644L13.8144 28.9644C13.6246 28.8884 13.5001 28.7046 13.5001 28.5001V27.8335L7.80782 25.4617C7.55292 25.3555 7.43238 25.0627 7.53859 24.8078C7.6448 24.5529 7.93754 24.4324 8.19244 24.5386L14.1924 27.0386C14.3788 27.1162 14.5001 27.2983 14.5001 27.5001V28.1616L19.1858 30.0359Z" fill="#FABC10"/>
</g>
<g style="mix-blend-mode:multiply" opacity="0.6" filter="url(#filter4_i_6978_212638)">
<path d="M20.1858 36.0359C20.4422 36.1384 20.5669 36.4294 20.4644 36.6858C20.3618 36.9422 20.0708 37.0669 19.8144 36.9644L14.8144 34.9644C14.6246 34.8884 14.5001 34.7046 14.5001 34.5001V33.8335L8.80782 31.4617C8.55292 31.3555 8.43238 31.0627 8.53859 30.8078C8.6448 30.5529 8.93754 30.4324 9.19244 30.5386L15.1924 33.0386C15.3788 33.1162 15.5001 33.2983 15.5001 33.5001V34.1616L20.1858 36.0359Z" fill="#FABC10"/>
</g>
<g opacity="0.2">
<path fill-rule="evenodd" clip-rule="evenodd" d="M32.9983 12.6751C34.8547 11.6033 37.1419 11.6033 38.9983 12.6751L54.6968 21.7387C56.5533 22.8105 57.6968 24.7912 57.6968 26.9348V45.0619C57.6968 47.2055 56.5533 49.1863 54.6968 50.2581L38.9983 59.3216C37.1419 60.3934 34.8547 60.3934 32.9983 59.3216L17.2998 50.2581C15.4434 49.1863 14.2998 47.2055 14.2998 45.0619L14.2998 26.9348C14.2998 24.7912 15.4434 22.8105 17.2998 21.7387L32.9983 12.6751Z" fill="#A4053A" fill-opacity="0.2" style="mix-blend-mode:multiply"/>
</g>
</g>
<path fill-rule="evenodd" clip-rule="evenodd" d="M53 24.5L58 22.5V21.5L62.8016 19.4993C63.2738 19.3026 63.7599 19.7491 63.6037 20.2363L57.9079 38.0074C57.8089 38.3164 57.5661 38.5581 57.2567 38.6558L53 40V24.5Z" fill="url(#paint3_linear_6978_212638)" stroke="url(#paint4_linear_6978_212638)" stroke-linecap="round" stroke-linejoin="round"/>
<mask id="mask2_6978_212638" style="mask-type:luminance" maskUnits="userSpaceOnUse" x="52" y="20" width="12" height="20">
<path fill-rule="evenodd" clip-rule="evenodd" d="M53 25.8541C53 25.0363 53.4979 24.3008 54.2572 23.9971L57.5322 22.6871C57.8147 22.5741 58 22.3005 58 21.9961C58 21.6957 58.1806 21.4247 58.458 21.3092L60.0054 20.6644C61.5795 20.0086 63.1996 21.4971 62.6792 23.121L58.0658 37.5148C57.8677 38.1327 57.3822 38.6161 56.7635 38.8115L55.6023 39.1782C54.3132 39.5853 53 38.6229 53 37.2711V25.8541Z" fill="white" stroke="white"/>
</mask>
<g mask="url(#mask2_6978_212638)">
<g style="mix-blend-mode:multiply" opacity="0.6" filter="url(#filter5_i_6978_212638)">
<path d="M52.8142 30.0359C52.5578 30.1384 52.4331 30.4294 52.5356 30.6858C52.6382 30.9422 52.9292 31.0669 53.1856 30.9644L58.1856 28.9644C58.3754 28.8884 58.4999 28.7046 58.4999 28.5001V27.8335L64.1922 25.4617C64.4471 25.3555 64.5676 25.0627 64.4614 24.8078C64.3552 24.5529 64.0625 24.4324 63.8076 24.5386L57.8076 27.0386C57.6212 27.1162 57.4999 27.2983 57.4999 27.5001V28.1616L52.8142 30.0359Z" fill="#FABC10"/>
</g>
<g style="mix-blend-mode:multiply" opacity="0.6" filter="url(#filter6_i_6978_212638)">
<path d="M51.8142 36.0359C51.5578 36.1384 51.4331 36.4294 51.5356 36.6858C51.6382 36.9422 51.9292 37.0669 52.1856 36.9644L57.1856 34.9644C57.3754 34.8884 57.4999 34.7046 57.4999 34.5001V33.8335L63.1922 31.4617C63.4471 31.3555 63.5676 31.0627 63.4614 30.8078C63.3552 30.5529 63.0625 30.4324 62.8076 30.5386L56.8076 33.0386C56.6212 33.1162 56.4999 33.2983 56.4999 33.5001V34.1616L51.8142 36.0359Z" fill="#FABC10"/>
</g>
<g opacity="0.2">
<path fill-rule="evenodd" clip-rule="evenodd" d="M39.0017 12.6751C37.1453 11.6033 34.8581 11.6033 33.0017 12.6751L17.3032 21.7387C15.4467 22.8105 14.3032 24.7912 14.3032 26.9348V45.0619C14.3032 47.2055 15.4467 49.1863 17.3032 50.2581L33.0017 59.3216C34.8581 60.3934 37.1453 60.3934 39.0017 59.3216L54.7002 50.2581C56.5566 49.1863 57.7002 47.2055 57.7002 45.0619L57.7002 26.9348C57.7002 24.7912 56.5566 22.8105 54.7002 21.7387L39.0017 12.6751Z" fill="#A4053A" fill-opacity="0.2" style="mix-blend-mode:multiply"/>
</g>
</g>
<path fill-rule="evenodd" clip-rule="evenodd" d="M18 42L14.474 43.763C14.1775 43.9112 13.9738 44.1967 13.93 44.5253L13.1602 50.2982C13.0946 50.7906 13.6214 51.1449 14.0527 50.8985L20 47.5L18 42Z" fill="url(#paint5_linear_6978_212638)" stroke="url(#paint6_linear_6978_212638)" stroke-linecap="round" stroke-linejoin="round"/>
<mask id="mask3_6978_212638" style="mask-type:luminance" maskUnits="userSpaceOnUse" x="13" y="42" width="8" height="9">
<path fill-rule="evenodd" clip-rule="evenodd" d="M18.7669 44.1089C18.3584 42.9855 17.0621 42.469 15.9929 43.0036L14.948 43.526C14.355 43.8225 13.9475 44.3935 13.8599 45.0505L13.5341 47.4941C13.3153 49.1353 15.0713 50.3164 16.5089 49.4949L18.5368 48.3361C19.3822 47.853 19.7568 46.8313 19.4241 45.9162L18.7669 44.1089Z" fill="white" stroke="white"/>
</mask>
<g mask="url(#mask3_6978_212638)">
<g opacity="0.1">
<path fill-rule="evenodd" clip-rule="evenodd" d="M32.7796 12.6751C34.636 11.6033 36.9232 11.6033 38.7796 12.6751L54.4781 21.7387C56.3345 22.8105 57.4781 24.7912 57.4781 26.9348V45.0619C57.4781 47.2055 56.3345 49.1863 54.4781 50.2581L38.7796 59.3216C36.9232 60.3934 34.636 60.3934 32.7796 59.3216L17.0811 50.2581C15.2246 49.1863 14.0811 47.2055 14.0811 45.0619L14.0811 26.9348C14.0811 24.7912 15.2246 22.8105 17.0811 21.7387L32.7796 12.6751Z" fill="#F37E02" style="mix-blend-mode:multiply"/>
</g>
</g>
<path fill-rule="evenodd" clip-rule="evenodd" d="M54 42L57.526 43.763C57.8225 43.9112 58.0262 44.1967 58.07 44.5253L58.8398 50.2982C58.9054 50.7906 58.3786 51.1449 57.9473 50.8985L52 47.5L54 42Z" fill="url(#paint7_linear_6978_212638)" stroke="url(#paint8_linear_6978_212638)" stroke-linecap="round" stroke-linejoin="round"/>
<mask id="mask4_6978_212638" style="mask-type:luminance" maskUnits="userSpaceOnUse" x="51" y="41" width="9" height="11">
<path fill-rule="evenodd" clip-rule="evenodd" d="M54 42L57.526 43.763C57.8225 43.9112 58.0262 44.1967 58.07 44.5253L58.8398 50.2982C58.9054 50.7906 58.3786 51.1449 57.9473 50.8985L52 47.5L54 42Z" fill="white" stroke="white" stroke-linecap="round" stroke-linejoin="round"/>
</mask>
<g mask="url(#mask4_6978_212638)">
<g opacity="0.1">
<path fill-rule="evenodd" clip-rule="evenodd" d="M39.2204 12.6751C37.364 11.6033 35.0768 11.6033 33.2204 12.6751L17.5219 21.7387C15.6655 22.8105 14.5219 24.7912 14.5219 26.9348V45.0619C14.5219 47.2055 15.6655 49.1863 17.5219 50.2581L33.2204 59.3216C35.0768 60.3934 37.364 60.3934 39.2204 59.3216L54.9189 50.2581C56.7754 49.1863 57.9189 47.2055 57.9189 45.0619L57.9189 26.9348C57.9189 24.7912 56.7754 22.8105 54.9189 21.7387L39.2204 12.6751Z" fill="#F37E02" style="mix-blend-mode:multiply"/>
</g>
</g>
<path fill-rule="evenodd" clip-rule="evenodd" d="M30.0208 23.6735C30.0208 25.2076 29.1434 26.6066 27.7623 27.2745L25.803 28.222C23.1468 29.5065 20.0615 27.5715 20.0615 24.621V19.7783C20.0615 19.0638 20.4427 18.4035 21.0615 18.0462L28.5208 13.7396C29.1875 13.3547 30.0208 13.8358 30.0208 14.6056V23.6735Z" fill="url(#paint9_linear_6978_212638)"/>
<path opacity="0.4" d="M21.207 18.5364L28.7816 14.1641" stroke="#FDEDAC" stroke-linecap="round"/>
<path fill-rule="evenodd" clip-rule="evenodd" d="M41.9792 23.6735C41.9792 25.2076 42.8566 26.6066 44.2377 27.2745L46.197 28.222C48.8532 29.5065 51.9385 27.5715 51.9385 24.621V19.7783C51.9385 19.0638 51.5573 18.4035 50.9385 18.0462L43.4792 13.7396C42.8125 13.3547 41.9792 13.8358 41.9792 14.6056V23.6735Z" fill="url(#paint10_linear_6978_212638)"/>
<path opacity="0.4" d="M50.793 18.5364L43.2184 14.1641" stroke="#FDEDAC" stroke-linecap="round"/>
<path fill-rule="evenodd" clip-rule="evenodd" d="M34 14.1547C35.2376 13.4402 36.7624 13.4402 38 14.1547L53.9186 23.3453C55.1562 24.0598 55.9186 25.3803 55.9186 26.8094V45.1906C55.9186 46.6197 55.1562 47.9402 53.9186 48.6547L38 57.8453C36.7624 58.5598 35.2376 58.5598 34 57.8453L18.0814 48.6547C16.8438 47.9402 16.0814 46.6197 16.0814 45.1906V26.8094C16.0814 25.3803 16.8438 24.0598 18.0814 23.3453L34 14.1547Z" fill="url(#paint11_linear_6978_212638)" stroke="#FFF04D" stroke-opacity="0.4"/>
<mask id="mask5_6978_212638" style="mask-type:luminance" maskUnits="userSpaceOnUse" x="16" y="13" width="40" height="46">
<path fill-rule="evenodd" clip-rule="evenodd" d="M35 13.5774C35.6188 13.2201 36.3812 13.2201 37 13.5774L54.9186 23.9226C55.5374 24.2799 55.9186 24.9402 55.9186 25.6547V46.3453C55.9186 47.0598 55.5374 47.7201 54.9186 48.0774L37 58.4226C36.3812 58.7799 35.6188 58.7799 35 58.4226L17.0814 48.0774C16.4626 47.7201 16.0814 47.0598 16.0814 46.3453V25.6547C16.0814 24.9402 16.4626 24.2799 17.0814 23.9226L35 13.5774Z" fill="white"/>
</mask>
<g mask="url(#mask5_6978_212638)">
<g style="mix-blend-mode:multiply" opacity="0.8" filter="url(#filter7_i_6978_212638)">
<path fill-rule="evenodd" clip-rule="evenodd" d="M51.6707 25.1901L37.5163 17.0084C36.5778 16.466 35.4216 16.466 34.4832 17.0084L20.3288 25.1901C19.3903 25.7325 18.8122 26.735 18.8122 27.8199V33.7222L17.6647 35.4455C17.4412 35.7812 17.4412 36.2183 17.6647 36.554L18.8122 38.2773V44.1832C18.8122 45.2681 19.3903 46.2706 20.3288 46.8131L34.4832 54.9947C35.4216 55.5372 36.5778 55.5372 37.5163 54.9947L51.6707 46.8131C52.6092 46.2706 53.1873 45.2681 53.1873 44.1832V38.2772L54.3347 36.554C54.5583 36.2183 54.5583 35.7812 54.3347 35.4455L53.1873 33.7223V27.8199C53.1873 26.735 52.6092 25.7325 51.6707 25.1901ZM19.8232 38.2772V44.1832C19.8232 44.9065 20.2086 45.5748 20.8343 45.9364L34.9887 54.1181C35.6143 54.4797 36.3851 54.4797 37.0108 54.1181L51.1652 45.9364C51.7908 45.5748 52.1762 44.9065 52.1762 44.1832V38.2773L51.0288 36.554C50.8052 36.2183 50.8052 35.7812 51.0288 35.4455L52.1762 33.7223V27.8199C52.1762 27.0966 51.7908 26.4283 51.1652 26.0667L37.0108 17.885C36.3851 17.5233 35.6143 17.5233 34.9887 17.885L20.8343 26.0667C20.2086 26.4283 19.8232 27.0966 19.8232 27.8199V33.7223L20.9707 35.4455C21.1942 35.7812 21.1942 36.2183 20.9707 36.554L19.8232 38.2772Z" fill="#FABC10"/>
</g>
<path d="M37.7496 14.5861C36.6667 13.9609 35.3325 13.9609 34.2496 14.5861L18.3311 23.7767C17.2482 24.4019 16.5811 25.5574 16.5811 26.8078L16.5811 45.189C16.5811 46.4394 17.2482 47.5949 18.3311 48.2201L34.2496 57.4107C35.3325 58.0359 36.6667 58.0359 37.7496 57.4107L53.6682 48.2201C54.7511 47.5949 55.4182 46.4394 55.4182 45.189V26.8078C55.4182 25.5574 54.7511 24.4019 53.6682 23.7767L37.7496 14.5861Z" stroke="#FAB90A"/>
<path opacity="0.4" d="M37.75 57.4109C39.6222 56.33 40.9487 55.5642 41.7296 55.1133" stroke="white" stroke-linecap="round"/>
<path d="M55.4182 45.189V26.8078C55.4182 25.5574 54.7511 24.4019 53.6682 23.7767L37.7496 14.5861C36.6667 13.9609 35.3325 13.9609 34.2496 14.5861L18.3311 23.7767C17.2482 24.4019 16.5811 25.5574 16.5811 26.8078L16.5811 45.189" stroke="#FAC81C" stroke-linecap="round"/>
<path opacity="0.6" d="M55.4182 26.8078C55.4182 25.5574 54.7511 24.4019 53.6682 23.7767L37.7496 14.5861C36.6667 13.9609 35.3325 13.9609 34.2496 14.5861L18.3311 23.7767C17.2482 24.4019 16.5811 25.5574 16.5811 26.8078" stroke="#FDDB3D" stroke-linecap="round"/>
<path opacity="0.6" d="M37.7503 14.5861C36.6674 13.9609 35.3332 13.9609 34.2503 14.5861C34.2503 14.5861 28.9441 17.6496 26.291 19.1814" stroke="white" stroke-linecap="round"/>
<path d="M34.2502 14.5859C34.2502 14.5859 31.4419 16.2073 30.2705 16.8836" stroke="white" stroke-linecap="round"/>
</g>
<g filter="url(#filter8_d_6978_212638)">
<path fill-rule="evenodd" clip-rule="evenodd" d="M35 20.5774C35.6188 20.2201 36.3812 20.2201 37 20.5774L48.8564 27.4226C49.4752 27.7799 49.8564 28.4402 49.8564 29.1547V42.8453C49.8564 43.5598 49.4752 44.2201 48.8564 44.5774L37 51.4226C36.3812 51.7799 35.6188 51.7799 35 51.4226L23.1436 44.5774C22.5248 44.2201 22.1436 43.5598 22.1436 42.8453V29.1547C22.1436 28.4402 22.5248 27.7799 23.1436 27.4226L35 20.5774Z" fill="url(#paint12_linear_6978_212638)"/>
<path d="M34.8975 20.0654C35.6422 19.6993 36.525 19.726 37.25 20.1445L49.1064 26.9893L49.248 27.0781C49.9375 27.54 50.3563 28.3172 50.3564 29.1543V42.8457C50.3563 43.6828 49.9375 44.46 49.248 44.9219L49.1064 45.0107L37.25 51.8555C36.525 52.274 35.6422 52.3007 34.8975 51.9346L34.75 51.8555L22.8936 45.0107C22.1202 44.5642 21.6437 43.7387 21.6436 42.8457V29.1543C21.6437 28.2613 22.1202 27.4358 22.8936 26.9893L34.75 20.1445L34.8975 20.0654Z" stroke="#F5900D" stroke-opacity="0.1" style="mix-blend-mode:multiply"/>
</g>
<mask id="mask6_6978_212638" style="mask-type:luminance" maskUnits="userSpaceOnUse" x="22" y="20" width="28" height="32">
<path fill-rule="evenodd" clip-rule="evenodd" d="M35 20.5774C35.6188 20.2201 36.3812 20.2201 37 20.5774L48.8564 27.4226C49.4752 27.7799 49.8564 28.4402 49.8564 29.1547V42.8453C49.8564 43.5598 49.4752 44.2201 48.8564 44.5774L37 51.4226C36.3812 51.7799 35.6188 51.7799 35 51.4226L23.1436 44.5774C22.5248 44.2201 22.1436 43.5598 22.1436 42.8453V29.1547C22.1436 28.4402 22.5248 27.7799 23.1436 27.4226L35 20.5774Z" fill="white"/>
</mask>
<g mask="url(#mask6_6978_212638)">
<g style="mix-blend-mode:multiply" opacity="0.3">
<path fill-rule="evenodd" clip-rule="evenodd" d="M36 36L20 40V32L36 36ZM36 36L40 20H32L36 36ZM36 36L52 32V40L36 36ZM36 36L44.4853 21.8579L50.1421 27.5147L36 36ZM36 36L44.4853 50.1421L50.1421 44.4853L36 36ZM36 36L32 52H40L36 36ZM36 36L27.5147 50.1421L21.8579 44.4853L36 36Z" fill="#FFD640"/>
<path d="M27.5147 21.8579L21.8579 27.5147L36 36L27.5147 21.8579Z" fill="#FFD640"/>
</g>
<path opacity="0.4" d="M48.6064 27.8549L36.75 21.0096C36.2859 20.7416 35.7141 20.7416 35.25 21.0096C33.8555 21.8146 32.8675 22.3851 32.2859 22.7209C31.0754 23.4198 30.0873 23.9902 29.3218 24.4322C28.0044 25.1928 26.0283 26.3337 23.3936 27.8549" stroke="white" stroke-linecap="round"/>
<path d="M35.2502 21.0117C33.8558 21.8168 32.8678 22.3872 32.2861 22.723" stroke="white" stroke-linecap="round"/>
<path opacity="0.4" d="M48.6064 44.11L36.75 50.9553C36.2859 51.2232 35.7141 51.2232 35.25 50.9553" stroke="white" stroke-linecap="round"/>
</g>
<g filter="url(#filter9_d_6978_212638)">
<path d="M29.7773 30.556L35.9996 26.832L42.2218 30.556V41.4414L35.9996 45.1654L29.7773 41.4414V30.556Z" fill="white"/>
<path d="M43.2217 41.4414C43.2217 41.7931 43.0371 42.1192 42.7354 42.2998L36.5127 46.0234C36.2362 46.1888 35.8999 46.2098 35.6084 46.0859L35.4863 46.0234L29.2637 42.2998C28.9619 42.1192 28.7773 41.7931 28.7773 41.4414V30.5557C28.7775 30.2042 28.9622 29.8788 29.2637 29.6982L35.4863 25.9736L35.6084 25.9121C35.8999 25.7881 36.2362 25.8083 36.5127 25.9736L42.7354 29.6982C43.0369 29.8788 43.2216 30.2042 43.2217 30.5557V41.4414Z" stroke="white" stroke-width="2" stroke-linejoin="round"/>
</g>
<path fill-rule="evenodd" clip-rule="evenodd" d="M29.7773 30.556L35.9996 26.832V30.8424L33.1713 32.5612L29.7773 30.556Z" fill="url(#paint13_linear_6978_212638)"/>
<path fill-rule="evenodd" clip-rule="evenodd" d="M29.7773 30.5547V41.4401L33.1713 39.4349V32.5599L29.7773 30.5547Z" fill="url(#paint14_linear_6978_212638)"/>
<path fill-rule="evenodd" clip-rule="evenodd" d="M35.9996 45.1667L29.7773 41.4427L33.1713 39.4375L35.9996 41.1562V45.1667Z" fill="url(#paint15_linear_6978_212638)"/>
<path fill-rule="evenodd" clip-rule="evenodd" d="M36 45.1667L42.2222 41.4427L38.8283 39.4375L36 41.1562V45.1667Z" fill="url(#paint16_linear_6978_212638)"/>
<path fill-rule="evenodd" clip-rule="evenodd" d="M42.2221 30.5547V41.4401L38.8281 39.4349V32.5599L42.2221 30.5547Z" fill="url(#paint17_linear_6978_212638)"/>
<path fill-rule="evenodd" clip-rule="evenodd" d="M42.2222 30.556L36 26.832V30.8424L38.8283 32.5612L42.2222 30.556Z" fill="url(#paint18_linear_6978_212638)"/>
<path fill-rule="evenodd" clip-rule="evenodd" d="M33.1709 39.4375L35.9992 41.1562L38.8275 39.4375V32.5625L35.9992 30.8438L33.1709 32.5625V39.4375Z" fill="url(#paint19_linear_6978_212638)"/>
<g filter="url(#filter10_d_6978_212638)">
<path fill-rule="evenodd" clip-rule="evenodd" d="M46.9109 29.7799L46.3916 29.5751C46.0739 29.4498 45.918 29.0908 46.0433 28.7732C46.1061 28.6138 46.2322 28.4877 46.3916 28.4249L46.9109 28.2201C47.5098 27.9839 47.9839 27.5098 48.2201 26.9109L48.4249 26.3916C48.5502 26.0739 48.9092 25.918 49.2268 26.0433C49.3862 26.1061 49.5123 26.2322 49.5751 26.3916L49.7799 26.9109C50.0161 27.5098 50.4902 27.9839 51.0891 28.2201L51.6084 28.4249C51.9261 28.5502 52.082 28.9092 51.9567 29.2268C51.8939 29.3862 51.7678 29.5123 51.6084 29.5751L51.0891 29.7799C50.4902 30.0161 50.0161 30.4902 49.7799 31.0891L49.5751 31.6084C49.4498 31.9261 49.0908 32.082 48.7732 31.9567C48.6138 31.8939 48.4877 31.7678 48.4249 31.6084L48.2201 31.0891C47.9839 30.4902 47.5098 30.0161 46.9109 29.7799Z" fill="white"/>
</g>
<g filter="url(#filter11_d_6978_212638)">
<path fill-rule="evenodd" clip-rule="evenodd" d="M24.6073 46.52L24.261 46.3834C24.0493 46.2999 23.9453 46.0605 24.0289 45.8488C24.0707 45.7426 24.1548 45.6585 24.261 45.6166L24.6073 45.48C25.0065 45.3226 25.3226 45.0065 25.48 44.6073L25.6166 44.261C25.7001 44.0493 25.9395 43.9453 26.1512 44.0289C26.2574 44.0707 26.3415 44.1548 26.3834 44.261L26.52 44.6073C26.6774 45.0065 26.9935 45.3226 27.3927 45.48L27.739 45.6166C27.9507 45.7001 28.0547 45.9395 27.9711 46.1512C27.9293 46.2574 27.8452 46.3415 27.739 46.3834L27.3927 46.52C26.9935 46.6774 26.6774 46.9935 26.52 47.3927L26.3834 47.739C26.2999 47.9507 26.0605 48.0547 25.8488 47.9711C25.7426 47.9293 25.6585 47.8452 25.6166 47.739L25.48 47.3927C25.3226 46.9935 25.0065 46.6774 24.6073 46.52Z" fill="white"/>
</g>
<g filter="url(#filter12_d_6978_212638)">
<path fill-rule="evenodd" clip-rule="evenodd" d="M20.7591 31.1499L20.3263 30.9793C20.0616 30.8749 19.9317 30.5757 20.0361 30.311C20.0884 30.1782 20.1935 30.0731 20.3263 30.0207L20.7591 29.8501C21.2582 29.6532 21.6532 29.2582 21.8501 28.7591L22.0207 28.3263C22.1251 28.0616 22.4243 27.9317 22.689 28.0361C22.8218 28.0884 22.9269 28.1935 22.9793 28.3263L23.1499 28.7591C23.3468 29.2582 23.7418 29.6532 24.2409 29.8501L24.6737 30.0207C24.9384 30.1251 25.0683 30.4243 24.9639 30.689C24.9116 30.8218 24.8065 30.9269 24.6737 30.9793L24.2409 31.1499C23.7418 31.3468 23.3468 31.7418 23.1499 32.2409L22.9793 32.6737C22.8749 32.9384 22.5757 33.0683 22.311 32.9639C22.1782 32.9116 22.0731 32.8065 22.0207 32.6737L21.8501 32.2409C21.6532 31.7418 21.2582 31.3468 20.7591 31.1499Z" fill="white"/>
</g>
<g filter="url(#filter13_d_6978_212638)">
<path fill-rule="evenodd" clip-rule="evenodd" d="M46.4555 44.89L46.1958 44.7876C46.037 44.7249 45.959 44.5454 46.0216 44.3866C46.0531 44.3069 46.1161 44.2439 46.1958 44.2124L46.4555 44.11C46.7549 43.9919 46.9919 43.7549 47.11 43.4555L47.2124 43.1958C47.2751 43.037 47.4546 42.959 47.6134 43.0216C47.6931 43.0531 47.7561 43.1161 47.7876 43.1958L47.89 43.4555C48.0081 43.7549 48.2451 43.9919 48.5445 44.11L48.8042 44.2124C48.963 44.2751 49.041 44.4546 48.9784 44.6134C48.9469 44.6931 48.8839 44.7561 48.8042 44.7876L48.5445 44.89C48.2451 45.0081 48.0081 45.2451 47.89 45.5445L47.7876 45.8042C47.7249 45.963 47.5454 46.041 47.3866 45.9784C47.3069 45.9469 47.2439 45.8839 47.2124 45.8042L47.11 45.5445C46.9919 45.2451 46.7549 45.0081 46.4555 44.89Z" fill="white"/>
</g>
<defs>
<filter id="filter0_d_6978_212638" x="20" y="33" width="20" height="35.3828" filterUnits="userSpaceOnUse" color-interpolation-filters="sRGB">
<feFlood flood-opacity="0" result="BackgroundImageFix"/>
<feColorMatrix in="SourceAlpha" type="matrix" values="0 0 0 0 0 0 0 0 0 0 0 0 0 0 0 0 0 0 127 0" result="hardAlpha"/>
<feOffset dy="2"/>
<feGaussianBlur stdDeviation="1"/>
<feColorMatrix type="matrix" values="0 0 0 0 0.921569 0 0 0 0 0.215686 0 0 0 0 0.305882 0 0 0 0.2 0"/>
<feBlend mode="darken" in2="BackgroundImageFix" result="effect1_dropShadow_6978_212638"/>
<feBlend mode="normal" in="SourceGraphic" in2="effect1_dropShadow_6978_212638" result="shape"/>
</filter>
<filter id="filter1_d_6978_212638" x="32" y="33" width="20" height="35.3828" filterUnits="userSpaceOnUse" color-interpolation-filters="sRGB">
<feFlood flood-opacity="0" result="BackgroundImageFix"/>
<feColorMatrix in="SourceAlpha" type="matrix" values="0 0 0 0 0 0 0 0 0 0 0 0 0 0 0 0 0 0 127 0" result="hardAlpha"/>
<feOffset dy="2"/>
<feGaussianBlur stdDeviation="1"/>
<feColorMatrix type="matrix" values="0 0 0 0 0.921569 0 0 0 0 0.215686 0 0 0 0 0.305882 0 0 0 0.2 0"/>
<feBlend mode="darken" in2="BackgroundImageFix" result="effect1_dropShadow_6978_212638"/>
<feBlend mode="normal" in="SourceGraphic" in2="effect1_dropShadow_6978_212638" result="shape"/>
</filter>
<filter id="filter2_d_6978_212638" x="26" y="38" width="20" height="35.3828" filterUnits="userSpaceOnUse" color-interpolation-filters="sRGB">
<feFlood flood-opacity="0" result="BackgroundImageFix"/>
<feColorMatrix in="SourceAlpha" type="matrix" values="0 0 0 0 0 0 0 0 0 0 0 0 0 0 0 0 0 0 127 0" result="hardAlpha"/>
<feOffset dy="2"/>
<feGaussianBlur stdDeviation="1"/>
<feColorMatrix type="matrix" values="0 0 0 0 0.921569 0 0 0 0 0.215686 0 0 0 0 0.305882 0 0 0 0.2 0"/>
<feBlend mode="darken" in2="BackgroundImageFix" result="effect1_dropShadow_6978_212638"/>
<feBlend mode="normal" in="SourceGraphic" in2="effect1_dropShadow_6978_212638" result="shape"/>
</filter>
<filter id="filter3_i_6978_212638" x="7.5" y="24.5" width="12" height="7.5" filterUnits="userSpaceOnUse" color-interpolation-filters="sRGB">
<feFlood flood-opacity="0" result="BackgroundImageFix"/>
<feBlend mode="normal" in="SourceGraphic" in2="BackgroundImageFix" result="shape"/>
<feColorMatrix in="SourceAlpha" type="matrix" values="0 0 0 0 0 0 0 0 0 0 0 0 0 0 0 0 0 0 127 0" result="hardAlpha"/>
<feOffset dy="1"/>
<feGaussianBlur stdDeviation="0.5"/>
<feComposite in2="hardAlpha" operator="arithmetic" k2="-1" k3="1"/>
<feColorMatrix type="matrix" values="0 0 0 0 0.976471 0 0 0 0 0.713726 0 0 0 0 0.0352941 0 0 0 1 0"/>
<feBlend mode="normal" in2="shape" result="effect1_innerShadow_6978_212638"/>
</filter>
<filter id="filter4_i_6978_212638" x="8.5" y="30.5" width="12" height="7.5" filterUnits="userSpaceOnUse" color-interpolation-filters="sRGB">
<feFlood flood-opacity="0" result="BackgroundImageFix"/>
<feBlend mode="normal" in="SourceGraphic" in2="BackgroundImageFix" result="shape"/>
<feColorMatrix in="SourceAlpha" type="matrix" values="0 0 0 0 0 0 0 0 0 0 0 0 0 0 0 0 0 0 127 0" result="hardAlpha"/>
<feOffset dy="1"/>
<feGaussianBlur stdDeviation="0.5"/>
<feComposite in2="hardAlpha" operator="arithmetic" k2="-1" k3="1"/>
<feColorMatrix type="matrix" values="0 0 0 0 0.976471 0 0 0 0 0.713726 0 0 0 0 0.0352941 0 0 0 1 0"/>
<feBlend mode="normal" in2="shape" result="effect1_innerShadow_6978_212638"/>
</filter>
<filter id="filter5_i_6978_212638" x="52.5" y="24.5" width="12" height="7.5" filterUnits="userSpaceOnUse" color-interpolation-filters="sRGB">
<feFlood flood-opacity="0" result="BackgroundImageFix"/>
<feBlend mode="normal" in="SourceGraphic" in2="BackgroundImageFix" result="shape"/>
<feColorMatrix in="SourceAlpha" type="matrix" values="0 0 0 0 0 0 0 0 0 0 0 0 0 0 0 0 0 0 127 0" result="hardAlpha"/>
<feOffset dy="1"/>
<feGaussianBlur stdDeviation="0.5"/>
<feComposite in2="hardAlpha" operator="arithmetic" k2="-1" k3="1"/>
<feColorMatrix type="matrix" values="0 0 0 0 0.976471 0 0 0 0 0.713726 0 0 0 0 0.0352941 0 0 0 1 0"/>
<feBlend mode="normal" in2="shape" result="effect1_innerShadow_6978_212638"/>
</filter>
<filter id="filter6_i_6978_212638" x="51.5" y="30.5" width="12" height="7.5" filterUnits="userSpaceOnUse" color-interpolation-filters="sRGB">
<feFlood flood-opacity="0" result="BackgroundImageFix"/>
<feBlend mode="normal" in="SourceGraphic" in2="BackgroundImageFix" result="shape"/>
<feColorMatrix in="SourceAlpha" type="matrix" values="0 0 0 0 0 0 0 0 0 0 0 0 0 0 0 0 0 0 127 0" result="hardAlpha"/>
<feOffset dy="1"/>
<feGaussianBlur stdDeviation="0.5"/>
<feComposite in2="hardAlpha" operator="arithmetic" k2="-1" k3="1"/>
<feColorMatrix type="matrix" values="0 0 0 0 0.976471 0 0 0 0 0.713726 0 0 0 0 0.0352941 0 0 0 1 0"/>
<feBlend mode="normal" in2="shape" result="effect1_innerShadow_6978_212638"/>
</filter>
<filter id="filter7_i_6978_212638" x="17.4971" y="16.6016" width="37.0049" height="39.8008" filterUnits="userSpaceOnUse" color-interpolation-filters="sRGB">
<feFlood flood-opacity="0" result="BackgroundImageFix"/>
<feBlend mode="normal" in="SourceGraphic" in2="BackgroundImageFix" result="shape"/>
<feColorMatrix in="SourceAlpha" type="matrix" values="0 0 0 0 0 0 0 0 0 0 0 0 0 0 0 0 0 0 127 0" result="hardAlpha"/>
<feOffset dy="1"/>
<feGaussianBlur stdDeviation="0.5"/>
<feComposite in2="hardAlpha" operator="arithmetic" k2="-1" k3="1"/>
<feColorMatrix type="matrix" values="0 0 0 0 0.976471 0 0 0 0 0.713726 0 0 0 0 0.0352941 0 0 0 1 0"/>
<feBlend mode="normal" in2="shape" result="effect1_innerShadow_6978_212638"/>
</filter>
<filter id="filter8_d_6978_212638" x="19.1436" y="18.3086" width="33.7129" height="37.3828" filterUnits="userSpaceOnUse" color-interpolation-filters="sRGB">
<feFlood flood-opacity="0" result="BackgroundImageFix"/>
<feColorMatrix in="SourceAlpha" type="matrix" values="0 0 0 0 0 0 0 0 0 0 0 0 0 0 0 0 0 0 127 0" result="hardAlpha"/>
<feOffset dy="1"/>
<feGaussianBlur stdDeviation="1"/>
<feColorMatrix type="matrix" values="0 0 0 0 0.927721 0 0 0 0 0.665867 0 0 0 0 0.0535899 0 0 0 0.4 0"/>
<feBlend mode="normal" in2="BackgroundImageFix" result="effect1_dropShadow_6978_212638"/>
<feBlend mode="normal" in="SourceGraphic" in2="effect1_dropShadow_6978_212638" result="shape"/>
</filter>
<filter id="filter9_d_6978_212638" x="25.7773" y="23.832" width="20.4443" height="26.332" filterUnits="userSpaceOnUse" color-interpolation-filters="sRGB">
<feFlood flood-opacity="0" result="BackgroundImageFix"/>
<feColorMatrix in="SourceAlpha" type="matrix" values="0 0 0 0 0 0 0 0 0 0 0 0 0 0 0 0 0 0 127 0" result="hardAlpha"/>
<feOffset dy="1"/>
<feGaussianBlur stdDeviation="1"/>
<feColorMatrix type="matrix" values="0 0 0 0 0.996078 0 0 0 0 0.733333 0 0 0 0 0.105882 0 0 0 1 0"/>
<feBlend mode="normal" in2="BackgroundImageFix" result="effect1_dropShadow_6978_212638"/>
<feBlend mode="normal" in="SourceGraphic" in2="effect1_dropShadow_6978_212638" result="shape"/>
</filter>
<filter id="filter10_d_6978_212638" x="44" y="24" width="10" height="10" filterUnits="userSpaceOnUse" color-interpolation-filters="sRGB">
<feFlood flood-opacity="0" result="BackgroundImageFix"/>
<feColorMatrix in="SourceAlpha" type="matrix" values="0 0 0 0 0 0 0 0 0 0 0 0 0 0 0 0 0 0 127 0" result="hardAlpha"/>
<feOffset/>
<feGaussianBlur stdDeviation="1"/>
<feColorMatrix type="matrix" values="0 0 0 0 1 0 0 0 0 0.94902 0 0 0 0 0.305882 0 0 0 1 0"/>
<feBlend mode="normal" in2="BackgroundImageFix" result="effect1_dropShadow_6978_212638"/>
<feBlend mode="normal" in="SourceGraphic" in2="effect1_dropShadow_6978_212638" result="shape"/>
</filter>
<filter id="filter11_d_6978_212638" x="22" y="42" width="8" height="8" filterUnits="userSpaceOnUse" color-interpolation-filters="sRGB">
<feFlood flood-opacity="0" result="BackgroundImageFix"/>
<feColorMatrix in="SourceAlpha" type="matrix" values="0 0 0 0 0 0 0 0 0 0 0 0 0 0 0 0 0 0 127 0" result="hardAlpha"/>
<feOffset/>
<feGaussianBlur stdDeviation="1"/>
<feColorMatrix type="matrix" values="0 0 0 0 1 0 0 0 0 0.94902 0 0 0 0 0.305882 0 0 0 1 0"/>
<feBlend mode="normal" in2="BackgroundImageFix" result="effect1_dropShadow_6978_212638"/>
<feBlend mode="normal" in="SourceGraphic" in2="effect1_dropShadow_6978_212638" result="shape"/>
</filter>
<filter id="filter12_d_6978_212638" x="18" y="26" width="9" height="9" filterUnits="userSpaceOnUse" color-interpolation-filters="sRGB">
<feFlood flood-opacity="0" result="BackgroundImageFix"/>
<feColorMatrix in="SourceAlpha" type="matrix" values="0 0 0 0 0 0 0 0 0 0 0 0 0 0 0 0 0 0 127 0" result="hardAlpha"/>
<feOffset/>
<feGaussianBlur stdDeviation="1"/>
<feColorMatrix type="matrix" values="0 0 0 0 1 0 0 0 0 0.94902 0 0 0 0 0.305882 0 0 0 1 0"/>
<feBlend mode="normal" in2="BackgroundImageFix" result="effect1_dropShadow_6978_212638"/>
<feBlend mode="normal" in="SourceGraphic" in2="effect1_dropShadow_6978_212638" result="shape"/>
</filter>
<filter id="filter13_d_6978_212638" x="44" y="41" width="7" height="7" filterUnits="userSpaceOnUse" color-interpolation-filters="sRGB">
<feFlood flood-opacity="0" result="BackgroundImageFix"/>
<feColorMatrix in="SourceAlpha" type="matrix" values="0 0 0 0 0 0 0 0 0 0 0 0 0 0 0 0 0 0 127 0" result="hardAlpha"/>
<feOffset/>
<feGaussianBlur stdDeviation="1"/>
<feColorMatrix type="matrix" values="0 0 0 0 1 0 0 0 0 0.94902 0 0 0 0 0.305882 0 0 0 1 0"/>
<feBlend mode="normal" in2="BackgroundImageFix" result="effect1_dropShadow_6978_212638"/>
<feBlend mode="normal" in="SourceGraphic" in2="effect1_dropShadow_6978_212638" result="shape"/>
</filter>
<linearGradient id="paint0_linear_6978_212638" x1="5" y1="6" x2="5" y2="66" gradientUnits="userSpaceOnUse">
<stop stop-color="#FF7F7D"/>
<stop offset="1" stop-color="#EC2E4A"/>
</linearGradient>
<linearGradient id="paint1_linear_6978_212638" x1="8" y1="19" x2="8" y2="40" gradientUnits="userSpaceOnUse">
<stop stop-color="#F7C71A"/>
<stop offset="1" stop-color="#FBAA00"/>
</linearGradient>
<linearGradient id="paint2_linear_6978_212638" x1="8" y1="19" x2="8" y2="40" gradientUnits="userSpaceOnUse">
<stop stop-color="#FFDF6B"/>
<stop offset="1" stop-color="#F8A60A"/>
</linearGradient>
<linearGradient id="paint3_linear_6978_212638" x1="64" y1="19" x2="64" y2="40" gradientUnits="userSpaceOnUse">
<stop stop-color="#F7C71A"/>
<stop offset="1" stop-color="#FBAA00"/>
</linearGradient>
<linearGradient id="paint4_linear_6978_212638" x1="64" y1="19" x2="64" y2="40" gradientUnits="userSpaceOnUse">
<stop stop-color="#FFDF6B"/>
<stop offset="1" stop-color="#F8A60A"/>
</linearGradient>
<linearGradient id="paint5_linear_6978_212638" x1="13" y1="42" x2="13" y2="51.5" gradientUnits="userSpaceOnUse">
<stop stop-color="#F7C71A"/>
<stop offset="1" stop-color="#FBAA00"/>
</linearGradient>
<linearGradient id="paint6_linear_6978_212638" x1="13" y1="42" x2="13" y2="51.5" gradientUnits="userSpaceOnUse">
<stop stop-color="#FFDF6B"/>
<stop offset="1" stop-color="#F8A60A"/>
</linearGradient>
<linearGradient id="paint7_linear_6978_212638" x1="59" y1="42" x2="59" y2="51.5" gradientUnits="userSpaceOnUse">
<stop stop-color="#F7C71A"/>
<stop offset="1" stop-color="#FBAA00"/>
</linearGradient>
<linearGradient id="paint8_linear_6978_212638" x1="59" y1="42" x2="59" y2="51.5" gradientUnits="userSpaceOnUse">
<stop stop-color="#FFDF6B"/>
<stop offset="1" stop-color="#F8A60A"/>
</linearGradient>
<linearGradient id="paint9_linear_6978_212638" x1="20.0615" y1="13.6055" x2="20.0615" y2="28.9372" gradientUnits="userSpaceOnUse">
<stop stop-color="#FBCC24"/>
<stop offset="1" stop-color="#F9B800"/>
</linearGradient>
<linearGradient id="paint10_linear_6978_212638" x1="51.9385" y1="13.6055" x2="51.9385" y2="28.9372" gradientUnits="userSpaceOnUse">
<stop stop-color="#FBCC24"/>
<stop offset="1" stop-color="#F9B800"/>
</linearGradient>
<linearGradient id="paint11_linear_6978_212638" x1="13" y1="13" x2="13" y2="59" gradientUnits="userSpaceOnUse">
<stop stop-color="#FDE046"/>
<stop offset="1" stop-color="#F9B800"/>
</linearGradient>
<linearGradient id="paint12_linear_6978_212638" x1="20" y1="20" x2="20" y2="52" gradientUnits="userSpaceOnUse">
<stop stop-color="#FFF550"/>
<stop offset="1" stop-color="#FFD541"/>
</linearGradient>
<linearGradient id="paint13_linear_6978_212638" x1="36.4695" y1="30.7849" x2="34.7756" y2="27.6077" gradientUnits="userSpaceOnUse">
<stop stop-color="#FFD3D3"/>
<stop offset="1" stop-color="#FF7E8A"/>
</linearGradient>
<linearGradient id="paint14_linear_6978_212638" x1="33.1713" y1="41.4401" x2="33.1713" y2="30.5547" gradientUnits="userSpaceOnUse">
<stop stop-color="#FF8B89"/>
<stop offset="1" stop-color="#F34C5D"/>
</linearGradient>
<linearGradient id="paint15_linear_6978_212638" x1="34.4932" y1="43.9548" x2="35.8595" y2="40.9107" gradientUnits="userSpaceOnUse">
<stop stop-color="#FF7F7D"/>
<stop offset="1" stop-color="#F21248"/>
</linearGradient>
<linearGradient id="paint16_linear_6978_212638" x1="42.2222" y1="45.1667" x2="42.2222" y2="39.4375" gradientUnits="userSpaceOnUse">
<stop stop-color="#FF8B89"/>
<stop offset="1" stop-color="#F34C5D"/>
</linearGradient>
<linearGradient id="paint17_linear_6978_212638" x1="42.2221" y1="41.4401" x2="42.2221" y2="30.5547" gradientUnits="userSpaceOnUse">
<stop stop-color="#FF8B89"/>
<stop offset="1" stop-color="#F34C5D"/>
</linearGradient>
<linearGradient id="paint18_linear_6978_212638" x1="38.9222" y1="32.4867" x2="40.4562" y2="29.5156" gradientUnits="userSpaceOnUse">
<stop stop-color="#FF7F7D"/>
<stop offset="1" stop-color="#F21248"/>
</linearGradient>
<linearGradient id="paint19_linear_6978_212638" x1="38.8275" y1="41.1562" x2="38.8275" y2="30.8438" gradientUnits="userSpaceOnUse">
<stop stop-color="#FF7F7D"/>
<stop offset="1" stop-color="#F21248"/>
</linearGradient>
</defs>
</svg>
