<svg xmlns="http://www.w3.org/2000/svg" width="24" height="24" fill="none" viewBox="0 0 24 24">
  <g clip-path="url(#a)">
    <path fill="#191717" fill-rule="evenodd" d="M12 .5a12.043 12.043 0 0 0-7.774 2.847A11.917 11.917 0 0 0 .16 10.522a11.877 11.877 0 0 0 1.576 8.086 11.99 11.99 0 0 0 6.47 5.145c.595.11.82-.259.82-.573 0-.314-.012-1.225-.016-2.22-3.338.72-4.044-1.41-4.044-1.41-.544-1.383-1.331-1.746-1.331-1.746-1.089-.739.082-.725.082-.725 1.206.085 1.84 1.23 1.84 1.23 1.069 1.824 2.807 1.297 3.49.989.108-.773.42-1.298.764-1.597-2.667-.3-5.469-1.324-5.469-5.896a4.607 4.607 0 0 1 1.236-3.202c-.123-.3-.534-1.514.118-3.162 0 0 1.007-.32 3.3 1.223a11.453 11.453 0 0 1 6.01 0c2.29-1.543 3.296-1.223 3.296-1.223.653 1.644.242 2.857.119 3.162a4.597 4.597 0 0 1 1.238 3.206c0 4.582-2.808 5.592-5.479 5.886.43.372.813 1.097.813 2.211 0 1.597-.014 2.88-.014 3.274 0 .318.217.69.825.573a11.99 11.99 0 0 0 6.47-5.146 11.877 11.877 0 0 0 1.575-8.087 11.917 11.917 0 0 0-4.07-7.175A12.043 12.043 0 0 0 12.005.5H12Z" clip-rule="evenodd"/>
    <path fill="#191717" d="M4.544 17.632c-.026.06-.122.077-.2.036-.077-.042-.134-.119-.106-.18.027-.061.12-.077.198-.036.078.042.137.12.108.18Zm.487.539a.2.2 0 0 1-.246-.055c-.078-.083-.094-.197-.034-.249.06-.051.167-.027.244.055.078.083.096.198.036.25Zm.474.686c-.074.051-.199 0-.268-.103a.197.197 0 0 1 0-.284c.073-.05.198 0 .268.1.07.101.071.236 0 .287Zm.641.663c-.066.074-.2.054-.308-.045-.11-.099-.136-.233-.07-.304.066-.071.199-.051.312.046.113.096.135.233.066.304Zm.9.388c-.03.093-.165.134-.3.095-.135-.04-.224-.15-.199-.245.026-.095.163-.138.3-.095.138.044.225.148.2.245Zm.982.067c0 .097-.111.18-.254.182-.143.002-.26-.077-.26-.174 0-.097.11-.18.254-.182.143-.002.26.075.26.174Zm.914-.152c.018.097-.081.198-.224.221-.143.024-.268-.033-.286-.128-.018-.095.085-.198.224-.223.14-.026.268.033.286.13Z"/>
  </g>
  <defs>
    <clipPath id="a">
      <path fill="#fff" d="M0 0h24v24H0z"/>
    </clipPath>
  </defs>
</svg>
