<svg width="76" height="59" viewBox="0 0 76 59" fill="none" xmlns="http://www.w3.org/2000/svg">
<path d="M56.4507 52.0804C56.4507 52.0804 57.5433 53.6611 61.0232 55.879C61.2836 56.0429 61.5567 56.2123 61.8444 56.3834C62.937 57.0372 64.2208 57.7328 65.7377 58.4539L66.1019 49.1669C66.1019 49.1669 70.8365 49.5311 75.0248 47.7101C74.5422 47.4697 72.4626 46.3498 69.4726 44.0317C69.2049 43.8259 68.9263 43.6074 68.6458 43.3798C67.3238 42.3163 65.8506 41.0361 64.2755 39.5156C61.9136 43.5218 56.4507 52.0804 56.4507 52.0804Z" fill="url(#paint0_linear_7432_808004)"/>
<path d="M18.5741 51.5336C18.5741 51.5336 17.4815 53.1142 14.0016 55.3321C13.7412 55.496 13.468 55.6654 13.1803 55.8366C12.0877 56.4903 10.813 57.1859 9.28704 57.907L8.92284 48.62C8.92284 48.62 4.18827 48.9842 0 47.1632C0.482562 46.9228 2.56213 45.8029 5.55219 43.4848C5.81988 43.279 6.09849 43.0605 6.37892 42.8329C7.70096 41.7694 9.17414 40.4893 10.7493 38.9688C13.1111 42.9749 18.5741 51.5336 18.5741 51.5336Z" fill="url(#paint1_linear_7432_808004)"/>
<path fill-rule="evenodd" clip-rule="evenodd" d="M38.0586 59C54.351 59 67.5586 45.7924 67.5586 29.5C67.5586 13.2076 54.351 0 38.0586 0C21.7662 0 8.55859 13.2076 8.55859 29.5C8.55859 45.7924 21.7662 59 38.0586 59ZM38.0586 51.8981C50.4288 51.8981 60.4568 41.8702 60.4568 29.5C60.4568 17.1298 50.4288 7.10185 38.0586 7.10185C25.6885 7.10185 15.6605 17.1298 15.6605 29.5C15.6605 41.8702 25.6885 51.8981 38.0586 51.8981Z" fill="#E36302"/>
<mask id="mask0_7432_808004" style="mask-type:alpha" maskUnits="userSpaceOnUse" x="8" y="0" width="60" height="59">
<path fill-rule="evenodd" clip-rule="evenodd" d="M38.0586 59C54.351 59 67.5586 45.7924 67.5586 29.5C67.5586 13.2076 54.351 0 38.0586 0C21.7662 0 8.55859 13.2076 8.55859 29.5C8.55859 45.7924 21.7662 59 38.0586 59ZM38.0586 51.8981C50.4288 51.8981 60.4568 41.8702 60.4568 29.5C60.4568 17.1298 50.4288 7.10185 38.0586 7.10185C25.6885 7.10185 15.6605 17.1298 15.6605 29.5C15.6605 41.8702 25.6885 51.8981 38.0586 51.8981Z" fill="#6C7E92"/>
</mask>
<g mask="url(#mask0_7432_808004)">
<g filter="url(#filter0_f_7432_808004)">
<ellipse cx="26.6488" cy="8.37077" rx="10.47" ry="19.7381" transform="rotate(42.5525 26.6488 8.37077)" fill="#FBEB93"/>
</g>
<g filter="url(#filter1_f_7432_808004)">
<ellipse cx="55.7392" cy="8.13197" rx="6.73765" ry="18.9562" transform="rotate(150 55.7392 8.13197)" fill="#F9C94D"/>
</g>
<g filter="url(#filter2_f_7432_808004)">
<ellipse cx="54.4833" cy="49.5668" rx="6.73765" ry="13.6574" transform="rotate(-135 54.4833 49.5668)" fill="#FEDB78"/>
</g>
<g filter="url(#filter3_f_7432_808004)">
<ellipse cx="20.2486" cy="47.018" rx="6.73765" ry="13.6574" transform="rotate(-45 20.2486 47.018)" fill="#FBE515"/>
</g>
</g>
<circle cx="38.0588" cy="29.4997" r="22.3981" fill="url(#paint2_linear_7432_808004)"/>
<path fill-rule="evenodd" clip-rule="evenodd" d="M38.0585 53.535C51.3338 53.535 62.0956 42.7733 62.0956 29.498C62.0956 16.2227 51.3338 5.46094 38.0585 5.46094C24.7832 5.46094 14.0215 16.2227 14.0215 29.498C14.0215 42.7733 24.7832 53.535 38.0585 53.535ZM38.0585 51.8961C50.4287 51.8961 60.4567 41.8681 60.4567 29.498C60.4567 17.1278 50.4287 7.09983 38.0585 7.09983C25.6884 7.09983 15.6604 17.1278 15.6604 29.498C15.6604 41.8681 25.6884 51.8961 38.0585 51.8961Z" fill="url(#paint3_linear_7432_808004)"/>
<path d="M43.702 40.1879C43.3958 40.1875 43.0944 40.1119 42.8243 39.9675L38.2208 37.5493C38.1596 37.517 38.0915 37.5002 38.0223 37.5002C37.9532 37.5002 37.8851 37.517 37.8239 37.5493L33.2204 39.9675C32.9503 40.1119 32.6489 40.1875 32.3427 40.1879C32.0682 40.187 31.7971 40.1263 31.5484 40.0101C31.2997 39.8939 31.0793 39.7248 30.9025 39.5148C30.7258 39.3047 30.5969 39.0587 30.5248 38.7938C30.4527 38.5289 30.4393 38.2515 30.4853 37.9808L31.3648 32.8566C31.3766 32.7881 31.3715 32.7178 31.3499 32.6518C31.3283 32.5858 31.2909 32.5261 31.241 32.4778L27.5189 28.8486C27.2674 28.6029 27.0896 28.2919 27.0055 27.9506C26.9214 27.6093 26.9343 27.2513 27.0428 26.9169C27.1513 26.5825 27.351 26.2851 27.6195 26.0582C27.888 25.8313 28.2145 25.6839 28.5623 25.6327L33.7084 24.8861C33.7771 24.8758 33.8422 24.849 33.8983 24.8081C33.9545 24.7672 33.9999 24.7134 34.0307 24.6512L36.3325 19.9877C36.4882 19.6724 36.7289 19.407 37.0275 19.2214C37.3262 19.0358 37.6708 18.9375 38.0223 18.9375C38.3739 18.9375 38.7185 19.0358 39.0172 19.2214C39.3158 19.407 39.5565 19.6724 39.7122 19.9877L42.014 24.6512C42.0448 24.7134 42.0902 24.7672 42.1463 24.8081C42.2025 24.849 42.2676 24.8758 42.3363 24.8861L47.4824 25.6327C47.8302 25.6839 48.1567 25.8313 48.4252 26.0582C48.6937 26.2851 48.8934 26.5825 49.0019 26.9169C49.1104 27.2513 49.1233 27.6093 49.0392 27.9506C48.9551 28.2919 48.7773 28.6029 48.5258 28.8486L44.8037 32.4778C44.7538 32.5261 44.7164 32.5858 44.6948 32.6518C44.6732 32.7178 44.6681 32.7881 44.6799 32.8566L45.5594 37.9808C45.6054 38.2515 45.592 38.5289 45.5199 38.7938C45.4478 39.0587 45.3189 39.3047 45.1422 39.5148C44.9654 39.7248 44.745 39.8939 44.4963 40.0101C44.2476 40.1263 43.9765 40.187 43.702 40.1879Z" fill="#470068"/>
<path d="M39.0597 20.3094L41.3615 24.9729C41.4447 25.1407 41.5674 25.2858 41.719 25.3958C41.8706 25.5059 42.0466 25.5776 42.2319 25.6048L47.378 26.3532C47.5915 26.3843 47.792 26.4744 47.957 26.6134C48.1219 26.7525 48.2447 26.9349 48.3114 27.1401C48.378 27.3453 48.386 27.565 48.3343 27.7744C48.2827 27.9839 48.1734 28.1747 48.019 28.3253L44.2951 31.9546C44.161 32.0855 44.0608 32.2471 44.0031 32.4254C43.9454 32.6037 43.9318 32.7933 43.9637 32.978L44.8414 38.104C44.8783 38.3167 44.8549 38.5355 44.7738 38.7356C44.6927 38.9356 44.5571 39.1089 44.3824 39.2358C44.2078 39.3626 44.001 39.438 43.7857 39.4533C43.5704 39.4686 43.3551 39.4232 43.1642 39.3223L38.5699 36.904C38.4038 36.8162 38.2188 36.7702 38.0309 36.7702C37.843 36.7702 37.6579 36.8162 37.4919 36.904L32.8829 39.3223C32.6921 39.4232 32.4768 39.4686 32.2615 39.4533C32.0462 39.438 31.8394 39.3626 31.6648 39.2358C31.4901 39.1089 31.3545 38.9356 31.2734 38.7356C31.1923 38.5355 31.1689 38.3167 31.2058 38.104L32.0835 32.978C32.1153 32.7933 32.1018 32.6037 32.0441 32.4254C31.9863 32.2471 31.8861 32.0855 31.7521 31.9546L28.0282 28.3253C27.8737 28.1747 27.7645 27.9839 27.7129 27.7744C27.6612 27.565 27.6691 27.3453 27.7358 27.1401C27.8025 26.9349 27.9253 26.7525 28.0902 26.6134C28.2551 26.4744 28.4557 26.3843 28.6692 26.3532L33.8153 25.6048C34.0006 25.5776 34.1766 25.5059 34.3282 25.3958C34.4798 25.2858 34.6024 25.1407 34.6857 24.9729L36.9874 20.3094C37.0826 20.1157 37.2301 19.9526 37.4133 19.8386C37.5964 19.7245 37.8078 19.6641 38.0236 19.6641C38.2393 19.6641 38.4508 19.7245 38.6339 19.8386C38.8171 19.9526 38.9646 20.1157 39.0597 20.3094Z" fill="url(#paint4_linear_7432_808004)"/>
<circle cx="38.0588" cy="29.4997" r="19.8981" stroke="url(#paint5_linear_7432_808004)" stroke-width="5"/>
<defs>
<filter id="filter0_f_7432_808004" x="-47.77" y="-66.8047" width="148.838" height="150.352" filterUnits="userSpaceOnUse" color-interpolation-filters="sRGB">
<feFlood flood-opacity="0" result="BackgroundImageFix"/>
<feBlend mode="normal" in="SourceGraphic" in2="BackgroundImageFix" result="shape"/>
<feGaussianBlur stdDeviation="29.5" result="effect1_foregroundBlur_7432_808004"/>
</filter>
<filter id="filter1_f_7432_808004" x="-14.3926" y="-67.6289" width="140.264" height="151.523" filterUnits="userSpaceOnUse" color-interpolation-filters="sRGB">
<feFlood flood-opacity="0" result="BackgroundImageFix"/>
<feBlend mode="normal" in="SourceGraphic" in2="BackgroundImageFix" result="shape"/>
<feGaussianBlur stdDeviation="29.5" result="effect1_foregroundBlur_7432_808004"/>
</filter>
<filter id="filter2_f_7432_808004" x="-15.2876" y="-20.2031" width="139.542" height="139.539" filterUnits="userSpaceOnUse" color-interpolation-filters="sRGB">
<feFlood flood-opacity="0" result="BackgroundImageFix"/>
<feBlend mode="normal" in="SourceGraphic" in2="BackgroundImageFix" result="shape"/>
<feGaussianBlur stdDeviation="29.5" result="effect1_foregroundBlur_7432_808004"/>
</filter>
<filter id="filter3_f_7432_808004" x="-49.5225" y="-22.7539" width="139.542" height="139.543" filterUnits="userSpaceOnUse" color-interpolation-filters="sRGB">
<feFlood flood-opacity="0" result="BackgroundImageFix"/>
<feBlend mode="normal" in="SourceGraphic" in2="BackgroundImageFix" result="shape"/>
<feGaussianBlur stdDeviation="29.5" result="effect1_foregroundBlur_7432_808004"/>
</filter>
<linearGradient id="paint0_linear_7432_808004" x1="70.9514" y1="53.5142" x2="59.8989" y2="45.7678" gradientUnits="userSpaceOnUse">
<stop stop-color="#FC0106"/>
<stop offset="0.5559" stop-color="#E82626"/>
<stop offset="0.6787" stop-color="#B90004"/>
<stop offset="1" stop-color="#790400"/>
</linearGradient>
<linearGradient id="paint1_linear_7432_808004" x1="6.37346" y1="51.9888" x2="13.754" y2="45.8041" gradientUnits="userSpaceOnUse">
<stop stop-color="#FC0106"/>
<stop offset="0.493927" stop-color="#E82626"/>
<stop offset="0.716768" stop-color="#B90004"/>
<stop offset="1" stop-color="#790400"/>
</linearGradient>
<linearGradient id="paint2_linear_7432_808004" x1="38.0588" y1="7.10156" x2="38.0588" y2="51.8979" gradientUnits="userSpaceOnUse">
<stop stop-color="#BD49D0"/>
<stop offset="0.5" stop-color="#9703B9"/>
<stop offset="1" stop-color="#852878"/>
</linearGradient>
<linearGradient id="paint3_linear_7432_808004" x1="38.0585" y1="5.20867" x2="38.0585" y2="53.5108" gradientUnits="userSpaceOnUse">
<stop stop-color="#FFEE02"/>
<stop offset="0.5" stop-color="#D27003"/>
<stop offset="1" stop-color="#FBA400"/>
</linearGradient>
<linearGradient id="paint4_linear_7432_808004" x1="38.0267" y1="19.8594" x2="38.0267" y2="37.0761" gradientUnits="userSpaceOnUse">
<stop offset="0.0820804" stop-color="#F7E547"/>
<stop offset="0.2263" stop-color="#FEFCAF"/>
<stop offset="0.3883" stop-color="#F8DC20"/>
<stop offset="0.5895" stop-color="#E67A0B"/>
<stop offset="1" stop-color="#F8DC20"/>
</linearGradient>
<linearGradient id="paint5_linear_7432_808004" x1="38.0588" y1="7.10156" x2="38.0588" y2="51.8979" gradientUnits="userSpaceOnUse">
<stop stop-color="#AB2EBE"/>
<stop offset="1" stop-color="#340354"/>
</linearGradient>
</defs>
</svg>
