<svg width="22" height="22" viewBox="0 0 22 22" fill="none" xmlns="http://www.w3.org/2000/svg">
<path id="alarm-minus-icon" d="M1.6499 6.00802V5.24002C1.6499 3.11925 3.36913 1.40002 5.4899 1.40002H6.2579M16.2419 1.40002L17.0099 1.40002C19.1307 1.40002 20.8499 3.11925 20.8499 5.24002V6.00802M5.1059 17.912L2.4179 20.6M20.0819 20.6L17.3939 17.912M14.2499 11.6H8.2499M19.6979 11.768C19.6979 16.4337 15.9156 20.216 11.2499 20.216C6.5842 20.216 2.8019 16.4337 2.8019 11.768C2.8019 7.10232 6.5842 3.32002 11.2499 3.32002C15.9156 3.32002 19.6979 7.10232 19.6979 11.768Z" stroke="black" stroke-width="2" stroke-linecap="round"/>
</svg>
