<svg width="20" height="20" viewBox="0 0 20 20" fill="none" xmlns="http://www.w3.org/2000/svg">
<path id="arrow-down-right-contained-icon" d="M14.2772 7.74681C14.3272 7.19679 13.9218 6.71038 13.3718 6.66038C12.8218 6.61038 12.3354 7.01572 12.2854 7.56574L14.2772 7.74681ZM12.8125 12.8126L12.9031 13.8085C13.3838 13.7647 13.7647 13.3838 13.8084 12.9031L12.8125 12.8126ZM7.5657 12.2854C7.01568 12.3354 6.61034 12.8218 6.66034 13.3718C6.71034 13.9219 7.19675 14.3272 7.74677 14.2772L7.5657 12.2854ZM7.89459 6.48041C7.50406 6.08989 6.8709 6.08989 6.48038 6.48041C6.08985 6.87094 6.08985 7.5041 6.48037 7.89463L7.89459 6.48041ZM12.2854 7.56574L11.8166 12.722L13.8084 12.9031L14.2772 7.74681L12.2854 7.56574ZM12.722 11.8167L7.5657 12.2854L7.74677 14.2772L12.9031 13.8085L12.722 11.8167ZM13.5196 12.1055L7.89459 6.48041L6.48037 7.89463L12.1054 13.5197L13.5196 12.1055ZM18 10C18 14.4183 14.4183 18 10 18V20C15.5228 20 20 15.5228 20 10H18ZM10 18C5.58172 18 2 14.4183 2 10H0C0 15.5228 4.47715 20 10 20V18ZM2 10C2 5.58172 5.58172 2 10 2V0C4.47715 0 0 4.47715 0 10H2ZM10 2C14.4183 2 18 5.58172 18 10H20C20 4.47715 15.5228 0 10 0V2Z" fill="black"/>
</svg>
