<svg width="20" height="20" viewBox="0 0 20 20" fill="none" xmlns="http://www.w3.org/2000/svg">
<path id="arrow-up-left-contained-icon" d="M7.74677 5.72279C7.19675 5.67279 6.71034 6.07813 6.66034 6.62815C6.61034 7.17817 7.01568 7.66458 7.5657 7.71458L7.74677 5.72279ZM12.8125 7.18744L13.8084 7.09691C13.7647 6.61615 13.3838 6.23525 12.9031 6.19155L12.8125 7.18744ZM12.2854 12.4343C12.3354 12.9843 12.8218 13.3896 13.3718 13.3396C13.9218 13.2896 14.3272 12.8032 14.2772 12.2532L12.2854 12.4343ZM6.48037 12.1054C6.08985 12.4959 6.08985 13.1291 6.48037 13.5196C6.8709 13.9101 7.50406 13.9101 7.89459 13.5196L6.48037 12.1054ZM7.5657 7.71458L12.722 8.18333L12.9031 6.19155L7.74677 5.72279L7.5657 7.71458ZM11.8166 7.27798L12.2854 12.4343L14.2772 12.2532L13.8084 7.09691L11.8166 7.27798ZM12.1054 6.48033L6.48037 12.1054L7.89459 13.5196L13.5196 7.89455L12.1054 6.48033ZM18 10C18 14.4183 14.4183 18 10 18V20C15.5228 20 20 15.5228 20 10H18ZM10 18C5.58172 18 2 14.4183 2 10H0C0 15.5228 4.47715 20 10 20V18ZM2 10C2 5.58172 5.58172 2 10 2V0C4.47715 0 0 4.47715 0 10H2ZM10 2C14.4183 2 18 5.58172 18 10H20C20 4.47715 15.5228 0 10 0V2Z" fill="black"/>
</svg>
