<svg width="22" height="14" viewBox="0 0 22 14" fill="none" xmlns="http://www.w3.org/2000/svg">
<path id="bank-note-03-icon" d="M5.02317 6.97627L4.99967 6.99977M16.9997 6.97621L16.9762 6.99971M3.1999 13H18.7999C19.794 13 20.5999 12.1941 20.5999 11.2V2.8C20.5999 1.80589 19.794 1 18.7999 1H3.1999C2.20579 1 1.3999 1.80589 1.3999 2.8V11.2C1.3999 12.1941 2.20579 13 3.1999 13ZM13.3999 7C13.3999 8.32548 12.3254 9.4 10.9999 9.4C9.67442 9.4 8.5999 8.32548 8.5999 7C8.5999 5.67452 9.67442 4.6 10.9999 4.6C12.3254 4.6 13.3999 5.67452 13.3999 7Z" stroke="black" stroke-width="2" stroke-linecap="round" stroke-linejoin="round"/>
</svg>
