<svg width="18" height="20" viewBox="0 0 18 20" fill="none" xmlns="http://www.w3.org/2000/svg">
<path id="bell-ringing-01-icon" d="M1.60239 14.8594L0.773562 14.2999L0.773562 14.2999L1.60239 14.8594ZM2.69243 11.3814L1.69243 11.3705V11.3814H2.69243ZM2.7153 9.27861L3.7153 9.28949V9.27861H2.7153ZM16.4068 14.8763L17.2462 14.3329L17.2462 14.3329L16.4068 14.8763ZM15.3578 11.3814L14.3578 11.37V11.3814H15.3578ZM15.3806 9.38282L16.3806 9.39426V9.38282H15.3806ZM6.50226 18C5.94998 18 5.50226 18.4477 5.50226 19C5.50226 19.5523 5.94998 20 6.50226 20V18ZM11.5011 20C12.0534 20 12.5011 19.5523 12.5011 19C12.5011 18.4477 12.0534 18 11.5011 18V20ZM0.06524 4.02397C-0.130976 4.54023 0.128467 5.1178 0.64472 5.31401C1.16097 5.51023 1.73854 5.25079 1.93476 4.73453L0.06524 4.02397ZM4.31013 1.86946C4.79032 1.59662 4.95841 0.986178 4.68558 0.505991C4.41274 0.0258031 3.8023 -0.14229 3.32211 0.130543L4.31013 1.86946ZM14.6675 0.145087C14.1904 -0.132975 13.5781 0.0284398 13.3001 0.505618C13.022 0.982797 13.1834 1.59504 13.6606 1.8731L14.6675 0.145087ZM16.0616 4.71569C16.2525 5.23393 16.8274 5.49929 17.3457 5.30839C17.8639 5.11748 18.1293 4.54261 17.9384 4.02437L16.0616 4.71569ZM2.43122 15.4189C3.06669 14.4775 3.69243 13.0807 3.69243 11.3814H1.69243C1.69243 12.5846 1.24743 13.5979 0.773562 14.2999L2.43122 15.4189ZM3.69237 11.3923L3.71524 9.28949L1.71536 9.26774L1.69248 11.3705L3.69237 11.3923ZM17.2462 14.3329C16.7918 13.6309 16.3578 12.6053 16.3578 11.3814H14.3578C14.3578 13.0799 14.9575 14.4777 15.5673 15.4197L17.2462 14.3329ZM16.3577 11.3929L16.3806 9.39426L14.3807 9.37137L14.3578 11.37L16.3577 11.3929ZM16.3806 9.38282C16.3806 4.98034 13.1847 1.20457 9.00168 1.20457V3.20457C11.8647 3.20457 14.3806 5.85642 14.3806 9.38282H16.3806ZM16.025 16.8508C16.8117 16.8508 17.2352 16.2433 17.3837 15.8505C17.5405 15.4362 17.5767 14.8433 17.2462 14.3329L15.5673 15.4197C15.5129 15.3357 15.502 15.2635 15.5002 15.2289C15.4985 15.1944 15.5037 15.1676 15.5131 15.1429C15.5215 15.1208 15.5475 15.0627 15.6196 14.999C15.6995 14.9284 15.8406 14.8508 16.025 14.8508V16.8508ZM3.7153 9.27861C3.7153 5.80977 6.1898 3.20457 9.00168 3.20457V1.20457C4.86982 1.20457 1.7153 4.93369 1.7153 9.27861H3.7153ZM1.97923 14.8508C2.16755 14.8508 2.31004 14.9314 2.38903 15.0025C2.46011 15.0664 2.4845 15.1236 2.4918 15.1435C2.50013 15.1662 2.50505 15.1913 2.50296 15.2252C2.50088 15.259 2.48918 15.333 2.43122 15.4189L0.773562 14.2999C0.427398 14.8127 0.461353 15.4158 0.61417 15.8323C0.758365 16.2254 1.17987 16.8508 1.97923 16.8508V14.8508ZM16.025 14.8508H1.97923V16.8508H16.025V14.8508ZM6.50226 20H11.5011V18H6.50226V20ZM1.93476 4.73453C2.40846 3.48821 3.24643 2.47383 4.31013 1.86946L3.32211 0.130543C1.81293 0.988034 0.686662 2.38898 0.06524 4.02397L1.93476 4.73453ZM13.6606 1.8731C14.7589 2.5131 15.6172 3.5092 16.0616 4.71569L17.9384 4.02437C17.3275 2.36604 16.1527 1.01052 14.6675 0.145087L13.6606 1.8731Z" fill="black"/>
</svg>
