<svg width="18" height="20" viewBox="0 0 18 20" fill="none" xmlns="http://www.w3.org/2000/svg">
<path id="bell-ringing-02-icon" d="M1.60147 14.4759L0.780774 13.9046L0.780774 13.9046L1.60147 14.4759ZM2.69156 11.1034L1.69156 11.0922V11.1034H2.69156ZM2.71444 9.0643L3.71444 9.07552V9.0643H2.71444ZM16.4065 14.4923L17.2382 13.9371L17.2382 13.9371L16.4065 14.4923ZM15.3575 11.1034L14.3575 11.0916V11.1034H15.3575ZM15.3803 9.16534L16.3803 9.17715V9.16534H15.3803ZM7.12399 17.3691C6.69173 17.0253 6.06264 17.0971 5.71889 17.5293C5.37513 17.9616 5.44688 18.5907 5.87914 18.9344L7.12399 17.3691ZM12.123 18.9344C12.5553 18.5907 12.6271 17.9616 12.2833 17.5293C11.9395 17.0971 11.3105 17.0253 10.8782 17.3691L12.123 18.9344ZM0.0652467 4.02391C-0.130979 4.54016 0.128453 5.11774 0.644703 5.31396C1.16095 5.51019 1.73853 5.25076 1.93475 4.73451L0.0652467 4.02391ZM4.31024 1.86947C4.79043 1.59665 4.95854 0.986206 4.68572 0.506012C4.41289 0.0258177 3.80245 -0.142291 3.32226 0.130531L4.31024 1.86947ZM14.6674 0.145107C14.1902 -0.132944 13.578 0.0284865 13.2999 0.505672C13.0219 0.982858 13.1833 1.5951 13.6605 1.87315L14.6674 0.145107ZM16.0616 4.7157C16.2526 5.23393 16.8274 5.49928 17.3457 5.30837C17.8639 5.11746 18.1293 4.54258 17.9384 4.02434L16.0616 4.7157ZM2.42217 15.0473C3.05994 14.1312 3.69156 12.7668 3.69156 11.1034H1.69156C1.69156 12.2544 1.25239 13.2271 0.780774 13.9046L2.42217 15.0473ZM3.6915 11.1146L3.71438 9.07552L1.7145 9.05308L1.69162 11.0922L3.6915 11.1146ZM17.2382 13.9371C16.7861 13.2599 16.3575 12.2752 16.3575 11.1034H14.3575C14.3575 12.7653 14.9626 14.1305 15.5748 15.0476L17.2382 13.9371ZM16.3574 11.1152L16.3803 9.17715L14.3804 9.15354L14.3575 11.0916L16.3574 11.1152ZM16.3803 9.16534C16.3803 4.85267 13.1569 1.20465 9.00109 1.20465V3.20465C11.8917 3.20465 14.3803 5.78945 14.3803 9.16534H16.3803ZM16.0248 16.4373C16.7934 16.4373 17.2235 15.858 17.3798 15.4573C17.5415 15.0428 17.5787 14.4471 17.2382 13.9371L15.5748 15.0475C15.5161 14.9596 15.5023 14.8805 15.5001 14.8374C15.4979 14.7948 15.5047 14.7608 15.5166 14.7305C15.5276 14.7023 15.5569 14.6419 15.6309 14.5786C15.7124 14.5087 15.8498 14.4373 16.0248 14.4373V16.4373ZM3.71444 9.0643C3.71444 5.74421 6.16168 3.20465 9.00109 3.20465V1.20465C4.89647 1.20465 1.71444 4.80743 1.71444 9.0643H3.71444ZM1.97833 14.4373C2.15701 14.4373 2.29585 14.5114 2.37667 14.582C2.44973 14.6458 2.47746 14.7054 2.48736 14.7315C2.49812 14.76 2.50459 14.7925 2.50192 14.8344C2.49923 14.8768 2.48455 14.9577 2.42217 15.0473L0.780774 13.9046C0.424303 14.4166 0.459043 15.0224 0.616773 15.4393C0.768618 15.8406 1.19715 16.4373 1.97833 16.4373V14.4373ZM16.0248 14.4373H1.97833V16.4373H16.0248V14.4373ZM9.00109 18C8.26333 18 7.60759 17.7536 7.12399 17.3691L5.87914 18.9344C6.72218 19.6048 7.81833 20 9.00109 20V18ZM10.8782 17.3691C10.3946 17.7536 9.73885 18 9.00109 18V20C10.1839 20 11.28 19.6048 12.123 18.9344L10.8782 17.3691ZM1.93475 4.73451C2.40847 3.48821 3.24648 2.47384 4.31024 1.86947L3.32226 0.130531C1.81302 0.988004 0.686701 2.38893 0.0652467 4.02391L1.93475 4.73451ZM13.6605 1.87315C14.7588 2.51314 15.6172 3.50924 16.0616 4.7157L17.9384 4.02434C17.3275 2.36602 16.1526 1.01052 14.6674 0.145107L13.6605 1.87315Z" fill="black"/>
</svg>
