<svg width="18" height="22" viewBox="0 0 18 22" fill="none" xmlns="http://www.w3.org/2000/svg">
<path id="bell-ringing-03-icon" d="M1.10557 17.1074L0.311757 16.4992L0.311756 16.4992L1.10557 17.1074ZM2.26855 13.8377L1.26855 13.8254V13.8377H2.26855ZM2.29296 11.8609L3.29296 11.8732V11.8609H2.29296ZM16.9006 17.1233L17.7065 16.5312L17.7065 16.5312L16.9006 17.1233ZM15.7814 13.8377L14.7814 13.8247V13.8377H15.7814ZM15.8058 11.9588L16.8058 11.9718V11.9588H15.8058ZM13.2 18.0395C13.2 17.4872 12.7523 17.0395 12.2 17.0395C11.6477 17.0395 11.2 17.4872 11.2 18.0395H13.2ZM6.8 18.0395C6.8 17.4872 6.35229 17.0395 5.8 17.0395C5.24772 17.0395 4.8 17.4872 4.8 18.0395H6.8ZM0.0735268 5.36433C-0.134331 5.87601 0.111962 6.45931 0.623639 6.66717C1.13532 6.87503 1.71861 6.62873 1.92647 6.11706L0.0735268 5.36433ZM4.28564 3.46185C4.77331 3.20261 4.95848 2.59712 4.69923 2.10946C4.43999 1.6218 3.83451 1.43663 3.34685 1.69587L4.28564 3.46185ZM14.6426 1.70942C14.1577 1.44505 13.5503 1.62382 13.2859 2.10872C13.0216 2.59362 13.2004 3.20102 13.6853 3.46539L14.6426 1.70942ZM16.0695 6.09844C16.2718 6.61233 16.8525 6.8649 17.3663 6.66257C17.8802 6.46025 18.1328 5.87964 17.9305 5.36575L16.0695 6.09844ZM1.89939 17.7156C2.58054 16.8265 3.26855 15.4851 3.26855 13.8377H1.26855C1.26855 14.9189 0.814176 15.8434 0.311757 16.4992L1.89939 17.7156ZM3.26848 13.8501L3.29289 11.8732L1.29304 11.8485L1.26863 13.8254L3.26848 13.8501ZM17.7065 16.5312C17.2257 15.8767 16.7814 14.9405 16.7814 13.8377H14.7814C14.7814 15.4822 15.4401 16.8243 16.0948 17.7153L17.7065 16.5312ZM16.7813 13.8507L16.8057 11.9718L14.8059 11.9458L14.7815 13.8247L16.7813 13.8507ZM16.8058 11.9588C16.8058 7.67158 13.303 4.21053 9 4.21053V6.21053C12.2145 6.21053 14.8058 8.79212 14.8058 11.9588H16.8058ZM16.4933 19.0394C17.2194 19.0394 17.6784 18.5334 17.864 18.101C18.0482 17.6718 18.0878 17.0502 17.7065 16.5312L16.0947 17.7153C15.9586 17.53 16.0028 17.3665 16.0262 17.312C16.051 17.2543 16.1836 17.0394 16.4933 17.0394V19.0394ZM3.29296 11.8609C3.29296 8.74826 5.84007 6.21053 9 6.21053V4.21053C4.75154 4.21053 1.29296 7.62772 1.29296 11.8609H3.29296ZM1.50763 17.0394C1.82438 17.0394 1.95436 17.2618 1.97604 17.3139C1.99661 17.3633 2.04246 17.5288 1.89939 17.7156L0.311756 16.4992C-0.0863459 17.0189 -0.05027 17.6504 0.129686 18.0826C0.31075 18.5175 0.769277 19.0394 1.50763 19.0394V17.0394ZM16.4933 17.0394H1.50763V19.0394H16.4933V17.0394ZM11.2 18.0395C11.2 19.0504 10.2897 20 9 20V22C11.2449 22 13.2 20.2986 13.2 18.0395H11.2ZM9 20C7.71031 20 6.8 19.0504 6.8 18.0395H4.8C4.8 20.2986 6.75506 22 9 22V20ZM10.1333 3.10526C10.1333 3.70324 9.63845 4.21053 9 4.21053V6.21053C10.718 6.21053 12.1333 4.8327 12.1333 3.10526H10.1333ZM9 4.21053C8.36155 4.21053 7.86667 3.70324 7.86667 3.10526H5.86667C5.86667 4.8327 7.28204 6.21053 9 6.21053V4.21053ZM7.86667 3.10526C7.86667 2.50729 8.36155 2 9 2V0C7.28204 0 5.86667 1.37783 5.86667 3.10526H7.86667ZM9 2C9.63845 2 10.1333 2.50729 10.1333 3.10526H12.1333C12.1333 1.37783 10.718 0 9 0V2ZM1.92647 6.11706C2.39097 4.97363 3.21798 4.02942 4.28564 3.46185L3.34685 1.69587C1.84152 2.49611 0.704202 3.81182 0.0735268 5.36433L1.92647 6.11706ZM13.6853 3.46539C14.7884 4.06683 15.6347 4.99412 16.0695 6.09844L17.9305 5.36575C17.3099 3.78958 16.123 2.51654 14.6426 1.70942L13.6853 3.46539Z" fill="black"/>
</svg>
