<svg width="22" height="20" viewBox="0 0 22 20" fill="none" xmlns="http://www.w3.org/2000/svg">
<path id="book-02-icon" d="M10.7256 18.2286V3.4172M10.7256 18.2286L9.26814 16.7712C8.44512 15.9481 7.32937 15.4858 6.16545 15.4858H2.49609C1.89016 15.4858 1.3999 14.9946 1.3999 14.3886V2.86863C1.3999 2.26269 1.89111 1.77148 2.49704 1.77148H6.71352C7.87745 1.77148 8.9937 2.23385 9.81671 3.05687L10.7256 3.96577L11.6345 3.05687C12.4575 2.23385 13.5738 1.77148 14.7377 1.77148H19.5028C20.1087 1.77148 20.5999 2.26269 20.5999 2.86863V14.3886C20.5999 14.9946 20.1087 15.4858 19.5028 15.4858H15.2863C14.1224 15.4858 13.0061 15.9481 12.1831 16.7712L10.7256 18.2286Z" stroke="black" stroke-width="2" stroke-linecap="round" stroke-linejoin="round"/>
</svg>
