<svg width="22" height="20" viewBox="0 0 22 20" fill="none" xmlns="http://www.w3.org/2000/svg">
<path id="brackets-plus-icon" d="M6.08901 18.2376H5.58208C4.18223 18.2376 3.04743 17.1028 3.04743 15.703V10.6337C3.04743 9.85284 1.3999 9.49308 1.3999 9.49308C1.3999 9.49308 3.04743 9.1924 3.04743 8.35249V4.29704C3.04743 2.89719 4.18223 1.76239 5.58208 1.76239H6.08901M15.9108 1.76239H16.4177C17.8176 1.76239 18.9524 2.89719 18.9524 4.29704V9.36635C18.9524 10.1472 20.5999 10.5069 20.5999 10.5069C20.5999 10.5069 18.9524 10.8076 18.9524 11.6475L18.9524 15.703C18.9524 17.1028 17.8176 18.2376 16.4177 18.2376H15.9108M8.5999 10.1624H13.3999M10.9999 12.5624V7.76239" stroke="black" stroke-width="2" stroke-linecap="round" stroke-linejoin="round"/>
</svg>
