<svg width="22" height="20" viewBox="0 0 22 20" fill="none" xmlns="http://www.w3.org/2000/svg">
<path id="cloud-sun-icon" d="M7.39187 8.95825L7.14292 9.92677C7.6268 10.0511 8.12824 9.79931 8.31741 9.3369L7.39187 8.95825ZM2.91988 8.9688C3.13679 9.4767 3.72438 9.71259 4.23228 9.49567C4.74018 9.27875 4.97607 8.69117 4.75915 8.18327L2.91988 8.9688ZM5.73626 3.85138L5.3435 2.93174L5.73626 3.85138ZM4.58097 3.69236C4.79788 4.20026 5.38547 4.43615 5.89337 4.21923C6.40127 4.00232 6.63716 3.41473 6.42024 2.90683L4.58097 3.69236ZM5.71327 1.25148C5.49635 0.743577 4.90877 0.507687 4.40086 0.724605C3.89296 0.941523 3.65707 1.52911 3.87399 2.03701L5.71327 1.25148ZM8.01645 2.88917C7.8107 3.40169 8.05938 3.98398 8.57191 4.18974C9.08443 4.39549 9.66672 4.14681 9.87247 3.63428L8.01645 2.88917ZM10.5431 1.96387C10.7488 1.45134 10.5001 0.869057 9.98762 0.663299C9.4751 0.457542 8.89281 0.706226 8.68706 1.21875L10.5431 1.96387ZM1.79406 4.16265C1.28153 3.95689 0.699246 4.20558 0.493489 4.7181C0.287732 5.23063 0.536416 5.81291 1.04894 6.01867L1.79406 4.16265ZM2.71936 6.68927C3.23188 6.89503 3.81417 6.64634 4.01992 6.13382C4.22568 5.62129 3.977 5.03901 3.46447 4.83325L2.71936 6.68927ZM9.06503 5.4018C9.4388 5.80838 10.0714 5.83498 10.478 5.4612C10.8846 5.08743 10.9112 4.45482 10.5374 4.04824L9.06503 5.4018ZM19.5999 11.5518C19.5999 14.7864 16.9779 17.4089 13.7428 17.4089V19.4089C18.0826 19.4089 21.5999 15.8908 21.5999 11.5518H19.5999ZM13.7428 5.69464C16.9779 5.69464 19.5999 8.31717 19.5999 11.5518H21.5999C21.5999 7.21273 18.0826 3.69464 13.7428 3.69464V5.69464ZM8.31741 9.3369C9.19219 7.1986 11.2939 5.69464 13.7428 5.69464V3.69464C10.4541 3.69464 7.63797 5.71567 6.46632 8.57961L8.31741 9.3369ZM6.1999 9.80892C6.52869 9.80892 6.84415 9.84997 7.14292 9.92677L7.64082 7.98974C7.17887 7.871 6.69611 7.80892 6.1999 7.80892V9.80892ZM2.3999 13.6089C2.3999 11.51 4.10049 9.80892 6.1999 9.80892V7.80892C2.99574 7.80892 0.399902 10.4056 0.399902 13.6089H2.3999ZM6.1999 17.4089C4.10049 17.4089 2.3999 15.7078 2.3999 13.6089H0.399902C0.399902 16.8122 2.99574 19.4089 6.1999 19.4089V17.4089ZM13.7428 17.4089H6.1999V19.4089H13.7428V17.4089ZM4.75915 8.18327C4.19517 6.86272 4.80848 5.335 6.12903 4.77102L5.3435 2.93174C3.00715 3.92956 1.92205 6.63244 2.91988 8.9688L4.75915 8.18327ZM6.42024 2.90683L5.71327 1.25148L3.87399 2.03701L4.58097 3.69236L6.42024 2.90683ZM9.87247 3.63428L10.5431 1.96387L8.68706 1.21875L8.01645 2.88917L9.87247 3.63428ZM1.04894 6.01867L2.71936 6.68927L3.46447 4.83325L1.79406 4.16265L1.04894 6.01867ZM6.12903 4.77102C7.16867 4.327 8.33919 4.61225 9.06503 5.4018L10.5374 4.04824C9.25591 2.65426 7.18685 2.14447 5.3435 2.93174L6.12903 4.77102Z" fill="black"/>
</svg>
