<svg width="22" height="22" viewBox="0 0 22 22" fill="none" xmlns="http://www.w3.org/2000/svg">
<path id="colors-02-icon" d="M4.89081 17.0198H6.05445M15.3635 12.3653H18.2726C19.5579 12.3653 20.5999 13.4072 20.5999 14.6926V18.1835C20.5999 19.4688 19.5579 20.5107 18.2726 20.5107H6.05445M10.1272 5.74824L13.7043 2.17114C14.6131 1.26229 16.0867 1.26229 16.9955 2.17114L19.464 4.63959C20.3728 5.54845 20.3728 7.02199 19.464 7.93085L9.54536 17.8495M3.72717 20.5107H7.21808C8.5034 20.5107 9.54536 19.4688 9.54536 18.1835V4.21983C9.54536 2.93451 8.5034 1.89256 7.21808 1.89256H3.72717C2.44186 1.89256 1.3999 2.93451 1.3999 4.21983V18.1835C1.3999 19.4688 2.44186 20.5107 3.72717 20.5107Z" stroke="black" stroke-width="2" stroke-linecap="round" stroke-linejoin="round"/>
</svg>
