<svg width="20" height="20" viewBox="0 0 20 20" fill="none" xmlns="http://www.w3.org/2000/svg">
<g id="column-horizontal-01-icon">
<path d="M19 17C19 18.1046 18.1168 19 17.0274 19L2.9726 19C1.88316 19 1 18.1046 1 17L1 14C1 12.8954 1.88316 12 2.9726 12L17.0274 12C18.1168 12 19 12.8954 19 14V17Z" stroke="black" stroke-width="2" stroke-linecap="round" stroke-linejoin="round"/>
<path d="M19 3C19 1.89543 18.1168 1 17.0274 1L2.9726 1C1.88316 1 1 1.89543 1 3L1 6C1 7.10457 1.88316 8 2.9726 8H17.0274C18.1168 8 19 7.10457 19 6V3Z" stroke="black" stroke-width="2" stroke-linecap="round" stroke-linejoin="round"/>
</g>
</svg>
