<svg width="22" height="22" viewBox="0 0 22 22" fill="none" xmlns="http://www.w3.org/2000/svg">
<path id="currency-coin-dollar-icon" d="M12.8749 8.98247C13.0555 9.50439 13.625 9.78108 14.1469 9.60048C14.6688 9.41987 14.9455 8.85037 14.7649 8.32845L12.8749 8.98247ZM12.1999 7.43323L12.2438 6.4342C12.2292 6.43356 12.2146 6.43323 12.1999 6.43323L12.1999 7.43323ZM9.7999 11.0999V12.0999V11.0999ZM12.1999 14.7666L12.1999 15.7666L12.1999 14.7666ZM9.7999 14.7666L9.75597 15.7656C9.7706 15.7662 9.78525 15.7666 9.7999 15.7666L9.7999 14.7666ZM9.12492 13.2173C8.94432 12.6954 8.37481 12.4187 7.85289 12.5993C7.33097 12.7799 7.05428 13.3494 7.23488 13.8714L9.12492 13.2173ZM11.9999 5.5999C11.9999 5.04762 11.5522 4.5999 10.9999 4.5999C10.4476 4.5999 9.9999 5.04762 9.9999 5.5999H11.9999ZM9.9999 7.43323C9.9999 7.98552 10.4476 8.43323 10.9999 8.43323C11.5522 8.43323 11.9999 7.98552 11.9999 7.43323H9.9999ZM11.9999 14.7666C11.9999 14.2143 11.5522 13.7666 10.9999 13.7666C10.4476 13.7666 9.9999 14.2143 9.9999 14.7666H11.9999ZM9.9999 16.5999C9.9999 17.1522 10.4476 17.5999 10.9999 17.5999C11.5522 17.5999 11.9999 17.1522 11.9999 16.5999H9.9999ZM14.7649 8.32845C14.5812 7.79764 14.2448 7.33203 13.7959 6.99338L12.5914 8.58996C12.7199 8.68695 12.8197 8.823 12.8749 8.98247L14.7649 8.32845ZM13.7959 6.99338C13.3468 6.65456 12.8063 6.45894 12.2438 6.4342L12.156 8.43227C12.3114 8.4391 12.4631 8.49315 12.5914 8.58996L13.7959 6.99338ZM12.1999 6.43323H9.7999V8.43323H12.1999V6.43323ZM9.7999 6.43323C9.05131 6.43323 8.33717 6.73629 7.81354 7.26961L9.24067 8.67079C9.39217 8.51649 9.59371 8.43323 9.7999 8.43323V6.43323ZM7.81354 7.26961C7.29053 7.80232 6.9999 8.52098 6.9999 9.26657H8.9999C8.9999 9.03969 9.08856 8.82572 9.24067 8.67079L7.81354 7.26961ZM6.9999 9.26657C6.9999 10.0122 7.29053 10.7308 7.81354 11.2635L9.24067 9.86234C9.08856 9.70741 8.9999 9.49344 8.9999 9.26657H6.9999ZM7.81354 11.2635C8.33717 11.7968 9.05131 12.0999 9.7999 12.0999L9.7999 10.0999C9.59371 10.0999 9.39217 10.0166 9.24067 9.86234L7.81354 11.2635ZM9.7999 12.0999H12.1999V10.0999H9.7999V12.0999ZM12.1999 12.0999C12.4061 12.0999 12.6076 12.1832 12.7591 12.3375L14.1863 10.9363C13.6626 10.403 12.9485 10.0999 12.1999 10.0999V12.0999ZM12.7591 12.3375C12.9112 12.4924 12.9999 12.7064 12.9999 12.9332H14.9999C14.9999 12.1876 14.7093 11.469 14.1863 10.9363L12.7591 12.3375ZM12.9999 12.9332C12.9999 13.1601 12.9112 13.3741 12.7591 13.529L14.1863 14.9302C14.7093 14.3975 14.9999 13.6788 14.9999 12.9332H12.9999ZM12.7591 13.529C12.6076 13.6833 12.4061 13.7666 12.1999 13.7666L12.1999 15.7666C12.9485 15.7666 13.6626 15.4635 14.1863 14.9302L12.7591 13.529ZM12.1999 13.7666H9.7999V15.7666H12.1999V13.7666ZM9.84384 13.7675C9.68844 13.7607 9.53674 13.7067 9.40841 13.6098L8.20386 15.2064C8.65295 15.5452 9.19346 15.7409 9.75597 15.7656L9.84384 13.7675ZM9.40841 13.6098C9.27986 13.5129 9.1801 13.3768 9.12492 13.2173L7.23488 13.8714C7.41856 14.4022 7.755 14.8678 8.20386 15.2064L9.40841 13.6098ZM9.9999 5.5999V7.43323H11.9999V5.5999H9.9999ZM9.9999 14.7666V16.5999H11.9999V14.7666H9.9999ZM19.5999 10.9999C19.5999 15.7495 15.7495 19.5999 10.9999 19.5999V21.5999C16.8541 21.5999 21.5999 16.8541 21.5999 10.9999H19.5999ZM10.9999 19.5999C6.25025 19.5999 2.3999 15.7495 2.3999 10.9999H0.399902C0.399902 16.8541 5.14568 21.5999 10.9999 21.5999V19.5999ZM2.3999 10.9999C2.3999 6.25025 6.25025 2.3999 10.9999 2.3999V0.399902C5.14568 0.399902 0.399902 5.14568 0.399902 10.9999H2.3999ZM10.9999 2.3999C15.7495 2.3999 19.5999 6.25025 19.5999 10.9999H21.5999C21.5999 5.14568 16.8541 0.399902 10.9999 0.399902V2.3999Z" fill="black"/>
</svg>
