<svg width="14" height="22" viewBox="0 0 14 22" fill="none" xmlns="http://www.w3.org/2000/svg">
<path id="currency-dollar-icon" d="M11.7778 6.55556C11.5566 5.92804 11.1527 5.38107 10.6181 4.98504C10.0834 4.58901 9.4425 4.36203 8.77778 4.33333H4.33333C3.44928 4.33333 2.60143 4.68452 1.97631 5.30964C1.35119 5.93477 1 6.78261 1 7.66667C1 8.55072 1.35119 9.39857 1.97631 10.0237C2.60143 10.6488 3.44928 11 4.33333 11H8.77778C9.66183 11 10.5097 11.3512 11.1348 11.9763C11.7599 12.6014 12.1111 13.4493 12.1111 14.3333C12.1111 15.2174 11.7599 16.0652 11.1348 16.6904C10.5097 17.3155 9.66183 17.6667 8.77778 17.6667H4.33333C3.66861 17.638 3.02768 17.411 2.49303 17.015C1.95839 16.6189 1.5545 16.072 1.33333 15.4444M6.55556 1V4.33333M6.55556 17.6667V21" stroke="black" stroke-width="2" stroke-linecap="round" stroke-linejoin="round"/>
</svg>
