<svg width="22" height="22" viewBox="0 0 22 22" fill="none" xmlns="http://www.w3.org/2000/svg">
<path id="data-02-icon" d="M16.7601 11C16.7601 12.0604 17.6197 12.92 18.6801 12.92C19.7405 12.92 20.6001 12.0604 20.6001 11C20.6001 9.93961 19.7405 9.07999 18.6801 9.07999C17.6197 9.07999 16.7601 9.93961 16.7601 11ZM16.7601 11H11.6001M16.7601 3.31999C16.7601 4.38038 17.6197 5.23999 18.6801 5.23999C19.7405 5.23999 20.6001 4.38038 20.6001 3.31999C20.6001 2.25961 19.7405 1.39999 18.6801 1.39999C17.6197 1.39999 16.7601 2.25961 16.7601 3.31999ZM16.7601 3.31999H5.59966M16.7601 18.68C16.7601 19.7404 17.6197 20.6 18.6801 20.6C19.7405 20.6 20.6001 19.7404 20.6001 18.68C20.6001 17.6196 19.7405 16.76 18.6801 16.76C17.6197 16.76 16.7601 17.6196 16.7601 18.68ZM16.7601 18.68H11.2401C10.7099 18.68 10.2801 18.2502 10.2801 17.72V4.27999M5.23966 3.31999C5.23966 4.38038 4.38005 5.23999 3.31966 5.23999C2.25927 5.23999 1.39966 4.38038 1.39966 3.31999C1.39966 2.25961 2.25927 1.39999 3.31966 1.39999C4.38005 1.39999 5.23966 2.25961 5.23966 3.31999Z" stroke="black" stroke-width="2" stroke-linecap="round"/>
</svg>
