<svg width="22" height="22" viewBox="0 0 22 22" fill="none" xmlns="http://www.w3.org/2000/svg">
<path id="discount-star-02-icon" d="M7.3999 14.5999L14.5999 7.3999M7.9538 7.94924L7.93965 7.93495M14.0643 14.1226L14.0502 14.1083M8.57586 3.0427L6.638 2.61808C6.32837 2.55023 6.01804 2.72941 5.92198 3.03147L5.32078 4.92202C5.26044 5.11177 5.11177 5.26044 4.92202 5.32078L3.03147 5.92198C2.72941 6.01804 2.55023 6.32837 2.61808 6.638L3.0427 8.57586C3.08532 8.77036 3.0309 8.97345 2.89674 9.12058L1.56008 10.5865C1.34651 10.8207 1.34651 11.1791 1.56008 11.4133L2.89674 12.8792C3.0309 13.0264 3.08532 13.2294 3.0427 13.4239L2.61808 15.3618C2.55023 15.6714 2.72941 15.9818 3.03147 16.0778L4.92202 16.679C5.11177 16.7394 5.26044 16.888 5.32078 17.0778L5.92198 18.9683C6.01804 19.2704 6.32837 19.4496 6.638 19.3817L8.57586 18.9571C8.77036 18.9145 8.97345 18.9689 9.12058 19.1031L10.5865 20.4397C10.8207 20.6533 11.1791 20.6533 11.4133 20.4397L12.8792 19.1031C13.0264 18.9689 13.2294 18.9145 13.4239 18.9571L15.3618 19.3817C15.6714 19.4496 15.9818 19.2704 16.0778 18.9683L16.679 17.0778C16.7394 16.888 16.888 16.7394 17.0778 16.679L18.9683 16.0778C19.2704 15.9818 19.4496 15.6714 19.3817 15.3618L18.9571 13.4239C18.9145 13.2294 18.9689 13.0264 19.1031 12.8792L20.4397 11.4133C20.6533 11.1791 20.6533 10.8207 20.4397 10.5865L19.1031 9.12058C18.9689 8.97345 18.9145 8.77036 18.9571 8.57586L19.3817 6.638C19.4496 6.32837 19.2704 6.01804 18.9683 5.92198L17.0778 5.32078C16.888 5.26044 16.7394 5.11177 16.679 4.92202L16.0778 3.03147C15.9818 2.72941 15.6714 2.55023 15.3618 2.61808L13.4239 3.0427C13.2294 3.08532 13.0264 3.0309 12.8792 2.89674L11.4133 1.56008C11.1791 1.34651 10.8207 1.34651 10.5865 1.56008L9.12058 2.89674C8.97345 3.0309 8.77036 3.08532 8.57586 3.0427Z" stroke="black" stroke-width="2" stroke-linecap="round"/>
</svg>
