<svg width="22" height="8" viewBox="0 0 22 8" fill="none" xmlns="http://www.w3.org/2000/svg">
<g id="dot-horizontal-icon">
<path d="M6.1999 4.0001C6.1999 5.32558 5.12539 6.4001 3.7999 6.4001C2.47442 6.4001 1.3999 5.32558 1.3999 4.0001C1.3999 2.67461 2.47442 1.6001 3.7999 1.6001C5.12539 1.6001 6.1999 2.67461 6.1999 4.0001Z" stroke="black" stroke-width="2"/>
<path d="M13.3999 4.0001C13.3999 5.32558 12.3254 6.4001 10.9999 6.4001C9.67442 6.4001 8.5999 5.32558 8.5999 4.0001C8.5999 2.67461 9.67442 1.6001 10.9999 1.6001C12.3254 1.6001 13.3999 2.67461 13.3999 4.0001Z" stroke="black" stroke-width="2"/>
<path d="M20.5999 4.0001C20.5999 5.32558 19.5254 6.4001 18.1999 6.4001C16.8744 6.4001 15.7999 5.32558 15.7999 4.0001C15.7999 2.67461 16.8744 1.6001 18.1999 1.6001C19.5254 1.6001 20.5999 2.67461 20.5999 4.0001Z" stroke="black" stroke-width="2"/>
</g>
</svg>
