<svg width="18" height="22" viewBox="0 0 18 22" fill="none" xmlns="http://www.w3.org/2000/svg">
<path id="file-code-icon" d="M12.103 2.10294L12.8101 1.39583L12.8101 1.39583L12.103 2.10294ZM15.4971 5.49705L14.79 6.20416L14.79 6.20416L15.4971 5.49705ZM6.69294 15.7071C7.08347 16.0976 7.71663 16.0976 8.10716 15.7071C8.49768 15.3166 8.49768 14.6834 8.10716 14.2929L6.69294 15.7071ZM5.40005 13L4.69294 12.2929C4.50541 12.4804 4.40005 12.7348 4.40005 13C4.40005 13.2652 4.50541 13.5196 4.69294 13.7071L5.40005 13ZM8.10716 11.7071C8.49768 11.3166 8.49768 10.6834 8.10716 10.2929C7.71663 9.90236 7.08347 9.90236 6.69294 10.2929L8.10716 11.7071ZM11.3072 10.2929C10.9166 9.90236 10.2835 9.90236 9.89294 10.2929C9.50242 10.6834 9.50242 11.3166 9.89294 11.7071L11.3072 10.2929ZM12.6001 13L13.3072 13.7071C13.4947 13.5196 13.6001 13.2652 13.6001 13C13.6001 12.7348 13.4947 12.4804 13.3072 12.2929L12.6001 13ZM9.89294 14.2929C9.50242 14.6834 9.50242 15.3166 9.89294 15.7071C10.2835 16.0976 10.9166 16.0976 11.3072 15.7071L9.89294 14.2929ZM13.8001 19.6H4.20005V21.6H13.8001V19.6ZM2.80005 18.2V3.79999H0.800049V18.2H2.80005ZM4.20005 2.39999H10.4059V0.399994H4.20005V2.39999ZM15.2001 7.19411V18.2H17.2001V7.19411H15.2001ZM10.4059 2.39999C10.7772 2.39999 11.1333 2.54749 11.3959 2.81004L12.8101 1.39583C12.1725 0.758207 11.3077 0.399994 10.4059 0.399994V2.39999ZM4.20005 19.6C3.42685 19.6 2.80005 18.9732 2.80005 18.2H0.800049C0.800049 20.0778 2.32228 21.6 4.20005 21.6V19.6ZM13.8001 21.6C15.6778 21.6 17.2001 20.0778 17.2001 18.2H15.2001C15.2001 18.9732 14.5732 19.6 13.8001 19.6V21.6ZM14.79 6.20416C15.0526 6.46671 15.2001 6.8228 15.2001 7.19411H17.2001C17.2001 6.29237 16.8418 5.42757 16.2042 4.78994L14.79 6.20416ZM2.80005 3.79999C2.80005 3.0268 3.42685 2.39999 4.20005 2.39999V0.399994C2.32228 0.399994 0.800049 1.92223 0.800049 3.79999H2.80005ZM9.20005 1.39999V6.19999H11.2V1.39999H9.20005ZM11.4001 8.39999H16.2001V6.39999H11.4001V8.39999ZM9.20005 6.19999C9.20005 7.41502 10.185 8.39999 11.4001 8.39999V6.39999C11.2896 6.39999 11.2 6.31045 11.2 6.19999H9.20005ZM11.3959 2.81004L14.79 6.20416L16.2042 4.78994L12.8101 1.39583L11.3959 2.81004ZM8.10716 14.2929L6.10716 12.2929L4.69294 13.7071L6.69294 15.7071L8.10716 14.2929ZM6.10716 13.7071L8.10716 11.7071L6.69294 10.2929L4.69294 12.2929L6.10716 13.7071ZM9.89294 11.7071L11.8929 13.7071L13.3072 12.2929L11.3072 10.2929L9.89294 11.7071ZM11.8929 12.2929L9.89294 14.2929L11.3072 15.7071L13.3072 13.7071L11.8929 12.2929Z" fill="black"/>
</svg>
