<svg width="22" height="22" viewBox="0 0 22 22" fill="none" xmlns="http://www.w3.org/2000/svg">
<path id="file-multiple-icon" d="M10.5202 5.2399V8.1199C10.5202 8.6501 10.95 9.0799 11.4802 9.0799H14.3602M16.2802 1.3999H9.55996C8.49958 1.3999 7.63997 2.25951 7.63996 3.31989V5.2399M16.2802 1.3999H16.8157C17.0861 1.3999 17.3434 1.51377 17.5297 1.70973C17.8096 2.0042 18.2529 2.45762 18.6802 2.8399C19.015 3.13952 19.5411 3.67722 19.8562 4.00401C20.0265 4.18073 20.1202 4.4167 20.1202 4.66217L20.1202 5.2399M16.2802 1.3999V4.2799C16.2802 4.8101 16.71 5.2399 17.2402 5.2399H20.1202M20.1202 5.2399L20.1199 14.8399C20.1199 15.9003 19.2603 16.7599 18.1999 16.7599H14.3599M12.9202 6.6799C12.4929 6.29762 12.0496 5.84421 11.7697 5.54973C11.5834 5.35377 11.3261 5.2399 11.0557 5.2399H3.79996C2.73958 5.2399 1.87996 6.09951 1.87996 7.15989L1.87988 18.6799C1.87988 19.7402 2.73949 20.5999 3.79988 20.5999L12.4399 20.5999C13.5003 20.5999 14.3599 19.7403 14.3599 18.6799L14.3602 8.50217C14.3602 8.2567 14.2665 8.02073 14.0962 7.84401C13.7811 7.51722 13.255 6.97952 12.9202 6.6799Z" stroke="black" stroke-width="2" stroke-linecap="round" stroke-linejoin="round"/>
</svg>
