<svg width="22" height="22" viewBox="0 0 22 22" fill="none" xmlns="http://www.w3.org/2000/svg">
<path id="file-eye-02-icon" d="M9.7999 20.6001H3.79989C2.47441 20.6001 1.39989 19.5256 1.3999 18.2001L1.4 3.80013C1.4 2.47466 2.47452 1.40015 3.79999 1.40015H14.6003C15.9257 1.40015 17.0003 2.47466 17.0003 3.80015V8.60015M16.3999 16.3491V16.286M5.60028 6.20015H12.8003M5.60028 9.80015H12.8003M5.60028 13.4001H9.20028M20.5999 16.4001C20.5999 16.4001 19.6037 19.3398 16.3999 19.2885C13.1961 19.2371 12.1999 16.4001 12.1999 16.4001C12.1999 16.4001 13.1557 13.4091 16.3999 13.4091C19.6441 13.4091 20.5999 16.4001 20.5999 16.4001Z" stroke="black" stroke-width="2" stroke-linecap="round" stroke-linejoin="round"/>
</svg>
