<svg width="18" height="22" viewBox="0 0 18 22" fill="none" xmlns="http://www.w3.org/2000/svg">
<path id="file-attach-03-icon" d="M5.70101 8.91755V12.6058C5.70101 14.4283 7.17847 15.9058 9.00101 15.9058C10.8236 15.9058 12.301 14.4283 12.301 12.6058V7.94696C12.301 6.98209 11.5188 6.1999 10.554 6.1999C9.58908 6.1999 8.8069 6.98209 8.8069 7.94696V12.4117M3.60004 1.3999H14.4003C15.7258 1.3999 16.8003 2.47445 16.8003 3.79995L16.8 18.2C16.8 19.5254 15.7254 20.5999 14.4 20.5999L3.59994 20.5998C2.27446 20.5998 1.19994 19.5253 1.19995 18.1998L1.20004 3.79989C1.20005 2.47441 2.27457 1.3999 3.60004 1.3999Z" stroke="black" stroke-width="2" stroke-linecap="round"/>
</svg>
