<svg width="22" height="18" viewBox="0 0 22 18" fill="none" xmlns="http://www.w3.org/2000/svg">
<path id="folder-search-02-icon" d="M11.0837 16.9411H3.80093C2.47543 16.9411 1.40091 15.8665 1.40093 14.541L1.40102 5.41673C1.40102 4.50281 1.40068 3.20108 1.40039 2.25853C1.40019 1.59561 1.93752 1.05884 2.60044 1.05884H8.31865L11.0837 4.01247H19.4C20.0627 4.01247 20.6 4.54973 20.6 5.21247V8.40005M18.8 15.6L20 16.8M19.4 13.2C19.4 14.8569 18.0568 16.2 16.4 16.2C14.7431 16.2 13.4 14.8569 13.4 13.2C13.4 11.5432 14.7431 10.2 16.4 10.2C18.0568 10.2 19.4 11.5432 19.4 13.2Z" stroke="black" stroke-width="2" stroke-linecap="round" stroke-linejoin="round"/>
</svg>
