<svg width="22" height="20" viewBox="0 0 22 20" fill="none" xmlns="http://www.w3.org/2000/svg">
<path id="folder-open-01-icon" d="M15.5175 8.4999H19.5332C20.1223 8.4999 20.5999 8.97746 20.5999 9.56657V15.7979V16.0999C20.5999 17.2045 19.7045 18.0999 18.5999 18.0999H3.7999M1.3999 2.96657V15.9999C1.3999 17.1597 2.3401 18.0999 3.4999 18.0999V18.0999C4.6597 18.0999 5.5999 17.1597 5.5999 15.9999V9.56657C5.5999 8.97747 6.07746 8.4999 6.66657 8.4999H18.4666V5.97833C18.4666 5.38923 17.989 4.91167 17.3999 4.91167H10.3725L8.7425 2.38788C8.54603 2.08365 8.20861 1.8999 7.84646 1.8999H2.46657C1.87747 1.8999 1.3999 2.37747 1.3999 2.96657Z" stroke="black" stroke-width="2" stroke-linecap="round" stroke-linejoin="round"/>
</svg>
