<svg width="18" height="18" viewBox="0 0 18 18" fill="none" xmlns="http://www.w3.org/2000/svg">
<path id="git-branch-02-icon" d="M3.50405 11.9919C4.887 11.9919 6.0081 13.113 6.0081 14.496C6.0081 15.8789 4.887 17 3.50405 17C2.1211 17 1 15.8789 1 14.496C1 13.113 2.1211 11.9919 3.50405 11.9919ZM3.50405 11.9919L3.50405 3.50405M13.5203 6.0081C14.9032 6.0081 16.0243 4.887 16.0243 3.50405C16.0243 2.1211 14.9032 0.999999 13.5203 0.999999C12.1373 0.999999 11.0162 2.1211 11.0162 3.50405C11.0162 4.887 12.1373 6.0081 13.5203 6.0081ZM13.5203 6.0081L13.5203 10.4585C13.5203 12.6677 11.7294 14.4585 9.52025 14.4585L6.00937 14.4585" stroke="black" stroke-width="2" stroke-linecap="round"/>
</svg>
