<svg width="22" height="22" viewBox="0 0 22 22" fill="none" xmlns="http://www.w3.org/2000/svg">
<g id="grid-04-filled-icon">
<path d="M1.3999 2.59999C1.3999 1.93725 1.93716 1.39999 2.5999 1.39999H4.9999C5.66264 1.39999 6.1999 1.93725 6.1999 2.59999V4.99999C6.1999 5.66274 5.66264 6.19999 4.9999 6.19999H2.5999C1.93716 6.19999 1.3999 5.66274 1.3999 4.99999V2.59999Z" stroke="black" stroke-width="2"/>
<path d="M8.5999 2.59999C8.5999 1.93725 9.13716 1.39999 9.7999 1.39999H12.1999C12.8626 1.39999 13.3999 1.93725 13.3999 2.59999V4.99999C13.3999 5.66274 12.8626 6.19999 12.1999 6.19999H9.7999C9.13716 6.19999 8.5999 5.66274 8.5999 4.99999V2.59999Z" stroke="black" stroke-width="2"/>
<path d="M15.7999 2.59999C15.7999 1.93725 16.3372 1.39999 16.9999 1.39999H19.3999C20.0626 1.39999 20.5999 1.93725 20.5999 2.59999V4.99999C20.5999 5.66274 20.0626 6.19999 19.3999 6.19999H16.9999C16.3372 6.19999 15.7999 5.66274 15.7999 4.99999V2.59999Z" stroke="black" stroke-width="2"/>
<path d="M1.3999 9.79999C1.3999 9.13725 1.93716 8.59999 2.5999 8.59999H4.9999C5.66264 8.59999 6.1999 9.13725 6.1999 9.79999V12.2C6.1999 12.8627 5.66264 13.4 4.9999 13.4H2.5999C1.93716 13.4 1.3999 12.8627 1.3999 12.2V9.79999Z" stroke="black" stroke-width="2"/>
<path d="M8.5999 9.79999C8.5999 9.13725 9.13716 8.59999 9.7999 8.59999H12.1999C12.8626 8.59999 13.3999 9.13725 13.3999 9.79999V12.2C13.3999 12.8627 12.8626 13.4 12.1999 13.4H9.7999C9.13716 13.4 8.5999 12.8627 8.5999 12.2V9.79999Z" stroke="black" stroke-width="2"/>
<path d="M15.7999 9.79999C15.7999 9.13725 16.3372 8.59999 16.9999 8.59999H19.3999C20.0626 8.59999 20.5999 9.13725 20.5999 9.79999V12.2C20.5999 12.8627 20.0626 13.4 19.3999 13.4H16.9999C16.3372 13.4 15.7999 12.8627 15.7999 12.2V9.79999Z" stroke="black" stroke-width="2"/>
<path d="M1.3999 17C1.3999 16.3373 1.93716 15.8 2.5999 15.8H4.9999C5.66264 15.8 6.1999 16.3373 6.1999 17V19.4C6.1999 20.0627 5.66264 20.6 4.9999 20.6H2.5999C1.93716 20.6 1.3999 20.0627 1.3999 19.4V17Z" stroke="black" stroke-width="2"/>
<path d="M8.5999 17C8.5999 16.3373 9.13716 15.8 9.7999 15.8H12.1999C12.8626 15.8 13.3999 16.3373 13.3999 17V19.4C13.3999 20.0627 12.8626 20.6 12.1999 20.6H9.7999C9.13716 20.6 8.5999 20.0627 8.5999 19.4V17Z" stroke="black" stroke-width="2"/>
<path d="M15.7999 17C15.7999 16.3373 16.3372 15.8 16.9999 15.8H19.3999C20.0626 15.8 20.5999 16.3373 20.5999 17V19.4C20.5999 20.0627 20.0626 20.6 19.3999 20.6H16.9999C16.3372 20.6 15.7999 20.0627 15.7999 19.4V17Z" stroke="black" stroke-width="2"/>
</g>
</svg>
