<svg width="22" height="22" viewBox="0 0 22 22" fill="none" xmlns="http://www.w3.org/2000/svg">
<path id="grid-03-icon" d="M7.7999 1.39999H3.53324C2.35503 1.39999 1.3999 2.35512 1.3999 3.53333V7.79999M7.7999 20.6H3.53324C2.35503 20.6 1.3999 19.6449 1.3999 18.4667V14.2M14.1999 1.39999H18.4666C19.6448 1.39999 20.5999 2.35512 20.5999 3.53333V7.79999M20.5999 14.2V18.4667C20.5999 19.6449 19.6448 20.6 18.4666 20.6H14.1999M14.5999 11.0003C14.5999 12.9885 12.9881 14.6003 10.9999 14.6003C9.01168 14.6003 7.3999 12.9885 7.3999 11.0003C7.3999 9.01206 9.01168 7.40029 10.9999 7.40029C12.9881 7.40029 14.5999 9.01206 14.5999 11.0003Z" stroke="black" stroke-width="2" stroke-linecap="round"/>
</svg>
