<svg width="20" height="20" viewBox="0 0 20 20" fill="none" xmlns="http://www.w3.org/2000/svg">
<path id="help-square-contained-icon" d="M10 14.4999V14.5395M7.75098 7.22996C7.75098 5.96386 8.75834 4.93748 10.001 4.93748C11.2436 4.93748 12.251 5.96386 12.251 7.22996C12.251 8.49606 11.2436 9.52244 10.001 9.52244C10.001 9.52244 10 10.2067 10 11.0508M19 4.37498L19 15.625C19 17.489 17.489 19 15.625 19H4.375C2.51104 19 1 17.489 1 15.625V4.37498C1 2.51103 2.51104 1 4.375 1H15.625C17.489 1 19 2.51103 19 4.37498Z" stroke="black" stroke-width="2" stroke-linecap="round" stroke-linejoin="round"/>
</svg>
