<svg width="20" height="20" viewBox="0 0 20 20" fill="none" xmlns="http://www.w3.org/2000/svg">
<path id="help-icon" d="M12.3865 12.3865C11.0685 13.7045 8.93153 13.7045 7.61351 12.3865M12.3865 12.3865C13.7045 11.0685 13.7045 8.93153 12.3865 7.61351M12.3865 12.3865L15.9662 15.9662M7.61351 12.3865C6.2955 11.0685 6.2955 8.93153 7.61351 7.61351M7.61351 12.3865L4.03379 15.9662M7.61351 7.61351C8.93153 6.2955 11.0685 6.2955 12.3865 7.61351M7.61351 7.61351L4.03379 4.03379M12.3865 7.61351L15.9662 4.03379M16.364 16.364C12.8492 19.8787 7.15076 19.8787 3.63604 16.364C0.12132 12.8492 0.12132 7.15076 3.63604 3.63604C7.15076 0.12132 12.8492 0.12132 16.364 3.63604C19.8787 7.15076 19.8787 12.8492 16.364 16.364Z" stroke="black" stroke-width="2" stroke-linecap="round" stroke-linejoin="round"/>
</svg>
