<svg width="22" height="22" viewBox="0 0 22 22" fill="none" xmlns="http://www.w3.org/2000/svg">
<path id="horizontal-chart-03-icon" d="M1.91211 13.3548H13.2901M1.91211 13.3548L13.2317 13.3537C13.2513 13.3537 13.2708 13.3541 13.2901 13.3548M1.91211 13.3548L1.91211 17.24C1.91211 17.7702 2.44937 18.2 3.11211 18.2H13.2321C13.8949 18.2 14.4321 17.7702 14.4321 17.24V14.3137C14.4321 13.7991 13.9259 13.3791 13.2901 13.3548M1.91211 13.3548L1.91211 8.50825M13.2901 13.3548H18.8881C19.5509 13.3548 20.0881 12.925 20.0881 12.3948V9.46825C20.0881 8.93806 19.5509 8.50825 18.8881 8.50825M1.91211 8.50825H18.8881M1.91211 8.50825L1.91211 4.76002C1.91211 4.22983 2.44937 3.80003 3.11211 3.80003L7.91211 3.80002C8.57485 3.80002 9.11211 4.22983 9.11211 4.76002V7.54825C9.11211 8.07844 8.57485 8.50825 7.91211 8.50825L18.8881 8.50825M1.91211 20.6V1.40002" stroke="black" stroke-width="2" stroke-linecap="round" stroke-linejoin="round"/>
</svg>
