<svg width="14" height="20" viewBox="0 0 14 20" fill="none" xmlns="http://www.w3.org/2000/svg">
<path id="hourglass-02-icon" d="M4.57447 15.9143H9.42553M11.9787 19H2.02128C1.45724 19 1 18.5395 1 17.9714V15.2237C1 15.0042 1.06977 14.7904 1.19909 14.6136L4.12807 10.6101C4.39353 10.2473 4.39353 9.75269 4.12807 9.38985L1.19909 5.38641C1.06977 5.20964 1 4.99584 1 4.77626V2.02857C1 1.46051 1.45724 1 2.02128 1H11.7234C12.2874 1 12.7447 1.46051 12.7447 2.02857V4.79608C12.7447 5.00337 12.6825 5.20582 12.5663 5.3769L9.8351 9.39712C9.58984 9.75815 9.59813 10.2359 9.85578 10.5881L12.8009 14.6136C12.9302 14.7904 13 15.0042 13 15.2237V17.9714C13 18.5395 12.5428 19 11.9787 19Z" stroke="black" stroke-width="2" stroke-linecap="round" stroke-linejoin="round"/>
</svg>
