<svg width="20" height="20" viewBox="0 0 20 20" fill="none" xmlns="http://www.w3.org/2000/svg">
<path id="image-focus-icon" d="M7 1H3C1.89543 1 1 1.89543 1 3V7M7 19H3C1.89543 19 1 18.1046 1 17V13M13 1H17C18.1046 1 19 1.89543 19 3V7M19 13V17C19 18.1046 18.1046 19 17 19H13M7.75 13.375H12.25C12.8713 13.375 13.375 12.8713 13.375 12.25V7.75C13.375 7.12868 12.8713 6.625 12.25 6.625H7.75C7.12868 6.625 6.625 7.12868 6.625 7.75V12.25C6.625 12.8713 7.12868 13.375 7.75 13.375Z" stroke="black" stroke-width="2" stroke-linecap="round"/>
</svg>
