<svg width="22" height="18" viewBox="0 0 22 18" fill="none" xmlns="http://www.w3.org/2000/svg">
<path id="laptop-02-icon" d="M18.3999 12.6002C18.3999 13.1525 18.8476 13.6002 19.3999 13.6002C19.9522 13.6002 20.3999 13.1525 20.3999 12.6002H18.3999ZM1.5999 12.6002C1.5999 13.1525 2.04762 13.6002 2.5999 13.6002C3.15219 13.6002 3.5999 13.1525 3.5999 12.6002H1.5999ZM4.6999 2.2002H17.2999V0.200195H4.6999V2.2002ZM18.3999 3.23096V12.6002H20.3999V3.23096H18.3999ZM3.5999 12.6002V3.23096H1.5999V12.6002H3.5999ZM17.2999 2.2002C17.9393 2.2002 18.3999 2.69302 18.3999 3.23096H20.3999C20.3999 1.52578 18.9801 0.200195 17.2999 0.200195V2.2002ZM4.6999 0.200195C3.01968 0.200195 1.5999 1.52578 1.5999 3.23096H3.5999C3.5999 2.69302 4.06053 2.2002 4.6999 2.2002V0.200195ZM2.5999 14.2002H19.3999V12.2002H2.5999V14.2002ZM19.5999 14.4002V15.6002H21.5999V14.4002H19.5999ZM19.3999 15.8002H2.5999V17.8002H19.3999V15.8002ZM2.3999 15.6002V14.4002H0.399902V15.6002H2.3999ZM2.5999 15.8002C2.48945 15.8002 2.3999 15.7107 2.3999 15.6002H0.399902C0.399902 16.8152 1.38488 17.8002 2.5999 17.8002V15.8002ZM19.5999 15.6002C19.5999 15.7107 19.5104 15.8002 19.3999 15.8002V17.8002C20.6149 17.8002 21.5999 16.8152 21.5999 15.6002H19.5999ZM19.3999 14.2002C19.5104 14.2002 19.5999 14.2897 19.5999 14.4002H21.5999C21.5999 13.1852 20.6149 12.2002 19.3999 12.2002V14.2002ZM2.5999 12.2002C1.38488 12.2002 0.399902 13.1852 0.399902 14.4002H2.3999C2.3999 14.2897 2.48945 14.2002 2.5999 14.2002V12.2002Z" fill="black"/>
</svg>
