<svg width="22" height="12" viewBox="0 0 22 12" fill="none" xmlns="http://www.w3.org/2000/svg">
<path id="link-icon" d="M9.0115 1.45264L5.85292 1.45264C4.67327 1.45264 3.53155 1.91599 2.6943 2.76564C1.85705 3.61528 1.38138 4.75448 1.40046 5.97102C1.38133 7.18754 1.85719 8.3269 2.6943 9.17641C3.55051 10.0453 4.65413 10.5088 5.83382 10.5088H8.9924M12.9883 10.5474H16.1469C17.3265 10.5474 18.4683 10.084 19.3055 9.23437C20.1428 8.38473 20.6184 7.24553 20.5993 6.02899C20.5993 4.83188 20.1237 3.69263 19.2864 2.84298C18.4492 1.99333 17.3266 1.51062 16.1469 1.5106H12.9883M6.25235 5.95777L15.7281 5.95777" stroke="black" stroke-width="2" stroke-linecap="round" stroke-linejoin="round"/>
</svg>
