<svg width="22" height="22" viewBox="0 0 22 22" fill="none" xmlns="http://www.w3.org/2000/svg">
<path id="marker-06-icon" d="M10.9999 13.4L10.3437 14.1546C10.72 14.4818 11.2798 14.4818 11.6561 14.1546L10.9999 13.4ZM5.87308 14.2543C6.40436 14.1035 6.71274 13.5505 6.56186 13.0192C6.41099 12.4879 5.858 12.1795 5.32672 12.3304L5.87308 14.2543ZM16.6731 12.3304C16.1418 12.1795 15.5888 12.4879 15.4379 13.0192C15.2871 13.5505 15.5954 14.1035 16.1267 14.2543L16.6731 12.3304ZM14.7999 6.09568C14.7999 6.64025 14.5846 7.31643 14.1704 8.08168C13.7635 8.83355 13.2084 9.59203 12.6328 10.2802C12.06 10.9651 11.4844 11.5598 11.0506 11.9841C10.8343 12.1957 10.6549 12.3634 10.5306 12.4772C10.4686 12.5341 10.4204 12.5774 10.3884 12.6059C10.3725 12.6201 10.3606 12.6306 10.353 12.6373C10.3492 12.6406 10.3465 12.6429 10.345 12.6443C10.3442 12.645 10.3437 12.6454 10.3435 12.6456C10.3434 12.6457 10.3434 12.6457 10.3434 12.6457C10.3434 12.6457 10.3435 12.6456 10.3435 12.6456C10.3436 12.6455 10.3437 12.6454 10.9999 13.4C11.6561 14.1546 11.6562 14.1545 11.6564 14.1543C11.6565 14.1543 11.6567 14.1541 11.6568 14.154C11.6572 14.1537 11.6576 14.1533 11.6581 14.1529C11.659 14.1521 11.6602 14.151 11.6618 14.1497C11.6648 14.147 11.669 14.1433 11.6743 14.1386C11.6849 14.1293 11.7 14.116 11.7192 14.0989C11.7575 14.0647 11.8125 14.0153 11.8817 13.9519C12.0199 13.8252 12.2155 13.6424 12.4492 13.4138C12.9154 12.9577 13.5398 12.3132 14.167 11.5633C14.7914 10.8167 15.4363 9.94476 15.9294 9.03358C16.4152 8.13579 16.7999 7.11632 16.7999 6.09568H14.7999ZM10.9999 13.4C11.6561 12.6454 11.6562 12.6455 11.6563 12.6456C11.6563 12.6456 11.6564 12.6457 11.6564 12.6457C11.6564 12.6457 11.6564 12.6457 11.6563 12.6456C11.6561 12.6454 11.6556 12.645 11.6548 12.6443C11.6533 12.6429 11.6506 12.6406 11.6468 12.6373C11.6392 12.6306 11.6273 12.6201 11.6114 12.6059C11.5794 12.5774 11.5312 12.5341 11.4692 12.4772C11.3449 12.3634 11.1655 12.1957 10.9492 11.9841C10.5154 11.5598 9.93977 10.9651 9.36698 10.2802C8.79141 9.59203 8.23627 8.83355 7.82938 8.08168C7.41524 7.31643 7.1999 6.64025 7.1999 6.09568H5.1999C5.1999 7.11632 5.58457 8.13579 6.07043 9.03358C6.56354 9.94476 7.20839 10.8167 7.83283 11.5633C8.46004 12.3132 9.08437 12.9577 9.55061 13.4138C9.78434 13.6424 9.97986 13.8252 10.1181 13.9519C10.1873 14.0153 10.2423 14.0647 10.2806 14.0989C10.2998 14.116 10.3149 14.1293 10.3255 14.1386C10.3308 14.1433 10.335 14.147 10.338 14.1497C10.3396 14.151 10.3408 14.1521 10.3417 14.1529C10.3422 14.1533 10.3426 14.1537 10.343 14.154C10.3431 14.1541 10.3433 14.1543 10.3434 14.1543C10.3436 14.1545 10.3437 14.1546 10.9999 13.4ZM7.1999 6.09568C7.1999 4.07523 8.88039 2.40002 10.9999 2.40002V0.400024C7.81749 0.400024 5.1999 2.92945 5.1999 6.09568H7.1999ZM10.9999 2.40002C13.1194 2.40002 14.7999 4.07523 14.7999 6.09568H16.7999C16.7999 2.92945 14.1823 0.400024 10.9999 0.400024V2.40002ZM19.5999 16.6C19.5999 16.804 19.5049 17.0888 19.1437 17.4446C18.7789 17.8039 18.1998 18.1736 17.4035 18.5054C15.8153 19.1671 13.5518 19.6 10.9999 19.6V21.6C13.7499 21.6 16.2865 21.1375 18.1727 20.3515C19.1137 19.9595 19.9405 19.4672 20.5473 18.8694C21.1576 18.2682 21.5999 17.5007 21.5999 16.6H19.5999ZM10.9999 19.6C8.44796 19.6 6.18453 19.1671 4.59629 18.5054C3.79999 18.1736 3.22087 17.8039 2.8561 17.4446C2.49486 17.0888 2.3999 16.804 2.3999 16.6H0.399902C0.399902 17.5007 0.842203 18.2682 1.45253 18.8694C2.05934 19.4672 2.88611 19.9595 3.82706 20.3515C5.71334 21.1375 8.2499 21.6 10.9999 21.6V19.6ZM2.3999 16.6C2.3999 16.349 2.55094 15.9618 3.15965 15.4927C3.75833 15.0312 4.67851 14.5936 5.87308 14.2543L5.32672 12.3304C3.98597 12.7112 2.80615 13.2399 1.93866 13.9086C1.0812 14.5695 0.399902 15.4762 0.399902 16.6H2.3999ZM16.1267 14.2543C17.3213 14.5936 18.2415 15.0312 18.8402 15.4927C19.4489 15.9618 19.5999 16.349 19.5999 16.6H21.5999C21.5999 15.4762 20.9186 14.5695 20.0611 13.9086C19.1936 13.2399 18.0138 12.7112 16.6731 12.3304L16.1267 14.2543Z" fill="black"/>
</svg>
