<svg width="22" height="24" viewBox="0 0 22 24" fill="none" xmlns="http://www.w3.org/2000/svg">
<path id="message-notify-square-icon" d="M10.6869 17.1913V16.1913C10.4216 16.1913 10.1673 16.2966 9.97975 16.4842L10.6869 17.1913ZM5.67816 22.2H4.67816C4.67816 22.6045 4.9218 22.9691 5.29548 23.1239C5.66915 23.2786 6.09927 23.1931 6.38527 22.9071L5.67816 22.2ZM5.67816 17.1913H6.67816C6.67816 16.639 6.23045 16.1913 5.67816 16.1913V17.1913ZM9.7999 3.99999C10.3522 3.99999 10.7999 3.55227 10.7999 2.99999C10.7999 2.4477 10.3522 1.99999 9.7999 1.99999V3.99999ZM21.5999 12C21.5999 11.4477 21.1522 11 20.5999 11C20.0476 11 19.5999 11.4477 19.5999 12H21.5999ZM9.97975 16.4842L4.97106 21.4929L6.38527 22.9071L11.394 17.8984L9.97975 16.4842ZM6.67816 22.2V17.1913H4.67816V22.2H6.67816ZM5.67816 16.1913H3.7999V18.1913H5.67816V16.1913ZM2.3999 14.7913V5.39999H0.399902V14.7913H2.3999ZM18.1999 16.1913H10.6869V18.1913H18.1999V16.1913ZM3.7999 3.99999H9.7999V1.99999H3.7999V3.99999ZM19.5999 12V14.7913H21.5999V12H19.5999ZM18.1999 18.1913C20.0777 18.1913 21.5999 16.6691 21.5999 14.7913H19.5999C19.5999 15.5645 18.9731 16.1913 18.1999 16.1913V18.1913ZM2.3999 5.39999C2.3999 4.62679 3.0267 3.99999 3.7999 3.99999V1.99999C1.92213 1.99999 0.399902 3.52222 0.399902 5.39999H2.3999ZM3.7999 16.1913C3.0267 16.1913 2.3999 15.5645 2.3999 14.7913H0.399902C0.399902 16.6691 1.92214 18.1913 3.7999 18.1913V16.1913ZM19.5999 5.39999C19.5999 6.83593 18.4358 7.99999 16.9999 7.99999V9.99999C19.5404 9.99999 21.5999 7.9405 21.5999 5.39999H19.5999ZM16.9999 7.99999C15.564 7.99999 14.3999 6.83593 14.3999 5.39999H12.3999C12.3999 7.9405 14.4594 9.99999 16.9999 9.99999V7.99999ZM14.3999 5.39999C14.3999 3.96405 15.564 2.79999 16.9999 2.79999V0.799988C14.4594 0.799988 12.3999 2.85948 12.3999 5.39999H14.3999ZM16.9999 2.79999C18.4358 2.79999 19.5999 3.96405 19.5999 5.39999H21.5999C21.5999 2.85948 19.5404 0.799988 16.9999 0.799988V2.79999Z" fill="black"/>
</svg>
