<svg width="22" height="22" viewBox="0 0 22 22" fill="none" xmlns="http://www.w3.org/2000/svg">
<path id="microphone-02-icon" d="M1.49292 12.3764C1.82536 14.6606 2.96908 16.7487 4.71484 18.2588C6.4606 19.7688 8.69168 20.5999 10.9999 20.5999C13.3082 20.5999 15.5393 19.7688 17.285 18.2588C19.0308 16.7487 20.1745 14.6606 20.5069 12.3764M11.0013 1.3999C9.90962 1.3999 8.86265 1.83357 8.09072 2.6055C7.31878 3.37744 6.88512 4.4244 6.88512 5.51608V11.0043C6.88512 12.096 7.31878 13.143 8.09072 13.9149C8.86265 14.6868 9.90962 15.1205 11.0013 15.1205C12.093 15.1205 13.1399 14.6868 13.9119 13.9149C14.6838 13.143 15.1175 12.096 15.1175 11.0043V5.51608C15.1175 4.4244 14.6838 3.37744 13.9119 2.6055C13.1399 1.83357 12.093 1.3999 11.0013 1.3999Z" stroke="black" stroke-width="2" stroke-linecap="round" stroke-linejoin="round"/>
</svg>
