<svg width="22" height="22" viewBox="0 0 22 22" fill="none" xmlns="http://www.w3.org/2000/svg">
<path id="overlap-icon" d="M6.1999 7.79999H3.7999C2.47442 7.79999 1.3999 8.87451 1.3999 10.2C1.3999 11.5255 1.3999 16.8745 1.3999 18.2C1.3999 19.5255 2.47442 20.6 3.7999 20.6C3.7999 20.6 10.4744 20.6 11.7999 20.6C13.1254 20.6 14.1999 19.5255 14.1999 18.2V15.2M18.1999 1.39999L10.1999 1.39999C8.87442 1.39999 7.7999 2.47451 7.7999 3.79999C7.7999 5.12548 7.7999 10.4745 7.7999 11.8C7.7999 13.1255 8.87442 14.2 10.1999 14.2C10.1999 14.2 16.8744 14.2 18.1999 14.2C19.5254 14.2 20.5999 13.1255 20.5999 11.8V3.79999C20.5999 2.47451 19.5254 1.39999 18.1999 1.39999Z" stroke="black" stroke-width="2" stroke-linecap="round" stroke-linejoin="round"/>
</svg>
