<svg width="22" height="20" viewBox="0 0 22 20" fill="none" xmlns="http://www.w3.org/2000/svg">
<path id="password-02-icon" d="M5.52879 7.30234H5.66882M10.9999 7.30234H11.1399M16.3294 7.30234H16.4694M10.3999 12.7023H3.53324C2.35503 12.7023 1.3999 11.7472 1.3999 10.569V4.03568C1.3999 2.85747 2.35503 1.90234 3.53324 1.90234H18.4666C19.6448 1.90234 20.5999 2.85747 20.5999 4.03568V7.30234M14.4111 11.5974L15.8011 10.9024C16.8146 10.3957 18.0076 10.3957 19.0211 10.9024L20.4111 11.5974C20.4111 11.5974 20.4111 13.7874 20.4111 14.9424C20.4111 16.0974 19.3434 16.8771 17.4111 18.0974C15.4788 16.8771 14.4111 15.8474 14.4111 14.9424V11.5974Z" stroke="black" stroke-width="2" stroke-linecap="round" stroke-linejoin="round"/>
</svg>
