<svg width="18" height="22" viewBox="0 0 18 22" fill="none" xmlns="http://www.w3.org/2000/svg">
<path id="passport-icon" d="M6.60005 15.7999H11.4M3.80005 20.5999H14.2001C15.3046 20.5999 16.2001 19.7045 16.2001 18.5999V3.3999C16.2001 2.29533 15.3046 1.3999 14.2 1.3999H3.80005C2.69548 1.3999 1.80005 2.29533 1.80005 3.3999V18.5999C1.80005 19.7045 2.69548 20.5999 3.80005 20.5999ZM11.4 7.3999C11.4 8.72539 10.3255 9.7999 9.00005 9.7999C7.67456 9.7999 6.60005 8.72539 6.60005 7.3999C6.60005 6.07442 7.67456 4.9999 9.00005 4.9999C10.3255 4.9999 11.4 6.07442 11.4 7.3999Z" stroke="black" stroke-width="2" stroke-linecap="round" stroke-linejoin="round"/>
</svg>
