<svg width="25" height="22" viewBox="0 0 25 22" fill="none" xmlns="http://www.w3.org/2000/svg">
<path id="pen-tool-02-icon" d="M20.331 11.6977C20.5157 11.1772 20.2435 10.6055 19.723 10.4208C19.2025 10.2362 18.6308 10.5084 18.4462 11.0289L20.331 11.6977ZM17.3551 17.0939L18.2976 17.4283L18.2976 17.4283L17.3551 17.0939ZM15.9837 18.2813L16.1798 19.2619L16.1798 19.2619L15.9837 18.2813ZM4.01245 20.6756L3.02832 20.4981C2.96958 20.8239 3.07583 21.1576 3.31209 21.3894C3.54835 21.6212 3.884 21.7211 4.20857 21.6562L4.01245 20.6756ZM6.19707 8.56085L7.1812 8.73832L7.1812 8.73831L6.19707 8.56085ZM7.45741 7.13299L7.75568 8.08747L7.75568 8.08747L7.45741 7.13299ZM13.623 6.25393C14.1502 6.08919 14.444 5.52832 14.2792 5.00117C14.1145 4.47403 13.5536 4.18023 13.0265 4.34497L13.623 6.25393ZM3.52191 19.7519C3.13138 20.1424 3.13138 20.7756 3.52191 21.1661C3.91243 21.5566 4.5456 21.5566 4.93612 21.1661L3.52191 19.7519ZM10.1337 15.9686C10.5242 15.578 10.5242 14.9449 10.1337 14.5543C9.74316 14.1638 9.11 14.1638 8.71948 14.5543L10.1337 15.9686ZM22.8536 7.03197L23.5607 6.32486L23.5607 6.32486L22.8536 7.03197ZM22.8536 8.76449L22.1465 8.05738L22.1465 8.05738L22.8536 8.76449ZM15.9235 1.8344L15.2164 1.1273L15.2164 1.1273L15.9235 1.8344ZM17.6561 1.8344L16.949 2.54151L16.949 2.54151L17.6561 1.8344ZM13.7579 5.73258L14.465 5.02547L14.465 5.02547L13.7579 5.73258ZM13.7579 4.00006L14.465 4.70716L14.465 4.70716L13.7579 4.00006ZM18.9555 10.9301L18.2483 11.6373L18.2483 11.6373L18.9555 10.9301ZM20.688 10.9301L21.3951 11.6373L21.3951 11.6373L20.688 10.9301ZM1.94995 0.75625C1.39767 0.75625 0.949951 1.20397 0.949951 1.75625C0.949951 2.30853 1.39767 2.75625 1.94995 2.75625V0.75625ZM7.23831 2.75625C7.7906 2.75625 8.23831 2.30853 8.23831 1.75625C8.23831 1.20397 7.7906 0.75625 7.23831 0.75625V2.75625ZM18.4462 11.0289L16.4127 16.7595L18.2976 17.4283L20.331 11.6977L18.4462 11.0289ZM15.7876 17.3008L3.81633 19.695L4.20857 21.6562L16.1798 19.2619L15.7876 17.3008ZM4.99658 20.853L7.1812 8.73832L5.21295 8.38338L3.02832 20.4981L4.99658 20.853ZM7.75568 8.08747L13.623 6.25393L13.0265 4.34497L7.15913 6.17851L7.75568 8.08747ZM7.1812 8.73831C7.23656 8.43132 7.45793 8.18052 7.75568 8.08747L7.15913 6.17851C6.15044 6.49373 5.40049 7.34337 5.21295 8.38338L7.1812 8.73831ZM16.4127 16.7595C16.3141 17.0374 16.0767 17.2429 15.7876 17.3008L16.1798 19.2619C17.1592 19.066 17.9635 18.3696 18.2976 17.4283L16.4127 16.7595ZM4.93612 21.1661L10.1337 15.9686L8.71948 14.5543L3.52191 19.7519L4.93612 21.1661ZM19.6626 10.223L14.465 5.02547L13.0508 6.43968L18.2483 11.6373L19.6626 10.223ZM14.465 4.70716L16.6306 2.54151L15.2164 1.1273L13.0508 3.29295L14.465 4.70716ZM16.949 2.54151L22.1465 7.73908L23.5607 6.32486L18.3632 1.1273L16.949 2.54151ZM22.1465 8.05738L19.9809 10.223L21.3951 11.6373L23.5607 9.4716L22.1465 8.05738ZM22.1465 7.73908C22.2344 7.82697 22.2344 7.96949 22.1465 8.05738L23.5607 9.4716C24.4297 8.60265 24.4297 7.19381 23.5607 6.32486L22.1465 7.73908ZM16.6306 2.54151C16.7185 2.45361 16.8611 2.45361 16.949 2.54151L18.3632 1.1273C17.4942 0.258349 16.0854 0.25835 15.2164 1.1273L16.6306 2.54151ZM14.465 5.02547C14.3771 4.93757 14.3771 4.79506 14.465 4.70716L13.0508 3.29295C12.1818 4.1619 12.1818 5.57074 13.0508 6.43968L14.465 5.02547ZM18.2483 11.6373C19.1173 12.5062 20.5261 12.5062 21.3951 11.6373L19.9809 10.223C19.893 10.3109 19.7505 10.3109 19.6626 10.223L18.2483 11.6373ZM10.5668 12.0704C11.1331 11.5041 12.0513 11.5041 12.6176 12.0704L14.0319 10.6562C12.6845 9.3088 10.5 9.3088 9.15261 10.6562L10.5668 12.0704ZM12.6176 12.0704C13.184 12.6367 13.184 13.5549 12.6176 14.1212L14.0319 15.5354C15.3792 14.1881 15.3792 12.0035 14.0319 10.6562L12.6176 12.0704ZM12.6176 14.1212C12.0513 14.6875 11.1331 14.6875 10.5668 14.1212L9.15261 15.5354C10.5 16.8828 12.6845 16.8828 14.0319 15.5354L12.6176 14.1212ZM10.5668 14.1212C10.0005 13.5549 10.0005 12.6367 10.5668 12.0704L9.15261 10.6562C7.80523 12.0035 7.80524 14.1881 9.15261 15.5354L10.5668 14.1212ZM1.94995 2.75625H7.23831V0.75625H1.94995V2.75625Z" fill="black"/>
</svg>
