<svg width="22" height="22" viewBox="0 0 22 22" fill="none" xmlns="http://www.w3.org/2000/svg">
<path id="phone-outgoing-01-icon" d="M15.0935 1.71594L20.5974 1.71594M20.5974 1.71594L20.5999 6.57947M20.5974 1.71594L14.3444 7.96898M19.4364 18.0226C19.4364 18.0226 18.2444 19.1933 17.9524 19.5365C17.4765 20.0443 16.9159 20.2841 16.1809 20.2841C16.1103 20.2841 16.0349 20.2841 15.9642 20.2794C14.565 20.19 13.2647 19.6447 12.2895 19.1792C9.62291 17.891 7.28143 16.062 5.3357 13.7442C3.72917 11.8118 2.65501 10.0252 1.94362 8.10695C1.50548 6.93625 1.34529 6.02414 1.41596 5.16375C1.46307 4.61366 1.67508 4.1576 2.06611 3.76737L3.67264 2.16413C3.90349 1.94785 4.14847 1.83031 4.38874 1.83031C4.68555 1.83031 4.92582 2.00897 5.07658 2.15943C5.08129 2.16413 5.086 2.16883 5.09072 2.17353C5.3781 2.44152 5.65135 2.71892 5.93873 3.01512C6.08478 3.16557 6.23554 3.31602 6.3863 3.47117L7.67247 4.75471C8.17185 5.25308 8.17185 5.71383 7.67247 6.2122C7.53584 6.34855 7.40392 6.48489 7.2673 6.61654C6.87156 7.02088 7.18244 6.71063 6.77256 7.07736C6.76314 7.08676 6.75371 7.09146 6.749 7.10086C6.34384 7.5052 6.41922 7.90014 6.50402 8.16813C6.50873 8.18223 6.51344 8.19634 6.51815 8.21044C6.85265 9.01912 7.32377 9.78077 8.03988 10.6882L8.04459 10.6929C9.34489 12.2914 10.7159 13.5373 12.2282 14.4918C12.4213 14.614 12.6192 14.7127 12.8076 14.8068C12.9772 14.8914 13.1374 14.9713 13.274 15.056C13.2929 15.0654 13.3117 15.0795 13.3306 15.0889C13.4908 15.1688 13.6415 15.2064 13.797 15.2064C14.188 15.2064 14.433 14.9619 14.5131 14.882L15.4366 13.9604C15.5967 13.8006 15.8511 13.6078 16.148 13.6078C16.44 13.6078 16.6803 13.7912 16.8264 13.951C16.8311 13.9557 16.8311 13.9557 16.8358 13.9604L19.4317 16.551C19.9169 17.0306 19.4364 18.0226 19.4364 18.0226Z" stroke="black" stroke-width="2" stroke-linecap="round" stroke-linejoin="round"/>
</svg>
