<svg width="22" height="22" viewBox="0 0 22 22" fill="none" xmlns="http://www.w3.org/2000/svg">
<path id="play-01-icon" d="M14.5993 11.8093L14.0538 10.9713L14.0398 10.9803L14.0262 10.9899L14.5993 11.8093ZM14.5993 10.4332L14.0064 11.2384L14.051 11.2712L14.099 11.299L14.5993 10.4332ZM9.08393 6.37187L9.67687 5.56662L9.64865 5.54585L9.61905 5.52709L9.08393 6.37187ZM7.92766 6.97847L8.92765 6.97557L8.92763 6.96682L8.92745 6.95807L7.92766 6.97847ZM7.95078 14.9562L6.95079 14.9591L6.95087 14.9874L6.95255 15.0156L7.95078 14.9562ZM9.14945 15.621L9.63366 16.4959L9.67958 16.4705L9.72258 16.4405L9.14945 15.621ZM4.9999 2.3999H16.9999V0.399902H4.9999V2.3999ZM19.5999 4.9999V16.9999H21.5999V4.9999H19.5999ZM16.9999 19.5999H4.9999V21.5999H16.9999V19.5999ZM2.3999 16.9999V4.9999H0.399902V16.9999H2.3999ZM4.9999 19.5999C3.56396 19.5999 2.3999 18.4358 2.3999 16.9999H0.399902C0.399902 19.5404 2.45939 21.5999 4.9999 21.5999V19.5999ZM19.5999 16.9999C19.5999 18.4358 18.4358 19.5999 16.9999 19.5999V21.5999C19.5404 21.5999 21.5999 19.5404 21.5999 16.9999H19.5999ZM16.9999 2.3999C18.4358 2.3999 19.5999 3.56396 19.5999 4.9999H21.5999C21.5999 2.45939 19.5404 0.399902 16.9999 0.399902V2.3999ZM4.9999 0.399902C2.45939 0.399902 0.399902 2.45939 0.399902 4.9999H2.3999C2.3999 3.56396 3.56396 2.3999 4.9999 2.3999V0.399902ZM15.1449 12.6474C15.5793 12.3646 16.1284 11.8602 16.1274 11.1C16.1263 10.3173 15.5491 9.82704 15.0997 9.56734L14.099 11.299C14.2036 11.3595 14.2229 11.3909 14.2083 11.3723C14.1867 11.3448 14.1276 11.2501 14.1274 11.1027C14.1272 10.9591 14.1833 10.8745 14.192 10.8627C14.1963 10.8569 14.1655 10.8985 14.0538 10.9713L15.1449 12.6474ZM15.1923 9.62791L9.67687 5.56662L8.49098 7.17711L14.0064 11.2384L15.1923 9.62791ZM9.61905 5.52709C9.14844 5.22898 8.48756 5.05818 7.86255 5.35001C7.1823 5.66763 6.91466 6.35185 6.92786 6.99888L8.92745 6.95807C8.92625 6.89951 8.93844 6.91844 8.90768 6.97729C8.87303 7.04359 8.80534 7.11708 8.70869 7.1622C8.52273 7.24903 8.4477 7.1526 8.5488 7.21664L9.61905 5.52709ZM6.92766 6.98137L6.95079 14.9591L8.95078 14.9533L8.92765 6.97557L6.92766 6.98137ZM6.95255 15.0156C6.98436 15.5499 7.17011 16.2622 7.84054 16.6203C8.50063 16.9728 9.18788 16.7426 9.63366 16.4959L8.66523 14.746C8.56611 14.8009 8.52715 14.804 8.5428 14.8018C8.56646 14.7985 8.66412 14.7928 8.78273 14.8561C8.90301 14.9204 8.95507 15.0077 8.96769 15.0346C8.976 15.0523 8.95623 15.018 8.94901 14.8968L6.95255 15.0156ZM9.72258 16.4405L15.1725 12.6288L14.0262 10.9899L8.57631 14.8015L9.72258 16.4405Z" fill="black"/>
</svg>
