<svg width="20" height="14" viewBox="0 0 20 14" fill="none" xmlns="http://www.w3.org/2000/svg">
<path id="quote-icon" d="M17.8511 1C14.4669 1 11.7234 3.74345 11.7234 7.12766C11.7234 8.62688 12.5701 11.5034 14.0213 12.2876M7.12766 1C3.74345 1 1 3.74345 1 7.12766C1 8.62688 1.84672 11.5034 3.29787 12.2876M19 9.80851C19 11.5006 17.6283 12.8723 15.9362 12.8723C14.2441 12.8723 12.8723 11.5006 12.8723 9.80851C12.8723 8.1164 14.2441 6.74468 15.9362 6.74468C17.6283 6.74468 19 8.1164 19 9.80851ZM8.2766 9.80851C8.2766 11.5006 6.90487 12.8723 5.21277 12.8723C3.52066 12.8723 2.14894 11.5006 2.14894 9.80851C2.14894 8.1164 3.52066 6.74468 5.21277 6.74468C6.90487 6.74468 8.2766 8.1164 8.2766 9.80851Z" stroke="black" stroke-width="2" stroke-linecap="round" stroke-linejoin="round"/>
</svg>
