<svg width="22" height="22" viewBox="0 0 22 22" fill="none" xmlns="http://www.w3.org/2000/svg">
<path id="send-03-icon" d="M7.3999 10.8299H9.51594M3.7999 20.6C2.47442 20.6 1.3999 19.5255 1.3999 18.2V3.80002C1.3999 2.47454 2.47442 1.40002 3.7999 1.40002H18.1999C19.5254 1.40002 20.5999 2.47454 20.5999 3.80002V18.2C20.5999 19.5255 19.5254 20.6 18.1999 20.6H3.7999ZM7.3999 14.2416V7.25942C7.3999 6.47105 8.23117 5.9596 8.93489 6.31502L15.2188 9.48872C15.9605 9.86328 16.0008 10.9073 15.2902 11.3379L9.00629 15.1464C8.30119 15.5737 7.3999 15.0661 7.3999 14.2416Z" stroke="black" stroke-width="2" stroke-linecap="round"/>
</svg>
