<svg width="22" height="22" viewBox="0 0 22 22" fill="none" xmlns="http://www.w3.org/2000/svg">
<path id="server-01-icon" d="M15.8001 11H6.1999M15.8001 11C18.451 11 20.6001 8.85096 20.6001 6.19999C20.6001 3.54903 18.451 1.39999 15.8001 1.39999H6.1999C3.54888 1.39999 1.39982 3.54912 1.3999 6.20015C1.39999 8.85105 3.549 11 6.1999 11M15.8001 11C18.451 11 20.6001 13.149 20.6001 15.8C20.6001 18.451 18.451 20.6 15.8001 20.6H6.1999C3.549 20.6 1.39999 18.4511 1.3999 15.8001C1.39982 13.1491 3.54887 11 6.1999 11M16.3997 6.19999H10.3997M16.3997 15.8H10.3997M5.59975 15.8902V15.8M5.59975 6.19999V6.10976" stroke="black" stroke-width="2" stroke-linecap="round" stroke-linejoin="round"/>
</svg>
