<svg width="18" height="22" viewBox="0 0 18 22" fill="none" xmlns="http://www.w3.org/2000/svg">
<path id="shield-plus-icon" d="M1.80005 4.78763L1.35284 3.8932C1.01405 4.06259 0.800049 4.40885 0.800049 4.78763H1.80005ZM9.00005 20.3876L8.46608 21.2331C8.79226 21.4391 9.20784 21.4391 9.53402 21.2331L9.00005 20.3876ZM16.2001 4.78763H17.2001C17.2001 4.40885 16.986 4.06259 16.6473 3.8932L16.2001 4.78763ZM7.39008 1.99261L6.94287 1.09818L7.39008 1.99261ZM10.61 1.99261L11.0572 1.09818L11.0572 1.09818L10.61 1.99261ZM11.7001 10.8878C12.2523 10.8878 12.7001 10.4401 12.7001 9.88777C12.7001 9.33548 12.2523 8.88777 11.7001 8.88777V10.8878ZM6.30005 8.88777C5.74776 8.88777 5.30005 9.33548 5.30005 9.88777C5.30005 10.4401 5.74776 10.8878 6.30005 10.8878V8.88777ZM8.00005 12.5876C8.00005 13.1399 8.44777 13.5876 9.00005 13.5876C9.55233 13.5876 10 13.1399 10 12.5876H8.00005ZM10 7.18763C10 6.63534 9.55233 6.18763 9.00005 6.18763C8.44777 6.18763 8.00005 6.63534 8.00005 7.18763H10ZM6.94287 1.09818L1.35284 3.8932L2.24726 5.68205L7.83729 2.88704L6.94287 1.09818ZM0.800049 4.78763V12.8156H2.80005V4.78763H0.800049ZM0.800049 12.8156C0.800049 14.2951 1.66312 15.6972 2.94389 17.0148C4.24512 18.3535 6.12195 19.7527 8.46608 21.2331L9.53402 19.5421C7.24055 18.0937 5.51738 16.793 4.37801 15.6208C3.21818 14.4276 2.80005 13.5081 2.80005 12.8156H0.800049ZM9.53402 21.2331C11.839 19.7775 13.7279 18.5253 15.0344 17.2616C16.3682 15.9714 17.2001 14.5679 17.2001 12.8156H15.2001C15.2001 13.8353 14.7507 14.7535 13.6439 15.8241C12.5098 16.9211 10.7987 18.069 8.46608 19.5421L9.53402 21.2331ZM17.2001 12.8156C17.2001 12.8102 17.2001 12.8048 17.2001 12.7994C17.2001 12.7939 17.2001 12.7885 17.2001 12.783C17.2001 12.7776 17.2001 12.7721 17.2001 12.7666C17.2001 12.7612 17.2001 12.7557 17.2001 12.7502C17.2001 12.7447 17.2001 12.7392 17.2001 12.7337C17.2001 12.7282 17.2001 12.7227 17.2001 12.7172C17.2001 12.7116 17.2001 12.7061 17.2001 12.7006C17.2001 12.695 17.2001 12.6895 17.2001 12.6839C17.2001 12.6783 17.2001 12.6728 17.2001 12.6672C17.2001 12.6616 17.2001 12.656 17.2001 12.6504C17.2001 12.6448 17.2001 12.6392 17.2001 12.6336C17.2001 12.628 17.2001 12.6224 17.2001 12.6167C17.2001 12.6111 17.2001 12.6055 17.2001 12.5998C17.2001 12.5942 17.2001 12.5885 17.2001 12.5828C17.2001 12.5772 17.2001 12.5715 17.2001 12.5658C17.2001 12.5601 17.2001 12.5544 17.2001 12.5487C17.2001 12.543 17.2001 12.5373 17.2001 12.5316C17.2001 12.5259 17.2001 12.5201 17.2001 12.5144C17.2001 12.5087 17.2001 12.5029 17.2001 12.4972C17.2001 12.4914 17.2001 12.4856 17.2001 12.4799C17.2001 12.4741 17.2001 12.4683 17.2001 12.4625C17.2001 12.4568 17.2001 12.451 17.2001 12.4452C17.2001 12.4394 17.2001 12.4335 17.2001 12.4277C17.2001 12.4219 17.2001 12.4161 17.2001 12.4102C17.2001 12.4044 17.2001 12.3986 17.2001 12.3927C17.2001 12.3869 17.2001 12.381 17.2001 12.3751C17.2001 12.3693 17.2001 12.3634 17.2001 12.3575C17.2001 12.3516 17.2001 12.3457 17.2001 12.3398C17.2001 12.3339 17.2001 12.328 17.2001 12.3221C17.2001 12.3162 17.2001 12.3103 17.2001 12.3043C17.2001 12.2984 17.2001 12.2925 17.2001 12.2865C17.2001 12.2806 17.2001 12.2746 17.2001 12.2687C17.2001 12.2627 17.2001 12.2567 17.2001 12.2508C17.2001 12.2448 17.2001 12.2388 17.2001 12.2328C17.2001 12.2268 17.2001 12.2208 17.2001 12.2148C17.2001 12.2088 17.2001 12.2028 17.2001 12.1968C17.2001 12.1907 17.2001 12.1847 17.2001 12.1787C17.2001 12.1726 17.2001 12.1666 17.2001 12.1605C17.2001 12.1545 17.2001 12.1484 17.2001 12.1424C17.2001 12.1363 17.2001 12.1302 17.2001 12.1241C17.2001 12.1181 17.2001 12.112 17.2001 12.1059C17.2001 12.0998 17.2001 12.0937 17.2001 12.0876C17.2001 12.0815 17.2001 12.0754 17.2001 12.0692C17.2001 12.0631 17.2001 12.057 17.2001 12.0508C17.2001 12.0447 17.2001 12.0386 17.2001 12.0324C17.2001 12.0263 17.2001 12.0201 17.2001 12.0139C17.2001 12.0078 17.2001 12.0016 17.2001 11.9954C17.2001 11.9893 17.2001 11.9831 17.2001 11.9769C17.2001 11.9707 17.2001 11.9645 17.2001 11.9583C17.2001 11.9521 17.2001 11.9459 17.2001 11.9397C17.2001 11.9334 17.2001 11.9272 17.2001 11.921C17.2001 11.9148 17.2001 11.9085 17.2001 11.9023C17.2001 11.896 17.2001 11.8898 17.2001 11.8835C17.2001 11.8773 17.2001 11.871 17.2001 11.8647C17.2001 11.8585 17.2001 11.8522 17.2001 11.8459C17.2001 11.8396 17.2001 11.8333 17.2001 11.827C17.2001 11.8208 17.2001 11.8144 17.2001 11.8081C17.2001 11.8018 17.2001 11.7955 17.2001 11.7892C17.2001 11.7829 17.2001 11.7766 17.2001 11.7702C17.2001 11.7639 17.2001 11.7576 17.2001 11.7512C17.2001 11.7449 17.2001 11.7385 17.2001 11.7322C17.2001 11.7258 17.2001 11.7194 17.2001 11.7131C17.2001 11.7067 17.2001 11.7003 17.2001 11.694C17.2001 11.6876 17.2001 11.6812 17.2001 11.6748C17.2001 11.6684 17.2001 11.662 17.2001 11.6556C17.2001 11.6492 17.2001 11.6428 17.2001 11.6364C17.2001 11.63 17.2001 11.6236 17.2001 11.6171C17.2001 11.6107 17.2001 11.6043 17.2001 11.5978C17.2001 11.5914 17.2001 11.585 17.2001 11.5785C17.2001 11.5721 17.2001 11.5656 17.2001 11.5592C17.2001 11.5527 17.2001 11.5462 17.2001 11.5398C17.2001 11.5333 17.2001 11.5268 17.2001 11.5203C17.2001 11.5139 17.2001 11.5074 17.2001 11.5009C17.2001 11.4944 17.2001 11.4879 17.2001 11.4814C17.2001 11.4749 17.2001 11.4684 17.2001 11.4619C17.2001 11.4554 17.2001 11.4489 17.2001 11.4423C17.2001 11.4358 17.2001 11.4293 17.2001 11.4228C17.2001 11.4162 17.2001 11.4097 17.2001 11.4032C17.2001 11.3966 17.2001 11.3901 17.2001 11.3835C17.2001 11.377 17.2001 11.3704 17.2001 11.3638C17.2001 11.3573 17.2001 11.3507 17.2001 11.3441C17.2001 11.3376 17.2001 11.331 17.2001 11.3244C17.2001 11.3178 17.2001 11.3113 17.2001 11.3047C17.2001 11.2981 17.2001 11.2915 17.2001 11.2849C17.2001 11.2783 17.2001 11.2717 17.2001 11.2651C17.2001 11.2585 17.2001 11.2518 17.2001 11.2452C17.2001 11.2386 17.2001 11.232 17.2001 11.2254C17.2001 11.2187 17.2001 11.2121 17.2001 11.2055C17.2001 11.1988 17.2001 11.1922 17.2001 11.1856C17.2001 11.1789 17.2001 11.1723 17.2001 11.1656C17.2001 11.159 17.2001 11.1523 17.2001 11.1456C17.2001 11.139 17.2001 11.1323 17.2001 11.1256C17.2001 11.119 17.2001 11.1123 17.2001 11.1056C17.2001 11.0989 17.2001 11.0923 17.2001 11.0856C17.2001 11.0789 17.2001 11.0722 17.2001 11.0655C17.2001 11.0588 17.2001 11.0521 17.2001 11.0454C17.2001 11.0387 17.2001 11.032 17.2001 11.0253C17.2001 11.0186 17.2001 11.0119 17.2001 11.0052C17.2001 10.9984 17.2001 10.9917 17.2001 10.985C17.2001 10.9783 17.2001 10.9715 17.2001 10.9648C17.2001 10.9581 17.2001 10.9513 17.2001 10.9446C17.2001 10.9379 17.2001 10.9311 17.2001 10.9244C17.2001 10.9176 17.2001 10.9109 17.2001 10.9041C17.2001 10.8974 17.2001 10.8906 17.2001 10.8838C17.2001 10.8771 17.2001 10.8703 17.2001 10.8635C17.2001 10.8568 17.2001 10.85 17.2001 10.8432C17.2001 10.8365 17.2001 10.8297 17.2001 10.8229C17.2001 10.8161 17.2001 10.8093 17.2001 10.8025C17.2001 10.7958 17.2001 10.789 17.2001 10.7822C17.2001 10.7754 17.2001 10.7686 17.2001 10.7618C17.2001 10.755 17.2001 10.7482 17.2001 10.7414C17.2001 10.7346 17.2001 10.7277 17.2001 10.7209C17.2001 10.7141 17.2001 10.7073 17.2001 10.7005C17.2001 10.6937 17.2001 10.6868 17.2001 10.68C17.2001 10.6732 17.2001 10.6664 17.2001 10.6595C17.2001 10.6527 17.2001 10.6459 17.2001 10.639C17.2001 10.6322 17.2001 10.6254 17.2001 10.6185C17.2001 10.6117 17.2001 10.6048 17.2001 10.598C17.2001 10.5911 17.2001 10.5843 17.2001 10.5774C17.2001 10.5706 17.2001 10.5637 17.2001 10.5569C17.2001 10.55 17.2001 10.5431 17.2001 10.5363C17.2001 10.5294 17.2001 10.5226 17.2001 10.5157C17.2001 10.5088 17.2001 10.5019 17.2001 10.4951C17.2001 10.4882 17.2001 10.4813 17.2001 10.4745C17.2001 10.4676 17.2001 10.4607 17.2001 10.4538C17.2001 10.4469 17.2001 10.44 17.2001 10.4332C17.2001 10.4263 17.2001 10.4194 17.2001 10.4125C17.2001 10.4056 17.2001 10.3987 17.2001 10.3918C17.2001 10.3849 17.2001 10.378 17.2001 10.3711C17.2001 10.3642 17.2001 10.3573 17.2001 10.3504C17.2001 10.3435 17.2001 10.3366 17.2001 10.3297C17.2001 10.3228 17.2001 10.3159 17.2001 10.309C17.2001 10.3021 17.2001 10.2952 17.2001 10.2882C17.2001 10.2813 17.2001 10.2744 17.2001 10.2675C17.2001 10.2606 17.2001 10.2537 17.2001 10.2467C17.2001 10.2398 17.2001 10.2329 17.2001 10.226C17.2001 10.219 17.2001 10.2121 17.2001 10.2052C17.2001 10.1983 17.2001 10.1913 17.2001 10.1844C17.2001 10.1775 17.2001 10.1705 17.2001 10.1636C17.2001 10.1567 17.2001 10.1497 17.2001 10.1428C17.2001 10.1359 17.2001 10.1289 17.2001 10.122C17.2001 10.115 17.2001 10.1081 17.2001 10.1012C17.2001 10.0942 17.2001 10.0873 17.2001 10.0803C17.2001 10.0734 17.2001 10.0664 17.2001 10.0595C17.2001 10.0525 17.2001 10.0456 17.2001 10.0386C17.2001 10.0317 17.2001 10.0247 17.2001 10.0178C17.2001 10.0108 17.2001 10.0039 17.2001 9.99693C17.2001 9.98997 17.2001 9.98302 17.2001 9.97606C17.2001 9.96911 17.2001 9.96215 17.2001 9.95519C17.2001 9.94823 17.2001 9.94128 17.2001 9.93432C17.2001 9.92736 17.2001 9.9204 17.2001 9.91344C17.2001 9.90648 17.2001 9.89951 17.2001 9.89255C17.2001 9.88559 17.2001 9.87863 17.2001 9.87166C17.2001 9.8647 17.2001 9.85773 17.2001 9.85077C17.2001 9.8438 17.2001 9.83684 17.2001 9.82987C17.2001 9.82291 17.2001 9.81594 17.2001 9.80897C17.2001 9.80201 17.2001 9.79504 17.2001 9.78807C17.2001 9.7811 17.2001 9.77413 17.2001 9.76717C17.2001 9.7602 17.2001 9.75323 17.2001 9.74626C17.2001 9.73929 17.2001 9.73232 17.2001 9.72535C17.2001 9.71838 17.2001 9.71141 17.2001 9.70444C17.2001 9.69747 17.2001 9.6905 17.2001 9.68353C17.2001 9.67656 17.2001 9.66958 17.2001 9.66261C17.2001 9.65564 17.2001 9.64867 17.2001 9.6417C17.2001 9.63473 17.2001 9.62776 17.2001 9.62079C17.2001 9.61382 17.2001 9.60685 17.2001 9.59987C17.2001 9.5929 17.2001 9.58593 17.2001 9.57896C17.2001 9.57199 17.2001 9.56502 17.2001 9.55805C17.2001 9.55108 17.2001 9.54411 17.2001 9.53714C17.2001 9.53017 17.2001 9.5232 17.2001 9.51623C17.2001 9.50926 17.2001 9.50229 17.2001 9.49533C17.2001 9.48836 17.2001 9.48139 17.2001 9.47442C17.2001 9.46745 17.2001 9.46049 17.2001 9.45352C17.2001 9.44655 17.2001 9.43959 17.2001 9.43262C17.2001 9.42566 17.2001 9.41869 17.2001 9.41173C17.2001 9.40476 17.2001 9.3978 17.2001 9.39083C17.2001 9.38387 17.2001 9.37691 17.2001 9.36995C17.2001 9.36298 17.2001 9.35602 17.2001 9.34906C17.2001 9.3421 17.2001 9.33514 17.2001 9.32818C17.2001 9.32123 17.2001 9.31427 17.2001 9.30731C17.2001 9.30035 17.2001 9.2934 17.2001 9.28644C17.2001 9.27949 17.2001 9.27253 17.2001 9.26558C17.2001 9.25863 17.2001 9.25168 17.2001 9.24473C17.2001 9.23777 17.2001 9.23082 17.2001 9.22388C17.2001 9.21693 17.2001 9.20998 17.2001 9.20303C17.2001 9.19609 17.2001 9.18914 17.2001 9.1822C17.2001 9.17525 17.2001 9.16831 17.2001 9.16137C17.2001 9.15443 17.2001 9.14749 17.2001 9.14055C17.2001 9.13361 17.2001 9.12667 17.2001 9.11974C17.2001 9.1128 17.2001 9.10587 17.2001 9.09893C17.2001 9.092 17.2001 9.08507 17.2001 9.07814C17.2001 9.07121 17.2001 9.06428 17.2001 9.05735C17.2001 9.05043 17.2001 9.0435 17.2001 9.03658C17.2001 9.02965 17.2001 9.02273 17.2001 9.01581C17.2001 9.00889 17.2001 9.00197 17.2001 8.99506C17.2001 8.98814 17.2001 8.98122 17.2001 8.97431C17.2001 8.9674 17.2001 8.96049 17.2001 8.95358C17.2001 8.94667 17.2001 8.93976 17.2001 8.93285C17.2001 8.92595 17.2001 8.91905 17.2001 8.91214C17.2001 8.90524 17.2001 8.89834 17.2001 8.89144C17.2001 8.88455 17.2001 8.87765 17.2001 8.87076C17.2001 8.86386 17.2001 8.85697 17.2001 8.85008C17.2001 8.84319 17.2001 8.83631 17.2001 8.82942C17.2001 8.82254 17.2001 8.81566 17.2001 8.80878C17.2001 8.8019 17.2001 8.79502 17.2001 8.78814C17.2001 8.78127 17.2001 8.77439 17.2001 8.76752C17.2001 8.76065 17.2001 8.75378 17.2001 8.74692C17.2001 8.74005 17.2001 8.73319 17.2001 8.72633C17.2001 8.71946 17.2001 8.71261 17.2001 8.70575C17.2001 8.69889 17.2001 8.69204 17.2001 8.68519C17.2001 8.67834 17.2001 8.67149 17.2001 8.66465C17.2001 8.6578 17.2001 8.65096 17.2001 8.64412C17.2001 8.63728 17.2001 8.63044 17.2001 8.62361C17.2001 8.61677 17.2001 8.60994 17.2001 8.60311C17.2001 8.59628 17.2001 8.58946 17.2001 8.58263C17.2001 8.57581 17.2001 8.56899 17.2001 8.56217C17.2001 8.55536 17.2001 8.54854 17.2001 8.54173C17.2001 8.53492 17.2001 8.52811 17.2001 8.52131C17.2001 8.5145 17.2001 8.5077 17.2001 8.5009C17.2001 8.4941 17.2001 8.48731 17.2001 8.48052C17.2001 8.47372 17.2001 8.46694 17.2001 8.46015C17.2001 8.45336 17.2001 8.44658 17.2001 8.4398C17.2001 8.43302 17.2001 8.42625 17.2001 8.41947C17.2001 8.4127 17.2001 8.40593 17.2001 8.39917C17.2001 8.3924 17.2001 8.38564 17.2001 8.37888C17.2001 8.37212 17.2001 8.36537 17.2001 8.35862C17.2001 8.35186 17.2001 8.34512 17.2001 8.33837C17.2001 8.33163 17.2001 8.32489 17.2001 8.31815C17.2001 8.31141 17.2001 8.30468 17.2001 8.29795C17.2001 8.29122 17.2001 8.28449 17.2001 8.27777C17.2001 8.27105 17.2001 8.26433 17.2001 8.25761C17.2001 8.2509 17.2001 8.24419 17.2001 8.23748C17.2001 8.23078 17.2001 8.22407 17.2001 8.21737C17.2001 8.21067 17.2001 8.20398 17.2001 8.19729C17.2001 8.1906 17.2001 8.18391 17.2001 8.17723C17.2001 8.17054 17.2001 8.16386 17.2001 8.15719C17.2001 8.15052 17.2001 8.14384 17.2001 8.13718C17.2001 8.13051 17.2001 8.12385 17.2001 8.11719C17.2001 8.11053 17.2001 8.10388 17.2001 8.09723C17.2001 8.09058 17.2001 8.08394 17.2001 8.0773C17.2001 8.07065 17.2001 8.06402 17.2001 8.05739C17.2001 8.05075 17.2001 8.04413 17.2001 8.0375C17.2001 8.03088 17.2001 8.02426 17.2001 8.01765C17.2001 8.01103 17.2001 8.00442 17.2001 7.99782C17.2001 7.99121 17.2001 7.98461 17.2001 7.97802C17.2001 7.97142 17.2001 7.96483 17.2001 7.95825C17.2001 7.95166 17.2001 7.94508 17.2001 7.9385C17.2001 7.93192 17.2001 7.92535 17.2001 7.91878C17.2001 7.91222 17.2001 7.90566 17.2001 7.8991C17.2001 7.89254 17.2001 7.88599 17.2001 7.87944C17.2001 7.87289 17.2001 7.86635 17.2001 7.85981C17.2001 7.85327 17.2001 7.84674 17.2001 7.84021C17.2001 7.83369 17.2001 7.82716 17.2001 7.82065C17.2001 7.81413 17.2001 7.80762 17.2001 7.80111C17.2001 7.7946 17.2001 7.7881 17.2001 7.7816C17.2001 7.77511 17.2001 7.76861 17.2001 7.76213C17.2001 7.75564 17.2001 7.74916 17.2001 7.74268C17.2001 7.73621 17.2001 7.72974 17.2001 7.72327C17.2001 7.71681 17.2001 7.71035 17.2001 7.70389C17.2001 7.69744 17.2001 7.69099 17.2001 7.68455C17.2001 7.67811 17.2001 7.67167 17.2001 7.66524C17.2001 7.6588 17.2001 7.65238 17.2001 7.64596C17.2001 7.63954 17.2001 7.63312 17.2001 7.62671C17.2001 7.6203 17.2001 7.6139 17.2001 7.6075C17.2001 7.6011 17.2001 7.59471 17.2001 7.58832C17.2001 7.58194 17.2001 7.57556 17.2001 7.56918C17.2001 7.56281 17.2001 7.55644 17.2001 7.55007C17.2001 7.54371 17.2001 7.53735 17.2001 7.531C17.2001 7.52465 17.2001 7.51831 17.2001 7.51197C17.2001 7.50563 17.2001 7.4993 17.2001 7.49297C17.2001 7.48664 17.2001 7.48032 17.2001 7.47401C17.2001 7.46769 17.2001 7.46138 17.2001 7.45508C17.2001 7.44878 17.2001 7.44248 17.2001 7.43619C17.2001 7.4299 17.2001 7.42362 17.2001 7.41734C17.2001 7.41106 17.2001 7.40479 17.2001 7.39853C17.2001 7.39226 17.2001 7.38601 17.2001 7.37975C17.2001 7.3735 17.2001 7.36726 17.2001 7.36102C17.2001 7.35478 17.2001 7.34855 17.2001 7.34232C17.2001 7.33609 17.2001 7.32988 17.2001 7.32366C17.2001 7.31745 17.2001 7.31124 17.2001 7.30504C17.2001 7.29885 17.2001 7.29265 17.2001 7.28647C17.2001 7.28028 17.2001 7.2741 17.2001 7.26793C17.2001 7.26176 17.2001 7.25559 17.2001 7.24943C17.2001 7.24327 17.2001 7.23712 17.2001 7.23098C17.2001 7.22483 17.2001 7.21869 17.2001 7.21256C17.2001 7.20643 17.2001 7.20031 17.2001 7.19419C17.2001 7.18807 17.2001 7.18196 17.2001 7.17586C17.2001 7.16976 17.2001 7.16366 17.2001 7.15757C17.2001 7.15148 17.2001 7.1454 17.2001 7.13933C17.2001 7.13325 17.2001 7.12718 17.2001 7.12112C17.2001 7.11506 17.2001 7.10901 17.2001 7.10297C17.2001 7.09692 17.2001 7.09088 17.2001 7.08485C17.2001 7.07882 17.2001 7.0728 17.2001 7.06678C17.2001 7.06076 17.2001 7.05476 17.2001 7.04875C17.2001 7.04275 17.2001 7.03676 17.2001 7.03077C17.2001 7.02479 17.2001 7.01881 17.2001 7.01284C17.2001 7.00687 17.2001 7.0009 17.2001 6.99495C17.2001 6.98899 17.2001 6.98304 17.2001 6.9771C17.2001 6.97116 17.2001 6.96523 17.2001 6.9593C17.2001 6.95338 17.2001 6.94746 17.2001 6.94155C17.2001 6.93564 17.2001 6.92974 17.2001 6.92385C17.2001 6.91795 17.2001 6.91207 17.2001 6.90619C17.2001 6.90031 17.2001 6.89444 17.2001 6.88858C17.2001 6.88272 17.2001 6.87686 17.2001 6.87102C17.2001 6.86517 17.2001 6.85933 17.2001 6.8535C17.2001 6.84768 17.2001 6.84185 17.2001 6.83604C17.2001 6.83023 17.2001 6.82442 17.2001 6.81862C17.2001 6.81283 17.2001 6.80704 17.2001 6.80126C17.2001 6.79548 17.2001 6.78971 17.2001 6.78394C17.2001 6.77818 17.2001 6.77242 17.2001 6.76667C17.2001 6.76093 17.2001 6.75519 17.2001 6.74946C17.2001 6.74373 17.2001 6.73801 17.2001 6.73229C17.2001 6.72658 17.2001 6.72087 17.2001 6.71518C17.2001 6.70948 17.2001 6.70379 17.2001 6.69812C17.2001 6.69244 17.2001 6.68677 17.2001 6.6811C17.2001 6.67544 17.2001 6.66979 17.2001 6.66415C17.2001 6.6585 17.2001 6.65287 17.2001 6.64724C17.2001 6.64161 17.2001 6.63599 17.2001 6.63039C17.2001 6.62478 17.2001 6.61918 17.2001 6.61358C17.2001 6.60799 17.2001 6.60241 17.2001 6.59684C17.2001 6.59126 17.2001 6.5857 17.2001 6.58014C17.2001 6.57459 17.2001 6.56904 17.2001 6.56351C17.2001 6.55797 17.2001 6.55244 17.2001 6.54692C17.2001 6.5414 17.2001 6.53589 17.2001 6.53039C17.2001 6.52489 17.2001 6.5194 17.2001 6.51392C17.2001 6.50844 17.2001 6.50296 17.2001 6.4975C17.2001 6.49204 17.2001 6.48658 17.2001 6.48114C17.2001 6.47569 17.2001 6.47026 17.2001 6.46483C17.2001 6.4594 17.2001 6.45399 17.2001 6.44858C17.2001 6.44317 17.2001 6.43778 17.2001 6.43239C17.2001 6.427 17.2001 6.42162 17.2001 6.41625C17.2001 6.41088 17.2001 6.40552 17.2001 6.40017C17.2001 6.39483 17.2001 6.38949 17.2001 6.38416C17.2001 6.37883 17.2001 6.3735 17.2001 6.36819C17.2001 6.36288 17.2001 6.35758 17.2001 6.35229C17.2001 6.347 17.2001 6.34172 17.2001 6.33645C17.2001 6.33118 17.2001 6.32591 17.2001 6.32066C17.2001 6.31541 17.2001 6.31017 17.2001 6.30494C17.2001 6.29971 17.2001 6.29449 17.2001 6.28927C17.2001 6.28406 17.2001 6.27886 17.2001 6.27367C17.2001 6.26848 17.2001 6.2633 17.2001 6.25813C17.2001 6.25296 17.2001 6.2478 17.2001 6.24265C17.2001 6.2375 17.2001 6.23236 17.2001 6.22723C17.2001 6.2221 17.2001 6.21698 17.2001 6.21187C17.2001 6.20676 17.2001 6.20166 17.2001 6.19657C17.2001 6.19148 17.2001 6.1864 17.2001 6.18134C17.2001 6.17627 17.2001 6.17121 17.2001 6.16617C17.2001 6.16112 17.2001 6.15608 17.2001 6.15106C17.2001 6.14603 17.2001 6.14102 17.2001 6.13601C17.2001 6.13101 17.2001 6.12602 17.2001 6.12103C17.2001 6.11605 17.2001 6.11108 17.2001 6.10612C17.2001 6.10115 17.2001 6.0962 17.2001 6.09126C17.2001 6.08632 17.2001 6.0814 17.2001 6.07648C17.2001 6.07156 17.2001 6.06665 17.2001 6.06176C17.2001 6.05686 17.2001 6.05198 17.2001 6.0471C17.2001 6.04223 17.2001 6.03736 17.2001 6.03251C17.2001 6.02766 17.2001 6.02282 17.2001 6.01799C17.2001 6.01316 17.2001 6.00834 17.2001 6.00353C17.2001 5.99872 17.2001 5.99393 17.2001 5.98914C17.2001 5.98436 17.2001 5.97958 17.2001 5.97482C17.2001 5.97006 17.2001 5.9653 17.2001 5.96056C17.2001 5.95582 17.2001 5.95109 17.2001 5.94638C17.2001 5.94166 17.2001 5.93695 17.2001 5.93226C17.2001 5.92756 17.2001 5.92288 17.2001 5.91821C17.2001 5.91354 17.2001 5.90888 17.2001 5.90423C17.2001 5.89958 17.2001 5.89494 17.2001 5.89032C17.2001 5.88569 17.2001 5.88108 17.2001 5.87648C17.2001 5.87188 17.2001 5.86728 17.2001 5.86271C17.2001 5.85813 17.2001 5.85356 17.2001 5.84901C17.2001 5.84445 17.2001 5.83991 17.2001 5.83538C17.2001 5.83084 17.2001 5.82632 17.2001 5.82182C17.2001 5.81731 17.2001 5.81281 17.2001 5.80833C17.2001 5.80385 17.2001 5.79937 17.2001 5.79491C17.2001 5.79046 17.2001 5.78601 17.2001 5.78157C17.2001 5.77714 17.2001 5.77271 17.2001 5.7683C17.2001 5.76389 17.2001 5.75949 17.2001 5.7551C17.2001 5.75072 17.2001 5.74634 17.2001 5.74198C17.2001 5.73762 17.2001 5.73327 17.2001 5.72893C17.2001 5.72459 17.2001 5.72027 17.2001 5.71595C17.2001 5.71164 17.2001 5.70734 17.2001 5.70305C17.2001 5.69876 17.2001 5.69449 17.2001 5.69022C17.2001 5.68596 17.2001 5.68171 17.2001 5.67747C17.2001 5.67323 17.2001 5.669 17.2001 5.66479C17.2001 5.66058 17.2001 5.65638 17.2001 5.65219C17.2001 5.648 17.2001 5.64383 17.2001 5.63966C17.2001 5.6355 17.2001 5.63135 17.2001 5.62721C17.2001 5.62308 17.2001 5.61895 17.2001 5.61484C17.2001 5.61073 17.2001 5.60663 17.2001 5.60255C17.2001 5.59846 17.2001 5.59439 17.2001 5.59033C17.2001 5.58627 17.2001 5.58222 17.2001 5.57819C17.2001 5.57415 17.2001 5.57013 17.2001 5.56612C17.2001 5.56212 17.2001 5.55812 17.2001 5.55414C17.2001 5.55016 17.2001 5.54619 17.2001 5.54223C17.2001 5.53828 17.2001 5.53434 17.2001 5.53041C17.2001 5.52648 17.2001 5.52256 17.2001 5.51866C17.2001 5.51476 17.2001 5.51087 17.2001 5.50699C17.2001 5.50312 17.2001 5.49926 17.2001 5.49541C17.2001 5.49156 17.2001 5.48772 17.2001 5.4839C17.2001 5.48008 17.2001 5.47627 17.2001 5.47248C17.2001 5.46868 17.2001 5.4649 17.2001 5.46113C17.2001 5.45736 17.2001 5.45361 17.2001 5.44987C17.2001 5.44613 17.2001 5.4424 17.2001 5.43869C17.2001 5.43497 17.2001 5.43128 17.2001 5.42759C17.2001 5.4239 17.2001 5.42023 17.2001 5.41657C17.2001 5.41292 17.2001 5.40927 17.2001 5.40564C17.2001 5.40201 17.2001 5.39839 17.2001 5.39479C17.2001 5.39119 17.2001 5.3876 17.2001 5.38402C17.2001 5.38045 17.2001 5.37689 17.2001 5.37334C17.2001 5.3698 17.2001 5.36626 17.2001 5.36274C17.2001 5.35923 17.2001 5.35572 17.2001 5.35223C17.2001 5.34874 17.2001 5.34527 17.2001 5.3418C17.2001 5.33834 17.2001 5.33489 17.2001 5.33146C17.2001 5.32803 17.2001 5.32461 17.2001 5.3212C17.2001 5.3178 17.2001 5.31441 17.2001 5.31103C17.2001 5.30766 17.2001 5.3043 17.2001 5.30095C17.2001 5.2976 17.2001 5.29427 17.2001 5.29095C17.2001 5.28763 17.2001 5.28433 17.2001 5.28104C17.2001 5.27775 17.2001 5.27448 17.2001 5.27122C17.2001 5.26796 17.2001 5.26471 17.2001 5.26148C17.2001 5.25825 17.2001 5.25503 17.2001 5.25183C17.2001 5.24863 17.2001 5.24545 17.2001 5.24227C17.2001 5.2391 17.2001 5.23595 17.2001 5.2328C17.2001 5.22966 17.2001 5.22653 17.2001 5.22342C17.2001 5.22031 17.2001 5.21721 17.2001 5.21413C17.2001 5.21105 17.2001 5.20798 17.2001 5.20493C17.2001 5.20188 17.2001 5.19884 17.2001 5.19582C17.2001 5.1928 17.2001 5.18979 17.2001 5.1868C17.2001 5.1838 17.2001 5.18083 17.2001 5.17787C17.2001 5.1749 17.2001 5.17196 17.2001 5.16903C17.2001 5.1661 17.2001 5.16318 17.2001 5.16028C17.2001 5.15738 17.2001 5.15449 17.2001 5.15162C17.2001 5.14876 17.2001 5.1459 17.2001 5.14306C17.2001 5.14022 17.2001 5.1374 17.2001 5.13459C17.2001 5.13178 17.2001 5.12899 17.2001 5.12621C17.2001 5.12344 17.2001 5.12068 17.2001 5.11793C17.2001 5.11518 17.2001 5.11245 17.2001 5.10974C17.2001 5.10702 17.2001 5.10433 17.2001 5.10164C17.2001 5.09896 17.2001 5.09629 17.2001 5.09364C17.2001 5.09099 17.2001 5.08835 17.2001 5.08573C17.2001 5.08311 17.2001 5.08051 17.2001 5.07792C17.2001 5.07533 17.2001 5.07276 17.2001 5.0702C17.2001 5.06765 17.2001 5.06511 17.2001 5.06258C17.2001 5.06006 17.2001 5.05755 17.2001 5.05506C17.2001 5.05256 17.2001 5.05009 17.2001 5.04763C17.2001 5.04517 17.2001 5.04272 17.2001 5.0403C17.2001 5.03787 17.2001 5.03546 17.2001 5.03306C17.2001 5.03067 17.2001 5.02829 17.2001 5.02592C17.2001 5.02356 17.2001 5.02121 17.2001 5.01888C17.2001 5.01655 17.2001 5.01424 17.2001 5.01194C17.2001 5.00965 17.2001 5.00736 17.2001 5.0051C17.2001 5.00284 17.2001 5.00059 17.2001 4.99836C17.2001 4.99612 17.2001 4.99391 17.2001 4.99171C17.2001 4.98951 17.2001 4.98733 17.2001 4.98517C17.2001 4.983 17.2001 4.98085 17.2001 4.97872C17.2001 4.97659 17.2001 4.97447 17.2001 4.97237C17.2001 4.97028 17.2001 4.9682 17.2001 4.96613C17.2001 4.96407 17.2001 4.96202 17.2001 4.95999C17.2001 4.95796 17.2001 4.95594 17.2001 4.95394C17.2001 4.95195 17.2001 4.94997 17.2001 4.948C17.2001 4.94604 17.2001 4.94409 17.2001 4.94216C17.2001 4.94023 17.2001 4.93832 17.2001 4.93643C17.2001 4.93453 17.2001 4.93265 17.2001 4.93079C17.2001 4.92893 17.2001 4.92709 17.2001 4.92526C17.2001 4.92344 17.2001 4.92163 17.2001 4.91984C17.2001 4.91804 17.2001 4.91627 17.2001 4.91451C17.2001 4.91275 17.2001 4.91101 17.2001 4.90929C17.2001 4.90757 17.2001 4.90586 17.2001 4.90418C17.2001 4.90249 17.2001 4.90082 17.2001 4.89917C17.2001 4.89751 17.2001 4.89588 17.2001 4.89426C17.2001 4.89264 17.2001 4.89104 17.2001 4.88946C17.2001 4.88788 17.2001 4.88631 17.2001 4.88476C17.2001 4.88322 17.2001 4.88169 17.2001 4.88018C17.2001 4.87866 17.2001 4.87717 17.2001 4.87569C17.2001 4.87422 17.2001 4.87276 17.2001 4.87132C17.2001 4.86988 17.2001 4.86846 17.2001 4.86705C17.2001 4.86565 17.2001 4.86426 17.2001 4.86289C17.2001 4.86152 17.2001 4.86017 17.2001 4.85884C17.2001 4.85751 17.2001 4.85619 17.2001 4.85489C17.2001 4.8536 17.2001 4.85232 17.2001 4.85106C17.2001 4.8498 17.2001 4.84855 17.2001 4.84733C17.2001 4.84611 17.2001 4.8449 17.2001 4.84371C17.2001 4.84253 17.2001 4.84136 17.2001 4.8402C17.2001 4.83905 17.2001 4.83792 17.2001 4.83681C17.2001 4.83569 17.2001 4.8346 17.2001 4.83352C17.2001 4.83244 17.2001 4.83138 17.2001 4.83034C17.2001 4.8293 17.2001 4.82828 17.2001 4.82727C17.2001 4.82627 17.2001 4.82529 17.2001 4.82432C17.2001 4.82335 17.2001 4.82241 17.2001 4.82148C17.2001 4.82055 17.2001 4.81964 17.2001 4.81874C17.2001 4.81785 17.2001 4.81698 17.2001 4.81613C17.2001 4.81527 17.2001 4.81444 17.2001 4.81362C17.2001 4.8128 17.2001 4.812 17.2001 4.81123C17.2001 4.81045 17.2001 4.80969 17.2001 4.80895C17.2001 4.8082 17.2001 4.80748 17.2001 4.80678C17.2001 4.80608 17.2001 4.80539 17.2001 4.80473C17.2001 4.80406 17.2001 4.80342 17.2001 4.80279C17.2001 4.80216 17.2001 4.80155 17.2001 4.80097C17.2001 4.80038 17.2001 4.79981 17.2001 4.79926C17.2001 4.79871 17.2001 4.79818 17.2001 4.79767C17.2001 4.79715 17.2001 4.79666 17.2001 4.79619C17.2001 4.79572 17.2001 4.79526 17.2001 4.79483C17.2001 4.79439 17.2001 4.79398 17.2001 4.79358C17.2001 4.79319 17.2001 4.79281 17.2001 4.79246C17.2001 4.7921 17.2001 4.79176 17.2001 4.79145C17.2001 4.79113 17.2001 4.79083 17.2001 4.79055C17.2001 4.79028 17.2001 4.79002 17.2001 4.78978C17.2001 4.78954 17.2001 4.78932 17.2001 4.78912C17.2001 4.78892 17.2001 4.78874 17.2001 4.78859C17.2001 4.78843 17.2001 4.78829 17.2001 4.78817C17.2001 4.78805 17.2001 4.78795 17.2001 4.78787C17.2001 4.78779 17.2001 4.78773 17.2001 4.78769C17.2001 4.78765 17.2001 4.78763 16.2001 4.78763C15.2001 4.78763 15.2001 4.78765 15.2001 4.78769C15.2001 4.78773 15.2001 4.78779 15.2001 4.78787C15.2001 4.78795 15.2001 4.78805 15.2001 4.78817C15.2001 4.78829 15.2001 4.78843 15.2001 4.78859C15.2001 4.78874 15.2001 4.78892 15.2001 4.78912C15.2001 4.78932 15.2001 4.78954 15.2001 4.78978C15.2001 4.79002 15.2001 4.79028 15.2001 4.79055C15.2001 4.79083 15.2001 4.79113 15.2001 4.79145C15.2001 4.79176 15.2001 4.7921 15.2001 4.79246C15.2001 4.79281 15.2001 4.79319 15.2001 4.79358C15.2001 4.79398 15.2001 4.79439 15.2001 4.79483C15.2001 4.79526 15.2001 4.79572 15.2001 4.79619C15.2001 4.79666 15.2001 4.79715 15.2001 4.79767C15.2001 4.79818 15.2001 4.79871 15.2001 4.79926C15.2001 4.79981 15.2001 4.80038 15.2001 4.80097C15.2001 4.80155 15.2001 4.80216 15.2001 4.80279C15.2001 4.80342 15.2001 4.80406 15.2001 4.80473C15.2001 4.80539 15.2001 4.80608 15.2001 4.80678C15.2001 4.80748 15.2001 4.8082 15.2001 4.80895C15.2001 4.80969 15.2001 4.81045 15.2001 4.81123C15.2001 4.812 15.2001 4.8128 15.2001 4.81362C15.2001 4.81444 15.2001 4.81527 15.2001 4.81613C15.2001 4.81698 15.2001 4.81785 15.2001 4.81874C15.2001 4.81964 15.2001 4.82055 15.2001 4.82148C15.2001 4.82241 15.2001 4.82335 15.2001 4.82432C15.2001 4.82529 15.2001 4.82627 15.2001 4.82727C15.2001 4.82828 15.2001 4.8293 15.2001 4.83034C15.2001 4.83138 15.2001 4.83244 15.2001 4.83352C15.2001 4.8346 15.2001 4.83569 15.2001 4.83681C15.2001 4.83792 15.2001 4.83905 15.2001 4.8402C15.2001 4.84136 15.2001 4.84253 15.2001 4.84371C15.2001 4.8449 15.2001 4.84611 15.2001 4.84733C15.2001 4.84855 15.2001 4.8498 15.2001 4.85106C15.2001 4.85232 15.2001 4.8536 15.2001 4.85489C15.2001 4.85619 15.2001 4.85751 15.2001 4.85884C15.2001 4.86017 15.2001 4.86152 15.2001 4.86289C15.2001 4.86426 15.2001 4.86565 15.2001 4.86705C15.2001 4.86846 15.2001 4.86988 15.2001 4.87132C15.2001 4.87276 15.2001 4.87422 15.2001 4.87569C15.2001 4.87717 15.2001 4.87866 15.2001 4.88018C15.2001 4.88169 15.2001 4.88322 15.2001 4.88476C15.2001 4.88631 15.2001 4.88788 15.2001 4.88946C15.2001 4.89104 15.2001 4.89264 15.2001 4.89426C15.2001 4.89588 15.2001 4.89751 15.2001 4.89917C15.2001 4.90082 15.2001 4.90249 15.2001 4.90418C15.2001 4.90586 15.2001 4.90757 15.2001 4.90929C15.2001 4.91101 15.2001 4.91275 15.2001 4.91451C15.2001 4.91627 15.2001 4.91804 15.2001 4.91984C15.2001 4.92163 15.2001 4.92344 15.2001 4.92526C15.2001 4.92709 15.2001 4.92893 15.2001 4.93079C15.2001 4.93265 15.2001 4.93453 15.2001 4.93643C15.2001 4.93832 15.2001 4.94023 15.2001 4.94216C15.2001 4.94409 15.2001 4.94604 15.2001 4.948C15.2001 4.94997 15.2001 4.95195 15.2001 4.95394C15.2001 4.95594 15.2001 4.95796 15.2001 4.95999C15.2001 4.96202 15.2001 4.96407 15.2001 4.96613C15.2001 4.9682 15.2001 4.97028 15.2001 4.97237C15.2001 4.97447 15.2001 4.97659 15.2001 4.97872C15.2001 4.98085 15.2001 4.983 15.2001 4.98517C15.2001 4.98733 15.2001 4.98951 15.2001 4.99171C15.2001 4.99391 15.2001 4.99612 15.2001 4.99836C15.2001 5.00059 15.2001 5.00284 15.2001 5.0051C15.2001 5.00736 15.2001 5.00965 15.2001 5.01194C15.2001 5.01424 15.2001 5.01655 15.2001 5.01888C15.2001 5.02121 15.2001 5.02356 15.2001 5.02592C15.2001 5.02829 15.2001 5.03067 15.2001 5.03306C15.2001 5.03546 15.2001 5.03787 15.2001 5.0403C15.2001 5.04272 15.2001 5.04517 15.2001 5.04763C15.2001 5.05009 15.2001 5.05256 15.2001 5.05506C15.2001 5.05755 15.2001 5.06006 15.2001 5.06258C15.2001 5.06511 15.2001 5.06765 15.2001 5.0702C15.2001 5.07276 15.2001 5.07533 15.2001 5.07792C15.2001 5.08051 15.2001 5.08311 15.2001 5.08573C15.2001 5.08835 15.2001 5.09099 15.2001 5.09364C15.2001 5.09629 15.2001 5.09896 15.2001 5.10164C15.2001 5.10433 15.2001 5.10702 15.2001 5.10974C15.2001 5.11245 15.2001 5.11518 15.2001 5.11793C15.2001 5.12068 15.2001 5.12344 15.2001 5.12621C15.2001 5.12899 15.2001 5.13178 15.2001 5.13459C15.2001 5.1374 15.2001 5.14022 15.2001 5.14306C15.2001 5.1459 15.2001 5.14876 15.2001 5.15162C15.2001 5.15449 15.2001 5.15738 15.2001 5.16028C15.2001 5.16318 15.2001 5.1661 15.2001 5.16903C15.2001 5.17196 15.2001 5.1749 15.2001 5.17787C15.2001 5.18083 15.2001 5.1838 15.2001 5.1868C15.2001 5.18979 15.2001 5.1928 15.2001 5.19582C15.2001 5.19884 15.2001 5.20188 15.2001 5.20493C15.2001 5.20798 15.2001 5.21105 15.2001 5.21413C15.2001 5.21721 15.2001 5.22031 15.2001 5.22342C15.2001 5.22653 15.2001 5.22966 15.2001 5.2328C15.2001 5.23595 15.2001 5.2391 15.2001 5.24227C15.2001 5.24545 15.2001 5.24863 15.2001 5.25183C15.2001 5.25503 15.2001 5.25825 15.2001 5.26148C15.2001 5.26471 15.2001 5.26796 15.2001 5.27122C15.2001 5.27448 15.2001 5.27775 15.2001 5.28104C15.2001 5.28433 15.2001 5.28763 15.2001 5.29095C15.2001 5.29427 15.2001 5.2976 15.2001 5.30095C15.2001 5.3043 15.2001 5.30766 15.2001 5.31103C15.2001 5.31441 15.2001 5.3178 15.2001 5.3212C15.2001 5.32461 15.2001 5.32803 15.2001 5.33146C15.2001 5.33489 15.2001 5.33834 15.2001 5.3418C15.2001 5.34527 15.2001 5.34874 15.2001 5.35223C15.2001 5.35572 15.2001 5.35923 15.2001 5.36274C15.2001 5.36626 15.2001 5.3698 15.2001 5.37334C15.2001 5.37689 15.2001 5.38045 15.2001 5.38402C15.2001 5.3876 15.2001 5.39119 15.2001 5.39479C15.2001 5.39839 15.2001 5.40201 15.2001 5.40564C15.2001 5.40927 15.2001 5.41292 15.2001 5.41657C15.2001 5.42023 15.2001 5.4239 15.2001 5.42759C15.2001 5.43128 15.2001 5.43497 15.2001 5.43869C15.2001 5.4424 15.2001 5.44613 15.2001 5.44987C15.2001 5.45361 15.2001 5.45736 15.2001 5.46113C15.2001 5.4649 15.2001 5.46868 15.2001 5.47248C15.2001 5.47627 15.2001 5.48008 15.2001 5.4839C15.2001 5.48772 15.2001 5.49156 15.2001 5.49541C15.2001 5.49926 15.2001 5.50312 15.2001 5.50699C15.2001 5.51087 15.2001 5.51476 15.2001 5.51866C15.2001 5.52256 15.2001 5.52648 15.2001 5.53041C15.2001 5.53434 15.2001 5.53828 15.2001 5.54223C15.2001 5.54619 15.2001 5.55016 15.2001 5.55414C15.2001 5.55812 15.2001 5.56212 15.2001 5.56612C15.2001 5.57013 15.2001 5.57415 15.2001 5.57819C15.2001 5.58222 15.2001 5.58627 15.2001 5.59033C15.2001 5.59439 15.2001 5.59846 15.2001 5.60255C15.2001 5.60663 15.2001 5.61073 15.2001 5.61484C15.2001 5.61895 15.2001 5.62308 15.2001 5.62721C15.2001 5.63135 15.2001 5.6355 15.2001 5.63966C15.2001 5.64383 15.2001 5.648 15.2001 5.65219C15.2001 5.65638 15.2001 5.66058 15.2001 5.66479C15.2001 5.669 15.2001 5.67323 15.2001 5.67747C15.2001 5.68171 15.2001 5.68596 15.2001 5.69022C15.2001 5.69449 15.2001 5.69876 15.2001 5.70305C15.2001 5.70734 15.2001 5.71164 15.2001 5.71595C15.2001 5.72027 15.2001 5.72459 15.2001 5.72893C15.2001 5.73327 15.2001 5.73762 15.2001 5.74198C15.2001 5.74634 15.2001 5.75072 15.2001 5.7551C15.2001 5.75949 15.2001 5.76389 15.2001 5.7683C15.2001 5.77271 15.2001 5.77714 15.2001 5.78157C15.2001 5.78601 15.2001 5.79046 15.2001 5.79491C15.2001 5.79937 15.2001 5.80385 15.2001 5.80833C15.2001 5.81281 15.2001 5.81731 15.2001 5.82182C15.2001 5.82632 15.2001 5.83084 15.2001 5.83538C15.2001 5.83991 15.2001 5.84445 15.2001 5.84901C15.2001 5.85356 15.2001 5.85813 15.2001 5.86271C15.2001 5.86728 15.2001 5.87188 15.2001 5.87648C15.2001 5.88108 15.2001 5.88569 15.2001 5.89032C15.2001 5.89494 15.2001 5.89958 15.2001 5.90423C15.2001 5.90888 15.2001 5.91354 15.2001 5.91821C15.2001 5.92288 15.2001 5.92756 15.2001 5.93226C15.2001 5.93695 15.2001 5.94166 15.2001 5.94638C15.2001 5.95109 15.2001 5.95582 15.2001 5.96056C15.2001 5.9653 15.2001 5.97006 15.2001 5.97482C15.2001 5.97958 15.2001 5.98436 15.2001 5.98914C15.2001 5.99393 15.2001 5.99872 15.2001 6.00353C15.2001 6.00834 15.2001 6.01316 15.2001 6.01799C15.2001 6.02282 15.2001 6.02766 15.2001 6.03251C15.2001 6.03736 15.2001 6.04223 15.2001 6.0471C15.2001 6.05198 15.2001 6.05686 15.2001 6.06176C15.2001 6.06665 15.2001 6.07156 15.2001 6.07648C15.2001 6.0814 15.2001 6.08632 15.2001 6.09126C15.2001 6.0962 15.2001 6.10115 15.2001 6.10612C15.2001 6.11108 15.2001 6.11605 15.2001 6.12103C15.2001 6.12602 15.2001 6.13101 15.2001 6.13601C15.2001 6.14102 15.2001 6.14603 15.2001 6.15106C15.2001 6.15608 15.2001 6.16112 15.2001 6.16617C15.2001 6.17121 15.2001 6.17627 15.2001 6.18134C15.2001 6.1864 15.2001 6.19148 15.2001 6.19657C15.2001 6.20166 15.2001 6.20676 15.2001 6.21187C15.2001 6.21698 15.2001 6.2221 15.2001 6.22723C15.2001 6.23236 15.2001 6.2375 15.2001 6.24265C15.2001 6.2478 15.2001 6.25296 15.2001 6.25813C15.2001 6.2633 15.2001 6.26848 15.2001 6.27367C15.2001 6.27886 15.2001 6.28406 15.2001 6.28927C15.2001 6.29449 15.2001 6.29971 15.2001 6.30494C15.2001 6.31017 15.2001 6.31541 15.2001 6.32066C15.2001 6.32591 15.2001 6.33118 15.2001 6.33645C15.2001 6.34172 15.2001 6.347 15.2001 6.35229C15.2001 6.35758 15.2001 6.36288 15.2001 6.36819C15.2001 6.3735 15.2001 6.37883 15.2001 6.38416C15.2001 6.38949 15.2001 6.39483 15.2001 6.40017C15.2001 6.40552 15.2001 6.41088 15.2001 6.41625C15.2001 6.42162 15.2001 6.427 15.2001 6.43239C15.2001 6.43778 15.2001 6.44317 15.2001 6.44858C15.2001 6.45399 15.2001 6.4594 15.2001 6.46483C15.2001 6.47026 15.2001 6.47569 15.2001 6.48114C15.2001 6.48658 15.2001 6.49204 15.2001 6.4975C15.2001 6.50296 15.2001 6.50844 15.2001 6.51392C15.2001 6.5194 15.2001 6.52489 15.2001 6.53039C15.2001 6.53589 15.2001 6.5414 15.2001 6.54692C15.2001 6.55244 15.2001 6.55797 15.2001 6.56351C15.2001 6.56904 15.2001 6.57459 15.2001 6.58014C15.2001 6.5857 15.2001 6.59126 15.2001 6.59684C15.2001 6.60241 15.2001 6.60799 15.2001 6.61358C15.2001 6.61918 15.2001 6.62478 15.2001 6.63039C15.2001 6.63599 15.2001 6.64161 15.2001 6.64724C15.2001 6.65287 15.2001 6.6585 15.2001 6.66415C15.2001 6.66979 15.2001 6.67544 15.2001 6.6811C15.2001 6.68677 15.2001 6.69244 15.2001 6.69812C15.2001 6.70379 15.2001 6.70948 15.2001 6.71518C15.2001 6.72087 15.2001 6.72658 15.2001 6.73229C15.2001 6.73801 15.2001 6.74373 15.2001 6.74946C15.2001 6.75519 15.2001 6.76093 15.2001 6.76667C15.2001 6.77242 15.2001 6.77818 15.2001 6.78394C15.2001 6.78971 15.2001 6.79548 15.2001 6.80126C15.2001 6.80704 15.2001 6.81283 15.2001 6.81862C15.2001 6.82442 15.2001 6.83023 15.2001 6.83604C15.2001 6.84185 15.2001 6.84768 15.2001 6.8535C15.2001 6.85933 15.2001 6.86517 15.2001 6.87102C15.2001 6.87686 15.2001 6.88272 15.2001 6.88858C15.2001 6.89444 15.2001 6.90031 15.2001 6.90619C15.2001 6.91207 15.2001 6.91795 15.2001 6.92385C15.2001 6.92974 15.2001 6.93564 15.2001 6.94155C15.2001 6.94746 15.2001 6.95338 15.2001 6.9593C15.2001 6.96523 15.2001 6.97116 15.2001 6.9771C15.2001 6.98304 15.2001 6.98899 15.2001 6.99495C15.2001 7.0009 15.2001 7.00687 15.2001 7.01284C15.2001 7.01881 15.2001 7.02479 15.2001 7.03077C15.2001 7.03676 15.2001 7.04275 15.2001 7.04875C15.2001 7.05476 15.2001 7.06076 15.2001 7.06678C15.2001 7.0728 15.2001 7.07882 15.2001 7.08485C15.2001 7.09088 15.2001 7.09692 15.2001 7.10297C15.2001 7.10901 15.2001 7.11506 15.2001 7.12112C15.2001 7.12718 15.2001 7.13325 15.2001 7.13933C15.2001 7.1454 15.2001 7.15148 15.2001 7.15757C15.2001 7.16366 15.2001 7.16976 15.2001 7.17586C15.2001 7.18196 15.2001 7.18807 15.2001 7.19419C15.2001 7.20031 15.2001 7.20643 15.2001 7.21256C15.2001 7.21869 15.2001 7.22483 15.2001 7.23098C15.2001 7.23712 15.2001 7.24327 15.2001 7.24943C15.2001 7.25559 15.2001 7.26176 15.2001 7.26793C15.2001 7.2741 15.2001 7.28028 15.2001 7.28647C15.2001 7.29265 15.2001 7.29885 15.2001 7.30504C15.2001 7.31124 15.2001 7.31745 15.2001 7.32366C15.2001 7.32988 15.2001 7.33609 15.2001 7.34232C15.2001 7.34855 15.2001 7.35478 15.2001 7.36102C15.2001 7.36726 15.2001 7.3735 15.2001 7.37975C15.2001 7.38601 15.2001 7.39226 15.2001 7.39853C15.2001 7.40479 15.2001 7.41106 15.2001 7.41734C15.2001 7.42362 15.2001 7.4299 15.2001 7.43619C15.2001 7.44248 15.2001 7.44878 15.2001 7.45508C15.2001 7.46138 15.2001 7.46769 15.2001 7.47401C15.2001 7.48032 15.2001 7.48664 15.2001 7.49297C15.2001 7.4993 15.2001 7.50563 15.2001 7.51197C15.2001 7.51831 15.2001 7.52465 15.2001 7.531C15.2001 7.53735 15.2001 7.54371 15.2001 7.55007C15.2001 7.55644 15.2001 7.56281 15.2001 7.56918C15.2001 7.57556 15.2001 7.58194 15.2001 7.58832C15.2001 7.59471 15.2001 7.6011 15.2001 7.6075C15.2001 7.6139 15.2001 7.6203 15.2001 7.62671C15.2001 7.63312 15.2001 7.63954 15.2001 7.64596C15.2001 7.65238 15.2001 7.6588 15.2001 7.66524C15.2001 7.67167 15.2001 7.67811 15.2001 7.68455C15.2001 7.69099 15.2001 7.69744 15.2001 7.70389C15.2001 7.71035 15.2001 7.71681 15.2001 7.72327C15.2001 7.72974 15.2001 7.73621 15.2001 7.74268C15.2001 7.74916 15.2001 7.75564 15.2001 7.76213C15.2001 7.76861 15.2001 7.77511 15.2001 7.7816C15.2001 7.7881 15.2001 7.7946 15.2001 7.80111C15.2001 7.80762 15.2001 7.81413 15.2001 7.82065C15.2001 7.82716 15.2001 7.83369 15.2001 7.84021C15.2001 7.84674 15.2001 7.85327 15.2001 7.85981C15.2001 7.86635 15.2001 7.87289 15.2001 7.87944C15.2001 7.88599 15.2001 7.89254 15.2001 7.8991C15.2001 7.90566 15.2001 7.91222 15.2001 7.91878C15.2001 7.92535 15.2001 7.93192 15.2001 7.9385C15.2001 7.94508 15.2001 7.95166 15.2001 7.95825C15.2001 7.96483 15.2001 7.97142 15.2001 7.97802C15.2001 7.98461 15.2001 7.99121 15.2001 7.99782C15.2001 8.00442 15.2001 8.01103 15.2001 8.01765C15.2001 8.02426 15.2001 8.03088 15.2001 8.0375C15.2001 8.04413 15.2001 8.05075 15.2001 8.05739C15.2001 8.06402 15.2001 8.07065 15.2001 8.0773C15.2001 8.08394 15.2001 8.09058 15.2001 8.09723C15.2001 8.10388 15.2001 8.11053 15.2001 8.11719C15.2001 8.12385 15.2001 8.13051 15.2001 8.13718C15.2001 8.14384 15.2001 8.15052 15.2001 8.15719C15.2001 8.16386 15.2001 8.17054 15.2001 8.17723C15.2001 8.18391 15.2001 8.1906 15.2001 8.19729C15.2001 8.20398 15.2001 8.21067 15.2001 8.21737C15.2001 8.22407 15.2001 8.23078 15.2001 8.23748C15.2001 8.24419 15.2001 8.2509 15.2001 8.25761C15.2001 8.26433 15.2001 8.27105 15.2001 8.27777C15.2001 8.28449 15.2001 8.29122 15.2001 8.29795C15.2001 8.30468 15.2001 8.31141 15.2001 8.31815C15.2001 8.32489 15.2001 8.33163 15.2001 8.33837C15.2001 8.34512 15.2001 8.35186 15.2001 8.35862C15.2001 8.36537 15.2001 8.37212 15.2001 8.37888C15.2001 8.38564 15.2001 8.3924 15.2001 8.39917C15.2001 8.40593 15.2001 8.4127 15.2001 8.41947C15.2001 8.42625 15.2001 8.43302 15.2001 8.4398C15.2001 8.44658 15.2001 8.45336 15.2001 8.46015C15.2001 8.46694 15.2001 8.47372 15.2001 8.48052C15.2001 8.48731 15.2001 8.4941 15.2001 8.5009C15.2001 8.5077 15.2001 8.5145 15.2001 8.52131C15.2001 8.52811 15.2001 8.53492 15.2001 8.54173C15.2001 8.54854 15.2001 8.55536 15.2001 8.56217C15.2001 8.56899 15.2001 8.57581 15.2001 8.58263C15.2001 8.58946 15.2001 8.59628 15.2001 8.60311C15.2001 8.60994 15.2001 8.61677 15.2001 8.62361C15.2001 8.63044 15.2001 8.63728 15.2001 8.64412C15.2001 8.65096 15.2001 8.6578 15.2001 8.66465C15.2001 8.67149 15.2001 8.67834 15.2001 8.68519C15.2001 8.69204 15.2001 8.69889 15.2001 8.70575C15.2001 8.71261 15.2001 8.71946 15.2001 8.72633C15.2001 8.73319 15.2001 8.74005 15.2001 8.74692C15.2001 8.75378 15.2001 8.76065 15.2001 8.76752C15.2001 8.77439 15.2001 8.78127 15.2001 8.78814C15.2001 8.79502 15.2001 8.8019 15.2001 8.80878C15.2001 8.81566 15.2001 8.82254 15.2001 8.82942C15.2001 8.83631 15.2001 8.84319 15.2001 8.85008C15.2001 8.85697 15.2001 8.86386 15.2001 8.87076C15.2001 8.87765 15.2001 8.88455 15.2001 8.89144C15.2001 8.89834 15.2001 8.90524 15.2001 8.91214C15.2001 8.91905 15.2001 8.92595 15.2001 8.93285C15.2001 8.93976 15.2001 8.94667 15.2001 8.95358C15.2001 8.96049 15.2001 8.9674 15.2001 8.97431C15.2001 8.98122 15.2001 8.98814 15.2001 8.99506C15.2001 9.00197 15.2001 9.00889 15.2001 9.01581C15.2001 9.02273 15.2001 9.02965 15.2001 9.03658C15.2001 9.0435 15.2001 9.05043 15.2001 9.05735C15.2001 9.06428 15.2001 9.07121 15.2001 9.07814C15.2001 9.08507 15.2001 9.092 15.2001 9.09893C15.2001 9.10587 15.2001 9.1128 15.2001 9.11974C15.2001 9.12667 15.2001 9.13361 15.2001 9.14055C15.2001 9.14749 15.2001 9.15443 15.2001 9.16137C15.2001 9.16831 15.2001 9.17525 15.2001 9.1822C15.2001 9.18914 15.2001 9.19609 15.2001 9.20303C15.2001 9.20998 15.2001 9.21693 15.2001 9.22388C15.2001 9.23082 15.2001 9.23777 15.2001 9.24473C15.2001 9.25168 15.2001 9.25863 15.2001 9.26558C15.2001 9.27253 15.2001 9.27949 15.2001 9.28644C15.2001 9.2934 15.2001 9.30035 15.2001 9.30731C15.2001 9.31427 15.2001 9.32123 15.2001 9.32818C15.2001 9.33514 15.2001 9.3421 15.2001 9.34906C15.2001 9.35602 15.2001 9.36298 15.2001 9.36995C15.2001 9.37691 15.2001 9.38387 15.2001 9.39083C15.2001 9.3978 15.2001 9.40476 15.2001 9.41173C15.2001 9.41869 15.2001 9.42566 15.2001 9.43262C15.2001 9.43959 15.2001 9.44655 15.2001 9.45352C15.2001 9.46049 15.2001 9.46745 15.2001 9.47442C15.2001 9.48139 15.2001 9.48836 15.2001 9.49533C15.2001 9.50229 15.2001 9.50926 15.2001 9.51623C15.2001 9.5232 15.2001 9.53017 15.2001 9.53714C15.2001 9.54411 15.2001 9.55108 15.2001 9.55805C15.2001 9.56502 15.2001 9.57199 15.2001 9.57896C15.2001 9.58593 15.2001 9.5929 15.2001 9.59987C15.2001 9.60685 15.2001 9.61382 15.2001 9.62079C15.2001 9.62776 15.2001 9.63473 15.2001 9.6417C15.2001 9.64867 15.2001 9.65564 15.2001 9.66261C15.2001 9.66958 15.2001 9.67656 15.2001 9.68353C15.2001 9.6905 15.2001 9.69747 15.2001 9.70444C15.2001 9.71141 15.2001 9.71838 15.2001 9.72535C15.2001 9.73232 15.2001 9.73929 15.2001 9.74626C15.2001 9.75323 15.2001 9.7602 15.2001 9.76717C15.2001 9.77413 15.2001 9.7811 15.2001 9.78807C15.2001 9.79504 15.2001 9.80201 15.2001 9.80897C15.2001 9.81594 15.2001 9.82291 15.2001 9.82987C15.2001 9.83684 15.2001 9.8438 15.2001 9.85077C15.2001 9.85773 15.2001 9.8647 15.2001 9.87166C15.2001 9.87863 15.2001 9.88559 15.2001 9.89255C15.2001 9.89951 15.2001 9.90648 15.2001 9.91344C15.2001 9.9204 15.2001 9.92736 15.2001 9.93432C15.2001 9.94128 15.2001 9.94823 15.2001 9.95519C15.2001 9.96215 15.2001 9.96911 15.2001 9.97606C15.2001 9.98302 15.2001 9.98997 15.2001 9.99693C15.2001 10.0039 15.2001 10.0108 15.2001 10.0178C15.2001 10.0247 15.2001 10.0317 15.2001 10.0386C15.2001 10.0456 15.2001 10.0525 15.2001 10.0595C15.2001 10.0664 15.2001 10.0734 15.2001 10.0803C15.2001 10.0873 15.2001 10.0942 15.2001 10.1012C15.2001 10.1081 15.2001 10.115 15.2001 10.122C15.2001 10.1289 15.2001 10.1359 15.2001 10.1428C15.2001 10.1497 15.2001 10.1567 15.2001 10.1636C15.2001 10.1705 15.2001 10.1775 15.2001 10.1844C15.2001 10.1913 15.2001 10.1983 15.2001 10.2052C15.2001 10.2121 15.2001 10.219 15.2001 10.226C15.2001 10.2329 15.2001 10.2398 15.2001 10.2467C15.2001 10.2537 15.2001 10.2606 15.2001 10.2675C15.2001 10.2744 15.2001 10.2813 15.2001 10.2882C15.2001 10.2952 15.2001 10.3021 15.2001 10.309C15.2001 10.3159 15.2001 10.3228 15.2001 10.3297C15.2001 10.3366 15.2001 10.3435 15.2001 10.3504C15.2001 10.3573 15.2001 10.3642 15.2001 10.3711C15.2001 10.378 15.2001 10.3849 15.2001 10.3918C15.2001 10.3987 15.2001 10.4056 15.2001 10.4125C15.2001 10.4194 15.2001 10.4263 15.2001 10.4332C15.2001 10.44 15.2001 10.4469 15.2001 10.4538C15.2001 10.4607 15.2001 10.4676 15.2001 10.4745C15.2001 10.4813 15.2001 10.4882 15.2001 10.4951C15.2001 10.5019 15.2001 10.5088 15.2001 10.5157C15.2001 10.5226 15.2001 10.5294 15.2001 10.5363C15.2001 10.5431 15.2001 10.55 15.2001 10.5569C15.2001 10.5637 15.2001 10.5706 15.2001 10.5774C15.2001 10.5843 15.2001 10.5911 15.2001 10.598C15.2001 10.6048 15.2001 10.6117 15.2001 10.6185C15.2001 10.6254 15.2001 10.6322 15.2001 10.639C15.2001 10.6459 15.2001 10.6527 15.2001 10.6595C15.2001 10.6664 15.2001 10.6732 15.2001 10.68C15.2001 10.6868 15.2001 10.6937 15.2001 10.7005C15.2001 10.7073 15.2001 10.7141 15.2001 10.7209C15.2001 10.7277 15.2001 10.7346 15.2001 10.7414C15.2001 10.7482 15.2001 10.755 15.2001 10.7618C15.2001 10.7686 15.2001 10.7754 15.2001 10.7822C15.2001 10.789 15.2001 10.7958 15.2001 10.8025C15.2001 10.8093 15.2001 10.8161 15.2001 10.8229C15.2001 10.8297 15.2001 10.8365 15.2001 10.8432C15.2001 10.85 15.2001 10.8568 15.2001 10.8635C15.2001 10.8703 15.2001 10.8771 15.2001 10.8838C15.2001 10.8906 15.2001 10.8974 15.2001 10.9041C15.2001 10.9109 15.2001 10.9176 15.2001 10.9244C15.2001 10.9311 15.2001 10.9379 15.2001 10.9446C15.2001 10.9513 15.2001 10.9581 15.2001 10.9648C15.2001 10.9715 15.2001 10.9783 15.2001 10.985C15.2001 10.9917 15.2001 10.9984 15.2001 11.0052C15.2001 11.0119 15.2001 11.0186 15.2001 11.0253C15.2001 11.032 15.2001 11.0387 15.2001 11.0454C15.2001 11.0521 15.2001 11.0588 15.2001 11.0655C15.2001 11.0722 15.2001 11.0789 15.2001 11.0856C15.2001 11.0923 15.2001 11.0989 15.2001 11.1056C15.2001 11.1123 15.2001 11.119 15.2001 11.1256C15.2001 11.1323 15.2001 11.139 15.2001 11.1456C15.2001 11.1523 15.2001 11.159 15.2001 11.1656C15.2001 11.1723 15.2001 11.1789 15.2001 11.1856C15.2001 11.1922 15.2001 11.1988 15.2001 11.2055C15.2001 11.2121 15.2001 11.2187 15.2001 11.2254C15.2001 11.232 15.2001 11.2386 15.2001 11.2452C15.2001 11.2518 15.2001 11.2585 15.2001 11.2651C15.2001 11.2717 15.2001 11.2783 15.2001 11.2849C15.2001 11.2915 15.2001 11.2981 15.2001 11.3047C15.2001 11.3113 15.2001 11.3178 15.2001 11.3244C15.2001 11.331 15.2001 11.3376 15.2001 11.3441C15.2001 11.3507 15.2001 11.3573 15.2001 11.3638C15.2001 11.3704 15.2001 11.377 15.2001 11.3835C15.2001 11.3901 15.2001 11.3966 15.2001 11.4032C15.2001 11.4097 15.2001 11.4162 15.2001 11.4228C15.2001 11.4293 15.2001 11.4358 15.2001 11.4423C15.2001 11.4489 15.2001 11.4554 15.2001 11.4619C15.2001 11.4684 15.2001 11.4749 15.2001 11.4814C15.2001 11.4879 15.2001 11.4944 15.2001 11.5009C15.2001 11.5074 15.2001 11.5139 15.2001 11.5203C15.2001 11.5268 15.2001 11.5333 15.2001 11.5398C15.2001 11.5462 15.2001 11.5527 15.2001 11.5592C15.2001 11.5656 15.2001 11.5721 15.2001 11.5785C15.2001 11.585 15.2001 11.5914 15.2001 11.5978C15.2001 11.6043 15.2001 11.6107 15.2001 11.6171C15.2001 11.6236 15.2001 11.63 15.2001 11.6364C15.2001 11.6428 15.2001 11.6492 15.2001 11.6556C15.2001 11.662 15.2001 11.6684 15.2001 11.6748C15.2001 11.6812 15.2001 11.6876 15.2001 11.694C15.2001 11.7003 15.2001 11.7067 15.2001 11.7131C15.2001 11.7194 15.2001 11.7258 15.2001 11.7322C15.2001 11.7385 15.2001 11.7449 15.2001 11.7512C15.2001 11.7576 15.2001 11.7639 15.2001 11.7702C15.2001 11.7766 15.2001 11.7829 15.2001 11.7892C15.2001 11.7955 15.2001 11.8018 15.2001 11.8081C15.2001 11.8144 15.2001 11.8208 15.2001 11.827C15.2001 11.8333 15.2001 11.8396 15.2001 11.8459C15.2001 11.8522 15.2001 11.8585 15.2001 11.8647C15.2001 11.871 15.2001 11.8773 15.2001 11.8835C15.2001 11.8898 15.2001 11.896 15.2001 11.9023C15.2001 11.9085 15.2001 11.9148 15.2001 11.921C15.2001 11.9272 15.2001 11.9334 15.2001 11.9397C15.2001 11.9459 15.2001 11.9521 15.2001 11.9583C15.2001 11.9645 15.2001 11.9707 15.2001 11.9769C15.2001 11.9831 15.2001 11.9893 15.2001 11.9954C15.2001 12.0016 15.2001 12.0078 15.2001 12.0139C15.2001 12.0201 15.2001 12.0263 15.2001 12.0324C15.2001 12.0386 15.2001 12.0447 15.2001 12.0508C15.2001 12.057 15.2001 12.0631 15.2001 12.0692C15.2001 12.0754 15.2001 12.0815 15.2001 12.0876C15.2001 12.0937 15.2001 12.0998 15.2001 12.1059C15.2001 12.112 15.2001 12.1181 15.2001 12.1241C15.2001 12.1302 15.2001 12.1363 15.2001 12.1424C15.2001 12.1484 15.2001 12.1545 15.2001 12.1605C15.2001 12.1666 15.2001 12.1726 15.2001 12.1787C15.2001 12.1847 15.2001 12.1907 15.2001 12.1968C15.2001 12.2028 15.2001 12.2088 15.2001 12.2148C15.2001 12.2208 15.2001 12.2268 15.2001 12.2328C15.2001 12.2388 15.2001 12.2448 15.2001 12.2508C15.2001 12.2567 15.2001 12.2627 15.2001 12.2687C15.2001 12.2746 15.2001 12.2806 15.2001 12.2865C15.2001 12.2925 15.2001 12.2984 15.2001 12.3043C15.2001 12.3103 15.2001 12.3162 15.2001 12.3221C15.2001 12.328 15.2001 12.3339 15.2001 12.3398C15.2001 12.3457 15.2001 12.3516 15.2001 12.3575C15.2001 12.3634 15.2001 12.3693 15.2001 12.3751C15.2001 12.381 15.2001 12.3869 15.2001 12.3927C15.2001 12.3986 15.2001 12.4044 15.2001 12.4102C15.2001 12.4161 15.2001 12.4219 15.2001 12.4277C15.2001 12.4335 15.2001 12.4394 15.2001 12.4452C15.2001 12.451 15.2001 12.4568 15.2001 12.4625C15.2001 12.4683 15.2001 12.4741 15.2001 12.4799C15.2001 12.4856 15.2001 12.4914 15.2001 12.4972C15.2001 12.5029 15.2001 12.5087 15.2001 12.5144C15.2001 12.5201 15.2001 12.5259 15.2001 12.5316C15.2001 12.5373 15.2001 12.543 15.2001 12.5487C15.2001 12.5544 15.2001 12.5601 15.2001 12.5658C15.2001 12.5715 15.2001 12.5772 15.2001 12.5828C15.2001 12.5885 15.2001 12.5942 15.2001 12.5998C15.2001 12.6055 15.2001 12.6111 15.2001 12.6167C15.2001 12.6224 15.2001 12.628 15.2001 12.6336C15.2001 12.6392 15.2001 12.6448 15.2001 12.6504C15.2001 12.656 15.2001 12.6616 15.2001 12.6672C15.2001 12.6728 15.2001 12.6783 15.2001 12.6839C15.2001 12.6895 15.2001 12.695 15.2001 12.7006C15.2001 12.7061 15.2001 12.7116 15.2001 12.7172C15.2001 12.7227 15.2001 12.7282 15.2001 12.7337C15.2001 12.7392 15.2001 12.7447 15.2001 12.7502C15.2001 12.7557 15.2001 12.7612 15.2001 12.7666C15.2001 12.7721 15.2001 12.7776 15.2001 12.783C15.2001 12.7885 15.2001 12.7939 15.2001 12.7994C15.2001 12.8048 15.2001 12.8102 15.2001 12.8156H17.2001ZM16.6473 3.8932L11.0572 1.09818L10.1628 2.88704L15.7528 5.68205L16.6473 3.8932ZM7.83729 2.88704C8.56927 2.52105 9.43083 2.52105 10.1628 2.88704L11.0572 1.09818C9.76221 0.45067 8.23789 0.450671 6.94287 1.09818L7.83729 2.88704ZM11.7001 8.88777H9.00005V10.8878H11.7001V8.88777ZM9.00005 8.88777H6.30005V10.8878H9.00005V8.88777ZM10 12.5876V9.88777H8.00005V12.5876H10ZM10 9.88777V7.18763H8.00005V9.88777H10Z" fill="black"/>
</svg>
