<svg width="20" height="18" viewBox="0 0 20 18" fill="none" xmlns="http://www.w3.org/2000/svg">
<path id="signal-icon" d="M9.94727 8.79596H10M7.8198 4.85843C6.43635 5.62608 5.5 7.10167 5.5 8.79596C5.5 10.4902 6.43635 11.9658 7.8198 12.7335M12.1802 4.85843C13.5637 5.62608 14.5 7.10167 14.5 8.79596C14.5 10.4902 13.5637 11.9658 12.1802 12.7335M5.5 16.5919C2.80989 15.0358 1 12.1272 1 8.79596C1 5.46469 2.80989 2.55614 5.5 1M14.5 16.5919C17.1901 15.0358 19 12.1272 19 8.79596C19 5.46469 17.1901 2.55614 14.5 1" stroke="black" stroke-width="2" stroke-linecap="round"/>
</svg>
