<svg width="24" height="22" viewBox="0 0 24 22" fill="none" xmlns="http://www.w3.org/2000/svg">
<path id="skew-icon" d="M17.8736 15.5474L20.2736 6.45266M15.3473 18.0737H6.75785M3.72627 15.2948L6.12627 6.70529M8.65258 3.92634H17.4947M4.61048 6.45266H7.64206C8.20015 6.45266 8.65258 6.00023 8.65258 5.44213V2.41055C8.65258 1.85245 8.20015 1.40002 7.64206 1.40002H4.61048C4.05238 1.40002 3.59995 1.85245 3.59995 2.41055V5.44213C3.59995 6.00023 4.05238 6.45266 4.61048 6.45266ZM18.7578 6.45266H21.7894C22.3475 6.45266 22.7999 6.00023 22.7999 5.44213V2.41055C22.7999 1.85245 22.3475 1.40002 21.7894 1.40002H18.7578C18.1997 1.40002 17.7473 1.85245 17.7473 2.41055V5.44213C17.7473 6.00023 18.1997 6.45266 18.7578 6.45266ZM2.21048 20.6H5.24206C5.80015 20.6 6.25258 20.1476 6.25258 19.5895V16.5579C6.25258 15.9998 5.80015 15.5474 5.24206 15.5474H2.21048C1.65238 15.5474 1.19995 15.9998 1.19995 16.5579V19.5895C1.19995 20.1476 1.65238 20.6 2.21048 20.6ZM16.3578 20.6H19.3894C19.9475 20.6 20.4 20.1476 20.4 19.5895V16.5579C20.4 15.9998 19.9475 15.5474 19.3894 15.5474H16.3578C15.7997 15.5474 15.3473 15.9998 15.3473 16.5579V19.5895C15.3473 20.1476 15.7997 20.6 16.3578 20.6Z" stroke="black" stroke-width="2" stroke-linecap="round"/>
</svg>
