<svg width="22" height="22" viewBox="0 0 22 22" fill="none" xmlns="http://www.w3.org/2000/svg">
<path id="snowflake-icon" d="M7.81131 20.2447L10.9991 17.0568M10.9991 17.0568L14.1869 20.2447M10.9991 17.0568V4.94318M14.1869 1.75537L10.9991 4.94318M10.9991 4.94318L7.81131 1.75537M1.3999 12.8616L5.75453 14.0285M5.75453 14.0285L4.58771 18.3831M5.75453 14.0285L16.2453 7.97163M20.5999 9.13845L16.2453 7.97163M16.2453 7.97163L17.4121 3.617M4.58771 3.617L5.75453 7.97163M5.75453 7.97163L1.3999 9.13845M5.75453 7.97163L16.2453 14.0285M17.4121 18.3831L16.2453 14.0285M16.2453 14.0285L20.5999 12.8616" stroke="black" stroke-width="2" stroke-linecap="round" stroke-linejoin="round"/>
</svg>
