<svg width="22" height="23" viewBox="0 0 22 23" fill="none" xmlns="http://www.w3.org/2000/svg">
<path id="stopwatch-off-icon" d="M1.3999 2.68696L19.9999 21.287M17.2608 5.85217L19.3477 3.76522M19.3477 3.76522L18.0956 2.51304M19.3477 3.76522L20.5999 5.01739M8.4999 1H13.4999M4.4216 7C3.22059 8.47819 2.4999 10.3685 2.4999 12.4286C2.4999 17.1624 6.30548 21 10.9999 21C13.0974 21 15.0175 20.2339 16.4999 18.964M18.9999 15.3319C19.3235 14.4252 19.4999 13.4477 19.4999 12.4286C19.4999 7.6947 15.6943 3.85714 10.9999 3.85714C9.94385 3.85714 8.93278 4.05135 7.9999 4.40627" stroke="black" stroke-width="2" stroke-linecap="round" stroke-linejoin="round"/>
</svg>
