<svg width="22" height="18" viewBox="0 0 22 18" fill="none" xmlns="http://www.w3.org/2000/svg">
<path id="sun-01-icon" d="M17.8566 17.2C18.4089 17.2 18.8566 16.7523 18.8566 16.2C18.8566 15.6478 18.4089 15.2 17.8566 15.2V17.2ZM4.14269 15.2C3.59041 15.2 3.14269 15.6478 3.14269 16.2C3.14269 16.7523 3.59041 17.2 4.14269 17.2V15.2ZM1.3999 10.9018C0.847618 10.9018 0.399902 11.3495 0.399902 11.9018C0.399902 12.4541 0.847618 12.9018 1.3999 12.9018V10.9018ZM20.5994 12.9018C21.1517 12.9018 21.5994 12.4541 21.5994 11.9018C21.5994 11.3495 21.1517 10.9018 20.5994 10.9018V12.9018ZM3.24514 9.04821C3.70467 9.35456 4.32554 9.23039 4.63189 8.77086C4.93825 8.31133 4.81407 7.69046 4.35454 7.38411L3.24514 9.04821ZM2.29745 6.01271C1.83792 5.70636 1.21705 5.83054 0.910701 6.29006C0.604348 6.74959 0.728522 7.37046 1.18805 7.67681L2.29745 6.01271ZM7.10333 4.45949C7.34812 4.95456 7.94789 5.15746 8.44297 4.91267C8.93804 4.66788 9.14094 4.06811 8.89615 3.57304L7.10333 4.45949ZM7.80035 1.35683C7.55557 0.861753 6.95579 0.658856 6.46072 0.903643C5.96564 1.14843 5.76275 1.74821 6.00754 2.24328L7.80035 1.35683ZM12.7906 3.3022C12.4843 3.76173 12.6084 4.3826 13.068 4.68895C13.5275 4.9953 14.1484 4.87113 14.4547 4.4116L12.7906 3.3022ZM15.8261 2.3545C16.1325 1.89498 16.0083 1.27411 15.5488 0.967754C15.0892 0.661402 14.4684 0.785576 14.162 1.2451L15.8261 2.3545ZM20.8021 7.74117C21.2972 7.49639 21.5001 6.89661 21.2553 6.40154C21.0105 5.90646 20.4107 5.70357 19.9156 5.94835L20.8021 7.74117ZM17.6994 7.04415C17.2043 7.28894 17.0015 7.88871 17.2462 8.38379C17.491 8.87886 18.0908 9.08176 18.5859 8.83697L17.6994 7.04415ZM17.8566 15.2H4.14269V17.2H17.8566V15.2ZM1.3999 12.9018H20.5994V10.9018H1.3999V12.9018ZM7.19979 11.9018C7.19979 9.80317 8.90105 8.1019 10.9997 8.1019V6.1019C7.79648 6.1019 5.19979 8.6986 5.19979 11.9018H7.19979ZM10.9997 8.1019C13.0983 8.1019 14.7996 9.80317 14.7996 11.9018H16.7996C16.7996 8.6986 14.2029 6.1019 10.9997 6.1019V8.1019ZM4.35454 7.38411L2.29745 6.01271L1.18805 7.67681L3.24514 9.04821L4.35454 7.38411ZM8.89615 3.57304L7.80035 1.35683L6.00754 2.24328L7.10333 4.45949L8.89615 3.57304ZM14.4547 4.4116L15.8261 2.3545L14.162 1.2451L12.7906 3.3022L14.4547 4.4116ZM19.9156 5.94835L17.6994 7.04415L18.5859 8.83697L20.8021 7.74117L19.9156 5.94835Z" fill="black"/>
</svg>
