<svg width="20" height="20" viewBox="0 0 20 20" fill="none" xmlns="http://www.w3.org/2000/svg">
<path id="target-04-icon" d="M10 10V9C9.44772 9 9 9.44772 9 10H10ZM10.0797 10H11.0797C11.0797 9.44772 10.632 9 10.0797 9V10ZM10.0797 10.0721V11.0721C10.632 11.0721 11.0797 10.6244 11.0797 10.0721H10.0797ZM10 10.0721H9C9 10.6244 9.44772 11.0721 10 11.0721V10.0721ZM18 10C18 14.4183 14.4183 18 10 18V20C15.5228 20 20 15.5228 20 10H18ZM10 18C5.58172 18 2 14.4183 2 10H0C0 15.5228 4.47715 20 10 20V18ZM2 10C2 5.58172 5.58172 2 10 2V0C4.47715 0 0 4.47715 0 10H2ZM10 2C14.4183 2 18 5.58172 18 10H20C20 4.47715 15.5228 0 10 0V2ZM13.5 10C13.5 11.933 11.933 13.5 10 13.5V15.5C13.0376 15.5 15.5 13.0376 15.5 10H13.5ZM10 13.5C8.067 13.5 6.5 11.933 6.5 10H4.5C4.5 13.0376 6.96243 15.5 10 15.5V13.5ZM6.5 10C6.5 8.067 8.067 6.5 10 6.5V4.5C6.96243 4.5 4.5 6.96243 4.5 10H6.5ZM10 6.5C11.933 6.5 13.5 8.067 13.5 10H15.5C15.5 6.96243 13.0376 4.5 10 4.5V6.5ZM10 11H10.0797V9H10V11ZM9.07969 10V10.0721H11.0797V10H9.07969ZM10.0797 9.07207H10V11.0721H10.0797V9.07207ZM11 10.0721V10H9V10.0721H11Z" fill="black"/>
</svg>
