<svg width="18" height="22" viewBox="0 0 18 22" fill="none" xmlns="http://www.w3.org/2000/svg">
<path id="temperature-01-icon" d="M5.39995 16.3999H5.4562M11.55 10.2499L13.8 7.9999M13.8 7.9999L16.05 10.2499M13.8 7.9999V4.3999M13.8 7.9999L10.8 6.4999M13.8 7.9999L16.8 6.4999M9.59995 16.3999C9.59995 18.7195 7.71955 20.5999 5.39995 20.5999C3.08036 20.5999 1.19995 18.7195 1.19995 16.3999C1.19995 14.9727 1.91186 13.7117 2.99995 12.9527V3.79833C2.99995 2.47285 4.07447 1.3999 5.39995 1.3999C6.72543 1.3999 7.79995 2.47442 7.79995 3.7999V12.9527C8.6592 13.7218 9.59995 15.156 9.59995 16.3999Z" stroke="black" stroke-width="2" stroke-linecap="round" stroke-linejoin="round"/>
</svg>
