<svg width="22" height="16" viewBox="0 0 22 16" fill="none" xmlns="http://www.w3.org/2000/svg">
<path id="truck-icon" d="M4.14276 13.0285H3.22847C2.21858 13.0285 1.3999 12.2099 1.3999 11.2V2.97139C1.3999 1.9615 2.21858 1.14282 3.22847 1.14282H11.457C12.4669 1.14282 13.2856 1.9615 13.2856 2.97139V11.2C13.2856 12.2099 12.4669 13.0285 11.457 13.0285H10.5428M14.657 13.0285H14.1999C13.695 13.0285 13.2856 12.6192 13.2856 12.1142V4.34282C13.2856 3.83788 13.695 3.42854 14.1999 3.42854H16.5033C16.7811 3.42854 17.0438 3.55479 17.2173 3.77167L20.3995 7.74953C20.5292 7.91164 20.5999 8.11307 20.5999 8.32068V12.1142C20.5999 12.6192 20.1906 13.0285 19.6856 13.0285M9.62847 12.5714C9.62847 13.8338 8.60512 14.8571 7.34276 14.8571C6.08039 14.8571 5.05704 13.8338 5.05704 12.5714C5.05704 11.309 6.08039 10.2857 7.34276 10.2857C8.60512 10.2857 9.62847 11.309 9.62847 12.5714ZM19.2285 12.5714C19.2285 13.8338 18.2051 14.8571 16.9428 14.8571C15.6804 14.8571 14.657 13.8338 14.657 12.5714C14.657 11.309 15.6804 10.2857 16.9428 10.2857C18.2051 10.2857 19.2285 11.309 19.2285 12.5714Z" stroke="black" stroke-width="2" stroke-linecap="round"/>
</svg>
