<svg width="22" height="22" viewBox="0 0 22 22" fill="none" xmlns="http://www.w3.org/2000/svg">
<path id="type-03-icon" d="M9.20877 15.1999H11.124M11.124 15.1999H13.128M11.124 15.1999V6.7999M11.124 6.7999H7.9999C7.66853 6.7999 7.3999 7.06853 7.3999 7.3999V8.28225M11.124 6.7999H13.9999C14.3313 6.7999 14.5999 7.06853 14.5999 7.3999V8.52931M3.7999 20.5999H18.1999C19.5254 20.5999 20.5999 19.5254 20.5999 18.1999V3.7999C20.5999 2.47442 19.5254 1.3999 18.1999 1.3999H3.7999C2.47442 1.3999 1.3999 2.47442 1.3999 3.7999V18.1999C1.3999 19.5254 2.47442 20.5999 3.7999 20.5999Z" stroke="black" stroke-width="2" stroke-linecap="round" stroke-linejoin="round"/>
</svg>
