<svg width="18" height="19" viewBox="0 0 18 19" fill="none" xmlns="http://www.w3.org/2000/svg">
<path id="upload-04-icon" d="M17 14.9639V17.0929C17 17.3449 16.9103 17.559 16.7308 17.7354C16.5513 17.9118 16.3333 18 16.0769 18H1.92308C1.66667 18 1.44872 17.9118 1.26923 17.7354C1.08974 17.559 1 17.3449 1 17.0929V14.9639C1 14.7119 1.08974 14.4978 1.26923 14.3214C1.44872 14.145 1.66667 14.0568 1.92308 14.0568H5.34205C5.75582 14.0568 6.10785 14.3348 6.38683 14.6428C6.48049 14.7462 6.58712 14.8406 6.70673 14.9261C7.02404 15.1529 7.3782 15.2663 7.76923 15.2663H10.2308C10.6218 15.2663 10.976 15.1529 11.2933 14.9261C11.4129 14.8406 11.5195 14.7462 11.6132 14.6428C11.8921 14.3348 12.2442 14.0568 12.658 14.0568H16.0769C16.3333 14.0568 16.5513 14.145 16.7308 14.3214C16.9103 14.4978 17 14.7119 17 14.9639ZM13.7497 6.06472C13.6407 6.3167 13.4516 6.44269 13.1824 6.44269H10.7208V10.6759C10.7208 10.8397 10.6599 10.9814 10.5381 11.1011C10.4163 11.2208 10.2721 11.2806 10.1054 11.2806H7.6439C7.47724 11.2806 7.33301 11.2208 7.21121 11.1011C7.08942 10.9814 7.02852 10.8397 7.02852 10.6759V6.44269H4.56698C4.29775 6.44269 4.10865 6.3167 3.99967 6.06472C3.8907 5.81904 3.93557 5.60172 4.13429 5.41273L8.44198 1.17953C8.55737 1.05984 8.7016 1 8.87467 1C9.04775 1 9.19198 1.05984 9.30737 1.17953L13.6151 5.41273C13.8138 5.60172 13.8586 5.81904 13.7497 6.06472Z" stroke="black" stroke-width="2" stroke-linejoin="round"/>
</svg>
