<svg width="22" height="22" viewBox="0 0 22 22" fill="none" xmlns="http://www.w3.org/2000/svg">
<path id="users-profiles-x-icon" d="M0.399902 20.5999C0.39984 21.1522 0.847505 21.6 1.39979 21.6C1.95207 21.6001 2.39984 21.1524 2.3999 20.6001L0.399902 20.5999ZM1.40031 16.9996L2.40031 16.9997L1.40031 16.9996ZM12.1999 14.4C12.7522 14.4 13.1999 13.9523 13.1999 13.4C13.1999 12.8477 12.7522 12.4 12.1999 12.4V14.4ZM19.8928 17.1071C20.2833 17.4977 20.9165 17.4977 21.307 17.1071C21.6975 16.7166 21.6975 16.0834 21.307 15.6929L19.8928 17.1071ZM17.4886 11.8745C17.0981 11.484 16.4649 11.484 16.0744 11.8745C15.6839 12.2651 15.6839 12.8982 16.0744 13.2888L17.4886 11.8745ZM16.0745 15.6928C15.684 16.0833 15.684 16.7165 16.0745 17.107C16.465 17.4976 17.0982 17.4976 17.4887 17.107L16.0745 15.6928ZM21.3071 13.2887C21.6976 12.8981 21.6976 12.265 21.3071 11.8744C20.9166 11.4839 20.2834 11.4839 19.8929 11.8744L21.3071 13.2887ZM12.3999 5.00002C12.3999 6.43596 11.2358 7.60002 9.7999 7.60002V9.60002C12.3404 9.60002 14.3999 7.54053 14.3999 5.00002H12.3999ZM9.7999 7.60002C8.36396 7.60002 7.1999 6.43596 7.1999 5.00002H5.1999C5.1999 7.54053 7.25939 9.60002 9.7999 9.60002V7.60002ZM7.1999 5.00002C7.1999 3.56408 8.36396 2.40002 9.7999 2.40002V0.400024C7.25939 0.400024 5.1999 2.45951 5.1999 5.00002H7.1999ZM9.7999 2.40002C11.2358 2.40002 12.3999 3.56408 12.3999 5.00002H14.3999C14.3999 2.45951 12.3404 0.400024 9.7999 0.400024V2.40002ZM2.3999 20.6001L2.40031 16.9997L0.400307 16.9995L0.399902 20.5999L2.3999 20.6001ZM5.00031 12.4C2.46 12.4 0.400593 14.4592 0.400307 16.9995L2.40031 16.9997C2.40047 15.5639 3.56448 14.4 5.00031 14.4V12.4ZM5.00031 14.4H12.1999V12.4H5.00031V14.4ZM21.307 15.6929L19.3978 13.7837L17.9836 15.1979L19.8928 17.1071L21.307 15.6929ZM19.3978 13.7837L17.4886 11.8745L16.0744 13.2888L17.9836 15.1979L19.3978 13.7837ZM17.4887 17.107L19.3978 15.1979L17.9836 13.7837L16.0745 15.6928L17.4887 17.107ZM19.3978 15.1979L21.3071 13.2887L19.8929 11.8744L17.9836 13.7837L19.3978 15.1979Z" fill="black"/>
</svg>
