<svg width="22" height="20" viewBox="0 0 22 20" fill="none" xmlns="http://www.w3.org/2000/svg">
<path id="users-profiles-01-icon" d="M15.0253 18.5707L15.0256 15.3569C15.0258 13.5818 13.5867 12.1426 11.8115 12.1426H4.61432C2.83939 12.1426 1.40046 13.5814 1.40026 15.3563L1.3999 18.5707M20.5996 18.5709L20.5999 15.3571C20.6001 13.5819 19.161 12.1428 17.3858 12.1428M14.4062 2.06048C15.1955 2.64612 15.7071 3.58498 15.7071 4.64331C15.7071 5.70164 15.1955 6.64049 14.4062 7.22613M11.4937 4.64313C11.4937 6.41821 10.0547 7.85719 8.27964 7.85719C6.50457 7.85719 5.06559 6.41821 5.06559 4.64313C5.06559 2.86806 6.50457 1.42908 8.27964 1.42908C10.0547 1.42908 11.4937 2.86806 11.4937 4.64313Z" stroke="black" stroke-width="2" stroke-linecap="round" stroke-linejoin="round"/>
</svg>
