<svg width="20" height="18" viewBox="0 0 20 18" fill="none" xmlns="http://www.w3.org/2000/svg">
<path id="video-off-icon" d="M13.375 9.46833L17.9697 6.29195C18.547 5.97614 18.9391 6.16261 18.9803 6.84596L18.9998 13.494C19.0128 14.1235 18.5069 14.3013 18.0249 13.9996L13.375 10.6151V9.46833ZM13.375 9.46833V7.28571C13.375 6.02335 12.3676 5 11.125 5H10M5.5 5H3.25C2.00736 5 1 6.02335 1 7.28571V13C1 14.2624 2.00736 15.2857 3.25 15.2857H11.125C11.5972 15.2857 12.0353 15.138 12.3972 14.8855M14.5 17L2.6875 1" stroke="black" stroke-width="2" stroke-linecap="round" stroke-linejoin="round"/>
</svg>
