<svg width="22" height="20" viewBox="0 0 22 20" fill="none" xmlns="http://www.w3.org/2000/svg">
<path id="wind-01-icon" d="M8.02097 2.7963C8.38093 1.88579 9.2429 1.24463 10.249 1.24463C11.5787 1.24463 12.6567 2.36459 12.6567 3.74613C12.6567 5.12767 11.5787 6.24763 10.249 6.24763H1.3999M13.024 17.2035C13.3839 18.114 14.2459 18.7551 15.252 18.7551C16.5817 18.7551 17.6597 17.6352 17.6597 16.2536C17.6597 14.8721 16.5817 13.7521 15.252 13.7521H6.4029M15.7835 6.54855C16.1575 5.63804 17.0531 4.99688 18.0984 4.99688C19.4799 4.99688 20.5999 6.11684 20.5999 7.49838C20.5999 8.87992 19.4799 9.99988 18.0984 9.99988H3.9014" stroke="black" stroke-width="2" stroke-linecap="round" stroke-linejoin="round"/>
</svg>
