<svg width="20" height="16" viewBox="0 0 20 16" fill="none" xmlns="http://www.w3.org/2000/svg">
<path id="youtube-icon" d="M12.8132 8.59017L12.2084 7.79381L12.1945 7.80435L12.181 7.81537L12.8132 8.59017ZM12.8132 7.5867L12.1616 8.34523L12.2058 8.38324L12.2542 8.41585L12.8132 7.5867ZM9.36609 4.62535L10.0177 3.86682L9.98991 3.84293L9.96042 3.82114L9.36609 4.62535ZM8.64342 5.06767L9.64341 5.06518L9.64339 5.05768L9.64326 5.05018L8.64342 5.06767ZM8.65787 10.8847L7.65787 10.8872L7.65793 10.9115L7.65917 10.9357L8.65787 10.8847ZM9.40704 11.3695L9.94946 12.2096L9.99617 12.1794L10.0392 12.1443L9.40704 11.3695ZM10 14C8.39751 14 6.68793 13.9993 5.25788 13.8756C4.54284 13.8137 3.93416 13.7239 3.46392 13.6003C2.96071 13.4682 2.75866 13.3329 2.70836 13.2807L1.26867 14.669C1.71262 15.1294 2.36139 15.3786 2.95582 15.5347C3.58322 15.6995 4.31901 15.8018 5.08554 15.8681C6.6186 16.0007 8.42051 16 10 16V14ZM0 8C0 9.62263 -0.00197731 10.9367 0.131864 11.969C0.268965 13.0265 0.564204 13.9385 1.26867 14.669L2.70836 13.2807C2.42431 12.9862 2.22529 12.5606 2.11526 11.7119C2.00198 10.8381 2 9.6772 2 8H0ZM18 8C18 9.6772 17.998 10.8381 17.8847 11.7119C17.7747 12.5606 17.5757 12.9862 17.2916 13.2807L18.7313 14.669C19.4358 13.9385 19.731 13.0265 19.8681 11.969C20.002 10.9367 20 9.62263 20 8H18ZM10 16C11.5795 16 13.3814 16.0007 14.9145 15.8681C15.681 15.8018 16.4168 15.6995 17.0442 15.5347C17.6386 15.3786 18.2874 15.1294 18.7313 14.669L17.2916 13.2807C17.2413 13.3329 17.0393 13.4682 16.5361 13.6003C16.0658 13.7239 15.4572 13.8137 14.7421 13.8756C13.3121 13.9993 11.6025 14 10 14V16ZM10 2C11.6025 2 13.3121 2.00073 14.7421 2.12442C15.4572 2.18626 16.0658 2.27615 16.5361 2.39967C17.0393 2.53184 17.2413 2.6671 17.2916 2.71926L18.7313 1.33099C18.2874 0.870594 17.6386 0.621422 17.0442 0.465284C16.4168 0.300485 15.681 0.198157 14.9145 0.13186C13.3814 -0.000734915 11.5795 0 10 0V2ZM20 8C20 6.37737 20.002 5.06335 19.8681 4.03098C19.731 2.97346 19.4358 2.06155 18.7313 1.33099L17.2916 2.71926C17.5757 3.01383 17.7747 3.43944 17.8847 4.28812C17.998 5.16195 18 6.3228 18 8H20ZM10 0C8.42051 0 6.6186 -0.000734915 5.08554 0.13186C4.31901 0.198157 3.58322 0.300485 2.95582 0.465284C2.36139 0.621422 1.71262 0.870594 1.26867 1.33099L2.70836 2.71926C2.75866 2.6671 2.96071 2.53184 3.46392 2.39967C3.93416 2.27615 4.54284 2.18626 5.25788 2.12442C6.68793 2.00073 8.39751 2 10 2V0ZM2 8C2 6.3228 2.00198 5.16195 2.11526 4.28812C2.22529 3.43944 2.42431 3.01383 2.70836 2.71926L1.26867 1.33099C0.564204 2.06155 0.268965 2.97346 0.131864 4.03098C-0.00197731 5.06335 0 6.37737 0 8H2ZM13.418 9.38653C13.7497 9.13463 14.144 8.69786 14.1432 8.07277C14.1425 7.42875 13.7263 6.99627 13.3722 6.75756L12.2542 8.41585C12.3394 8.47327 12.1436 8.37512 12.1432 8.0751C12.1429 7.79401 12.3175 7.71091 12.2084 7.79381L13.418 9.38653ZM13.4649 6.82817L10.0177 3.86682L8.71445 5.38388L12.1616 8.34523L13.4649 6.82817ZM9.96042 3.82114C9.59609 3.55188 8.98736 3.33671 8.38878 3.66278C7.79225 3.98773 7.63538 4.61694 7.64357 5.08516L9.64326 5.05018C9.64182 4.96762 9.66762 5.24364 9.34551 5.4191C9.02134 5.59569 8.77876 5.43475 8.77175 5.42957L9.96042 3.82114ZM7.64342 5.07015L7.65787 10.8872L9.65787 10.8823L9.64341 5.06518L7.64342 5.07015ZM7.65917 10.9357C7.678 11.3048 7.78362 11.9479 8.35457 12.3037C8.99206 12.7009 9.63565 12.4122 9.94946 12.2096L8.86461 10.5294C8.83011 10.5517 8.86231 10.5221 8.95403 10.5073C9.06238 10.4897 9.23825 10.4978 9.41223 10.6062C9.57496 10.7076 9.63836 10.8361 9.6554 10.8785C9.67123 10.9178 9.66061 10.9129 9.65657 10.8338L7.65917 10.9357ZM10.0392 12.1443L13.4454 9.36497L12.181 7.81537L8.77483 10.5947L10.0392 12.1443Z" fill="black"/>
</svg>
