<svg width="20" height="20" viewBox="0 0 20 20" fill="none" xmlns="http://www.w3.org/2000/svg">
<path id="zoom-in-icon" d="M15.6223 14.3214C15.2253 13.9374 14.5922 13.9479 14.2082 14.3448C13.8242 14.7417 13.8347 15.3748 14.2317 15.7588L15.6223 14.3214ZM17.7048 19.1188C18.1017 19.5028 18.7348 19.4923 19.1188 19.0954C19.5028 18.6985 19.4923 18.0654 19.0954 17.6814L17.7048 19.1188ZM8.4001 12.4001C8.4001 12.9524 8.84781 13.4001 9.4001 13.4001C9.95238 13.4001 10.4001 12.9524 10.4001 12.4001H8.4001ZM10.4001 6.4001C10.4001 5.84781 9.95238 5.4001 9.4001 5.4001C8.84781 5.4001 8.4001 5.84781 8.4001 6.4001H10.4001ZM6.4001 8.4001C5.84781 8.4001 5.4001 8.84781 5.4001 9.4001C5.4001 9.95238 5.84781 10.4001 6.4001 10.4001V8.4001ZM12.4001 10.4001C12.9524 10.4001 13.4001 9.95238 13.4001 9.4001C13.4001 8.84781 12.9524 8.4001 12.4001 8.4001V10.4001ZM16.2801 9.4401C16.2801 13.2177 13.2177 16.2801 9.4401 16.2801V18.2801C14.3223 18.2801 18.2801 14.3223 18.2801 9.4401H16.2801ZM9.4401 16.2801C5.66247 16.2801 2.6001 13.2177 2.6001 9.4401H0.600098C0.600098 14.3223 4.5579 18.2801 9.4401 18.2801V16.2801ZM2.6001 9.4401C2.6001 5.66247 5.66247 2.6001 9.4401 2.6001V0.600098C4.5579 0.600098 0.600098 4.5579 0.600098 9.4401H2.6001ZM9.4401 2.6001C13.2177 2.6001 16.2801 5.66247 16.2801 9.4401H18.2801C18.2801 4.5579 14.3223 0.600098 9.4401 0.600098V2.6001ZM14.2317 15.7588L17.7048 19.1188L19.0954 17.6814L15.6223 14.3214L14.2317 15.7588ZM10.4001 12.4001V9.4001H8.4001V12.4001H10.4001ZM10.4001 9.4001V6.4001H8.4001V9.4001H10.4001ZM6.4001 10.4001H9.4001V8.4001H6.4001V10.4001ZM9.4001 10.4001H12.4001V8.4001H9.4001V10.4001Z" fill="black"/>
</svg>
