<svg xmlns="http://www.w3.org/2000/svg" width="24" height="24" fill="none" viewBox="0 0 24 24">
  <path fill="#0078D7" d="M12.047 19.223c-3.987 0-5.808-2.031-5.808-3.52a1.292 1.292 0 0 1 1.363-1.293c1.707 0 1.26 2.56 4.445 2.56 1.628 0 2.584-.98 2.584-1.9 0-.553-.316-1.185-1.39-1.438l-3.557-.897c-2.856-.727-3.354-2.316-3.354-3.79 0-3.058 2.797-4.164 5.46-4.164 2.454 0 5.37 1.355 5.37 3.189 0 .79-.66 1.213-1.426 1.213-1.458 0-1.213-2.047-4.145-2.047-1.458 0-2.225.684-2.225 1.64 0 .956 1.134 1.28 2.13 1.497l2.624.593c2.876.648 3.643 2.335 3.643 3.951 0 2.486-1.925 4.406-5.718 4.406h.004Zm11.008-5.26c.114-.652.171-1.313.17-1.975A11.23 11.23 0 0 0 10.052.881 6.606 6.606 0 0 0 6.74 0 6.717 6.717 0 0 0 .944 10.04a11.237 11.237 0 0 0 13.008 13.08 6.602 6.602 0 0 0 3.307.881 6.717 6.717 0 0 0 5.796-10.036Z"/>
</svg>
