<svg xmlns="http://www.w3.org/2000/svg" width="24" height="24" fill="none" viewBox="0 0 24 24">
  <path fill="#fff" d="M22.297 17.68c-3.716-1.8-4.309-4.579-4.335-4.785-.032-.25-.068-.446.207-.7.266-.245 1.444-.974 1.77-1.202.54-.378.779-.755.604-1.22-.123-.32-.422-.44-.736-.44-.1 0-.198.01-.295.032-.594.13-1.17.427-1.504.507a.525.525 0 0 1-.122.017c-.178 0-.246-.08-.229-.294.042-.649.13-1.915.028-3.098-.14-1.628-.665-2.435-1.288-3.148-.3-.346-1.699-1.832-4.397-1.832-2.698 0-4.094 1.486-4.393 1.827-.625.714-1.149 1.52-1.288 3.148-.103 1.184-.01 2.45.027 3.1.013.203-.05.292-.228.292a.529.529 0 0 1-.122-.016c-.333-.08-.91-.378-1.503-.507a1.367 1.367 0 0 0-.295-.033c-.316 0-.613.123-.736.442-.175.463.061.84.603 1.218.327.229 1.505.957 1.77 1.203.275.254.24.45.208.7-.026.21-.62 2.988-4.335 4.784-.218.106-.588.33.065.69 1.025.567 1.707.506 2.238.848.45.29.184.915.511 1.141.402.278 1.591-.02 3.128.488 1.287.424 2.07 1.623 4.353 1.623 2.284 0 3.089-1.204 4.354-1.623 1.533-.508 2.724-.21 3.127-.488.327-.226.061-.851.511-1.142.53-.341 1.213-.28 2.239-.847.651-.357.281-.58.063-.685Z"/>
  <path fill="#000" d="M23.914 17.468c-.167-.453-.484-.696-.846-.897a2.096 2.096 0 0 0-.184-.097l-.328-.167c-1.128-.598-2.008-1.352-2.619-2.246a5.096 5.096 0 0 1-.45-.798c-.052-.149-.05-.233-.012-.31a.505.505 0 0 1 .144-.151c.194-.128.394-.258.53-.346.241-.156.432-.28.556-.368.463-.324.787-.668.989-1.052a2.096 2.096 0 0 0 .104-1.741c-.307-.807-1.07-1.309-1.993-1.309a2.744 2.744 0 0 0-.73.097 17.087 17.087 0 0 0-.053-1.708c-.175-2.016-.88-3.073-1.616-3.916a6.437 6.437 0 0 0-1.643-1.322C14.646.499 13.38.175 12 .175s-2.64.324-3.758.962a6.416 6.416 0 0 0-1.646 1.325c-.736.842-1.442 1.901-1.616 3.916a17.32 17.32 0 0 0-.053 1.708 2.743 2.743 0 0 0-.73-.097c-.925 0-1.688.501-1.993 1.308a2.099 2.099 0 0 0 .1 1.743c.204.384.527.729.99 1.052.123.086.315.21.557.368l.508.333a.546.546 0 0 1 .163.164c.04.08.04.166-.018.326a5.046 5.046 0 0 1-.442.78c-.597.875-1.452 1.616-2.543 2.209-.579.306-1.18.511-1.433 1.202-.192.52-.067 1.113.42 1.612.178.186.385.343.613.464.474.26.978.462 1.5.6.108.029.21.075.303.136.177.156.152.39.388.731.119.177.27.33.444.452.496.342 1.053.364 1.642.386.533.02 1.137.044 1.827.271.286.095.583.278.927.491.826.508 1.956 1.203 3.849 1.203 1.892 0 3.03-.699 3.863-1.208.341-.21.636-.391.914-.483.69-.228 1.294-.25 1.827-.271.59-.023 1.146-.044 1.642-.387a1.69 1.69 0 0 0 .505-.552c.17-.288.166-.49.325-.631a.94.94 0 0 1 .285-.13 6.67 6.67 0 0 0 1.52-.606c.242-.13.46-.3.644-.505l.006-.007c.457-.488.571-1.064.384-1.572Zm-1.682.905c-1.026.566-1.707.506-2.238.847-.45.29-.184.916-.511 1.142-.403.278-1.592-.02-3.128.488-1.267.418-2.075 1.623-4.353 1.623-2.279 0-3.068-1.202-4.356-1.627-1.533-.507-2.724-.21-3.127-.487-.327-.226-.061-.852-.511-1.142-.531-.341-1.213-.28-2.239-.844-.653-.361-.282-.584-.065-.69 3.716-1.8 4.31-4.578 4.336-4.784.032-.25.067-.446-.208-.7-.265-.245-1.443-.975-1.77-1.203-.54-.378-.779-.755-.603-1.219.122-.32.422-.441.736-.441.099 0 .198.011.294.033.594.129 1.17.426 1.503.507a.53.53 0 0 0 .123.016c.178 0 .24-.09.228-.293-.038-.65-.13-1.916-.027-3.099.14-1.628.664-2.434 1.287-3.148.3-.343 1.706-1.829 4.394-1.829 2.69 0 4.099 1.48 4.398 1.822.624.713 1.149 1.52 1.288 3.148.102 1.183.014 2.45-.028 3.099-.014.214.05.293.229.293a.525.525 0 0 0 .122-.017c.334-.08.91-.378 1.504-.506.096-.022.195-.033.295-.034.315 0 .613.123.735.442.176.464-.06.841-.602 1.219-.327.228-1.505.957-1.77 1.203-.276.254-.24.45-.208.7.026.209.619 2.987 4.335 4.784.22.11.59.333-.063.697Z"/>
</svg>
