<svg xmlns="http://www.w3.org/2000/svg"
     fill="currentColor"
     viewBox="0 0 24 24">
    <path fill="#000"
          d="M1.4 7.008a1 1 0 1 0 2 0h-2ZM7.008 3.4a1 1 0 1 0 0-2v2Zm9.984-2a1 1 0 1 0 0 2v-2Zm.768 1v-1 1Zm3.84 3.84h-1 1Zm-1 .768a1 1 0 1 0 2 0h-2ZM6.563 19.619a1 1 0 1 0-1.414-1.414l1.414 1.414Zm-4.102 1.274a1 1 0 1 0 1.414 1.414l-1.414-1.414Zm17.664 1.414a1 1 0 0 0 1.414-1.414l-1.414 1.414Zm-1.274-4.102a1 1 0 0 0-1.414 1.414l1.414-1.414Zm-9.144-6.312a1 1 0 0 0-1.414 1.414l1.414-1.414ZM10.8 14.4l-.707.707a1 1 0 0 0 1.414 0L10.8 14.4Zm4.907-3.493a1 1 0 0 0-1.414-1.414l1.414 1.414ZM3.4 7.007V6.24h-2v.768h2ZM6.24 3.4h.768v-2H6.24v2ZM3.4 6.24A2.84 2.84 0 0 1 6.24 3.4v-2A4.84 4.84 0 0 0 1.4 6.24h2ZM16.992 3.4h.768v-2h-.768v2ZM20.6 6.24v.768h2V6.24h-2ZM17.76 3.4a2.84 2.84 0 0 1 2.84 2.84h2a4.84 4.84 0 0 0-4.84-4.84v2ZM5.149 18.205 2.46 20.893l1.414 1.414 2.688-2.688-1.414-1.414Zm16.39 2.688-2.688-2.688-1.414 1.414 2.688 2.688 1.414-1.414Zm-2.091-8.125A7.448 7.448 0 0 1 12 20.216v2a9.448 9.448 0 0 0 9.448-9.448h-2ZM12 20.216a7.448 7.448 0 0 1-7.448-7.448h-2A9.448 9.448 0 0 0 12 22.216v-2Zm-7.448-7.448A7.448 7.448 0 0 1 12 5.32v-2a9.448 9.448 0 0 0-9.448 9.448h2ZM12 5.32a7.448 7.448 0 0 1 7.448 7.448h2A9.448 9.448 0 0 0 12 3.32v2Zm-3.707 7.987 1.8 1.8 1.414-1.414-1.8-1.8-1.414 1.414Zm3.214 1.8 4.2-4.2-1.414-1.414-4.2 4.2 1.414 1.414Z" />
</svg>