<svg xmlns="http://www.w3.org/2000/svg"
     fill="currentColor"
     viewBox="0 0 24 24">
    <path fill="#000"
          d="M19.803 2.806a1 1 0 0 0-1.415 1.414l1.415-1.414Zm1.09 3.919a1 1 0 1 0 1.414-1.415l-1.414 1.415Zm-8.31 2.962a1 1 0 1 0-2 0h2Zm-2 3.618a1 1 0 1 0 2 0h-2ZM8.8.287a1 1 0 0 0 0 2v-2Zm5.287 2a1 1 0 0 0 0-2v2Zm3.467 3.858a1 1 0 1 0 1.414 1.414l-1.414-1.414Zm2.794-1.38.707-.707-.707.707Zm-9.765 4.922v3.618h2V9.687h-2ZM8.8 2.287h5.287v-2H8.8v2ZM18.968 7.56l2.087-2.087-1.414-1.414-2.087 2.087 1.414 1.414Zm.797 5.972a8.183 8.183 0 0 1-8.183 8.182v2c5.624 0 10.183-4.559 10.183-10.182h-2Zm-8.183 8.182A8.183 8.183 0 0 1 3.4 13.531h-2c0 5.623 4.559 10.182 10.183 10.182v-2ZM3.4 13.531a8.183 8.183 0 0 1 8.182-8.183v-2C5.96 3.348 1.4 7.907 1.4 13.531h2Zm8.182-8.183a8.183 8.183 0 0 1 8.183 8.183h2c0-5.624-4.559-10.183-10.183-10.183v2Zm6.806-1.128 1.253 1.252 1.414-1.414-1.252-1.252-1.415 1.414Zm1.253 1.252 1.252 1.253 1.414-1.415-1.252-1.252-1.414 1.414Z" />
</svg>