<svg xmlns="http://www.w3.org/2000/svg"
     fill="currentColor"
     viewBox="0 0 24 24">
    <path fill="#000"
          d="m15.6 12.81-.546-.839-.014.01-.014.009.573.82Zm0-1.377-.594.805.045.033.048.028.5-.866Zm-5.516-4.061.593-.805-.028-.021-.03-.019-.535.845Zm-1.156.606 1-.002v-.018l-1 .02Zm.023 7.978-1 .003v.028l.002.029.998-.06Zm1.198.665.485.875.046-.025.043-.03-.574-.82ZM12 20.6A8.6 8.6 0 0 1 3.4 12h-2c0 5.854 4.746 10.6 10.6 10.6v-2Zm8.6-8.6a8.6 8.6 0 0 1-8.6 8.6v2c5.854 0 10.6-4.746 10.6-10.6h-2ZM12 3.4a8.6 8.6 0 0 1 8.6 8.6h2c0-5.854-4.746-10.6-10.6-10.6v2Zm0-2C6.146 1.4 1.4 6.146 1.4 12h2A8.6 8.6 0 0 1 12 3.4v-2Zm4.145 12.247c.434-.282.983-.787.982-1.547 0-.783-.578-1.273-1.027-1.533L15.099 12.3c.105.06.124.092.11.073a.452.452 0 0 1-.082-.27c0-.143.056-.228.065-.24.004-.005-.027.037-.138.11l1.09 1.675Zm.047-3.02-5.515-4.06-1.186 1.61 5.515 4.061 1.186-1.61Zm-5.573-4.1c-.47-.298-1.131-.469-1.756-.177-.68.318-.948 1.002-.935 1.649l2-.04c-.002-.06.01-.04-.02.018a.434.434 0 0 1-.2.185c-.185.087-.26-.01-.16.055l1.071-1.69ZM7.928 7.981l.023 7.978 2-.006-.023-7.977-2 .005Zm.025 8.035c.031.534.217 1.246.888 1.604.66.353 1.347.123 1.793-.124l-.969-1.75c-.099.055-.138.058-.122.056a.42.42 0 0 1 .24.054c.12.064.172.152.185.179.008.017-.012-.017-.019-.138l-1.996.119Zm2.77 1.425 5.45-3.812-1.147-1.64-5.45 3.813 1.147 1.639Z" />
</svg>