<svg width="24" height="24" viewBox="0 0 24 24" fill="none" xmlns="http://www.w3.org/2000/svg">
<path fill-rule="evenodd" clip-rule="evenodd" d="M5.13164 2.15872C4.27324 2.75894 3.49702 3.46859 2.82319 4.26744C5.57678 4.0118 9.0751 4.42923 13.1366 6.46001C17.4738 8.62853 20.9663 8.70185 23.3969 8.23301C23.1763 7.56527 22.8986 6.92351 22.5698 6.31343C19.7874 6.60689 16.2204 6.21845 12.0633 4.13999C9.42358 2.82011 7.09666 2.2764 5.13164 2.15872ZM20.9444 3.99999C18.7472 1.545 15.554 0 12 0C10.9563 0 9.9436 0.133264 8.9782 0.383688C10.2857 0.740451 11.6747 1.26239 13.1366 1.99336C16.1802 3.51512 18.8078 4.0051 20.9444 3.99999ZM23.9165 10.5769C20.9801 11.1567 16.9253 11.0376 12.0633 8.60663C7.51798 6.33395 3.90026 6.36257 1.46034 6.90479C1.3344 6.93275 1.21142 6.96215 1.09142 6.99275C0.771972 7.68749 0.516981 8.41805 0.334021 9.17669C0.529432 9.12449 0.731359 9.07487 0.939697 9.02855C3.89974 8.37077 8.08204 8.39933 13.1366 10.9267C17.682 13.1993 21.2997 13.1707 23.7397 12.6285C23.8233 12.61 23.9057 12.5908 23.9867 12.571C23.9956 12.3818 24 12.1914 24 12C24 11.5185 23.9717 11.0436 23.9165 10.5769ZM23.5949 15.1034C20.687 15.6118 16.7502 15.4166 12.0633 13.0733C7.51798 10.8006 3.90026 10.8292 1.46034 11.3714C0.918751 11.4917 0.431544 11.6383 0.001758 11.7931C0.000586201 11.8619 0 11.9309 0 12C0 18.6274 5.37258 24 12 24C17.5542 24 22.2272 20.2265 23.5949 15.1034Z" fill="#7F57F1"/>
</svg>
