<svg xmlns="http://www.w3.org/2000/svg" width="24" height="24" fill="none" viewBox="0 0 24 24">
  <path fill="#F7931A" d="M23.64 14.903c-1.602 6.428-8.114 10.34-14.544 8.738C2.669 22.038-1.244 15.527.359 9.098 1.962 2.67 8.473-1.244 14.902.36c6.43 1.603 10.342 8.115 8.739 14.544Z"/>
  <path fill="#fff" fill-rule="evenodd" d="M17.469 10.432c.25-1.68-1.021-2.585-2.76-3.188l.565-2.277-1.377-.346-.548 2.218a66.09 66.09 0 0 0-1.103-.262l.553-2.232L11.423 4l-.564 2.277c-.3-.07-.593-.137-.879-.208l.002-.008-1.898-.477-.366 1.48s1.02.236 1 .251c.557.14.657.512.64.806l-.641 2.595c.038.01.088.024.143.046l-.047-.012-.099-.024-.9 3.634c-.068.17-.24.427-.63.33.013.02-1-.252-1-.252L5.5 16.025l1.79.45c.201.05.399.102.594.153l.388.102-.57 2.303 1.375.345.564-2.279c.376.103.74.198 1.097.287l-.562 2.268 1.376.346.57-2.3c2.346.448 4.111.268 4.854-1.87.599-1.722-.03-2.715-1.265-3.362.9-.21 1.577-.805 1.758-2.036Zm-3.145 4.442c-.39 1.58-2.845.926-3.968.627l-.268-.07.756-3.051c.093.023.208.05.338.078 1.161.263 3.541.801 3.142 2.416Zm-2.909-3.832c.937.252 2.979.8 3.334-.635.364-1.468-1.621-1.91-2.59-2.127a8.673 8.673 0 0 1-.284-.065l-.685 2.768c.064.016.14.036.225.06Z" clip-rule="evenodd"/>
</svg>
