<svg xmlns="http://www.w3.org/2000/svg" width="24" height="24" fill="none" viewBox="0 0 24 24">
  <circle cx="12" cy="12" r="12" fill="#0033AD"/>
  <path fill="#fff" d="M8.384 11.944A1.09 1.09 0 0 0 9.399 13.1h.058c.587 0 1.066-.478 1.076-1.073a1.086 1.086 0 0 0-1.036-1.112 1.083 1.083 0 0 0-1.116 1.03l.003-.001Zm-4.017-.277a.35.35 0 0 0-.366.332.351.351 0 0 0 .327.372.35.35 0 0 0 .367-.332.355.355 0 0 0-.087-.255.345.345 0 0 0-.24-.117ZM8.316 5.6a.356.356 0 0 0 .152-.474A.346.346 0 0 0 8 4.97a.356.356 0 0 0 .049.652c.088.03.184.021.267-.021ZM9.41 7.534a.55.55 0 0 0 .237-.733.534.534 0 0 0-.722-.242.55.55 0 0 0 .074 1.006.531.531 0 0 0 .41-.03Zm-3.679 1.33c.15.1.344.099.493-.003a.453.453 0 0 0-.167-.814.44.44 0 0 0-.453.195.454.454 0 0 0 .127.622Zm.656 2.604a.54.54 0 0 0-.568.514c-.017.3.21.558.507.576a.54.54 0 0 0 .567-.514.544.544 0 0 0-.506-.576Zm-.597 3.669a.453.453 0 0 0-.195.604.44.44 0 0 0 .595.2.453.453 0 0 0-.061-.83.437.437 0 0 0-.339.026Zm2.09-4.797a.628.628 0 0 0 .877-.186.648.648 0 0 0-.182-.89.628.628 0 0 0-.877.185.65.65 0 0 0 .182.89Zm6.636-2.849a.534.534 0 0 0 .745-.159.551.551 0 0 0-.156-.756.534.534 0 0 0-.745.159.552.552 0 0 0 .156.756Zm1.104-1.927a.345.345 0 0 0 .388-.004.356.356 0 0 0-.132-.64.346.346 0 0 0-.356.154.357.357 0 0 0 .1.49Zm-1.02 5.339a1.083 1.083 0 0 0-1.137 1.029c-.034.603.42 1.12 1.014 1.154h.062c.425 0 .81-.253.983-.647a1.105 1.105 0 0 0-.18-1.174 1.058 1.058 0 0 0-.742-.362Zm-4.837-.639a1.071 1.071 0 0 0 1.88.08c.197-.323.213-.727.044-1.066A1.072 1.072 0 0 0 9.81 9.2a1.107 1.107 0 0 0-.046 1.064Zm8.447-1.401a.453.453 0 0 0 .195-.604.44.44 0 0 0-.595-.199.453.453 0 0 0-.196.604.44.44 0 0 0 .595.2Zm-2.733.348a.647.647 0 0 0-.28.863.63.63 0 0 0 .85.285.647.647 0 0 0-.086-1.184.624.624 0 0 0-.484.036ZM11.96 5.399c.178.01.346-.09.423-.254a.455.455 0 0 0-.068-.495.439.439 0 0 0-.477-.125.449.449 0 0 0-.296.4.447.447 0 0 0 .417.474Zm-.007 2.83c.35.02.648-.251.668-.605a.64.64 0 0 0-.596-.678.637.637 0 0 0-.668.605.64.64 0 0 0 .596.678Zm-3.431 6.56a.644.644 0 0 0 .346-.622.64.64 0 0 0-.433-.562.627.627 0 0 0-.678.19.65.65 0 0 0-.086.71.63.63 0 0 0 .851.284Zm3.842-5.623c-.27.419-.226.97.107 1.339.334.368.871.46 1.305.222.434-.237.654-.743.533-1.228a1.08 1.08 0 0 0-1.043-.826c-.364 0-.703.185-.902.493Zm1.872 4.571a1.071 1.071 0 0 0-1.292-.548 1.094 1.094 0 0 0-.734 1.21c.083.531.534.923 1.064.923.17-.001.335-.042.486-.12a1.1 1.1 0 0 0 .476-1.465Zm1.882-.077a.628.628 0 0 0-.877.185.648.648 0 0 0 .182.89.628.628 0 0 0 .877-.184.65.65 0 0 0-.182-.89Zm2.062-1.641a.543.543 0 0 0-.506-.576.54.54 0 0 0-.568.514c-.017.3.21.559.507.576a.541.541 0 0 0 .568-.514Zm1.491-.389a.348.348 0 0 0-.334.2.357.357 0 0 0 .054.388.345.345 0 0 0 .375.099.353.353 0 0 0 .233-.314.352.352 0 0 0-.328-.373Zm-1.403 3.506a.44.44 0 0 0-.613.13.454.454 0 0 0 .127.622.44.44 0 0 0 .614-.13.456.456 0 0 0-.128-.622Zm-9.888 3.3a.345.345 0 0 0-.483.102.357.357 0 0 0 .1.49c.16.107.377.061.483-.102a.358.358 0 0 0-.1-.49Zm7.304-.036a.354.354 0 0 0 .048.65.345.345 0 0 0 .373-.104.358.358 0 0 0-.155-.567.343.343 0 0 0-.266.02Zm-4.048-3.568c.27-.419.226-.97-.107-1.339a1.066 1.066 0 0 0-1.305-.222A1.099 1.099 0 0 0 9.69 14.5c.12.485.55.825 1.044.825.363.002.703-.184.902-.493ZM9.483 16.51a.533.533 0 0 0-.745.157.55.55 0 0 0 .156.756.533.533 0 0 0 .744-.158.551.551 0 0 0-.155-.756Zm2.511 2.091a.446.446 0 0 0-.468.424.447.447 0 0 0 .417.474.446.446 0 0 0 .468-.423.453.453 0 0 0-.112-.325.44.44 0 0 0-.305-.15ZM12 15.772a.632.632 0 0 0-.608.36.65.65 0 0 0 .096.708c.17.195.44.265.682.18a.641.641 0 0 0 .424-.57.639.639 0 0 0-.594-.678Zm2.59.694a.548.548 0 0 0 .077 1.006.534.534 0 0 0 .576-.164.553.553 0 0 0-.243-.875.53.53 0 0 0-.41.033Z"/>
</svg>
