<svg xmlns="http://www.w3.org/2000/svg" width="24" height="24" fill="none" viewBox="0 0 24 24">
  <circle cx="12" cy="12" r="12" fill="#0066ED"/>
  <path fill="#fff" fill-rule="evenodd" d="M11.83 4.008c.842.643 1.949 2.619 1.949 4.916 0 1.145-.838 2.248-1.713 3.399-1.02 1.343-2.09 2.75-1.934 4.364.117 1.205.615 2.101.923 2.656.325.586.439.79-.336.572-2.693-.757-5.338-4.855-2.494-8.592.26-.343.567-.667.888-1.007 1.196-1.266 2.601-2.753 2.656-6.25l.001-.003c-.005-.092.056-.057.06-.055Zm3.182 6.435c.017-.029.042-.02.06-.009.558.484 2.128 2.15 1.907 4.792-.23 2.729-2.342 3.926-2.43 3.971-.782.396-.806.786-.896.802-.04.008-.094-.059-.233-.23-.777-.963-2.16-2.757.267-6.477.715-1.097 1.279-2.29 1.325-2.85Z" clip-rule="evenodd"/>
</svg>
