<svg xmlns="http://www.w3.org/2000/svg" width="35" height="25" fill="none" viewBox="0 0 35 25">
  <g clip-path="url(#a)">
    <path fill="#DB3E00" d="M0 .2h35v24H0V.2Z"/>
    <path fill="#479900" d="M22.582.2h12.417v24H22.582V.2Z"/>
    <path fill="#000" d="M0 .2h12.403v24H0V.2Z"/>
    <path fill="#fff" d="M17.466 9.092c-1.324 0-2.402 1.109-2.402 2.47v3.705h4.804v-3.705c0-1.368-1.078-2.47-2.402-2.47Z"/>
    <path fill="#fff" d="M17.465 6.116c-3.254 0-5.895 2.716-5.895 6.064 0 3.347 2.64 6.056 5.895 6.056 3.254 0 5.895-2.716 5.895-6.063 0-3.348-2.64-6.057-5.895-6.057Zm0 11.067c-2.688 0-4.871-2.245-4.871-5.01 0-2.765 2.183-5.01 4.871-5.01 2.688 0 4.871 2.245 4.871 5.01 0 2.771-2.183 5.01-4.871 5.01Z"/>
  </g>
  <defs>
    <clipPath id="a">
      <rect width="35" height="24" y=".201" fill="#fff" rx="4"/>
    </clipPath>
  </defs>
</svg>
