<svg xmlns="http://www.w3.org/2000/svg" width="35" height="25" fill="none" viewBox="0 0 35 25">
  <g clip-path="url(#a)">
    <path fill="#00318B" d="M0 .501h35v24H0v-24Z"/>
    <path fill="#fff" d="M31.028 19.125a4.817 4.817 0 0 0 .904-2.837V7.862a4.003 4.003 0 0 1-2.458.843c-1.34 0-2.529-.662-3.277-1.685a4.053 4.053 0 0 1-3.277 1.685 4.005 4.005 0 0 1-2.457-.842v8.425c0 1.134.361 2.07.903 2.837h9.662Z"/>
    <path fill="#8DCCFF" d="M21.166 18.816c1.53 2.525 5.033 3.37 5.033 3.37s3.503-.845 5.033-3.37H21.166Z"/>
    <path fill="#D87B00" d="M27.062 12.586c.022.1.595.714 1.198 1.414.095.11-.596.887-.472.884.325-.008 1.315-1.211 1.32.467.003 1.118-2.047 1.93-2.047 1.93h1.192l.044 1.05s.34-.936.518-1.163c.553-.7 1.377-2.11 2.36-1.902.983.209-.932-.976-.932-.976s-.354-1.066-1.134-1.191c-.687-.11-.975-.177-1.818-.513-.114-.045-.265-.162-.23 0Z"/>
    <path fill="#D87B00" d="M24.54 14.445c.073-.07.304-.887.593-1.774.046-.14 1.044.089.979-.021-.169-.285-1.677-.568-.266-1.41.94-.561 2.648.861 2.648.861L27.9 11.04l.863-.563s-.959.164-1.238.118c-.865-.143-2.465-.174-2.78-1.154-.315-.98-.358 1.318-.358 1.318s-.72.848-.437 1.606c.25.667.338.957.476 1.876.02.125-.005.318.115.205Z"/>
    <path fill="#D87B00" d="M26.994 15.93c-.094-.03-.897.176-1.788.364-.14.03-.45-.974-.51-.86-.155.293.366 1.776-1.051.944-.945-.555-.607-2.788-.607-2.788l-.594 1.062-.907-.484s.62.77.721 1.042c.314.84 1.092 2.28.426 3.051-.666.773 1.288-.343 1.288-.343s1.075.215 1.57-.419c.435-.557.634-.781 1.337-1.365.098-.078.271-.153.115-.203Z"/>
    <path fill="#fff" d="M17.5.501h-1.576l-5.008 3.432V.501H6.55v3.432L1.542.501H0v1.593L3.145 4.25H0v4.49h3.145L0 10.894v1.607h1.542L6.55 9.05v3.453h4.366V9.049l5.008 3.453H17.5v-1.608L14.32 8.74h3.18V4.25h-3.18l3.18-2.155V.501Z"/>
    <path fill="#D80027" d="M9.825.501H7.64v4.87H0v2.246h7.641v4.885h2.184V7.617H17.5V5.372H9.825V.502Z"/>
    <path fill="#D80027" d="M0 12.501v-.793L4.264 8.74h1.542L.498 12.501H0ZM.498.508l5.308 3.734H4.264L0 1.28V.508h.498Zm17.002 0v.772l-4.298 2.97H11.66L16.968.51h.532Zm-.532 11.993L11.66 8.74h1.542l4.298 2.968v.793h-.532Z"/>
  </g>
  <defs>
    <clipPath id="a">
      <rect width="35" height="24" y=".501" fill="#fff" rx="4"/>
    </clipPath>
  </defs>
</svg>
