<svg xmlns="http://www.w3.org/2000/svg" width="35" height="25" fill="none" viewBox="0 0 35 25">
  <g clip-path="url(#a)">
    <path fill="#000" d="M0 12.936h35v12H0v-12Z"/>
    <path fill="#D80027" d="M0 .936h35v12H0v-12Z"/>
    <path fill="#FFDA44" d="m22.698 10.452 1.194-.604-.505-1.333-1.276.435.587 1.502Zm-3.11-3.93.374-1.32-1.303-.504-.546 1.263 1.474.561Zm2.005 1.628.832-1.074-1.016-.975-.969.954 1.153 1.095Zm1.324 4.835 1.33-.056v-1.495l-1.562.014.232 1.537Zm-.86 2.674 1.283.386.498-1.334-1.229-.56-.552 1.508Zm-1.979 2.274 1.017.89.982-1.01-.893-1.031-1.106 1.15ZM16.872 7.568l.668 1.396 1.495.232-1.085 1.088.245 1.536-1.337-.73-1.344.716.26-1.537-1.079-1.087 1.501-.218.676-1.396Z"/>
    <path fill="#FFDA44" d="m17.111 5.238-.184 1.284c2.94.225 5.253 2.75 5.253 5.832 0 3.228-2.545 5.817-5.69 5.852-1.992.021-3.5-1.038-4.571-2.365l-.948.864c1.023 1.333 2.783 2.8 5.52 2.8 3.84 0 6.951-3.2 6.951-7.151.007-3.734-2.776-6.8-6.33-7.116Z"/>
    <path fill="#000" d="m19.914 16.613-.805.983s3.541 2.73 3.657 2.835c.116.105.355.14.621-.19.253-.315.191-.568.062-.68-.137-.106-3.535-2.948-3.535-2.948Z"/>
    <path fill="#FFDA44" d="M14.062 11.968c-.525.723-.511 1.62.191 2.168 0 0 9.224 7.123 9.34 7.228.116.105.355.14.621-.19.253-.315.191-.568.062-.68-.13-.105-10.214-8.526-10.214-8.526Zm3.255 6.954.498 1.277 1.33-.42-.327-1.341-1.501.484Zm-2.757-.26-.136 1.369 1.371.253.307-1.34-1.542-.281Zm-2.435-1.487-.703 1.165 1.119.849.853-1.067-1.27-.947Z"/>
  </g>
  <defs>
    <clipPath id="a">
      <rect width="35" height="24" y=".936" fill="#fff" rx="4"/>
    </clipPath>
  </defs>
</svg>
