<svg xmlns="http://www.w3.org/2000/svg" width="35" height="25" fill="none" viewBox="0 0 35 25">
  <g clip-path="url(#a)">
    <path fill="#10338C" d="M0 .076h35v24H0v-24Z"/>
    <path fill="#fff" d="M15.16 12.055c.02-.021.034-.043.055-.064a.452.452 0 0 1-.055.064Zm-2.333 2.94.75 1.607 1.686-.4-.75 1.6 1.357 1.109-1.692.393.007 1.782-1.358-1.116-1.35 1.116.006-1.782-1.692-.393 1.358-1.109-.758-1.6 1.692.4.744-1.607Zm13.502 2 .355.765.805-.19-.362.765.648.527-.805.182v.856l-.641-.533-.648.533.007-.856-.805-.182.648-.527-.362-.765.805.19.355-.765Zm-3.316-8.14.355.765.805-.19-.361.765.648.526-.805.19v.849l-.642-.534-.648.534.007-.85-.812-.189.648-.526-.361-.765.805.19.361-.765Zm3.316-4.646.355.765.805-.19-.362.765.648.527-.805.19v.848l-.641-.533-.648.533.007-.849-.805-.19.648-.526-.362-.765.805.19.355-.765Zm2.9 3.488.354.765.806-.19-.362.765.648.526-.805.183v.856l-.641-.533-.648.533v-.856l-.806-.183.649-.526-.362-.765.805.19.362-.765Zm-2.074 4.063.28.891h.907l-.737.547.286.892-.736-.555-.737.555.28-.892-.73-.547h.907l.28-.891Z"/>
    <path fill="#fff" d="M17.384.076v2.147l-3.077 1.761h3.077v4.162h-4.032l4.032 2.302v1.607h-1.822l-5.014-2.87v2.87H6.754v-3.41l-5.963 3.41h-.873V9.907l3.084-1.761H-.082V3.984H3.95L-.082 1.676v-1.6H1.74l5.014 2.863V.076h3.794v3.41l5.97-3.41h.866Z"/>
    <path fill="#D80027" d="M9.743.076H7.559v4.863H-.082v2.245h7.641v4.87h2.184v-4.87h7.64V4.94h-7.64V.076Z"/>
    <path fill="#0052B4" d="m10.547 8.146 6.836 3.909v-1.11l-4.898-2.8h-1.938Z"/>
    <path fill="#fff" d="m10.547 8.146 6.836 3.909v-1.11l-4.898-2.8h-1.938Z"/>
    <path fill="#D80027" d="m10.548 8.146 6.836 3.909v-1.11l-4.899-2.8h-1.937Zm-5.725 0-4.905 2.8v1.109l6.836-3.91h-1.93Z"/>
    <path fill="#0052B4" d="M6.754 3.984-.082.076v1.101l4.905 2.807h1.931Z"/>
    <path fill="#fff" d="M6.754 3.984-.082.076v1.101l4.905 2.807h1.931Z"/>
    <path fill="#D80027" d="M6.754 3.984-.082.076v1.101l4.905 2.807h1.931Zm5.731 0 4.899-2.807V.076l-6.836 3.908h1.937Z"/>
  </g>
  <defs>
    <clipPath id="a">
      <rect width="35" height="24" y=".076" fill="#fff" rx="4"/>
    </clipPath>
  </defs>
</svg>
