<svg xmlns="http://www.w3.org/2000/svg" width="35" height="25" fill="none" viewBox="0 0 35 25">
  <g clip-path="url(#a)">
    <path fill="#fff" d="M0 .669h35v24H0v-24Z"/>
    <path fill="#E6BC00" d="M10.753 14.715s-.618 3.089-1.32 2.84c-.726-.25-1.198-1.32-1.198-1.32l-.993 1.494s2.61.596 2.804.385c.083-.08.561-1.062.707-1.832v-1.567Zm-3.837 4.259s-.17 1.419-.072 1.593c.085.162 2.699.797 2.699.797S7.836 22.52 7.51 22.808l-1.235-2.104-.048-1.73h.69Zm.775-11.65s2.71 2.925 2.759 3.199c.048.261-.29.224-.29.224S7.096 8.108 6.746 7.859c-.363-.25.944-.536.944-.536Z"/>
    <path fill="#ADADAD" d="M6.796 8.033s1.162-.05 1.138-.81c-.024-.746-.762-1.045-1.307-.87-.545.161-1.573.945-.932 2.464.641 1.506 1.598 2.066 1.791 3.36 0 0-.373.694-1.307.025-1.155-.827-.424-2.688-.713-3.16-.291-.499-2.8-2.738-2.8-2.738S.6 9.073 1.436 11.572c1.158 3.46 3.537 2.249 4.416 2.585 0 0-2.88 4.357-3.388 4.717 0 0 1.646.585 3.267-1.319 0 0 .4.685.484 1.42h.702c.327-1.843 3.522-4.52 3.413-5.789-.121-1.494-3.364-3.473-3.534-5.153Z"/>
    <path fill="#E6BC00" d="M24.552 14.821s.612 2.983 1.314 2.734c.726-.248 1.199-1.319 1.199-1.319l.992 1.494s-2.53.596-2.723.384c-.082-.08-.637-.97-.787-1.733l.005-1.56Zm3.831 4.153s.17 1.419.073 1.593c-.085.162-2.7.797-2.7.797s1.707 1.157 2.034 1.444l1.234-2.104.049-1.73h-.69Zm-.774-11.65s-2.71 2.925-2.76 3.199c-.048.261.291.224.291.224s3.062-2.639 3.413-2.888c.351-.25-.944-.536-.944-.536Z"/>
    <path fill="#125ECC" d="M10.754 6.79h13.794v10.228c0 1.13-.662 1.504-1.498 2.24l-3.139 2.77c-1.247 1.1-3.275 1.096-4.516 0l-3.145-2.772c-.826-.727-1.496-1.104-1.496-2.237V6.791Z"/>
    <path fill="#FFE600" d="M13.71 11.055c-.545 0-.985-.454-.985-1.013 0-.56.44-1.013.985-1.013.544 0 .985.453.985 1.013 0 .56-.441 1.013-.985 1.013Zm3.94-.21c-.544 0-.984-.455-.984-1.014 0-.56.44-1.013.985-1.013.544 0 .985.453.985 1.013 0 .56-.441 1.013-.985 1.013Zm3.942.21c-.545 0-.986-.454-.986-1.013 0-.56.441-1.013.985-1.013a1 1 0 0 1 .986 1.013 1 1 0 0 1-.986 1.013Zm-6.897 8.91c-.544 0-.985-.453-.985-1.013 0-.56.44-1.013.985-1.013.544 0 .985.453.985 1.013a.999.999 0 0 1-.985 1.013Zm2.956 1.014c-.545 0-.985-.453-.985-1.013 0-.56.44-1.013.985-1.013.544 0 .985.453.985 1.013 0 .559-.441 1.013-.985 1.013Zm2.955-1.014c-.544 0-.985-.453-.985-1.013 0-.56.441-1.013.985-1.013.545 0 .985.453.985 1.013 0 .56-.44 1.013-.985 1.013Z"/>
    <path fill="#D60537" d="M10.754 12.999h13.794v4.054H10.754v-4.054Z"/>
    <path fill="#EACE00" d="M9.768 3.75s3.94-1.013 7.882-1.013c3.942 0 7.883 1.013 7.883 1.013l-.985 4.054S21.098 6.79 17.65 6.79c-3.448 0-6.897 1.014-6.897 1.014L9.768 3.75Z"/>
    <path fill="#7A6920" d="M17.65 5.777c-.544 0-.984-.453-.984-1.013 0-.56.44-1.013.985-1.013.544 0 .985.453.985 1.013 0 .56-.441 1.013-.985 1.013Zm3.942.352c-.545 0-.986-.454-.986-1.013 0-.56.441-1.014.985-1.014.545 0 .986.454.986 1.014a1 1 0 0 1-.986 1.013Zm-7.882 0c-.545 0-.985-.454-.985-1.013 0-.56.44-1.014.985-1.014.544 0 .985.454.985 1.014s-.441 1.013-.985 1.013Z"/>
    <path fill="#ADADAD" d="M24.956 13.186c-.109 1.27 3.086 3.946 3.412 5.788h.702c.085-.734.484-1.419.484-1.419 1.622 1.905 3.268 1.32 3.268 1.32-.509-.361-3.389-4.718-3.389-4.718.88-.336 3.26.876 4.417-2.585.837-2.5-1.23-5.268-1.23-5.268s-2.51 2.24-2.8 2.737c-.29.473.442 2.335-.713 3.161-.934.669-1.307-.024-1.307-.024.193-1.295 1.15-1.855 1.79-3.361.642-1.519-.386-2.303-.931-2.465-.545-.174-1.283.125-1.307.871-.024.76 1.137.81 1.137.81-.17 1.68-3.412 3.659-3.533 5.153Z"/>
    <path fill="#fff" d="M17.65 16.216c.639 0 1.157-.533 1.157-1.19 0-.657-.518-1.19-1.157-1.19-.64 0-1.158.533-1.158 1.19 0 .658.518 1.19 1.157 1.19Z"/>
  </g>
  <defs>
    <clipPath id="a">
      <rect width="35" height="24" y=".669" fill="#fff" rx="4"/>
    </clipPath>
  </defs>
</svg>
