<svg xmlns="http://www.w3.org/2000/svg" width="35" height="25" fill="none" viewBox="0 0 35 25">
  <g clip-path="url(#a)">
    <path fill="#FFDA44" d="M0 .9h35v24H0V.9Z"/>
    <path fill="#000" d="m0 14.522 35 8.943v-7.5L0 7.725v6.797Z"/>
    <path fill="#fff" d="M35 17.37v-6.093L0 2.334V8.43"/>
    <path fill="#D80027" stroke="#231F20" stroke-miterlimit="10" stroke-width="3" d="M20.944 10.322c.273.519.416 1.1.415 1.69 0 1.514-.924 2.807-2.223 3.317v-4.184c.39-.084.683-.448.683-.885.472 0 .855-.405.855-.904h-.029a.903.903 0 0 0 .883-.903h-2.392V6.284L18.11 4.336l-1.025 1.948v2.169h-2.392c0 .499.41.903.882.903h-.028c0 .5.383.904.854.904 0 .437.293.801.683.885v4.315c-1.51-.379-2.63-1.779-2.63-3.449 0-.612.15-1.187.415-1.689a4.42 4.42 0 0 0-1.212 3.055c0 2.413 1.902 4.37 4.249 4.37 2.346 0 4.248-1.957 4.248-4.37a4.421 4.421 0 0 0-1.211-3.055Z"/>
    <path fill="#D80027" stroke="#231F20" stroke-miterlimit="10" stroke-width="3" d="M13.566 16.847s1.414 1.949 4.546 1.949c3.131 0 4.546-1.949 4.546-1.949l.92 1.995s-1.437 1.949-5.466 1.949c-4.03 0-5.467-1.949-5.467-1.949l.92-1.995Zm-4.732-6.583h1.427l1.705 1.917v5.164h-1.797v-4.807l-1.335-2.274Zm18.509 0h-1.427L24.21 12.18v5.164h1.796v-4.807l1.336-2.274Z"/>
  </g>
  <defs>
    <clipPath id="a">
      <rect width="35" height="24" y=".899" fill="#fff" rx="4"/>
    </clipPath>
  </defs>
</svg>
