<svg xmlns="http://www.w3.org/2000/svg" width="35" height="25" fill="none" viewBox="0 0 35 25">
  <g clip-path="url(#a)">
    <path fill="green" d="M0 .234h35v24H0v-24Z"/>
    <path fill="#FFDA44" d="m28.895 17.983.424.9.944-.225-.424.9.766.619-.95.224v.999l-.76-.626-.758.626v-.998l-.944-.226.76-.618-.425-.9.95.225.417-.9ZM25.71 8.398l.424.907.943-.225-.424.9.766.619-.95.218v1.005l-.759-.625-.759.626.007-1.006-.95-.218.759-.619-.424-.9.95.225.417-.907Zm2.53-5.47.423.9.943-.226-.423.9.765.626-.95.218v.999l-.759-.626-.759.626.007-.999-.95-.218.759-.626-.424-.9.95.225.417-.9Zm3.54 4.106.424.9.95-.225-.43.9.765.626-.95.218.007.998-.766-.626-.759.626.007-.998-.95-.218.766-.626-.43-.9.95.225.416-.9Zm-1.914 4.788.335 1.041h1.067l-.862.647.328 1.048-.868-.647-.861.647.328-1.048-.861-.647h1.066l.328-1.04Zm-8.893 6.322c-3.364 0-6.091-2.805-6.091-6.265 0-3.46 2.727-6.266 6.09-6.266 1.047 0 2.038.275 2.9.753a7.387 7.387 0 0 0-5.244-2.194c-4.136 0-7.492 3.452-7.492 7.707 0 4.254 3.356 7.714 7.492 7.714 2.037 0 3.89-.837 5.236-2.201a5.938 5.938 0 0 1-2.891.752ZM9.598 4.418c-.732-1.301-2.099-2.173-3.664-2.173-1.566 0-2.926.872-3.658 2.173h7.322Zm.013.028L5.934 8.229 2.263 4.446a4.443 4.443 0 0 0-.554 2.152c0 2.405 1.894 4.353 4.231 4.353 2.338 0 4.232-1.948 4.232-4.353a4.525 4.525 0 0 0-.56-2.152Z"/>
    <path fill="#A2001D" d="M4.88 7.14v3.67c.336.091.691.134 1.06.134.37 0 .718-.05 1.06-.134V7.14H4.88Z"/>
  </g>
  <defs>
    <clipPath id="a">
      <rect width="35" height="24" y=".234" fill="#fff" rx="4"/>
    </clipPath>
  </defs>
</svg>
