<svg xmlns="http://www.w3.org/2000/svg" width="35" height="25" fill="none" viewBox="0 0 35 25">
  <g clip-path="url(#a)">
    <path fill="#D80027" d="M0 .334h35v24H0v-24Z"/>
    <path fill="#FFDA44" d="m15.473 17.12-.661-1.094-1.222.308.812-.989-.662-1.095 1.167.485.805-.99-.089 1.291 1.167.485-1.221.308-.096 1.291Zm4.353-11.03-.689 1.08.791 1.004-1.207-.337-.69 1.088-.067-1.291-1.208-.337 1.174-.463-.069-1.292.792 1.004 1.173-.456Zm-3.711-3.972L15.978 3.4l1.146.533-1.228.267-.136 1.284-.628-1.122-1.221.266.84-.961-.628-1.116 1.146.526.846-.961Zm3.861 9.572-1.016.765.395 1.228-1.016-.758-1.017.772.382-1.235-1.016-.751 1.255-.007.382-1.235.396 1.228 1.255-.007ZM7.846 3.584l1.18 3.754h3.834L9.763 9.647l1.18 3.754-3.097-2.316-3.105 2.316L5.93 9.647 2.824 7.338h3.841l1.18-3.754Z"/>
  </g>
  <defs>
    <clipPath id="a">
      <rect width="35" height="24" y=".334" fill="#fff" rx="4"/>
    </clipPath>
  </defs>
</svg>
