<svg xmlns="http://www.w3.org/2000/svg" width="35" height="25" fill="none" viewBox="0 0 35 25">
  <g clip-path="url(#a)">
    <path fill="#41662E" d="M0 .033h35v24H0v-24Z"/>
    <path fill="#fff" d="M17.5.033H35v24H17.5v-24Z"/>
    <path fill="#D80027" d="m23.345 7.438-2.01 2.84-3.247-1.082 2.01 2.84-2.01 2.841 3.247-1.082 2.01 2.84V13.12l3.247-1.09-3.247-1.082v-3.51Z"/>
    <path fill="#D80027" d="M21.186 19.49c-4 0-7.246-3.34-7.246-7.453 0-4.114 3.246-7.454 7.246-7.454 1.25 0 2.42.323 3.445.893-1.607-1.617-3.808-2.616-6.235-2.616-4.921 0-8.914 4.107-8.914 9.17s3.993 9.17 8.915 9.17c2.426 0 4.627-1 6.234-2.617a6.974 6.974 0 0 1-3.445.908Z"/>
  </g>
  <defs>
    <clipPath id="a">
      <rect width="35" height="24" y=".033" fill="#fff" rx="4"/>
    </clipPath>
  </defs>
</svg>
