<svg xmlns="http://www.w3.org/2000/svg" width="35" height="25" fill="none" viewBox="0 0 35 25">
  <g clip-path="url(#a)">
    <path fill="#fff" d="M0 .267h35v24H0v-24Z"/>
    <path fill="#D80027" d="M19.688.267h-4.375v9.75H0v4.5h15.313v9.75h4.374v-9.75H35v-4.5H19.687V.267Z"/>
    <path fill="#0052B4" d="M26.92 16.44 35 21.06v-4.62h-8.08Zm-5.615 0L35 24.268v-2.213l-9.822-5.613h-3.873Zm10.047 7.827-10.047-5.742v5.742h10.047Z"/>
    <path fill="#fff" d="M21.305 16.44 35 24.268v-2.213l-9.822-5.613h-3.873Z"/>
    <path fill="#D80027" d="M21.305 16.44 35 24.268v-2.213l-9.822-5.613h-3.873Z"/>
    <path fill="#0052B4" d="M6.176 16.44 0 19.97v-3.53h6.176Zm7.52.996v6.83H1.743l11.953-6.83Z"/>
    <path fill="#D80027" d="M9.823 16.44 0 22.055v2.213l13.696-7.826H9.823Z"/>
    <path fill="#0052B4" d="M8.081 8.093 0 3.475v4.618h8.081Zm5.615 0L0 .267V2.48l9.823 5.613h3.873ZM3.648.267l10.048 5.742V.267H3.648Z"/>
    <path fill="#fff" d="M13.696 8.093 0 .267V2.48l9.823 5.613h3.873Z"/>
    <path fill="#D80027" d="M13.696 8.093 0 .267V2.48l9.823 5.613h3.873Z"/>
    <path fill="#0052B4" d="M28.825 8.093 35 4.564v3.53h-6.175Zm-7.52-.995V.267h11.953l-11.953 6.83Z"/>
    <path fill="#D80027" d="M25.178 8.093 35 2.48V.267L21.305 8.093h3.873Z"/>
  </g>
  <defs>
    <clipPath id="a">
      <rect width="35" height="24" y=".267" fill="#fff" rx="4"/>
    </clipPath>
  </defs>
</svg>
