<svg xmlns="http://www.w3.org/2000/svg" width="35" height="25" fill="none" viewBox="0 0 35 25">
  <g clip-path="url(#a)">
    <path fill="#fff" d="M1.244.704h32.667v24H1.244v-24Z"/>
    <path fill="#EB000E" d="M15.244 10.304H0v4.8h15.244v9.6h4.667v-9.6h15.245v-4.8H19.91v-9.6h-4.667v9.6Z"/>
    <path fill="#EB000E" d="m26.911 5.024-.31-1.92h1.555l-.311 1.92 1.866-.32v1.6l-1.866-.32.31 1.92H26.6l.311-1.92-1.866.32v-1.6l1.866.32Zm-19.755 0-.311-1.92H8.4l-.31 1.92 1.866-.32v1.6l-1.867-.32.311 1.92H6.845l.31-1.92-1.866.32v-1.6l1.867.32Zm0 14.4-.311-1.92H8.4l-.31 1.92 1.866-.32v1.6l-1.867-.32.311 1.92H6.845l.31-1.92-1.866.32v-1.6l1.867.32Zm19.755 0-.31-1.92h1.555l-.311 1.92 1.866-.32v1.6l-1.866-.32.31 1.92H26.6l.311-1.92-1.866.32v-1.6l1.866.32Z"/>
  </g>
  <defs>
    <clipPath id="a">
      <rect width="35" height="24" y=".704" fill="#fff" rx="4"/>
    </clipPath>
  </defs>
</svg>
