<svg xmlns="http://www.w3.org/2000/svg" width="35" height="25" fill="none" viewBox="0 0 35 25">
  <g clip-path="url(#a)">
    <path fill="#fff" d="M0 .839h35v24H0v-24Z"/>
    <path fill="#6DA544" d="M0 .839h35v7.986H0V.839Z"/>
    <path fill="#D80027" d="M0 16.81h35v8.029H0V16.81Z"/>
    <path fill="#0070C8" d="M8.596 12.818 0 24.79V.839l8.596 11.979Z"/>
    <path stroke="#000" stroke-miterlimit="10" d="M15.951 10.621v2.835c0 2.499 2.429 2.499 2.429 2.499s2.429 0 2.429-2.499v-2.835H15.95Z"/>
    <path fill="#786145" d="M18.046 13.456h.669l.273 1.81h-1.215l.273-1.81Z"/>
    <path fill="#6DA544" d="M19.595 12.207c0-.687-.546-1.038-1.215-1.038-.668 0-1.214.35-1.214 1.038a.617.617 0 0 0-.607.625c0 .344.272.624.607.624h2.429c.334 0 .607-.28.607-.624a.617.617 0 0 0-.607-.625Z"/>
    <path fill="#FFDA00" stroke="#000" stroke-miterlimit="10" d="m15.74 9.26.13.232h.26l-.13.231.13.225h-.26l-.13.231-.13-.231h-.258l.13-.225-.13-.231h.259l.13-.232Zm1.044 0 .13.232h.252l-.13.231.13.225h-.252l-.13.231-.13-.231h-.259l.13-.225-.13-.231h.26l.13-.232Zm1.044 0 .13.232h.252l-.13.231.13.225h-.252l-.13.231-.13-.231h-.259l.13-.225-.13-.231h.26l.13-.232Zm1.078 0 .13.232h.259l-.13.231.13.225h-.26l-.129.231-.13-.231h-.252l.123-.225-.123-.231h.252l.13-.232Zm1.092 0 .13.232h.259l-.13.231.13.225h-.26l-.13.231-.129-.231h-.252l.122-.225-.122-.231h.252l.13-.232Zm1.023 0 .13.232h.252l-.13.231.13.225h-.252l-.13.231-.13-.231h-.259l.13-.225-.13-.231h.26l.13-.232Z"/>
  </g>
  <defs>
    <clipPath id="a">
      <rect width="35" height="24" y=".839" fill="#fff" rx="4"/>
    </clipPath>
  </defs>
</svg>
