<svg xmlns="http://www.w3.org/2000/svg" width="35" height="25" fill="none" viewBox="0 0 35 25">
  <g clip-path="url(#a)">
    <path fill="#D80027" d="M0 .136h35v24H0v-24Z"/>
    <path fill="#fff" d="M18.707 8.543c-.348 1.481-.962 1.2-1.262 2.492-1.78-.443-2.872-2.281-2.449-4.113.43-1.831 2.217-2.954 3.991-2.52-.593 2.59.034 2.815-.28 4.141Zm-4.612 1.095c1.263.793.812 1.312 1.91 2.007-.954 1.607-2.994 2.105-4.557 1.123-1.562-.983-2.047-3.08-1.091-4.688 2.203 1.39 2.606.85 3.738 1.558Zm-.409 4.856c1.126-.99 1.46-.386 2.442-1.249 1.188 1.432 1.024 3.579-.368 4.8a3.245 3.245 0 0 1-4.666-.379c1.958-1.726 1.582-2.288 2.592-3.172Zm4.36 1.902c-.567-1.41.095-1.551-.403-2.779 1.692-.723 3.63.105 4.326 1.846.702 1.74-.103 3.733-1.795 4.449-.989-2.456-1.623-2.26-2.128-3.516Zm3.104-3.677c-1.474.119-1.405-.569-2.695-.463-.143-1.874 1.221-3.516 3.043-3.664 1.822-.147 3.418 1.257 3.561 3.13-2.572.204-2.585.891-3.909.997Z"/>
  </g>
  <defs>
    <clipPath id="a">
      <rect width="35" height="24" y=".136" fill="#fff" rx="4"/>
    </clipPath>
  </defs>
</svg>
