<svg xmlns="http://www.w3.org/2000/svg" width="35" height="25" fill="none" viewBox="0 0 35 25">
  <g clip-path="url(#a)">
    <path fill="#fff" d="M0 .77h35v24H0v-24Z"/>
    <path fill="#D80027" d="M0 .77h35v8H0v-8Z"/>
    <path fill="#0052B4" d="M0 16.77h35v8H0v-8Z"/>
    <path fill="#338AF3" d="M21.102 8.714V5.627l1.194-1.01 1.208 1.01v3.087h-2.402Zm-7.204 0V5.627l-1.18-1.01-1.222 1.01v3.087h2.402Zm2.401 0V5.627l1.201-1.01 1.2 1.01v3.087h-2.4Z"/>
    <path fill="#0052B4" d="M21.103 8.714h-2.401V5.627l1.193-1.01 1.208 1.01v3.087Zm-4.803 0h-2.402V5.627l1.194-1.01 1.208 1.01v3.087Z"/>
    <path fill="#fff" stroke="#D80027" d="M11.496 8.714v7.151c0 1.705.982 3.242 2.415 4.169 1.454.94 2.873 1.031 3.589 1.031.716 0 2.142-.12 3.589-1.038 1.432-.913 2.415-2.463 2.415-4.162v-7.15H11.496Z"/>
    <path fill="#D80027" d="M11.496 8.714h2.402v2.47h-2.402v-2.47Zm4.803 0h2.402v2.47h-2.402v-2.47Zm4.803 0h2.402v2.47h-2.402v-2.47Zm-7.204 2.47h2.401v2.47h-2.401v-2.47Zm4.803 0h2.401v2.47h-2.401v-2.47Zm-7.205 2.47h2.402v2.47h-2.402v-2.47Zm2.402 2.47h2.401v2.471h-2.401v-2.47Zm2.401-2.47h2.402v2.47h-2.402v-2.47Zm4.803 0h2.402v2.47h-2.402v-2.47Zm-2.401 2.47h2.401v2.471h-2.401v-2.47Zm2.401 3.896a5.458 5.458 0 0 0 1.501-1.425h-1.5v1.425Zm-8.705-1.425a5.49 5.49 0 0 0 1.5 1.432v-1.432h-1.5Zm3.902 0v2.365c.491.084.908.105 1.201.105.293 0 .71-.02 1.2-.112v-2.358h-2.4Z"/>
  </g>
  <defs>
    <clipPath id="a">
      <rect width="35" height="24" y=".771" fill="#fff" rx="4"/>
    </clipPath>
  </defs>
</svg>
