<svg xmlns="http://www.w3.org/2000/svg" width="35" height="24" fill="none" viewBox="0 0 35 24">
  <g clip-path="url(#a)">
    <path fill="#A2001D" d="M0 0h35v12.07H0V0Z"/>
    <path fill="#0052B4" d="M0 12.07h35v12.07H0V12.07Z"/>
    <path fill="#fff" d="m26.022 17.65-7.552-.97-7.56.97V5.992h15.112v11.656Z"/>
    <path fill="#0052B4" d="M18.47 16.68c2.087 0 3.779-1.74 3.779-3.887 0-2.147-1.692-3.888-3.78-3.888-2.087 0-3.78 1.74-3.78 3.888 0 2.147 1.693 3.888 3.78 3.888Z"/>
    <path fill="#A2001D" d="M18.468 14.737c1.044 0 1.89-.87 1.89-1.944 0-1.074-.846-1.944-1.89-1.944s-1.89.87-1.89 1.944c0 1.074.846 1.944 1.89 1.944Z"/>
    <path fill="#6DA544" d="M15.63 7.937h5.67l-2.83 2.912-2.84-2.912Z"/>
    <path fill="#FFDA44" d="M17.52 9.88h1.89v5.825h-1.89V9.881Z"/>
    <path fill="#6DA544" d="M21.485 15.123h-6.038l-4.537 2.526h15.112l-4.537-2.526Z"/>
  </g>
  <defs>
    <clipPath id="a">
      <rect width="35" height="24" fill="#fff" rx="4"/>
    </clipPath>
  </defs>
</svg>
