<svg xmlns="http://www.w3.org/2000/svg" width="35" height="25" fill="none" viewBox="0 0 35 25">
  <g clip-path="url(#a)">
    <path fill="#fff" d="M0 .033h35v24H0v-24Z"/>
    <path fill="#2E52B2" d="M23.238 8.623H19.41l-1.91-3.41-1.91 3.41h-3.828l1.91 3.41-1.91 3.41h3.828l1.91 3.411 1.91-3.41h3.828l-1.91-3.41 1.91-3.411Zm-3.234 3.41-1.174 2.33h-2.654l-1.18-2.33 1.174-2.33h2.654l1.18 2.33ZM17.5 6.995l.812 1.635h-1.63l.818-1.635Zm-3.978 2.708h1.631l-.737 1.474-.894-1.474Zm0 4.66.887-1.55.812 1.55h-1.699Zm3.978 2.632-.812-1.551h1.63l-.818 1.55Zm4.053-2.632h-1.706l.812-1.55.894 1.55Zm-1.781-4.66h1.78l-.886 1.551-.894-1.55ZM0 1.528h34.932v2.996H0V1.528Zm0 17.965h34.932v2.996H0v-2.996Z"/>
  </g>
  <defs>
    <clipPath id="a">
      <rect width="35" height="24" y=".033" fill="#fff" rx="4"/>
    </clipPath>
  </defs>
</svg>
