<svg xmlns="http://www.w3.org/2000/svg" width="35" height="25" fill="none" viewBox="0 0 35 25">
  <g clip-path="url(#a)">
    <path fill="#fff" d="M0 .313h35v24.021H0V.314Z"/>
    <path fill="#0052B4" d="M31.582 14.236c-.273 0-.955-.35-1.433-.631-.75-.421-1.433-.843-2.122-.843-.689 0-1.364.422-2.122.843-.477.28-1.091.631-1.364.631-.273 0-.955-.35-1.365-.631-.75-.421-1.5-.843-2.19-.843-.614 0-1.364.422-2.122.843-.477.28-1.091.631-1.364.631-.273 0-.887-.35-1.364-.631-.751-.421-1.502-.843-2.122-.843-.683 0-1.433.422-2.19.843-.41.28-1.092.631-1.365.631-.273 0-.887-.35-1.364-.631-.75-.421-1.433-.843-2.122-.843-.69 0-1.365.422-2.122.843-.478.28-1.16.631-1.433.631-.273 0-.887-.35-1.364-.631-.683-.421-1.365-.843-2.054-.843v1.544l1.296.702c.75.421 1.433.842 2.122.842.69 0 1.433-.42 2.19-.842.41-.28 1.092-.702 1.365-.702.273 0 .887.421 1.364.702.75.421 1.433.842 2.122.842.69 0 1.365-.42 2.122-.842.478-.28 1.16-.702 1.433-.702.273 0 .887.421 1.364.702.75.421 1.433.842 2.122.842.69 0 1.364-.42 2.122-.842.477-.28 1.091-.702 1.364-.702.273 0 .956.421 1.433.702.75.421 1.433.842 2.122.842.689 0 1.364-.42 2.122-.842.477-.28 1.091-.702 1.364-.702.273 0 .956.421 1.365.702.75.421 1.5.842 2.19.842.689 0 1.364-.42 2.122-.842L35 14.306v-1.543c-.682 0-1.364.42-2.054.842-.477.28-1.091.631-1.364.631ZM0 2.56l1.296.702c.75.42 1.433.842 2.122.842.69 0 1.433-.421 2.19-.842.41-.281 1.092-.702 1.365-.702.273 0 .887.421 1.364.702.75.42 1.433.842 2.122.842.69 0 1.365-.421 2.122-.842.478-.281 1.16-.702 1.433-.702.273 0 .887.421 1.364.702.75.42 1.433.842 2.122.842.69 0 1.364-.421 2.122-.842.477-.281 1.091-.702 1.364-.702.273 0 .956.421 1.433.702.75.42 1.433.842 2.122.842.689 0 1.364-.421 2.122-.842.477-.281 1.091-.702 1.364-.702.273 0 .956.421 1.365.702.75.42 1.5.842 2.19.842.689 0 1.364-.421 2.122-.842L35 2.559V1.015c-.682.07-1.364.421-2.054.842-.477.28-1.091.632-1.364.632-.273 0-.955-.351-1.433-.632-.75-.42-1.433-.842-2.122-.842-.689 0-1.364.421-2.122.842-.477.28-1.091.632-1.364.632-.273 0-.955-.351-1.365-.632-.75-.42-1.5-.842-2.19-.842-.689 0-1.364.421-2.122.842-.477.28-1.091.632-1.364.632-.273 0-.887-.351-1.364-.632-.751-.42-1.502-.842-2.122-.842-.621 0-1.433.421-2.19.842-.41.28-1.092.632-1.365.632-.273 0-.887-.351-1.364-.632-.75-.42-1.433-.842-2.122-.842-.69 0-1.365.421-2.122.842-.478.28-1.16.632-1.433.632-.273 0-.887-.351-1.364-.632C1.37 1.437.689 1.085 0 1.015V2.56Zm31.582 3.874c-.273 0-.955-.351-1.433-.632-.75-.421-1.433-.842-2.122-.842-.689 0-1.364.421-2.122.842-.477.28-1.091.632-1.364.632-.273 0-.955-.351-1.365-.632-.75-.421-1.5-.842-2.19-.842-.614 0-1.364.421-2.122.842-.477.28-1.091.632-1.364.632-.273 0-.887-.351-1.364-.632-.751-.421-1.502-.842-2.122-.842-.683 0-1.433.421-2.19.842-.41.28-1.092.632-1.365.632-.273 0-.887-.351-1.364-.632-.75-.421-1.433-.842-2.122-.842-.69 0-1.365.421-2.122.842-.478.28-1.16.632-1.433.632-.273 0-.887-.351-1.364-.632C1.37 5.38.689 4.96 0 4.96v1.544l1.296.631c.75.421 1.433.843 2.122.843.69 0 1.433-.422 2.19-.843.41-.28 1.092-.631 1.365-.631.273 0 .887.35 1.364.631.75.421 1.433.843 2.122.843.69 0 1.365-.422 2.122-.843.478-.28 1.16-.631 1.433-.631.273 0 .887.35 1.364.631.75.421 1.433.843 2.122.843.69 0 1.364-.422 2.122-.843.477-.28 1.091-.631 1.364-.631.273 0 .956.35 1.433.631.75.421 1.433.843 2.122.843.689 0 1.364-.422 2.122-.843.477-.28 1.091-.631 1.364-.631.273 0 .956.35 1.365.631.75.421 1.5.843 2.19.843.689 0 1.364-.422 2.122-.843L35 6.503V4.959c-.682 0-1.364.421-2.054.842-.477.274-1.091.632-1.364.632ZM35 8.819c-.682.07-1.364.42-2.054.842-.477.28-1.091.702-1.364.702-.273 0-.955-.422-1.433-.702-.75-.421-1.433-.842-2.122-.842-.689 0-1.364.42-2.122.842-.477.28-1.091.702-1.364.702-.273 0-.955-.422-1.365-.702-.75-.421-1.5-.842-2.19-.842-.689 0-1.364.42-2.122.842-.477.28-1.091.702-1.364.702-.273 0-.887-.422-1.364-.702-.751-.421-1.502-.842-2.122-.842-.621 0-1.433.42-2.19.842-.41.28-1.092.702-1.365.702-.273 0-.887-.422-1.364-.702-.75-.421-1.433-.842-2.122-.842-.69 0-1.365.42-2.122.842-.478.28-1.16.702-1.433.702-.273 0-.887-.422-1.364-.702C1.37 9.24.689 8.889 0 8.819v1.614c.273.07.887.35 1.296.631.75.421 1.433.842 2.122.842.69 0 1.433-.42 2.19-.842.41-.28 1.092-.631 1.365-.631.273 0 .887.35 1.364.631.75.421 1.433.842 2.122.842.69 0 1.365-.42 2.122-.842.478-.28 1.16-.631 1.433-.631.273 0 .887.35 1.364.631.75.421 1.433.842 2.122.842.69 0 1.364-.42 2.122-.842.477-.28 1.091-.631 1.364-.631.273 0 .956.35 1.433.631.75.421 1.433.842 2.122.842.689 0 1.364-.42 2.122-.842.477-.28 1.091-.631 1.364-.631.273 0 .956.35 1.365.631.75.421 1.5.842 2.19.842.689 0 1.364-.42 2.122-.842.41-.28 1.023-.561 1.296-.631V8.819Zm-3.418 9.354c-.273 0-.955-.35-1.433-.631-.75-.422-1.433-.843-2.122-.843-.689 0-1.364.421-2.122.842-.477.281-1.091.632-1.364.632-.273 0-.955-.35-1.365-.631-.75-.422-1.5-.843-2.19-.843-.614 0-1.364.421-2.122.842-.477.281-1.091.632-1.364.632-.273 0-.887-.35-1.364-.631-.751-.422-1.502-.843-2.122-.843-.683 0-1.433.421-2.19.842-.41.281-1.092.632-1.365.632-.273 0-.887-.35-1.364-.631-.75-.422-1.433-.843-2.122-.843-.69 0-1.365.421-2.122.842-.478.281-1.16.632-1.433.632-.273 0-.887-.35-1.364-.631C1.37 17.12.689 16.698 0 16.698v1.544l1.296.632c.75.42 1.433.842 2.122.842.69 0 1.433-.421 2.19-.842.41-.28 1.092-.632 1.365-.632.273 0 .887.351 1.364.632.75.42 1.433.842 2.122.842.69 0 1.365-.421 2.122-.842.478-.28 1.16-.632 1.433-.632.273 0 .887.351 1.364.632.75.42 1.433.842 2.122.842.69 0 1.364-.421 2.122-.842.477-.28 1.091-.632 1.364-.632.273 0 .956.351 1.433.632.75.42 1.433.842 2.122.842.689 0 1.364-.421 2.122-.842.477-.28 1.091-.632 1.364-.632.273 0 .956.351 1.365.632.75.42 1.5.842 2.19.842.689 0 1.364-.421 2.122-.842L35 18.243V16.7c-.682 0-1.364.421-2.054.842-.477.281-1.091.632-1.364.632ZM35 20.559c-.682.07-1.364.421-2.054.842-.477.28-1.091.702-1.364.702-.273 0-.955-.421-1.433-.702-.75-.421-1.433-.842-2.122-.842-.689 0-1.364.421-2.122.842-.477.28-1.091.702-1.364.702-.273 0-.955-.421-1.365-.702-.75-.421-1.5-.842-2.19-.842-.689 0-1.364.421-2.122.842-.477.28-1.091.702-1.364.702-.273 0-.887-.421-1.364-.702-.751-.421-1.502-.842-2.122-.842-.621 0-1.433.421-2.19.842-.41.28-1.092.702-1.365.702-.273 0-.887-.421-1.364-.702-.75-.421-1.433-.842-2.122-.842-.69 0-1.365.421-2.122.842-.478.28-1.16.702-1.433.702-.273 0-.887-.421-1.364-.702C1.37 20.98.689 20.63 0 20.56v1.614c.273 0 .887.35 1.296.632.75.42 1.433.842 2.122.842.69 0 1.433-.421 2.19-.842.41-.281 1.092-.632 1.365-.632.273 0 .887.35 1.364.632.75.42 1.433.842 2.122.842.69 0 1.365-.421 2.122-.842.478-.281 1.16-.632 1.433-.632.273 0 .887.35 1.364.632.75.42 1.433.842 2.122.842.69 0 1.364-.421 2.122-.842.477-.281 1.091-.632 1.364-.632.273 0 .956.35 1.433.632.75.42 1.433.842 2.122.842.689 0 1.364-.421 2.122-.842.477-.281 1.091-.632 1.364-.632.273 0 .956.35 1.365.632.75.42 1.5.842 2.19.842.689 0 1.364-.421 2.122-.842.41-.281 1.023-.632 1.296-.632V20.56Z"/>
    <path fill="#fff" d="M0 .313h17.466v12H0v-12Z"/>
    <path fill="#A2001D" d="M26.595 8.749h1.241v5.53h-1.248l.007-5.53Zm0 8.266h1.241v5.27h-1.248l.007-5.27Z"/>
    <path fill="#D80027" d="M9.825.313H7.64v4.913H0V7.47h7.641v4.842h2.184V7.471h7.64V5.226h-7.64V.313Z"/>
    <path fill="#D80027" d="M0 .313v1.053l3.889 2.737h1.57L0 .313Zm17.466 0v1.053l-3.889 2.737h-1.57l5.459-3.79Z"/>
    <path fill="#D80027" d="M0 .313v1.053l3.889 2.737h1.57L0 .313Zm17.466 0v1.053l-3.889 2.737h-1.57l5.459-3.79ZM0 12.313v-1.052l3.889-2.667h1.57L0 12.314Zm17.466 0v-1.052l-3.889-2.667h-1.57l5.459 3.72Z"/>
    <path fill="#2E52B2" d="M0 1.928v2.175h3.138L0 1.928ZM6.55.313v3.44L1.57.312h4.98Zm10.916 1.615v2.175h-3.139l3.139-2.175ZM10.916.313v3.44l4.98-3.44h-4.98Z"/>
    <path fill="#2E52B2" d="M0 1.928v2.175h3.138L0 1.928ZM6.55.313v3.44L1.57.312h4.98Zm10.916 1.615v2.175h-3.139l3.139-2.175ZM10.916.313v3.44l4.98-3.44h-4.98ZM0 10.7V8.594h3.138L0 10.7Zm6.55 1.614V8.875l-4.98 3.438h4.98ZM17.466 10.7V8.594h-3.139l3.139 2.105Zm-6.55 1.614V8.875l4.98 3.438h-4.98Z"/>
    <path fill="#5DA51E" stroke="#45602C" stroke-miterlimit="10" stroke-width="4" d="M31.575 6.755h-1.986l1.754-1.803a.782.782 0 0 0 0-1.109l-.232-.238a.743.743 0 0 0-1.078 0l-1.767 1.817V2.96a.786.786 0 0 0-.771-.793h-.321a.786.786 0 0 0-.77.793v2.225L24.8 3.514a.796.796 0 0 0-1.153 0l-.246.252c-.32.33-.32.87 0 1.207l1.706 1.782h-2.088a.756.756 0 0 0-.744.765v.323c0 .421.335.765.744.765h2.156l-1.412 1.453c-.3.309-.3.8 0 1.108l.232.24c.3.308.777.308 1.078 0l1.337-1.376v2.02a.8.8 0 0 0 .77.794h.322a.786.786 0 0 0 .77-.793v-1.986l1.515 1.586c.32.33.846.33 1.167 0l.245-.253a.877.877 0 0 0 0-1.207l-1.507-1.579h1.883c.402 0 .73-.344.743-.765v-.323a.758.758 0 0 0-.743-.772Z"/>
    <path fill="#E2DD24" stroke="#525625" stroke-miterlimit="10" stroke-width="4" d="M29.965 17.815H24.52s-.061-.94-.41-1.53c-.422-.73-.947-1.972-.095-2.575 1.085-.765 2.3.056 3.289.056.805.007 1.835-.982 3.07-.056.832.624.266 1.979-.089 2.575-.477.807-.32 1.53-.32 1.53Z"/>
  </g>
  <defs>
    <clipPath id="a">
      <rect width="35" height="24" y=".334" fill="#fff" rx="4"/>
    </clipPath>
  </defs>
</svg>
