<svg xmlns="http://www.w3.org/2000/svg" width="35" height="25" fill="none" viewBox="0 0 35 25">
  <g clip-path="url(#a)">
    <path fill="#6DA544" d="M0 .936h35v24H0v-24Z"/>
    <path fill="#000" d="M14.756 12.936 0 23.054V2.817l14.756 10.12ZM35 2.816v20.238L20.244 12.936 35 2.816Z"/>
    <path fill="#0052B4" d="M35 2.817 20.244 12.936 35 23.054v1.882h-2.743L17.5 14.816 2.743 24.936H0v-1.882l14.756-10.118L0 2.816V.937h2.743L17.5 11.054 32.257.935H35v1.882Z"/>
    <path fill="#FFDA44" d="M35 2.817 20.244 12.936 35 23.054v1.882h-2.743L17.5 14.816 2.743 24.936H0v-1.882l14.756-10.118L0 2.816V.937h2.743L17.5 11.054 32.257.935H35v1.882Z"/>
  </g>
  <defs>
    <clipPath id="a">
      <rect width="35" height="24" y=".936" fill="#fff" rx="4"/>
    </clipPath>
  </defs>
</svg>
