<svg xmlns="http://www.w3.org/2000/svg" width="35" height="25" fill="none" viewBox="0 0 35 25">
  <g clip-path="url(#a)">
    <path fill="#D80027" d="M0 .7h35v24H0V.7Z"/>
    <path fill="#6DA544" d="M34.932.7H0v24"/>
    <path fill="#FFDA44" d="M20.993.7 0 14.35V24.7h14.116L35 11.123V.7H20.993Z"/>
    <path fill="#000" d="M35 .7h-8.72L0 18.203v6.428l8.61.07L35 7.13V.7Z"/>
    <path fill="#fff" d="m9.626 13.824 2.129 1.684 2.203-1.558-.893 2.596 2.122 1.678-2.675-.078-.9 2.597-.758-2.639-2.674-.077 2.203-1.558-.757-2.645ZM21.19 5.669l2.13 1.677 2.203-1.558-.894 2.597 2.122 1.677-2.675-.077-.9 2.597-.757-2.64-2.675-.076 2.21-1.558-.764-2.639Z"/>
  </g>
  <defs>
    <clipPath id="a">
      <rect width="35" height="24" y=".701" fill="#fff" rx="4"/>
    </clipPath>
  </defs>
</svg>
