<svg xmlns="http://www.w3.org/2000/svg" width="35" height="24" fill="none" viewBox="0 0 35 24">
  <g clip-path="url(#a)">
    <path fill="#0071BC" d="M0 0h35v24H0V0Z"/>
    <path fill="#fff" stroke="#000" stroke-width="1.9" d="M17.5 22.56c5.799 0 10.5-4.835 10.5-10.8C28 5.795 23.299.96 17.5.96S7 5.795 7 11.76c0 5.965 4.701 10.8 10.5 10.8Z"/>
    <path fill="#0071BC" stroke="#000" stroke-width="1.9" d="M17.5 19.68c4.253 0 7.7-3.546 7.7-7.92 0-4.374-3.447-7.92-7.7-7.92-4.252 0-7.7 3.546-7.7 7.92 0 4.374 3.448 7.92 7.7 7.92Z"/>
    <path fill="#8C8A8C" stroke="#000" stroke-width="1.9" d="M20.754 21.6c.032.528-.364.96-.878.96h-4.774c-.513 0-.91-.432-.886-.96l.78-15.6c.027-.528.466-.96.98-.96h2.864c.514 0 .957.432.99.96l.924 15.6Z"/>
    <path fill="#fff" stroke="#000" stroke-linejoin="round" stroke-width="2" d="m17.407 5.472 1.4 4.464h4.527l-3.64 2.688 1.353 4.416-3.64-2.688-3.64 2.736 1.4-4.464-3.687-2.736h4.527l1.4-4.416Z"/>
  </g>
  <defs>
    <clipPath id="a">
      <rect width="35" height="24" fill="#fff" rx="4"/>
    </clipPath>
  </defs>
</svg>
