<svg xmlns="http://www.w3.org/2000/svg" width="35" height="25" fill="none" viewBox="0 0 35 25">
  <g clip-path="url(#a)">
    <path fill="#496E2D" d="M0 .1h35v24H0V.1Z"/>
    <path fill="#FFDA44" d="M17.5 15.113c-3.142 0-5.766-2.271-6.41-5.304-.101.475-.152.96-.152 1.447 0 3.727 2.938 6.75 6.562 6.75 3.625 0 6.563-3.023 6.563-6.75 0-.497-.054-.98-.153-1.447-.644 3.033-3.268 5.304-6.41 5.304Z"/>
    <path fill="#FFDA44" d="m17.5 6.193.61 1.934h1.977l-1.599 1.195.61 1.934L17.5 10.06l-1.6 1.196.611-1.934-1.599-1.195h1.977l.61-1.934Z"/>
  </g>
  <defs>
    <clipPath id="a">
      <rect width="35" height="24" y=".1" fill="#fff" rx="4"/>
    </clipPath>
  </defs>
</svg>
