<svg xmlns="http://www.w3.org/2000/svg" width="35" height="25" fill="none" viewBox="0 0 35 25">
  <g clip-path="url(#a)">
    <path fill="#1B4991" d="M0 .935h35v24H0v-24Z"/>
    <path fill="#00A2B8" stroke="#fff" stroke-width="3" d="M21.709 8.423v7.473c0 3.643 4.626 4.758 4.626 4.758s4.625-1.115 4.625-4.758V8.424h-9.25Z"/>
    <path fill="#A35023" d="M21.813 15.861c0 3.565 4.523 4.653 4.523 4.653s4.523-1.095 4.523-4.653h-9.047Z"/>
    <path fill="#000" d="M28.321 11.82h-1.323v-1.362h-1.324v1.361h-1.317v1.362h1.317v4.077h1.324V13.18h1.323v-1.362Z"/>
    <path fill="#fff" d="M17.466.935v2.147l-3.084 1.762h3.084v4.161h-4.032l4.032 2.302v1.607h-1.822l-5.014-2.87v2.87H6.836v-3.41l-5.97 3.41H0v-2.147l3.084-1.762H0V4.844h4.032L0 2.535v-1.6h1.822l5.014 2.863V.935h3.794v3.41L16.6.936h.866Z"/>
    <path fill="#D80027" d="M9.825.935H7.64v4.863H0v2.246h7.641v4.87h2.184v-4.87h7.64V5.798h-7.64V.935Z"/>
    <path fill="#0052B4" d="m10.629 9.005 6.836 3.909v-1.109l-4.899-2.8H10.63Z"/>
    <path fill="#fff" d="m10.629 9.005 6.836 3.909v-1.109l-4.899-2.8H10.63Z"/>
    <path fill="#D80027" d="m10.63 9.005 6.836 3.909v-1.109l-4.899-2.8H10.63Zm-5.731 0L0 11.805v1.109l6.836-3.909H4.9Z"/>
    <path fill="#0052B4" d="M6.836 4.837 0 .935v1.102l4.899 2.8h1.937Z"/>
    <path fill="#fff" d="M6.836 4.837 0 .935v1.102l4.899 2.8h1.937Z"/>
    <path fill="#D80027" d="M6.836 4.837 0 .935v1.102l4.899 2.8h1.937Zm5.731 0 4.899-2.8V.935L10.63 4.837h1.937Z"/>
  </g>
  <defs>
    <clipPath id="a">
      <rect width="35" height="24" y=".935" fill="#fff" rx="4"/>
    </clipPath>
  </defs>
</svg>
