<svg xmlns="http://www.w3.org/2000/svg" width="35" height="25" fill="none" viewBox="0 0 35 25">
  <g clip-path="url(#a)">
    <path fill="#DC2339" d="M23.333.832H0v23.95h35V.833H23.333Z"/>
    <path fill="#11865D" d="M0 .832h11.667v24H0v-24Z"/>
    <path fill="#fff" d="M11.666.832h11.667v24H11.666v-24Z"/>
    <path fill="#8C9157" d="M13.36 12.846c0 1.516.784 2.926 2.067 3.684.395.239.9.098 1.132-.309a.864.864 0 0 0-.3-1.165 2.56 2.56 0 0 1-1.242-2.21c0-.47-.368-.85-.825-.85a.842.842 0 0 0-.833.85Zm6.372 3.586c1.194-.779 1.91-2.133 1.91-3.586 0-.47-.368-.85-.825-.85a.836.836 0 0 0-.826.85c0 .87-.43 1.684-1.146 2.154a.875.875 0 0 0-.28 1.172.816.816 0 0 0 1.14.288c0-.014.013-.021.027-.028Z"/>
    <path fill="#C59262" d="M17.5 14.551c.915 0 1.658-1.143 1.658-2.554 0-1.41-.743-2.554-1.658-2.554-.916 0-1.658 1.143-1.658 2.554 0 1.41.742 2.554 1.658 2.554Z"/>
  </g>
  <defs>
    <clipPath id="a">
      <rect width="35" height="24" y=".832" fill="#fff" rx="4"/>
    </clipPath>
  </defs>
</svg>
