<svg xmlns="http://www.w3.org/2000/svg" width="35" height="24" fill="none" viewBox="0 0 35 24">
  <g clip-path="url(#a)">
    <path fill="#009543" d="M0 16.48h35V24H0v-7.52Z"/>
    <path fill="#ED4135" d="M0 7.424h35v9.073H0V7.424Z"/>
    <path fill="#0035AD" d="M0 0h35v7.498H0V0Z"/>
    <path fill="#FAE600" stroke="#000" stroke-width="5.3" d="M13.126 20.845c4.75 0 8.602-3.962 8.602-8.848 0-4.886-3.851-8.847-8.602-8.847s-8.603 3.96-8.603 8.847c0 4.886 3.852 8.848 8.603 8.848Z"/>
    <path fill="#000" d="m16.837 19.939-1.739.675-1.974.236-2.067-.135-1.963-.872s1.564-1.648 2.226-1.884c.47-.169 1.224-.208 1.224-.208V6.861l-.016-3.711h.924l-.027 3.796V17.73s.837.067 1.209.23c.618.276 2.203 1.98 2.203 1.98Z"/>
    <path fill="#000" d="m11.633 5.758 2.349-1.205.305.63-2.35 1.204-.304-.629Zm1.372 11.509c.507 0 .918-.667.918-1.49s-.41-1.49-.918-1.49-.92.667-.92 1.49.412 1.49.92 1.49Zm-.022-8.026c.631 0 1.143-.526 1.143-1.175 0-.65-.512-1.176-1.143-1.176s-1.143.526-1.143 1.176c0 .649.512 1.175 1.143 1.175Zm.054 3.313c.601 0 1.089-.305 1.089-.68 0-.376-.487-.681-1.088-.681-.601 0-1.089.305-1.089.68 0 .376.488.681 1.088.681Zm-1.346-2.598h2.57v.562h-2.57v-.562Zm0 3.206h2.57v.562h-2.57v-.562Z"/>
  </g>
  <defs>
    <clipPath id="a">
      <rect width="35" height="24" fill="#fff" rx="4"/>
    </clipPath>
  </defs>
</svg>
