<svg xmlns="http://www.w3.org/2000/svg" width="35" height="25" fill="none" viewBox="0 0 35 25">
  <g clip-path="url(#a)">
    <path fill="#fff" d="M0 .702h35v24H0v-24Z"/>
    <path fill="#0052B4" d="M0 24.702v-24L19.17 12.99H5.988l12.55 11.713H0Z"/>
    <path fill="#D80027" d="M16.732 12.273.697 1.994v21.99h16.035L4.183 12.273h12.55Z"/>
    <path fill="#fff" d="m6.7 17.514-.997-.483.531-.993-1.083.213-.137-1.125-.755.827-.754-.827-.137 1.125-1.083-.213.53.993-.997.483.998.482-.531.994 1.083-.213.137 1.125.754-.828.755.828.137-1.125 1.083.213-.531-.993.997-.483Zm-.665-9.336-.726-.35.387-.723-.788.155-.1-.819-.549.602-.548-.602-.1.819-.788-.155.386.723-.725.35 1.775.366 1.776-.366Z"/>
    <path fill="#fff" d="M6.39 8.178c0 1.21-.954 2.192-2.13 2.192-1.177 0-2.131-.981-2.131-2.192"/>
  </g>
  <defs>
    <clipPath id="a">
      <rect width="35" height="24" y=".702" fill="#fff" rx="4"/>
    </clipPath>
  </defs>
</svg>
