<svg xmlns="http://www.w3.org/2000/svg" width="35" height="25" fill="none" viewBox="0 0 35 25">
  <g clip-path="url(#a)">
    <path fill="#0052B4" d="M0 .872h35v24H0v-24Z"/>
    <path fill="#D80027" d="m29.073 11.307.232.733h.749l-.606.453.231.733-.606-.453-.607.453.232-.733-.606-.453h.75l.231-.733Zm-2.68 5.278.348 1.1h1.124l-.91.68.348 1.1-.91-.68-.909.68.348-1.1-.91-.68h1.124l.348-1.1Zm.102-8.637.29.916h.936l-.758.567.29.916-.758-.566-.758.566.29-.916-.758-.567h.936l.29-.916Zm-2.578 3.327.347 1.1h1.125l-.91.68.348 1.1-.91-.68-.91.68.348-1.1-.91-.68h1.125l.347-1.1Z"/>
    <path fill="#fff" d="M17.5.871v2.15l-3.088 1.763H17.5v4.174h-4.04l4.04 2.31v1.603h-1.825l-5.023-2.87v2.87H6.848V9.456L.87 12.87H0v-2.148l3.088-1.765H0V4.784h4.04L0 2.476V.87h1.824l5.024 2.872V.87h3.804v3.416L16.63.87h.871Z"/>
    <path fill="#D80027" d="M9.844.871H7.656v4.875H0v2.25h7.656v4.875h2.188V7.996H17.5v-2.25H9.844V.871Z"/>
    <path fill="#0052B4" d="m10.652 8.958 6.848 3.913v-1.106l-4.91-2.807h-1.937Z"/>
    <path fill="#fff" d="m10.652 8.958 6.848 3.913v-1.106l-4.91-2.807h-1.937Z"/>
    <path fill="#D80027" d="m10.652 8.958 6.848 3.913v-1.106l-4.911-2.807h-1.937Zm-5.74 0L0 11.765v1.106l6.848-3.913H4.91Z"/>
    <path fill="#0052B4" d="M6.848 4.784 0 .871v1.107l4.911 2.806h1.937Z"/>
    <path fill="#fff" d="M6.848 4.784 0 .871v1.107l4.911 2.806h1.937Z"/>
    <path fill="#D80027" d="M6.848 4.784 0 .871v1.107l4.911 2.806h1.937Zm5.74 0L17.5 1.978V.87l-6.848 3.913h1.937Z"/>
  </g>
  <defs>
    <clipPath id="a">
      <rect width="35" height="24" y=".872" fill="#fff" rx="4"/>
    </clipPath>
  </defs>
</svg>
