<svg xmlns="http://www.w3.org/2000/svg" width="35" height="25" fill="none" viewBox="0 0 35 25">
  <g clip-path="url(#a)">
    <path fill="#fff" d="M0 .2h35v24H0V.2Z"/>
    <path fill="#0052B4" d="M35 .2v12H17.5L0 .2h35Z"/>
    <path fill="#D80027" d="M35 12.2v12H0l17.5-12H35Z"/>
    <path fill="#FFDA44" d="m11.068 12.2-1.865-.903.993-1.858-2.025.399-.257-2.105-1.41 1.548-1.412-1.548-.256 2.105-2.026-.399.993 1.858-1.865.903 1.865.902-.993 1.858 2.026-.398.256 2.105 1.411-1.548 1.411 1.548.257-2.105 2.025.399-.993-1.859 1.865-.902ZM1.49 2.469l.62.893 1.018-.332-.634.883.621.893-1.012-.347-.634.883.008-1.097-1.012-.347 1.017-.332.008-1.097Zm0 16.588.62.893 1.018-.331-.634.883.621.892-1.012-.346-.634.883.008-1.098-1.012-.347 1.017-.331.008-1.098Zm12.893-8.294-.62.893-1.018-.332.634.883-.621.893 1.012-.347.634.883-.008-1.097 1.012-.347-1.017-.331-.008-1.098Z"/>
  </g>
  <defs>
    <clipPath id="a">
      <rect width="35" height="24" y=".2" fill="#fff" rx="4"/>
    </clipPath>
  </defs>
</svg>
