<svg xmlns="http://www.w3.org/2000/svg" width="35" height="25" fill="none" viewBox="0 0 35 25">
  <g clip-path="url(#a)">
    <path fill="#0052B4" d="M0 .333h35v24H0v-24Z"/>
    <path fill="#ACABB1" d="m27.392 9.79-1.142.39-1.141-.39-.38-.979.38-.978h2.283l-.38.978.38.978Z"/>
    <path fill="#338AF3" d="M23.588 9.79v4.304c0 2.096 2.663 2.739 2.663 2.739s2.663-.643 2.663-2.74V9.79h-5.326Z"/>
    <path fill="#6DA544" d="M23.826 15.113c.655 1.293 2.423 1.72 2.423 1.72s1.769-.427 2.423-1.72l-2.423-4.15-2.423 4.15Z"/>
    <path fill="#FFDA44" d="m28.914 14.05-2.663-4.26-2.663 4.26v.044c0 .388.091.726.24 1.02l2.423-3.878 2.423 3.877c.149-.293.24-.631.24-1.02v-.043Z"/>
    <path fill="#fff" d="M17.5.333v2.148l-3.088 1.765H17.5V8.42h-4.04l4.04 2.308v1.605h-1.824l-5.024-2.87v2.87H6.848V8.917L.87 12.333H0v-2.149L3.088 8.42H0V4.246h4.04L0 1.936V.334h1.824l5.024 2.87V.334h3.804v3.415L16.63.333h.871Z"/>
    <path fill="#D80027" d="M9.844.333H7.656v4.875H0v2.25h7.656v4.875h2.188V7.458H17.5v-2.25H9.844V.333Z"/>
    <path fill="#0052B4" d="m10.652 8.42 6.848 3.913v-1.107L12.59 8.42h-1.937Z"/>
    <path fill="#fff" d="m10.652 8.42 6.848 3.913v-1.107L12.59 8.42h-1.937Z"/>
    <path fill="#D80027" d="m10.652 8.42 6.848 3.913v-1.107L12.589 8.42h-1.937Zm-5.74 0L0 11.226v1.107L6.848 8.42H4.91Z"/>
    <path fill="#0052B4" d="M6.848 4.246 0 .333v1.106l4.911 2.807h1.937Z"/>
    <path fill="#fff" d="M6.848 4.246 0 .333v1.106l4.911 2.807h1.937Z"/>
    <path fill="#D80027" d="M6.848 4.246 0 .333v1.106l4.911 2.807h1.937Zm5.74 0L17.5 1.439V.333l-6.848 3.913h1.937Z"/>
  </g>
  <defs>
    <clipPath id="a">
      <rect width="35" height="24" y=".333" fill="#fff" rx="4"/>
    </clipPath>
  </defs>
</svg>
