<svg xmlns="http://www.w3.org/2000/svg" width="35" height="25" fill="none" viewBox="0 0 35 25">
  <g clip-path="url(#a)">
    <path fill="#D80027" d="M0 .934h35v24H0v-24Z"/>
    <path fill="#6DA544" d="M13.442.934v24H0v-24h13.442Z"/>
    <path fill="#FFDA44" d="M13.441 17.434c2.417 0 4.375-2.015 4.375-4.5 0-2.486-1.958-4.5-4.375-4.5-2.416 0-4.375 2.014-4.375 4.5 0 2.485 1.96 4.5 4.375 4.5Z"/>
    <path fill="#D80027" d="M10.98 10.684v2.812c0 1.398 1.102 2.531 2.461 2.531 1.36 0 2.461-1.133 2.461-2.53v-2.813h-4.921Z"/>
    <path fill="#fff" d="M13.441 14.34a.833.833 0 0 1-.82-.844v-1.125h1.64v1.125a.833.833 0 0 1-.82.844Z"/>
  </g>
  <defs>
    <clipPath id="a">
      <rect width="35" height="24" y=".934" fill="#fff" rx="4"/>
    </clipPath>
  </defs>
</svg>
