<svg xmlns="http://www.w3.org/2000/svg" width="35" height="25" fill="none" viewBox="0 0 35 25">
  <g clip-path="url(#a)">
    <path fill="#0052B4" d="M0 .5h35v24H0V.5Z"/>
    <path fill="#fff" d="M17.5.5v8.255h-3.151l3.151 2.16v1.589h-1.545l-5.018-3.44v3.44H6.564v-3.44l-5.018 3.44H0v-1.59l3.151-2.159H0v-4.5h3.151L0 2.096V.5h1.545l5.018 3.439V.5h4.375v3.439L15.954.5H17.5Z"/>
    <path fill="#D80027" d="M9.844.5H7.656v4.88H0v2.25h7.656v4.874h2.188V7.63H17.5V5.38H9.844V.5Z"/>
    <path fill="#D80027" d="M0 .5v1.062l3.924 2.693h1.545L0 .5Zm17.5 0v1.062l-3.924 2.693h-1.545L17.5.5Z"/>
    <path fill="#2E52B2" d="M17.499 2.096v2.159h-3.151l3.151-2.159Z"/>
    <path fill="#D80027" d="M0 .5v1.062l3.924 2.693h1.545L0 .5Zm17.5 0v1.062l-3.924 2.693h-1.545L17.5.5Z"/>
    <path fill="#2E52B2" d="M17.499 2.096v2.159h-3.151l3.151-2.159Z"/>
    <path fill="#D80027" d="M0 12.504v-1.062l3.924-2.687h1.545L0 12.503Zm17.5 0v-1.062l-3.924-2.687h-1.545l5.469 3.748Z"/>
    <path fill="#29DBFF" d="M30.693 10.324c-.007 3.122-.492 6.476-4.443 8.08-3.951-1.604-4.436-4.958-4.443-8.08h8.886Z"/>
    <path fill="#FFDA44" d="M30.693 10.324c0-1.175-.061-2.314-.034-3.312-1.476-.675-3.425-.816-4.416-.816-.991 0-2.932.14-4.416.816.027.998-.034 2.137-.034 3.312h8.9Z"/>
    <path fill="#BF521B" d="m25.26 14.88.02.725-.875.014.335.928h-1.182c-1.23-1.42-1.6-2.982-1.703-4.789l.622-.682.568 1.006.738-.9.479.548.054 1.104.944 2.046Z"/>
    <path fill="#474747" d="m29.846 14.037-.588 1.286h-3.213l-1.996-1.37 1.757.738h1.715l.253-.458.493.014.136-.21h1.443Z"/>
  </g>
  <defs>
    <clipPath id="a">
      <rect width="35" height="24" y=".5" fill="#fff" rx="4"/>
    </clipPath>
  </defs>
</svg>
