<svg xmlns="http://www.w3.org/2000/svg" width="35" height="25" fill="none" viewBox="0 0 35 25">
  <g clip-path="url(#a)">
    <path fill="#fff" d="M0 .135h35v24H0v-24Z"/>
    <path fill="#0052B4" d="M0 8.135h35v8H0v-8Z"/>
    <path fill="#D80027" d="M0 16.135h35v8H0v-8Z"/>
    <path fill="#fff" d="M15.97 7.96v1.044c0 2.396-3.043 3.13-3.043 3.13s-3.044-.734-3.044-3.13V7.961l-.01-3.107 6.087-.019.01 3.126Z"/>
    <path fill="#0052B4" d="M15.97 7.96v1.044c0 2.396-3.043 3.13-3.043 3.13s-3.044-.734-3.044-3.13V7.961l-.01-3.107 6.087-.019.01 3.126Z"/>
    <path fill="#fff" d="M15.97 7.961v1.043c0 2.396-3.044 3.13-3.044 3.13s-3.043-.733-3.043-3.13V7.961l1.015 1.043 2.028-1.565 2.03 1.565 1.014-1.043Z"/>
  </g>
  <defs>
    <clipPath id="a">
      <rect width="35" height="24" y=".135" fill="#fff" rx="4"/>
    </clipPath>
  </defs>
</svg>
