<svg xmlns="http://www.w3.org/2000/svg" width="35" height="25" fill="none" viewBox="0 0 35 25">
  <g clip-path="url(#a)">
    <path fill="#0052B4" d="M0 .033h35v24H0v-24Z"/>
    <path fill="#fff" d="M17.5.033V8.29h-3.151l3.151 2.159v1.589h-1.545l-5.018-3.439v3.439H6.564v-3.44l-5.018 3.439H0v-1.59L3.151 8.29H0v-4.5h3.151L0 1.628V.033h1.545l5.018 3.439V.033h4.375v3.439L15.954.033H17.5Z"/>
    <path fill="#D80027" d="M9.844.033H7.656v4.88H0v2.25h7.656v4.874h2.188V7.164H17.5v-2.25H9.844V.033Z"/>
    <path fill="#D80027" d="M0 .033v1.062l3.924 2.693h1.545L0 .033Zm17.5 0v1.062l-3.924 2.693h-1.545L17.5.033Z"/>
    <path fill="#2E52B2" d="M17.499 1.63v2.158h-3.151l3.151-2.159Z"/>
    <path fill="#D80027" d="M0 .033v1.062l3.924 2.693h1.545L0 .033Zm17.5 0v1.062l-3.924 2.693h-1.545L17.5.033Z"/>
    <path fill="#2E52B2" d="M17.499 1.63v2.158h-3.151l3.151-2.159Z"/>
    <path fill="#D80027" d="M0 12.037v-1.062l3.924-2.686h1.545L0 12.037Zm17.5 0v-1.062l-3.924-2.686h-1.545l5.469 3.748Z"/>
    <path fill="#29DBFF" d="M30.686 11.952c0 .675-.02 2.082-.095 2.757-.28 2.454-1.607 4.838-4.245 6.04-3.097-1.258-4.157-3.586-4.437-6.04a18.515 18.515 0 0 1-.102-2.04l.02-3.311h8.832l.027 2.594Z"/>
    <path fill="#fff" d="m30.59 14.709-.04.344c-.328 2.328-1.566 4.6-4.204 5.696-2.953-1.195-4.06-3.368-4.389-5.696l-.041-.344"/>
    <path fill="#29DBFF" d="m26.347 17.733-1.566-3.024h3.131l-1.565 3.024Z"/>
    <path fill="#fff" d="M26.347 11.692 24.78 14.71h3.131l-1.565-3.017Z"/>
    <path fill="#FFBE57" d="M32.457 19.73c.634 0 1.148-1.364 1.148-3.045 0-1.682-.514-3.045-1.148-3.045-.634 0-1.148 1.363-1.148 3.045 0 1.681.514 3.045 1.148 3.045Zm-12.269 0c.634 0 1.148-1.364 1.148-3.045 0-1.682-.514-3.045-1.148-3.045-.635 0-1.149 1.363-1.149 3.045 0 1.681.514 3.045 1.148 3.045Z"/>
    <path fill="#fff" d="m26.346 2.248-2.284 3.094h4.683l-2.4-3.094Zm-4.779 17.475s2.31 2.074 4.779 2.074c2.468 0 4.587-2.074 4.587-2.074l.58 1.026s-1.49 2.208-5.167 2.208c-3.678 0-5.36-2.208-5.36-2.208l.581-1.026Z"/>
    <path fill="#A5A5A5" d="M26.407 9.006c1.295 0 2.345-.734 2.345-1.638 0-.905-1.05-1.639-2.345-1.639-1.295 0-2.345.734-2.345 1.639 0 .904 1.05 1.638 2.345 1.638Z"/>
  </g>
  <defs>
    <clipPath id="a">
      <rect width="35" height="24" y=".033" fill="#fff" rx="4"/>
    </clipPath>
  </defs>
</svg>
