<svg xmlns="http://www.w3.org/2000/svg" width="35" height="25" fill="none" viewBox="0 0 35 25">
  <g clip-path="url(#a)">
    <path fill="#0052B4" d="M0 .135h35v24H0v-24Z"/>
    <path fill="#FFDA44" d="M22.7 7.635v5.5c0 2.679 3.55 3.5 3.55 3.5s3.55-.821 3.55-3.5v-5.5h-7.1Z"/>
    <path fill="#FF9811" d="M25.742 9.635c0 .552-.454 2-1.015 2-.56 0-1.014-1.448-1.014-2 0-.553 1.014-1 1.014-1s1.015.447 1.015 1Z"/>
    <path fill="#A2001D" d="M28.434 10.724c.164-.394.291-.97.291-1.256 0-.46-.609-.833-.609-.833s-.608.373-.608.833c0 .286.127.862.29 1.256l-.35.782a1.793 1.793 0 0 0 1.337 0l-.351-.782Z"/>
    <path fill="#6DA544" d="M25.49 13.134s-.508 1-.508 2h2.537c0-1-.508-2-.508-2l-.76-.5-.761.5Z"/>
    <path fill="#D80027" d="M27.01 13.134v-.25c0-.414-.34-.75-.76-.75a.756.756 0 0 0-.762.75v.25h1.522Z"/>
    <path fill="#fff" d="M17.5.135v2.148l-3.088 1.765H17.5V8.22h-4.04l4.04 2.31v1.603h-1.824l-5.024-2.87v2.87H6.848V8.72L.87 12.134H0V9.986l3.088-1.765H0V4.048h4.04L0 1.738V.135h1.824l5.024 2.87V.135h3.804V3.55L16.63.135h.871Z"/>
    <path fill="#D80027" d="M9.844.135H7.656v4.874H0v2.25h7.656v4.875h2.188V7.26H17.5V5.01H9.844V.135Z"/>
    <path fill="#0052B4" d="m10.652 8.221 6.848 3.913v-1.106l-4.91-2.807h-1.937Z"/>
    <path fill="#fff" d="m10.652 8.221 6.848 3.913v-1.106l-4.91-2.807h-1.937Z"/>
    <path fill="#D80027" d="m10.652 8.221 6.848 3.913v-1.106l-4.911-2.807h-1.937Zm-5.74 0L0 11.028v1.106l6.848-3.913H4.91Z"/>
    <path fill="#0052B4" d="M6.848 4.048 0 .135V1.24l4.911 2.807h1.937Z"/>
    <path fill="#fff" d="M6.848 4.048 0 .135V1.24l4.911 2.807h1.937Z"/>
    <path fill="#D80027" d="M6.848 4.048 0 .135V1.24l4.911 2.807h1.937Zm5.74 0L17.5 1.24V.135l-6.848 3.913h1.937Z"/>
  </g>
  <defs>
    <clipPath id="a">
      <rect width="35" height="24" y=".135" fill="#fff" rx="4"/>
    </clipPath>
  </defs>
</svg>
