<svg xmlns="http://www.w3.org/2000/svg" width="35" height="24" fill="none" viewBox="0 0 35 24">
  <g clip-path="url(#a)">
    <path fill="#496E2D" d="M0 0h35v24H0V0Z"/>
    <path fill="#fff" d="M24.419 6.915c.574-1.646-.07-3.435-1.455-4.327.254.034.503.096.744.184 1.846.682 2.806 2.773 2.143 4.671-.662 1.9-2.695 2.886-4.54 2.205a3.528 3.528 0 0 1-.69-.344c1.62.216 3.224-.743 3.798-2.389Zm-3.184-4.778-.498.663-.767-.283.458.693-.498.663.782-.235.459.693.024-.838.783-.235-.767-.283.024-.838Z"/>
    <path fill="#fff" d="m22.582 4.297-.5.663-.766-.283.459.693-.499.662.782-.234.459.692.025-.837.782-.235-.767-.283.025-.838ZM18.86 2.924l-.498.663-.767-.283.458.692-.498.663.782-.235.459.693.024-.838.783-.234-.767-.283.024-.838Zm-.054 2.474-.499.663-.767-.283.459.693-.499.662.782-.234.46.692.024-.837.782-.235-.767-.283.025-.838Zm2.289.845-.5.663-.766-.284.459.693-.5.663.783-.235.46.693.024-.838.782-.234-.767-.283.025-.838Z"/>
    <path fill="#D80027" d="M5.707 0h6.087v24H5.707V0Z"/>
    <path fill="#fff" d="m8.029 6.318-1.02-.78V4.432l1.02-.78H9.47l1.02.78v1.104l-1.02.781H8.03Z"/>
    <path fill="#FF9811" d="M8.75 3.652h-.721l-1.02.781v.54h1.74v-1.32Zm0 2.666h.72l1.02-.78v-.564H8.75v1.344Z"/>
    <path fill="#fff" d="m8.029 20.348-1.02-.781v-1.104l1.02-.781H9.47l1.02.78v1.105l-1.02.78H8.03Z"/>
    <path fill="#FF9811" d="M8.75 17.682h-.721l-1.02.78v.54h1.74v-1.32Zm0 2.666h.72l1.02-.781v-.563H8.75v1.344Z"/>
    <path fill="#496E2D" d="m8.03 13.333-1.02-.78v-1.105l1.02-.78h1.44l1.02.78v1.104l-1.02.781H8.03Zm2.495 1.718h-.444v-.457h-.78l-.551-.567-.552.567h-.78v.457h-.443v.913h.443v.457h.78l.552.567.551-.567h.78v-.457h.444v-.913Zm0-7.015h-.444V7.58h-.78l-.551-.568-.552.568h-.78v.456h-.443v.913h.443v.457h.78l.552.567.551-.567h.78v-.457h.444v-.913Z"/>
    <path fill="#D80027" d="M8.242 11.478h1.015v1.043H8.242v-1.043Zm.508-2.464c.28 0 .507-.233.507-.522a.515.515 0 0 0-.508-.521.515.515 0 0 0-.507.521c0 .289.227.522.507.522Zm0 7.016c.28 0 .507-.234.507-.522a.515.515 0 0 0-.508-.522.515.515 0 0 0-.507.522c0 .288.227.521.507.521Z"/>
  </g>
  <defs>
    <clipPath id="a">
      <rect width="35" height="24" fill="#fff" rx="4"/>
    </clipPath>
  </defs>
</svg>
