<svg xmlns="http://www.w3.org/2000/svg" width="35" height="24" fill="none" viewBox="0 0 35 24">
  <g clip-path="url(#a)">
    <path fill="#232323" d="M0 0h35v24H0V0Z"/>
    <path fill="#FFDA44" d="M0 4.001h35v4.001H0v-4Z"/>
    <path fill="#D32300" d="M0 8.002h35v4.002H0V8.002Z"/>
    <path fill="#FFDA44" d="M0 16.005h35v4H0v-4Z"/>
    <path fill="#D32300" d="M0 19.999h35v4H0v-4Z"/>
    <path fill="#fff" d="M17.499 17.678c3.047 0 5.517-2.54 5.517-5.674 0-3.134-2.47-5.675-5.517-5.675s-5.517 2.54-5.517 5.675c0 3.134 2.47 5.674 5.517 5.674Z"/>
    <path fill="#000" d="M16.031 8.966c.062-.099-1.34-.14-1.34-.14.117-.177 1.258-.74 1.258-.74s-.061-.421.185-.688l-.308-.69s.479-.239 1.258-.239c.78 0 1.36.493 1.436.922l-.438.239c-.007.33.116.815-.294 1.216-.403.401-.567.485-.581 1.322 0 .275.157.577.602.823 1.189.654 2.638 1.983 3.048 2.384.417.4.35 1.35.178 1.772-.17.422-.827 1.005-.977.956-.15-.042.082-.647-.24-.816 0 0-.608-.534-1.148.043-.54.576-.014 1.772.266 1.969.28.197.117.351-.13.351h-1.92c-.26 0-.37-.162-.13-.351.52-.267.848-1.076.506-1.428-.335-.344-1.251.106-1.47.443-.191.197-.602.253-.882-.098-.28-.352-.28-.732-.075-.88.478-.337 0 0 .007-.006 0 0 .813-.605 2.044-.633.266 0 .328-.155.15-.338 0 0-2.112-1.926-1.92-3.108.204-1.287 1.366-1.85.915-2.285 0 0-.089-.127 0 0Z"/>
  </g>
  <defs>
    <clipPath id="a">
      <rect width="35" height="24" fill="#fff" rx="4"/>
    </clipPath>
  </defs>
</svg>
