<svg xmlns="http://www.w3.org/2000/svg" width="35" height="24" fill="none" viewBox="0 0 35 24">
  <g clip-path="url(#a)">
    <path fill="#000" d="M0 0h35v24H0V0Z"/>
    <path fill="#6DA544" d="M35 12v12H0l14.71-12H35Z"/>
    <path fill="#D80027" d="M35 0v12H14.71L0 0h35Z"/>
    <path fill="#000" d="M15.107 10.826 1.838 0H.612l14.23 11.609H35v-.783H15.108ZM.613 24h1.225l13.27-10.826H35v-.783H14.843L.613 24ZM0 .5v.999L12.873 12 0 22.502v.998L14.098 12 0 .5Z"/>
    <path fill="#FFDA44" d="M.612 0H0v.5L14.098 12 0 23.5v.5h.612l14.23-11.609H35v-.782H14.843L.613 0Z"/>
    <path fill="#FFDA44" d="M4.355 14.558v-1.005c.975 0 1.769-.816 1.769-1.819 0-.71-.562-1.287-1.252-1.287a.866.866 0 0 0-.852.877c0 .309.245.56.545.56.082 0 .16-.033.218-.093a.319.319 0 0 0 .09-.223h.978c0 .729-.577 1.322-1.286 1.322-.84 0-1.522-.703-1.522-1.566 0-1.038.82-1.882 1.83-1.882C6.1 9.442 7.1 10.47 7.1 11.734c0 1.557-1.232 2.824-2.746 2.824Z"/>
  </g>
  <defs>
    <clipPath id="a">
      <rect width="35" height="24" fill="#fff" rx="4"/>
    </clipPath>
  </defs>
</svg>
