<svg xmlns="http://www.w3.org/2000/svg" width="35" height="24" fill="none" viewBox="0 0 35 24">
  <g clip-path="url(#a)">
    <path fill="#0052B4" d="M0 0h35v24H0V0Z"/>
    <path fill="#fff" d="m15.089 2.997.543 1.133 1.215.182-.88.881.208 1.245-1.086-.588-1.087.588.207-1.245-.88-.881 1.216-.182.544-1.133Zm4.823-.004.544 1.132 1.215.182-.88.881L21 6.434l-1.087-.588-1.087.588.208-1.246-.88-.88 1.216-.183.543-1.132Zm4.244.799.543 1.133 1.215.181-.88.882.209 1.244-1.087-.587-1.087.587.208-1.244-.88-.882 1.215-.181.544-1.133Zm4.307 1.287.543 1.132 1.215.183-.879.88.208 1.246-1.087-.588-1.087.588.207-1.245-.879-.881 1.216-.183.543-1.132ZM10.845 3.792l.543 1.133 1.216.181-.88.882.208 1.244-1.087-.587-1.087.587.208-1.244-.88-.882 1.215-.181.544-1.133ZM6.537 5.079l.544 1.132 1.215.183-.879.88.207 1.246-1.087-.588-1.086.588.207-1.245-.879-.881 1.215-.183.543-1.132Z"/>
    <path fill="#FFDA44" d="m14.87 18.234-1.86-.957-1.862-3.827h1.861l1.86-1.914.931-1.914 1.861-.957.93.957 1.861.957v.957l.93.957 2.792 1.914-.932 2.87-2.791 2.872-.93-1.914-2.792 1.914v1.914l-.93-.957-.93-2.872Z"/>
  </g>
  <defs>
    <clipPath id="a">
      <rect width="35" height="24" fill="#fff" rx="4"/>
    </clipPath>
  </defs>
</svg>
