<svg xmlns="http://www.w3.org/2000/svg" width="24" height="24" fill="none" viewBox="0 0 24 24">
  <circle cx="12" cy="12" r="12" fill="#212121"/>
  <path fill="#A16552" d="M6.14 9.63a5.403 5.403 0 0 0-.196 1.424v.1a7.235 7.235 0 0 1-.196 1.726c-.272-.095-.551-.288-.818-.621-.701-.878-.468-2.286.397-2.617a1.11 1.11 0 0 1 .815-.017.028.028 0 0 0-.001.005Z"/>
  <path fill="#F5DCB4" d="M6.14 9.63a5.403 5.403 0 0 0-.196 1.424v.1a7.235 7.235 0 0 1-.196 1.726c-.272-.095-.551-.288-.818-.621-.701-.878-.468-2.286.397-2.617a1.11 1.11 0 0 1 .815-.017.028.028 0 0 0-.001.005Z"/>
  <path fill="#A16552" d="M19.07 12.26c-.266.332-.546.525-.817.62a7.252 7.252 0 0 1-.197-1.726v-.1a5.382 5.382 0 0 0-.199-1.428c.214-.082.488-.109.815.016.866.331 1.1 1.739.398 2.617Z"/>
  <path fill="#F5DCB4" d="M19.07 12.26c-.266.332-.546.525-.817.62a7.252 7.252 0 0 1-.197-1.726v-.1a5.382 5.382 0 0 0-.199-1.428c.214-.082.488-.109.815.016.866.331 1.1 1.739.398 2.617Z"/>
  <path fill="#A16552" d="M16.374 12.898a1.531 1.531 0 0 0-.173 1.328c.116.335.219.714.219.996-.001 2.064-1.98 3.734-4.42 3.734s-4.42-1.67-4.42-3.734c0-.282.103-.66.218-.996a1.53 1.53 0 0 0-.172-1.327 2.379 2.379 0 0 1-.382-1.288c0-1.369 1.18-2.48 2.637-2.48.47 0 .933.118 1.343.346.481.27 1.07.27 1.552 0a2.75 2.75 0 0 1 1.342-.345c1.456 0 2.638 1.11 2.638 2.48a2.34 2.34 0 0 1-.382 1.286Z"/>
  <path fill="#F5DCB4" d="M16.374 12.898a1.531 1.531 0 0 0-.173 1.328c.116.335.219.714.219.996-.001 2.064-1.98 3.734-4.42 3.734s-4.42-1.67-4.42-3.734c0-.282.103-.66.218-.996a1.53 1.53 0 0 0-.172-1.327 2.379 2.379 0 0 1-.382-1.288c0-1.369 1.18-2.48 2.637-2.48.47 0 .933.118 1.343.346.481.27 1.07.27 1.552 0a2.75 2.75 0 0 1 1.342-.345c1.456 0 2.638 1.11 2.638 2.48a2.34 2.34 0 0 1-.382 1.286Z"/>
  <path fill="#4E3F3F" d="M9.748 15.684a.255.255 0 0 0-.19.085.249.249 0 0 0-.062.198c.158 1.105 1.22 1.96 2.504 1.96s2.347-.855 2.503-1.96a.248.248 0 0 0-.06-.198.255.255 0 0 0-.192-.085H9.748Z"/>
  <path fill="#E6646E" d="M10.547 17.515c.89.549 2.018.549 2.908 0-.182-.623-.766-.48-1.455-.48-.69 0-1.27-.143-1.453.48Z"/>
  <path fill="#A16552" fill-rule="evenodd" d="M17.742 9.252c.291-.166.706-.272 1.23-.071 1.098.42 1.395 2.21.504 3.325-.363.454-.745.703-1.114.814l.01.042.004.02c.067.3.1.605.1.912 0 2.875-2.9 5.206-6.475 5.206h-.07a8.034 8.034 0 0 1-.883-.054 7.614 7.614 0 0 1-1.654-.384c-2.28-.805-3.87-2.638-3.87-4.768a4.218 4.218 0 0 1 .114-.973c-.367-.111-.75-.36-1.114-.813-.891-1.117-.595-2.906.505-3.327.5-.192.902-.103 1.192.05l.037.02a6.442 6.442 0 0 1 .465-1.04c.8-1.445 2.144-2.646 3.69-3.153.072-.143.535-.978 1.466-1.053.047-.005.096-.005.146-.005l.043.18.146.621c.074.003.148.008.221.015l.12.013 1-.593.032.821c1.543.508 2.89 1.708 3.69 3.154a6.839 6.839 0 0 1 .465 1.04ZM5.944 11.054a5.403 5.403 0 0 1 .198-1.429 1.109 1.109 0 0 0-.815.017c-.865.331-1.098 1.739-.397 2.617.267.334.546.526.818.621.134-.565.2-1.145.196-1.726v-.1Zm10.593 1.549a2.376 2.376 0 0 1-.163.295 1.532 1.532 0 0 0-.173 1.328c.116.335.219.714.219.996-.001 2.064-1.979 3.734-4.42 3.734-2.44 0-4.42-1.67-4.42-3.734 0-.282.103-.66.218-.996a1.53 1.53 0 0 0-.171-1.327 2.38 2.38 0 0 1-.383-1.288c0-1.369 1.18-2.48 2.637-2.48.47 0 .934.118 1.344.346.48.27 1.07.27 1.55 0a2.75 2.75 0 0 1 1.343-.345c1.456 0 2.638 1.11 2.638 2.48 0 .342-.074.68-.22.99Zm1.716.278c.27-.096.55-.289.817-.622.701-.878.468-2.286-.398-2.616a1.108 1.108 0 0 0-.815-.017c.13.465.197.946.199 1.429v.1c-.004.58.062 1.16.197 1.726Z" clip-rule="evenodd"/>
  <path fill="#4E3F3F" d="M11.006 14.101a.21.21 0 0 1 .173-.383l.494.223a.21.21 0 1 1-.173.383l-.494-.223Zm1.494.224a.21.21 0 0 1-.173-.383l.494-.223a.21.21 0 0 1 .173.383l-.494.223Zm-2.77-1.723c-.418 0-.757-.317-.757-.709v-.236c0-.39.339-.708.757-.708s.756.317.756.708v.236c0 .392-.338.71-.756.71Z"/>
  <path fill="#5D5360" d="M9.729 10.949v.826c.009.2.175.357.378.357a.376.376 0 0 0 .378-.357v-.116c0-.394-.338-.71-.756-.71Z"/>
  <ellipse cx="9.729" cy="11.421" fill="#fff" rx=".253" ry=".236"/>
  <path fill="#4E3F3F" d="M14.27 12.602c-.418 0-.756-.317-.756-.709v-.236c0-.39.338-.708.756-.708s.758.317.758.708v.236c0 .392-.34.71-.758.71Z"/>
  <path fill="#5D5360" d="M14.271 10.949v.826a.377.377 0 0 0 .379.354.377.377 0 0 0 .379-.354v-.116c0-.394-.34-.71-.758-.71Z"/>
  <ellipse cx="14.272" cy="11.421" fill="#fff" rx=".253" ry=".236"/>
</svg>
