<svg xmlns="http://www.w3.org/2000/svg" width="24" height="24" fill="none" viewBox="0 0 24 24">
  <path fill="#E84142" fill-rule="evenodd" d="M24 12c0 6.627-5.373 12-12 12S0 18.627 0 12 5.373 0 12 0s12 5.373 12 12Z" clip-rule="evenodd"/>
  <path fill="#fff" fill-rule="evenodd" d="M8.6 16.775H6.27c-.49 0-.73 0-.878-.094a.592.592 0 0 1-.269-.463c-.008-.174.113-.386.354-.81l5.75-10.136c.245-.43.369-.646.525-.725a.594.594 0 0 1 .537 0c.156.08.28.294.524.725l1.183 2.063.006.01c.264.463.398.697.457.942.064.269.064.552 0 .82-.06.248-.192.483-.46.952l-3.02 5.34-.009.013c-.266.466-.4.702-.587.88a1.757 1.757 0 0 1-.717.415c-.244.068-.519.068-1.067.068Zm5.881 0h3.337c.493 0 .74 0 .888-.097a.59.59 0 0 0 .268-.466c.008-.168-.11-.372-.342-.772a13.042 13.042 0 0 0-.024-.041l-1.671-2.86-.02-.032c-.234-.397-.353-.598-.505-.675a.587.587 0 0 0-.533 0c-.154.08-.278.289-.522.71l-1.666 2.86-.006.01c-.243.42-.365.63-.356.803a.597.597 0 0 0 .268.466c.144.094.392.094.884.094Z" clip-rule="evenodd"/>
</svg>
