<svg xmlns="http://www.w3.org/2000/svg" width="24" height="24" fill="none" viewBox="0 0 24 24">
  <circle cx="12" cy="12" r="12" fill="#002D72"/>
  <path fill="#fff" fill-rule="evenodd" d="m12.5 4-7 4v8l7 4 7-4V8l-7-4Zm0 .5L6 8.5v7l6.5 4 6.5-4v-7l-6.5-4Zm2.607 3H9.873l-.607 2.655h6.472l-.63-2.655Zm-4.296 3.056.57 1.483-.174 1.662H12.5l1.304-.006-.162-1.656.559-1.483h-3.39Zm2.236 4.371v.526l1.13 1.035h.943l2.38-4.126-1.749-1.31-1.532.993v1.764l-1.172 1.118Zm-3.793-3.863L7.5 12.362 9.892 16.5h.955l1.13-1.047v-.526l-1.172-1.118v-1.764l-1.55-.98Z" clip-rule="evenodd"/>
</svg>
