<svg xmlns="http://www.w3.org/2000/svg" width="24" height="24" fill="none" viewBox="0 0 24 24">
  <circle cx="12" cy="12" r="12" fill="#C2A633"/>
  <path fill="#fff" fill-rule="evenodd" d="m11.514 4 .324.01.3.015.162.012.258.023.18.02.187.023.29.044.2.035.205.04.208.045.105.025.213.054.216.06.217.067.11.036.22.078c.183.067.367.142.55.226l.22.105c1.977.983 3.821 3.015 3.821 7.21 0 3.725-1.47 5.695-3.122 6.732l-.195.118a6.798 6.798 0 0 1-.59.305l-.198.086-.196.08-.195.072-.194.066-.192.06-.188.054-.187.048-.091.022-.18.04-.177.036-.256.044-.164.025-.235.03-.149.015-.21.018-.252.014-.167.006-.204.001-.169-.003-.122-.006-5.45-.001v-7.123H4.5v-1.744h1.917V4h5.097Zm.11 2.955H9.479v4.168h3.375v1.744H9.479v4.167h2.327l.236-.005.267-.015.185-.018.201-.026.142-.022.148-.028.152-.032.077-.019.158-.041.161-.048c.081-.025.163-.053.246-.084l.165-.066.166-.073c1.189-.557 2.363-1.762 2.36-4.371-.004-2.64-1.172-3.954-2.376-4.603l-.168-.087a4.867 4.867 0 0 0-.252-.114l-.166-.067-.164-.06a5.235 5.235 0 0 0-.082-.026l-.16-.05a5.345 5.345 0 0 0-.079-.022l-.155-.04-.15-.035-.144-.03-.139-.024-.132-.02-.124-.017-.172-.017-.103-.008-.136-.008-.144-.003Z" clip-rule="evenodd"/>
</svg>
