<svg xmlns="http://www.w3.org/2000/svg" width="24" height="24" fill="none" viewBox="0 0 24 24">
  <circle cx="12" cy="12" r="12" fill="#1969FF"/>
  <path fill="#fff" fill-rule="evenodd" d="M11.286 4.153c.4-.204 1.01-.204 1.41 0l4.086 2.086c.241.123.373.306.397.495h.004v10.482c-.005.206-.139.412-.401.546l-4.086 2.085c-.4.204-1.01.204-1.41 0L7.2 17.762c-.261-.134-.387-.34-.393-.546V6.802a.52.52 0 0 1 0-.034v-.034h.002c.018-.191.145-.37.39-.495l4.087-2.086Zm5.255 8.429-3.844 1.962c-.4.204-1.01.204-1.41 0L7.45 12.586v4.61l3.836 1.946c.216.112.441.221.66.235l.045.002c.215 0 .424-.099.636-.2l.04-.018 3.873-1.983v-4.596ZM6.287 17.84c-.096-.186-.144-.45-.144-.852H5.5v.028c.005.917.236 1.358.857 1.762.058.038.12.077.195.121l.044.026.26.152.333-.532-.233-.135-.075-.045a5.036 5.036 0 0 1-.165-.102l-.012-.008c-.218-.143-.337-.261-.417-.415Zm5.382-8.067a.597.597 0 0 0-.083.034L7.5 11.892l-.012.007-.004.002.007.003.01.005 4.085 2.085a.597.597 0 0 0 .083.034V9.773Zm.643 4.255V9.773c.03.01.058.02.084.034l4.085 2.085.01.005.006.004-.003.002-.012.006-4.086 2.085a.597.597 0 0 1-.084.034Zm4.229-6.55-3.666 1.87 3.666 1.871V7.478Zm-9.09 3.737V7.482l3.657 1.867-3.657 1.866Zm4.945-6.512c-.213-.109-.597-.109-.81 0L7.5 6.788l-.012.007-.004.001.007.004.01.005 4.085 2.085c.213.109.597.109.81 0l4.085-2.085.013-.007.003-.002-.006-.003-.01-.005-4.086-2.085Zm5.007.38-.26-.152-.332.532.232.135.075.045c.064.039.117.071.165.102l.012.008c.218.144.337.262.417.416.096.186.144.45.144.851h.643v-.028c-.005-.917-.236-1.358-.857-1.762a5.82 5.82 0 0 0-.195-.121l-.044-.026Z" clip-rule="evenodd"/>
</svg>
