<svg xmlns="http://www.w3.org/2000/svg" width="24" height="24" fill="none" viewBox="0 0 24 24">
  <circle cx="12" cy="12" r="12" fill="#F3F5FA"/>
  <path fill="#fff" d="m7.307 13.265.423-3.17-3.671-2.539 3.354 1.132.792-1.21 2.892-1.79 6.378 3.5.33 5.34-2.839 3.933-2.245.342 1.162-2.118v-2.039l-.845-1.591-.858-.566-1.32 1.355v1.434l-1.03.96-1.308.158-.581.329-.95-.303-.397-1.42.713-1v-.737Z"/>
  <path fill="#94A6C3" d="M13.171 7.53c-.7-.145-1.465-.105-1.465-.105s-.251 1.157-1.81 1.46c.014 0 2.06.697 3.275-1.355Zm.634 10.497a5.054 5.054 0 0 0 1.77-2.591c.013-.04.132-.105.21-.158.133-.08.265-.145.291-.25a5.45 5.45 0 0 0 .08-.934c0-.118-.12-.237-.238-.355-.093-.08-.185-.171-.185-.237a5.006 5.006 0 0 0-1.572-3.13l-.092.091a4.892 4.892 0 0 1 1.532 3.052c.013.105.119.21.224.316.093.079.198.197.198.25 0 .302-.026.605-.079.907-.013.053-.132.106-.224.158-.132.066-.251.132-.278.237a4.863 4.863 0 0 1-2.007 2.723c.172-.368.713-1.565 1.004-2.17l-.053-1.947-1.677-1.618-.951.131-1.043 1.684s.488.618-.198 1.342c-.674.71-1.202.868-1.202.868l-.489-.263c.146-.184.436-.46.66-.645.384-.315.767-.342.767-.684.013-.71-.753-.513-.753-.513l-.277.263-.12.974-.58.723-.066-.013-.951-.21s.58-.303.673-.645c.093-.329-.185-1.42-.198-1.486.013.013.278.236.396.605.212-.579.489-1.132.568-1.184.08-.053 1.15-.618 1.15-.618l-.357.934.264-.145.634-1.552s.62-.303 1.082-.303c.832-.013 2.06-1.026 1.506-2.841.158.066 2.905 1.434 3.38 4.117.357 2.065-.818 3.999-2.8 5.117Z"/>
  <path fill="#1B314F" d="M10.661 7.82c.304-.356.185-.882.185-.882L9.961 8.24c-.013 0 .317.014.7-.42ZM7.69 14.936l.105-.526s-.436.763-.475.868c-.04.118.026.329.198.316.171-.014.383-.264.383-.448 0-.237-.212-.21-.212-.21Z"/>
  <path fill="#1B314F" fill-rule="evenodd" d="M15.534 6.57s.66.026 1.347.105c-1.545-1.21-3.01-1.565-4.199-1.565-1.626 0-2.731.661-2.811.71h-.002l.515-.815s-2.06-.198-2.786 1.973c-.185-.46-.357-1.131-.357-1.131s-1.07.933-.567 2.486a146.564 146.564 0 0 0-3.05-1.079c-.093-.013-.12.026-.12.026s-.026.04.053.106c.145.118 2.918 2.157 3.526 2.551-.132.474-.132.697 0 .921.185.303.198.46.172.684-.027.224-.265 2.157-.317 2.394-.022.096-.125.29-.238.504-.168.316-.36.676-.343.825.026.25.37 1.315.673 1.433.225.08.78.25 1.149.25.132 0 .25-.026.304-.079.224-.197.29-.236.449-.236h.04c.03 0 .063.002.098.005a1.6 1.6 0 0 0 .139.008c.211 0 .489-.04.687-.224.137-.136.32-.296.493-.446.194-.168.374-.325.458-.422a1.22 1.22 0 0 0 .25-.934c-.04-.316.132-.592.33-.868.251-.329.714-.92.714-.92.91.683 1.479 1.722 1.479 2.88 0 2.052-1.796 3.71-4.015 3.71-.343 0-.673-.04-1.003-.12 1.016.356 1.875.474 2.575.474 1.492 0 2.284-.539 2.284-.539s-.277.355-.726.763h.013c2.47-.342 3.671-2.368 3.671-2.368s-.092.658-.211 1.105c3.204-2.397 2.76-5.38 2.722-5.629l-.002-.014c.017.025.149.184.288.353l.24.292c.529-5.42-3.922-7.169-3.922-7.169Zm-5.058 8.655c-.04.05-.183.18-.319.302l-.117.106-.167.15a7.225 7.225 0 0 0-.295.27c-.053.053-.158.08-.317.08h-.396c.198-.263.78-.868.977-1 .238-.158.357-.316.211-.592-.145-.276-.528-.21-.528-.21s.225-.092.423-.092c-.251-.066-.568 0-.713.144-.106.097-.13.357-.153.617-.012.13-.023.26-.045.37-.06.306-.246.475-.53.734l-.104.095c-.185.17-.317.223-.423.223a4.556 4.556 0 0 1-.673-.17c-.132-.172-.33-.737-.383-.974.028-.095.118-.264.196-.41.03-.058.059-.111.081-.156l.022-.042c.145-.277.23-.439.255-.59.053-.223.225-1.604.291-2.183.172.224.41.592.357.829.383-.54.105-1.066-.027-1.276-.119-.21-.277-.631-.145-1.079.132-.447.607-1.683.607-1.683s.159.276.383.223c.225-.052 2.034-2.762 2.034-2.762s.489 1.066-.027 1.842c-.528.776-1.043.92-1.043.92s.727.132 1.4-.355c.277.645.542 1.316.555 1.408l-.057.134v.002c-.148.35-.52 1.232-.564 1.297-.026.027-.211.08-.343.106-.225.065-.357.105-.41.144-.092.08-.515 1.237-.713 1.802a1.09 1.09 0 0 0-.647.46c.093-.065.383-.104.594-.13.185-.014.753.289.898.854v.027a.832.832 0 0 1-.145.565Zm-1.127-.312c-.007.127-.02.335-.113.47l.073-.076c.07-.073.17-.18.231-.24a.968.968 0 0 1 .132-.094c.097-.061.185-.117.185-.235 0-.184-.25-.223-.357-.197-.105.027-.132.197-.145.29-.003.02-.004.048-.006.082Zm5.155-2.042c.133-.671.146-1.25.106-1.723.515.684.832 1.512.924 2.367.014.105.12.21.225.316.092.079.198.184.198.25 0 .302-.026.605-.08.907-.012.038-.12.099-.209.15l-.015.008c-.132.066-.25.132-.277.237a4.898 4.898 0 0 1-1.743 2.539c1.228-1.276 1.822-3.38.871-5.051Zm.978 2.551c-.29 1.04-.951 1.96-1.81 2.618a5.384 5.384 0 0 0 3.077-4.854c0-2.775-2.112-5.064-4.82-5.353a3.192 3.192 0 0 1-.277.381c.198.487.713 1.763.713 1.829 0 .079-.25.723-.277.75a3.17 3.17 0 0 1-.45.039 9.312 9.312 0 0 1-.29.657c-.04.053-.158.093-.41.158l-.086.026c-.119.034-.249.072-.27.093-.066.079-.422 1.013-.66 1.67a1.45 1.45 0 0 1 .66.04c.515-.974.925-1.5 1.03-1.5a.642.642 0 0 1 .07 0c.294.01 1.342.047 1.78-1 .467-1.14-.192-2.114-.237-2.18 0-.002-.001-.002-.002-.003l.002.001c.059.028 1.086.524 1.345 2.077a5.12 5.12 0 0 1 1.083 2.618c0 .05.06.113.117.175.02.021.038.042.055.062.119.118.238.236.238.355 0 .316-.027.631-.08.934-.026.105-.158.184-.29.25l-.059.037c-.069.044-.142.09-.152.12Z" clip-rule="evenodd"/>
  <path fill="#1B314F" d="M10.16 10.937a.574.574 0 0 0-.344-.92c.12-.277.29-.83.29-.83s-1.346 2.105-1.465 2.145c-.119.039-.238-.421-.238-.421-.25.96.423 1.091.502.789.37-.092 1.004-.487 1.255-.763Z"/>
  <path fill="#FFD923" d="m9.012 11.45.686-1.17s.397.197.198.512c-.25.369-.884.658-.884.658Z"/>
  <path fill="#D82122" d="M17.501 16.87a7.308 7.308 0 0 1-.687.802c1.704-3.262.08-6.248.014-6.367.119.119.237.25.343.369 1.307 1.447 1.466 3.617.33 5.195Zm1.586-4.197c-.594-1.591-1.44-2.946-3.301-4.17-1.796-1.183-3.724-1.091-3.83-1.078h-.026c.066-.026.132-.04.198-.053.41-.131.937-.236 1.466-.302 1.4-.197 2.812.276 3.776 1.289l.027.026c1.096 1.158 1.664 2.605 1.69 4.288Zm-3.724-6.511c-1.967-.368-3.235-.184-4.146.158a3.756 3.756 0 0 0-.199-.487c-.277.33-.567.724-.752.974-.502.342-.713.67-.713.67.29-.986 1.135-1.722 2.165-1.907.29-.052.608-.079.951-.079a6.223 6.223 0 0 1 2.694.671ZM8.087 8.688c-1.545-.053-1.03-1.842-1.003-1.947 0 .013.105 1.407 1.003 1.947Zm1.519-3.223c-1.188.71-.95 2.407-.95 2.407-1.136-1.723.858-2.367.95-2.407Z"/>
  <path fill="#fff" d="M7.65 9.161c.08.066.159.184.067.355-.053.092-.132.08-.251.027a31.377 31.377 0 0 1-1.968-1.197c.977.342 1.968.71 2.126.789l.027.026Z"/>
</svg>
