<svg xmlns="http://www.w3.org/2000/svg" width="24" height="24" fill="none" viewBox="0 0 24 24">
  <circle cx="12" cy="12" r="12" fill="url(#a)"/>
  <path fill="#633001" fill-rule="evenodd" d="M11.965 19.969c-2.335-.002-4.216-.563-5.53-1.57-1.33-1.018-2.037-2.463-2.037-4.099 0-1.576.705-2.713 1.501-3.48a6.608 6.608 0 0 1 1.793-1.21 24.949 24.949 0 0 1-.365-1.22c-.162-.602-.32-1.309-.32-1.827 0-.613.133-1.228.494-1.707.38-.505.954-.776 1.643-.776.54 0 .997.2 1.355.545.342.33.57.767.728 1.224.276.802.384 1.81.414 2.815h.66c.03-1.006.138-2.013.415-2.815.157-.457.385-.894.728-1.224a1.906 1.906 0 0 1 1.354-.545c.69 0 1.263.27 1.644.776.36.479.494 1.094.494 1.708 0 .517-.159 1.224-.321 1.827-.121.45-.256.886-.365 1.219.48.222 1.169.607 1.793 1.21.797.767 1.501 1.904 1.501 3.48 0 1.636-.706 3.081-2.036 4.1-1.314 1.007-3.195 1.567-5.53 1.569h-.013Z" clip-rule="evenodd"/>
  <path fill="#D1884F" d="M9.144 4.663c-1.01 0-1.475.761-1.475 1.814 0 .837.54 2.513.761 3.165a.294.294 0 0 1-.17.365c-.81.322-3.2 1.503-3.2 4.207 0 2.848 2.428 4.995 6.905 4.999h.011c4.477-.004 6.905-2.151 6.905-5 0-2.703-2.39-3.884-3.199-4.206a.294.294 0 0 1-.171-.365c.222-.652.762-2.328.762-3.165 0-1.053-.465-1.814-1.475-1.814-1.454 0-1.817 2.08-1.842 4.314a.27.27 0 0 1-.27.27h-1.432a.27.27 0 0 1-.268-.27c-.026-2.233-.389-4.314-1.842-4.314Z"/>
  <path fill="#FEDC90" d="M11.976 18.3c-3.29 0-6.91-1.778-6.915-4.081v.01c0 2.851 2.431 5 6.915 5s6.915-2.149 6.915-5v-.01c-.005 2.303-3.625 4.081-6.915 4.081Z"/>
  <path fill="#633001" d="M10.148 13.512c0 .777-.364 1.182-.812 1.182-.449 0-.813-.405-.813-1.182 0-.778.364-1.183.813-1.183.448 0 .812.405.812 1.183Zm5.282 0c0 .777-.364 1.182-.813 1.182-.449 0-.812-.405-.812-1.182 0-.778.363-1.183.812-1.183.449 0 .812.405.812 1.183Z"/>
  <defs>
    <linearGradient id="a" x1="0" x2="0" y1="0" y2="24" gradientUnits="userSpaceOnUse">
      <stop stop-color="#53DEE9"/>
      <stop offset="1" stop-color="#1FC7D4"/>
    </linearGradient>
  </defs>
</svg>
