<svg xmlns="http://www.w3.org/2000/svg" width="24" height="24" fill="none" viewBox="0 0 24 24">
  <circle cx="12" cy="12" r="12" fill="#7950DD"/>
  <path fill="#fff" d="M16.074 9.277a1.012 1.012 0 0 0-1.004 0l-2.303 1.362-1.564.887L8.9 12.888a1.012 1.012 0 0 1-1.003 0l-1.83-1.066a1.021 1.021 0 0 1-.502-.858V8.863a.96.96 0 0 1 .501-.859l1.801-1.036a1.012 1.012 0 0 1 1.004 0l1.8 1.036c.296.178.502.503.502.859v1.361l1.565-.917V7.945a.96.96 0 0 0-.502-.858L8.9 5.133a1.012 1.012 0 0 0-1.003 0L4.502 7.087A.96.96 0 0 0 4 7.945v3.937c0 .355.177.68.502.858l3.395 1.953c.295.178.679.178 1.003 0l2.303-1.332 1.565-.917 2.302-1.332a1.012 1.012 0 0 1 1.004 0l1.8 1.036c.296.178.502.503.502.858v2.102a.96.96 0 0 1-.502.858l-1.8 1.066a1.012 1.012 0 0 1-1.004 0l-1.8-1.036a1.021 1.021 0 0 1-.502-.859v-1.361l-1.565.917v1.362c0 .355.177.68.502.858l3.395 1.954c.295.177.679.177 1.003 0l3.395-1.954a1.02 1.02 0 0 0 .502-.858v-3.937a.96.96 0 0 0-.502-.858l-3.424-1.983Z"/>
</svg>
