<svg xmlns="http://www.w3.org/2000/svg" width="24" height="24" fill="none" viewBox="0 0 24 24">
  <circle cx="12" cy="12" r="12" fill="#2775CA"/>
  <path fill="#fff" d="M10.044 19.13c0 .26-.177.347-.444.347C6.311 18.434 4 15.477 4 12c0-3.478 2.311-6.434 5.6-7.477.267-.087.444.087.444.347v.609a.477.477 0 0 1-.266.435C7.2 6.87 5.422 9.218 5.422 12c0 2.782 1.867 5.217 4.356 6.086a.476.476 0 0 1 .266.435v.609Z"/>
  <path fill="#fff" d="M12.71 16.956c0 .174-.177.348-.355.348h-.71c-.179 0-.356-.174-.356-.348v-1.043c-1.423-.174-2.134-.957-2.4-2.087 0-.174.089-.348.266-.348h.8c.178 0 .267.087.356.26.178.61.533 1.131 1.689 1.131.889 0 1.51-.434 1.51-1.13s-.355-.957-1.6-1.13c-1.866-.261-2.755-.783-2.755-2.261 0-1.13.89-2 2.134-2.174V7.131c0-.174.177-.348.355-.348h.711c.178 0 .356.174.356.348v1.043c1.067.174 1.778.783 1.955 1.74 0 .173-.088.347-.266.347h-.711c-.178 0-.267-.087-.356-.26-.178-.61-.622-.87-1.422-.87-.889 0-1.333.434-1.333 1.043s.266.957 1.6 1.13c1.866.261 2.755.783 2.755 2.261 0 1.13-.889 2.087-2.222 2.348v1.043Z"/>
  <path fill="#fff" d="M14.4 19.477c-.267.087-.445-.087-.445-.348v-.608c0-.174.089-.348.267-.435 2.577-.956 4.355-3.304 4.355-6.086 0-2.782-1.866-5.217-4.355-6.086a.477.477 0 0 1-.267-.435V4.87c0-.26.178-.348.444-.348 3.2 1.044 5.6 4 5.6 7.478 0 3.478-2.31 6.434-5.6 7.477Z"/>
</svg>
