<svg xmlns="http://www.w3.org/2000/svg"
     fill="currentColor"
     viewBox="0 0 24 24">
    <path fill="#000"
          d="M8 21.6H7a1 1 0 0 0 1.63.776L8 21.6ZM8 2.4l.63-.776A1 1 0 0 0 7 2.4h1Zm6.4 5.2.568.823a1 1 0 0 0 .063-1.6L14.4 7.6Zm0 8.8.63.776a1 1 0 0 0-.062-1.6l-.568.824ZM2.968 7.3a1 1 0 0 0-1.136 1.647l1.136-1.646Zm-1.136 7.753a1 1 0 1 0 1.136 1.646l-1.136-1.646ZM17.255 9.03a1 1 0 1 0-.91 1.78l.91-1.78Zm-.91 4.157a1 1 0 1 0 .91 1.781l-.91-1.78Zm3.046-6.85a1 1 0 0 0-1.016 1.723l1.015-1.72Zm-1.016 9.6a1 1 0 1 0 1.016 1.723l-1.016-1.722ZM9 21.6v-9.586H7V21.6h2Zm0-9.586v-.028H7v.028h2Zm0-.028V2.4H7v9.586h2Zm-1.63-8.81 6.4 5.2 1.26-1.552-6.4-5.2-1.26 1.552Zm1.26 19.2 6.4-5.2-1.26-1.552-6.4 5.2 1.26 1.552Zm6.338-6.8-6.38-4.4-1.136 1.647 6.38 4.4 1.136-1.646Zm-6.38-4.4-.02-.013-1.136 1.646.02.014 1.136-1.646Zm-.02-.013L2.968 7.3 1.832 8.947l5.6 3.862 1.136-1.646Zm5.264-4.386-6.38 4.4 1.136 1.646 6.38-4.4-1.136-1.646Zm-6.38 4.4-.02.014 1.136 1.646.02-.014-1.136-1.646Zm-.02.014-5.6 3.862 1.136 1.646 5.6-3.862-1.136-1.646Zm8.913-.38c.534.273.814.736.814 1.189h2c0-1.323-.814-2.412-1.904-2.97l-.91 1.782ZM17.159 12c0 .453-.28.915-.814 1.188l.91 1.781c1.09-.557 1.904-1.646 1.904-2.97h-2Zm1.216-3.939A4.56 4.56 0 0 1 20.6 12h2a6.56 6.56 0 0 0-3.209-5.661L18.375 8.06ZM20.6 12a4.56 4.56 0 0 1-2.225 3.939l1.016 1.722A6.56 6.56 0 0 0 22.6 12h-2Z" />
</svg>