<svg width="100" height="20" viewBox="0 0 100 20" fill="none" xmlns="http://www.w3.org/2000/svg">
<path d="M91.3266 10.9011H89.0985V19.5736H91.3266V10.9011Z" fill="#401955"/>
<path d="M91.3266 0H89.0985V8.67249H91.3266V0Z" fill="#F9B100"/>
<path d="M89.0991 10.9009V8.67285L80.4266 8.67285V10.9009L89.0991 10.9009Z" fill="#32B5AC"/>
<path d="M100 10.9009V8.67285L91.3275 8.67285V10.9009L100 10.9009Z" fill="#EC2024"/>
<path d="M5.59121 17.6267C3.73683 17.6267 2.22865 16.118 2.22865 14.2636C2.22865 12.4092 3.73742 10.901 5.59121 10.901H8.95378V14.2665C8.95261 16.1197 7.44443 17.6267 5.59121 17.6267ZM5.59121 8.67236C2.5035 8.67236 0 11.1759 0 14.2636C0 17.3513 2.50292 19.8548 5.59121 19.8548C6.85554 19.8548 8.01752 19.4302 8.95378 18.7226V19.5735H11.1818V8.67236H5.59121Z" fill="#401955"/>
<path d="M30.4435 8.67236C27.3558 8.67236 24.8523 11.1753 24.8523 14.2636C24.8523 17.3513 27.3552 19.8548 30.4435 19.8548C31.7078 19.8548 32.8698 19.4302 33.8061 18.7226V19.5735H36.0341V14.2636V8.67236H30.4435ZM30.4435 17.6267C28.5891 17.6267 27.0809 16.118 27.0809 14.2636C27.0809 12.4092 28.5897 10.901 30.4435 10.901H33.8061V14.2665C33.8049 16.1197 32.2973 17.6267 30.4435 17.6267Z" fill="#401955"/>
<path d="M66.1887 8.67236C63.101 8.67236 60.5975 11.1753 60.5975 14.2636C60.5975 17.3513 63.1005 19.8548 66.1887 19.8548C67.4531 19.8548 68.6151 19.4302 69.5513 18.7226V19.5735H71.7794V14.2636V8.67236H66.1887ZM66.1882 17.6267C64.3338 17.6267 62.8256 16.118 62.8256 14.2636C62.8256 12.4092 64.3344 10.901 66.1882 10.901H69.5507V14.2665C69.5501 16.1197 68.042 17.6267 66.1882 17.6267Z" fill="#401955"/>
<path d="M21.8844 8.67236L18.575 16.6624L15.2651 8.67236H12.8534L17.3686 19.5735H19.7809L24.2961 8.67236H21.8844Z" fill="#401955"/>
<path d="M43.0103 8.67236H38.2629V19.5735H40.491V10.901H43.0097C44.8641 10.901 46.3723 12.4098 46.3723 14.2636V19.5735H48.6003V14.2636C48.6015 11.1759 46.098 8.67236 43.0103 8.67236Z" fill="#401955"/>
<path d="M74.0082 8.67236V19.5735H76.2362V10.901H78.7549V8.67236H74.0082Z" fill="#401955"/>
<path d="M54.4938 13.4707L59.292 8.67243H56.1406L52.9184 11.8946V4.33618H50.6903V19.5736H52.9184V15.0461L57.4458 19.5736H60.5973L54.4938 13.4707Z" fill="#401955"/>
</svg>
