<svg xmlns="http://www.w3.org/2000/svg"
     fill="currentColor"
     viewBox="0 0 24 24">
    <path fill="#000"
          d="M19.4 15.6a1 1 0 0 0 2 0h-2Zm-16.8 0a1 1 0 0 0 2 0h-2ZM5.7 5.2h12.6v-2H5.7v2Zm13.7 1.03v9.37h2V6.23h-2ZM4.6 15.6V6.23h-2v9.37h2ZM18.3 5.2c.64 0 1.1.493 1.1 1.03h2c0-1.704-1.42-3.03-3.1-3.03v2Zm-12.6-2c-1.68 0-3.1 1.326-3.1 3.03h2c0-.537.46-1.03 1.1-1.03v-2Zm-2.1 14h16.8v-2H3.6v2Zm17 .2v1.2h2v-1.2h-2Zm-.2 1.4H3.6v2h16.8v-2Zm-17-.2v-1.2h-2v1.2h2Zm.2.2a.2.2 0 0 1-.2-.2h-2a2.2 2.2 0 0 0 2.2 2.2v-2Zm17-.2a.2.2 0 0 1-.2.2v2a2.2 2.2 0 0 0 2.2-2.2h-2Zm-.2-1.4c.11 0 .2.09.2.2h2a2.2 2.2 0 0 0-2.2-2.2v2Zm-16.8-2a2.2 2.2 0 0 0-2.2 2.2h2c0-.11.09-.2.2-.2v-2Z" />
</svg>