<svg width="76" height="59" viewBox="0 0 76 59" fill="none" xmlns="http://www.w3.org/2000/svg">
<path d="M56.4507 52.0804C56.4507 52.0804 57.5433 53.6611 61.0232 55.879C61.2836 56.0429 61.5567 56.2123 61.8444 56.3834C62.937 57.0372 64.2208 57.7328 65.7377 58.4539L66.1019 49.1669C66.1019 49.1669 70.8365 49.5311 75.0248 47.7101C74.5422 47.4697 72.4626 46.3498 69.4726 44.0317C69.2049 43.8259 68.9263 43.6074 68.6458 43.3798C67.3238 42.3163 65.8506 41.0361 64.2755 39.5156C61.9136 43.5218 56.4507 52.0804 56.4507 52.0804Z" fill="url(#paint0_linear_7432_807978)"/>
<path d="M18.5741 51.5336C18.5741 51.5336 17.4815 53.1142 14.0016 55.3321C13.7412 55.496 13.468 55.6654 13.1803 55.8366C12.0877 56.4903 10.813 57.1859 9.28704 57.907L8.92284 48.62C8.92284 48.62 4.18827 48.9842 0 47.1632C0.482562 46.9228 2.56213 45.8029 5.55219 43.4848C5.81988 43.279 6.09849 43.0605 6.37892 42.8329C7.70096 41.7694 9.17414 40.4893 10.7493 38.9688C13.1111 42.9749 18.5741 51.5336 18.5741 51.5336Z" fill="url(#paint1_linear_7432_807978)"/>
<path d="M14.0016 55.3313C13.7412 55.4952 13.4681 55.6645 13.1804 55.8357C12.5303 53.7252 9.93901 49.0635 8.92289 47.7086C8.20781 46.7365 7.4162 45.8231 6.55561 44.9772C6.21873 44.6403 5.81265 43.9574 5.55225 43.4839C5.81993 43.2782 6.09854 43.0597 6.37897 42.832C6.71039 43.3565 7.21299 44.1413 7.65367 44.7951C8.38206 45.8876 12.9345 51.7148 13.4808 52.8074C13.8396 53.5322 13.9597 54.6557 14.0016 55.3313Z" fill="#9925E8"/>
<path fill-rule="evenodd" clip-rule="evenodd" d="M37.5122 59C53.8046 59 67.0122 45.7924 67.0122 29.5C67.0122 13.2076 53.8046 0 37.5122 0C21.2198 0 8.01221 13.2076 8.01221 29.5C8.01221 45.7924 21.2198 59 37.5122 59ZM37.5123 51.8981C49.8825 51.8981 59.9105 41.8702 59.9105 29.5C59.9105 17.1298 49.8825 7.10185 37.5123 7.10185C25.1422 7.10185 15.1142 17.1298 15.1142 29.5C15.1142 41.8702 25.1422 51.8981 37.5123 51.8981Z" fill="#6C7E92"/>
<mask id="mask0_7432_807978" style="mask-type:alpha" maskUnits="userSpaceOnUse" x="8" y="0" width="60" height="59">
<path fill-rule="evenodd" clip-rule="evenodd" d="M37.5122 59C53.8046 59 67.0122 45.7924 67.0122 29.5C67.0122 13.2076 53.8046 0 37.5122 0C21.2198 0 8.01221 13.2076 8.01221 29.5C8.01221 45.7924 21.2198 59 37.5122 59ZM37.5123 51.8981C49.8825 51.8981 59.9105 41.8702 59.9105 29.5C59.9105 17.1298 49.8825 7.10185 37.5123 7.10185C25.1422 7.10185 15.1142 17.1298 15.1142 29.5C15.1142 41.8702 25.1422 51.8981 37.5123 51.8981Z" fill="#6C7E92"/>
</mask>
<g mask="url(#mask0_7432_807978)">
<g filter="url(#filter0_f_7432_807978)">
<ellipse cx="19.4802" cy="10.0665" rx="6.73765" ry="13.6574" transform="rotate(42.5525 19.4802 10.0665)" fill="#F0F2F7"/>
</g>
<g filter="url(#filter1_f_7432_807978)">
<ellipse cx="56.5497" cy="10.0646" rx="6.73765" ry="13.6574" transform="rotate(150 56.5497 10.0646)" fill="#F0F2F7"/>
</g>
<g filter="url(#filter2_f_7432_807978)">
<ellipse cx="53.937" cy="49.5668" rx="6.73765" ry="13.6574" transform="rotate(-135 53.937 49.5668)" fill="#F0F2F7"/>
</g>
<g filter="url(#filter3_f_7432_807978)">
<ellipse cx="19.7022" cy="47.018" rx="6.73765" ry="13.6574" transform="rotate(-45 19.7022 47.018)" fill="#889BAF"/>
</g>
</g>
<circle cx="37.5124" cy="29.4997" r="22.3981" fill="url(#paint2_linear_7432_807978)"/>
<circle cx="37.5124" cy="29.4997" r="19.8981" stroke="url(#paint3_linear_7432_807978)" stroke-width="5"/>
<path fill-rule="evenodd" clip-rule="evenodd" d="M37.5126 53.535C50.7879 53.535 61.5497 42.7733 61.5497 29.498C61.5497 16.2227 50.7879 5.46094 37.5126 5.46094C24.2373 5.46094 13.4756 16.2227 13.4756 29.498C13.4756 42.7733 24.2373 53.535 37.5126 53.535ZM37.5126 51.8961C49.8828 51.8961 59.9108 41.8681 59.9108 29.498C59.9108 17.1278 49.8828 7.09983 37.5126 7.09983C25.1425 7.09983 15.1145 17.1278 15.1145 29.498C15.1145 41.8681 25.1425 51.8961 37.5126 51.8961Z" fill="url(#paint4_linear_7432_807978)"/>
<path d="M43.1556 40.1879C42.8494 40.1875 42.548 40.1119 42.2779 39.9675L37.6744 37.5493C37.6132 37.517 37.5451 37.5002 37.476 37.5002C37.4068 37.5002 37.3387 37.517 37.2775 37.5493L32.674 39.9675C32.404 40.1119 32.1025 40.1875 31.7963 40.1879C31.5218 40.187 31.2507 40.1263 31.002 40.0101C30.7533 39.8939 30.5329 39.7248 30.3561 39.5148C30.1794 39.3047 30.0505 39.0587 29.9784 38.7938C29.9064 38.5289 29.8929 38.2515 29.9389 37.9808L30.8184 32.8566C30.8302 32.7881 30.8251 32.7178 30.8035 32.6518C30.7819 32.5858 30.7445 32.5261 30.6946 32.4778L26.9725 28.8486C26.7211 28.6029 26.5432 28.2919 26.4591 27.9506C26.375 27.6093 26.3879 27.2513 26.4964 26.9169C26.6049 26.5825 26.8046 26.2851 27.0731 26.0582C27.3416 25.8313 27.6682 25.6839 28.0159 25.6327L33.162 24.8861C33.2307 24.8758 33.2959 24.849 33.352 24.8081C33.4081 24.7672 33.4535 24.7134 33.4844 24.6512L35.7861 19.9877C35.9418 19.6724 36.1825 19.407 36.4812 19.2214C36.7798 19.0358 37.1244 18.9375 37.476 18.9375C37.8276 18.9375 38.1721 19.0358 38.4708 19.2214C38.7694 19.407 39.0102 19.6724 39.1658 19.9877L41.4676 24.6512C41.4984 24.7134 41.5439 24.7672 41.6 24.8081C41.6561 24.849 41.7212 24.8758 41.7899 24.8861L46.936 25.6327C47.2838 25.6839 47.6103 25.8313 47.8788 26.0582C48.1473 26.2851 48.347 26.5825 48.4555 26.9169C48.564 27.2513 48.5769 27.6093 48.4928 27.9506C48.4087 28.2919 48.2309 28.6029 47.9794 28.8486L44.2573 32.4778C44.2074 32.5261 44.17 32.5858 44.1484 32.6518C44.1268 32.7178 44.1217 32.7881 44.1335 32.8566L45.013 37.9808C45.0591 38.2515 45.0456 38.5289 44.9735 38.7938C44.9015 39.0587 44.7726 39.3047 44.5958 39.5148C44.419 39.7248 44.1986 39.8939 43.9499 40.0101C43.7012 40.1263 43.4302 40.187 43.1556 40.1879Z" fill="#053A4C"/>
<path d="M38.5133 20.3133L40.8151 24.9768C40.8984 25.1446 41.021 25.2897 41.1726 25.3997C41.3242 25.5098 41.5002 25.5815 41.6855 25.6087L46.8316 26.3571C47.0451 26.3882 47.2457 26.4783 47.4106 26.6174C47.5755 26.7564 47.6983 26.9388 47.765 27.144C47.8317 27.3492 47.8396 27.5689 47.7879 27.7784C47.7363 27.9878 47.6271 28.1786 47.4726 28.3293L43.7487 31.9585C43.6147 32.0894 43.5145 32.251 43.4567 32.4293C43.399 32.6076 43.3854 32.7972 43.4173 32.9819L44.295 38.108C44.3319 38.3206 44.3085 38.5394 44.2274 38.7395C44.1463 38.9395 44.0107 39.1128 43.836 39.2397C43.6614 39.3665 43.4546 39.4419 43.2393 39.4572C43.024 39.4725 42.8087 39.4271 42.6179 39.3262L38.0235 36.9079C37.8574 36.8201 37.6724 36.7741 37.4845 36.7741C37.2966 36.7741 37.1116 36.8201 36.9455 36.9079L32.3366 39.3262C32.1457 39.4271 31.9304 39.4725 31.7151 39.4572C31.4998 39.4419 31.293 39.3665 31.1184 39.2397C30.9437 39.1128 30.8081 38.9395 30.727 38.7395C30.6459 38.5394 30.6225 38.3206 30.6594 38.108L31.5371 32.9819C31.569 32.7972 31.5554 32.6076 31.4977 32.4293C31.44 32.251 31.3398 32.0894 31.2057 31.9585L27.4818 28.3293C27.3274 28.1786 27.2181 27.9878 27.1665 27.7784C27.1148 27.5689 27.1228 27.3492 27.1894 27.144C27.2561 26.9388 27.3789 26.7564 27.5438 26.6174C27.7088 26.4783 27.9093 26.3882 28.1228 26.3571L33.2689 25.6087C33.4542 25.5815 33.6302 25.5098 33.7818 25.3997C33.9334 25.2897 34.056 25.1446 34.1393 24.9768L36.4411 20.3133C36.5362 20.1196 36.6837 19.9565 36.8669 19.8425C37.05 19.7284 37.2615 19.668 37.4772 19.668C37.693 19.668 37.9044 19.7284 38.0875 19.8425C38.2707 19.9565 38.4182 20.1196 38.5133 20.3133Z" fill="url(#paint5_linear_7432_807978)"/>
<path opacity="0.15" d="M60.6387 11.1991C59.2525 12.8581 57.9915 14.1391 56.4534 15.6284C56.3394 15.7415 56.2255 15.8546 56.1116 15.9677C56.0356 16.0431 55.9786 16.0997 55.9027 16.1751C55.6178 16.439 55.333 16.7218 55.0292 16.9857C54.9152 17.08 54.8203 17.1743 54.7064 17.2874C54.6304 17.3439 54.5544 17.4193 54.4975 17.4759C54.4025 17.5701 54.3076 17.6456 54.2126 17.721C44.1105 26.6003 31.2738 32.0108 17.7156 32.9912C17.5827 32.9912 17.4688 33.01 17.3358 33.01C17.2409 33.01 17.146 33.0289 17.051 33.0289C16.8991 33.0289 16.7662 33.0477 16.6143 33.0477C16.1205 33.0666 15.6268 33.1043 15.1331 33.1043C14.9812 33.1043 14.8103 33.1231 14.6584 33.1231C14.2786 33.142 13.8988 33.142 13.538 33.142C11.772 33.142 10.0061 33.0854 8.22109 32.9346C8.08816 31.8223 8.01221 30.6724 8.01221 29.5224C8.01221 13.2153 21.3236 0 37.7301 0C45.1169 0 51.7027 2.83486 56.9057 7.28395C58.2539 8.43393 59.4994 9.82287 60.6387 11.1991Z" fill="url(#paint6_linear_7432_807978)"/>
<defs>
<filter id="filter0_f_7432_807978" x="-50.0068" y="-59.9805" width="138.974" height="140.094" filterUnits="userSpaceOnUse" color-interpolation-filters="sRGB">
<feFlood flood-opacity="0" result="BackgroundImageFix"/>
<feBlend mode="normal" in="SourceGraphic" in2="BackgroundImageFix" result="shape"/>
<feGaussianBlur stdDeviation="29.5" result="effect1_foregroundBlur_7432_807978"/>
</filter>
<filter id="filter1_f_7432_807978" x="-11.4326" y="-61.2383" width="135.964" height="142.605" filterUnits="userSpaceOnUse" color-interpolation-filters="sRGB">
<feFlood flood-opacity="0" result="BackgroundImageFix"/>
<feBlend mode="normal" in="SourceGraphic" in2="BackgroundImageFix" result="shape"/>
<feGaussianBlur stdDeviation="29.5" result="effect1_foregroundBlur_7432_807978"/>
</filter>
<filter id="filter2_f_7432_807978" x="-15.834" y="-20.2031" width="139.542" height="139.539" filterUnits="userSpaceOnUse" color-interpolation-filters="sRGB">
<feFlood flood-opacity="0" result="BackgroundImageFix"/>
<feBlend mode="normal" in="SourceGraphic" in2="BackgroundImageFix" result="shape"/>
<feGaussianBlur stdDeviation="29.5" result="effect1_foregroundBlur_7432_807978"/>
</filter>
<filter id="filter3_f_7432_807978" x="-50.0688" y="-22.7539" width="139.542" height="139.543" filterUnits="userSpaceOnUse" color-interpolation-filters="sRGB">
<feFlood flood-opacity="0" result="BackgroundImageFix"/>
<feBlend mode="normal" in="SourceGraphic" in2="BackgroundImageFix" result="shape"/>
<feGaussianBlur stdDeviation="29.5" result="effect1_foregroundBlur_7432_807978"/>
</filter>
<linearGradient id="paint0_linear_7432_807978" x1="69.6528" y1="52.9909" x2="60.1837" y2="47.0727" gradientUnits="userSpaceOnUse">
<stop offset="0.01" stop-color="#9D00FF"/>
<stop offset="0.41" stop-color="#7B00DB"/>
<stop offset="0.53" stop-color="#9825E4"/>
<stop offset="0.62" stop-color="#6800B5"/>
<stop offset="1" stop-color="#400071"/>
</linearGradient>
<linearGradient id="paint1_linear_7432_807978" x1="4.07355" y1="52.9813" x2="15.1324" y2="45.2366" gradientUnits="userSpaceOnUse">
<stop offset="0.01" stop-color="#9D00FF"/>
<stop offset="0.41" stop-color="#7B00DB"/>
<stop offset="0.53" stop-color="#9825E4"/>
<stop offset="0.62" stop-color="#6800B5"/>
<stop offset="1" stop-color="#400071"/>
</linearGradient>
<linearGradient id="paint2_linear_7432_807978" x1="37.5124" y1="7.10156" x2="37.5124" y2="51.8979" gradientUnits="userSpaceOnUse">
<stop stop-color="#2A99A4"/>
<stop offset="0.484375" stop-color="#10667B"/>
<stop offset="1" stop-color="#184A61"/>
</linearGradient>
<linearGradient id="paint3_linear_7432_807978" x1="37.5124" y1="7.10156" x2="37.5124" y2="51.8979" gradientUnits="userSpaceOnUse">
<stop stop-color="#3F879B"/>
<stop offset="1" stop-color="#062C3C"/>
</linearGradient>
<linearGradient id="paint4_linear_7432_807978" x1="37.5126" y1="5.46094" x2="37.5126" y2="53.535" gradientUnits="userSpaceOnUse">
<stop stop-color="#3C4E56"/>
<stop offset="1" stop-color="#ADBED2"/>
</linearGradient>
<linearGradient id="paint5_linear_7432_807978" x1="37.4772" y1="19.8598" x2="37.4772" y2="37.0864" gradientUnits="userSpaceOnUse">
<stop offset="0.08" stop-color="#C8D0E5"/>
<stop offset="0.23" stop-color="#FAFAFA"/>
<stop offset="0.39" stop-color="#C8D1E2"/>
<stop offset="0.59" stop-color="#566B7C"/>
<stop offset="1" stop-color="#A9B8CF"/>
</linearGradient>
<linearGradient id="paint6_linear_7432_807978" x1="21.9178" y1="4.54775" x2="38.5826" y2="27.8736" gradientUnits="userSpaceOnUse">
<stop offset="0.5084" stop-color="white" stop-opacity="0"/>
<stop offset="1" stop-color="white"/>
</linearGradient>
</defs>
</svg>
