<svg xmlns="http://www.w3.org/2000/svg"
     fill="currentColor"
     viewBox="0 0 24 24">
    <path fill="#000"
          d="M17.622 16.321a1 1 0 0 0-1.39 1.438l1.39-1.438Zm2.083 4.798a1 1 0 0 0 1.39-1.438l-1.39 1.438ZM10.4 14.4a1 1 0 1 0 2 0h-2Zm2-6a1 1 0 1 0-2 0h2Zm-4 2a1 1 0 1 0 0 2v-2Zm6 2a1 1 0 1 0 0-2v2Zm3.88-.96a6.84 6.84 0 0 1-6.84 6.84v2a8.84 8.84 0 0 0 8.84-8.84h-2Zm-6.84 6.84a6.84 6.84 0 0 1-6.84-6.84h-2a8.84 8.84 0 0 0 8.84 8.84v-2ZM4.6 11.44a6.84 6.84 0 0 1 6.84-6.84v-2a8.84 8.84 0 0 0-8.84 8.84h2Zm6.84-6.84a6.84 6.84 0 0 1 6.84 6.84h2a8.84 8.84 0 0 0-8.84-8.84v2Zm4.792 13.159 3.473 3.36 1.39-1.438-3.473-3.36-1.39 1.438ZM12.4 14.4v-3h-2v3h2Zm0-3v-3h-2v3h2Zm-4 1h3v-2h-3v2Zm3 0h3v-2h-3v2Z" />
</svg>