<svg xmlns="http://www.w3.org/2000/svg"
     fill="currentColor"
     viewBox="0 0 24 24">
    <path fill="#000"
          d="m15.103 3.103.707-.707-.707.707Zm3.394 3.394-.707.707.707-.707Zm-8.804 10.21a1 1 0 0 0 1.414-1.414l-1.414 1.414ZM8.4 14l-.707-.707a1 1 0 0 0 0 1.414L8.4 14Zm2.707-1.293a1 1 0 0 0-1.414-1.414l1.414 1.414Zm3.2-1.414a1 1 0 0 0-1.414 1.414l1.414-1.414ZM15.6 14l.707.707a1 1 0 0 0 0-1.414L15.6 14Zm-2.707 1.293a1 1 0 0 0 1.414 1.414l-1.414-1.414ZM16.8 20.6H7.2v2h9.6v-2Zm-11-1.4V4.8h-2v14.4h2ZM7.2 3.4h6.206v-2H7.2v2Zm11 4.794V19.2h2V8.194h-2ZM13.406 3.4a1.4 1.4 0 0 1 .99.41l1.414-1.414a3.4 3.4 0 0 0-2.404-.996v2ZM7.2 20.6a1.4 1.4 0 0 1-1.4-1.4h-2a3.4 3.4 0 0 0 3.4 3.4v-2Zm9.6 2a3.4 3.4 0 0 0 3.4-3.4h-2a1.4 1.4 0 0 1-1.4 1.4v2Zm.99-15.396a1.4 1.4 0 0 1 .41.99h2a3.4 3.4 0 0 0-.996-2.404L17.79 7.204ZM5.8 4.8a1.4 1.4 0 0 1 1.4-1.4v-2a3.4 3.4 0 0 0-3.4 3.4h2Zm6.4-2.4v4.8h2V2.4h-2Zm2.2 7h4.8v-2h-4.8v2Zm-2.2-2.2a2.2 2.2 0 0 0 2.2 2.2v-2a.2.2 0 0 1-.2-.2h-2Zm2.196-3.39 3.394 3.394 1.414-1.414-3.394-3.394-1.414 1.414Zm-3.289 11.483-2-2-1.414 1.414 2 2 1.414-1.414Zm-2-.586 2-2-1.414-1.414-2 2 1.414 1.414Zm3.786-2 2 2 1.414-1.414-2-2-1.414 1.414Zm2 .586-2 2 1.414 1.414 2-2-1.414-1.414Z" />
</svg>