<svg xmlns="http://www.w3.org/2000/svg" width="24" height="24" fill="none" viewBox="0 0 24 24">
  <circle cx="12" cy="12" r="12" fill="url(#a)"/>
  <path fill="url(#b)" fill-rule="evenodd" d="M20.59 12.146h-2.115c0-4.311-3.507-7.806-7.833-7.806-4.273 0-7.747 3.41-7.832 7.647-.088 4.38 4.036 8.183 8.432 8.183h.553c3.876 0 9.07-3.023 9.882-6.707.15-.679-.388-1.317-1.086-1.317Zm-13.092.192a1.053 1.053 0 0 1-2.103 0v-1.695a1.053 1.053 0 0 1 2.103 0v1.695Zm2.6 1.048c.58 0 1.052-.471 1.052-1.048v-1.695a1.053 1.053 0 0 0-2.103 0v1.695c0 .577.473 1.048 1.052 1.048Z" clip-rule="evenodd"/>
  <defs>
    <linearGradient id="a" x1="0" x2="0" y1="0" y2="24" gradientUnits="userSpaceOnUse">
      <stop stop-color="#534BB1"/>
      <stop offset="1" stop-color="#551BF9"/>
    </linearGradient>
    <linearGradient id="b" x1="2.809" x2="2.809" y1="4.34" y2="20.17" gradientUnits="userSpaceOnUse">
      <stop stop-color="#fff"/>
      <stop offset="1" stop-color="#fff" stop-opacity=".82"/>
    </linearGradient>
  </defs>
</svg>
