<svg xmlns="http://www.w3.org/2000/svg" width="24" height="24" fill="none" viewBox="0 0 24 24">
  <circle cx="12" cy="12" r="12" fill="#FAFAFA"/>
  <path fill="#F4A817" fill-rule="evenodd" d="M16.221 4.473c-.052.051-.104.103-.157.153l-.094.105a14.333 14.333 0 0 0-1.068 1.318c-.066.093-.066.093-.165.056l-.005-.002a7.41 7.41 0 0 0-1.42-.378 8.165 8.165 0 0 0-1.634-.097 7.598 7.598 0 0 0-1.142.109 6.449 6.449 0 0 0-1.272.37c-.064.027-.103.019-.15-.037-.233-.274-.47-.544-.71-.813a26.767 26.767 0 0 0-.344-.377l-.17-.184a.2.2 0 0 1-.024-.033 301.42 301.42 0 0 0-.394-.388 6.57 6.57 0 0 0-1.057-.873c-.29-.187-.596-.338-.943-.392-.198-.03-.284.002-.39.171-.094.148-.15.31-.194.477a4.35 4.35 0 0 0-.113.937c-.01.256-.006.511.007.768a14.56 14.56 0 0 0 .187 1.717c.019.105.038.21.045.318l.042.188c.03.137.061.274.09.412.06.276.132.55.21.822.101.356.216.708.355 1.053.014.035.003.066-.012.099-.15.327-.295.656-.42.994-.021.058-.042.067-.082.013l-.004.012c-.003.005-.004.01-.003.01.055.058.033.117.011.176l-.008.021c-.124.348-.226.701-.313 1.06a10.29 10.29 0 0 0-.141.675 9.199 9.199 0 0 0-.106.808l-.003.038a8.87 8.87 0 0 0-.034.582l.031-.005c.172-.03.343-.058.516-.072.372-.03.742-.027 1.112.03.995.153 1.789.656 2.453 1.39l.07.078.055-.129.11-.256c.113-.26.247-.508.393-.75l.076-.128c.08-.138.16-.276.267-.399.386-.44.84-.776 1.403-.953.285-.089.578-.15.876-.149.576.002 1.12.134 1.615.44.321.197.599.446.846.73.07.08.128.17.175.265l.103.21a5.984 5.984 0 0 1 .418 1.008l.036.107.1-.1c.07-.07.14-.14.212-.207a4.28 4.28 0 0 1 1.313-.865c.378-.157.773-.25 1.182-.29a5.153 5.153 0 0 1 1.058.018c.073.007.147.02.22.031l.101.017a.315.315 0 0 0 .003-.162.641.641 0 0 1-.008-.078 10.47 10.47 0 0 0-.126-1.333 8.859 8.859 0 0 0-.258-1.144c-.07-.23-.152-.454-.235-.68a5.269 5.269 0 0 0-.258-.556 8.268 8.268 0 0 1-.173-.355c-.049-.107-.076-.203-.035-.327.14-.424.26-.855.374-1.287.096-.367.19-.734.27-1.106a.48.48 0 0 1 .013-.045l.006-.02c.009-.067.023-.132.038-.197l.026-.128.008-.043c.05-.271.098-.542.138-.814.053-.363.09-.727.104-1.093.017-.448 0-.894-.117-1.33a2.2 2.2 0 0 0-.248-.604c-.027-.044-.055-.052-.1-.049-.32.025-.619.12-.908.25-.445.199-.837.479-1.205.795-.147.127-.286.262-.425.397Zm-.06 2.455a.3.3 0 0 0 .084.086c.02.014.038.03.055.046.058.06.116.117.174.175.144.144.287.288.42.444a10.124 10.124 0 0 1 .828 1.128l.014.028c.01.024.02.049.048.05.011.001.03-.055.039-.088l.102-.336a14.763 14.763 0 0 0 .368-1.36c.073-.334.136-.67.174-1.01a9.23 9.23 0 0 0 .049-.68 3.721 3.721 0 0 0-.034-.55l-.005-.054-.005-.013a.11.11 0 0 1-.008-.026 1.78 1.78 0 0 0-.16-.54c-.038-.085-.047-.085-.136-.05-.311.123-.605.28-.88.47a9.55 9.55 0 0 0-1.2 1.002c-.22.211-.429.432-.633.658-.031.034-.039.053.006.086l.061.045c.147.107.294.214.435.328l.06.054a.552.552 0 0 0 .143.107ZM5.501 4.252c.038-.085.047-.097.09-.092.112.034.225.083.333.137.235.115.459.25.674.4.205.144.4.302.591.464.265.223.513.462.758.706.095.094.185.193.276.291l.146.156c.028.03.03.05-.008.076a7.69 7.69 0 0 0-.603.46 7.46 7.46 0 0 0-.59.562 8.28 8.28 0 0 0-.646.772 9.588 9.588 0 0 0-.451.67l-.004.007c-.006.01-.011.02-.024.02-.02 0-.026-.018-.031-.033a58.103 58.103 0 0 0-.053-.168 22.953 22.953 0 0 1-.357-1.247 11.528 11.528 0 0 1-.275-1.547 4.585 4.585 0 0 1-.026-.634c.018-.343.058-.682.2-1Zm3.055 6.35c.093.007.196-.002.302-.01a9.16 9.16 0 0 1 .075-.007c.138-.01.275-.036.405-.083.08-.03.155-.077.187-.16a.745.745 0 0 0 .025-.476c-.07-.246-.25-.412-.446-.563a.707.707 0 0 0-.57-.15c-.362.061-.73.381-.774.758-.02.165-.03.323.066.473.065.1.132.184.264.195l.028.002c.14.012.281.023.438.021Zm7.045-.007.116-.01c.114-.007.222-.033.292-.141a.713.713 0 0 0 .113-.496c-.043-.311-.225-.529-.488-.683a.764.764 0 0 0-.67-.077 1.04 1.04 0 0 0-.352.24c-.184.172-.324.37-.345.633-.02.242.08.388.309.456.246.073.5.082.802.088.056.004.136-.003.223-.01Zm1.02 1.039v.022a5.727 5.727 0 0 1-.005.083c-.004.065-.009.13-.008.194.001.07-.031.12-.075.17a2.05 2.05 0 0 1-.595.429c-.33.17-.68.29-1.04.378-.28.069-.563.12-.854.12a.95.95 0 0 1-.225-.032c-.078-.019-.102-.061-.09-.134.035-.234.18-.404.34-.561.17-.165.366-.293.562-.42l.122-.08c.292-.193.588-.378.901-.534.22-.11.444-.215.694-.237.167-.015.167-.014.213.13l.014.041c.046.14.046.285.046.43Zm-9.192.06c.005.063.01.144.009.225-.002.103.048.172.116.238.283.273.63.433.992.57.235.088.475.157.72.21.246.055.494.094.746.101a.73.73 0 0 0 .266-.037c.073-.024.096-.06.084-.133a.628.628 0 0 0-.059-.182 1.445 1.445 0 0 0-.488-.535c-.52-.36-1.048-.708-1.631-.96a1.363 1.363 0 0 0-.56-.137c-.067 0-.096.028-.12.086-.056.131-.065.27-.076.442l-.003.05c0 .018.002.039.004.062Z" clip-rule="evenodd"/>
  <path fill="#F00500" d="M19.337 14.382c.03-.08-.002-.16-.005-.24a10.558 10.558 0 0 0-.125-1.333 8.842 8.842 0 0 0-.26-1.144c-.068-.23-.15-.454-.234-.68-.117-.315-.293-.604-.431-.91-.048-.108-.076-.204-.034-.328.14-.424.26-.855.373-1.287.097-.367.19-.734.27-1.106.005-.022.013-.044.02-.066.219.314.408.645.582.985.225.44.411.895.561 1.365a9.598 9.598 0 0 1 .321 4.425 9.226 9.226 0 0 1-1.18 3.237 8.775 8.775 0 0 1-2.347 2.595 8.363 8.363 0 0 1-2.799 1.343 8.246 8.246 0 0 1-2.761.232 7.976 7.976 0 0 1-1.26-.214 8.002 8.002 0 0 1-1.638-.604 8.587 8.587 0 0 1-3.104-2.626 9.26 9.26 0 0 1-1.719-4.373 9.716 9.716 0 0 1-.038-1.902c.04-.516.122-1.026.249-1.527a9.218 9.218 0 0 1 1.228-2.815c.002-.004.006-.007.009-.01.044.199.09.399.132.599.059.276.131.55.209.822.101.356.217.708.355 1.053.015.035.004.066-.011.099-.15.327-.296.656-.42.994-.022.057-.042.067-.083.013-.003.012-.008.02-.006.023.062.064.026.13.003.196a10.3 10.3 0 0 0-.313 1.06c-.054.224-.103.449-.142.675a9.181 9.181 0 0 0-.106.808c-.016.206-.034.413-.037.62a2.29 2.29 0 0 0 .075.76c.1.37.262.711.462 1.035.405.652.925 1.201 1.502 1.7.8.695 1.685 1.26 2.648 1.703.19.087.377.176.573.25.145.053.29.103.435.153.09.031.182.064.274.093.341.105.69.175 1.045.21a4.6 4.6 0 0 0 1.206-.052 7.51 7.51 0 0 0 1.055-.259 9.297 9.297 0 0 0 1.043-.41c.481-.221.942-.478 1.384-.77a9.275 9.275 0 0 0 1.18-.917c.156-.145.313-.29.45-.455.017-.004.025-.017.03-.032h.005l.002-.004c.007-.006.015-.011.021-.018.251-.283.486-.577.68-.904.106-.181.22-.358.31-.55.162-.348.277-.712.334-1.093.021-.14.033-.279.027-.42Zm-3.273-9.756c-.176.196-.353.389-.52.592-.222.27-.44.545-.643.831-.067.095-.066.093-.17.054a7.41 7.41 0 0 0-1.42-.378 8.166 8.166 0 0 0-1.634-.097 7.596 7.596 0 0 0-1.141.109 6.447 6.447 0 0 0-1.272.37c-.065.027-.103.018-.15-.037-.234-.274-.47-.544-.71-.813-.169-.19-.343-.374-.514-.561-.01-.01-.017-.022-.025-.033a8.133 8.133 0 0 1 6.087-.893c.729.18 1.417.462 2.071.83.014.007.027.017.04.026Z"/>
  <path fill="#FFFEFE" fill-rule="evenodd" d="M17.478 17.857a4.57 4.57 0 0 0 .45-.455l-.004-.005-.008-.002c-.009-.002-.017-.003-.014-.016 0-.003.007-.005.014-.007l.008-.003c.002-.03.022-.046.044-.064a.367.367 0 0 0 .02-.017c.002.016-.006.028-.013.039-.008.012-.015.023-.01.039a.194.194 0 0 1 .008-.006 5.834 5.834 0 0 0 .765-1.036 3.958 3.958 0 0 0 .573-1.523c.02-.14.032-.279.027-.42l-.1-.016a5.146 5.146 0 0 0-1.278-.05c-.41.042-.804.134-1.183.291a4.292 4.292 0 0 0-1.313.865c-.071.067-.14.137-.212.207l-.1.1-.042-.128a61.566 61.566 0 0 0-.077-.23c-.088-.263-.212-.51-.335-.757-.035-.07-.07-.14-.103-.21a1.2 1.2 0 0 0-.175-.265 3.68 3.68 0 0 0-.845-.73 3.03 3.03 0 0 0-1.615-.44c-.299 0-.591.06-.877.15-.563.176-1.017.512-1.402.952a2.45 2.45 0 0 0-.268.4l-.075.127a6.08 6.08 0 0 0-.393.75l-.11.257-.056.128-.07-.077c-.664-.735-1.458-1.238-2.453-1.391-.37-.057-.74-.06-1.112-.03a5.916 5.916 0 0 0-.516.072l-.031.005a2.29 2.29 0 0 0 .075.76c.1.37.261.711.462 1.035.404.652.925 1.201 1.502 1.7a11.118 11.118 0 0 0 2.713 1.733c.167.078.334.155.508.22a21.271 21.271 0 0 0 .49.172 5.27 5.27 0 0 0 1.263.283c.404.04.807.016 1.207-.051.358-.06.71-.148 1.055-.259a9.316 9.316 0 0 0 1.043-.41c.481-.221.942-.478 1.384-.77a9.273 9.273 0 0 0 1.18-.917Zm-3.503-.945h.148l-.039.159-.103.427c-.009.04-.035.04-.067.04-.11-.001-.111 0-.151.104v.002l-.137.355V18l-.002.003-.079.205a.83.83 0 0 0-.045-.073c-.037-.055-.072-.108-.071-.18l.003-.298c0-.122.002-.245.004-.367.001-.05-.008-.062-.06-.053a6.69 6.69 0 0 1-1.406.103 5.336 5.336 0 0 1-.873-.091.607.607 0 0 0-.07-.01l-.03-.002-.001.192c-.001.154-.002.307.003.46.004.117-.004.224-.094.315a1.232 1.232 0 0 1-.166-.347l-.002-.006c-.03-.089-.061-.179-.07-.273-.008-.071-.057-.065-.1-.052-.065.02-.085 0-.098-.065a1.902 1.902 0 0 1-.035-.238.174.174 0 0 0-.067-.136.833.833 0 0 1-.069-.064l-.031-.032c-.02-.018-.016-.041-.012-.063v-.002c.003-.019.017-.017.03-.015l.01.001.309.002.259.001c.035 0 .064.006.065.05 0 .028.018.029.039.03h.004c.247.013.494.014.741.014h.077c.029 0 .046-.009.06-.034l.047-.08a2.12 2.12 0 0 0 .051-.086c.027-.05.053-.096.123-.079.032.008.038-.013.038-.04v-.014c-.001-.171-.002-.342 0-.513 0-.034-.019-.041-.04-.05l-.01-.004c-.265-.115-.515-.254-.719-.464-.167-.173-.27-.373-.256-.624.005-.083.004-.167.003-.25l-.002-.117c0-.26.173-.433.433-.433H12.8c.23 0 .464.236.456.466-.002.06-.002.12-.001.181 0 .131.002.262-.023.393a1.046 1.046 0 0 1-.424.654 1.27 1.27 0 0 1-.368.2c-.03.01-.038.024-.037.054v.52c-.001.037.011.05.046.044.056-.01.086.016.111.066l.02.04c.03.062.06.128.11.157.042.024.101.02.16.015.024-.002.048-.004.071-.004h.153c.102 0 .204 0 .305.003.052.001.088-.01.107-.06.008-.021.023-.039.052-.039h.437Zm-1.857.598v-.003h-.589c-.058 0-.087 0-.101.015-.014.014-.013.042-.01.099v.005c0 .03.015.045.037.059a.743.743 0 0 0 .135.065l.052.021c.044.02.068.015.085-.037.034-.1.038-.099.137-.092h.01c.035.003.054.019.07.045l.045.077.064.106c.057.094.149.1.22.014l.053-.061.041-.05c.052-.06.077-.091.105-.093.029-.003.06.023.12.076l.01.01c.013.012.025.024.048.019.1-.024.174-.12.177-.218.002-.052-.02-.059-.064-.058h-.645Zm.937 2.608h-.064c.024.015.043.01.064 0Zm-.088.015c-.037.019-.07.03-.119.015a.258.258 0 0 0 .044-.01c.025-.007.048-.014.075-.005Zm4.902-2.707.011-.014-.007-.005-.006.017-.012.015c-.02-.001-.029.008-.028.027l-.017.005.004.007.013-.012a.044.044 0 0 0 .028-.027l.014-.013Z" clip-rule="evenodd"/>
  <path fill="#F28F1F" d="M5.592 4.16c.112.034.225.083.333.137.235.115.459.25.674.4.205.144.4.302.591.464.265.223.513.462.758.706.145.145.28.298.422.447.028.03.03.05-.008.076-.21.142-.408.298-.603.46a7.46 7.46 0 0 0-.59.562 8.292 8.292 0 0 0-.646.772 9.586 9.586 0 0 0-.451.67c-.007.011-.012.027-.028.027-.021 0-.026-.018-.031-.033-.066-.212-.135-.424-.197-.637a23.02 23.02 0 0 1-.213-.777 11.503 11.503 0 0 1-.275-1.548 4.585 4.585 0 0 1-.026-.634c.018-.343.058-.682.2-1 .038-.085.047-.097.09-.092Z"/>
  <path fill="#F28B20" d="M18.478 4.807c.022.2.047.403.04.604a9.23 9.23 0 0 1-.049.68c-.038.34-.101.676-.174 1.01-.066.304-.146.606-.232.906-.075.265-.16.527-.239.79-.01.032-.027.09-.038.089-.04-.003-.044-.05-.063-.08a9.864 9.864 0 0 0-.828-1.127c-.185-.219-.394-.414-.593-.619-.045-.046-.107-.074-.14-.132.012-.016.028-.031.037-.05.087-.184.186-.362.291-.537.16-.265.336-.517.543-.746A2.6 2.6 0 0 1 17.788 5c.217-.11.444-.185.69-.193Z"/>
  <path fill="#1F1712" d="M7.426 11.633c.013-.198.017-.35.078-.493.025-.058.054-.085.122-.086.199-.003.381.06.559.137.583.252 1.11.6 1.631.96.202.14.376.31.488.535.03.058.049.118.06.182.01.073-.012.109-.085.133a.758.758 0 0 1-.266.037 3.972 3.972 0 0 1-.745-.1 5.224 5.224 0 0 1-.721-.212c-.361-.136-.709-.296-.992-.57-.068-.065-.118-.134-.116-.237.002-.11-.01-.222-.013-.287Z"/>
  <path fill="#1F1713" d="M16.622 11.656c-.005.093-.014.185-.013.277.001.071-.031.12-.075.17a2.05 2.05 0 0 1-.595.429c-.33.171-.68.29-1.04.379-.28.068-.563.12-.854.12a.943.943 0 0 1-.225-.033c-.078-.018-.102-.061-.09-.134.035-.234.18-.404.34-.56.204-.2.449-.345.684-.501.292-.193.588-.377.901-.534.22-.11.444-.215.694-.237.182-.016.166-.014.227.171.048.147.046.3.046.453Z"/>
  <path fill="#F2991D" d="M18.478 4.807a1.654 1.654 0 0 0-.69.193 2.592 2.592 0 0 0-.755.595 4.786 4.786 0 0 0-.542.746 6.078 6.078 0 0 0-.292.538c-.009.018-.024.033-.037.05-.08-.038-.136-.108-.203-.162-.161-.13-.329-.251-.496-.373-.045-.033-.037-.052-.006-.086.204-.226.413-.447.632-.658.377-.363.77-.706 1.201-1.003.275-.189.569-.346.88-.469.09-.035.098-.034.137.05.079.172.137.35.159.54.001.013.008.026.012.039Z"/>
  <path fill="#FFFEFE" d="M15.38 10.604c-.302-.005-.555-.014-.801-.087-.23-.068-.328-.214-.31-.456.022-.264.162-.461.346-.634a1.04 1.04 0 0 1 .352-.239.764.764 0 0 1 .67.077c.263.154.445.372.488.683a.713.713 0 0 1-.113.495c-.07.11-.178.135-.292.143-.13.008-.258.024-.34.018Zm-6.823-.002a4.587 4.587 0 0 1-.466-.023c-.132-.01-.2-.095-.264-.195-.095-.15-.086-.308-.066-.473.044-.377.412-.697.773-.758a.708.708 0 0 1 .571.15c.195.152.375.317.446.563a.744.744 0 0 1-.025.475c-.032.085-.107.132-.187.16-.13.048-.267.074-.405.084-.13.01-.262.025-.377.017Z"/>
  <path fill="#F6D9A7" d="M17.922 17.37c.003-.04.036-.055.064-.082.004.033-.033.049-.022.077l-.001.005h-.041Z"/>
  <path fill="#FFFEFE" d="M17.923 17.37h.036c-.006.015-.014.028-.032.032l-.004-.005v-.028Z"/>
  <path fill="#1D1919" d="m14.123 16.912-.142.587c-.009.038-.035.038-.067.038-.111 0-.111 0-.152.107l-.216.564c-.047-.088-.119-.15-.117-.253.003-.222.002-.444.007-.665.001-.05-.008-.062-.06-.053a6.683 6.683 0 0 1-1.406.103 5.336 5.336 0 0 1-.873-.091c-.034-.007-.069-.008-.1-.012 0 .218-.005.435.002.652.004.117-.004.224-.094.315a1.232 1.232 0 0 1-.166-.347 1.268 1.268 0 0 1-.073-.28c-.007-.07-.056-.064-.099-.05-.065.02-.085 0-.098-.066a1.906 1.906 0 0 1-.035-.238.174.174 0 0 0-.067-.136c-.036-.029-.067-.064-.1-.096-.02-.018-.015-.042-.012-.065.004-.024.026-.014.04-.014.189 0 .378.003.568.003.035 0 .064.006.065.05 0 .03.021.029.043.03.272.015.545.014.818.014.029 0 .046-.009.06-.034.031-.056.067-.11.098-.166.027-.05.053-.096.123-.079.032.008.038-.013.038-.04-.001-.176-.002-.351 0-.527 0-.038-.024-.043-.05-.054-.265-.115-.515-.254-.719-.464-.167-.173-.27-.373-.256-.624.008-.122.001-.245.002-.367 0-.26.172-.433.432-.433H12.8c.23 0 .464.236.456.466-.007.191.012.384-.024.574a1.046 1.046 0 0 1-.424.654 1.264 1.264 0 0 1-.368.2c-.03.01-.038.024-.037.054v.52c-.001.037.011.05.046.044.056-.01.086.016.111.066.036.07.07.161.13.197.06.034.153.01.231.01.153.002.306 0 .458.004.052.001.088-.01.107-.06.008-.021.023-.039.052-.039h.585Z"/>
  <path fill="#171413" d="m12.118 17.51.645-.001c.045 0 .066.006.064.058a.238.238 0 0 1-.177.218c-.029.007-.04-.015-.058-.03-.122-.104-.122-.104-.225.018l-.093.11c-.072.086-.164.08-.221-.014l-.11-.182c-.015-.027-.034-.043-.07-.045-.108-.007-.111-.01-.146.092-.017.052-.041.056-.085.037-.063-.027-.129-.048-.187-.086-.022-.014-.037-.028-.038-.06-.004-.118-.006-.118.112-.118h.59v.002Z"/>
  <path fill="#F6D9A7" d="M12.846 20.148c.046-.005.076-.03.12-.015-.038.019-.07.03-.12.015Zm.209-.03c-.02.01-.04.015-.064 0h.064Zm4.868-2.749v.028c-.01-.004-.026 0-.022-.018.001-.005.014-.007.022-.01Zm-.098.097c0-.019.009-.028.028-.027a.044.044 0 0 1-.027.028Z"/>
  <path fill="#F7DDB0" d="M17.826 17.467a1.283 1.283 0 0 0-.012.01.299.299 0 0 1-.005-.006l.017-.005Zm-.204.198v.005c-.002 0-.005.002-.006.001-.007-.003-.006-.006 0-.008.002 0 .004 0 .006.002Z"/>
  <path fill="#F6D9A7" d="m17.866 17.424.006-.018.007.006a.735.735 0 0 1-.011.013l-.002-.002Z"/>
  <path fill="#F6D9A7" d="M17.853 17.439a1.78 1.78 0 0 0 .013-.016l.002.002-.015.014Z"/>
  <path fill="#F7DDB0" d="M17.783 17.507a.523.523 0 0 0 .007-.01c.009.009 0 .01-.004.012l-.003-.002Zm.002.002-.008.006.006-.008.002.002Zm-.035.031.002.004h-.005l.003-.005Zm-.038.035c.003-.005.006-.012.012-.004l-.008.008-.004-.004Z"/>
  <path fill="#F7DDB0" d="m17.717 17.579-.01.005.006-.01.004.005Zm-.037.022v-.004h.003l-.002.004Zm-.04.042-.002-.005h.004l-.002.005Z"/>
</svg>
