<svg xmlns="http://www.w3.org/2000/svg" width="24" height="24" fill="none" viewBox="0 0 24 24">
  <circle cx="12" cy="12" r="12" fill="url(#a)"/>
  <path fill="#FF007A" fill-rule="evenodd" d="m3.951 3.1-.176.162.946 1.157L7.789 8.19l.25.317c.158.22.099.416-.173.57-.15.086-.46.173-.616.173a.79.79 0 0 1-.529-.232l-.044-.053-.064-.085-.19-.271-.336-.505-2.165-3.332-.011-.012c-.002-.001-.003 0-.002.004l.003.007.026.054 1.605 2.883.48.875.167.317.053.108.043.097.01.03.004.018c0 .142-.04.217-.214.412l-.053.062c-.256.311-.376.677-.464 1.388l-.016.114c-.118.79-.424 1.382-1.21 2.362l-.147.183-.218.277-.112.151-.057.083-.048.075-.042.071-.059.113c-.153.305-.195.476-.212.862-.018.407.017.67.141 1.06.091.284.185.487.382.808l.24.38.092.156.075.139c.078.15.12.262.12.323l.002.031c.004.027.019.039.066.037l.06-.007a1.93 1.93 0 0 0 .04-.007l.101-.021.31-.072c.85-.215 1.54-.567 1.938-.991.263-.28.324-.435.326-.82v-.076l-.003-.119a.615.615 0 0 0-.072-.253c-.11-.235-.312-.43-.755-.734l-.105-.073c-.507-.364-.729-.671-.793-1.084-.05-.318-.005-.554.227-1.068l.17-.365c.278-.598.352-.901.404-1.554l.009-.1c.035-.382.087-.544.208-.677.136-.15.258-.2.595-.247l.133-.02c.474-.08.79-.219 1.053-.462.25-.23.354-.451.37-.784l.012-.253-.139-.162-.1-.114L3.95 3.099Zm.287 12.265c-.038-.027-.054-.056-.054-.095 0-.156.28-.212.46-.092.19.127.251.386.137.588-.109.194-.318.257-.465.142-.091-.072-.098-.177-.018-.297l.023-.037c.053-.094.037-.145-.052-.19l-.031-.02Z" clip-rule="evenodd"/>
  <path fill="#FF007A" d="M8.216 4.748c-.226-.035-.235-.039-.13-.055.204-.032.683.011 1.014.09.77.183 1.473.652 2.222 1.487l.199.221.284-.046c1.2-.192 2.42-.04 3.44.432.281.13.724.388.78.455.017.02.05.157.071.302.076.502.038.888-.116 1.175-.083.157-.088.206-.032.34.045.107.17.186.294.186.254 0 .527-.41.653-.98l.05-.227.1.113c.546.618.975 1.462 1.048 2.062l.02.157-.092-.143a1.756 1.756 0 0 0-.52-.546c-.366-.242-.754-.325-1.78-.379-.926-.048-1.45-.128-1.97-.297-.884-.289-1.33-.673-2.38-2.051-.468-.612-.756-.951-1.043-1.224-.652-.62-1.292-.945-2.112-1.072Z"/>
  <path fill="#FF007A" d="M16.233 6.115c.023-.41.079-.68.19-.928a.996.996 0 0 1 .093-.178.613.613 0 0 1-.043.16c-.081.24-.095.569-.039.95.072.485.112.554.624 1.078.24.245.52.554.62.687l.184.242-.184-.173c-.225-.21-.742-.623-.857-.682-.077-.039-.088-.038-.135.009-.044.043-.053.108-.059.416-.01.48-.075.789-.233 1.097-.085.167-.099.131-.021-.057.057-.14.063-.202.063-.667-.001-.934-.112-1.159-.762-1.543a7.128 7.128 0 0 0-.604-.313 2.2 2.2 0 0 1-.295-.144c.019-.018.653.167.908.265.38.146.443.165.489.148.03-.012.046-.102.06-.367ZM8.654 7.713c-.457-.63-.74-1.594-.679-2.315l.019-.223.104.019c.195.035.532.16.69.257.433.262.62.609.81 1.497.057.26.13.555.164.655.054.16.259.535.426.779.12.175.04.258-.225.234-.406-.036-.955-.415-1.31-.903Zm7.026 4.683c-2.137-.86-2.889-1.607-2.889-2.866 0-.185.006-.337.014-.337s.09.061.184.136c.433.347.918.496 2.26.691.79.116 1.235.209 1.645.345 1.304.432 2.11 1.31 2.303 2.505.056.347.023.998-.068 1.341-.071.271-.29.76-.347.779-.016.005-.032-.057-.036-.14-.022-.45-.249-.886-.63-1.213-.433-.372-1.014-.669-2.437-1.241Zm-1.502.357a3.81 3.81 0 0 0-.103-.452l-.054-.162.1.113c.141.157.252.359.345.627.072.204.08.265.08.597 0 .327-.01.395-.076.58-.104.29-.234.495-.45.716-.39.397-.893.617-1.616.708-.126.016-.493.043-.815.06-.813.042-1.348.13-1.828.298a.385.385 0 0 1-.137.033c-.02-.02.308-.215.578-.345.38-.183.76-.284 1.61-.425.42-.07.853-.155.963-.189 1.04-.318 1.574-1.14 1.403-2.159Z"/>
  <path fill="#FF007A" d="M15.159 14.492c-.284-.61-.35-1.2-.194-1.748.017-.059.043-.107.06-.107.016 0 .083.036.148.08.131.088.393.237 1.092.618.872.475 1.37.843 1.707 1.264.296.368.48.787.568 1.299.05.29.02.987-.054 1.279-.234.92-.78 1.642-1.556 2.064a2.006 2.006 0 0 1-.228.113c-.01 0 .03-.106.093-.235.261-.546.29-1.078.093-1.67-.12-.362-.368-.804-.866-1.551-.579-.869-.721-1.1-.863-1.406Zm-8.023 3.291c.793-.669 1.78-1.144 2.677-1.29.388-.063 1.032-.038 1.391.054.575.147 1.089.476 1.356.869.261.383.373.717.49 1.46.046.294.096.589.111.656.088.385.259.693.47.848.336.245.914.26 1.482.039a.742.742 0 0 1 .186-.058c.021.02-.265.212-.467.313a1.589 1.589 0 0 1-.775.188c-.521 0-.954-.264-1.314-.805a6.396 6.396 0 0 1-.355-.707c-.38-.87-.569-1.134-1.011-1.423-.385-.252-.881-.298-1.255-.114-.49.24-.627.867-.276 1.264.14.158.4.294.613.32.398.05.74-.253.74-.655 0-.261-.1-.41-.352-.524-.345-.156-.716.026-.715.35.001.139.061.225.2.288.089.04.09.043.018.028-.316-.065-.39-.447-.136-.7.306-.305.938-.17 1.155.245.091.174.102.522.022.731-.178.47-.697.717-1.223.582-.358-.091-.504-.19-.936-.635-.75-.773-1.042-.923-2.124-1.092l-.208-.032.236-.2Z"/>
  <path fill="#FF007A" fill-rule="evenodd" d="M9.141 10.105c-.258.079-.508.352-.586.639-.047.174-.02.481.05.576.115.153.226.193.526.19.587-.003 1.097-.255 1.156-.57.049-.258-.175-.616-.484-.772-.16-.082-.498-.114-.662-.063Zm.687.536c.09-.128.051-.267-.103-.361-.293-.18-.737-.031-.737.246 0 .138.232.288.444.288.14 0 .334-.084.396-.173Z" clip-rule="evenodd"/>
  <defs>
    <linearGradient id="a" x1="12" x2="36" y1="36" y2="12" gradientUnits="userSpaceOnUse">
      <stop stop-color="#FEF4F9"/>
      <stop offset="1" stop-color="#FFD9E8"/>
    </linearGradient>
  </defs>
</svg>
