<svg xmlns="http://www.w3.org/2000/svg"
     fill="currentColor"
     viewBox="0 0 24 24">
    <path stroke="currentColor"
          stroke-width="2"
          d="M4.51 9.78a7.393 7.393 0 0 1 5.493-5.102m-.527 14.286a7.396 7.396 0 0 1-4.967-4.966m14.15 0a7.396 7.396 0 0 1-4.966 4.966m-.527-14.286a7.39 7.39 0 0 1 5.629 5.63m-8.432-3.469h2.664c.49 0 .888-.397.888-.888V3.288a.888.888 0 0 0-.888-.888h-2.664a.888.888 0 0 0-.887.888V5.95c0 .49.397.888.887.888Zm0 14.76h2.664c.49 0 .888-.397.888-.887v-2.663a.888.888 0 0 0-.888-.888h-2.664a.888.888 0 0 0-.887.887v2.664c0 .49.397.888.887.888Zm5.744-10.931v2.663c0 .49.397.888.887.888h2.664c.49 0 .888-.397.888-.888v-2.663a.888.888 0 0 0-.888-.888h-2.664a.888.888 0 0 0-.887.888Zm-13.707 0v2.663c0 .49.398.888.888.888h2.664c.49 0 .887-.397.887-.888v-2.663a.888.888 0 0 0-.887-.888H3.288a.888.888 0 0 0-.888.888Z" />
</svg>