<svg xmlns="http://www.w3.org/2000/svg"
     fill="currentColor"
     viewBox="0 0 25 24">
    <path fill="#000"
          d="M6.894 11.454a1 1 0 1 0 1.885.668l-1.885-.668ZM9.87 6.056l-.943-.334.943.334Zm1.37-1.186-.196-.98.196.98Zm11.971-2.394.985.177a1 1 0 0 0-1.18-1.158l.195.98ZM21.028 14.59l-.984-.177.984.177Zm-1.26 1.428-.299-.954.298.954Zm-6.166.88a1 1 0 0 0 .596 1.908l-.596-1.909Zm10.101-13.5a1 1 0 0 0-1.414-1.414l1.414 1.414Zm-6.612 3.784a1 1 0 0 0 1.414 1.414l-1.414-1.414Zm-12.72 8.936-.707.707.707-.707Zm0-1.732.707.707-.707-.707Zm6.93 6.93.707.707-.707-.707Zm-1.732 0 .707-.707-.707.707Zm3.898-3.898-.707.707.707-.707Zm0 1.732-.707-.707.707.707Zm-5.198-6.93.708-.707-.708.707Zm-1.732 0-.707-.707.707.707Zm2.242-.099 2.033-5.73-1.885-.67-2.033 5.731 1.885.67Zm2.658-6.272L23.41 3.456l-.393-1.961-11.97 2.394.391 1.961Zm10.791-3.552-2.184 12.115 1.968.355 2.185-12.115-1.969-.355ZM19.47 15.064l-5.867 1.833.596 1.91 5.868-1.834-.597-1.91Zm.575-.651a.838.838 0 0 1-.575.65l.597 1.91a2.838 2.838 0 0 0 1.946-2.205l-1.968-.355Zm-9.232-8.021a.838.838 0 0 1 .625-.542l-.392-1.96a2.838 2.838 0 0 0-2.118 1.833l1.885.669ZM22.29 1.985l-5.2 5.198 1.414 1.414 5.198-5.198-1.414-1.414ZM7.562 12.928l5.198 5.198 1.414-1.415-5.197-5.197-1.415 1.414Zm5.198 5.516-2.166 2.166 1.415 1.414 2.165-2.166-1.414-1.414Zm-2.484 2.166-5.198-5.198-1.414 1.414 5.198 5.198 1.414-1.414Zm-5.198-5.516 2.166-2.166-1.414-1.414-2.166 2.166 1.414 1.414Zm0 .318a.225.225 0 0 1 0-.318L3.664 13.68a2.225 2.225 0 0 0 0 3.146l1.414-1.414Zm5.516 5.198a.225.225 0 0 1-.318 0l-1.414 1.414a2.225 2.225 0 0 0 3.146 0l-1.414-1.414Zm2.166-2.484a.225.225 0 0 1 0 .318l1.414 1.414a2.225 2.225 0 0 0 0-3.146l-1.414 1.414Zm-3.783-6.612a2.225 2.225 0 0 0-3.147 0l1.414 1.414a.225.225 0 0 1 .318 0l1.415-1.414Zm7.681-.433a1.45 1.45 0 0 1-2.05 0l-1.415 1.414a3.45 3.45 0 0 0 4.88 0l-1.415-1.414Zm-2.05 0a1.45 1.45 0 0 1 0-2.051l-1.415-1.414a3.45 3.45 0 0 0 0 4.879l1.414-1.414Zm0-2.051a1.45 1.45 0 0 1 2.05 0l1.414-1.414a3.45 3.45 0 0 0-4.879 0l1.414 1.414Zm2.05 0a1.45 1.45 0 0 1 0 2.05l1.414 1.415a3.45 3.45 0 0 0 0-4.88L16.658 9.03Z" />
</svg>