<svg width="20" height="20" viewBox="0 0 20 20" fill="none" xmlns="http://www.w3.org/2000/svg">
<path id="arrow-up-contained-01-icon" d="M5.58272 10.2958C5.15844 10.6494 5.10112 11.2799 5.45468 11.7042C5.80824 12.1285 6.43881 12.1858 6.86308 11.8323L5.58272 10.2958ZM10.2004 7.74945L10.8406 6.98123C10.4697 6.67219 9.93107 6.67219 9.56022 6.98123L10.2004 7.74945ZM13.5377 11.8323C13.962 12.1858 14.5926 12.1285 14.9461 11.7042C15.2997 11.2799 15.2424 10.6494 14.8181 10.2958L13.5377 11.8323ZM6.86308 11.8323L10.8406 8.51767L9.56022 6.98123L5.58272 10.2958L6.86308 11.8323ZM9.56022 8.51767L13.5377 11.8323L14.8181 10.2958L10.8406 6.98123L9.56022 8.51767ZM18 10C18 14.4183 14.4183 18 10 18V20C15.5228 20 20 15.5228 20 10H18ZM10 18C5.58172 18 2 14.4183 2 10H0C0 15.5228 4.47715 20 10 20V18ZM2 10C2 5.58172 5.58172 2 10 2V0C4.47715 0 0 4.47715 0 10H2ZM10 2C14.4183 2 18 5.58172 18 10H20C20 4.47715 15.5228 0 10 0V2Z" fill="black"/>
</svg>
