<svg width="20" height="20" viewBox="0 0 20 20" fill="none" xmlns="http://www.w3.org/2000/svg">
<path id="arrow-down-left-contained-icon" d="M12.2532 14.2772C12.8032 14.3272 13.2896 13.9218 13.3396 13.3718C13.3896 12.8218 12.9843 12.3354 12.4343 12.2854L12.2532 14.2772ZM7.18744 12.8125L6.19155 12.9031C6.23525 13.3838 6.61615 13.7647 7.0969 13.8084L7.18744 12.8125ZM7.71458 7.5657C7.66458 7.01568 7.17817 6.61034 6.62815 6.66034C6.07814 6.71034 5.67279 7.19675 5.72279 7.74677L7.71458 7.5657ZM13.5196 7.89459C13.9101 7.50406 13.9101 6.8709 13.5196 6.48038C13.1291 6.08985 12.4959 6.08985 12.1054 6.48037L13.5196 7.89459ZM12.4343 12.2854L7.27798 11.8166L7.0969 13.8084L12.2532 14.2772L12.4343 12.2854ZM8.18333 12.722L7.71458 7.5657L5.72279 7.74677L6.19155 12.9031L8.18333 12.722ZM7.89455 13.5196L13.5196 7.89459L12.1054 6.48037L6.48033 12.1054L7.89455 13.5196ZM10 18C5.58172 18 2 14.4183 2 10L0 10C-2.41411e-07 15.5228 4.47715 20 10 20L10 18ZM2 10C2 5.58172 5.58172 2 10 2L10 0C4.47715 -2.41411e-07 2.41411e-07 4.47715 0 10L2 10ZM10 2C14.4183 2 18 5.58172 18 10L20 10C20 4.47715 15.5228 2.41411e-07 10 0L10 2ZM18 10C18 14.4183 14.4183 18 10 18L10 20C15.5228 20 20 15.5228 20 10L18 10Z" fill="black"/>
</svg>
