<svg width="22" height="22" viewBox="0 0 22 22" fill="none" xmlns="http://www.w3.org/2000/svg">
<path id="audio-settings-02-icon" d="M5.12605 8.91302L16.7185 8.91295C18.7764 8.91295 20.4446 7.23109 20.4446 5.15642C20.4446 3.08175 18.7764 1.3999 16.7185 1.3999L5.12605 1.39998M5.12605 8.91302C3.06815 8.91302 1.3999 7.23117 1.3999 5.1565C1.3999 3.08183 3.06815 1.39998 5.12605 1.39998M5.12605 8.91302C7.18394 8.91302 8.85219 7.23117 8.85219 5.1565C8.85219 3.08183 7.18394 1.39998 5.12605 1.39998M16.8738 13.0869H5.12605C3.06816 13.0869 1.3999 14.7687 1.3999 16.8434C1.3999 18.9181 3.06815 20.5999 5.12605 20.5999H16.8738M16.8738 13.0869C18.9317 13.0869 20.5999 14.7687 20.5999 16.8434C20.5999 18.9181 18.9316 20.5999 16.8738 20.5999M16.8738 13.0869C14.8159 13.0869 13.1476 14.7687 13.1476 16.8434C13.1476 18.9181 14.8159 20.5999 16.8738 20.5999" stroke="black" stroke-width="2"/>
</svg>
