<svg width="20" height="20" viewBox="0 0 20 20" fill="none" xmlns="http://www.w3.org/2000/svg">
<path id="bar-group-01-icon" d="M7.05647 19V9.024C7.05647 8.47171 7.50419 8.024 8.05647 8.024H12.1147C12.667 8.024 13.1147 8.47172 13.1147 9.024V19M7.05647 19L7.05792 14.6803C7.0581 14.1279 6.61033 13.68 6.05791 13.68H2C1.44772 13.68 1 14.1277 1 14.68V18C1 18.5523 1.44772 19 2 19H7.05647ZM7.05647 19H13.1147M13.1147 19V2C13.1147 1.44772 13.5624 1 14.1147 1H18C18.5523 1 19 1.44772 19 2V18C19 18.5523 18.5523 19 18 19H13.1147Z" stroke="black" stroke-width="2" stroke-linecap="round" stroke-linejoin="round"/>
</svg>
