<svg width="18" height="20" viewBox="0 0 18 20" fill="none" xmlns="http://www.w3.org/2000/svg">
<path id="bell-off-01-icon" d="M17 14.3111C16.4287 13.482 15.8738 12.2598 15.8738 10.7859L15.8984 8.76995C15.8984 4.77112 12.8322 1.52942 9.04999 1.52942C8.6431 1.52942 8.24462 1.56748 7.85756 1.64044M6.36666 18.1176C7.07876 18.6663 8.01912 19 9.04999 19C10.0809 19 11.0212 18.6663 11.7333 18.1176M12.8067 15.2941H1.51081C1.08656 15.2941 0.849606 14.6512 1.10623 14.2941C1.70172 13.4653 2.27648 12.2497 2.27648 10.7859L2.30104 8.66485C2.30104 6.96416 2.86379 5.40245 3.80316 4.17649M14.9533 17.9413L2.61 1" stroke="black" stroke-width="2" stroke-linecap="round"/>
</svg>
