<svg width="21" height="22" viewBox="0 0 21 22" fill="none" xmlns="http://www.w3.org/2000/svg">
<path id="bezier-01-icon" d="M3.5095 8.78025C4.26949 6.22665 6.37434 4.25225 9.00272 3.67842M8.47555 17.9636C6.09509 17.2552 4.21796 15.378 3.5095 12.9976M17.6589 12.9976C16.9505 15.378 15.0733 17.2552 12.6929 17.9636M12.1657 3.67842C14.9723 4.29116 17.182 6.50083 17.7947 9.30742M9.36341 5.83921H12.027C12.5173 5.83921 12.9149 5.4417 12.9149 4.95135V2.28776C12.9149 1.79741 12.5173 1.3999 12.027 1.3999H9.36341C8.87306 1.3999 8.47555 1.79741 8.47555 2.28776V4.95135C8.47555 5.4417 8.87306 5.83921 9.36341 5.83921ZM9.36341 20.5999H12.027C12.5173 20.5999 12.9149 20.2024 12.9149 19.712V17.0485C12.9149 16.5581 12.5173 16.1606 12.027 16.1606H9.36341C8.87306 16.1606 8.47555 16.5581 8.47555 17.0485V19.712C8.47555 20.2024 8.87306 20.5999 9.36341 20.5999ZM15.1065 9.66785V12.3314C15.1065 12.8218 15.504 13.2193 15.9944 13.2193H18.658C19.1483 13.2193 19.5458 12.8218 19.5458 12.3314V9.66785C19.5458 9.1775 19.1483 8.77999 18.658 8.77999H15.9944C15.504 8.77999 15.1065 9.1775 15.1065 9.66785ZM1.40015 9.66785L1.40015 12.3314C1.40015 12.8218 1.79766 13.2193 2.28801 13.2193H4.95159C5.44194 13.2193 5.83945 12.8218 5.83945 12.3314L5.83945 9.66785C5.83945 9.1775 5.44194 8.77999 4.95159 8.77999H2.28801C1.79766 8.77999 1.40015 9.1775 1.40015 9.66785Z" stroke="black" stroke-width="2"/>
</svg>
