<svg width="20" height="20" viewBox="0 0 20 20" fill="none" xmlns="http://www.w3.org/2000/svg">
<path id="bluetooth-01-icon" d="M6.25 19H5.25C5.25 19.3858 5.4719 19.7371 5.82023 19.9029C6.16856 20.0687 6.58119 20.0194 6.88059 19.7761L6.25 19ZM6.25 1L6.88059 0.223886C6.58119 -0.0193796 6.16856 -0.0687319 5.82023 0.0970624C5.4719 0.262857 5.25 0.614227 5.25 1L6.25 1ZM12.25 5.875L12.8177 6.69821C13.077 6.51942 13.2369 6.22895 13.2492 5.91427C13.2616 5.59959 13.125 5.29747 12.8806 5.09889L12.25 5.875ZM12.25 14.125L12.8806 14.9011C13.125 14.7025 13.2616 14.4004 13.2492 14.0857C13.2369 13.771 13.077 13.4806 12.8177 13.3018L12.25 14.125ZM1.56773 5.54317C1.11309 5.22962 0.490338 5.344 0.176787 5.79865C-0.136763 6.25329 -0.0223809 6.87604 0.432267 7.18959L1.56773 5.54317ZM0.432267 12.8104C-0.0223809 13.124 -0.136763 13.7467 0.176787 14.2014C0.490338 14.656 1.11309 14.7704 1.56773 14.4568L0.432267 12.8104ZM14.955 7.16054C14.4632 6.90924 13.8608 7.10421 13.6095 7.59601C13.3582 8.08781 13.5532 8.69021 14.045 8.94151L14.955 7.16054ZM14.045 11.0585C13.5532 11.3098 13.3582 11.9122 13.6095 12.404C13.8608 12.8958 14.4632 13.0908 14.955 12.8395L14.045 11.0585ZM16.9609 4.63869C16.4852 4.35809 15.8721 4.51623 15.5915 4.99192C15.3109 5.4676 15.4691 6.0807 15.9447 6.36131L16.9609 4.63869ZM15.9447 13.6387C15.4691 13.9193 15.3109 14.5324 15.5915 15.0081C15.8721 15.4838 16.4852 15.6419 16.9609 15.3613L15.9447 13.6387ZM7.25 19V10.0129H5.25V19H7.25ZM7.25 10.0129V9.98707H5.25V10.0129H7.25ZM7.25 9.98707V1H5.25V9.98707H7.25ZM5.61941 1.77611L11.6194 6.65111L12.8806 5.09889L6.88059 0.223886L5.61941 1.77611ZM6.88059 19.7761L12.8806 14.9011L11.6194 13.3489L5.61941 18.2239L6.88059 19.7761ZM12.8177 13.3018L6.83648 9.17679L5.70102 10.8232L11.6823 14.9482L12.8177 13.3018ZM6.83645 9.17677L6.8177 9.16384L5.6823 10.8103L5.70105 10.8232L6.83645 9.17677ZM6.81773 9.16386L1.56773 5.54317L0.432267 7.18959L5.68227 10.8103L6.81773 9.16386ZM11.6823 5.05179L5.70102 9.17679L6.83648 10.8232L12.8177 6.69821L11.6823 5.05179ZM5.70105 9.17677L5.6823 9.1897L6.8177 10.8362L6.83645 10.8232L5.70105 9.17677ZM5.68227 9.18972L0.432267 12.8104L1.56773 14.4568L6.81773 10.8361L5.68227 9.18972ZM14.045 8.94151C14.5282 9.18843 14.7736 9.60219 14.7736 10H16.7736C16.7736 8.7322 15.9945 7.69169 14.955 7.16054L14.045 8.94151ZM14.7736 10C14.7736 10.3978 14.5282 10.8116 14.045 11.0585L14.955 12.8395C15.9945 12.3083 16.7736 11.2678 16.7736 10H14.7736ZM15.9447 6.36131C17.1695 7.0838 18 8.43898 18 10H20C20 7.71525 18.7815 5.71268 16.9609 4.63869L15.9447 6.36131ZM18 10C18 11.561 17.1695 12.9162 15.9447 13.6387L16.9609 15.3613C18.7815 14.2873 20 12.2847 20 10H18Z" fill="black"/>
</svg>
