<svg width="22" height="20" viewBox="0 0 22 20" fill="none" xmlns="http://www.w3.org/2000/svg">
<path id="camera-01-icon" d="M6.1999 4.11999V5.11999C6.55557 5.11999 6.88447 4.93108 7.06368 4.62386L6.1999 4.11999ZM7.8799 1.23999V0.23999C7.52423 0.23999 7.19533 0.428902 7.01612 0.736119L7.8799 1.23999ZM14.1199 1.23999L14.9837 0.736119C14.8045 0.428902 14.4756 0.23999 14.1199 0.23999V1.23999ZM15.7999 4.11999L14.9361 4.62386C15.1153 4.93108 15.4442 5.11999 15.7999 5.11999V4.11999ZM2.3999 16.36V6.51999H0.399902V16.36H2.3999ZM3.7999 5.11999H6.1999V3.11999H3.7999V5.11999ZM7.06368 4.62386L8.74368 1.74386L7.01612 0.736119L5.33612 3.61612L7.06368 4.62386ZM7.8799 2.23999H14.1199V0.23999H7.8799V2.23999ZM13.2561 1.74386L14.9361 4.62386L16.6637 3.61612L14.9837 0.736119L13.2561 1.74386ZM15.7999 5.11999H18.1999V3.11999H15.7999V5.11999ZM19.5999 6.51999V16.36H21.5999V6.51999H19.5999ZM19.5999 16.36C19.5999 17.1332 18.9731 17.76 18.1999 17.76V19.76C20.0777 19.76 21.5999 18.2378 21.5999 16.36H19.5999ZM18.1999 5.11999C18.9731 5.11999 19.5999 5.74679 19.5999 6.51999H21.5999C21.5999 4.64222 20.0777 3.11999 18.1999 3.11999V5.11999ZM2.3999 6.51999C2.3999 5.74679 3.0267 5.11999 3.7999 5.11999V3.11999C1.92214 3.11999 0.399902 4.64222 0.399902 6.51999H2.3999ZM3.7999 17.76C3.0267 17.76 2.3999 17.1332 2.3999 16.36H0.399902C0.399902 18.2378 1.92213 19.76 3.7999 19.76V17.76ZM13.5999 10.84C13.5999 12.2759 12.4358 13.44 10.9999 13.44V15.44C13.5404 15.44 15.5999 13.3805 15.5999 10.84H13.5999ZM10.9999 13.44C9.56396 13.44 8.3999 12.2759 8.3999 10.84H6.3999C6.3999 13.3805 8.45939 15.44 10.9999 15.44V13.44ZM8.3999 10.84C8.3999 9.40405 9.56396 8.23999 10.9999 8.23999V6.23999C8.45939 6.23999 6.3999 8.29948 6.3999 10.84H8.3999ZM10.9999 8.23999C12.4358 8.23999 13.5999 9.40405 13.5999 10.84H15.5999C15.5999 8.29948 13.5404 6.23999 10.9999 6.23999V8.23999ZM18.1999 17.76H3.7999V19.76H18.1999V17.76Z" fill="black"/>
</svg>
