<svg width="18" height="16" viewBox="0 0 18 16" fill="none" xmlns="http://www.w3.org/2000/svg">
<path id="car-icon" d="M1 10.5V8.17073C1 7.03922 1.89543 6.12195 3 6.12195M1 10.5C1 11.6315 1.89543 12.5488 3 12.5488H15C16.1046 12.5488 17 11.6315 17 10.5M1 10.5V13.6341C1 14.3885 1.59695 15 2.33333 15H3.66667C4.40305 15 5 14.3885 5 13.6341V12.5488M17 10.5V8.17073C17 7.03922 16.1046 6.12195 15 6.12195H3M17 10.5V13.6341C17 14.3885 16.403 15 15.6667 15H14.3333C13.597 15 13 14.3885 13 13.6341V12.5488M3 6.12195L4.06939 2.01392C4.22504 1.41602 4.75364 1 5.3577 1H12.7057C13.2796 1 13.7891 1.3762 13.9706 1.93393L15.3333 6.12195M3.33333 9.19512H5.66667M12.3333 9.19512H14.6667" stroke="black" stroke-width="2" stroke-linecap="round" stroke-linejoin="round"/>
</svg>
