<svg width="24" height="18" viewBox="0 0 24 18" fill="none" xmlns="http://www.w3.org/2000/svg">
<path id="card-lock-icon" d="M12.0002 15.3L4.20051 15.2999C2.87507 15.2998 1.80059 14.2254 1.80055 12.8999L1.80029 3.90007C1.80026 2.57456 2.87478 1.5 4.20029 1.5H18.5992C19.925 1.5 20.9998 2.57422 20.9998 3.89993L20.9998 5.7M2.39983 5.69985H20.3998M17.6998 12V11C17.6998 10.1716 18.3714 9.50005 19.1998 9.50005C20.0283 9.50005 20.6998 10.1716 20.6998 11V12.5M17.1998 16.5H21.1998C21.7521 16.5 22.1998 16.0523 22.1998 15.5V13.5C22.1998 12.9478 21.7521 12.5 21.1998 12.5H17.1998C16.6475 12.5 16.1998 12.9478 16.1998 13.5V15.5C16.1998 16.0523 16.6475 16.5 17.1998 16.5Z" stroke="black" stroke-width="2" stroke-linecap="round" stroke-linejoin="round"/>
</svg>
