<svg width="24" height="18" viewBox="0 0 24 18" fill="none" xmlns="http://www.w3.org/2000/svg">
<path id="card-shield-icon" d="M1.80055 12.4126L0.80055 12.4126L1.80055 12.4126ZM1.80029 3.41276L2.80029 3.41273L2.80029 3.41273L1.80029 3.41276ZM12.0002 15.8127C12.5525 15.8127 13.0002 15.365 13.0002 14.8127C13.0002 14.2604 12.5525 13.8127 12.0002 13.8127L12.0002 15.8127ZM4.20051 14.8125L4.20053 13.8125L4.20053 13.8125L4.20051 14.8125ZM20.9998 3.41262L19.9998 3.41264L19.9998 3.41264L20.9998 3.41262ZM2.39983 4.21255C1.84755 4.21255 1.39983 4.66026 1.39983 5.21255C1.39983 5.76483 1.84755 6.21255 2.39983 6.21255V4.21255ZM20.3998 6.21255C20.9521 6.21255 21.3998 5.76483 21.3998 5.21255C21.3998 4.66026 20.9521 4.21255 20.3998 4.21255V6.21255ZM16.1998 10.4876L15.7526 9.5932C15.4138 9.76259 15.1998 10.1089 15.1998 10.4876H16.1998ZM19.1998 16.9876L18.6659 17.8331C18.992 18.0391 19.4076 18.0391 19.7338 17.8331L19.1998 16.9876ZM22.1998 10.4876H23.1998C23.1998 10.1089 22.9858 9.76259 22.647 9.5932L22.1998 10.4876ZM17.5899 9.79261L18.0371 10.687L18.0371 10.687L17.5899 9.79261ZM20.8098 9.79261L20.3626 10.687L20.3626 10.687L20.8098 9.79261ZM4.20029 2.0127H18.5992V0.0126953H4.20029V2.0127ZM2.80055 12.4126L2.80029 3.41273L0.800293 3.41279L0.80055 12.4126L2.80055 12.4126ZM12.0002 13.8127L4.20053 13.8125L4.20049 15.8125L12.0002 15.8127L12.0002 13.8127ZM19.9998 3.41264L19.9998 5.21272L21.9998 5.21267L21.9998 3.4126L19.9998 3.41264ZM4.20029 0.0126953C2.32249 0.0126953 0.800239 1.53498 0.800293 3.41279L2.80029 3.41273C2.80027 2.63952 3.42708 2.0127 4.20029 2.0127V0.0126953ZM18.5992 2.0127C19.373 2.0127 19.9998 2.63952 19.9998 3.41264L21.9998 3.41261C21.9998 1.5343 20.4769 0.0126953 18.5992 0.0126953V2.0127ZM0.80055 12.4126C0.800603 14.2904 2.32278 15.8125 4.20049 15.8125L4.20053 13.8125C3.42735 13.8125 2.80057 13.1858 2.80055 12.4126L0.80055 12.4126ZM2.39983 6.21255H20.3998V4.21255H2.39983V6.21255ZM17.1427 8.89818L15.7526 9.5932L16.647 11.3821L18.0371 10.687L17.1427 8.89818ZM15.1998 10.4876V13.8326H17.1998V10.4876H15.1998ZM15.1998 13.8326C15.1998 14.6786 15.6892 15.4036 16.2581 15.9889C16.8475 16.5952 17.6744 17.207 18.6659 17.8331L19.7338 16.1421C18.793 15.548 18.1198 15.0347 17.6923 14.5949C17.2443 14.134 17.1998 13.8916 17.1998 13.8326H15.1998ZM19.7338 17.8331C20.6861 17.2317 21.5251 16.6796 22.1197 16.1044C22.7417 15.5027 23.1998 14.7764 23.1998 13.8326H21.1998C21.1998 14.0438 21.1241 14.2848 20.7292 14.6669C20.3069 15.0753 19.6459 15.5232 18.6659 16.1421L19.7338 17.8331ZM23.1998 13.8326C23.1998 13.8304 23.1998 13.8281 23.1998 13.8258C23.1998 13.8236 23.1998 13.8213 23.1998 13.819C23.1998 13.8168 23.1998 13.8145 23.1998 13.8122C23.1998 13.8099 23.1998 13.8077 23.1998 13.8054C23.1998 13.8031 23.1998 13.8008 23.1998 13.7985C23.1998 13.7962 23.1998 13.7939 23.1998 13.7916C23.1998 13.7893 23.1998 13.787 23.1998 13.7847C23.1998 13.7824 23.1998 13.7801 23.1998 13.7777C23.1998 13.7754 23.1998 13.7731 23.1998 13.7708C23.1998 13.7684 23.1998 13.7661 23.1998 13.7638C23.1998 13.7615 23.1998 13.7591 23.1998 13.7568C23.1998 13.7544 23.1998 13.7521 23.1998 13.7497C23.1998 13.7474 23.1998 13.7451 23.1998 13.7427C23.1998 13.7403 23.1998 13.738 23.1998 13.7356C23.1998 13.7333 23.1998 13.7309 23.1998 13.7285C23.1998 13.7262 23.1998 13.7238 23.1998 13.7214C23.1998 13.719 23.1998 13.7167 23.1998 13.7143C23.1998 13.7119 23.1998 13.7095 23.1998 13.7071C23.1998 13.7047 23.1998 13.7023 23.1998 13.6999C23.1998 13.6975 23.1998 13.6951 23.1998 13.6927C23.1998 13.6903 23.1998 13.6879 23.1998 13.6855C23.1998 13.6831 23.1998 13.6807 23.1998 13.6783C23.1998 13.6758 23.1998 13.6734 23.1998 13.671C23.1998 13.6686 23.1998 13.6661 23.1998 13.6637C23.1998 13.6613 23.1998 13.6588 23.1998 13.6564C23.1998 13.654 23.1998 13.6515 23.1998 13.6491C23.1998 13.6466 23.1998 13.6442 23.1998 13.6417C23.1998 13.6393 23.1998 13.6368 23.1998 13.6344C23.1998 13.6319 23.1998 13.6295 23.1998 13.627C23.1998 13.6245 23.1998 13.6221 23.1998 13.6196C23.1998 13.6171 23.1998 13.6146 23.1998 13.6122C23.1998 13.6097 23.1998 13.6072 23.1998 13.6047C23.1998 13.6022 23.1998 13.5997 23.1998 13.5973C23.1998 13.5948 23.1998 13.5923 23.1998 13.5898C23.1998 13.5873 23.1998 13.5848 23.1998 13.5823C23.1998 13.5798 23.1998 13.5773 23.1998 13.5748C23.1998 13.5723 23.1998 13.5697 23.1998 13.5672C23.1998 13.5647 23.1998 13.5622 23.1998 13.5597C23.1998 13.5571 23.1998 13.5546 23.1998 13.5521C23.1998 13.5496 23.1998 13.547 23.1998 13.5445C23.1998 13.542 23.1998 13.5394 23.1998 13.5369C23.1998 13.5344 23.1998 13.5318 23.1998 13.5293C23.1998 13.5267 23.1998 13.5242 23.1998 13.5216C23.1998 13.5191 23.1998 13.5165 23.1998 13.514C23.1998 13.5114 23.1998 13.5088 23.1998 13.5063C23.1998 13.5037 23.1998 13.5012 23.1998 13.4986C23.1998 13.496 23.1998 13.4935 23.1998 13.4909C23.1998 13.4883 23.1998 13.4857 23.1998 13.4831C23.1998 13.4806 23.1998 13.478 23.1998 13.4754C23.1998 13.4728 23.1998 13.4702 23.1998 13.4676C23.1998 13.465 23.1998 13.4625 23.1998 13.4599C23.1998 13.4573 23.1998 13.4547 23.1998 13.4521C23.1998 13.4495 23.1998 13.4469 23.1998 13.4442C23.1998 13.4416 23.1998 13.439 23.1998 13.4364C23.1998 13.4338 23.1998 13.4312 23.1998 13.4286C23.1998 13.426 23.1998 13.4233 23.1998 13.4207C23.1998 13.4181 23.1998 13.4155 23.1998 13.4128C23.1998 13.4102 23.1998 13.4076 23.1998 13.4049C23.1998 13.4023 23.1998 13.3997 23.1998 13.397C23.1998 13.3944 23.1998 13.3918 23.1998 13.3891C23.1998 13.3865 23.1998 13.3838 23.1998 13.3812C23.1998 13.3785 23.1998 13.3759 23.1998 13.3732C23.1998 13.3706 23.1998 13.3679 23.1998 13.3653C23.1998 13.3626 23.1998 13.3599 23.1998 13.3573C23.1998 13.3546 23.1998 13.352 23.1998 13.3493C23.1998 13.3466 23.1998 13.3439 23.1998 13.3413C23.1998 13.3386 23.1998 13.3359 23.1998 13.3333C23.1998 13.3306 23.1998 13.3279 23.1998 13.3252C23.1998 13.3225 23.1998 13.3198 23.1998 13.3172C23.1998 13.3145 23.1998 13.3118 23.1998 13.3091C23.1998 13.3064 23.1998 13.3037 23.1998 13.301C23.1998 13.2983 23.1998 13.2956 23.1998 13.2929C23.1998 13.2902 23.1998 13.2875 23.1998 13.2848C23.1998 13.2821 23.1998 13.2794 23.1998 13.2767C23.1998 13.274 23.1998 13.2713 23.1998 13.2686C23.1998 13.2659 23.1998 13.2631 23.1998 13.2604C23.1998 13.2577 23.1998 13.255 23.1998 13.2523C23.1998 13.2495 23.1998 13.2468 23.1998 13.2441C23.1998 13.2414 23.1998 13.2386 23.1998 13.2359C23.1998 13.2332 23.1998 13.2304 23.1998 13.2277C23.1998 13.225 23.1998 13.2222 23.1998 13.2195C23.1998 13.2168 23.1998 13.214 23.1998 13.2113C23.1998 13.2085 23.1998 13.2058 23.1998 13.2031C23.1998 13.2003 23.1998 13.1976 23.1998 13.1948C23.1998 13.1921 23.1998 13.1893 23.1998 13.1866C23.1998 13.1838 23.1998 13.181 23.1998 13.1783C23.1998 13.1755 23.1998 13.1728 23.1998 13.17C23.1998 13.1673 23.1998 13.1645 23.1998 13.1617C23.1998 13.159 23.1998 13.1562 23.1998 13.1534C23.1998 13.1507 23.1998 13.1479 23.1998 13.1451C23.1998 13.1423 23.1998 13.1396 23.1998 13.1368C23.1998 13.134 23.1998 13.1312 23.1998 13.1285C23.1998 13.1257 23.1998 13.1229 23.1998 13.1201C23.1998 13.1173 23.1998 13.1146 23.1998 13.1118C23.1998 13.109 23.1998 13.1062 23.1998 13.1034C23.1998 13.1006 23.1998 13.0978 23.1998 13.095C23.1998 13.0922 23.1998 13.0894 23.1998 13.0867C23.1998 13.0839 23.1998 13.0811 23.1998 13.0783C23.1998 13.0755 23.1998 13.0727 23.1998 13.0699C23.1998 13.0671 23.1998 13.0643 23.1998 13.0614C23.1998 13.0586 23.1998 13.0558 23.1998 13.053C23.1998 13.0502 23.1998 13.0474 23.1998 13.0446C23.1998 13.0418 23.1998 13.039 23.1998 13.0362C23.1998 13.0333 23.1998 13.0305 23.1998 13.0277C23.1998 13.0249 23.1998 13.0221 23.1998 13.0193C23.1998 13.0164 23.1998 13.0136 23.1998 13.0108C23.1998 13.008 23.1998 13.0051 23.1998 13.0023C23.1998 12.9995 23.1998 12.9967 23.1998 12.9938C23.1998 12.991 23.1998 12.9882 23.1998 12.9853C23.1998 12.9825 23.1998 12.9797 23.1998 12.9769C23.1998 12.974 23.1998 12.9712 23.1998 12.9683C23.1998 12.9655 23.1998 12.9627 23.1998 12.9598C23.1998 12.957 23.1998 12.9542 23.1998 12.9513C23.1998 12.9485 23.1998 12.9456 23.1998 12.9428C23.1998 12.9399 23.1998 12.9371 23.1998 12.9343C23.1998 12.9314 23.1998 12.9286 23.1998 12.9257C23.1998 12.9229 23.1998 12.92 23.1998 12.9172C23.1998 12.9143 23.1998 12.9115 23.1998 12.9086C23.1998 12.9058 23.1998 12.9029 23.1998 12.9C23.1998 12.8972 23.1998 12.8943 23.1998 12.8915C23.1998 12.8886 23.1998 12.8858 23.1998 12.8829C23.1998 12.88 23.1998 12.8772 23.1998 12.8743C23.1998 12.8715 23.1998 12.8686 23.1998 12.8657C23.1998 12.8629 23.1998 12.86 23.1998 12.8571C23.1998 12.8543 23.1998 12.8514 23.1998 12.8485C23.1998 12.8457 23.1998 12.8428 23.1998 12.8399C23.1998 12.8371 23.1998 12.8342 23.1998 12.8313C23.1998 12.8284 23.1998 12.8256 23.1998 12.8227C23.1998 12.8198 23.1998 12.817 23.1998 12.8141C23.1998 12.8112 23.1998 12.8083 23.1998 12.8055C23.1998 12.8026 23.1998 12.7997 23.1998 12.7968C23.1998 12.7939 23.1998 12.7911 23.1998 12.7882C23.1998 12.7853 23.1998 12.7824 23.1998 12.7795C23.1998 12.7767 23.1998 12.7738 23.1998 12.7709C23.1998 12.768 23.1998 12.7651 23.1998 12.7623C23.1998 12.7594 23.1998 12.7565 23.1998 12.7536C23.1998 12.7507 23.1998 12.7478 23.1998 12.7449C23.1998 12.7421 23.1998 12.7392 23.1998 12.7363C23.1998 12.7334 23.1998 12.7305 23.1998 12.7276C23.1998 12.7247 23.1998 12.7218 23.1998 12.7189C23.1998 12.7161 23.1998 12.7132 23.1998 12.7103C23.1998 12.7074 23.1998 12.7045 23.1998 12.7016C23.1998 12.6987 23.1998 12.6958 23.1998 12.6929C23.1998 12.69 23.1998 12.6871 23.1998 12.6842C23.1998 12.6813 23.1998 12.6784 23.1998 12.6755C23.1998 12.6726 23.1998 12.6698 23.1998 12.6669C23.1998 12.664 23.1998 12.6611 23.1998 12.6582C23.1998 12.6553 23.1998 12.6524 23.1998 12.6495C23.1998 12.6466 23.1998 12.6437 23.1998 12.6408C23.1998 12.6379 23.1998 12.635 23.1998 12.6321C23.1998 12.6292 23.1998 12.6263 23.1998 12.6234C23.1998 12.6205 23.1998 12.6176 23.1998 12.6147C23.1998 12.6118 23.1998 12.6089 23.1998 12.606C23.1998 12.6031 23.1998 12.6002 23.1998 12.5973C23.1998 12.5944 23.1998 12.5915 23.1998 12.5886C23.1998 12.5857 23.1998 12.5828 23.1998 12.5799C23.1998 12.5769 23.1998 12.574 23.1998 12.5711C23.1998 12.5682 23.1998 12.5653 23.1998 12.5624C23.1998 12.5595 23.1998 12.5566 23.1998 12.5537C23.1998 12.5508 23.1998 12.5479 23.1998 12.545C23.1998 12.5421 23.1998 12.5392 23.1998 12.5363C23.1998 12.5334 23.1998 12.5305 23.1998 12.5276C23.1998 12.5247 23.1998 12.5218 23.1998 12.5189C23.1998 12.516 23.1998 12.5131 23.1998 12.5102C23.1998 12.5072 23.1998 12.5043 23.1998 12.5014C23.1998 12.4985 23.1998 12.4956 23.1998 12.4927C23.1998 12.4898 23.1998 12.4869 23.1998 12.484C23.1998 12.4811 23.1998 12.4782 23.1998 12.4753C23.1998 12.4724 23.1998 12.4695 23.1998 12.4666C23.1998 12.4637 23.1998 12.4608 23.1998 12.4579C23.1998 12.455 23.1998 12.4521 23.1998 12.4492C23.1998 12.4463 23.1998 12.4434 23.1998 12.4405C23.1998 12.4376 23.1998 12.4346 23.1998 12.4317C23.1998 12.4288 23.1998 12.4259 23.1998 12.423C23.1998 12.4201 23.1998 12.4172 23.1998 12.4143C23.1998 12.4114 23.1998 12.4085 23.1998 12.4056C23.1998 12.4027 23.1998 12.3998 23.1998 12.3969C23.1998 12.394 23.1998 12.3911 23.1998 12.3882C23.1998 12.3853 23.1998 12.3824 23.1998 12.3795C23.1998 12.3766 23.1998 12.3737 23.1998 12.3708C23.1998 12.3679 23.1998 12.365 23.1998 12.3621C23.1998 12.3592 23.1998 12.3563 23.1998 12.3534C23.1998 12.3505 23.1998 12.3476 23.1998 12.3447C23.1998 12.3419 23.1998 12.339 23.1998 12.3361C23.1998 12.3332 23.1998 12.3303 23.1998 12.3274C23.1998 12.3245 23.1998 12.3216 23.1998 12.3187C23.1998 12.3158 23.1998 12.3129 23.1998 12.31C23.1998 12.3071 23.1998 12.3042 23.1998 12.3013C23.1998 12.2985 23.1998 12.2956 23.1998 12.2927C23.1998 12.2898 23.1998 12.2869 23.1998 12.284C23.1998 12.2811 23.1998 12.2782 23.1998 12.2753C23.1998 12.2724 23.1998 12.2696 23.1998 12.2667C23.1998 12.2638 23.1998 12.2609 23.1998 12.258C23.1998 12.2551 23.1998 12.2523 23.1998 12.2494C23.1998 12.2465 23.1998 12.2436 23.1998 12.2407C23.1998 12.2378 23.1998 12.235 23.1998 12.2321C23.1998 12.2292 23.1998 12.2263 23.1998 12.2234C23.1998 12.2206 23.1998 12.2177 23.1998 12.2148C23.1998 12.2119 23.1998 12.209 23.1998 12.2062C23.1998 12.2033 23.1998 12.2004 23.1998 12.1975C23.1998 12.1947 23.1998 12.1918 23.1998 12.1889C23.1998 12.1861 23.1998 12.1832 23.1998 12.1803C23.1998 12.1774 23.1998 12.1746 23.1998 12.1717C23.1998 12.1688 23.1998 12.166 23.1998 12.1631C23.1998 12.1602 23.1998 12.1574 23.1998 12.1545C23.1998 12.1516 23.1998 12.1488 23.1998 12.1459C23.1998 12.1431 23.1998 12.1402 23.1998 12.1373C23.1998 12.1345 23.1998 12.1316 23.1998 12.1287C23.1998 12.1259 23.1998 12.123 23.1998 12.1202C23.1998 12.1173 23.1998 12.1145 23.1998 12.1116C23.1998 12.1088 23.1998 12.1059 23.1998 12.103C23.1998 12.1002 23.1998 12.0973 23.1998 12.0945C23.1998 12.0916 23.1998 12.0888 23.1998 12.0859C23.1998 12.0831 23.1998 12.0803 23.1998 12.0774C23.1998 12.0746 23.1998 12.0717 23.1998 12.0689C23.1998 12.066 23.1998 12.0632 23.1998 12.0604C23.1998 12.0575 23.1998 12.0547 23.1998 12.0518C23.1998 12.049 23.1998 12.0462 23.1998 12.0433C23.1998 12.0405 23.1998 12.0377 23.1998 12.0348C23.1998 12.032 23.1998 12.0292 23.1998 12.0263C23.1998 12.0235 23.1998 12.0207 23.1998 12.0178C23.1998 12.015 23.1998 12.0122 23.1998 12.0094C23.1998 12.0065 23.1998 12.0037 23.1998 12.0009C23.1998 11.9981 23.1998 11.9953 23.1998 11.9924C23.1998 11.9896 23.1998 11.9868 23.1998 11.984C23.1998 11.9812 23.1998 11.9783 23.1998 11.9755C23.1998 11.9727 23.1998 11.9699 23.1998 11.9671C23.1998 11.9643 23.1998 11.9615 23.1998 11.9587C23.1998 11.9559 23.1998 11.9531 23.1998 11.9503C23.1998 11.9475 23.1998 11.9447 23.1998 11.9418C23.1998 11.939 23.1998 11.9362 23.1998 11.9335C23.1998 11.9307 23.1998 11.9279 23.1998 11.9251C23.1998 11.9223 23.1998 11.9195 23.1998 11.9167C23.1998 11.9139 23.1998 11.9111 23.1998 11.9083C23.1998 11.9055 23.1998 11.9027 23.1998 11.9C23.1998 11.8972 23.1998 11.8944 23.1998 11.8916C23.1998 11.8888 23.1998 11.886 23.1998 11.8833C23.1998 11.8805 23.1998 11.8777 23.1998 11.8749C23.1998 11.8722 23.1998 11.8694 23.1998 11.8666C23.1998 11.8639 23.1998 11.8611 23.1998 11.8583C23.1998 11.8556 23.1998 11.8528 23.1998 11.85C23.1998 11.8473 23.1998 11.8445 23.1998 11.8417C23.1998 11.839 23.1998 11.8362 23.1998 11.8335C23.1998 11.8307 23.1998 11.828 23.1998 11.8252C23.1998 11.8225 23.1998 11.8197 23.1998 11.817C23.1998 11.8142 23.1998 11.8115 23.1998 11.8087C23.1998 11.806 23.1998 11.8032 23.1998 11.8005C23.1998 11.7977 23.1998 11.795 23.1998 11.7923C23.1998 11.7895 23.1998 11.7868 23.1998 11.7841C23.1998 11.7813 23.1998 11.7786 23.1998 11.7759C23.1998 11.7732 23.1998 11.7704 23.1998 11.7677C23.1998 11.765 23.1998 11.7623 23.1998 11.7595C23.1998 11.7568 23.1998 11.7541 23.1998 11.7514C23.1998 11.7487 23.1998 11.746 23.1998 11.7432C23.1998 11.7405 23.1998 11.7378 23.1998 11.7351C23.1998 11.7324 23.1998 11.7297 23.1998 11.727C23.1998 11.7243 23.1998 11.7216 23.1998 11.7189C23.1998 11.7162 23.1998 11.7135 23.1998 11.7108C23.1998 11.7081 23.1998 11.7054 23.1998 11.7027C23.1998 11.7 23.1998 11.6974 23.1998 11.6947C23.1998 11.692 23.1998 11.6893 23.1998 11.6866C23.1998 11.6839 23.1998 11.6813 23.1998 11.6786C23.1998 11.6759 23.1998 11.6732 23.1998 11.6706C23.1998 11.6679 23.1998 11.6652 23.1998 11.6626C23.1998 11.6599 23.1998 11.6572 23.1998 11.6546C23.1998 11.6519 23.1998 11.6493 23.1998 11.6466C23.1998 11.6439 23.1998 11.6413 23.1998 11.6386C23.1998 11.636 23.1998 11.6333 23.1998 11.6307C23.1998 11.6281 23.1998 11.6254 23.1998 11.6228C23.1998 11.6201 23.1998 11.6175 23.1998 11.6148C23.1998 11.6122 23.1998 11.6096 23.1998 11.6069C23.1998 11.6043 23.1998 11.6017 23.1998 11.5991C23.1998 11.5964 23.1998 11.5938 23.1998 11.5912C23.1998 11.5886 23.1998 11.586 23.1998 11.5833C23.1998 11.5807 23.1998 11.5781 23.1998 11.5755C23.1998 11.5729 23.1998 11.5703 23.1998 11.5677C23.1998 11.5651 23.1998 11.5625 23.1998 11.5599C23.1998 11.5573 23.1998 11.5547 23.1998 11.5521C23.1998 11.5495 23.1998 11.5469 23.1998 11.5443C23.1998 11.5417 23.1998 11.5391 23.1998 11.5365C23.1998 11.534 23.1998 11.5314 23.1998 11.5288C23.1998 11.5262 23.1998 11.5237 23.1998 11.5211C23.1998 11.5185 23.1998 11.5159 23.1998 11.5134C23.1998 11.5108 23.1998 11.5082 23.1998 11.5057C23.1998 11.5031 23.1998 11.5006 23.1998 11.498C23.1998 11.4955 23.1998 11.4929 23.1998 11.4904C23.1998 11.4878 23.1998 11.4853 23.1998 11.4827C23.1998 11.4802 23.1998 11.4776 23.1998 11.4751C23.1998 11.4726 23.1998 11.47 23.1998 11.4675C23.1998 11.465 23.1998 11.4624 23.1998 11.4599C23.1998 11.4574 23.1998 11.4549 23.1998 11.4523C23.1998 11.4498 23.1998 11.4473 23.1998 11.4448C23.1998 11.4423 23.1998 11.4398 23.1998 11.4373C23.1998 11.4348 23.1998 11.4323 23.1998 11.4298C23.1998 11.4273 23.1998 11.4248 23.1998 11.4223C23.1998 11.4198 23.1998 11.4173 23.1998 11.4148C23.1998 11.4123 23.1998 11.4098 23.1998 11.4073C23.1998 11.4049 23.1998 11.4024 23.1998 11.3999C23.1998 11.3974 23.1998 11.395 23.1998 11.3925C23.1998 11.39 23.1998 11.3876 23.1998 11.3851C23.1998 11.3826 23.1998 11.3802 23.1998 11.3777C23.1998 11.3753 23.1998 11.3728 23.1998 11.3704C23.1998 11.3679 23.1998 11.3655 23.1998 11.363C23.1998 11.3606 23.1998 11.3581 23.1998 11.3557C23.1998 11.3533 23.1998 11.3508 23.1998 11.3484C23.1998 11.346 23.1998 11.3436 23.1998 11.3411C23.1998 11.3387 23.1998 11.3363 23.1998 11.3339C23.1998 11.3315 23.1998 11.329 23.1998 11.3266C23.1998 11.3242 23.1998 11.3218 23.1998 11.3194C23.1998 11.317 23.1998 11.3146 23.1998 11.3122C23.1998 11.3098 23.1998 11.3074 23.1998 11.3051C23.1998 11.3027 23.1998 11.3003 23.1998 11.2979C23.1998 11.2955 23.1998 11.2931 23.1998 11.2908C23.1998 11.2884 23.1998 11.286 23.1998 11.2837C23.1998 11.2813 23.1998 11.2789 23.1998 11.2766C23.1998 11.2742 23.1998 11.2719 23.1998 11.2695C23.1998 11.2672 23.1998 11.2648 23.1998 11.2625C23.1998 11.2601 23.1998 11.2578 23.1998 11.2554C23.1998 11.2531 23.1998 11.2508 23.1998 11.2484C23.1998 11.2461 23.1998 11.2438 23.1998 11.2415C23.1998 11.2391 23.1998 11.2368 23.1998 11.2345C23.1998 11.2322 23.1998 11.2299 23.1998 11.2276C23.1998 11.2253 23.1998 11.223 23.1998 11.2207C23.1998 11.2184 23.1998 11.2161 23.1998 11.2138C23.1998 11.2115 23.1998 11.2092 23.1998 11.2069C23.1998 11.2046 23.1998 11.2023 23.1998 11.2001C23.1998 11.1978 23.1998 11.1955 23.1998 11.1933C23.1998 11.191 23.1998 11.1887 23.1998 11.1865C23.1998 11.1842 23.1998 11.1819 23.1998 11.1797C23.1998 11.1774 23.1998 11.1752 23.1998 11.1729C23.1998 11.1707 23.1998 11.1685 23.1998 11.1662C23.1998 11.164 23.1998 11.1617 23.1998 11.1595C23.1998 11.1573 23.1998 11.1551 23.1998 11.1528C23.1998 11.1506 23.1998 11.1484 23.1998 11.1462C23.1998 11.144 23.1998 11.1418 23.1998 11.1396C23.1998 11.1374 23.1998 11.1352 23.1998 11.133C23.1998 11.1308 23.1998 11.1286 23.1998 11.1264C23.1998 11.1242 23.1998 11.122 23.1998 11.1198C23.1998 11.1177 23.1998 11.1155 23.1998 11.1133C23.1998 11.1111 23.1998 11.109 23.1998 11.1068C23.1998 11.1046 23.1998 11.1025 23.1998 11.1003C23.1998 11.0982 23.1998 11.096 23.1998 11.0939C23.1998 11.0917 23.1998 11.0896 23.1998 11.0875C23.1998 11.0853 23.1998 11.0832 23.1998 11.0811C23.1998 11.0789 23.1998 11.0768 23.1998 11.0747C23.1998 11.0726 23.1998 11.0704 23.1998 11.0683C23.1998 11.0662 23.1998 11.0641 23.1998 11.062C23.1998 11.0599 23.1998 11.0578 23.1998 11.0557C23.1998 11.0536 23.1998 11.0515 23.1998 11.0495C23.1998 11.0474 23.1998 11.0453 23.1998 11.0432C23.1998 11.0411 23.1998 11.0391 23.1998 11.037C23.1998 11.0349 23.1998 11.0329 23.1998 11.0308C23.1998 11.0287 23.1998 11.0267 23.1998 11.0246C23.1998 11.0226 23.1998 11.0206 23.1998 11.0185C23.1998 11.0165 23.1998 11.0144 23.1998 11.0124C23.1998 11.0104 23.1998 11.0083 23.1998 11.0063C23.1998 11.0043 23.1998 11.0023 23.1998 11.0003C23.1998 10.9983 23.1998 10.9963 23.1998 10.9943C23.1998 10.9922 23.1998 10.9902 23.1998 10.9883C23.1998 10.9863 23.1998 10.9843 23.1998 10.9823C23.1998 10.9803 23.1998 10.9783 23.1998 10.9763C23.1998 10.9744 23.1998 10.9724 23.1998 10.9704C23.1998 10.9685 23.1998 10.9665 23.1998 10.9646C23.1998 10.9626 23.1998 10.9606 23.1998 10.9587C23.1998 10.9568 23.1998 10.9548 23.1998 10.9529C23.1998 10.9509 23.1998 10.949 23.1998 10.9471C23.1998 10.9452 23.1998 10.9432 23.1998 10.9413C23.1998 10.9394 23.1998 10.9375 23.1998 10.9356C23.1998 10.9337 23.1998 10.9318 23.1998 10.9299C23.1998 10.928 23.1998 10.9261 23.1998 10.9242C23.1998 10.9223 23.1998 10.9204 23.1998 10.9185C23.1998 10.9167 23.1998 10.9148 23.1998 10.9129C23.1998 10.911 23.1998 10.9092 23.1998 10.9073C23.1998 10.9055 23.1998 10.9036 23.1998 10.9018C23.1998 10.8999 23.1998 10.8981 23.1998 10.8962C23.1998 10.8944 23.1998 10.8926 23.1998 10.8907C23.1998 10.8889 23.1998 10.8871 23.1998 10.8853C23.1998 10.8835 23.1998 10.8816 23.1998 10.8798C23.1998 10.878 23.1998 10.8762 23.1998 10.8744C23.1998 10.8726 23.1998 10.8708 23.1998 10.869C23.1998 10.8673 23.1998 10.8655 23.1998 10.8637C23.1998 10.8619 23.1998 10.8602 23.1998 10.8584C23.1998 10.8566 23.1998 10.8549 23.1998 10.8531C23.1998 10.8514 23.1998 10.8496 23.1998 10.8479C23.1998 10.8461 23.1998 10.8444 23.1998 10.8426C23.1998 10.8409 23.1998 10.8392 23.1998 10.8375C23.1998 10.8357 23.1998 10.834 23.1998 10.8323C23.1998 10.8306 23.1998 10.8289 23.1998 10.8272C23.1998 10.8255 23.1998 10.8238 23.1998 10.8221C23.1998 10.8204 23.1998 10.8187 23.1998 10.817C23.1998 10.8153 23.1998 10.8137 23.1998 10.812C23.1998 10.8103 23.1998 10.8087 23.1998 10.807C23.1998 10.8053 23.1998 10.8037 23.1998 10.802C23.1998 10.8004 23.1998 10.7988 23.1998 10.7971C23.1998 10.7955 23.1998 10.7938 23.1998 10.7922C23.1998 10.7906 23.1998 10.789 23.1998 10.7874C23.1998 10.7857 23.1998 10.7841 23.1998 10.7825C23.1998 10.7809 23.1998 10.7793 23.1998 10.7777C23.1998 10.7761 23.1998 10.7746 23.1998 10.773C23.1998 10.7714 23.1998 10.7698 23.1998 10.7683C23.1998 10.7667 23.1998 10.7651 23.1998 10.7636C23.1998 10.762 23.1998 10.7604 23.1998 10.7589C23.1998 10.7574 23.1998 10.7558 23.1998 10.7543C23.1998 10.7527 23.1998 10.7512 23.1998 10.7497C23.1998 10.7482 23.1998 10.7466 23.1998 10.7451C23.1998 10.7436 23.1998 10.7421 23.1998 10.7406C23.1998 10.7391 23.1998 10.7376 23.1998 10.7361C23.1998 10.7346 23.1998 10.7331 23.1998 10.7317C23.1998 10.7302 23.1998 10.7287 23.1998 10.7273C23.1998 10.7258 23.1998 10.7243 23.1998 10.7229C23.1998 10.7214 23.1998 10.72 23.1998 10.7185C23.1998 10.7171 23.1998 10.7157 23.1998 10.7142C23.1998 10.7128 23.1998 10.7114 23.1998 10.7099C23.1998 10.7085 23.1998 10.7071 23.1998 10.7057C23.1998 10.7043 23.1998 10.7029 23.1998 10.7015C23.1998 10.7001 23.1998 10.6987 23.1998 10.6973C23.1998 10.696 23.1998 10.6946 23.1998 10.6932C23.1998 10.6918 23.1998 10.6905 23.1998 10.6891C23.1998 10.6878 23.1998 10.6864 23.1998 10.6851C23.1998 10.6837 23.1998 10.6824 23.1998 10.681C23.1998 10.6797 23.1998 10.6784 23.1998 10.6771C23.1998 10.6757 23.1998 10.6744 23.1998 10.6731C23.1998 10.6718 23.1998 10.6705 23.1998 10.6692C23.1998 10.6679 23.1998 10.6666 23.1998 10.6653C23.1998 10.664 23.1998 10.6628 23.1998 10.6615C23.1998 10.6602 23.1998 10.659 23.1998 10.6577C23.1998 10.6564 23.1998 10.6552 23.1998 10.6539C23.1998 10.6527 23.1998 10.6515 23.1998 10.6502C23.1998 10.649 23.1998 10.6478 23.1998 10.6465C23.1998 10.6453 23.1998 10.6441 23.1998 10.6429C23.1998 10.6417 23.1998 10.6405 23.1998 10.6393C23.1998 10.6381 23.1998 10.6369 23.1998 10.6357C23.1998 10.6345 23.1998 10.6334 23.1998 10.6322C23.1998 10.631 23.1998 10.6299 23.1998 10.6287C23.1998 10.6275 23.1998 10.6264 23.1998 10.6252C23.1998 10.6241 23.1998 10.623 23.1998 10.6218C23.1998 10.6207 23.1998 10.6196 23.1998 10.6185C23.1998 10.6173 23.1998 10.6162 23.1998 10.6151C23.1998 10.614 23.1998 10.6129 23.1998 10.6118C23.1998 10.6107 23.1998 10.6097 23.1998 10.6086C23.1998 10.6075 23.1998 10.6064 23.1998 10.6054C23.1998 10.6043 23.1998 10.6032 23.1998 10.6022C23.1998 10.6011 23.1998 10.6001 23.1998 10.5991C23.1998 10.598 23.1998 10.597 23.1998 10.596C23.1998 10.5949 23.1998 10.5939 23.1998 10.5929C23.1998 10.5919 23.1998 10.5909 23.1998 10.5899C23.1998 10.5889 23.1998 10.5879 23.1998 10.5869C23.1998 10.5859 23.1998 10.585 23.1998 10.584C23.1998 10.583 23.1998 10.582 23.1998 10.5811C23.1998 10.5801 23.1998 10.5792 23.1998 10.5782C23.1998 10.5773 23.1998 10.5764 23.1998 10.5754C23.1998 10.5745 23.1998 10.5736 23.1998 10.5727C23.1998 10.5717 23.1998 10.5708 23.1998 10.5699C23.1998 10.569 23.1998 10.5681 23.1998 10.5672C23.1998 10.5664 23.1998 10.5655 23.1998 10.5646C23.1998 10.5637 23.1998 10.5629 23.1998 10.562C23.1998 10.5611 23.1998 10.5603 23.1998 10.5594C23.1998 10.5586 23.1998 10.5578 23.1998 10.5569C23.1998 10.5561 23.1998 10.5553 23.1998 10.5544C23.1998 10.5536 23.1998 10.5528 23.1998 10.552C23.1998 10.5512 23.1998 10.5504 23.1998 10.5496C23.1998 10.5488 23.1998 10.5481 23.1998 10.5473C23.1998 10.5465 23.1998 10.5457 23.1998 10.545C23.1998 10.5442 23.1998 10.5435 23.1998 10.5427C23.1998 10.542 23.1998 10.5412 23.1998 10.5405C23.1998 10.5398 23.1998 10.539 23.1998 10.5383C23.1998 10.5376 23.1998 10.5369 23.1998 10.5362C23.1998 10.5355 23.1998 10.5348 23.1998 10.5341C23.1998 10.5334 23.1998 10.5327 23.1998 10.5321C23.1998 10.5314 23.1998 10.5307 23.1998 10.5301C23.1998 10.5294 23.1998 10.5287 23.1998 10.5281C23.1998 10.5275 23.1998 10.5268 23.1998 10.5262C23.1998 10.5256 23.1998 10.5249 23.1998 10.5243C23.1998 10.5237 23.1998 10.5231 23.1998 10.5225C23.1998 10.5219 23.1998 10.5213 23.1998 10.5207C23.1998 10.5201 23.1998 10.5196 23.1998 10.519C23.1998 10.5184 23.1998 10.5179 23.1998 10.5173C23.1998 10.5167 23.1998 10.5162 23.1998 10.5157C23.1998 10.5151 23.1998 10.5146 23.1998 10.5141C23.1998 10.5135 23.1998 10.513 23.1998 10.5125C23.1998 10.512 23.1998 10.5115 23.1998 10.511C23.1998 10.5105 23.1998 10.51 23.1998 10.5095C23.1998 10.5091 23.1998 10.5086 23.1998 10.5081C23.1998 10.5077 23.1998 10.5072 23.1998 10.5067C23.1998 10.5063 23.1998 10.5059 23.1998 10.5054C23.1998 10.505 23.1998 10.5046 23.1998 10.5041C23.1998 10.5037 23.1998 10.5033 23.1998 10.5029C23.1998 10.5025 23.1998 10.5021 23.1998 10.5017C23.1998 10.5013 23.1998 10.501 23.1998 10.5006C23.1998 10.5002 23.1998 10.4999 23.1998 10.4995C23.1998 10.4991 23.1998 10.4988 23.1998 10.4985C23.1998 10.4981 23.1998 10.4978 23.1998 10.4975C23.1998 10.4971 23.1998 10.4968 23.1998 10.4965C23.1998 10.4962 23.1998 10.4959 23.1998 10.4956C23.1998 10.4953 23.1998 10.495 23.1998 10.4947C23.1998 10.4945 23.1998 10.4942 23.1998 10.4939C23.1998 10.4937 23.1998 10.4934 23.1998 10.4932C23.1998 10.4929 23.1998 10.4927 23.1998 10.4925C23.1998 10.4922 23.1998 10.492 23.1998 10.4918C23.1998 10.4916 23.1998 10.4914 23.1998 10.4912C23.1998 10.491 23.1998 10.4908 23.1998 10.4906C23.1998 10.4904 23.1998 10.4903 23.1998 10.4901C23.1998 10.4899 23.1998 10.4898 23.1998 10.4896C23.1998 10.4895 23.1998 10.4893 23.1998 10.4892C23.1998 10.4891 23.1998 10.489 23.1998 10.4888C23.1998 10.4887 23.1998 10.4886 23.1998 10.4885C23.1998 10.4884 23.1998 10.4883 23.1998 10.4882C23.1998 10.4882 23.1998 10.4881 23.1998 10.488C23.1998 10.488 23.1998 10.4879 23.1998 10.4878C23.1998 10.4878 23.1998 10.4878 23.1998 10.4877C23.1998 10.4877 23.1998 10.4877 23.1998 10.4876C23.1998 10.4876 23.1998 10.4876 22.1998 10.4876C21.1998 10.4876 21.1998 10.4876 21.1998 10.4876C21.1998 10.4877 21.1998 10.4877 21.1998 10.4877C21.1998 10.4878 21.1998 10.4878 21.1998 10.4878C21.1998 10.4879 21.1998 10.488 21.1998 10.488C21.1998 10.4881 21.1998 10.4882 21.1998 10.4882C21.1998 10.4883 21.1998 10.4884 21.1998 10.4885C21.1998 10.4886 21.1998 10.4887 21.1998 10.4888C21.1998 10.489 21.1998 10.4891 21.1998 10.4892C21.1998 10.4893 21.1998 10.4895 21.1998 10.4896C21.1998 10.4898 21.1998 10.4899 21.1998 10.4901C21.1998 10.4903 21.1998 10.4904 21.1998 10.4906C21.1998 10.4908 21.1998 10.491 21.1998 10.4912C21.1998 10.4914 21.1998 10.4916 21.1998 10.4918C21.1998 10.492 21.1998 10.4922 21.1998 10.4925C21.1998 10.4927 21.1998 10.4929 21.1998 10.4932C21.1998 10.4934 21.1998 10.4937 21.1998 10.4939C21.1998 10.4942 21.1998 10.4945 21.1998 10.4947C21.1998 10.495 21.1998 10.4953 21.1998 10.4956C21.1998 10.4959 21.1998 10.4962 21.1998 10.4965C21.1998 10.4968 21.1998 10.4971 21.1998 10.4975C21.1998 10.4978 21.1998 10.4981 21.1998 10.4985C21.1998 10.4988 21.1998 10.4991 21.1998 10.4995C21.1998 10.4999 21.1998 10.5002 21.1998 10.5006C21.1998 10.501 21.1998 10.5013 21.1998 10.5017C21.1998 10.5021 21.1998 10.5025 21.1998 10.5029C21.1998 10.5033 21.1998 10.5037 21.1998 10.5041C21.1998 10.5046 21.1998 10.505 21.1998 10.5054C21.1998 10.5059 21.1998 10.5063 21.1998 10.5067C21.1998 10.5072 21.1998 10.5077 21.1998 10.5081C21.1998 10.5086 21.1998 10.5091 21.1998 10.5095C21.1998 10.51 21.1998 10.5105 21.1998 10.511C21.1998 10.5115 21.1998 10.512 21.1998 10.5125C21.1998 10.513 21.1998 10.5135 21.1998 10.5141C21.1998 10.5146 21.1998 10.5151 21.1998 10.5157C21.1998 10.5162 21.1998 10.5167 21.1998 10.5173C21.1998 10.5179 21.1998 10.5184 21.1998 10.519C21.1998 10.5196 21.1998 10.5201 21.1998 10.5207C21.1998 10.5213 21.1998 10.5219 21.1998 10.5225C21.1998 10.5231 21.1998 10.5237 21.1998 10.5243C21.1998 10.5249 21.1998 10.5256 21.1998 10.5262C21.1998 10.5268 21.1998 10.5275 21.1998 10.5281C21.1998 10.5287 21.1998 10.5294 21.1998 10.5301C21.1998 10.5307 21.1998 10.5314 21.1998 10.5321C21.1998 10.5327 21.1998 10.5334 21.1998 10.5341C21.1998 10.5348 21.1998 10.5355 21.1998 10.5362C21.1998 10.5369 21.1998 10.5376 21.1998 10.5383C21.1998 10.539 21.1998 10.5398 21.1998 10.5405C21.1998 10.5412 21.1998 10.542 21.1998 10.5427C21.1998 10.5435 21.1998 10.5442 21.1998 10.545C21.1998 10.5457 21.1998 10.5465 21.1998 10.5473C21.1998 10.5481 21.1998 10.5488 21.1998 10.5496C21.1998 10.5504 21.1998 10.5512 21.1998 10.552C21.1998 10.5528 21.1998 10.5536 21.1998 10.5544C21.1998 10.5553 21.1998 10.5561 21.1998 10.5569C21.1998 10.5578 21.1998 10.5586 21.1998 10.5594C21.1998 10.5603 21.1998 10.5611 21.1998 10.562C21.1998 10.5629 21.1998 10.5637 21.1998 10.5646C21.1998 10.5655 21.1998 10.5664 21.1998 10.5672C21.1998 10.5681 21.1998 10.569 21.1998 10.5699C21.1998 10.5708 21.1998 10.5717 21.1998 10.5727C21.1998 10.5736 21.1998 10.5745 21.1998 10.5754C21.1998 10.5764 21.1998 10.5773 21.1998 10.5782C21.1998 10.5792 21.1998 10.5801 21.1998 10.5811C21.1998 10.582 21.1998 10.583 21.1998 10.584C21.1998 10.585 21.1998 10.5859 21.1998 10.5869C21.1998 10.5879 21.1998 10.5889 21.1998 10.5899C21.1998 10.5909 21.1998 10.5919 21.1998 10.5929C21.1998 10.5939 21.1998 10.5949 21.1998 10.596C21.1998 10.597 21.1998 10.598 21.1998 10.5991C21.1998 10.6001 21.1998 10.6011 21.1998 10.6022C21.1998 10.6032 21.1998 10.6043 21.1998 10.6054C21.1998 10.6064 21.1998 10.6075 21.1998 10.6086C21.1998 10.6097 21.1998 10.6107 21.1998 10.6118C21.1998 10.6129 21.1998 10.614 21.1998 10.6151C21.1998 10.6162 21.1998 10.6173 21.1998 10.6185C21.1998 10.6196 21.1998 10.6207 21.1998 10.6218C21.1998 10.623 21.1998 10.6241 21.1998 10.6252C21.1998 10.6264 21.1998 10.6275 21.1998 10.6287C21.1998 10.6299 21.1998 10.631 21.1998 10.6322C21.1998 10.6334 21.1998 10.6345 21.1998 10.6357C21.1998 10.6369 21.1998 10.6381 21.1998 10.6393C21.1998 10.6405 21.1998 10.6417 21.1998 10.6429C21.1998 10.6441 21.1998 10.6453 21.1998 10.6465C21.1998 10.6478 21.1998 10.649 21.1998 10.6502C21.1998 10.6515 21.1998 10.6527 21.1998 10.6539C21.1998 10.6552 21.1998 10.6564 21.1998 10.6577C21.1998 10.659 21.1998 10.6602 21.1998 10.6615C21.1998 10.6628 21.1998 10.664 21.1998 10.6653C21.1998 10.6666 21.1998 10.6679 21.1998 10.6692C21.1998 10.6705 21.1998 10.6718 21.1998 10.6731C21.1998 10.6744 21.1998 10.6757 21.1998 10.6771C21.1998 10.6784 21.1998 10.6797 21.1998 10.681C21.1998 10.6824 21.1998 10.6837 21.1998 10.6851C21.1998 10.6864 21.1998 10.6878 21.1998 10.6891C21.1998 10.6905 21.1998 10.6918 21.1998 10.6932C21.1998 10.6946 21.1998 10.696 21.1998 10.6973C21.1998 10.6987 21.1998 10.7001 21.1998 10.7015C21.1998 10.7029 21.1998 10.7043 21.1998 10.7057C21.1998 10.7071 21.1998 10.7085 21.1998 10.7099C21.1998 10.7114 21.1998 10.7128 21.1998 10.7142C21.1998 10.7157 21.1998 10.7171 21.1998 10.7185C21.1998 10.72 21.1998 10.7214 21.1998 10.7229C21.1998 10.7243 21.1998 10.7258 21.1998 10.7273C21.1998 10.7287 21.1998 10.7302 21.1998 10.7317C21.1998 10.7331 21.1998 10.7346 21.1998 10.7361C21.1998 10.7376 21.1998 10.7391 21.1998 10.7406C21.1998 10.7421 21.1998 10.7436 21.1998 10.7451C21.1998 10.7466 21.1998 10.7482 21.1998 10.7497C21.1998 10.7512 21.1998 10.7527 21.1998 10.7543C21.1998 10.7558 21.1998 10.7574 21.1998 10.7589C21.1998 10.7604 21.1998 10.762 21.1998 10.7636C21.1998 10.7651 21.1998 10.7667 21.1998 10.7683C21.1998 10.7698 21.1998 10.7714 21.1998 10.773C21.1998 10.7746 21.1998 10.7761 21.1998 10.7777C21.1998 10.7793 21.1998 10.7809 21.1998 10.7825C21.1998 10.7841 21.1998 10.7857 21.1998 10.7874C21.1998 10.789 21.1998 10.7906 21.1998 10.7922C21.1998 10.7938 21.1998 10.7955 21.1998 10.7971C21.1998 10.7988 21.1998 10.8004 21.1998 10.802C21.1998 10.8037 21.1998 10.8053 21.1998 10.807C21.1998 10.8087 21.1998 10.8103 21.1998 10.812C21.1998 10.8137 21.1998 10.8153 21.1998 10.817C21.1998 10.8187 21.1998 10.8204 21.1998 10.8221C21.1998 10.8238 21.1998 10.8255 21.1998 10.8272C21.1998 10.8289 21.1998 10.8306 21.1998 10.8323C21.1998 10.834 21.1998 10.8357 21.1998 10.8375C21.1998 10.8392 21.1998 10.8409 21.1998 10.8426C21.1998 10.8444 21.1998 10.8461 21.1998 10.8479C21.1998 10.8496 21.1998 10.8514 21.1998 10.8531C21.1998 10.8549 21.1998 10.8566 21.1998 10.8584C21.1998 10.8602 21.1998 10.8619 21.1998 10.8637C21.1998 10.8655 21.1998 10.8673 21.1998 10.869C21.1998 10.8708 21.1998 10.8726 21.1998 10.8744C21.1998 10.8762 21.1998 10.878 21.1998 10.8798C21.1998 10.8816 21.1998 10.8835 21.1998 10.8853C21.1998 10.8871 21.1998 10.8889 21.1998 10.8907C21.1998 10.8926 21.1998 10.8944 21.1998 10.8962C21.1998 10.8981 21.1998 10.8999 21.1998 10.9018C21.1998 10.9036 21.1998 10.9055 21.1998 10.9073C21.1998 10.9092 21.1998 10.911 21.1998 10.9129C21.1998 10.9148 21.1998 10.9167 21.1998 10.9185C21.1998 10.9204 21.1998 10.9223 21.1998 10.9242C21.1998 10.9261 21.1998 10.928 21.1998 10.9299C21.1998 10.9318 21.1998 10.9337 21.1998 10.9356C21.1998 10.9375 21.1998 10.9394 21.1998 10.9413C21.1998 10.9432 21.1998 10.9452 21.1998 10.9471C21.1998 10.949 21.1998 10.9509 21.1998 10.9529C21.1998 10.9548 21.1998 10.9568 21.1998 10.9587C21.1998 10.9606 21.1998 10.9626 21.1998 10.9646C21.1998 10.9665 21.1998 10.9685 21.1998 10.9704C21.1998 10.9724 21.1998 10.9744 21.1998 10.9763C21.1998 10.9783 21.1998 10.9803 21.1998 10.9823C21.1998 10.9843 21.1998 10.9863 21.1998 10.9883C21.1998 10.9902 21.1998 10.9922 21.1998 10.9943C21.1998 10.9963 21.1998 10.9983 21.1998 11.0003C21.1998 11.0023 21.1998 11.0043 21.1998 11.0063C21.1998 11.0083 21.1998 11.0104 21.1998 11.0124C21.1998 11.0144 21.1998 11.0165 21.1998 11.0185C21.1998 11.0206 21.1998 11.0226 21.1998 11.0246C21.1998 11.0267 21.1998 11.0287 21.1998 11.0308C21.1998 11.0329 21.1998 11.0349 21.1998 11.037C21.1998 11.0391 21.1998 11.0411 21.1998 11.0432C21.1998 11.0453 21.1998 11.0474 21.1998 11.0495C21.1998 11.0515 21.1998 11.0536 21.1998 11.0557C21.1998 11.0578 21.1998 11.0599 21.1998 11.062C21.1998 11.0641 21.1998 11.0662 21.1998 11.0683C21.1998 11.0704 21.1998 11.0726 21.1998 11.0747C21.1998 11.0768 21.1998 11.0789 21.1998 11.0811C21.1998 11.0832 21.1998 11.0853 21.1998 11.0875C21.1998 11.0896 21.1998 11.0917 21.1998 11.0939C21.1998 11.096 21.1998 11.0982 21.1998 11.1003C21.1998 11.1025 21.1998 11.1046 21.1998 11.1068C21.1998 11.109 21.1998 11.1111 21.1998 11.1133C21.1998 11.1155 21.1998 11.1177 21.1998 11.1198C21.1998 11.122 21.1998 11.1242 21.1998 11.1264C21.1998 11.1286 21.1998 11.1308 21.1998 11.133C21.1998 11.1352 21.1998 11.1374 21.1998 11.1396C21.1998 11.1418 21.1998 11.144 21.1998 11.1462C21.1998 11.1484 21.1998 11.1506 21.1998 11.1528C21.1998 11.1551 21.1998 11.1573 21.1998 11.1595C21.1998 11.1617 21.1998 11.164 21.1998 11.1662C21.1998 11.1685 21.1998 11.1707 21.1998 11.1729C21.1998 11.1752 21.1998 11.1774 21.1998 11.1797C21.1998 11.1819 21.1998 11.1842 21.1998 11.1865C21.1998 11.1887 21.1998 11.191 21.1998 11.1933C21.1998 11.1955 21.1998 11.1978 21.1998 11.2001C21.1998 11.2023 21.1998 11.2046 21.1998 11.2069C21.1998 11.2092 21.1998 11.2115 21.1998 11.2138C21.1998 11.2161 21.1998 11.2184 21.1998 11.2207C21.1998 11.223 21.1998 11.2253 21.1998 11.2276C21.1998 11.2299 21.1998 11.2322 21.1998 11.2345C21.1998 11.2368 21.1998 11.2391 21.1998 11.2415C21.1998 11.2438 21.1998 11.2461 21.1998 11.2484C21.1998 11.2508 21.1998 11.2531 21.1998 11.2554C21.1998 11.2578 21.1998 11.2601 21.1998 11.2625C21.1998 11.2648 21.1998 11.2672 21.1998 11.2695C21.1998 11.2719 21.1998 11.2742 21.1998 11.2766C21.1998 11.2789 21.1998 11.2813 21.1998 11.2837C21.1998 11.286 21.1998 11.2884 21.1998 11.2908C21.1998 11.2931 21.1998 11.2955 21.1998 11.2979C21.1998 11.3003 21.1998 11.3027 21.1998 11.3051C21.1998 11.3074 21.1998 11.3098 21.1998 11.3122C21.1998 11.3146 21.1998 11.317 21.1998 11.3194C21.1998 11.3218 21.1998 11.3242 21.1998 11.3266C21.1998 11.329 21.1998 11.3315 21.1998 11.3339C21.1998 11.3363 21.1998 11.3387 21.1998 11.3411C21.1998 11.3436 21.1998 11.346 21.1998 11.3484C21.1998 11.3508 21.1998 11.3533 21.1998 11.3557C21.1998 11.3581 21.1998 11.3606 21.1998 11.363C21.1998 11.3655 21.1998 11.3679 21.1998 11.3704C21.1998 11.3728 21.1998 11.3753 21.1998 11.3777C21.1998 11.3802 21.1998 11.3826 21.1998 11.3851C21.1998 11.3876 21.1998 11.39 21.1998 11.3925C21.1998 11.395 21.1998 11.3974 21.1998 11.3999C21.1998 11.4024 21.1998 11.4049 21.1998 11.4073C21.1998 11.4098 21.1998 11.4123 21.1998 11.4148C21.1998 11.4173 21.1998 11.4198 21.1998 11.4223C21.1998 11.4248 21.1998 11.4273 21.1998 11.4298C21.1998 11.4323 21.1998 11.4348 21.1998 11.4373C21.1998 11.4398 21.1998 11.4423 21.1998 11.4448C21.1998 11.4473 21.1998 11.4498 21.1998 11.4523C21.1998 11.4549 21.1998 11.4574 21.1998 11.4599C21.1998 11.4624 21.1998 11.465 21.1998 11.4675C21.1998 11.47 21.1998 11.4726 21.1998 11.4751C21.1998 11.4776 21.1998 11.4802 21.1998 11.4827C21.1998 11.4853 21.1998 11.4878 21.1998 11.4904C21.1998 11.4929 21.1998 11.4955 21.1998 11.498C21.1998 11.5006 21.1998 11.5031 21.1998 11.5057C21.1998 11.5082 21.1998 11.5108 21.1998 11.5134C21.1998 11.5159 21.1998 11.5185 21.1998 11.5211C21.1998 11.5237 21.1998 11.5262 21.1998 11.5288C21.1998 11.5314 21.1998 11.534 21.1998 11.5365C21.1998 11.5391 21.1998 11.5417 21.1998 11.5443C21.1998 11.5469 21.1998 11.5495 21.1998 11.5521C21.1998 11.5547 21.1998 11.5573 21.1998 11.5599C21.1998 11.5625 21.1998 11.5651 21.1998 11.5677C21.1998 11.5703 21.1998 11.5729 21.1998 11.5755C21.1998 11.5781 21.1998 11.5807 21.1998 11.5833C21.1998 11.586 21.1998 11.5886 21.1998 11.5912C21.1998 11.5938 21.1998 11.5964 21.1998 11.5991C21.1998 11.6017 21.1998 11.6043 21.1998 11.6069C21.1998 11.6096 21.1998 11.6122 21.1998 11.6148C21.1998 11.6175 21.1998 11.6201 21.1998 11.6228C21.1998 11.6254 21.1998 11.6281 21.1998 11.6307C21.1998 11.6333 21.1998 11.636 21.1998 11.6386C21.1998 11.6413 21.1998 11.6439 21.1998 11.6466C21.1998 11.6493 21.1998 11.6519 21.1998 11.6546C21.1998 11.6572 21.1998 11.6599 21.1998 11.6626C21.1998 11.6652 21.1998 11.6679 21.1998 11.6706C21.1998 11.6732 21.1998 11.6759 21.1998 11.6786C21.1998 11.6813 21.1998 11.6839 21.1998 11.6866C21.1998 11.6893 21.1998 11.692 21.1998 11.6947C21.1998 11.6974 21.1998 11.7 21.1998 11.7027C21.1998 11.7054 21.1998 11.7081 21.1998 11.7108C21.1998 11.7135 21.1998 11.7162 21.1998 11.7189C21.1998 11.7216 21.1998 11.7243 21.1998 11.727C21.1998 11.7297 21.1998 11.7324 21.1998 11.7351C21.1998 11.7378 21.1998 11.7405 21.1998 11.7432C21.1998 11.746 21.1998 11.7487 21.1998 11.7514C21.1998 11.7541 21.1998 11.7568 21.1998 11.7595C21.1998 11.7623 21.1998 11.765 21.1998 11.7677C21.1998 11.7704 21.1998 11.7732 21.1998 11.7759C21.1998 11.7786 21.1998 11.7813 21.1998 11.7841C21.1998 11.7868 21.1998 11.7895 21.1998 11.7923C21.1998 11.795 21.1998 11.7977 21.1998 11.8005C21.1998 11.8032 21.1998 11.806 21.1998 11.8087C21.1998 11.8115 21.1998 11.8142 21.1998 11.817C21.1998 11.8197 21.1998 11.8225 21.1998 11.8252C21.1998 11.828 21.1998 11.8307 21.1998 11.8335C21.1998 11.8362 21.1998 11.839 21.1998 11.8417C21.1998 11.8445 21.1998 11.8473 21.1998 11.85C21.1998 11.8528 21.1998 11.8556 21.1998 11.8583C21.1998 11.8611 21.1998 11.8639 21.1998 11.8666C21.1998 11.8694 21.1998 11.8722 21.1998 11.8749C21.1998 11.8777 21.1998 11.8805 21.1998 11.8833C21.1998 11.886 21.1998 11.8888 21.1998 11.8916C21.1998 11.8944 21.1998 11.8972 21.1998 11.9C21.1998 11.9027 21.1998 11.9055 21.1998 11.9083C21.1998 11.9111 21.1998 11.9139 21.1998 11.9167C21.1998 11.9195 21.1998 11.9223 21.1998 11.9251C21.1998 11.9279 21.1998 11.9307 21.1998 11.9335C21.1998 11.9362 21.1998 11.939 21.1998 11.9418C21.1998 11.9447 21.1998 11.9475 21.1998 11.9503C21.1998 11.9531 21.1998 11.9559 21.1998 11.9587C21.1998 11.9615 21.1998 11.9643 21.1998 11.9671C21.1998 11.9699 21.1998 11.9727 21.1998 11.9755C21.1998 11.9783 21.1998 11.9812 21.1998 11.984C21.1998 11.9868 21.1998 11.9896 21.1998 11.9924C21.1998 11.9953 21.1998 11.9981 21.1998 12.0009C21.1998 12.0037 21.1998 12.0065 21.1998 12.0094C21.1998 12.0122 21.1998 12.015 21.1998 12.0178C21.1998 12.0207 21.1998 12.0235 21.1998 12.0263C21.1998 12.0292 21.1998 12.032 21.1998 12.0348C21.1998 12.0377 21.1998 12.0405 21.1998 12.0433C21.1998 12.0462 21.1998 12.049 21.1998 12.0518C21.1998 12.0547 21.1998 12.0575 21.1998 12.0604C21.1998 12.0632 21.1998 12.066 21.1998 12.0689C21.1998 12.0717 21.1998 12.0746 21.1998 12.0774C21.1998 12.0803 21.1998 12.0831 21.1998 12.0859C21.1998 12.0888 21.1998 12.0916 21.1998 12.0945C21.1998 12.0973 21.1998 12.1002 21.1998 12.103C21.1998 12.1059 21.1998 12.1088 21.1998 12.1116C21.1998 12.1145 21.1998 12.1173 21.1998 12.1202C21.1998 12.123 21.1998 12.1259 21.1998 12.1287C21.1998 12.1316 21.1998 12.1345 21.1998 12.1373C21.1998 12.1402 21.1998 12.1431 21.1998 12.1459C21.1998 12.1488 21.1998 12.1516 21.1998 12.1545C21.1998 12.1574 21.1998 12.1602 21.1998 12.1631C21.1998 12.166 21.1998 12.1688 21.1998 12.1717C21.1998 12.1746 21.1998 12.1774 21.1998 12.1803C21.1998 12.1832 21.1998 12.1861 21.1998 12.1889C21.1998 12.1918 21.1998 12.1947 21.1998 12.1975C21.1998 12.2004 21.1998 12.2033 21.1998 12.2062C21.1998 12.209 21.1998 12.2119 21.1998 12.2148C21.1998 12.2177 21.1998 12.2206 21.1998 12.2234C21.1998 12.2263 21.1998 12.2292 21.1998 12.2321C21.1998 12.235 21.1998 12.2378 21.1998 12.2407C21.1998 12.2436 21.1998 12.2465 21.1998 12.2494C21.1998 12.2523 21.1998 12.2551 21.1998 12.258C21.1998 12.2609 21.1998 12.2638 21.1998 12.2667C21.1998 12.2696 21.1998 12.2724 21.1998 12.2753C21.1998 12.2782 21.1998 12.2811 21.1998 12.284C21.1998 12.2869 21.1998 12.2898 21.1998 12.2927C21.1998 12.2956 21.1998 12.2985 21.1998 12.3013C21.1998 12.3042 21.1998 12.3071 21.1998 12.31C21.1998 12.3129 21.1998 12.3158 21.1998 12.3187C21.1998 12.3216 21.1998 12.3245 21.1998 12.3274C21.1998 12.3303 21.1998 12.3332 21.1998 12.3361C21.1998 12.339 21.1998 12.3419 21.1998 12.3447C21.1998 12.3476 21.1998 12.3505 21.1998 12.3534C21.1998 12.3563 21.1998 12.3592 21.1998 12.3621C21.1998 12.365 21.1998 12.3679 21.1998 12.3708C21.1998 12.3737 21.1998 12.3766 21.1998 12.3795C21.1998 12.3824 21.1998 12.3853 21.1998 12.3882C21.1998 12.3911 21.1998 12.394 21.1998 12.3969C21.1998 12.3998 21.1998 12.4027 21.1998 12.4056C21.1998 12.4085 21.1998 12.4114 21.1998 12.4143C21.1998 12.4172 21.1998 12.4201 21.1998 12.423C21.1998 12.4259 21.1998 12.4288 21.1998 12.4317C21.1998 12.4346 21.1998 12.4376 21.1998 12.4405C21.1998 12.4434 21.1998 12.4463 21.1998 12.4492C21.1998 12.4521 21.1998 12.455 21.1998 12.4579C21.1998 12.4608 21.1998 12.4637 21.1998 12.4666C21.1998 12.4695 21.1998 12.4724 21.1998 12.4753C21.1998 12.4782 21.1998 12.4811 21.1998 12.484C21.1998 12.4869 21.1998 12.4898 21.1998 12.4927C21.1998 12.4956 21.1998 12.4985 21.1998 12.5014C21.1998 12.5043 21.1998 12.5072 21.1998 12.5102C21.1998 12.5131 21.1998 12.516 21.1998 12.5189C21.1998 12.5218 21.1998 12.5247 21.1998 12.5276C21.1998 12.5305 21.1998 12.5334 21.1998 12.5363C21.1998 12.5392 21.1998 12.5421 21.1998 12.545C21.1998 12.5479 21.1998 12.5508 21.1998 12.5537C21.1998 12.5566 21.1998 12.5595 21.1998 12.5624C21.1998 12.5653 21.1998 12.5682 21.1998 12.5711C21.1998 12.574 21.1998 12.5769 21.1998 12.5799C21.1998 12.5828 21.1998 12.5857 21.1998 12.5886C21.1998 12.5915 21.1998 12.5944 21.1998 12.5973C21.1998 12.6002 21.1998 12.6031 21.1998 12.606C21.1998 12.6089 21.1998 12.6118 21.1998 12.6147C21.1998 12.6176 21.1998 12.6205 21.1998 12.6234C21.1998 12.6263 21.1998 12.6292 21.1998 12.6321C21.1998 12.635 21.1998 12.6379 21.1998 12.6408C21.1998 12.6437 21.1998 12.6466 21.1998 12.6495C21.1998 12.6524 21.1998 12.6553 21.1998 12.6582C21.1998 12.6611 21.1998 12.664 21.1998 12.6669C21.1998 12.6698 21.1998 12.6726 21.1998 12.6755C21.1998 12.6784 21.1998 12.6813 21.1998 12.6842C21.1998 12.6871 21.1998 12.69 21.1998 12.6929C21.1998 12.6958 21.1998 12.6987 21.1998 12.7016C21.1998 12.7045 21.1998 12.7074 21.1998 12.7103C21.1998 12.7132 21.1998 12.7161 21.1998 12.7189C21.1998 12.7218 21.1998 12.7247 21.1998 12.7276C21.1998 12.7305 21.1998 12.7334 21.1998 12.7363C21.1998 12.7392 21.1998 12.7421 21.1998 12.7449C21.1998 12.7478 21.1998 12.7507 21.1998 12.7536C21.1998 12.7565 21.1998 12.7594 21.1998 12.7623C21.1998 12.7651 21.1998 12.768 21.1998 12.7709C21.1998 12.7738 21.1998 12.7767 21.1998 12.7795C21.1998 12.7824 21.1998 12.7853 21.1998 12.7882C21.1998 12.7911 21.1998 12.7939 21.1998 12.7968C21.1998 12.7997 21.1998 12.8026 21.1998 12.8055C21.1998 12.8083 21.1998 12.8112 21.1998 12.8141C21.1998 12.817 21.1998 12.8198 21.1998 12.8227C21.1998 12.8256 21.1998 12.8284 21.1998 12.8313C21.1998 12.8342 21.1998 12.8371 21.1998 12.8399C21.1998 12.8428 21.1998 12.8457 21.1998 12.8485C21.1998 12.8514 21.1998 12.8543 21.1998 12.8571C21.1998 12.86 21.1998 12.8629 21.1998 12.8657C21.1998 12.8686 21.1998 12.8715 21.1998 12.8743C21.1998 12.8772 21.1998 12.88 21.1998 12.8829C21.1998 12.8858 21.1998 12.8886 21.1998 12.8915C21.1998 12.8943 21.1998 12.8972 21.1998 12.9C21.1998 12.9029 21.1998 12.9058 21.1998 12.9086C21.1998 12.9115 21.1998 12.9143 21.1998 12.9172C21.1998 12.92 21.1998 12.9229 21.1998 12.9257C21.1998 12.9286 21.1998 12.9314 21.1998 12.9343C21.1998 12.9371 21.1998 12.9399 21.1998 12.9428C21.1998 12.9456 21.1998 12.9485 21.1998 12.9513C21.1998 12.9542 21.1998 12.957 21.1998 12.9598C21.1998 12.9627 21.1998 12.9655 21.1998 12.9683C21.1998 12.9712 21.1998 12.974 21.1998 12.9769C21.1998 12.9797 21.1998 12.9825 21.1998 12.9853C21.1998 12.9882 21.1998 12.991 21.1998 12.9938C21.1998 12.9967 21.1998 12.9995 21.1998 13.0023C21.1998 13.0051 21.1998 13.008 21.1998 13.0108C21.1998 13.0136 21.1998 13.0164 21.1998 13.0193C21.1998 13.0221 21.1998 13.0249 21.1998 13.0277C21.1998 13.0305 21.1998 13.0333 21.1998 13.0362C21.1998 13.039 21.1998 13.0418 21.1998 13.0446C21.1998 13.0474 21.1998 13.0502 21.1998 13.053C21.1998 13.0558 21.1998 13.0586 21.1998 13.0614C21.1998 13.0643 21.1998 13.0671 21.1998 13.0699C21.1998 13.0727 21.1998 13.0755 21.1998 13.0783C21.1998 13.0811 21.1998 13.0839 21.1998 13.0867C21.1998 13.0894 21.1998 13.0922 21.1998 13.095C21.1998 13.0978 21.1998 13.1006 21.1998 13.1034C21.1998 13.1062 21.1998 13.109 21.1998 13.1118C21.1998 13.1146 21.1998 13.1173 21.1998 13.1201C21.1998 13.1229 21.1998 13.1257 21.1998 13.1285C21.1998 13.1312 21.1998 13.134 21.1998 13.1368C21.1998 13.1396 21.1998 13.1423 21.1998 13.1451C21.1998 13.1479 21.1998 13.1507 21.1998 13.1534C21.1998 13.1562 21.1998 13.159 21.1998 13.1617C21.1998 13.1645 21.1998 13.1673 21.1998 13.17C21.1998 13.1728 21.1998 13.1755 21.1998 13.1783C21.1998 13.181 21.1998 13.1838 21.1998 13.1866C21.1998 13.1893 21.1998 13.1921 21.1998 13.1948C21.1998 13.1976 21.1998 13.2003 21.1998 13.2031C21.1998 13.2058 21.1998 13.2085 21.1998 13.2113C21.1998 13.214 21.1998 13.2168 21.1998 13.2195C21.1998 13.2222 21.1998 13.225 21.1998 13.2277C21.1998 13.2304 21.1998 13.2332 21.1998 13.2359C21.1998 13.2386 21.1998 13.2414 21.1998 13.2441C21.1998 13.2468 21.1998 13.2495 21.1998 13.2523C21.1998 13.255 21.1998 13.2577 21.1998 13.2604C21.1998 13.2631 21.1998 13.2659 21.1998 13.2686C21.1998 13.2713 21.1998 13.274 21.1998 13.2767C21.1998 13.2794 21.1998 13.2821 21.1998 13.2848C21.1998 13.2875 21.1998 13.2902 21.1998 13.2929C21.1998 13.2956 21.1998 13.2983 21.1998 13.301C21.1998 13.3037 21.1998 13.3064 21.1998 13.3091C21.1998 13.3118 21.1998 13.3145 21.1998 13.3172C21.1998 13.3198 21.1998 13.3225 21.1998 13.3252C21.1998 13.3279 21.1998 13.3306 21.1998 13.3333C21.1998 13.3359 21.1998 13.3386 21.1998 13.3413C21.1998 13.3439 21.1998 13.3466 21.1998 13.3493C21.1998 13.352 21.1998 13.3546 21.1998 13.3573C21.1998 13.3599 21.1998 13.3626 21.1998 13.3653C21.1998 13.3679 21.1998 13.3706 21.1998 13.3732C21.1998 13.3759 21.1998 13.3785 21.1998 13.3812C21.1998 13.3838 21.1998 13.3865 21.1998 13.3891C21.1998 13.3918 21.1998 13.3944 21.1998 13.397C21.1998 13.3997 21.1998 13.4023 21.1998 13.4049C21.1998 13.4076 21.1998 13.4102 21.1998 13.4128C21.1998 13.4155 21.1998 13.4181 21.1998 13.4207C21.1998 13.4233 21.1998 13.426 21.1998 13.4286C21.1998 13.4312 21.1998 13.4338 21.1998 13.4364C21.1998 13.439 21.1998 13.4416 21.1998 13.4442C21.1998 13.4469 21.1998 13.4495 21.1998 13.4521C21.1998 13.4547 21.1998 13.4573 21.1998 13.4599C21.1998 13.4625 21.1998 13.465 21.1998 13.4676C21.1998 13.4702 21.1998 13.4728 21.1998 13.4754C21.1998 13.478 21.1998 13.4806 21.1998 13.4831C21.1998 13.4857 21.1998 13.4883 21.1998 13.4909C21.1998 13.4935 21.1998 13.496 21.1998 13.4986C21.1998 13.5012 21.1998 13.5037 21.1998 13.5063C21.1998 13.5088 21.1998 13.5114 21.1998 13.514C21.1998 13.5165 21.1998 13.5191 21.1998 13.5216C21.1998 13.5242 21.1998 13.5267 21.1998 13.5293C21.1998 13.5318 21.1998 13.5344 21.1998 13.5369C21.1998 13.5394 21.1998 13.542 21.1998 13.5445C21.1998 13.547 21.1998 13.5496 21.1998 13.5521C21.1998 13.5546 21.1998 13.5571 21.1998 13.5597C21.1998 13.5622 21.1998 13.5647 21.1998 13.5672C21.1998 13.5697 21.1998 13.5723 21.1998 13.5748C21.1998 13.5773 21.1998 13.5798 21.1998 13.5823C21.1998 13.5848 21.1998 13.5873 21.1998 13.5898C21.1998 13.5923 21.1998 13.5948 21.1998 13.5973C21.1998 13.5997 21.1998 13.6022 21.1998 13.6047C21.1998 13.6072 21.1998 13.6097 21.1998 13.6122C21.1998 13.6146 21.1998 13.6171 21.1998 13.6196C21.1998 13.6221 21.1998 13.6245 21.1998 13.627C21.1998 13.6295 21.1998 13.6319 21.1998 13.6344C21.1998 13.6368 21.1998 13.6393 21.1998 13.6417C21.1998 13.6442 21.1998 13.6466 21.1998 13.6491C21.1998 13.6515 21.1998 13.654 21.1998 13.6564C21.1998 13.6588 21.1998 13.6613 21.1998 13.6637C21.1998 13.6661 21.1998 13.6686 21.1998 13.671C21.1998 13.6734 21.1998 13.6758 21.1998 13.6783C21.1998 13.6807 21.1998 13.6831 21.1998 13.6855C21.1998 13.6879 21.1998 13.6903 21.1998 13.6927C21.1998 13.6951 21.1998 13.6975 21.1998 13.6999C21.1998 13.7023 21.1998 13.7047 21.1998 13.7071C21.1998 13.7095 21.1998 13.7119 21.1998 13.7143C21.1998 13.7167 21.1998 13.719 21.1998 13.7214C21.1998 13.7238 21.1998 13.7262 21.1998 13.7285C21.1998 13.7309 21.1998 13.7333 21.1998 13.7356C21.1998 13.738 21.1998 13.7403 21.1998 13.7427C21.1998 13.7451 21.1998 13.7474 21.1998 13.7497C21.1998 13.7521 21.1998 13.7544 21.1998 13.7568C21.1998 13.7591 21.1998 13.7615 21.1998 13.7638C21.1998 13.7661 21.1998 13.7684 21.1998 13.7708C21.1998 13.7731 21.1998 13.7754 21.1998 13.7777C21.1998 13.7801 21.1998 13.7824 21.1998 13.7847C21.1998 13.787 21.1998 13.7893 21.1998 13.7916C21.1998 13.7939 21.1998 13.7962 21.1998 13.7985C21.1998 13.8008 21.1998 13.8031 21.1998 13.8054C21.1998 13.8077 21.1998 13.8099 21.1998 13.8122C21.1998 13.8145 21.1998 13.8168 21.1998 13.819C21.1998 13.8213 21.1998 13.8236 21.1998 13.8258C21.1998 13.8281 21.1998 13.8304 21.1998 13.8326H23.1998ZM22.647 9.5932L21.257 8.89818L20.3626 10.687L21.7526 11.3821L22.647 9.5932ZM18.0371 10.687C18.769 10.321 19.6306 10.321 20.3626 10.687L21.257 8.89818C19.962 8.25067 18.4377 8.25067 17.1427 8.89818L18.0371 10.687Z" fill="black"/>
</svg>
