<svg width="20" height="22" viewBox="0 0 20 22" fill="none" xmlns="http://www.w3.org/2000/svg">
<path id="cloud-02-icon" d="M3.4 16.9999H9.4M8.2 20.5999H14.2M14.2 16.9999H17.8M19 7.3999C19 10.7136 16.3137 13.3999 13 13.3999C11.5438 13.3999 9.4 13.3999 9.4 13.3999C9.4 13.3999 7.11306 13.3999 5.8 13.3999C3.14903 13.3999 1 11.2509 1 8.5999C1 5.94894 3.14903 3.7999 5.8 3.7999C6.54469 3.7999 7.24977 3.96949 7.87873 4.27214C8.9331 2.54943 10.8323 1.3999 13 1.3999C16.3137 1.3999 19 4.08619 19 7.3999Z" stroke="black" stroke-width="2" stroke-linecap="round" stroke-linejoin="round"/>
</svg>
