<svg width="22" height="22" viewBox="0 0 22 22" fill="none" xmlns="http://www.w3.org/2000/svg">
<path id="color-swatch-02-icon" d="M16.3332 20.5999C15.2016 20.5999 14.1164 20.1504 13.3162 19.3502C12.5161 18.5501 12.0666 17.4648 12.0666 16.3332V3.53324C12.0666 2.96744 12.2913 2.42482 12.6914 2.02474C13.0915 1.62466 13.6341 1.3999 14.1999 1.3999H18.4666C19.0324 1.3999 19.575 1.62466 19.9751 2.02474C20.3751 2.42482 20.5999 2.96744 20.5999 3.53324V16.3332C20.5999 17.4648 20.1504 18.5501 19.3502 19.3502C18.5501 20.1504 17.4648 20.5999 16.3332 20.5999ZM16.3332 20.5999H3.53324C2.96744 20.5999 2.42482 20.3751 2.02474 19.9751C1.62466 19.575 1.3999 19.0324 1.3999 18.4666V14.1999C1.3999 13.6341 1.62466 13.0915 2.02474 12.6914C2.42482 12.2913 2.96744 12.0666 3.53324 12.0666H5.98657M12.0666 6.0399L9.93323 3.90657C9.53318 3.50663 8.99065 3.28196 8.42497 3.28196C7.85928 3.28196 7.31676 3.50663 6.9167 3.90657L3.90017 6.9231C3.50023 7.32316 3.27556 7.86568 3.27556 8.43137C3.27556 8.99705 3.50023 9.53957 3.90017 9.93963L13.5002 19.5396M16.3332 16.3332V16.3439" stroke="black" stroke-width="2" stroke-linecap="round" stroke-linejoin="round"/>
</svg>
