<svg width="14" height="20" viewBox="0 0 14 20" fill="none" xmlns="http://www.w3.org/2000/svg">
<path id="currency-bitcoin-icon" d="M1.5 4H9.5C10.2956 4 11.0587 4.31607 11.6213 4.87868C12.1839 5.44129 12.5 6.20435 12.5 7C12.5 7.79565 12.1839 8.55871 11.6213 9.12132C11.0587 9.68393 10.2956 10 9.5 10M9.5 10C10.2956 10 11.0587 10.3161 11.6213 10.8787C12.1839 11.4413 12.5 12.2044 12.5 13C12.5 13.7956 12.1839 14.5587 11.6213 15.1213C11.0587 15.6839 10.2956 16 9.5 16H1.5M9.5 10H3.5M3.5 4V16M4.5 1V4M8.5 1V4M4.5 16V19M8.5 16V19" stroke="black" stroke-width="2" stroke-linecap="round" stroke-linejoin="round"/>
</svg>
