<svg width="10" height="18" viewBox="0 0 10 18" fill="none" xmlns="http://www.w3.org/2000/svg">
<path id="currency-bath-icon" d="M4 1V3M4 15V17M1 3H6C6.79565 3 7.55871 3.31607 8.12132 3.87868C8.68393 4.44129 9 5.20435 9 6V6.143C9 6.90072 8.699 7.62741 8.1632 8.1632C7.62741 8.699 6.90072 9 6.143 9H1H6C6.79565 9 7.55871 9.31607 8.12132 9.87868C8.68393 10.4413 9 11.2044 9 12V12.143C9 12.9007 8.699 13.6274 8.1632 14.1632C7.62741 14.699 6.90072 15 6.143 15H1V3Z" stroke="black" stroke-width="2" stroke-linecap="round" stroke-linejoin="round"/>
</svg>
