<svg width="22" height="22" viewBox="0 0 22 22" fill="none" xmlns="http://www.w3.org/2000/svg">
<path id="currency-coin-rupee-icon" d="M14.5999 6.7999H7.3999H9.36354C10.0579 6.7999 10.7239 7.08888 11.2149 7.60327C11.7059 8.11765 11.9817 8.81531 11.9817 9.54276C11.9817 10.2702 11.7059 10.9679 11.2149 11.4823C10.7239 11.9966 10.0579 12.2856 9.36354 12.2856H7.3999L11.3272 16.3999M7.3999 9.54276H14.5999M20.5999 10.9999C20.5999 16.3018 16.3018 20.5999 10.9999 20.5999C5.69797 20.5999 1.3999 16.3018 1.3999 10.9999C1.3999 5.69797 5.69797 1.3999 10.9999 1.3999C16.3018 1.3999 20.5999 5.69797 20.5999 10.9999Z" stroke="black" stroke-width="2" stroke-linecap="round" stroke-linejoin="round"/>
</svg>
