<svg width="22" height="22" viewBox="0 0 22 22" fill="none" xmlns="http://www.w3.org/2000/svg">
<path id="currency-coin-euro-icon" d="M13.9999 7.62321C13.4188 6.95901 12.6826 6.50973 11.8836 6.33171C11.0846 6.15369 10.2583 6.25485 9.50833 6.6225C8.75837 6.99016 8.11815 7.60795 7.66793 8.3984C7.21772 9.18885 6.97755 10.1168 6.97755 11.0658C6.97755 12.0149 7.21772 12.9428 7.66793 13.7333C8.11815 14.5237 8.75837 15.1415 9.50833 15.5092C10.2583 15.8768 11.0846 15.978 11.8836 15.8C12.6826 15.6219 13.4188 15.1727 13.9999 14.5085M11.1081 9.68878H5.5999M5.5999 12.4429H11.1081M20.5999 10.9999C20.5999 16.3018 16.3018 20.5999 10.9999 20.5999C5.69797 20.5999 1.3999 16.3018 1.3999 10.9999C1.3999 5.69797 5.69797 1.3999 10.9999 1.3999C16.3018 1.3999 20.5999 5.69797 20.5999 10.9999Z" stroke="black" stroke-width="2" stroke-linecap="round" stroke-linejoin="round"/>
</svg>
