<svg width="22" height="22" viewBox="0 0 22 22" fill="none" xmlns="http://www.w3.org/2000/svg">
<path id="data-03-icon" d="M16.7601 3.32002C16.7601 4.38041 17.6197 5.24002 18.6801 5.24002C19.7405 5.24002 20.6001 4.38041 20.6001 3.32002C20.6001 2.25964 19.7405 1.40003 18.6801 1.40003C17.6197 1.40003 16.7601 2.25964 16.7601 3.32002ZM16.7601 3.32002H5.59966M16.7601 18.68C16.7601 19.7404 17.6197 20.6 18.6801 20.6C19.7405 20.6 20.6001 19.7404 20.6001 18.68C20.6001 17.6196 19.7405 16.76 18.6801 16.76C17.6197 16.76 16.7601 17.6196 16.7601 18.68ZM16.7601 18.68H11.2401C10.7099 18.68 10.2801 18.2502 10.2801 17.72V4.28002M16.4001 11H10.4001M20.6001 11C20.6001 12.0604 19.7405 12.92 18.6801 12.92C17.6197 12.92 16.7601 12.0604 16.7601 11C16.7601 9.93964 17.6197 9.08002 18.6801 9.08002C19.7405 9.08002 20.6001 9.93964 20.6001 11ZM5.23966 3.32002C5.23966 4.38041 4.38005 5.24002 3.31966 5.24002C2.25927 5.24002 1.39966 4.38041 1.39966 3.32002C1.39966 2.25964 2.25927 1.40002 3.31966 1.40002C4.38005 1.40002 5.23966 2.25964 5.23966 3.32002Z" stroke="black" stroke-width="2" stroke-linecap="round"/>
</svg>
