<svg width="22" height="22" viewBox="0 0 22 22" fill="none" xmlns="http://www.w3.org/2000/svg">
<path id="discount-star-01-icon" d="M7.3999 14.5999L14.5999 7.3999M7.9538 7.94924L7.93965 7.93495M14.0643 14.1226L14.0502 14.1083M6.92276 3.38723L5.90485 3.44922C4.58341 3.5297 3.5297 4.58342 3.44922 5.90485L3.38723 6.92276C3.35167 7.50667 3.12169 8.06187 2.73395 8.4999L2.05802 9.26351C1.18053 10.2548 1.18053 11.745 2.05802 12.7363L2.73395 13.4999C3.12169 13.9379 3.35167 14.4931 3.38723 15.077L3.44922 16.0949C3.5297 17.4164 4.58342 18.4701 5.90485 18.5506L6.92276 18.6126C7.50667 18.6481 8.06187 18.8781 8.4999 19.2658L9.26351 19.9418C10.2548 20.8193 11.745 20.8193 12.7363 19.9418L13.4999 19.2658C13.9379 18.8781 14.4931 18.6481 15.077 18.6126L16.0949 18.5506C17.4164 18.4701 18.4701 17.4164 18.5506 16.0949L18.6126 15.077C18.6481 14.4931 18.8781 13.9379 19.2658 13.4999L19.9418 12.7363C20.8193 11.745 20.8193 10.2548 19.9418 9.26351L19.2658 8.4999C18.8781 8.06187 18.6481 7.50667 18.6126 6.92276L18.5506 5.90485C18.4701 4.58341 17.4164 3.5297 16.0949 3.44922L15.077 3.38723C14.4931 3.35167 13.9379 3.12169 13.4999 2.73395L12.7363 2.05802C11.745 1.18053 10.2548 1.18053 9.26351 2.05802L8.4999 2.73395C8.06187 3.12169 7.50667 3.35167 6.92276 3.38723Z" stroke="black" stroke-width="2" stroke-linecap="round"/>
</svg>
