<svg width="22" height="20" viewBox="0 0 22 20" fill="none" xmlns="http://www.w3.org/2000/svg">
<path id="download-icon" d="M7.01562 13.784H4.21429C2.43908 13.784 1 12.5585 1 10.7614C1 8.9644 2.43908 7.50762 4.21429 7.50762C4.335 7.50762 4.45417 7.51436 4.57143 7.52748V7.50762H4.61564C4.58646 7.27074 4.57143 7.02942 4.57143 6.78455C4.57143 3.58983 7.1298 1 10.2857 1C12.4228 1 14.2859 2.1876 15.2661 3.94642C15.5056 3.91075 15.7507 3.89227 16 3.89227C18.7614 3.89227 21 6.15838 21 8.95375C21 11.5036 19.1374 13.3819 16.7143 13.7328H14.125M10.6429 7.86915V19M10.6429 19L8.10937 16.5008M10.6429 19L13.1094 16.5008" stroke="black" stroke-width="2" stroke-linecap="round" stroke-linejoin="round"/>
</svg>
