<svg width="22" height="22" viewBox="0 0 22 22" fill="none" xmlns="http://www.w3.org/2000/svg">
<path id="file-return-02-icon" d="M9.49985 20.6001H3.49984C2.17436 20.6001 1.09984 19.5256 1.09985 18.2001L1.09995 3.80013C1.09995 2.47466 2.17447 1.40015 3.49995 1.40015H14.3002C15.6257 1.40015 16.7002 2.47466 16.7002 3.80015V8.60015M5.30023 6.20015H12.5002M5.30023 9.80015H12.5002M5.30023 13.4001H8.90023M14.3428 19.4001L11.9002 16.9459M11.9002 16.9459L14.2324 14.6001M11.9002 16.9459H19.1274C20.1065 16.9459 20.9002 16.1521 20.9002 15.173C20.9002 14.1939 20.1065 13.4001 19.1274 13.4001H16.7002" stroke="black" stroke-width="2" stroke-linecap="round" stroke-linejoin="round"/>
</svg>
