<svg width="20" height="22" viewBox="0 0 20 22" fill="none" xmlns="http://www.w3.org/2000/svg">
<path id="file-lock-02-icon" d="M7.6001 20.5999H5.2001C3.21187 20.5999 1.6001 18.9881 1.6001 16.9999V4.9999C1.6001 3.01168 3.21187 1.3999 5.2001 1.3999H13.6001C15.5883 1.3999 17.2001 3.01168 17.2001 4.9999V7.9999M13.0001 13.9999V12.7999C13.0001 11.8058 13.806 10.9999 14.8001 10.9999C15.7942 10.9999 16.6001 11.8058 16.6001 12.7999V14.5999M13.0001 6.1999H5.2001M9.4001 9.7999H5.2001M7.6001 13.3999H5.2001M12.4001 20.5999H17.2001C17.8628 20.5999 18.4001 20.0626 18.4001 19.3999V15.7999C18.4001 15.1372 17.8628 14.5999 17.2001 14.5999H12.4001C11.7374 14.5999 11.2001 15.1372 11.2001 15.7999V19.3999C11.2001 20.0626 11.7374 20.5999 12.4001 20.5999Z" stroke="black" stroke-width="2" stroke-linecap="round" stroke-linejoin="round"/>
</svg>
