<svg width="24" height="24" viewBox="0 0 24 24" fill="none" xmlns="http://www.w3.org/2000/svg">
<path id="fingerpint-01-icon" d="M8.15801 6.50034C7.37399 7.13527 6.74113 7.94094 6.30641 8.85756C5.87168 9.7742 5.64625 10.7783 5.64684 11.7952C5.64997 14.2754 5.08714 16.7227 4.00233 18.946M13.3587 22.7999C14.9614 19.3593 16.0155 13.3495 15.779 11.7952C15.4864 9.87281 14.5653 8.33665 12.3436 8.33665C9.79791 8.33665 9.0222 10.9232 9.0222 12.0222M22.175 18.3062C22.5895 16.1613 22.7988 13.9809 22.7999 11.7952C22.7999 8.98521 21.6982 6.29021 19.7372 4.30322C17.7762 2.31623 15.1165 1.19995 12.3432 1.19995C9.56991 1.19995 6.9102 2.31623 4.94919 4.30322C2.98818 6.29021 1.8865 8.98515 1.8865 11.7952C1.8876 13.1887 1.65546 14.5724 1.19995 15.8873M6.56599 21.2386C7.62591 19.3957 8.37957 17.3888 8.7968 15.2982M18.8152 15.5019C18.967 14.2727 19.042 13.0338 19.0395 11.7949C19.0395 9.99551 18.334 8.2698 17.0782 6.99741C15.8225 5.72506 14.1194 5.01011 12.3436 5.01011C12.0639 5.00816 11.7843 5.02436 11.5066 5.0586M18.1191 19.2072C17.9422 19.8883 17.7415 20.5703 17.5295 21.2386M9.81188 22.2962C11.1456 19.8871 12.3487 15.8951 12.3487 11.8321" stroke="black" stroke-width="2" stroke-linecap="round" stroke-linejoin="round"/>
</svg>
