<svg width="20" height="22" viewBox="0 0 20 22" fill="none" xmlns="http://www.w3.org/2000/svg">
<path id="flash-off-icon" d="M12.1483 17.3205L10.0933 20.3199C9.74048 20.8284 8.91021 20.6001 8.91021 19.9878L8.89984 14.1343C8.89984 13.4597 8.32903 12.9201 7.6233 12.9097L3.4408 12.8578C2.93226 12.8474 2.63129 12.3181 2.91151 11.9134L4.60319 9.45371M6.35714 6.86947L9.90654 1.68028C10.2594 1.17174 11.0897 1.40007 11.0897 2.01239L11.1 7.86581C11.1 8.54041 11.6709 9.08008 12.3766 9.09046L16.5591 9.14233C17.0676 9.15271 17.3686 9.68201 17.0884 10.0868L13.8296 14.8401M18.4001 19.3998L1.6001 2.5998" stroke="black" stroke-width="2" stroke-linecap="round" stroke-linejoin="round"/>
</svg>
