<svg width="22" height="22" viewBox="0 0 22 22" fill="none" xmlns="http://www.w3.org/2000/svg">
<path id="gift-01-icon" d="M11.1744 20.6535V6.68988M9.54945 5.85219C9.72233 5.89098 9.90449 5.84344 10.0289 5.71898C10.1534 5.59452 10.2009 5.41229 10.1622 5.23948C10.007 4.6057 9.43547 2.48346 8.84861 1.89659C8.11745 1.16543 6.92745 1.16239 6.1999 1.88993C5.47241 2.61742 5.47535 3.80742 6.20656 4.53863C6.80303 5.1351 8.91569 5.69705 9.54945 5.85219ZM11.324 5.23943C11.2852 5.4123 11.3328 5.59447 11.4572 5.71893C11.5817 5.84339 11.7639 5.89086 11.9367 5.85214C12.5705 5.69699 14.6928 5.12545 15.2796 4.53858C16.0108 3.80742 16.0138 2.61742 15.2863 1.88988C14.5588 1.16239 13.3688 1.16533 12.6376 1.89654C12.0411 2.49301 11.4792 4.60567 11.324 5.23943ZM2.09808 11.5772H19.9017C20.2873 11.5772 20.5999 11.2646 20.5999 10.879V7.38806C20.5999 7.00247 20.2873 6.68988 19.9017 6.68988H2.09808C1.71249 6.68988 1.3999 7.00247 1.3999 7.38806V10.879C1.3999 11.2646 1.71249 11.5772 2.09808 11.5772ZM18.8544 11.5772V19.9553C18.8544 20.3409 18.5419 20.6535 18.1563 20.6535H3.84354C3.45794 20.6535 3.14536 20.3409 3.14536 19.9553V11.5772H18.8544Z" stroke="black" stroke-width="2" stroke-linecap="round" stroke-linejoin="round"/>
</svg>
