<svg width="18" height="17" viewBox="0 0 18 17" fill="none" xmlns="http://www.w3.org/2000/svg">
<path id="git-branch-04-icon" d="M12.0084 13.5C12.0084 14.8807 13.1258 16 14.5042 16C15.8826 16 17 14.8807 17 13.5C17 12.1193 15.8826 11 14.5042 11C13.1258 11 12.0084 12.1193 12.0084 13.5ZM12.0084 13.5H9.5133C6.21052 13.5 3.53309 10.8181 3.53309 7.5097V6.00126M5.99158 3.5C5.99158 4.88071 4.87418 6 3.49579 6C2.1174 6 1 4.88071 1 3.5C1 2.11929 2.1174 1 3.49579 1C4.87418 1 5.99158 2.11929 5.99158 3.5Z" stroke="black" stroke-width="2" stroke-linecap="round"/>
</svg>
