<svg width="22" height="18" viewBox="0 0 22 18" fill="none" xmlns="http://www.w3.org/2000/svg">
<path id="glasses-02-icon" d="M0.406265 12.9673C0.344062 13.5161 0.738502 14.0114 1.28727 14.0736C1.83604 14.1358 2.33134 13.7413 2.39354 13.1926L0.406265 12.9673ZM2.5199 3.1991L1.8772 2.43298C1.68077 2.59776 1.55514 2.8317 1.52627 3.08647L2.5199 3.1991ZM5.4026 2.08606C5.82572 1.73111 5.88097 1.10036 5.52602 0.677246C5.17107 0.254131 4.54032 0.198875 4.1172 0.553829L5.4026 2.08606ZM19.6063 13.1926C19.6685 13.7413 20.1638 14.1358 20.7125 14.0736C21.2613 14.0114 21.6557 13.5161 21.5935 12.9673L19.6063 13.1926ZM19.4799 3.1991L20.4735 3.08647C20.4447 2.8317 20.319 2.59776 20.1226 2.43298L19.4799 3.1991ZM17.8826 0.553829C17.4595 0.198875 16.8287 0.254131 16.4738 0.677246C16.1188 1.10036 16.1741 1.73111 16.5972 2.08606L17.8826 0.553829ZM7.1199 13.3199C7.1199 14.6233 6.06329 15.6799 4.7599 15.6799V17.6799C7.16786 17.6799 9.1199 15.7279 9.1199 13.3199H7.1199ZM4.7599 15.6799C3.45651 15.6799 2.3999 14.6233 2.3999 13.3199H0.399902C0.399902 15.7279 2.35194 17.6799 4.7599 17.6799V15.6799ZM2.3999 13.3199C2.3999 12.0166 3.45651 10.9599 4.7599 10.9599V8.95995C2.35194 8.95995 0.399902 10.912 0.399902 13.3199H2.3999ZM4.7599 10.9599C6.06329 10.9599 7.1199 12.0166 7.1199 13.3199H9.1199C9.1199 10.912 7.16786 8.95995 4.7599 8.95995V10.9599ZM8.95504 13.1007C9.3646 12.3927 10.1276 11.9199 10.9999 11.9199V9.91995C9.38485 9.91995 7.97618 10.7986 7.22383 12.0992L8.95504 13.1007ZM10.9999 11.9199C11.8722 11.9199 12.6352 12.3927 13.0448 13.1007L14.776 12.0992C14.0237 10.7986 12.615 9.91995 10.9999 9.91995V11.9199ZM19.5999 13.3199C19.5999 14.6233 18.5433 15.6799 17.2399 15.6799V17.6799C19.6479 17.6799 21.5999 15.7279 21.5999 13.3199H19.5999ZM17.2399 15.6799C15.9365 15.6799 14.8799 14.6233 14.8799 13.3199H12.8799C12.8799 15.7279 14.8319 17.6799 17.2399 17.6799V15.6799ZM14.8799 13.3199C14.8799 12.0166 15.9365 10.9599 17.2399 10.9599V8.95995C14.8319 8.95995 12.8799 10.912 12.8799 13.3199H14.8799ZM17.2399 10.9599C18.5433 10.9599 19.5999 12.0166 19.5999 13.3199H21.5999C21.5999 10.912 19.6479 8.95995 17.2399 8.95995V10.9599ZM2.39354 13.1926L3.51354 3.31172L1.52627 3.08647L0.406265 12.9673L2.39354 13.1926ZM3.1626 3.96521L5.4026 2.08606L4.1172 0.553829L1.8772 2.43298L3.1626 3.96521ZM21.5935 12.9673L20.4735 3.08647L18.4863 3.31172L19.6063 13.1926L21.5935 12.9673ZM20.1226 2.43298L17.8826 0.553829L16.5972 2.08606L18.8372 3.96521L20.1226 2.43298Z" fill="black"/>
</svg>
