<svg width="20" height="20" viewBox="0 0 20 20" fill="none" xmlns="http://www.w3.org/2000/svg">
<g id="home-01-icon">
<path d="M1 7.41605C1 7.04666 1.18802 6.7001 1.50457 6.48603L9.30457 1.21117C9.72092 0.929609 10.2791 0.92961 10.6954 1.21117L18.4954 6.48603C18.812 6.7001 19 7.04665 19 7.41605V17.2882C19 18.2336 18.1941 19 17.2 19H2.8C1.80589 19 1 18.2336 1 17.2882V7.41605Z" stroke="black" stroke-width="2"/>
<path d="M12.25 11.125C12.25 12.3676 11.2426 13.375 10 13.375C8.75736 13.375 7.75 12.3676 7.75 11.125C7.75 9.88236 8.75736 8.875 10 8.875C11.2426 8.875 12.25 9.88236 12.25 11.125Z" stroke="black" stroke-width="2"/>
</g>
</svg>
