<svg width="20" height="22" viewBox="0 0 20 22" fill="none" xmlns="http://www.w3.org/2000/svg">
<path id="horizontal-chart-02-icon" d="M1 13.3548H5.17801M1 13.3548L5.1196 13.3537C5.13918 13.3537 5.15866 13.3541 5.17801 13.3548M1 13.3548L1 17.24C1 17.7702 1.53726 18.2 2.2 18.2H5.12C5.78274 18.2 6.32 17.7702 6.32 17.24V14.3137C6.32 13.7991 5.81379 13.3791 5.17801 13.3548M1 13.3548L1 8.50825M5.17801 13.3548H10.776C11.4387 13.3548 11.976 12.925 11.976 12.3948V9.46825C11.976 8.93806 11.4387 8.50825 10.776 8.50825M1 8.50825H10.776M1 8.50825L1 4.76002C1 4.22983 1.53726 3.80002 2.2 3.80002L17.8 3.80002C18.4627 3.80002 19 4.22983 19 4.76002V7.54825C19 8.07844 18.4627 8.50825 17.8 8.50825L10.776 8.50825M1 20.6V1.40002" stroke="black" stroke-width="2" stroke-linecap="round" stroke-linejoin="round"/>
</svg>
