<svg width="16" height="20" viewBox="0 0 16 20" fill="none" xmlns="http://www.w3.org/2000/svg">
<path id="hourglass-03-icon" d="M1 1H15M1 19H15M13.25 1V3.64723C13.25 4.33742 13.012 5.0065 12.5762 5.54167L9.70109 9.07197C9.19217 9.69686 9.20426 10.5794 9.73012 11.1912L12.525 14.4423C12.9928 14.9865 13.25 15.6803 13.25 16.3979V19M2.75 1V3.64723C2.75 4.33742 2.98798 5.0065 3.42383 5.54167L6.29891 9.07197C6.80783 9.69686 6.79574 10.5794 6.26988 11.1912L3.47505 14.4423C3.00724 14.9865 2.75 15.6803 2.75 16.3979V19" stroke="black" stroke-width="2" stroke-linecap="round" stroke-linejoin="round"/>
</svg>
