<svg width="20" height="20" viewBox="0 0 20 20" fill="none" xmlns="http://www.w3.org/2000/svg">
<path id="image-avatar-icon" d="M3.25 17.8749V16.1874C3.25 14.9447 4.25736 13.9374 5.5 13.9374H14.5C15.7426 13.9374 16.75 14.9447 16.75 16.1874V18.4374M3.25 19C2.00736 19 1 17.9396 1 16.6316V3.36842C1 2.06038 2.00736 1 3.25 1H16.75C17.9926 1 19 2.06038 19 3.36842V16.6316C19 17.9396 17.9926 19 16.75 19H3.25ZM12.8125 7.18739C12.8125 8.74069 11.5533 9.99989 10 9.99989C8.4467 9.99989 7.1875 8.74069 7.1875 7.18739C7.1875 5.63409 8.4467 4.37489 10 4.37489C11.5533 4.37489 12.8125 5.63409 12.8125 7.18739Z" stroke="black" stroke-width="2" stroke-linecap="round" stroke-linejoin="round"/>
</svg>
