<svg width="20" height="22" viewBox="0 0 20 22" fill="none" xmlns="http://www.w3.org/2000/svg">
<path id="image-question-icon" d="M4.375 20.125L13.9375 11.125L18.4375 15.625M4.375 20.125H15.625C17.489 20.125 19 18.614 19 16.75V10.5625M4.375 20.125C2.51104 20.125 1 18.614 1 16.75V5.5C1 3.63604 2.51104 2.125 4.375 2.125H10.5625M14.5 3.20113C14.5 1.98548 15.5074 1 16.75 1C17.9926 1 19 1.98548 19 3.20113C19 4.41679 17.9926 5.40227 16.75 5.40227M16.75 8.3971V8.3125M7.75 7.1875C7.75 8.11948 6.99448 8.875 6.0625 8.875C5.13052 8.875 4.375 8.11948 4.375 7.1875C4.375 6.25552 5.13052 5.5 6.0625 5.5C6.99448 5.5 7.75 6.25552 7.75 7.1875Z" stroke="black" stroke-width="2" stroke-linecap="round" stroke-linejoin="round"/>
</svg>
