<svg width="22" height="20" viewBox="0 0 22 20" fill="none" xmlns="http://www.w3.org/2000/svg">
<path id="image-minus-icon" d="M4.69739 18.4999L13.756 9.97417L18.0188 14.237M4.69739 18.4999H15.3545C17.1203 18.4999 18.5517 17.0685 18.5517 15.3027V9.97417M4.69739 18.4999C2.93165 18.4999 1.50024 17.0685 1.50024 15.3027V4.6456C1.50024 2.87987 2.93165 1.44846 4.69739 1.44846H11.6245M14.4717 4.6456H20.5002M7.89453 6.24417C7.89453 7.12704 7.17882 7.84274 6.29596 7.84274C5.41309 7.84274 4.69739 7.12704 4.69739 6.24417C4.69739 5.36131 5.41309 4.6456 6.29596 4.6456C7.17882 4.6456 7.89453 5.36131 7.89453 6.24417Z" stroke="black" stroke-width="2" stroke-linecap="round" stroke-linejoin="round"/>
</svg>
