<svg width="20" height="20" viewBox="0 0 20 20" fill="none" xmlns="http://www.w3.org/2000/svg">
<path id="image-icon" d="M6.68771 10.8273L6.04127 10.0643L6.04126 10.0643L6.68771 10.8273ZM6.73722 10.7799L6.02474 10.0782L6.02396 10.079L6.73722 10.7799ZM4.65437 12.5501L4.00791 11.7872L4.00791 11.7872L4.65437 12.5501ZM4.54298 12.6674L5.36379 13.2386L5.36379 13.2386L4.54298 12.6674ZM15.3367 10.8993L14.6442 11.6207L14.6442 11.6207L15.3367 10.8993ZM13.6013 9.23327L12.9088 9.95466L12.9088 9.95466L13.6013 9.23327ZM12.9569 9.22874L12.2746 8.49768L12.272 8.50006L12.9569 9.22874ZM9.74244 12.2498L10.4248 12.9809L10.4273 12.9785L9.74244 12.2498ZM9.08807 12.2355L8.3721 12.9337L8.37353 12.9351L9.08807 12.2355ZM9.07962 12.2269L8.36298 12.9243L8.36366 12.925L9.07962 12.2269ZM9.03369 12.1823L9.68842 11.4264L9.6884 11.4264L9.03369 12.1823ZM7.46777 10.8259L8.12248 10.0701L8.12248 10.0701L7.46777 10.8259ZM7.42164 10.7811L8.13853 10.084L8.13785 10.0833L7.42164 10.7811ZM7.41339 10.7727L8.1296 10.0748L8.12825 10.0734L7.41339 10.7727ZM6.74612 10.7708L6.03505 10.0677L6.03364 10.0692L6.74612 10.7708ZM14.0496 4.93731V3.93731C13.4973 3.93731 13.0496 4.38503 13.0496 4.93731H14.0496ZM14.3713 4.93731H15.3713C15.3713 4.38503 14.9236 3.93731 14.3713 3.93731V4.93731ZM14.3713 5.20977V6.20977C14.9236 6.20977 15.3713 5.76206 15.3713 5.20977H14.3713ZM14.0496 5.20977H13.0496C13.0496 5.76206 13.4973 6.20977 14.0496 6.20977V5.20977ZM0 4.375V15.625H2V4.375H0ZM4.375 20H15.625V18H4.375V20ZM20 15.625V4.375H18V15.625H20ZM15.625 0H4.375V2H15.625V0ZM20 4.375C20 1.95876 18.0412 0 15.625 0V2C16.9367 2 18 3.06332 18 4.375H20ZM15.625 20C18.0412 20 20 18.0412 20 15.625H18C18 16.9367 16.9367 18 15.625 18V20ZM0 15.625C0 18.0412 1.95876 20 4.375 20V18C3.06332 18 2 16.9367 2 15.625H0ZM2 4.375C2 3.06332 3.06332 2 4.375 2V0C1.95875 0 0 1.95875 0 4.375H2ZM7.33415 11.5903C7.39223 11.541 7.43986 11.4916 7.45049 11.4808L6.02396 10.079C6.01962 10.0834 6.0176 10.0854 6.01591 10.0871C6.01444 10.0886 6.01464 10.0884 6.01587 10.0872C6.01811 10.085 6.02724 10.0762 6.04127 10.0643L7.33415 11.5903ZM5.30082 13.3131L7.33417 11.5902L6.04126 10.0643L4.00791 11.7872L5.30082 13.3131ZM5.36379 13.2386C5.34241 13.2694 5.32337 13.2904 5.3124 13.3017C5.30176 13.3126 5.29614 13.3171 5.30083 13.3131L4.00791 11.7872C3.9379 11.8465 3.8245 11.9492 3.72217 12.0962L5.36379 13.2386ZM5.375 13.2029C5.375 13.2157 5.37106 13.2282 5.36379 13.2386L3.72217 12.0962C3.49692 12.4199 3.375 12.8059 3.375 13.2029H5.375ZM5.375 15.1563V13.2029H3.375V15.1563H5.375ZM4.84375 14.625C5.13715 14.625 5.375 14.8628 5.375 15.1563H3.375C3.375 15.9674 4.03258 16.625 4.84375 16.625V14.625ZM15.1562 14.625H4.84375V16.625H15.1562V14.625ZM14.625 15.1563C14.625 14.8628 14.8629 14.625 15.1562 14.625V16.625C15.9674 16.625 16.625 15.9674 16.625 15.1563H14.625ZM14.625 11.5756V15.1563H16.625V11.5756H14.625ZM14.6442 11.6207C14.6319 11.6089 14.625 11.5926 14.625 11.5756H16.625C16.625 11.048 16.4099 10.5432 16.0293 10.1779L14.6442 11.6207ZM12.9088 9.95466L14.6442 11.6207L16.0293 10.1779L14.2939 8.51189L12.9088 9.95466ZM13.6392 9.9598C13.433 10.1523 13.1123 10.15 12.9088 9.95466L14.2939 8.51189C13.7313 7.9718 12.8447 7.96557 12.2746 8.49769L13.6392 9.9598ZM10.4273 12.9785L13.6417 9.95742L12.272 8.50006L9.05759 11.5212L10.4273 12.9785ZM8.37353 12.9351C8.92635 13.4998 9.83703 13.5294 10.4248 12.9809L9.06012 11.5188C9.27297 11.3201 9.60211 11.3312 9.8026 11.5359L8.37353 12.9351ZM8.36366 12.925L8.3721 12.9337L9.80403 11.5374L9.79559 11.5287L8.36366 12.925ZM8.37897 12.9382C8.36597 12.9269 8.35751 12.9186 8.35545 12.9166C8.35431 12.9155 8.35414 12.9153 8.3555 12.9167C8.35707 12.9183 8.35895 12.9202 8.36298 12.9243L9.79627 11.5294C9.78641 11.5193 9.74213 11.4729 9.68842 11.4264L8.37897 12.9382ZM6.81305 11.5818L8.37898 12.9382L9.6884 11.4264L8.12248 10.0701L6.81305 11.5818ZM6.70476 11.4783C6.71468 11.4885 6.75911 11.5351 6.81305 11.5818L8.12248 10.0701C8.13551 10.0814 8.144 10.0897 8.14608 10.0917C8.14722 10.0928 8.1474 10.093 8.14603 10.0917C8.14446 10.09 8.14258 10.0881 8.13853 10.084L6.70476 11.4783ZM6.69718 11.4706L6.70543 11.479L8.13785 10.0833L8.1296 10.0748L6.69718 11.4706ZM7.45718 11.474C7.24776 11.6858 6.90708 11.6851 6.69853 11.4719L8.12825 10.0734C7.55481 9.48718 6.61094 9.48534 6.03506 10.0677L7.45718 11.474ZM7.4497 11.4816L7.4586 11.4725L6.03364 10.0692L6.02474 10.0782L7.4497 11.4816ZM14.0496 5.93731H14.3713V3.93731H14.0496V5.93731ZM13.3713 4.93731V5.20977H15.3713V4.93731H13.3713ZM14.3713 4.20977H14.0496V6.20977H14.3713V4.20977ZM15.0496 5.20977V4.93731H13.0496V5.20977H15.0496Z" fill="black"/>
</svg>
