<svg width="20" height="20" viewBox="0 0 20 20" fill="none" xmlns="http://www.w3.org/2000/svg">
<path id="image-04-icon" d="M3.10539 14.9179C2.71487 15.3084 2.71487 15.9416 3.10539 16.3321C3.49592 16.7226 4.12908 16.7226 4.51961 16.3321L3.10539 14.9179ZM6.625 12.8125L7.33211 12.1054C6.94158 11.7149 6.30842 11.7149 5.91789 12.1054L6.625 12.8125ZM8.875 15.0625L8.16789 15.7696C8.55842 16.1601 9.19158 16.1601 9.58211 15.7696L8.875 15.0625ZM13.9375 10L14.6446 9.29289C14.2541 8.90237 13.6209 8.90237 13.2304 9.29289L13.9375 10ZM17.1679 14.6446C17.5584 15.0351 18.1916 15.0351 18.5821 14.6446C18.9726 14.2541 18.9726 13.6209 18.5821 13.2304L17.1679 14.6446ZM4.51961 16.3321L7.33211 13.5196L5.91789 12.1054L3.10539 14.9179L4.51961 16.3321ZM5.91789 13.5196L8.16789 15.7696L9.58211 14.3554L7.33211 12.1054L5.91789 13.5196ZM9.58211 15.7696L14.6446 10.7071L13.2304 9.29289L8.16789 14.3554L9.58211 15.7696ZM13.2304 10.7071L17.1679 14.6446L18.5821 13.2304L14.6446 9.29289L13.2304 10.7071ZM10 18C5.58172 18 2 14.4183 2 10H0C0 15.5228 4.47715 20 10 20V18ZM18 10C18 14.4183 14.4183 18 10 18V20C15.5228 20 20 15.5228 20 10H18ZM10 2C14.4183 2 18 5.58172 18 10H20C20 4.47715 15.5228 0 10 0V2ZM10 0C4.47715 0 0 4.47715 0 10H2C2 5.58172 5.58172 2 10 2V0ZM7.875 7.1875C7.875 7.5672 7.5672 7.875 7.1875 7.875V9.875C8.67177 9.875 9.875 8.67177 9.875 7.1875H7.875ZM7.1875 7.875C6.8078 7.875 6.5 7.5672 6.5 7.1875H4.5C4.5 8.67177 5.70323 9.875 7.1875 9.875V7.875ZM6.5 7.1875C6.5 6.8078 6.8078 6.5 7.1875 6.5V4.5C5.70323 4.5 4.5 5.70323 4.5 7.1875H6.5ZM7.1875 6.5C7.5672 6.5 7.875 6.8078 7.875 7.1875H9.875C9.875 5.70323 8.67177 4.5 7.1875 4.5V6.5Z" fill="black"/>
</svg>
