<svg width="22" height="22" viewBox="0 0 22 22" fill="none" xmlns="http://www.w3.org/2000/svg">
<path id="layout-01-icon" d="M8.9999 8.60002C8.9999 8.04774 8.55219 7.60002 7.9999 7.60002C7.44762 7.60002 6.9999 8.04774 6.9999 8.60002H8.9999ZM6.9999 20.6C6.9999 21.1523 7.44762 21.6 7.9999 21.6C8.55219 21.6 8.9999 21.1523 8.9999 20.6H6.9999ZM4.9999 2.40002H16.9999V0.400024H4.9999V2.40002ZM19.5999 5.00002V17H21.5999V5.00002H19.5999ZM16.9999 19.6H4.9999V21.6H16.9999V19.6ZM2.3999 17V5.00002H0.399902V17H2.3999ZM4.9999 19.6C3.56396 19.6 2.3999 18.436 2.3999 17H0.399902C0.399902 19.5405 2.45939 21.6 4.9999 21.6V19.6ZM19.5999 17C19.5999 18.436 18.4358 19.6 16.9999 19.6V21.6C19.5404 21.6 21.5999 19.5405 21.5999 17H19.5999ZM16.9999 2.40002C18.4358 2.40002 19.5999 3.56408 19.5999 5.00002H21.5999C21.5999 2.45951 19.5404 0.400024 16.9999 0.400024V2.40002ZM4.9999 0.400024C2.45939 0.400024 0.399902 2.45951 0.399902 5.00002H2.3999C2.3999 3.56408 3.56396 2.40002 4.9999 2.40002V0.400024ZM6.9999 8.60002V20.6H8.9999V8.60002H6.9999ZM1.9999 9.00002H19.9999V7.00002H1.9999V9.00002Z" fill="black"/>
</svg>
