<svg width="20" height="20" viewBox="0 0 20 20" fill="none" xmlns="http://www.w3.org/2000/svg">
<path id="link-angled-icon" d="M5.37851 8.19075L3.14505 10.4242C2.31092 11.2583 1.83124 12.3933 1.84001 13.5861C1.84877 14.7789 2.31796 15.9208 3.19167 16.7675C4.03836 17.6413 5.18048 18.1104 6.3731 18.1192C7.59293 18.1282 8.70103 17.6755 9.53521 16.8414L11.7687 14.6079M14.6215 11.8097L16.8549 9.57621C17.6891 8.74208 18.1688 7.60711 18.16 6.4143C18.1512 5.22149 17.682 4.0796 16.8083 3.23287C15.9618 2.38638 14.8199 1.91717 13.6271 1.90841C12.4343 1.89964 11.2992 2.35209 10.465 3.18625L8.23153 5.4197M6.6131 13.3274L13.3135 6.62701" stroke="black" stroke-width="2" stroke-linecap="round" stroke-linejoin="round"/>
</svg>
