<svg width="20" height="20" viewBox="0 0 20 20" fill="none" xmlns="http://www.w3.org/2000/svg">
<path id="logout-03-icon" d="M7.35294 14.2001V16.3001C7.35294 16.8571 7.57605 17.3912 7.97319 17.785C8.37032 18.1788 8.90895 18.4001 9.47059 18.4001L16.8824 18.4001C17.444 18.4001 17.9826 18.1788 18.3798 17.785C18.7769 17.3912 19 16.8571 19 16.3001L19 3.7001C19 3.14314 18.7769 2.609 18.3798 2.21517C17.9826 1.82135 17.444 1.6001 16.8824 1.6001L9.47059 1.6001C8.90895 1.6001 8.37032 1.82135 7.97319 2.21517C7.57605 2.609 7.35294 3.14314 7.35294 3.7001V5.8001M13.7059 10.0001L1 10.0001M1 10.0001L4.17647 13.1501M1 10.0001L4.17647 6.8501" stroke="black" stroke-width="2" stroke-linecap="round" stroke-linejoin="round"/>
</svg>
