<svg width="21" height="18" viewBox="0 0 21 18" fill="none" xmlns="http://www.w3.org/2000/svg">
<path id="luggage-03-icon" d="M6.34375 15.7094V5.47863M14.0625 15.7094V11.7308M6.9375 4.91026V2.63675C6.9375 2.00894 7.46916 1.5 8.125 1.5H12.2812C12.9371 1.5 13.4688 2.00894 13.4688 2.63675V4.91026M14.0625 7.75214H11.0938V10.594V11.7308H16.4375V7.75214H14.0625ZM14.0625 7.75214V4.91026M14.0625 4.91026H3.375C2.06332 4.91026 1 5.92814 1 7.18376V14.0043C1 15.2599 2.06332 16.2778 3.375 16.2778H17.625C18.9367 16.2778 20 15.2599 20 14.0043V7.18376C20 5.92814 18.9367 4.91026 17.625 4.91026H14.0625Z" stroke="black" stroke-width="2" stroke-linecap="round" stroke-linejoin="round"/>
</svg>
