<svg width="22" height="22" viewBox="0 0 22 22" fill="none" xmlns="http://www.w3.org/2000/svg">
<path id="media-strip-01-icon" d="M2.0001 6.1999L20.0001 6.1999M2.0001 15.7999L20.0001 15.7999M11.0001 1.3999L11.0001 20.5999M15.8001 1.3999L15.8001 6.1999M15.8001 15.7999L15.8001 20.5999M6.2001 1.3999L6.2001 6.1999M6.2001 15.7999L6.2001 20.5999M4.99999 1.3999L17.0001 1.3999C18.9883 1.39991 20.6001 3.01168 20.6001 4.99991L20.6001 16.9999C20.6001 18.9881 18.9883 20.5999 17.0001 20.5999L4.99999 20.5999C3.01176 20.5999 1.39999 18.9881 1.39999 16.9999L1.39999 4.9999C1.39999 3.01168 3.01176 1.3999 4.99999 1.3999Z" stroke="black" stroke-width="2" stroke-linecap="round" stroke-linejoin="round"/>
</svg>
