<svg width="22" height="22" viewBox="0 0 22 22" fill="none" xmlns="http://www.w3.org/2000/svg">
<path id="moon-02-icon" d="M17.9001 10.7003V7.70034M17.9001 7.70034V4.70034M17.9001 7.70034L20.9001 7.70034M17.9001 7.70034H14.9001M13.1001 4.70034V2.90034M13.1001 2.90034V1.10034M13.1001 2.90034L14.9001 2.90034M13.1001 2.90034L11.3001 2.90034M20.3 13.9398C19.3977 14.2134 18.4404 14.3605 17.4488 14.3605C12.0308 14.3605 7.63863 9.96837 7.63863 4.55037C7.63863 3.55915 7.78564 2.60227 8.05904 1.70034C4.03161 2.92172 1.1001 6.66338 1.1001 11.0897C1.1001 16.5077 5.49226 20.8999 10.9103 20.8999C15.337 20.8999 19.079 17.9678 20.3 13.9398Z" stroke="black" stroke-width="2" stroke-linecap="round" stroke-linejoin="round"/>
</svg>
