<svg width="19" height="22" viewBox="0 0 19 22" fill="none" xmlns="http://www.w3.org/2000/svg">
<path id="paint-bucket-02-icon" d="M15.4133 10.3593C15.427 10.8873 15.2323 11.4197 14.8294 11.8227L9.66838 16.9837C8.88892 17.7631 7.62517 17.7631 6.84571 16.9837L1.68469 11.8227C1.28174 11.4197 1.0871 10.8873 1.10077 10.3593M15.4133 10.3593C15.4017 9.91028 15.2394 9.4644 14.9264 9.10403C14.8902 9.02452 14.8395 8.95004 14.7741 8.88464L8.34785 2.4584M15.4133 10.3593H1.10077M1.10077 10.3593C1.11355 9.866 1.30819 9.3765 1.68469 9C1.81739 8.8673 8.34785 2.4584 8.34785 2.4584M8.34785 2.4584L7.28935 1.3999M2.11062 20.5999H12.7211M17.0496 14.1936C16.9868 14.0944 16.8792 14.0313 16.7626 14.0313C16.6459 14.0313 16.5383 14.0945 16.4755 14.1936C16.2512 14.5632 15.5247 15.8254 15.5247 16.3753C15.5247 17.0604 16.0808 17.6194 16.7626 17.6194C17.4443 17.6194 18.0004 17.0605 18.0004 16.3753C18.0004 15.8164 17.2739 14.5632 17.0496 14.1936Z" stroke="black" stroke-width="2" stroke-linecap="round" stroke-linejoin="round"/>
</svg>
