<svg width="22" height="22" viewBox="0 0 22 22" fill="none" xmlns="http://www.w3.org/2000/svg">
<path id="pen-tool-03-icon" d="M17.331 11.6977C17.5157 11.1772 17.2435 10.6055 16.723 10.4208C16.2025 10.2362 15.6308 10.5084 15.4462 11.0289L17.331 11.6977ZM14.3551 17.0939L15.2976 17.4283L15.2976 17.4283L14.3551 17.0939ZM12.9837 18.2813L13.1798 19.2619L13.1798 19.2619L12.9837 18.2813ZM1.01245 20.6756L0.0283241 20.4981C-0.0304155 20.8239 0.0758306 21.1576 0.312088 21.3894C0.548346 21.6212 0.884003 21.7211 1.20857 21.6562L1.01245 20.6756ZM3.19707 8.56085L4.1812 8.73832L4.1812 8.73832L3.19707 8.56085ZM4.45741 7.13299L4.75568 8.08747L4.75568 8.08747L4.45741 7.13299ZM10.623 6.25393C11.1502 6.08919 11.444 5.52832 11.2792 5.00117C11.1145 4.47403 10.5536 4.18023 10.0265 4.34497L10.623 6.25393ZM0.521909 19.7519C0.131385 20.1424 0.131385 20.7756 0.521909 21.1661C0.912434 21.5566 1.5456 21.5566 1.93612 21.1661L0.521909 19.7519ZM7.13369 15.9686C7.52421 15.578 7.52421 14.9449 7.13369 14.5543C6.74317 14.1638 6.11 14.1638 5.71948 14.5543L7.13369 15.9686ZM19.8536 7.03197L20.5607 6.32486L20.5607 6.32486L19.8536 7.03197ZM19.8536 8.76449L19.1465 8.05738L19.1465 8.05738L19.8536 8.76449ZM12.9235 1.8344L12.2164 1.1273L12.2164 1.1273L12.9235 1.8344ZM14.6561 1.8344L13.949 2.54151L13.949 2.54151L14.6561 1.8344ZM10.7579 5.73258L11.465 5.02547L11.465 5.02547L10.7579 5.73258ZM10.7579 4.00006L11.465 4.70716L11.465 4.70716L10.7579 4.00006ZM15.9555 10.9301L15.2483 11.6373L15.2483 11.6373L15.9555 10.9301ZM17.688 10.9301L18.3951 11.6373L18.3951 11.6373L17.688 10.9301ZM15.4462 11.0289L13.4127 16.7595L15.2976 17.4283L17.331 11.6977L15.4462 11.0289ZM12.7876 17.3008L0.816335 19.695L1.20857 21.6562L13.1798 19.2619L12.7876 17.3008ZM1.99658 20.853L4.1812 8.73832L2.21295 8.38338L0.0283241 20.4981L1.99658 20.853ZM4.75568 8.08747L10.623 6.25393L10.0265 4.34497L4.15913 6.17851L4.75568 8.08747ZM4.1812 8.73832C4.23656 8.43132 4.45793 8.18052 4.75568 8.08747L4.15913 6.17851C3.15044 6.49373 2.40049 7.34337 2.21295 8.38338L4.1812 8.73832ZM13.4127 16.7595C13.3141 17.0374 13.0767 17.2429 12.7876 17.3008L13.1798 19.2619C14.1592 19.066 14.9635 18.3696 15.2976 17.4283L13.4127 16.7595ZM1.93612 21.1661L7.13369 15.9686L5.71948 14.5543L0.521909 19.7519L1.93612 21.1661ZM16.6626 10.223L11.465 5.02547L10.0508 6.43968L15.2483 11.6373L16.6626 10.223ZM11.465 4.70716L13.6306 2.54151L12.2164 1.1273L10.0508 3.29295L11.465 4.70716ZM13.949 2.54151L19.1465 7.73908L20.5607 6.32486L15.3632 1.1273L13.949 2.54151ZM19.1465 8.05738L16.9809 10.223L18.3951 11.6373L20.5607 9.4716L19.1465 8.05738ZM19.1465 7.73908C19.2344 7.82697 19.2344 7.96949 19.1465 8.05738L20.5607 9.4716C21.4297 8.60265 21.4297 7.19381 20.5607 6.32486L19.1465 7.73908ZM13.6306 2.54151C13.7185 2.45361 13.8611 2.45361 13.949 2.54151L15.3632 1.1273C14.4942 0.258349 13.0854 0.25835 12.2164 1.1273L13.6306 2.54151ZM11.465 5.02547C11.3771 4.93757 11.3771 4.79506 11.465 4.70716L10.0508 3.29295C9.18183 4.1619 9.18183 5.57074 10.0508 6.43968L11.465 5.02547ZM15.2483 11.6373C16.1173 12.5062 17.5261 12.5062 18.3951 11.6373L16.9809 10.223C16.893 10.3109 16.7505 10.3109 16.6626 10.223L15.2483 11.6373ZM7.56682 12.0704C8.13314 11.5041 9.05133 11.5041 9.61765 12.0704L11.0319 10.6562C9.68449 9.3088 7.49998 9.3088 6.15261 10.6562L7.56682 12.0704ZM9.61765 12.0704C10.184 12.6367 10.184 13.5549 9.61765 14.1212L11.0319 15.5354C12.3792 14.1881 12.3792 12.0035 11.0319 10.6562L9.61765 12.0704ZM9.61765 14.1212C9.05133 14.6875 8.13314 14.6875 7.56682 14.1212L6.15261 15.5354C7.49998 16.8828 9.68449 16.8828 11.0319 15.5354L9.61765 14.1212ZM7.56682 14.1212C7.0005 13.5549 7.0005 12.6367 7.56682 12.0704L6.15261 10.6562C4.80524 12.0035 4.80524 14.1881 6.15261 15.5354L7.56682 14.1212Z" fill="black"/>
</svg>
