<svg width="24" height="22" viewBox="0 0 24 22" fill="none" xmlns="http://www.w3.org/2000/svg">
<path id="phone-outgoing-02-icon" d="M18.3548 1.33295L22.2467 5.22481M22.2467 5.22481L18.8094 8.66561M22.2467 5.22481L13.4035 5.22481M19.7899 18.4056C19.7899 18.4056 18.598 19.5763 18.3059 19.9195C17.83 20.4273 17.2694 20.6671 16.5345 20.6671C16.4638 20.6671 16.3884 20.6671 16.3177 20.6624C14.9185 20.5731 13.6182 20.0277 12.643 19.5622C9.97643 18.274 7.63495 16.4451 5.68922 14.1272C4.08269 12.1948 3.00853 10.4082 2.29713 8.48996C1.85899 7.31926 1.69881 6.40715 1.76948 5.54676C1.81659 4.99667 2.0286 4.54062 2.41963 4.15039L4.02615 2.54714C4.257 2.33087 4.50199 2.21333 4.74226 2.21333C5.03907 2.21333 5.27934 2.39199 5.4301 2.54244C5.43481 2.54714 5.43952 2.55184 5.44423 2.55655C5.73162 2.82454 6.00487 3.10193 6.29225 3.39813C6.4383 3.54858 6.58906 3.69903 6.73982 3.85419L8.02598 5.13772C8.52537 5.63609 8.52537 6.09685 8.02598 6.59522C7.88936 6.73156 7.75744 6.86791 7.62082 6.99955C7.22507 7.40389 7.53595 7.09365 7.12608 7.46037C7.11665 7.46977 7.10723 7.47448 7.10252 7.48388C6.69735 7.88822 6.77273 8.28315 6.85754 8.55114C6.86225 8.56525 6.86696 8.57935 6.87167 8.59345C7.20617 9.40213 7.67729 10.1638 8.39339 11.0712L8.39811 11.0759C9.6984 12.6744 11.0694 13.9204 12.5817 14.8748C12.7748 14.997 12.9727 15.0958 13.1612 15.1898C13.3308 15.2744 13.4909 15.3543 13.6276 15.439C13.6464 15.4484 13.6653 15.4625 13.6841 15.4719C13.8443 15.5518 13.995 15.5894 14.1505 15.5894C14.5415 15.5894 14.7865 15.3449 14.8666 15.265L15.7901 14.3434C15.9503 14.1836 16.2047 13.9908 16.5015 13.9908C16.7936 13.9908 17.0338 14.1742 17.1799 14.334C17.1846 14.3387 17.1846 14.3387 17.1893 14.3434L19.7852 16.934C20.2704 17.4136 19.7899 18.4056 19.7899 18.4056Z" stroke="black" stroke-width="2" stroke-linecap="round" stroke-linejoin="round"/>
</svg>
