<svg width="22" height="22" viewBox="0 0 22 22" fill="none" xmlns="http://www.w3.org/2000/svg">
<path id="scale-01-icon" d="M4.11287 1.3999C2.47647 1.3999 1.1499 2.72646 1.1499 4.36286M12.8832 1.3999H8.61657M20.3499 4.36287C20.3499 2.72647 19.0233 1.3999 17.3869 1.3999M1.1499 8.86657V13.1332M20.3499 13.1332V8.86657M1.1499 17.6369C1.1499 19.2733 2.47647 20.5999 4.11286 20.5999M17.3869 20.5999C19.0233 20.5999 20.3499 19.2733 20.3499 17.6369M8.61657 20.5999H12.8832M1.1499 10.9999H8.61657C9.79477 10.9999 10.7499 11.955 10.7499 13.1332V20.5999H4.3499C2.58259 20.5999 1.1499 19.1672 1.1499 17.3999V10.9999Z" stroke="black" stroke-width="2" stroke-linecap="round"/>
</svg>
