<svg width="22" height="22" viewBox="0 0 22 22" fill="none" xmlns="http://www.w3.org/2000/svg">
<path id="scissors-04-icon" d="M7.3299 7.5799L20.3499 18.1999M20.3499 3.7999L7.3299 14.4199M4.7499 8.5999C2.76168 8.5999 1.1499 6.98813 1.1499 4.9999C1.1499 3.01168 2.76168 1.3999 4.7499 1.3999C6.73813 1.3999 8.3499 3.01168 8.3499 4.9999C8.3499 6.98813 6.73813 8.5999 4.7499 8.5999ZM4.7499 20.5999C2.76168 20.5999 1.1499 18.9881 1.1499 16.9999C1.1499 15.0117 2.76168 13.3999 4.7499 13.3999C6.73813 13.3999 8.3499 15.0117 8.3499 16.9999C8.3499 18.9881 6.73813 20.5999 4.7499 20.5999Z" stroke="black" stroke-width="2" stroke-linecap="round" stroke-linejoin="round"/>
</svg>
