<svg width="22" height="21" viewBox="0 0 22 21" fill="none" xmlns="http://www.w3.org/2000/svg">
<path id="scissors-01-icon" d="M6.79385 7.24405L18.6845 16.9429M18.6845 3.79192L6.79385 13.4907M15.9448 10.3679L15.9234 10.3893M20.3499 10.3678L20.3284 10.3893M4.43764 8.17557C2.62187 8.17557 1.1499 6.7036 1.1499 4.88783C1.1499 3.07207 2.62187 1.6001 4.43764 1.6001C6.25341 1.6001 7.72538 3.07207 7.72538 4.88784C7.72538 6.7036 6.25341 8.17557 4.43764 8.17557ZM4.43764 19.1347C2.62187 19.1347 1.1499 17.6627 1.1499 15.847C1.1499 14.0312 2.62187 12.5592 4.43764 12.5592C6.25341 12.5592 7.72538 14.0312 7.72538 15.847C7.72538 17.6627 6.25341 19.1347 4.43764 19.1347Z" stroke="black" stroke-width="2" stroke-linecap="round" stroke-linejoin="round"/>
</svg>
