<svg width="22" height="24" viewBox="0 0 22 24" fill="none" xmlns="http://www.w3.org/2000/svg">
<path id="server-05-icon" d="M16.9999 7.79999C16.9999 11.1137 14.3136 13.8 10.9999 13.8M16.9999 7.79999C16.9999 4.48628 14.3136 1.79999 10.9999 1.79999M16.9999 7.79999H4.9999M10.9999 13.8C7.68619 13.8 4.9999 11.1137 4.9999 7.79999M10.9999 13.8C12.3254 13.8 13.3999 11.1137 13.3999 7.79999C13.3999 4.48628 12.3254 1.79999 10.9999 1.79999M10.9999 13.8C9.67442 13.8 8.5999 11.1137 8.5999 7.79999C8.5999 4.48628 9.67442 1.79999 10.9999 1.79999M4.9999 7.79999C4.9999 4.48628 7.68619 1.79999 10.9999 1.79999M13.3999 19.8C13.3999 21.1255 12.3254 22.2 10.9999 22.2C9.67442 22.2 8.5999 21.1255 8.5999 19.8M13.3999 19.8C13.3999 18.4745 12.3254 17.4 10.9999 17.4C9.67442 17.4 8.5999 18.4745 8.5999 19.8M13.3999 19.8H20.5999M8.5999 19.8H1.3999" stroke="black" stroke-width="2" stroke-linecap="round" stroke-linejoin="round"/>
</svg>
