<svg width="22" height="20" viewBox="0 0 22 20" fill="none" xmlns="http://www.w3.org/2000/svg">
<path id="server-02-icon" d="M20.5999 4.6C20.5999 6.58823 16.3018 8.2 10.9999 8.2C5.69797 8.2 1.3999 6.58823 1.3999 4.6M20.5999 4.6C20.5999 2.61177 16.3018 1 10.9999 1C5.69797 1 1.3999 2.61177 1.3999 4.6M20.5999 4.6V15.4C20.5999 17.3882 16.3018 19 10.9999 19C5.69797 19 1.3999 17.3882 1.3999 15.4V4.6M20.5999 10C20.5999 11.9882 16.3018 13.6 10.9999 13.6C5.69797 13.6 1.3999 11.9882 1.3999 10" stroke="black" stroke-width="2"/>
</svg>
