<svg width="22" height="22" viewBox="0 0 22 22" fill="none" xmlns="http://www.w3.org/2000/svg">
<path id="star-01-icon" d="M10.1409 2.17203C10.5218 1.14253 11.978 1.14253 12.3589 2.17203L14.255 7.29616C14.3748 7.61984 14.63 7.87503 14.9536 7.9948L20.0778 9.8909C21.1073 10.2718 21.1073 11.728 20.0778 12.1089L14.9536 14.005C14.63 14.1248 14.3748 14.38 14.255 14.7036L12.3589 19.8278C11.978 20.8573 10.5219 20.8573 10.1409 19.8278L8.2448 14.7036C8.12503 14.38 7.86984 14.1248 7.54617 14.005L2.42203 12.1089C1.39253 11.728 1.39253 10.2719 2.42203 9.8909L7.54616 7.9948C7.86984 7.87503 8.12503 7.61984 8.2448 7.29617L10.1409 2.17203Z" stroke="black" stroke-width="2" stroke-linejoin="round"/>
</svg>
