<svg width="20" height="20" viewBox="0 0 20 20" fill="none" xmlns="http://www.w3.org/2000/svg">
<g id="stop-02-icon">
<path d="M15.625 1H4.375C2.51104 1 1 2.51104 1 4.375V15.625C1 17.489 2.51104 19 4.375 19H15.625C17.489 19 19 17.489 19 15.625V4.375C19 2.51104 17.489 1 15.625 1Z" stroke="black" stroke-width="2" stroke-linejoin="round"/>
<path d="M6.625 7.89062C6.625 7.19164 7.19164 6.625 7.89062 6.625H12.1094C12.8084 6.625 13.375 7.19164 13.375 7.89062V12.1094C13.375 12.8084 12.8084 13.375 12.1094 13.375H7.89062C7.19164 13.375 6.625 12.8084 6.625 12.1094V7.89062Z" stroke="black" stroke-width="2" stroke-linejoin="round"/>
</g>
</svg>
