<svg width="21" height="22" viewBox="0 0 21 22" fill="none" xmlns="http://www.w3.org/2000/svg">
<path id="stopwatch-03-icon" d="M15.5538 5.14507C15.1632 5.53559 15.1632 6.16876 15.5538 6.55928C15.9443 6.94981 16.5775 6.94981 16.968 6.55928L15.5538 5.14507ZM17.8028 1.80594C17.4122 1.41541 16.7791 1.41541 16.3885 1.80594C15.998 2.19646 15.998 2.82963 16.3885 3.22015L17.8028 1.80594ZM18.8929 5.7245C19.2834 6.11502 19.9166 6.11502 20.3071 5.7245C20.6976 5.33397 20.6976 4.70081 20.3071 4.31028L18.8929 5.7245ZM11 8.84091C11 8.28863 10.5523 7.84091 10 7.84091C9.44772 7.84091 9 8.28863 9 8.84091H11ZM9 12.2175C9 12.7698 9.44772 13.2175 10 13.2175C10.5523 13.2175 11 12.7698 11 12.2175H9ZM7.5 0C6.94772 0 6.5 0.447715 6.5 1C6.5 1.55228 6.94772 2 7.5 2V0ZM12.5 2C13.0523 2 13.5 1.55228 13.5 1C13.5 0.447715 13.0523 0 12.5 0V2ZM16.968 6.55928L19.0549 4.47232L17.6407 3.05811L15.5538 5.14507L16.968 6.55928ZM16.3885 3.22015L17.6407 4.47232L19.0549 3.05811L17.8028 1.80594L16.3885 3.22015ZM17.6407 4.47232L18.8929 5.7245L20.3071 4.31028L19.0549 3.05811L17.6407 4.47232ZM9 8.84091V12.2175H11V8.84091H9ZM7.5 2H12.5V0H7.5V2ZM17.5 12.4286C17.5 16.6181 14.1343 20 10 20V22C15.2546 22 19.5 17.7068 19.5 12.4286H17.5ZM10 20C5.86574 20 2.5 16.6181 2.5 12.4286H0.5C0.5 17.7068 4.74542 22 10 22V20ZM2.5 12.4286C2.5 8.23908 5.86574 4.85714 10 4.85714V2.85714C4.74542 2.85714 0.5 7.15032 0.5 12.4286H2.5ZM10 4.85714C14.1343 4.85714 17.5 8.23908 17.5 12.4286H19.5C19.5 7.15032 15.2546 2.85714 10 2.85714V4.85714Z" fill="black"/>
</svg>
