<svg width="22" height="22" viewBox="0 0 22 22" fill="none" xmlns="http://www.w3.org/2000/svg">
<path id="table-icon" d="M8.9999 1.39999C8.9999 0.847709 8.55219 0.399994 7.9999 0.399994C7.44762 0.399994 6.9999 0.847709 6.9999 1.39999H8.9999ZM6.9999 20.6C6.9999 21.1523 7.44762 21.6 7.9999 21.6C8.55219 21.6 8.9999 21.1523 8.9999 20.6H6.9999ZM4.9999 2.39999H16.9999V0.399994H4.9999V2.39999ZM19.5999 4.99999V17H21.5999V4.99999H19.5999ZM16.9999 19.6H4.9999V21.6H16.9999V19.6ZM2.3999 17V4.99999H0.399902V17H2.3999ZM4.9999 19.6C3.56396 19.6 2.3999 18.4359 2.3999 17H0.399902C0.399902 19.5405 2.45939 21.6 4.9999 21.6V19.6ZM19.5999 17C19.5999 18.4359 18.4358 19.6 16.9999 19.6V21.6C19.5404 21.6 21.5999 19.5405 21.5999 17H19.5999ZM16.9999 2.39999C18.4358 2.39999 19.5999 3.56405 19.5999 4.99999H21.5999C21.5999 2.45948 19.5404 0.399994 16.9999 0.399994V2.39999ZM4.9999 0.399994C2.45939 0.399994 0.399902 2.45948 0.399902 4.99999H2.3999C2.3999 3.56405 3.56396 2.39999 4.9999 2.39999V0.399994ZM6.9999 1.39999V20.6H8.9999V1.39999H6.9999ZM1.9999 8.99999H19.9999V6.99999H1.9999V8.99999Z" fill="black"/>
</svg>
