<svg width="18" height="22" viewBox="0 0 18 22" fill="none" xmlns="http://www.w3.org/2000/svg">
<path id="temperature-03-icon" d="M5.7 16.3999H5.75625M11.7 9.79988L12.1119 9.62964C12.7486 9.3665 13.4637 9.36705 14.1 9.63119C14.7363 9.89532 15.4514 9.89587 16.0881 9.63273L16.5 9.46249M11.7 5.93729L12.1119 5.76705C12.7486 5.50391 13.4637 5.50446 14.1 5.7686C14.7363 6.03273 15.4514 6.03328 16.0881 5.77014L16.5 5.5999M9.9 16.3999C9.9 18.7195 8.0196 20.5999 5.7 20.5999C3.3804 20.5999 1.5 18.7195 1.5 16.3999C1.5 14.9727 2.21191 13.7117 3.3 12.9527V3.79833C3.3 2.47285 4.37452 1.3999 5.7 1.3999C7.02548 1.3999 8.1 2.47442 8.1 3.7999V12.9527C8.95925 13.7218 9.9 15.156 9.9 16.3999Z" stroke="black" stroke-width="2" stroke-linecap="round" stroke-linejoin="round"/>
</svg>
