<svg width="18" height="22" viewBox="0 0 18 22" fill="none" xmlns="http://www.w3.org/2000/svg">
<path id="temperature-02-icon" d="M3.60005 12.9527L4.17215 13.7729C4.44027 13.5859 4.60005 13.2796 4.60005 12.9527H3.60005ZM8.40005 12.9527H7.40005C7.40005 13.2372 7.52118 13.5081 7.73313 13.6979L8.40005 12.9527ZM6.00005 15.3999C5.44776 15.3999 5.00005 15.8476 5.00005 16.3999C5.00005 16.9522 5.44776 17.3999 6.00005 17.3999V15.3999ZM6.0563 17.3999C6.60858 17.3999 7.0563 16.9522 7.0563 16.3999C7.0563 15.8476 6.60858 15.3999 6.0563 15.3999V17.3999ZM9.20005 16.3999C9.20005 18.1672 7.76736 19.5999 6.00005 19.5999V21.5999C8.87193 21.5999 11.2 19.2718 11.2 16.3999H9.20005ZM6.00005 19.5999C4.23274 19.5999 2.80005 18.1672 2.80005 16.3999H0.800049C0.800049 19.2718 3.12817 21.5999 6.00005 21.5999V19.5999ZM2.80005 16.3999C2.80005 15.3133 3.34068 14.3529 4.17215 13.7729L3.02795 12.1325C1.68323 13.0705 0.800049 14.632 0.800049 16.3999H2.80005ZM7.73313 13.6979C8.07798 14.0065 8.45965 14.4701 8.75031 14.9878C9.04625 15.5149 9.20005 16.0122 9.20005 16.3999H11.2C11.2 15.5437 10.8835 14.7019 10.4942 14.0087C10.0997 13.306 9.58136 12.668 9.06696 12.2076L7.73313 13.6979ZM7.40005 3.7999V12.9527H9.40005V3.7999H7.40005ZM4.60005 12.9527V3.79833H2.60005V12.9527H4.60005ZM6.00005 2.3999C6.77325 2.3999 7.40005 3.0267 7.40005 3.7999H9.40005C9.40005 1.92213 7.87782 0.399902 6.00005 0.399902V2.3999ZM6.00005 0.399902C4.12313 0.399902 2.60005 1.91971 2.60005 3.79833H4.60005C4.60005 3.02599 5.226 2.3999 6.00005 2.3999V0.399902ZM6.00005 17.3999H6.0563V15.3999H6.00005V17.3999ZM15.2 6.1999C15.2 6.9731 14.5732 7.5999 13.8 7.5999V9.5999C15.6778 9.5999 17.2 8.07767 17.2 6.1999H15.2ZM13.8 7.5999C13.0268 7.5999 12.4 6.9731 12.4 6.1999H10.4C10.4 8.07767 11.9223 9.5999 13.8 9.5999V7.5999ZM12.4 6.1999C12.4 5.4267 13.0268 4.7999 13.8 4.7999V2.7999C11.9223 2.7999 10.4 4.32213 10.4 6.1999H12.4ZM13.8 4.7999C14.5732 4.7999 15.2 5.4267 15.2 6.1999H17.2C17.2 4.32213 15.6778 2.7999 13.8 2.7999V4.7999Z" fill="black"/>
</svg>
