<svg width="24" height="20" viewBox="0 0 24 20" fill="none" xmlns="http://www.w3.org/2000/svg">
<path id="ticket-02-icon" d="M14.3995 12.8597V6.95333M5.01172 1.45972H12.001C12.0407 2.87478 13.2003 4.00972 14.625 4.00972C16.0496 4.00972 17.2092 2.87478 17.2489 1.45972H18.9882C21.0934 1.45972 22.7999 3.1663 22.7999 5.27148V14.7284C22.7999 16.8336 21.0934 18.5402 18.9882 18.5402H17.2489C17.2092 17.1251 16.0496 15.9902 14.625 15.9902C13.2003 15.9902 12.0407 17.1251 12.001 18.5402H5.01173C2.90655 18.5402 1.19996 16.8336 1.19996 14.7284L1.19995 5.27148C1.19995 3.1663 2.90654 1.45972 5.01172 1.45972Z" stroke="black" stroke-width="2" stroke-linecap="round" stroke-linejoin="round"/>
</svg>
