<svg width="22" height="22" viewBox="0 0 22 22" fill="none" xmlns="http://www.w3.org/2000/svg">
<path id="transform-icon" d="M18.0736 15.5473V6.45253M15.5473 18.0736H6.9578M3.92622 15.2946V6.70516M6.45253 3.92622H15.2946M2.41043 6.45253H5.44201C6.00011 6.45253 6.45253 6.00011 6.45253 5.44201V2.41043C6.45253 1.85233 6.00011 1.3999 5.44201 1.3999H2.41043C1.85233 1.3999 1.3999 1.85233 1.3999 2.41043V5.44201C1.3999 6.00011 1.85233 6.45253 2.41043 6.45253ZM16.5578 6.45253H19.5894C20.1475 6.45253 20.5999 6.00011 20.5999 5.44201V2.41043C20.5999 1.85233 20.1475 1.3999 19.5894 1.3999H16.5578C15.9997 1.3999 15.5473 1.85233 15.5473 2.41043V5.44201C15.5473 6.00011 15.9997 6.45253 16.5578 6.45253ZM2.41043 20.5999H5.44201C6.00011 20.5999 6.45253 20.1475 6.45253 19.5894V16.5578C6.45253 15.9997 6.00011 15.5473 5.44201 15.5473H2.41043C1.85233 15.5473 1.3999 15.9997 1.3999 16.5578V19.5894C1.3999 20.1475 1.85233 20.5999 2.41043 20.5999ZM16.5578 20.5999H19.5894C20.1475 20.5999 20.5999 20.1475 20.5999 19.5894V16.5578C20.5999 15.9997 20.1475 15.5473 19.5894 15.5473H16.5578C15.9997 15.5473 15.5473 15.9997 15.5473 16.5578V19.5894C15.5473 20.1475 15.9997 20.5999 16.5578 20.5999Z" stroke="black" stroke-width="2" stroke-linecap="round"/>
</svg>
