<svg width="22" height="22" viewBox="0 0 22 22" fill="none" xmlns="http://www.w3.org/2000/svg">
<path id="users-profiles-plus-icon" d="M0.399902 20.5999C0.39984 21.1522 0.847505 21.6 1.39979 21.6C1.95207 21.6001 2.39984 21.1524 2.3999 20.6001L0.399902 20.5999ZM1.40031 16.9996L2.40031 16.9997L1.40031 16.9996ZM11.5999 14.4C12.1522 14.4 12.5999 13.9523 12.5999 13.4C12.5999 12.8477 12.1522 12.4 11.5999 12.4V14.4ZM20.5999 15.6C21.1522 15.6 21.5999 15.1523 21.5999 14.6C21.5999 14.0477 21.1522 13.6 20.5999 13.6V15.6ZM15.1999 13.6C14.6476 13.6 14.1999 14.0477 14.1999 14.6C14.1999 15.1523 14.6476 15.6 15.1999 15.6V13.6ZM16.8999 17.2999C16.8999 17.8522 17.3476 18.2999 17.8999 18.2999C18.4522 18.2999 18.8999 17.8522 18.8999 17.2999H16.8999ZM18.8999 11.8999C18.8999 11.3476 18.4522 10.8999 17.8999 10.8999C17.3476 10.8999 16.8999 11.3476 16.8999 11.8999H18.8999ZM16.8889 0.527717C16.4071 0.257673 15.7976 0.429304 15.5276 0.911066C15.2575 1.39283 15.4292 2.00229 15.9109 2.27233L16.8889 0.527717ZM15.9109 7.72772C15.4292 7.99776 15.2575 8.60722 15.5276 9.08898C15.7976 9.57074 16.4071 9.74237 16.8889 9.47233L15.9109 7.72772ZM12.3999 5.00002C12.3999 6.43596 11.2358 7.60002 9.7999 7.60002V9.60002C12.3404 9.60002 14.3999 7.54053 14.3999 5.00002H12.3999ZM9.7999 7.60002C8.36396 7.60002 7.1999 6.43596 7.1999 5.00002H5.1999C5.1999 7.54053 7.25939 9.60002 9.7999 9.60002V7.60002ZM7.1999 5.00002C7.1999 3.56408 8.36396 2.40002 9.7999 2.40002V0.400024C7.25939 0.400024 5.1999 2.45951 5.1999 5.00002H7.1999ZM9.7999 2.40002C11.2358 2.40002 12.3999 3.56408 12.3999 5.00002H14.3999C14.3999 2.45951 12.3404 0.400024 9.7999 0.400024V2.40002ZM2.3999 20.6001L2.40031 16.9997L0.400307 16.9995L0.399902 20.5999L2.3999 20.6001ZM5.00031 12.4C2.46 12.4 0.400593 14.4592 0.400307 16.9995L2.40031 16.9997C2.40047 15.5639 3.56448 14.4 5.00031 14.4V12.4ZM5.00031 14.4H11.5999V12.4H5.00031V14.4ZM20.5999 13.6H17.8999V15.6H20.5999V13.6ZM17.8999 13.6H15.1999V15.6H17.8999V13.6ZM18.8999 17.2999V14.6H16.8999V17.2999H18.8999ZM18.8999 14.6V11.8999H16.8999V14.6H18.8999ZM15.9109 2.27233C17.1486 2.96606 17.7999 3.98568 17.7999 5.00002H19.7999C19.7999 3.06412 18.5637 1.46654 16.8889 0.527717L15.9109 2.27233ZM17.7999 5.00002C17.7999 6.01437 17.1486 7.03399 15.9109 7.72772L16.8889 9.47233C18.5637 8.53351 19.7999 6.93592 19.7999 5.00002H17.7999Z" fill="black"/>
</svg>
