<svg width="22" height="22" viewBox="0 0 22 22" fill="none" xmlns="http://www.w3.org/2000/svg">
<path id="users-profiles-down-icon" d="M1.3999 20.6L1.40031 16.9996C1.40053 15.0116 3.01224 13.4 5.00031 13.4H12.1998M20.5999 15.6286L18.1999 18.2M18.1999 18.2L15.7999 15.6286M18.1999 18.2V11.6M16.3999 1.40002C17.8561 2.2163 18.7999 3.5249 18.7999 5.00002C18.7999 6.47515 17.8561 7.78375 16.3999 8.60002M13.3999 5.00002C13.3999 6.98825 11.7881 8.60002 9.7999 8.60002C7.81167 8.60002 6.1999 6.98825 6.1999 5.00002C6.1999 3.0118 7.81167 1.40002 9.7999 1.40002C11.7881 1.40002 13.3999 3.0118 13.3999 5.00002Z" stroke="black" stroke-width="2" stroke-linecap="round" stroke-linejoin="round"/>
</svg>
