<svg width="22" height="22" viewBox="0 0 22 22" fill="none" xmlns="http://www.w3.org/2000/svg">
<path id="wallet-01-icon" d="M20.5999 15.5601V16.5601C21.1522 16.5601 21.5999 16.1124 21.5999 15.5601H20.5999ZM20.5999 10.2801H21.5999C21.5999 9.72785 21.1522 9.28014 20.5999 9.28014V10.2801ZM6.13914 5.11896C5.67457 5.41761 5.54007 6.03633 5.83872 6.5009C6.13738 6.96547 6.75609 7.09997 7.22066 6.80132L6.13914 5.11896ZM13.3999 1.64014L14.1893 1.0262C13.8715 0.617652 13.2945 0.519079 12.8591 0.798958L13.3999 1.64014ZM15.9705 6.57408C16.3096 7.01003 16.9379 7.08856 17.3738 6.74949C17.8098 6.41042 17.8883 5.78214 17.5493 5.3462L15.9705 6.57408ZM20.5999 14.5601H17.4799V16.5601H20.5999V14.5601ZM17.4799 11.2801H20.5999V9.28014H17.4799V11.2801ZM19.5999 10.2801V15.5601H21.5999V10.2801H19.5999ZM15.8399 12.9201C15.8399 12.0144 16.5742 11.2801 17.4799 11.2801V9.28014C15.4696 9.28014 13.8399 10.9098 13.8399 12.9201H15.8399ZM17.4799 14.5601C16.5742 14.5601 15.8399 13.8259 15.8399 12.9201H13.8399C13.8399 14.9305 15.4696 16.5601 17.4799 16.5601V14.5601ZM7.22066 6.80132L13.9407 2.48132L12.8591 0.798958L6.13914 5.11896L7.22066 6.80132ZM12.6105 2.25408L15.9705 6.57408L17.5493 5.3462L14.1893 1.0262L12.6105 2.25408ZM2.3599 6.96014H18.6799V4.96014H2.3599V6.96014ZM18.6799 19.3601H2.3599V21.3601H18.6799V19.3601ZM2.3999 19.4001V6.92014H0.399902V19.4001H2.3999ZM2.3599 19.3601C2.38199 19.3601 2.3999 19.378 2.3999 19.4001H0.399902C0.399902 20.4826 1.27742 21.3601 2.3599 21.3601V19.3601ZM18.6399 19.4001C18.6399 19.378 18.6578 19.3601 18.6799 19.3601V21.3601C19.7624 21.3601 20.6399 20.4826 20.6399 19.4001H18.6399ZM18.6799 6.96014C18.6578 6.96014 18.6399 6.94223 18.6399 6.92014H20.6399C20.6399 5.83766 19.7624 4.96014 18.6799 4.96014V6.96014ZM2.3599 4.96014C1.27742 4.96014 0.399902 5.83766 0.399902 6.92014H2.3999C2.3999 6.94223 2.38199 6.96014 2.3599 6.96014V4.96014ZM18.6399 16.2801V19.4001H20.6399V16.2801H18.6399ZM18.6399 6.92014V9.44014H20.6399V6.92014H18.6399Z" fill="black"/>
</svg>
