<svg width="14" height="20" viewBox="0 0 14 20" fill="none" xmlns="http://www.w3.org/2000/svg">
<path id="watch-02-icon" d="M10.8633 16.0412L9.98936 18.6629C9.92223 18.8643 9.73378 19.0001 9.52152 19.0001H4.31459C4.10233 19.0001 3.91387 18.8643 3.84675 18.6629L2.97285 16.0412M2.97285 3.95903L3.84675 1.33732C3.91387 1.13595 4.10232 1.00012 4.31459 1.00012H9.52152C9.73378 1.00012 9.92223 1.13595 9.98936 1.33732L10.8633 3.95903M2.4797 16.0412H11.3564C12.1735 16.0412 12.8359 15.3788 12.8359 14.5618V5.68505C12.8359 4.86797 12.1735 4.2056 11.3564 4.2056H2.4797C1.66262 4.2056 1.00024 4.86797 1.00024 5.68505V14.5618C1.00024 15.3788 1.66262 16.0412 2.4797 16.0412Z" stroke="black" stroke-width="2" stroke-linecap="round"/>
</svg>
