<svg width="10" height="18" viewBox="0 0 10 18" fill="none" xmlns="http://www.w3.org/2000/svg">
<path id="webcam-icon" d="M5 13.6316C3.93913 13.6316 2.92172 13.188 2.17157 12.3983C1.42143 11.6087 1 10.5378 1 9.42105V5.21053C1 4.09383 1.42143 3.02286 2.17157 2.23323C2.92172 1.44361 3.93913 1 5 1C6.06087 1 7.07828 1.44361 7.82843 2.23323C8.57857 3.02286 9 4.09383 9 5.21053V9.42105C9 10.5378 8.57857 11.6087 7.82843 12.3983C7.07828 13.188 6.06087 13.6316 5 13.6316ZM5 13.6316V17M3.4 17H6.6M5 6.05263C5.21217 6.05263 5.41566 5.96391 5.56569 5.80598C5.71571 5.64806 5.8 5.43387 5.8 5.21053C5.8 4.98719 5.71571 4.77299 5.56569 4.61507C5.41566 4.45714 5.21217 4.36842 5 4.36842C4.78783 4.36842 4.58434 4.45714 4.43431 4.61507C4.28429 4.77299 4.2 4.98719 4.2 5.21053C4.2 5.43387 4.28429 5.64806 4.43431 5.80598C4.58434 5.96391 4.78783 6.05263 5 6.05263Z" stroke="black" stroke-width="2" stroke-linecap="round" stroke-linejoin="round"/>
</svg>
