<svg width="22" height="22" viewBox="0 0 22 22" fill="none" xmlns="http://www.w3.org/2000/svg">
<path id="wind-03-icon" d="M6.41679 19.8185C7.68581 20.0856 9.26122 20.2438 10.9679 20.2438C12.8033 20.2438 14.4869 20.0608 15.8008 19.7562M2.88411 11.2614C4.59116 12.2409 7.57402 12.8899 10.9683 12.8899C14.3626 12.8899 17.3455 12.2409 19.0525 11.2614M4.3999 15.5561C5.78688 16.1639 8.21045 16.5666 10.9683 16.5666C13.7262 16.5666 16.1498 16.1639 17.5367 15.5561M20.5999 5.29295C20.5999 7.24629 16.3018 8.82979 10.9999 8.82979C5.69797 8.82979 1.3999 7.24629 1.3999 5.29295C1.3999 3.3396 5.69797 1.7561 10.9999 1.7561C16.3018 1.7561 20.5999 3.3396 20.5999 5.29295Z" stroke="black" stroke-width="2" stroke-linecap="round"/>
</svg>
