<svg xmlns="http://www.w3.org/2000/svg"
     fill="currentColor"
     viewBox="0 0 24 24">
    <path fill="#000"
          d="m17.935 11.605.268-.963-.268.963Zm.419.422.974-.225-.974.225Zm-5.552-6.341.347-.938-.347.938Zm.363.473-.989.147.99-.147ZM20.816 2a1 1 0 1 0-2 0h2Zm-2 6.6a1 1 0 1 0 2 0h-2Zm-2.24-4.285a1 1 0 1 0 0 2v-2Zm6.424 2a1 1 0 1 0 0-2v2ZM7.699 15.329a1 1 0 0 0-1.709 1.04l1.709-1.04Zm6.325 1.04a1 1 0 1 0-1.708-1.04l1.708 1.04Zm-6.795-5.426v-1a1 1 0 0 0-1 1h1Zm.091 0h1a1 1 0 0 0-1-1v1Zm5.383 0v-1a1 1 0 0 0-1 1h1Zm.08 0h1a1 1 0 0 0-1-1v1Zm-5.463.074v1a1 1 0 0 0 1-1h-1Zm-.09 0h-1a1 1 0 0 0 1 1v-1Zm5.554 0v1a1 1 0 0 0 1-1h-1Zm-.081 0h-1a1 1 0 0 0 1 1v-1Zm.446-6.27a9.66 9.66 0 0 0-3.356-.597v2a7.66 7.66 0 0 1 2.662.474l.694-1.876Zm5.054 5.895c-2.099-.585-3.715-2.39-4.049-4.63l-1.978.294c.45 3.016 2.626 5.464 5.49 6.262l.537-1.926Zm1.383 3.433c0-.781-.089-1.542-.258-2.273l-1.948.45c.135.585.206 1.195.206 1.823h2ZM9.793 24c5.423 0 9.793-4.458 9.793-9.925h-2c0 4.39-3.503 7.925-7.793 7.925v2ZM0 14.075C0 19.542 4.37 24 9.793 24v-2C5.503 22 2 18.466 2 14.075H0ZM9.793 4.15C4.371 4.15 0 8.608 0 14.075h2C2 9.684 5.503 6.15 9.793 6.15v-2Zm7.873 8.418a.418.418 0 0 1-.286-.315l1.948-.45a1.582 1.582 0 0 0-1.125-1.161l-.537 1.926Zm-5.21-5.944a.417.417 0 0 1-.28-.318l1.978-.295c-.076-.514-.412-1.044-1.005-1.263l-.694 1.876ZM18.815 2v6.6h2V2h-2Zm-2.24 4.315H23v-2h-6.424v2Zm-6.569 10.351c-.952 0-1.81-.518-2.308-1.337l-1.709 1.04c.832 1.365 2.31 2.297 4.017 2.297v-2Zm2.309-1.337c-.5.82-1.357 1.337-2.309 1.337v2c1.707 0 3.186-.932 4.017-2.297l-1.708-1.04Zm-5.087-3.386h.091v-2h-.09v2Zm5.474 0h.08v-2h-.08v2Zm-6.383-1v.074h2v-.074h-2Zm1-.926h-.09v2h.09v-2Zm.91 1v-.074h-2v.074h2Zm3.554-.074v.074h2v-.074h-2Zm1-.926h-.081v2h.08v-2Zm.919 1v-.074h-2v.074h2Z" />
</svg>