<svg width="24" height="22" viewBox="0 0 24 22" fill="none" xmlns="http://www.w3.org/2000/svg">
<path id="alarm-03-icon" d="M9.70716 10.8929C9.31663 10.5024 8.68347 10.5024 8.29294 10.8929C7.90242 11.2834 7.90242 11.9166 8.29294 12.3071L9.70716 10.8929ZM10.8 13.4L10.0929 14.1071C10.4835 14.4977 11.1166 14.4977 11.5072 14.1071L10.8 13.4ZM15.7072 9.90713C16.0977 9.51661 16.0977 8.88344 15.7072 8.49292C15.3166 8.10239 14.6835 8.10239 14.2929 8.49292L15.7072 9.90713ZM6.56316 18.6191C6.95368 18.2286 6.95368 17.5954 6.56316 17.2049C6.17263 16.8144 5.53947 16.8144 5.14894 17.2049L6.56316 18.6191ZM2.46094 19.8929C2.07042 20.2834 2.07042 20.9166 2.46094 21.3071C2.85147 21.6977 3.48463 21.6977 3.87516 21.3071L2.46094 19.8929ZM20.1249 21.3071C20.5155 21.6977 21.1486 21.6977 21.5392 21.3071C21.9297 20.9166 21.9297 20.2834 21.5392 19.8929L20.1249 21.3071ZM18.8512 17.2049C18.4606 16.8144 17.8275 16.8144 17.4369 17.2049C17.0464 17.5954 17.0464 18.2286 17.4369 18.6191L18.8512 17.2049ZM5.50716 2.10713C5.89768 1.71661 5.89768 1.08344 5.50716 0.692918C5.11663 0.302393 4.48347 0.302393 4.09294 0.692917L5.50716 2.10713ZM1.09294 3.69292C0.702418 4.08344 0.702418 4.71661 1.09294 5.10713C1.48347 5.49765 2.11663 5.49765 2.50716 5.10713L1.09294 3.69292ZM21.4929 5.10713C21.8835 5.49766 22.5166 5.49765 22.9072 5.10713C23.2977 4.71661 23.2977 4.08344 22.9072 3.69292L21.4929 5.10713ZM19.9072 0.692918C19.5166 0.302393 18.8835 0.302393 18.4929 0.692918C18.1024 1.08344 18.1024 1.71661 18.4929 2.10713L19.9072 0.692918ZM8.29294 12.3071L10.0929 14.1071L11.5072 12.6929L9.70716 10.8929L8.29294 12.3071ZM11.5072 14.1071L15.7072 9.90713L14.2929 8.49292L10.0929 12.6929L11.5072 14.1071ZM5.14894 17.2049L2.46094 19.8929L3.87516 21.3071L6.56316 18.6191L5.14894 17.2049ZM21.5392 19.8929L18.8512 17.2049L17.4369 18.6191L20.1249 21.3071L21.5392 19.8929ZM19.448 11.768C19.448 15.8814 16.1135 19.216 12 19.216V21.216C17.218 21.216 21.448 16.986 21.448 11.768H19.448ZM12 19.216C7.88663 19.216 4.55205 15.8814 4.55205 11.768H2.55205C2.55205 16.986 6.78206 21.216 12 21.216V19.216ZM4.55205 11.768C4.55205 7.65461 7.88663 4.32002 12 4.32002V2.32002C6.78206 2.32002 2.55205 6.55004 2.55205 11.768H4.55205ZM12 4.32002C16.1135 4.32002 19.448 7.65461 19.448 11.768H21.448C21.448 6.55004 17.218 2.32002 12 2.32002V4.32002ZM4.09294 0.692917L1.09294 3.69292L2.50716 5.10713L5.50716 2.10713L4.09294 0.692917ZM22.9072 3.69292L19.9072 0.692918L18.4929 2.10713L21.4929 5.10713L22.9072 3.69292Z" fill="black"/>
</svg>
