<svg width="22" height="22" viewBox="0 0 22 22" fill="none" xmlns="http://www.w3.org/2000/svg">
<path id="alarm-off-icon" d="M1.6499 6.00802V5.24002C1.6499 4.37539 1.93567 3.5775 2.4179 2.93565M16.2419 1.40002L17.0099 1.40002C19.1307 1.40002 20.8499 3.11925 20.8499 5.24002V6.00802M5.1059 17.912L2.4179 20.6M20.0819 20.6L2.8019 2.49771M8.8499 3.6658C9.61067 3.4408 10.4162 3.32002 11.2499 3.32002C15.9156 3.32002 19.6979 7.10232 19.6979 11.768C19.6979 13.105 19.3873 14.3694 18.8344 15.4931M17.0099 17.948C15.5009 19.3551 13.4759 20.216 11.2499 20.216C6.5842 20.216 2.8019 16.4337 2.8019 11.768C2.8019 9.54199 3.66287 7.51705 5.06996 6.00802" stroke="black" stroke-width="2" stroke-linecap="round" stroke-linejoin="round"/>
</svg>
