<svg width="22" height="22" viewBox="0 0 22 22" fill="none" xmlns="http://www.w3.org/2000/svg">
<path id="alarm-01-icon" d="M10.9999 8.31202V11.4499C10.9999 11.6536 11.0808 11.8489 11.2248 11.993L12.9199 13.688M1.3999 6.00802V5.24002C1.3999 3.11925 3.11913 1.40002 5.2399 1.40002H6.0079M15.9919 1.40002L16.7599 1.40002C18.8807 1.40002 20.5999 3.11925 20.5999 5.24002V6.00802M4.8559 17.912L2.1679 20.6M19.8319 20.6L17.1439 17.912M19.4479 11.768C19.4479 16.4337 15.6656 20.216 10.9999 20.216C6.3342 20.216 2.5519 16.4337 2.5519 11.768C2.5519 7.10232 6.3342 3.32002 10.9999 3.32002C15.6656 3.32002 19.4479 7.10232 19.4479 11.768Z" stroke="black" stroke-width="2" stroke-linecap="round"/>
</svg>
