<svg width="22" height="22" viewBox="0 0 22 22" fill="none" xmlns="http://www.w3.org/2000/svg">
<path id="alarm-plus-icon" d="M0.649902 6.00802C0.649902 6.56031 1.09762 7.00802 1.6499 7.00802C2.20219 7.00802 2.6499 6.56031 2.6499 6.00802H0.649902ZM6.2579 2.40002C6.81019 2.40002 7.2579 1.95231 7.2579 1.40002C7.2579 0.84774 6.81019 0.400025 6.2579 0.400025V2.40002ZM16.2419 0.400024C15.6896 0.400024 15.2419 0.84774 15.2419 1.40002C15.2419 1.95231 15.6896 2.40002 16.2419 2.40002L16.2419 0.400024ZM17.0099 1.40002L17.0099 0.400024L17.0099 1.40002ZM20.8499 5.24002L19.8499 5.24002V5.24002H20.8499ZM19.8499 6.00802C19.8499 6.56031 20.2976 7.00802 20.8499 7.00802C21.4022 7.00802 21.8499 6.56031 21.8499 6.00802H19.8499ZM5.81301 18.6191C6.20353 18.2286 6.20353 17.5954 5.81301 17.2049C5.42248 16.8144 4.78932 16.8144 4.39879 17.2049L5.81301 18.6191ZM1.7108 19.8929C1.32027 20.2834 1.32027 20.9166 1.7108 21.3071C2.10132 21.6977 2.73448 21.6977 3.12501 21.3071L1.7108 19.8929ZM19.3748 21.3071C19.7653 21.6977 20.3985 21.6977 20.789 21.3071C21.1795 20.9166 21.1795 20.2834 20.789 19.8929L19.3748 21.3071ZM18.101 17.2049C17.7105 16.8144 17.0773 16.8144 16.6868 17.2049C16.2963 17.5954 16.2963 18.2286 16.6868 18.6191L18.101 17.2049ZM12.2499 8.60002C12.2499 8.04774 11.8022 7.60002 11.2499 7.60002C10.6976 7.60002 10.2499 8.04774 10.2499 8.60002H12.2499ZM10.2499 14.6C10.2499 15.1523 10.6976 15.6 11.2499 15.6C11.8022 15.6 12.2499 15.1523 12.2499 14.6H10.2499ZM14.2499 12.6C14.8022 12.6 15.2499 12.1523 15.2499 11.6C15.2499 11.0477 14.8022 10.6 14.2499 10.6V12.6ZM8.2499 10.6C7.69762 10.6 7.2499 11.0477 7.2499 11.6C7.2499 12.1523 7.69762 12.6 8.2499 12.6V10.6ZM2.6499 6.00802V5.24002H0.649902V6.00802H2.6499ZM5.4899 2.40002H6.2579V0.400025H5.4899V2.40002ZM2.6499 5.24002C2.6499 3.67154 3.92141 2.40002 5.4899 2.40002V0.400025C2.81684 0.400025 0.649902 2.56697 0.649902 5.24002H2.6499ZM16.2419 2.40002L17.0099 2.40002L17.0099 0.400024L16.2419 0.400024L16.2419 2.40002ZM19.8499 5.24002V6.00802H21.8499V5.24002H19.8499ZM17.0099 2.40002C18.5784 2.40002 19.8499 3.67154 19.8499 5.24002L21.8499 5.24002C21.8499 2.56697 19.683 0.400025 17.0099 0.400024L17.0099 2.40002ZM4.39879 17.2049L1.7108 19.8929L3.12501 21.3071L5.81301 18.6191L4.39879 17.2049ZM20.789 19.8929L18.101 17.2049L16.6868 18.6191L19.3748 21.3071L20.789 19.8929ZM18.6979 11.768C18.6979 15.8814 15.3633 19.216 11.2499 19.216V21.216C16.4679 21.216 20.6979 16.986 20.6979 11.768H18.6979ZM11.2499 19.216C7.13648 19.216 3.8019 15.8814 3.8019 11.768H1.8019C1.8019 16.986 6.03192 21.216 11.2499 21.216V19.216ZM3.8019 11.768C3.8019 7.65461 7.13648 4.32002 11.2499 4.32002V2.32002C6.03192 2.32002 1.8019 6.55004 1.8019 11.768H3.8019ZM11.2499 4.32002C15.3633 4.32002 18.6979 7.65461 18.6979 11.768H20.6979C20.6979 6.55004 16.4679 2.32002 11.2499 2.32002V4.32002ZM10.2499 8.60002V11.6H12.2499V8.60002H10.2499ZM10.2499 11.6V14.6H12.2499V11.6H10.2499ZM14.2499 10.6H11.2499V12.6H14.2499V10.6ZM11.2499 10.6H8.2499V12.6H11.2499V10.6Z" fill="black"/>
</svg>
