<svg width="20" height="20" viewBox="0 0 20 20" fill="none" xmlns="http://www.w3.org/2000/svg">
<path id="arrow-down-contained-02-icon" d="M14.6177 11.4312C15.0419 11.0776 15.0993 10.447 14.7457 10.0228C14.3921 9.59849 13.7616 9.54116 13.3373 9.89473L14.6177 11.4312ZM9.99997 13.9775L9.35979 14.7458C9.73063 15.0548 10.2693 15.0548 10.6402 14.7458L9.99997 13.9775ZM6.66265 9.89472C6.23838 9.54116 5.60781 9.59848 5.25425 10.0228C4.90068 10.447 4.95801 11.0776 5.38228 11.4312L6.66265 9.89472ZM11 6.02253C11 5.47024 10.5523 5.02253 9.99997 5.02253C9.44769 5.02253 8.99997 5.47024 8.99997 6.02253L11 6.02253ZM13.3373 9.89473L9.35979 13.2093L10.6402 14.7458L14.6177 11.4312L13.3373 9.89473ZM10.6402 13.2093L6.66265 9.89472L5.38228 11.4312L9.35979 14.7458L10.6402 13.2093ZM11 13.9775L11 6.02253L8.99997 6.02253L8.99997 13.9775L11 13.9775ZM15.6569 15.6569C12.5327 18.781 7.46734 18.781 4.34315 15.6569L2.92893 17.0711C6.83418 20.9763 13.1658 20.9763 17.0711 17.0711L15.6569 15.6569ZM4.34315 15.6569C1.21895 12.5327 1.21895 7.46734 4.34315 4.34315L2.92893 2.92893C-0.976311 6.83418 -0.976311 13.1658 2.92893 17.0711L4.34315 15.6569ZM4.34315 4.34315C7.46734 1.21895 12.5327 1.21895 15.6569 4.34315L17.0711 2.92893C13.1658 -0.976311 6.83418 -0.976311 2.92893 2.92893L4.34315 4.34315ZM15.6569 4.34315C18.781 7.46734 18.781 12.5327 15.6569 15.6569L17.0711 17.0711C20.9763 13.1658 20.9763 6.83418 17.0711 2.92893L15.6569 4.34315Z" fill="black"/>
</svg>
