<svg width="20" height="20" viewBox="0 0 20 20" fill="none" xmlns="http://www.w3.org/2000/svg">
<path id="arrow-up-right-contained-icon" d="M5.72279 12.2532C5.67279 12.8032 6.07814 13.2897 6.62815 13.3397C7.17817 13.3897 7.66458 12.9843 7.71458 12.4343L5.72279 12.2532ZM7.18744 7.18748L7.09691 6.19159C6.61615 6.23529 6.23525 6.61619 6.19155 7.09694L7.18744 7.18748ZM12.4343 7.71462C12.9843 7.66462 13.3896 7.17821 13.3396 6.62819C13.2896 6.07817 12.8032 5.67283 12.2532 5.72283L12.4343 7.71462ZM12.1054 13.5196C12.4959 13.9102 13.1291 13.9102 13.5196 13.5196C13.9101 13.1291 13.9101 12.4959 13.5196 12.1054L12.1054 13.5196ZM7.71458 12.4343L8.18333 7.27802L6.19155 7.09694L5.72279 12.2532L7.71458 12.4343ZM7.27798 8.18337L12.4343 7.71462L12.2532 5.72283L7.09691 6.19159L7.27798 8.18337ZM6.48033 7.89459L12.1054 13.5196L13.5196 12.1054L7.89455 6.48037L6.48033 7.89459ZM10 2C14.4183 2 18 5.58172 18 10L20 10C20 4.47715 15.5228 -2.41411e-07 10 0L10 2ZM18 10C18 14.4183 14.4183 18 10 18L10 20C15.5228 20 20 15.5228 20 10L18 10ZM10 18C5.58172 18 2 14.4183 2 10L0 10C2.41411e-07 15.5228 4.47715 20 10 20L10 18ZM2 10C2 5.58172 5.58172 2 10 2L10 0C4.47715 2.41411e-07 -2.41411e-07 4.47715 0 10L2 10Z" fill="black"/>
</svg>
