<svg width="20" height="20" viewBox="0 0 20 20" fill="none" xmlns="http://www.w3.org/2000/svg">
<path id="arrow-up-contained-02-icon" d="M5.38228 8.56883C4.95801 8.9224 4.90068 9.55296 5.25425 9.97724C5.60781 10.4015 6.23838 10.4588 6.66265 10.1053L5.38228 8.56883ZM9.99997 6.02247L10.6402 5.25425C10.2693 4.94521 9.73063 4.94521 9.35979 5.25425L9.99997 6.02247ZM13.3373 10.1053C13.7616 10.4588 14.3921 10.4015 14.7457 9.97724C15.0993 9.55296 15.0419 8.9224 14.6177 8.56883L13.3373 10.1053ZM8.99997 13.9775C8.99997 14.5298 9.44769 14.9775 9.99997 14.9775C10.5523 14.9775 11 14.5298 11 13.9775H8.99997ZM6.66265 10.1053L10.6402 6.79069L9.35979 5.25425L5.38228 8.56883L6.66265 10.1053ZM9.35979 6.79069L13.3373 10.1053L14.6177 8.56883L10.6402 5.25425L9.35979 6.79069ZM8.99997 6.02247V13.9775H11V6.02247H8.99997ZM15.6569 4.34315C18.781 7.46734 18.781 12.5327 15.6569 15.6569L17.0711 17.0711C20.9763 13.1658 20.9763 6.83418 17.0711 2.92893L15.6569 4.34315ZM15.6569 15.6569C12.5327 18.781 7.46734 18.781 4.34315 15.6569L2.92893 17.0711C6.83418 20.9763 13.1658 20.9763 17.0711 17.0711L15.6569 15.6569ZM4.34315 15.6569C1.21895 12.5327 1.21895 7.46734 4.34315 4.34315L2.92893 2.92893C-0.976311 6.83418 -0.976311 13.1658 2.92893 17.0711L4.34315 15.6569ZM4.34315 4.34315C7.46734 1.21895 12.5327 1.21895 15.6569 4.34315L17.0711 2.92893C13.1658 -0.976311 6.83418 -0.976311 2.92893 2.92893L4.34315 4.34315Z" fill="black"/>
</svg>
