<svg width="20" height="22" viewBox="0 0 20 22" fill="none" xmlns="http://www.w3.org/2000/svg">
<path id="bar-group-03-icon" d="M12.9435 20.088V2.91199C12.9435 2.3597 12.4958 1.91199 11.9435 1.91199H7.88528C7.333 1.91199 6.88528 2.3597 6.88528 2.91199V20.088M12.9435 20.088L12.9419 9.76814C12.9418 9.2158 13.3896 8.76799 13.9419 8.76799H18C18.5523 8.76799 19 9.2157 19 9.76799V19.088C19 19.6403 18.5523 20.088 18 20.088H12.9435ZM12.9435 20.088H6.88528M6.88528 20.088V15.088C6.88528 14.5357 6.43757 14.088 5.88528 14.088H2C1.44771 14.088 0.999999 14.5357 0.999999 15.088V19.088C0.999999 19.6403 1.44771 20.088 2 20.088H6.88528Z" stroke="black" stroke-width="2" stroke-linecap="round" stroke-linejoin="round"/>
</svg>
