<svg width="24" height="14" viewBox="0 0 24 14" fill="none" xmlns="http://www.w3.org/2000/svg">
<path id="battery-fill-04-icon" d="M22.2001 8.8V5.2M7.80005 4.6V9.4M7.80005 4.6H6.60005M7.80005 4.6H9.00005M7.80005 9.4H6.60005M7.80005 9.4H9.00005M10.2 4.6V9.4M10.2 4.6H9.00005M10.2 4.6H11.4M10.2 9.4H9.00005M10.2 9.4H11.4M12.6 4.6V9.4M12.6 4.6H11.4M12.6 4.6H13.8M12.6 9.4H15V4.6H13.8M12.6 9.4H11.4M6.60005 9.4H5.40005V4.6H6.60005M6.60005 9.4V4.6M9.00005 4.6V9.4M11.4 9.4V4.6M13.8 4.6V9.29603M4.20005 13H16.2C17.5255 13 18.6 11.9255 18.6 10.6V3.4C18.6 2.07452 17.5255 1 16.2 1H4.20005C2.87457 1 1.80005 2.07452 1.80005 3.4V10.6C1.80005 11.9255 2.87457 13 4.20005 13Z" stroke="black" stroke-width="2" stroke-linecap="round" stroke-linejoin="round"/>
</svg>
