<svg width="22" height="18" viewBox="0 0 22 18" fill="none" xmlns="http://www.w3.org/2000/svg">
<path id="bezier-02-icon" d="M8.12626 4.63451C8.67855 4.63451 9.12626 4.1868 9.12626 3.63451C9.12626 3.08223 8.67855 2.63451 8.12626 2.63451V4.63451ZM2.62288 2.63451C2.07059 2.63451 1.62288 3.08223 1.62288 3.63451C1.62288 4.1868 2.07059 4.63451 2.62288 4.63451V2.63451ZM19.3999 4.63451C19.9522 4.63451 20.3999 4.1868 20.3999 3.63451C20.3999 3.08223 19.9522 2.63451 19.3999 2.63451V4.63451ZM13.6297 2.63451C13.0774 2.63451 12.6297 3.08223 12.6297 3.63451C12.6297 4.1868 13.0774 4.63451 13.6297 4.63451V2.63451ZM9.51602 2.80005H12.2306V0.800049H9.51602V2.80005ZM12.1355 2.70491V5.41949H14.1355V2.70491H12.1355ZM12.2306 5.32435H9.51602V7.32435H12.2306V5.32435ZM9.61115 5.41949V2.70491H7.61115V5.41949H9.61115ZM9.51602 5.32435C9.56856 5.32435 9.61115 5.36694 9.61115 5.41949H7.61115C7.61115 6.47152 8.46399 7.32435 9.51602 7.32435V5.32435ZM12.1355 5.41949C12.1355 5.36695 12.178 5.32435 12.2306 5.32435V7.32435C13.2826 7.32435 14.1355 6.47151 14.1355 5.41949H12.1355ZM12.2306 2.80005C12.178 2.80005 12.1355 2.75745 12.1355 2.70491H14.1355C14.1355 1.65289 13.2826 0.800049 12.2306 0.800049V2.80005ZM9.51602 0.800049C8.46399 0.800049 7.61115 1.65288 7.61115 2.70491H9.61115C9.61115 2.75746 9.56856 2.80005 9.51602 2.80005V0.800049ZM2.30476 12.5839H5.01934V10.5839H2.30476V12.5839ZM4.9242 12.4887V15.2033H6.9242V12.4887H4.9242ZM5.01934 15.1082H2.30476V17.1082H5.01934V15.1082ZM2.3999 15.2033V12.4887H0.399902V15.2033H2.3999ZM2.30476 15.1082C2.35731 15.1082 2.3999 15.1507 2.3999 15.2033H0.399902C0.399902 16.2553 1.25274 17.1082 2.30476 17.1082V15.1082ZM4.9242 15.2033C4.9242 15.1508 4.9668 15.1082 5.01934 15.1082V17.1082C6.07137 17.1082 6.9242 16.2553 6.9242 15.2033H4.9242ZM5.01934 12.5839C4.9668 12.5839 4.9242 12.5413 4.9242 12.4887H6.9242C6.9242 11.4367 6.07137 10.5839 5.01934 10.5839V12.5839ZM2.30476 10.5839C1.25274 10.5839 0.399902 11.4367 0.399902 12.4887H2.3999C2.3999 12.5413 2.35731 12.5839 2.30476 12.5839V10.5839ZM16.9805 12.5839H19.695V10.5839H16.9805V12.5839ZM19.5999 12.4887V15.2033H21.5999V12.4887H19.5999ZM19.695 15.1082H16.9805V17.1082H19.695V15.1082ZM17.0756 15.2033V12.4887H15.0756V15.2033H17.0756ZM16.9805 15.1082C17.033 15.1082 17.0756 15.1507 17.0756 15.2033H15.0756C15.0756 16.2553 15.9284 17.1082 16.9805 17.1082V15.1082ZM19.5999 15.2033C19.5999 15.1508 19.6425 15.1082 19.695 15.1082V17.1082C20.7471 17.1082 21.5999 16.2553 21.5999 15.2033H19.5999ZM19.695 12.5839C19.6425 12.5839 19.5999 12.5413 19.5999 12.4887H21.5999C21.5999 11.4367 20.7471 10.5839 19.695 10.5839V12.5839ZM16.9805 10.5839C15.9284 10.5839 15.0756 11.4367 15.0756 12.4887H17.0756C17.0756 12.5413 17.033 12.5839 16.9805 12.5839V10.5839ZM8.12626 2.63451H2.62288V4.63451H8.12626V2.63451ZM19.3999 2.63451H13.6297V4.63451H19.3999V2.63451ZM2.84585 10.3609V11.5839H4.84585V10.3609H2.84585ZM17.5216 10.3609V11.5839H19.5216V10.3609H17.5216ZM4.84585 10.3609C4.84585 8.01623 6.11851 5.96766 8.0155 4.8703L7.01405 3.13909C4.52447 4.57924 2.84585 7.27343 2.84585 10.3609H4.84585ZM14.3519 4.8703C16.2489 5.96766 17.5216 8.01623 17.5216 10.3609H19.5216C19.5216 7.27343 17.8429 4.57924 15.3534 3.13909L14.3519 4.8703Z" fill="black"/>
</svg>
