<svg width="22" height="22" viewBox="0 0 22 22" fill="none" xmlns="http://www.w3.org/2000/svg">
<path id="camera-off-icon" d="M1.3999 6.97995V16.82C1.3999 18.1454 2.47442 19.22 3.7999 19.22H13.3999M4.9999 4.57995H6.1999L7.8799 1.69995H14.1199L15.7999 4.57995H18.1999C19.5254 4.57995 20.5999 5.65447 20.5999 6.97995V16.82C20.5999 17.7083 20.1173 18.4839 19.3999 18.8989M13.6832 13.7C14.2533 13.063 14.5999 12.222 14.5999 11.3C14.5999 9.31173 12.9881 7.69995 10.9999 7.69995C10.0779 7.69995 9.23681 8.04658 8.5999 8.61662M10.3999 14.8502C8.84265 14.5889 7.62441 13.3279 7.42772 11.7497M19.9999 20.3L1.9999 1.69995" stroke="black" stroke-width="2" stroke-linecap="round" stroke-linejoin="round"/>
</svg>
