<svg width="22" height="20" viewBox="0 0 22 20" fill="none" xmlns="http://www.w3.org/2000/svg">
<path id="camera-02-icon" d="M2.3999 16.12V3.87998H0.399902V16.12H2.3999ZM3.7999 2.47998H18.1999V0.47998H3.7999V2.47998ZM19.5999 3.87998V16.12H21.5999V3.87998H19.5999ZM19.5999 16.12C19.5999 16.8932 18.9731 17.52 18.1999 17.52V19.52C20.0777 19.52 21.5999 17.9978 21.5999 16.12H19.5999ZM18.1999 2.47998C18.9731 2.47998 19.5999 3.10678 19.5999 3.87998H21.5999C21.5999 2.00221 20.0777 0.47998 18.1999 0.47998V2.47998ZM2.3999 3.87998C2.3999 3.10678 3.0267 2.47998 3.7999 2.47998V0.47998C1.92213 0.47998 0.399902 2.00221 0.399902 3.87998H2.3999ZM3.7999 17.52C3.0267 17.52 2.3999 16.8932 2.3999 16.12H0.399902C0.399902 17.9978 1.92213 19.52 3.7999 19.52V17.52ZM13.5999 10.0001C13.5999 11.436 12.4358 12.6001 10.9999 12.6001V14.6001C13.5404 14.6001 15.5999 12.5406 15.5999 10.0001H13.5999ZM10.9999 12.6001C9.56396 12.6001 8.3999 11.436 8.3999 10.0001H6.3999C6.3999 12.5406 8.45939 14.6001 10.9999 14.6001V12.6001ZM8.3999 10.0001C8.3999 8.56416 9.56396 7.4001 10.9999 7.4001V5.4001C8.45939 5.4001 6.3999 7.45959 6.3999 10.0001H8.3999ZM10.9999 7.4001C12.4358 7.4001 13.5999 8.56416 13.5999 10.0001H15.5999C15.5999 7.45959 13.5404 5.4001 10.9999 5.4001V7.4001ZM18.1999 17.52H3.7999V19.52H18.1999V17.52Z" fill="black"/>
</svg>
