<svg width="22" height="21" viewBox="0 0 22 21" fill="none" xmlns="http://www.w3.org/2000/svg">
<path id="cart-icon" d="M1.3999 -0.00732422C0.847618 -0.00732422 0.399902 0.440391 0.399902 0.992676C0.399902 1.54496 0.847618 1.99268 1.3999 1.99268V-0.00732422ZM3.69244 0.992676L4.65767 0.73126C4.53961 0.295358 4.14405 -0.00732422 3.69244 -0.00732422V0.992676ZM7.41781 14.7479L6.45259 15.0093C6.58285 15.4903 7.04737 15.802 7.54185 15.7402L7.41781 14.7479ZM18.8805 13.3151L19.0045 14.3073C19.4292 14.2543 19.773 13.9368 19.8598 13.5177L18.8805 13.3151ZM20.5999 5.00462L21.5792 5.20722C21.6401 4.91271 21.5652 4.60641 21.3753 4.37319C21.1854 4.13998 20.9007 4.00462 20.5999 4.00462V5.00462ZM4.77901 5.00462L3.81378 5.26603L3.81378 5.26603L4.77901 5.00462ZM1.3999 1.99268H3.69244V-0.00732422H1.3999V1.99268ZM7.54185 15.7402L19.0045 14.3073L18.7565 12.3228L7.29378 13.7556L7.54185 15.7402ZM19.8598 13.5177L21.5792 5.20722L19.6206 4.80201L17.9012 13.1125L19.8598 13.5177ZM2.72721 1.25409L3.81378 5.26603L5.74423 4.7432L4.65767 0.73126L2.72721 1.25409ZM3.81378 5.26603L6.45259 15.0093L8.38304 14.4865L5.74423 4.7432L3.81378 5.26603ZM20.5999 4.00462H4.77901V6.00462H20.5999V4.00462ZM9.9999 18.4999C9.9999 18.7761 9.77605 18.9999 9.4999 18.9999V20.9999C10.8806 20.9999 11.9999 19.8807 11.9999 18.4999H9.9999ZM9.4999 18.9999C9.22376 18.9999 8.9999 18.7761 8.9999 18.4999H6.9999C6.9999 19.8807 8.11919 20.9999 9.4999 20.9999V18.9999ZM8.9999 18.4999C8.9999 18.2238 9.22376 17.9999 9.4999 17.9999V15.9999C8.11919 15.9999 6.9999 17.1192 6.9999 18.4999H8.9999ZM9.4999 17.9999C9.77605 17.9999 9.9999 18.2238 9.9999 18.4999H11.9999C11.9999 17.1192 10.8806 15.9999 9.4999 15.9999V17.9999ZM17.9999 18.4999C17.9999 18.7761 17.776 18.9999 17.4999 18.9999V20.9999C18.8806 20.9999 19.9999 19.8807 19.9999 18.4999H17.9999ZM17.4999 18.9999C17.2238 18.9999 16.9999 18.7761 16.9999 18.4999H14.9999C14.9999 19.8807 16.1192 20.9999 17.4999 20.9999V18.9999ZM16.9999 18.4999C16.9999 18.2238 17.2238 17.9999 17.4999 17.9999V15.9999C16.1192 15.9999 14.9999 17.1192 14.9999 18.4999H16.9999ZM17.4999 17.9999C17.776 17.9999 17.9999 18.2238 17.9999 18.4999H19.9999C19.9999 17.1192 18.8806 15.9999 17.4999 15.9999V17.9999Z" fill="black"/>
</svg>
