<svg width="20" height="16" viewBox="0 0 20 16" fill="none" xmlns="http://www.w3.org/2000/svg">
<path id="chromecast-icon" d="M1 15H1.012M5 15C5 13.9391 4.57857 12.9217 3.82843 12.1716C3.07828 11.4214 2.06087 11 1 11M9 15C9 12.8783 8.15714 10.8434 6.65685 9.34315C5.15656 7.84286 3.12173 7 1 7M13 15H16C16.7956 15 17.5587 14.6839 18.1213 14.1213C18.6839 13.5587 19 12.7957 19 12V4C19 3.20435 18.6839 2.44129 18.1213 1.87868C17.5587 1.31607 16.7956 1 16 1H4C3.38448 1.00584 2.78565 1.20088 2.28476 1.55866C1.78387 1.91644 1.40515 2.41965 1.2 3" stroke="black" stroke-width="2" stroke-linecap="round" stroke-linejoin="round"/>
</svg>
