<svg width="24" height="22" viewBox="0 0 24 22" fill="none" xmlns="http://www.w3.org/2000/svg">
<path id="colors-01-icon" d="M5.2001 8.44326C3.06871 9.4819 1.6001 11.6694 1.6001 14.1999C1.6001 17.7345 4.46547 20.5999 8.0001 20.5999C11.5347 20.5999 14.4001 17.7345 14.4001 14.1999C14.4001 13.9289 14.3833 13.6619 14.3506 13.3999M12.4001 19.4922C13.4258 20.1912 14.6652 20.5999 16.0001 20.5999C19.5347 20.5999 22.4001 17.7345 22.4001 14.1999C22.4001 11.4503 20.6662 9.10576 18.2322 8.1999M18.4001 7.7999C18.4001 11.3345 15.5347 14.1999 12.0001 14.1999C8.46547 14.1999 5.6001 11.3345 5.6001 7.7999C5.6001 4.26528 8.46547 1.3999 12.0001 1.3999C15.5347 1.3999 18.4001 4.26528 18.4001 7.7999Z" stroke="black" stroke-width="2"/>
</svg>
