<svg width="14" height="18" viewBox="0 0 14 18" fill="none" xmlns="http://www.w3.org/2000/svg">
<path id="currency-pound-icon" d="M12.05 15.4652C11.2655 15.8247 10.4128 16.0108 9.54995 16.0108C8.68708 16.0108 7.83435 15.8247 7.04995 15.4652C6.22993 15.1821 5.35828 15.0802 4.49509 15.1665C3.63189 15.2528 2.79768 15.5253 2.04995 15.9652C2.58538 15.7798 3.05737 15.4467 3.41132 15.0042C3.76526 14.5618 3.98668 14.0282 4.04995 13.4652V5.96515C4.05523 5.08908 4.34798 4.23897 4.88324 3.54541C5.41849 2.85185 6.16665 2.35319 7.01277 2.12605C7.8589 1.8989 8.7562 1.95582 9.56684 2.28807C10.3775 2.62032 11.0566 3.20951 11.5 3.96515M8.94995 9.96515H1.94995" stroke="black" stroke-width="2" stroke-linecap="round" stroke-linejoin="round"/>
</svg>
