<svg width="22" height="22" viewBox="0 0 22 22" fill="none" xmlns="http://www.w3.org/2000/svg">
<path id="currency-coin-pound-icon" d="M14.5999 15.1087C14.0407 15.365 13.4328 15.4977 12.8177 15.4977C12.2026 15.4977 11.5947 15.365 11.0355 15.1087C10.451 14.9069 9.8296 14.8343 9.21426 14.8958C8.59891 14.9574 8.00422 15.1516 7.47119 15.4652C7.85288 15.333 8.18935 15.0955 8.44167 14.7802C8.69399 14.4648 8.85183 14.0844 8.89693 13.683V8.33644C8.90069 7.71192 9.10939 7.1059 9.49096 6.61148C9.87253 6.11706 10.4059 5.76158 11.009 5.59965C11.6122 5.43772 12.2519 5.4783 12.8298 5.71515C13.4076 5.952 13.8918 6.37202 14.2078 6.9107M12.39 11.1879H7.3999M20.5999 10.9999C20.5999 16.3018 16.3018 20.5999 10.9999 20.5999C5.69797 20.5999 1.3999 16.3018 1.3999 10.9999C1.3999 5.69797 5.69797 1.3999 10.9999 1.3999C16.3018 1.3999 20.5999 5.69797 20.5999 10.9999Z" stroke="black" stroke-width="2" stroke-linecap="round" stroke-linejoin="round"/>
</svg>
