<svg width="22" height="22" viewBox="0 0 22 22" fill="none" xmlns="http://www.w3.org/2000/svg">
<path id="currency-coin-rubel-icon" d="M8.32717 15.7999V6.19991H12.909C13.5166 6.19991 14.0993 6.41664 14.5289 6.80243C14.9585 7.18822 15.1999 7.71146 15.1999 8.25705C15.1999 8.80264 14.9585 9.32588 14.5289 9.71167C14.0993 10.0975 13.5166 10.3142 12.909 10.3142H6.7999M12.909 13.057H6.7999M20.5999 10.9999C20.5999 16.3018 16.3018 20.5999 10.9999 20.5999C5.69797 20.5999 1.3999 16.3018 1.3999 10.9999C1.3999 5.69797 5.69797 1.3999 10.9999 1.3999C16.3018 1.3999 20.5999 5.69797 20.5999 10.9999Z" stroke="black" stroke-width="2" stroke-linecap="round" stroke-linejoin="round"/>
</svg>
