<svg width="22" height="22" viewBox="0 0 22 22" fill="none" xmlns="http://www.w3.org/2000/svg">
<path id="data-01-icon" d="M5.2399 11C5.2399 12.0604 4.38029 12.92 3.3199 12.92C2.25952 12.92 1.3999 12.0604 1.3999 11C1.3999 9.93961 2.25952 9.07999 3.3199 9.07999C4.38029 9.07999 5.2399 9.93961 5.2399 11ZM5.2399 11H16.7599M16.7599 11C16.7599 12.0604 17.6195 12.92 18.6799 12.92C19.7403 12.92 20.5999 12.0604 20.5999 11C20.5999 9.93961 19.7403 9.07999 18.6799 9.07999C17.6195 9.07999 16.7599 9.93961 16.7599 11ZM16.7599 3.31999C16.7599 4.38038 17.6195 5.23999 18.6799 5.23999C19.7403 5.23999 20.5999 4.38038 20.5999 3.31999C20.5999 2.25961 19.7403 1.39999 18.6799 1.39999C17.6195 1.39999 16.7599 2.25961 16.7599 3.31999ZM16.7599 3.31999H11.2399C10.7097 3.31999 10.2799 3.7498 10.2799 4.27999V17.72C10.2799 18.2502 10.7097 18.68 11.2399 18.68H16.7599M16.7599 18.68C16.7599 19.7404 17.6195 20.6 18.6799 20.6C19.7403 20.6 20.5999 19.7404 20.5999 18.68C20.5999 17.6196 19.7403 16.76 18.6799 16.76C17.6195 16.76 16.7599 17.6196 16.7599 18.68Z" stroke="black" stroke-width="2" stroke-linecap="round"/>
</svg>
