<svg width="22" height="22" viewBox="0 0 22 22" fill="none" xmlns="http://www.w3.org/2000/svg">
<path id="data-04-icon" d="M10.9999 16.4V10.4M18.6799 16.76C17.6195 16.76 16.7599 17.6196 16.7599 18.68C16.7599 19.7404 17.6195 20.6 18.6799 20.6C19.7403 20.6 20.5999 19.7404 20.5999 18.68C20.5999 17.6196 19.7403 16.76 18.6799 16.76ZM18.6799 16.76L18.6799 11.24C18.6799 10.7098 18.2501 10.28 17.7199 10.28H4.2799C3.74971 10.28 3.3199 10.7098 3.3199 11.24L3.3199 16.76M3.3199 16.76C2.25951 16.76 1.3999 17.6196 1.3999 18.68C1.3999 19.7404 2.25951 20.6 3.3199 20.6C4.38029 20.6 5.2399 19.7404 5.2399 18.68C5.2399 17.6196 4.38029 16.76 3.3199 16.76ZM10.9999 20.6C9.93951 20.6 9.0799 19.7404 9.0799 18.68C9.0799 17.6196 9.93951 16.76 10.9999 16.76C12.0603 16.76 12.9199 17.6196 12.9199 18.68C12.9199 19.7404 12.0603 20.6 10.9999 20.6ZM4.9999 6.19999H16.9999C17.6626 6.19999 18.1999 5.66273 18.1999 4.99999V2.59999C18.1999 1.93725 17.6626 1.39999 16.9999 1.39999H4.9999C4.33716 1.39999 3.7999 1.93725 3.7999 2.59999V4.99999C3.7999 5.66273 4.33716 6.19999 4.9999 6.19999Z" stroke="black" stroke-width="2" stroke-linecap="round"/>
</svg>
