<svg width="20" height="14" viewBox="0 0 20 14" fill="none" xmlns="http://www.w3.org/2000/svg">
<path id="embed-icon" d="M3.67639 11.1212C4.07161 11.507 4.70473 11.4994 5.0905 11.1041C5.47628 10.7089 5.46862 10.0758 5.0734 9.69002L3.67639 11.1212ZM1 7.1114L0.301497 6.39579C0.108705 6.58398 3.21068e-08 6.84199 0 7.1114C-3.21068e-08 7.38081 0.108705 7.63882 0.301497 7.82701L1 7.1114ZM5.0734 4.53278C5.46862 4.14701 5.47628 3.51389 5.0905 3.11867C4.70473 2.72345 4.07161 2.71579 3.67639 3.10156L5.0734 4.53278ZM16.3236 3.10156C15.9284 2.71579 15.2953 2.72345 14.9095 3.11867C14.5237 3.51389 14.5314 4.14701 14.9266 4.53278L16.3236 3.10156ZM19 7.1114L19.6985 7.82701C19.8913 7.63882 20 7.38081 20 7.1114C20 6.84199 19.8913 6.58398 19.6985 6.39579L19 7.1114ZM14.9266 9.69002C14.5314 10.0758 14.5237 10.7089 14.9095 11.1041C15.2953 11.4994 15.9284 11.507 16.3236 11.1212L14.9266 9.69002ZM7.42671 12.7365C7.2812 13.2693 7.59515 13.8192 8.12792 13.9647C8.66069 14.1102 9.21055 13.7962 9.35605 13.2635L7.42671 12.7365ZM9.99973 7.11086L9.03573 6.84493L9.03506 6.84741L9.99973 7.11086ZM12.6495 1.26593C12.7964 0.733534 12.4838 0.182879 11.9514 0.0360083C11.419 -0.110862 10.8684 0.20167 10.7215 0.734068L12.6495 1.26593ZM5.0734 9.69002L1.6985 6.39579L0.301497 7.82701L3.67639 11.1212L5.0734 9.69002ZM1.6985 7.82701L5.0734 4.53278L3.67639 3.10156L0.301497 6.39579L1.6985 7.82701ZM14.9266 4.53278L18.3015 7.82701L19.6985 6.39579L16.3236 3.10156L14.9266 4.53278ZM18.3015 6.39579L14.9266 9.69002L16.3236 11.1212L19.6985 7.82701L18.3015 6.39579ZM9.35605 13.2635L10.9644 7.37432L9.03506 6.84741L7.42671 12.7365L9.35605 13.2635ZM10.9637 7.3768L12.6495 1.26593L10.7215 0.734068L9.03573 6.84493L10.9637 7.3768Z" fill="black"/>
</svg>
