<svg width="22" height="22" viewBox="0 0 22 22" fill="none" xmlns="http://www.w3.org/2000/svg">
<path id="face-id-01-icon" d="M7.7999 1.3999H3.53324C2.35503 1.3999 1.3999 2.35503 1.3999 3.53324V7.7999M7.7999 20.5999H3.53324C2.35503 20.5999 1.3999 19.6448 1.3999 18.4666V14.1999M14.1999 1.3999H18.4666C19.6448 1.3999 20.5999 2.35503 20.5999 3.53324V7.7999M20.5999 14.1999V18.4666C20.5999 19.6448 19.6448 20.5999 18.4666 20.5999H14.1999M6.7999 8.16513V6.99514M15.1999 8.16513V6.99514M7.65256 14.6001C9.02072 15.6602 12.0888 15.6602 14.0006 14.6001M10.3999 11.6751L10.6484 11.4328C10.8735 11.2134 10.9999 10.9158 10.9999 10.6055V7.58014" stroke="black" stroke-width="2" stroke-linecap="round"/>
</svg>
