<svg width="18" height="22" viewBox="0 0 18 22" fill="none" xmlns="http://www.w3.org/2000/svg">
<path id="file-shield-02-icon" d="M7.19995 20.5999H4.79995C2.81173 20.5999 1.19995 18.9881 1.19995 16.9999V4.9999C1.19995 3.01168 2.81173 1.3999 4.79995 1.3999H13.2C15.1882 1.3999 16.8 3.01168 16.8 4.9999V7.9999M12.6 6.1999H4.79995M8.99995 9.7999H4.79995M7.19995 13.3999H4.79995M10.8 13.6999L12.19 13.0049C13.2035 12.4981 14.3964 12.4981 15.4099 13.0049L16.8 13.6999C16.8 13.6999 16.8 15.8899 16.8 17.0449C16.8 18.1999 15.7323 18.9796 13.8 20.1999C11.8676 18.9796 10.8 17.9499 10.8 17.0449V13.6999Z" stroke="black" stroke-width="2" stroke-linecap="round" stroke-linejoin="round"/>
</svg>
