<svg width="20" height="24" viewBox="0 0 20 24" fill="none" xmlns="http://www.w3.org/2000/svg">
<path id="file-none-icon" d="M13.0001 2.39995V5.99995C13.0001 6.66269 13.5374 7.19995 14.2001 7.19995H17.8001M13.0001 2.39995H13.6695C14.0075 2.39995 14.3291 2.54229 14.5619 2.78723C14.9118 3.15533 15.466 3.72209 16.0001 4.19995C16.4187 4.57447 17.0763 5.2466 17.4701 5.65508C17.683 5.87599 17.8001 6.17094 17.8001 6.47778L17.8001 7.19995M13.0001 2.39995H3.99972M17.8001 7.19995L17.7999 20.9999M2.19972 8.39995V19.1999C2.19971 20.5254 3.27423 21.5999 4.59971 21.5999H12.3997M18.4001 22.7999L1.6001 1.19995" stroke="black" stroke-width="2" stroke-linecap="round" stroke-linejoin="round"/>
</svg>
