<svg width="20" height="22" viewBox="0 0 20 22" fill="none" xmlns="http://www.w3.org/2000/svg">
<path id="file-search-02-icon" d="M9.4 20.6001H3.39999C2.0745 20.6001 0.999991 19.5256 1 18.2001L1.00009 3.80013C1.0001 2.47466 2.07462 1.40015 3.40009 1.40015H14.2004C15.5258 1.40015 16.6004 2.47466 16.6004 3.80015V8.60015M17.8 18.8001L19 20.0001M5.20037 6.20015H12.4004M5.20037 9.80015H12.4004M5.20037 13.4001H8.80038M18.4 16.4001C18.4 18.057 17.0569 19.4001 15.4 19.4001C13.7431 19.4001 12.4 18.057 12.4 16.4001C12.4 14.7433 13.7431 13.4001 15.4 13.4001C17.0569 13.4001 18.4 14.7433 18.4 16.4001Z" stroke="black" stroke-width="2" stroke-linecap="round" stroke-linejoin="round"/>
</svg>
