<svg width="18" height="22" viewBox="0 0 18 22" fill="none" xmlns="http://www.w3.org/2000/svg">
<path id="file-branch-icon" d="M6.0666 19.1699C6.61889 19.1699 7.0666 18.7222 7.0666 18.1699C7.0666 17.6177 6.61889 17.1699 6.0666 17.1699V19.1699ZM1.26718 14.9701L0.267184 14.9701L1.26718 14.9701ZM2.2666 1.39986C2.26658 0.847575 1.81884 0.399879 1.26656 0.399902C0.714274 0.399926 0.266578 0.847661 0.266602 1.39995L2.2666 1.39986ZM6.0666 7.31677C6.61889 7.31677 7.0666 6.86906 7.0666 6.31677C7.0666 5.76449 6.61889 5.31677 6.0666 5.31677V7.31677ZM15.6666 8.86657L15.6666 7.86657L15.6666 7.86657L15.6666 8.86657ZM10.8666 8.86655L10.8666 9.86655L10.8666 9.86655L10.8666 8.86655ZM16.7334 1.3999L17.7334 1.39992C17.7334 1.1347 17.6281 0.880344 17.4405 0.692803C17.253 0.505262 16.9987 0.399902 16.7334 0.399902V1.3999ZM16.7333 7.79993L17.7333 7.79995L17.7333 7.79995L16.7333 7.79993ZM9.79993 7.79987L8.79993 7.79987L8.79993 7.79987L9.79993 7.79987ZM9.79997 3.53324L9.1356 2.78583C8.92212 2.9756 8.79997 3.2476 8.79997 3.53323L9.79997 3.53324ZM12.1999 1.3999V0.399902C11.955 0.399902 11.7186 0.489783 11.5356 0.652498L12.1999 1.3999ZM15.6666 20.5999L15.6666 19.5999L15.6666 19.5999L15.6666 20.5999ZM10.8666 20.5999L10.8666 21.5999L10.8666 21.5999L10.8666 20.5999ZM16.7334 13.1332L17.7334 13.1333C17.7334 12.868 17.6281 12.6137 17.4405 12.4261C17.253 12.2386 16.9987 12.1332 16.7334 12.1332V13.1332ZM16.7333 19.5333L17.7333 19.5333L17.7333 19.5333L16.7333 19.5333ZM9.79993 19.5332L8.79993 19.5332L8.79993 19.5332L9.79993 19.5332ZM9.79997 15.2666L9.1356 14.5192C8.92212 14.7089 8.79997 14.9809 8.79997 15.2666L9.79997 15.2666ZM12.1999 13.1332V12.1332C11.955 12.1332 11.7186 12.2231 11.5356 12.3858L12.1999 13.1332ZM6.0666 17.1699H4.46718V19.1699H6.0666V17.1699ZM2.26718 14.97L2.26681 6.31673L0.266813 6.31681L0.267184 14.9701L2.26718 14.97ZM2.26681 6.31673L2.2666 1.39986L0.266602 1.39995L0.266813 6.31681L2.26681 6.31673ZM6.0666 5.31677H1.26681V7.31677H6.0666V5.31677ZM4.46718 17.1699C3.25219 17.1699 2.26724 16.185 2.26718 14.97L0.267184 14.9701C0.267284 17.2896 2.14766 19.1699 4.46718 19.1699V17.1699ZM15.6666 7.86657L10.8666 7.86655L10.8666 9.86655L15.6666 9.86657L15.6666 7.86657ZM15.7334 1.39988L15.7333 7.79991L17.7333 7.79995L17.7334 1.39992L15.7334 1.39988ZM15.6666 9.86657C16.808 9.86657 17.7333 8.94132 17.7333 7.79995L15.7333 7.7999C15.7333 7.83672 15.7034 7.86657 15.6666 7.86657L15.6666 9.86657ZM8.79993 7.79987C8.79993 8.94126 9.7252 9.86654 10.8666 9.86655L10.8666 7.86655C10.8298 7.86655 10.7999 7.8367 10.7999 7.79988L8.79993 7.79987ZM10.7999 7.79988L10.8 3.53324L8.79997 3.53323L8.79993 7.79987L10.7999 7.79988ZM12.1999 2.3999H16.7334V0.399902H12.1999V2.3999ZM11.5356 0.652498L9.1356 2.78583L10.4643 4.28064L12.8643 2.14731L11.5356 0.652498ZM15.6666 19.5999L10.8666 19.5999L10.8666 21.5999L15.6666 21.5999L15.6666 19.5999ZM15.7334 13.1332L15.7333 19.5332L17.7333 19.5333L17.7334 13.1333L15.7334 13.1332ZM15.6666 21.5999C16.808 21.5999 17.7333 20.6747 17.7333 19.5333L15.7333 19.5332C15.7333 19.5701 15.7034 19.5999 15.6666 19.5999L15.6666 21.5999ZM8.79993 19.5332C8.79993 20.6746 9.7252 21.5999 10.8666 21.5999L10.8666 19.5999C10.8298 19.5999 10.7999 19.57 10.7999 19.5332L8.79993 19.5332ZM10.7999 19.5332L10.8 15.2666L8.79997 15.2666L8.79993 19.5332L10.7999 19.5332ZM12.1999 14.1332H16.7334V12.1332H12.1999V14.1332ZM11.5356 12.3858L9.1356 14.5192L10.4643 16.014L12.8643 13.8806L11.5356 12.3858Z" fill="black"/>
</svg>
