<svg width="20" height="22" viewBox="0 0 20 22" fill="none" xmlns="http://www.w3.org/2000/svg">
<path id="fingerpint-02-icon" d="M3.72979 5.25876C2.98693 6.45395 2.60011 7.81562 2.60011 9.20289C2.60011 9.48035 2.65725 11.2561 2.65725 11.2561C2.65725 12.5921 2.29681 13.9068 1.60669 15.0679M14.2067 9.20289C14.2023 7.39303 13.0067 5.25876 10.5253 5.25876C8.04385 5.25876 6.59115 7.29476 6.58676 9.10036V10.1931C6.58676 12.7926 6.28757 15.2813 4.67875 17.36M7.53622 20.5999C9.49669 17.8595 10.5472 14.6026 10.5472 11.2646V9.06202M12.2946 19.585C13.0067 18.7999 14.2067 15.1999 14.2067 12.7999M17.4265 17.4838C18.077 15.3623 18.3935 11.2517 18.3935 9.0406C18.3935 4.83181 14.8858 1.41271 10.5472 1.3999H10.5253C9.14503 1.3999 7.78677 1.75419 6.58676 2.42435" stroke="black" stroke-width="2" stroke-linecap="round" stroke-linejoin="round"/>
</svg>
