<svg width="20" height="20" viewBox="0 0 20 20" fill="none" xmlns="http://www.w3.org/2000/svg">
<path id="flex-rows-icon" d="M15.0625 7.75V4.9375M11.6875 7.75V4.9375M8.3125 15.0625V12.25M4.9375 15.0625V12.25M8.3125 7.75V4.9375M4.9375 7.75L4.9375 4.9375M15.625 1L4.375 1C2.51104 1 1 2.51104 1 4.375C1 6.23896 1 13.761 1 15.625C1 17.489 2.51104 19 4.375 19C4.375 19 13.761 19 15.625 19C17.489 19 19 17.489 19 15.625V4.375C19 2.51104 17.489 1 15.625 1Z" stroke="black" stroke-width="2" stroke-linecap="round" stroke-linejoin="round"/>
</svg>
