<svg width="22" height="18" viewBox="0 0 22 18" fill="none" xmlns="http://www.w3.org/2000/svg">
<path id="folder-code-icon" d="M8.69279 13.5073C9.08332 13.8978 9.71648 13.8978 10.107 13.5073C10.4975 13.1168 10.4975 12.4836 10.107 12.0931L8.69279 13.5073ZM7.3999 10.8002L6.69279 10.0931C6.30227 10.4836 6.30227 11.1168 6.69279 11.5073L7.3999 10.8002ZM10.107 9.50731C10.4975 9.11679 10.4975 8.48362 10.107 8.0931C9.71648 7.70257 9.08332 7.70257 8.69279 8.0931L10.107 9.50731ZM13.307 8.0931C12.9165 7.70257 12.2833 7.70257 11.8928 8.0931C11.5023 8.48362 11.5023 9.11679 11.8928 9.50731L13.307 8.0931ZM14.5999 10.8002L15.307 11.5073C15.6975 11.1168 15.6975 10.4836 15.307 10.0931L14.5999 10.8002ZM11.8928 12.0931C11.5023 12.4836 11.5023 13.1168 11.8928 13.5073C12.2833 13.8978 12.9165 13.8978 13.307 13.5073L11.8928 12.0931ZM2.77133 2.20001H8.25704V0.200012H2.77133V2.20001ZM8.62847 2.60001V5.00001H10.6285V2.60001H8.62847ZM8.62847 5.00001V5.20001H10.6285V5.00001H8.62847ZM8.25704 2.20001C8.44284 2.20001 8.62847 2.35956 8.62847 2.60001H10.6285C10.6285 1.29407 9.58609 0.200012 8.25704 0.200012V2.20001ZM2.77133 0.200012C1.44229 0.200012 0.399902 1.29407 0.399902 2.60001H2.3999C2.3999 2.35956 2.58553 2.20001 2.77133 2.20001V0.200012ZM1.3999 6.00001H9.62847V4.00001H1.3999V6.00001ZM9.62847 6.00001H19.2285V4.00001H9.62847V6.00001ZM19.5999 6.40001V15.4H21.5999V6.40001H19.5999ZM19.2285 15.8H2.77133V17.8H19.2285V15.8ZM2.3999 15.4V5.00001H0.399902V15.4H2.3999ZM2.77133 15.8C2.58554 15.8 2.3999 15.6405 2.3999 15.4H0.399902C0.399902 16.706 1.44229 17.8 2.77133 17.8V15.8ZM19.5999 15.4C19.5999 15.6405 19.4143 15.8 19.2285 15.8V17.8C20.5575 17.8 21.5999 16.706 21.5999 15.4H19.5999ZM19.2285 6.00001C19.4143 6.00001 19.5999 6.15956 19.5999 6.40001H21.5999C21.5999 5.09407 20.5575 4.00001 19.2285 4.00001V6.00001ZM10.107 12.0931L8.10701 10.0931L6.69279 11.5073L8.69279 13.5073L10.107 12.0931ZM8.10701 11.5073L10.107 9.50731L8.69279 8.0931L6.69279 10.0931L8.10701 11.5073ZM11.8928 9.50731L13.8928 11.5073L15.307 10.0931L13.307 8.0931L11.8928 9.50731ZM13.8928 10.0931L11.8928 12.0931L13.307 13.5073L15.307 11.5073L13.8928 10.0931ZM2.3999 5.00001V2.60001H0.399902V5.00001H2.3999Z" fill="black"/>
</svg>
