<svg width="22" height="22" viewBox="0 0 22 22" fill="none" xmlns="http://www.w3.org/2000/svg">
<path id="folder-open-03-icon" d="M4.39974 4.32959V2.52959C4.39974 1.86685 4.937 1.32959 5.59974 1.32959H16.9997C17.6625 1.32959 18.1997 1.86685 18.1997 2.52959V7.32959M1.40068 18.2706L1.40077 9.14627C1.40078 8.23235 1.40044 6.93062 1.40015 5.98807C1.39994 5.32515 1.93728 4.78838 2.60019 4.78838H8.31841L11.0834 7.74202H19.3997C20.0625 7.74202 20.5997 8.2793 20.5997 8.94205L20.5994 18.2707C20.5994 19.5962 19.5249 20.6707 18.1994 20.6707L3.80068 20.6706C2.47519 20.6706 1.40067 19.5961 1.40068 18.2706Z" stroke="black" stroke-width="2" stroke-linecap="round" stroke-linejoin="round"/>
</svg>
