<svg width="22" height="22" viewBox="0 0 22 22" fill="none" xmlns="http://www.w3.org/2000/svg">
<path id="folder-shield-icon" d="M20.5997 8.20008L21.5997 8.20003L21.5997 8.20003L20.5997 8.20008ZM20.6001 17.7999L19.6001 17.8L19.6001 17.8L20.6001 17.7999ZM1.39966 17.7999L0.399658 17.7999L1.39966 17.7999ZM18.1997 5.80019L18.1997 4.80019L18.1997 4.80019L18.1997 5.80019ZM8.97395 2.82374L9.79318 2.25028L9.79318 2.25028L8.97395 2.82374ZM8.00078 10.2553L7.55357 9.36085C7.21479 9.53025 7.00078 9.87651 7.00078 10.2553H8.00078ZM11.0008 16.7553L10.4668 17.6008C10.793 17.8068 11.2086 17.8068 11.5347 17.6008L11.0008 16.7553ZM14.0008 10.2553H15.0008C15.0008 9.87651 14.7868 9.53025 14.448 9.36085L14.0008 10.2553ZM9.39081 9.56027L9.83803 10.4547L9.83803 10.4547L9.39081 9.56027ZM12.6108 9.56027L12.1635 10.4547L12.1635 10.4547L12.6108 9.56027ZM2.77165 2.80005H7.00779V0.800049H2.77165V2.80005ZM2.40023 5.80005V3.20005H0.400226V5.80005H2.40023ZM2.77165 0.800049C1.44261 0.800049 0.400226 1.8941 0.400226 3.20005H2.40023C2.40023 2.9596 2.58586 2.80005 2.77165 2.80005V0.800049ZM19.5997 8.20013L19.6001 17.8L21.6001 17.7999L21.5997 8.20003L19.5997 8.20013ZM18.2001 19.2H3.79966V21.2H18.2001V19.2ZM2.39966 17.8L2.40023 5.8001L0.400226 5.8L0.399658 17.7999L2.39966 17.8ZM18.1997 4.80019L11.0574 4.80005L11.0573 6.80005L18.1997 6.80019L18.1997 4.80019ZM8.15472 3.3972L10.2381 6.37351L11.8766 5.22659L9.79318 2.25028L8.15472 3.3972ZM19.6001 17.8C19.6001 18.5732 18.9733 19.2 18.2001 19.2V21.2C20.0779 21.2 21.6002 19.6777 21.6001 17.7999L19.6001 17.8ZM3.79966 19.2C3.02643 19.2 2.39962 18.5732 2.39966 17.8L0.399658 17.7999C0.399569 19.6777 1.92183 21.2 3.79966 21.2V19.2ZM21.5997 8.20003C21.5996 6.32236 20.0774 4.80023 18.1997 4.80019L18.1997 6.80019C18.9728 6.80021 19.5996 7.42697 19.5997 8.20013L21.5997 8.20003ZM7.00779 2.80005C7.46463 2.80005 7.89274 3.02294 8.15472 3.3972L9.79318 2.25028C9.15695 1.34137 8.11726 0.800049 7.00779 0.800049V2.80005ZM8.9436 8.66584L7.55357 9.36085L8.448 11.1497L9.83803 10.4547L8.9436 8.66584ZM7.00078 10.2553V13.6003H9.00078V10.2553H7.00078ZM7.00078 13.6003C7.00078 14.4463 7.49017 15.1712 8.0591 15.7565C8.64848 16.3629 9.47532 16.9746 10.4668 17.6008L11.5347 15.9098C10.5939 15.3156 9.92075 14.8024 9.49322 14.3625C9.04523 13.9017 9.00078 13.6593 9.00078 13.6003H7.00078ZM11.5347 17.6008C12.4871 16.9994 13.326 16.4472 13.9207 15.872C14.5426 15.2704 15.0008 14.5441 15.0008 13.6003H13.0008C13.0008 13.8115 12.9251 14.0525 12.5301 14.4345C12.1079 14.843 11.4468 15.2909 10.4668 15.9098L11.5347 17.6008ZM15.0008 13.6003C15.0008 13.598 15.0008 13.5958 15.0008 13.5935C15.0008 13.5912 15.0008 13.589 15.0008 13.5867C15.0008 13.5844 15.0008 13.5822 15.0008 13.5799C15.0008 13.5776 15.0008 13.5753 15.0008 13.573C15.0008 13.5707 15.0008 13.5684 15.0008 13.5662C15.0008 13.5639 15.0008 13.5616 15.0008 13.5593C15.0008 13.557 15.0008 13.5546 15.0008 13.5523C15.0008 13.55 15.0008 13.5477 15.0008 13.5454C15.0008 13.5431 15.0008 13.5408 15.0008 13.5384C15.0008 13.5361 15.0008 13.5338 15.0008 13.5314C15.0008 13.5291 15.0008 13.5268 15.0008 13.5244C15.0008 13.5221 15.0008 13.5198 15.0008 13.5174C15.0008 13.5151 15.0008 13.5127 15.0008 13.5104C15.0008 13.508 15.0008 13.5056 15.0008 13.5033C15.0008 13.5009 15.0008 13.4986 15.0008 13.4962C15.0008 13.4938 15.0008 13.4914 15.0008 13.4891C15.0008 13.4867 15.0008 13.4843 15.0008 13.4819C15.0008 13.4795 15.0008 13.4772 15.0008 13.4748C15.0008 13.4724 15.0008 13.47 15.0008 13.4676C15.0008 13.4652 15.0008 13.4628 15.0008 13.4604C15.0008 13.458 15.0008 13.4556 15.0008 13.4532C15.0008 13.4508 15.0008 13.4483 15.0008 13.4459C15.0008 13.4435 15.0008 13.4411 15.0008 13.4387C15.0008 13.4362 15.0008 13.4338 15.0008 13.4314C15.0008 13.4289 15.0008 13.4265 15.0008 13.4241C15.0008 13.4216 15.0008 13.4192 15.0008 13.4167C15.0008 13.4143 15.0008 13.4118 15.0008 13.4094C15.0008 13.4069 15.0008 13.4045 15.0008 13.402C15.0008 13.3996 15.0008 13.3971 15.0008 13.3946C15.0008 13.3922 15.0008 13.3897 15.0008 13.3872C15.0008 13.3848 15.0008 13.3823 15.0008 13.3798C15.0008 13.3773 15.0008 13.3749 15.0008 13.3724C15.0008 13.3699 15.0008 13.3674 15.0008 13.3649C15.0008 13.3624 15.0008 13.3599 15.0008 13.3574C15.0008 13.3549 15.0008 13.3524 15.0008 13.3499C15.0008 13.3474 15.0008 13.3449 15.0008 13.3424C15.0008 13.3399 15.0008 13.3374 15.0008 13.3349C15.0008 13.3324 15.0008 13.3299 15.0008 13.3273C15.0008 13.3248 15.0008 13.3223 15.0008 13.3198C15.0008 13.3172 15.0008 13.3147 15.0008 13.3122C15.0008 13.3096 15.0008 13.3071 15.0008 13.3046C15.0008 13.302 15.0008 13.2995 15.0008 13.2969C15.0008 13.2944 15.0008 13.2918 15.0008 13.2893C15.0008 13.2867 15.0008 13.2842 15.0008 13.2816C15.0008 13.2791 15.0008 13.2765 15.0008 13.2739C15.0008 13.2714 15.0008 13.2688 15.0008 13.2662C15.0008 13.2637 15.0008 13.2611 15.0008 13.2585C15.0008 13.256 15.0008 13.2534 15.0008 13.2508C15.0008 13.2482 15.0008 13.2456 15.0008 13.2431C15.0008 13.2405 15.0008 13.2379 15.0008 13.2353C15.0008 13.2327 15.0008 13.2301 15.0008 13.2275C15.0008 13.2249 15.0008 13.2223 15.0008 13.2197C15.0008 13.2171 15.0008 13.2145 15.0008 13.2119C15.0008 13.2093 15.0008 13.2067 15.0008 13.2041C15.0008 13.2015 15.0008 13.1989 15.0008 13.1962C15.0008 13.1936 15.0008 13.191 15.0008 13.1884C15.0008 13.1858 15.0008 13.1831 15.0008 13.1805C15.0008 13.1779 15.0008 13.1752 15.0008 13.1726C15.0008 13.17 15.0008 13.1673 15.0008 13.1647C15.0008 13.1621 15.0008 13.1594 15.0008 13.1568C15.0008 13.1541 15.0008 13.1515 15.0008 13.1488C15.0008 13.1462 15.0008 13.1435 15.0008 13.1409C15.0008 13.1382 15.0008 13.1356 15.0008 13.1329C15.0008 13.1303 15.0008 13.1276 15.0008 13.1249C15.0008 13.1223 15.0008 13.1196 15.0008 13.1169C15.0008 13.1143 15.0008 13.1116 15.0008 13.1089C15.0008 13.1063 15.0008 13.1036 15.0008 13.1009C15.0008 13.0982 15.0008 13.0956 15.0008 13.0929C15.0008 13.0902 15.0008 13.0875 15.0008 13.0848C15.0008 13.0821 15.0008 13.0794 15.0008 13.0768C15.0008 13.0741 15.0008 13.0714 15.0008 13.0687C15.0008 13.066 15.0008 13.0633 15.0008 13.0606C15.0008 13.0579 15.0008 13.0552 15.0008 13.0525C15.0008 13.0498 15.0008 13.0471 15.0008 13.0444C15.0008 13.0416 15.0008 13.0389 15.0008 13.0362C15.0008 13.0335 15.0008 13.0308 15.0008 13.0281C15.0008 13.0254 15.0008 13.0226 15.0008 13.0199C15.0008 13.0172 15.0008 13.0145 15.0008 13.0118C15.0008 13.009 15.0008 13.0063 15.0008 13.0036C15.0008 13.0008 15.0008 12.9981 15.0008 12.9954C15.0008 12.9926 15.0008 12.9899 15.0008 12.9872C15.0008 12.9844 15.0008 12.9817 15.0008 12.9789C15.0008 12.9762 15.0008 12.9735 15.0008 12.9707C15.0008 12.968 15.0008 12.9652 15.0008 12.9625C15.0008 12.9597 15.0008 12.957 15.0008 12.9542C15.0008 12.9515 15.0008 12.9487 15.0008 12.946C15.0008 12.9432 15.0008 12.9404 15.0008 12.9377C15.0008 12.9349 15.0008 12.9321 15.0008 12.9294C15.0008 12.9266 15.0008 12.9239 15.0008 12.9211C15.0008 12.9183 15.0008 12.9155 15.0008 12.9128C15.0008 12.91 15.0008 12.9072 15.0008 12.9045C15.0008 12.9017 15.0008 12.8989 15.0008 12.8961C15.0008 12.8933 15.0008 12.8906 15.0008 12.8878C15.0008 12.885 15.0008 12.8822 15.0008 12.8794C15.0008 12.8766 15.0008 12.8739 15.0008 12.8711C15.0008 12.8683 15.0008 12.8655 15.0008 12.8627C15.0008 12.8599 15.0008 12.8571 15.0008 12.8543C15.0008 12.8515 15.0008 12.8487 15.0008 12.8459C15.0008 12.8431 15.0008 12.8403 15.0008 12.8375C15.0008 12.8347 15.0008 12.8319 15.0008 12.8291C15.0008 12.8263 15.0008 12.8235 15.0008 12.8207C15.0008 12.8179 15.0008 12.8151 15.0008 12.8123C15.0008 12.8094 15.0008 12.8066 15.0008 12.8038C15.0008 12.801 15.0008 12.7982 15.0008 12.7954C15.0008 12.7926 15.0008 12.7897 15.0008 12.7869C15.0008 12.7841 15.0008 12.7813 15.0008 12.7785C15.0008 12.7756 15.0008 12.7728 15.0008 12.77C15.0008 12.7672 15.0008 12.7643 15.0008 12.7615C15.0008 12.7587 15.0008 12.7558 15.0008 12.753C15.0008 12.7502 15.0008 12.7473 15.0008 12.7445C15.0008 12.7417 15.0008 12.7388 15.0008 12.736C15.0008 12.7332 15.0008 12.7303 15.0008 12.7275C15.0008 12.7247 15.0008 12.7218 15.0008 12.719C15.0008 12.7161 15.0008 12.7133 15.0008 12.7104C15.0008 12.7076 15.0008 12.7048 15.0008 12.7019C15.0008 12.6991 15.0008 12.6962 15.0008 12.6934C15.0008 12.6905 15.0008 12.6877 15.0008 12.6848C15.0008 12.682 15.0008 12.6791 15.0008 12.6763C15.0008 12.6734 15.0008 12.6706 15.0008 12.6677C15.0008 12.6648 15.0008 12.662 15.0008 12.6591C15.0008 12.6563 15.0008 12.6534 15.0008 12.6506C15.0008 12.6477 15.0008 12.6448 15.0008 12.642C15.0008 12.6391 15.0008 12.6362 15.0008 12.6334C15.0008 12.6305 15.0008 12.6277 15.0008 12.6248C15.0008 12.6219 15.0008 12.6191 15.0008 12.6162C15.0008 12.6133 15.0008 12.6105 15.0008 12.6076C15.0008 12.6047 15.0008 12.6018 15.0008 12.599C15.0008 12.5961 15.0008 12.5932 15.0008 12.5904C15.0008 12.5875 15.0008 12.5846 15.0008 12.5817C15.0008 12.5789 15.0008 12.576 15.0008 12.5731C15.0008 12.5702 15.0008 12.5674 15.0008 12.5645C15.0008 12.5616 15.0008 12.5587 15.0008 12.5558C15.0008 12.553 15.0008 12.5501 15.0008 12.5472C15.0008 12.5443 15.0008 12.5414 15.0008 12.5386C15.0008 12.5357 15.0008 12.5328 15.0008 12.5299C15.0008 12.527 15.0008 12.5241 15.0008 12.5213C15.0008 12.5184 15.0008 12.5155 15.0008 12.5126C15.0008 12.5097 15.0008 12.5068 15.0008 12.5039C15.0008 12.501 15.0008 12.4982 15.0008 12.4953C15.0008 12.4924 15.0008 12.4895 15.0008 12.4866C15.0008 12.4837 15.0008 12.4808 15.0008 12.4779C15.0008 12.475 15.0008 12.4721 15.0008 12.4693C15.0008 12.4664 15.0008 12.4635 15.0008 12.4606C15.0008 12.4577 15.0008 12.4548 15.0008 12.4519C15.0008 12.449 15.0008 12.4461 15.0008 12.4432C15.0008 12.4403 15.0008 12.4374 15.0008 12.4345C15.0008 12.4316 15.0008 12.4287 15.0008 12.4258C15.0008 12.4229 15.0008 12.42 15.0008 12.4171C15.0008 12.4142 15.0008 12.4113 15.0008 12.4084C15.0008 12.4055 15.0008 12.4026 15.0008 12.3997C15.0008 12.3968 15.0008 12.3939 15.0008 12.391C15.0008 12.3881 15.0008 12.3852 15.0008 12.3823C15.0008 12.3794 15.0008 12.3765 15.0008 12.3736C15.0008 12.3707 15.0008 12.3678 15.0008 12.3649C15.0008 12.362 15.0008 12.3591 15.0008 12.3562C15.0008 12.3533 15.0008 12.3504 15.0008 12.3475C15.0008 12.3446 15.0008 12.3417 15.0008 12.3388C15.0008 12.3359 15.0008 12.333 15.0008 12.3301C15.0008 12.3272 15.0008 12.3243 15.0008 12.3214C15.0008 12.3185 15.0008 12.3156 15.0008 12.3127C15.0008 12.3098 15.0008 12.3069 15.0008 12.304C15.0008 12.301 15.0008 12.2981 15.0008 12.2952C15.0008 12.2923 15.0008 12.2894 15.0008 12.2865C15.0008 12.2836 15.0008 12.2807 15.0008 12.2778C15.0008 12.2749 15.0008 12.272 15.0008 12.2691C15.0008 12.2662 15.0008 12.2633 15.0008 12.2604C15.0008 12.2575 15.0008 12.2546 15.0008 12.2517C15.0008 12.2488 15.0008 12.2459 15.0008 12.243C15.0008 12.2401 15.0008 12.2372 15.0008 12.2342C15.0008 12.2313 15.0008 12.2284 15.0008 12.2255C15.0008 12.2226 15.0008 12.2197 15.0008 12.2168C15.0008 12.2139 15.0008 12.211 15.0008 12.2081C15.0008 12.2052 15.0008 12.2023 15.0008 12.1994C15.0008 12.1965 15.0008 12.1936 15.0008 12.1907C15.0008 12.1878 15.0008 12.1849 15.0008 12.182C15.0008 12.1791 15.0008 12.1762 15.0008 12.1733C15.0008 12.1704 15.0008 12.1675 15.0008 12.1646C15.0008 12.1617 15.0008 12.1588 15.0008 12.1559C15.0008 12.153 15.0008 12.1501 15.0008 12.1472C15.0008 12.1443 15.0008 12.1414 15.0008 12.1385C15.0008 12.1356 15.0008 12.1327 15.0008 12.1298C15.0008 12.1269 15.0008 12.124 15.0008 12.1211C15.0008 12.1182 15.0008 12.1153 15.0008 12.1124C15.0008 12.1095 15.0008 12.1066 15.0008 12.1037C15.0008 12.1008 15.0008 12.0979 15.0008 12.095C15.0008 12.0921 15.0008 12.0892 15.0008 12.0864C15.0008 12.0835 15.0008 12.0806 15.0008 12.0777C15.0008 12.0748 15.0008 12.0719 15.0008 12.069C15.0008 12.0661 15.0008 12.0632 15.0008 12.0603C15.0008 12.0574 15.0008 12.0545 15.0008 12.0517C15.0008 12.0488 15.0008 12.0459 15.0008 12.043C15.0008 12.0401 15.0008 12.0372 15.0008 12.0343C15.0008 12.0314 15.0008 12.0286 15.0008 12.0257C15.0008 12.0228 15.0008 12.0199 15.0008 12.017C15.0008 12.0141 15.0008 12.0113 15.0008 12.0084C15.0008 12.0055 15.0008 12.0026 15.0008 11.9997C15.0008 11.9969 15.0008 11.994 15.0008 11.9911C15.0008 11.9882 15.0008 11.9853 15.0008 11.9825C15.0008 11.9796 15.0008 11.9767 15.0008 11.9738C15.0008 11.971 15.0008 11.9681 15.0008 11.9652C15.0008 11.9623 15.0008 11.9595 15.0008 11.9566C15.0008 11.9537 15.0008 11.9508 15.0008 11.948C15.0008 11.9451 15.0008 11.9422 15.0008 11.9394C15.0008 11.9365 15.0008 11.9336 15.0008 11.9308C15.0008 11.9279 15.0008 11.925 15.0008 11.9222C15.0008 11.9193 15.0008 11.9164 15.0008 11.9136C15.0008 11.9107 15.0008 11.9078 15.0008 11.905C15.0008 11.9021 15.0008 11.8993 15.0008 11.8964C15.0008 11.8935 15.0008 11.8907 15.0008 11.8878C15.0008 11.885 15.0008 11.8821 15.0008 11.8793C15.0008 11.8764 15.0008 11.8736 15.0008 11.8707C15.0008 11.8679 15.0008 11.865 15.0008 11.8622C15.0008 11.8593 15.0008 11.8565 15.0008 11.8536C15.0008 11.8508 15.0008 11.8479 15.0008 11.8451C15.0008 11.8422 15.0008 11.8394 15.0008 11.8365C15.0008 11.8337 15.0008 11.8309 15.0008 11.828C15.0008 11.8252 15.0008 11.8223 15.0008 11.8195C15.0008 11.8167 15.0008 11.8138 15.0008 11.811C15.0008 11.8081 15.0008 11.8053 15.0008 11.8025C15.0008 11.7996 15.0008 11.7968 15.0008 11.794C15.0008 11.7912 15.0008 11.7883 15.0008 11.7855C15.0008 11.7827 15.0008 11.7798 15.0008 11.777C15.0008 11.7742 15.0008 11.7714 15.0008 11.7686C15.0008 11.7657 15.0008 11.7629 15.0008 11.7601C15.0008 11.7573 15.0008 11.7545 15.0008 11.7516C15.0008 11.7488 15.0008 11.746 15.0008 11.7432C15.0008 11.7404 15.0008 11.7376 15.0008 11.7348C15.0008 11.7319 15.0008 11.7291 15.0008 11.7263C15.0008 11.7235 15.0008 11.7207 15.0008 11.7179C15.0008 11.7151 15.0008 11.7123 15.0008 11.7095C15.0008 11.7067 15.0008 11.7039 15.0008 11.7011C15.0008 11.6983 15.0008 11.6955 15.0008 11.6927C15.0008 11.6899 15.0008 11.6871 15.0008 11.6843C15.0008 11.6816 15.0008 11.6788 15.0008 11.676C15.0008 11.6732 15.0008 11.6704 15.0008 11.6676C15.0008 11.6648 15.0008 11.662 15.0008 11.6593C15.0008 11.6565 15.0008 11.6537 15.0008 11.6509C15.0008 11.6482 15.0008 11.6454 15.0008 11.6426C15.0008 11.6398 15.0008 11.6371 15.0008 11.6343C15.0008 11.6315 15.0008 11.6287 15.0008 11.626C15.0008 11.6232 15.0008 11.6204 15.0008 11.6177C15.0008 11.6149 15.0008 11.6122 15.0008 11.6094C15.0008 11.6066 15.0008 11.6039 15.0008 11.6011C15.0008 11.5984 15.0008 11.5956 15.0008 11.5929C15.0008 11.5901 15.0008 11.5874 15.0008 11.5846C15.0008 11.5819 15.0008 11.5791 15.0008 11.5764C15.0008 11.5736 15.0008 11.5709 15.0008 11.5681C15.0008 11.5654 15.0008 11.5627 15.0008 11.5599C15.0008 11.5572 15.0008 11.5545 15.0008 11.5517C15.0008 11.549 15.0008 11.5463 15.0008 11.5435C15.0008 11.5408 15.0008 11.5381 15.0008 11.5354C15.0008 11.5326 15.0008 11.5299 15.0008 11.5272C15.0008 11.5245 15.0008 11.5218 15.0008 11.519C15.0008 11.5163 15.0008 11.5136 15.0008 11.5109C15.0008 11.5082 15.0008 11.5055 15.0008 11.5028C15.0008 11.5001 15.0008 11.4974 15.0008 11.4947C15.0008 11.492 15.0008 11.4893 15.0008 11.4866C15.0008 11.4839 15.0008 11.4812 15.0008 11.4785C15.0008 11.4758 15.0008 11.4731 15.0008 11.4704C15.0008 11.4677 15.0008 11.465 15.0008 11.4623C15.0008 11.4596 15.0008 11.457 15.0008 11.4543C15.0008 11.4516 15.0008 11.4489 15.0008 11.4463C15.0008 11.4436 15.0008 11.4409 15.0008 11.4382C15.0008 11.4356 15.0008 11.4329 15.0008 11.4302C15.0008 11.4276 15.0008 11.4249 15.0008 11.4222C15.0008 11.4196 15.0008 11.4169 15.0008 11.4143C15.0008 11.4116 15.0008 11.409 15.0008 11.4063C15.0008 11.4037 15.0008 11.401 15.0008 11.3984C15.0008 11.3957 15.0008 11.3931 15.0008 11.3904C15.0008 11.3878 15.0008 11.3851 15.0008 11.3825C15.0008 11.3799 15.0008 11.3772 15.0008 11.3746C15.0008 11.372 15.0008 11.3693 15.0008 11.3667C15.0008 11.3641 15.0008 11.3615 15.0008 11.3589C15.0008 11.3562 15.0008 11.3536 15.0008 11.351C15.0008 11.3484 15.0008 11.3458 15.0008 11.3432C15.0008 11.3405 15.0008 11.3379 15.0008 11.3353C15.0008 11.3327 15.0008 11.3301 15.0008 11.3275C15.0008 11.3249 15.0008 11.3223 15.0008 11.3197C15.0008 11.3171 15.0008 11.3146 15.0008 11.312C15.0008 11.3094 15.0008 11.3068 15.0008 11.3042C15.0008 11.3016 15.0008 11.299 15.0008 11.2965C15.0008 11.2939 15.0008 11.2913 15.0008 11.2887C15.0008 11.2862 15.0008 11.2836 15.0008 11.281C15.0008 11.2785 15.0008 11.2759 15.0008 11.2733C15.0008 11.2708 15.0008 11.2682 15.0008 11.2657C15.0008 11.2631 15.0008 11.2606 15.0008 11.258C15.0008 11.2555 15.0008 11.2529 15.0008 11.2504C15.0008 11.2478 15.0008 11.2453 15.0008 11.2428C15.0008 11.2402 15.0008 11.2377 15.0008 11.2352C15.0008 11.2326 15.0008 11.2301 15.0008 11.2276C15.0008 11.225 15.0008 11.2225 15.0008 11.22C15.0008 11.2175 15.0008 11.215 15.0008 11.2125C15.0008 11.2099 15.0008 11.2074 15.0008 11.2049C15.0008 11.2024 15.0008 11.1999 15.0008 11.1974C15.0008 11.1949 15.0008 11.1924 15.0008 11.1899C15.0008 11.1874 15.0008 11.1849 15.0008 11.1825C15.0008 11.18 15.0008 11.1775 15.0008 11.175C15.0008 11.1725 15.0008 11.17 15.0008 11.1676C15.0008 11.1651 15.0008 11.1626 15.0008 11.1601C15.0008 11.1577 15.0008 11.1552 15.0008 11.1528C15.0008 11.1503 15.0008 11.1478 15.0008 11.1454C15.0008 11.1429 15.0008 11.1405 15.0008 11.138C15.0008 11.1356 15.0008 11.1331 15.0008 11.1307C15.0008 11.1282 15.0008 11.1258 15.0008 11.1234C15.0008 11.1209 15.0008 11.1185 15.0008 11.1161C15.0008 11.1136 15.0008 11.1112 15.0008 11.1088C15.0008 11.1064 15.0008 11.1039 15.0008 11.1015C15.0008 11.0991 15.0008 11.0967 15.0008 11.0943C15.0008 11.0919 15.0008 11.0895 15.0008 11.0871C15.0008 11.0847 15.0008 11.0823 15.0008 11.0799C15.0008 11.0775 15.0008 11.0751 15.0008 11.0727C15.0008 11.0703 15.0008 11.0679 15.0008 11.0656C15.0008 11.0632 15.0008 11.0608 15.0008 11.0584C15.0008 11.0561 15.0008 11.0537 15.0008 11.0513C15.0008 11.049 15.0008 11.0466 15.0008 11.0442C15.0008 11.0419 15.0008 11.0395 15.0008 11.0372C15.0008 11.0348 15.0008 11.0325 15.0008 11.0301C15.0008 11.0278 15.0008 11.0254 15.0008 11.0231C15.0008 11.0208 15.0008 11.0184 15.0008 11.0161C15.0008 11.0138 15.0008 11.0114 15.0008 11.0091C15.0008 11.0068 15.0008 11.0045 15.0008 11.0022C15.0008 10.9998 15.0008 10.9975 15.0008 10.9952C15.0008 10.9929 15.0008 10.9906 15.0008 10.9883C15.0008 10.986 15.0008 10.9837 15.0008 10.9814C15.0008 10.9791 15.0008 10.9769 15.0008 10.9746C15.0008 10.9723 15.0008 10.97 15.0008 10.9677C15.0008 10.9655 15.0008 10.9632 15.0008 10.9609C15.0008 10.9586 15.0008 10.9564 15.0008 10.9541C15.0008 10.9519 15.0008 10.9496 15.0008 10.9473C15.0008 10.9451 15.0008 10.9428 15.0008 10.9406C15.0008 10.9384 15.0008 10.9361 15.0008 10.9339C15.0008 10.9316 15.0008 10.9294 15.0008 10.9272C15.0008 10.9249 15.0008 10.9227 15.0008 10.9205C15.0008 10.9183 15.0008 10.9161 15.0008 10.9139C15.0008 10.9116 15.0008 10.9094 15.0008 10.9072C15.0008 10.905 15.0008 10.9028 15.0008 10.9006C15.0008 10.8984 15.0008 10.8962 15.0008 10.894C15.0008 10.8919 15.0008 10.8897 15.0008 10.8875C15.0008 10.8853 15.0008 10.8831 15.0008 10.881C15.0008 10.8788 15.0008 10.8766 15.0008 10.8745C15.0008 10.8723 15.0008 10.8701 15.0008 10.868C15.0008 10.8658 15.0008 10.8637 15.0008 10.8615C15.0008 10.8594 15.0008 10.8573 15.0008 10.8551C15.0008 10.853 15.0008 10.8508 15.0008 10.8487C15.0008 10.8466 15.0008 10.8445 15.0008 10.8423C15.0008 10.8402 15.0008 10.8381 15.0008 10.836C15.0008 10.8339 15.0008 10.8318 15.0008 10.8297C15.0008 10.8276 15.0008 10.8255 15.0008 10.8234C15.0008 10.8213 15.0008 10.8192 15.0008 10.8171C15.0008 10.815 15.0008 10.8129 15.0008 10.8109C15.0008 10.8088 15.0008 10.8067 15.0008 10.8047C15.0008 10.8026 15.0008 10.8005 15.0008 10.7985C15.0008 10.7964 15.0008 10.7944 15.0008 10.7923C15.0008 10.7903 15.0008 10.7882 15.0008 10.7862C15.0008 10.7841 15.0008 10.7821 15.0008 10.7801C15.0008 10.778 15.0008 10.776 15.0008 10.774C15.0008 10.772 15.0008 10.7699 15.0008 10.7679C15.0008 10.7659 15.0008 10.7639 15.0008 10.7619C15.0008 10.7599 15.0008 10.7579 15.0008 10.7559C15.0008 10.7539 15.0008 10.7519 15.0008 10.7499C15.0008 10.748 15.0008 10.746 15.0008 10.744C15.0008 10.742 15.0008 10.7401 15.0008 10.7381C15.0008 10.7361 15.0008 10.7342 15.0008 10.7322C15.0008 10.7303 15.0008 10.7283 15.0008 10.7264C15.0008 10.7244 15.0008 10.7225 15.0008 10.7205C15.0008 10.7186 15.0008 10.7167 15.0008 10.7147C15.0008 10.7128 15.0008 10.7109 15.0008 10.709C15.0008 10.7071 15.0008 10.7051 15.0008 10.7032C15.0008 10.7013 15.0008 10.6994 15.0008 10.6975C15.0008 10.6956 15.0008 10.6937 15.0008 10.6918C15.0008 10.69 15.0008 10.6881 15.0008 10.6862C15.0008 10.6843 15.0008 10.6824 15.0008 10.6806C15.0008 10.6787 15.0008 10.6768 15.0008 10.675C15.0008 10.6731 15.0008 10.6713 15.0008 10.6694C15.0008 10.6676 15.0008 10.6657 15.0008 10.6639C15.0008 10.6621 15.0008 10.6602 15.0008 10.6584C15.0008 10.6566 15.0008 10.6547 15.0008 10.6529C15.0008 10.6511 15.0008 10.6493 15.0008 10.6475C15.0008 10.6457 15.0008 10.6439 15.0008 10.6421C15.0008 10.6403 15.0008 10.6385 15.0008 10.6367C15.0008 10.6349 15.0008 10.6331 15.0008 10.6314C15.0008 10.6296 15.0008 10.6278 15.0008 10.626C15.0008 10.6243 15.0008 10.6225 15.0008 10.6208C15.0008 10.619 15.0008 10.6173 15.0008 10.6155C15.0008 10.6138 15.0008 10.612 15.0008 10.6103C15.0008 10.6086 15.0008 10.6068 15.0008 10.6051C15.0008 10.6034 15.0008 10.6017 15.0008 10.6C15.0008 10.5982 15.0008 10.5965 15.0008 10.5948C15.0008 10.5931 15.0008 10.5914 15.0008 10.5897C15.0008 10.588 15.0008 10.5864 15.0008 10.5847C15.0008 10.583 15.0008 10.5813 15.0008 10.5797C15.0008 10.578 15.0008 10.5763 15.0008 10.5747C15.0008 10.573 15.0008 10.5713 15.0008 10.5697C15.0008 10.5681 15.0008 10.5664 15.0008 10.5648C15.0008 10.5631 15.0008 10.5615 15.0008 10.5599C15.0008 10.5583 15.0008 10.5566 15.0008 10.555C15.0008 10.5534 15.0008 10.5518 15.0008 10.5502C15.0008 10.5486 15.0008 10.547 15.0008 10.5454C15.0008 10.5438 15.0008 10.5422 15.0008 10.5406C15.0008 10.5391 15.0008 10.5375 15.0008 10.5359C15.0008 10.5343 15.0008 10.5328 15.0008 10.5312C15.0008 10.5297 15.0008 10.5281 15.0008 10.5266C15.0008 10.525 15.0008 10.5235 15.0008 10.5219C15.0008 10.5204 15.0008 10.5189 15.0008 10.5173C15.0008 10.5158 15.0008 10.5143 15.0008 10.5128C15.0008 10.5113 15.0008 10.5098 15.0008 10.5083C15.0008 10.5068 15.0008 10.5053 15.0008 10.5038C15.0008 10.5023 15.0008 10.5008 15.0008 10.4993C15.0008 10.4979 15.0008 10.4964 15.0008 10.4949C15.0008 10.4934 15.0008 10.492 15.0008 10.4905C15.0008 10.4891 15.0008 10.4876 15.0008 10.4862C15.0008 10.4847 15.0008 10.4833 15.0008 10.4819C15.0008 10.4804 15.0008 10.479 15.0008 10.4776C15.0008 10.4762 15.0008 10.4748 15.0008 10.4734C15.0008 10.472 15.0008 10.4706 15.0008 10.4692C15.0008 10.4678 15.0008 10.4664 15.0008 10.465C15.0008 10.4636 15.0008 10.4622 15.0008 10.4609C15.0008 10.4595 15.0008 10.4581 15.0008 10.4568C15.0008 10.4554 15.0008 10.4541 15.0008 10.4527C15.0008 10.4514 15.0008 10.45 15.0008 10.4487C15.0008 10.4474 15.0008 10.446 15.0008 10.4447C15.0008 10.4434 15.0008 10.4421 15.0008 10.4408C15.0008 10.4395 15.0008 10.4382 15.0008 10.4369C15.0008 10.4356 15.0008 10.4343 15.0008 10.433C15.0008 10.4317 15.0008 10.4304 15.0008 10.4292C15.0008 10.4279 15.0008 10.4266 15.0008 10.4254C15.0008 10.4241 15.0008 10.4228 15.0008 10.4216C15.0008 10.4204 15.0008 10.4191 15.0008 10.4179C15.0008 10.4166 15.0008 10.4154 15.0008 10.4142C15.0008 10.413 15.0008 10.4118 15.0008 10.4106C15.0008 10.4093 15.0008 10.4081 15.0008 10.4069C15.0008 10.4058 15.0008 10.4046 15.0008 10.4034C15.0008 10.4022 15.0008 10.401 15.0008 10.3999C15.0008 10.3987 15.0008 10.3975 15.0008 10.3964C15.0008 10.3952 15.0008 10.3941 15.0008 10.3929C15.0008 10.3918 15.0008 10.3906 15.0008 10.3895C15.0008 10.3884 15.0008 10.3872 15.0008 10.3861C15.0008 10.385 15.0008 10.3839 15.0008 10.3828C15.0008 10.3817 15.0008 10.3806 15.0008 10.3795C15.0008 10.3784 15.0008 10.3773 15.0008 10.3762C15.0008 10.3752 15.0008 10.3741 15.0008 10.373C15.0008 10.372 15.0008 10.3709 15.0008 10.3698C15.0008 10.3688 15.0008 10.3677 15.0008 10.3667C15.0008 10.3657 15.0008 10.3646 15.0008 10.3636C15.0008 10.3626 15.0008 10.3616 15.0008 10.3606C15.0008 10.3595 15.0008 10.3585 15.0008 10.3575C15.0008 10.3565 15.0008 10.3556 15.0008 10.3546C15.0008 10.3536 15.0008 10.3526 15.0008 10.3516C15.0008 10.3507 15.0008 10.3497 15.0008 10.3487C15.0008 10.3478 15.0008 10.3468 15.0008 10.3459C15.0008 10.345 15.0008 10.344 15.0008 10.3431C15.0008 10.3422 15.0008 10.3412 15.0008 10.3403C15.0008 10.3394 15.0008 10.3385 15.0008 10.3376C15.0008 10.3367 15.0008 10.3358 15.0008 10.3349C15.0008 10.334 15.0008 10.3331 15.0008 10.3323C15.0008 10.3314 15.0008 10.3305 15.0008 10.3297C15.0008 10.3288 15.0008 10.3279 15.0008 10.3271C15.0008 10.3263 15.0008 10.3254 15.0008 10.3246C15.0008 10.3237 15.0008 10.3229 15.0008 10.3221C15.0008 10.3213 15.0008 10.3205 15.0008 10.3197C15.0008 10.3189 15.0008 10.3181 15.0008 10.3173C15.0008 10.3165 15.0008 10.3157 15.0008 10.3149C15.0008 10.3142 15.0008 10.3134 15.0008 10.3126C15.0008 10.3119 15.0008 10.3111 15.0008 10.3104C15.0008 10.3096 15.0008 10.3089 15.0008 10.3082C15.0008 10.3074 15.0008 10.3067 15.0008 10.306C15.0008 10.3053 15.0008 10.3045 15.0008 10.3038C15.0008 10.3031 15.0008 10.3024 15.0008 10.3018C15.0008 10.3011 15.0008 10.3004 15.0008 10.2997C15.0008 10.299 15.0008 10.2984 15.0008 10.2977C15.0008 10.2971 15.0008 10.2964 15.0008 10.2958C15.0008 10.2951 15.0008 10.2945 15.0008 10.2938C15.0008 10.2932 15.0008 10.2926 15.0008 10.292C15.0008 10.2914 15.0008 10.2908 15.0008 10.2902C15.0008 10.2896 15.0008 10.289 15.0008 10.2884C15.0008 10.2878 15.0008 10.2872 15.0008 10.2866C15.0008 10.2861 15.0008 10.2855 15.0008 10.285C15.0008 10.2844 15.0008 10.2839 15.0008 10.2833C15.0008 10.2828 15.0008 10.2822 15.0008 10.2817C15.0008 10.2812 15.0008 10.2807 15.0008 10.2802C15.0008 10.2796 15.0008 10.2791 15.0008 10.2787C15.0008 10.2782 15.0008 10.2777 15.0008 10.2772C15.0008 10.2767 15.0008 10.2762 15.0008 10.2758C15.0008 10.2753 15.0008 10.2749 15.0008 10.2744C15.0008 10.274 15.0008 10.2735 15.0008 10.2731C15.0008 10.2726 15.0008 10.2722 15.0008 10.2718C15.0008 10.2714 15.0008 10.271 15.0008 10.2706C15.0008 10.2702 15.0008 10.2698 15.0008 10.2694C15.0008 10.269 15.0008 10.2686 15.0008 10.2682C15.0008 10.2679 15.0008 10.2675 15.0008 10.2672C15.0008 10.2668 15.0008 10.2665 15.0008 10.2661C15.0008 10.2658 15.0008 10.2654 15.0008 10.2651C15.0008 10.2648 15.0008 10.2645 15.0008 10.2642C15.0008 10.2639 15.0008 10.2636 15.0008 10.2633C15.0008 10.263 15.0008 10.2627 15.0008 10.2624C15.0008 10.2621 15.0008 10.2619 15.0008 10.2616C15.0008 10.2613 15.0008 10.2611 15.0008 10.2608C15.0008 10.2606 15.0008 10.2604 15.0008 10.2601C15.0008 10.2599 15.0008 10.2597 15.0008 10.2595C15.0008 10.2593 15.0008 10.259 15.0008 10.2588C15.0008 10.2587 15.0008 10.2585 15.0008 10.2583C15.0008 10.2581 15.0008 10.2579 15.0008 10.2578C15.0008 10.2576 15.0008 10.2574 15.0008 10.2573C15.0008 10.2571 15.0008 10.257 15.0008 10.2569C15.0008 10.2567 15.0008 10.2566 15.0008 10.2565C15.0008 10.2564 15.0008 10.2563 15.0008 10.2562C15.0008 10.2561 15.0008 10.256 15.0008 10.2559C15.0008 10.2558 15.0008 10.2557 15.0008 10.2557C15.0008 10.2556 15.0008 10.2556 15.0008 10.2555C15.0008 10.2555 15.0008 10.2554 15.0008 10.2554C15.0008 10.2553 15.0008 10.2553 15.0008 10.2553C15.0008 10.2553 15.0008 10.2553 14.0008 10.2553C13.0008 10.2553 13.0008 10.2553 13.0008 10.2553C13.0008 10.2553 13.0008 10.2553 13.0008 10.2554C13.0008 10.2554 13.0008 10.2555 13.0008 10.2555C13.0008 10.2556 13.0008 10.2556 13.0008 10.2557C13.0008 10.2557 13.0008 10.2558 13.0008 10.2559C13.0008 10.256 13.0008 10.2561 13.0008 10.2562C13.0008 10.2563 13.0008 10.2564 13.0008 10.2565C13.0008 10.2566 13.0008 10.2567 13.0008 10.2569C13.0008 10.257 13.0008 10.2571 13.0008 10.2573C13.0008 10.2574 13.0008 10.2576 13.0008 10.2578C13.0008 10.2579 13.0008 10.2581 13.0008 10.2583C13.0008 10.2585 13.0008 10.2587 13.0008 10.2588C13.0008 10.259 13.0008 10.2593 13.0008 10.2595C13.0008 10.2597 13.0008 10.2599 13.0008 10.2601C13.0008 10.2604 13.0008 10.2606 13.0008 10.2608C13.0008 10.2611 13.0008 10.2613 13.0008 10.2616C13.0008 10.2619 13.0008 10.2621 13.0008 10.2624C13.0008 10.2627 13.0008 10.263 13.0008 10.2633C13.0008 10.2636 13.0008 10.2639 13.0008 10.2642C13.0008 10.2645 13.0008 10.2648 13.0008 10.2651C13.0008 10.2654 13.0008 10.2658 13.0008 10.2661C13.0008 10.2665 13.0008 10.2668 13.0008 10.2672C13.0008 10.2675 13.0008 10.2679 13.0008 10.2682C13.0008 10.2686 13.0008 10.269 13.0008 10.2694C13.0008 10.2698 13.0008 10.2702 13.0008 10.2706C13.0008 10.271 13.0008 10.2714 13.0008 10.2718C13.0008 10.2722 13.0008 10.2726 13.0008 10.2731C13.0008 10.2735 13.0008 10.274 13.0008 10.2744C13.0008 10.2749 13.0008 10.2753 13.0008 10.2758C13.0008 10.2762 13.0008 10.2767 13.0008 10.2772C13.0008 10.2777 13.0008 10.2782 13.0008 10.2787C13.0008 10.2791 13.0008 10.2796 13.0008 10.2802C13.0008 10.2807 13.0008 10.2812 13.0008 10.2817C13.0008 10.2822 13.0008 10.2828 13.0008 10.2833C13.0008 10.2839 13.0008 10.2844 13.0008 10.285C13.0008 10.2855 13.0008 10.2861 13.0008 10.2866C13.0008 10.2872 13.0008 10.2878 13.0008 10.2884C13.0008 10.289 13.0008 10.2896 13.0008 10.2902C13.0008 10.2908 13.0008 10.2914 13.0008 10.292C13.0008 10.2926 13.0008 10.2932 13.0008 10.2938C13.0008 10.2945 13.0008 10.2951 13.0008 10.2958C13.0008 10.2964 13.0008 10.2971 13.0008 10.2977C13.0008 10.2984 13.0008 10.299 13.0008 10.2997C13.0008 10.3004 13.0008 10.3011 13.0008 10.3018C13.0008 10.3024 13.0008 10.3031 13.0008 10.3038C13.0008 10.3045 13.0008 10.3053 13.0008 10.306C13.0008 10.3067 13.0008 10.3074 13.0008 10.3082C13.0008 10.3089 13.0008 10.3096 13.0008 10.3104C13.0008 10.3111 13.0008 10.3119 13.0008 10.3126C13.0008 10.3134 13.0008 10.3142 13.0008 10.3149C13.0008 10.3157 13.0008 10.3165 13.0008 10.3173C13.0008 10.3181 13.0008 10.3189 13.0008 10.3197C13.0008 10.3205 13.0008 10.3213 13.0008 10.3221C13.0008 10.3229 13.0008 10.3237 13.0008 10.3246C13.0008 10.3254 13.0008 10.3263 13.0008 10.3271C13.0008 10.3279 13.0008 10.3288 13.0008 10.3297C13.0008 10.3305 13.0008 10.3314 13.0008 10.3323C13.0008 10.3331 13.0008 10.334 13.0008 10.3349C13.0008 10.3358 13.0008 10.3367 13.0008 10.3376C13.0008 10.3385 13.0008 10.3394 13.0008 10.3403C13.0008 10.3412 13.0008 10.3422 13.0008 10.3431C13.0008 10.344 13.0008 10.345 13.0008 10.3459C13.0008 10.3468 13.0008 10.3478 13.0008 10.3487C13.0008 10.3497 13.0008 10.3507 13.0008 10.3516C13.0008 10.3526 13.0008 10.3536 13.0008 10.3546C13.0008 10.3556 13.0008 10.3565 13.0008 10.3575C13.0008 10.3585 13.0008 10.3595 13.0008 10.3606C13.0008 10.3616 13.0008 10.3626 13.0008 10.3636C13.0008 10.3646 13.0008 10.3657 13.0008 10.3667C13.0008 10.3677 13.0008 10.3688 13.0008 10.3698C13.0008 10.3709 13.0008 10.372 13.0008 10.373C13.0008 10.3741 13.0008 10.3752 13.0008 10.3762C13.0008 10.3773 13.0008 10.3784 13.0008 10.3795C13.0008 10.3806 13.0008 10.3817 13.0008 10.3828C13.0008 10.3839 13.0008 10.385 13.0008 10.3861C13.0008 10.3872 13.0008 10.3884 13.0008 10.3895C13.0008 10.3906 13.0008 10.3918 13.0008 10.3929C13.0008 10.3941 13.0008 10.3952 13.0008 10.3964C13.0008 10.3975 13.0008 10.3987 13.0008 10.3999C13.0008 10.401 13.0008 10.4022 13.0008 10.4034C13.0008 10.4046 13.0008 10.4058 13.0008 10.4069C13.0008 10.4081 13.0008 10.4093 13.0008 10.4106C13.0008 10.4118 13.0008 10.413 13.0008 10.4142C13.0008 10.4154 13.0008 10.4166 13.0008 10.4179C13.0008 10.4191 13.0008 10.4204 13.0008 10.4216C13.0008 10.4228 13.0008 10.4241 13.0008 10.4254C13.0008 10.4266 13.0008 10.4279 13.0008 10.4292C13.0008 10.4304 13.0008 10.4317 13.0008 10.433C13.0008 10.4343 13.0008 10.4356 13.0008 10.4369C13.0008 10.4382 13.0008 10.4395 13.0008 10.4408C13.0008 10.4421 13.0008 10.4434 13.0008 10.4447C13.0008 10.446 13.0008 10.4474 13.0008 10.4487C13.0008 10.45 13.0008 10.4514 13.0008 10.4527C13.0008 10.4541 13.0008 10.4554 13.0008 10.4568C13.0008 10.4581 13.0008 10.4595 13.0008 10.4609C13.0008 10.4622 13.0008 10.4636 13.0008 10.465C13.0008 10.4664 13.0008 10.4678 13.0008 10.4692C13.0008 10.4706 13.0008 10.472 13.0008 10.4734C13.0008 10.4748 13.0008 10.4762 13.0008 10.4776C13.0008 10.479 13.0008 10.4804 13.0008 10.4819C13.0008 10.4833 13.0008 10.4847 13.0008 10.4862C13.0008 10.4876 13.0008 10.4891 13.0008 10.4905C13.0008 10.492 13.0008 10.4934 13.0008 10.4949C13.0008 10.4964 13.0008 10.4979 13.0008 10.4993C13.0008 10.5008 13.0008 10.5023 13.0008 10.5038C13.0008 10.5053 13.0008 10.5068 13.0008 10.5083C13.0008 10.5098 13.0008 10.5113 13.0008 10.5128C13.0008 10.5143 13.0008 10.5158 13.0008 10.5173C13.0008 10.5189 13.0008 10.5204 13.0008 10.5219C13.0008 10.5235 13.0008 10.525 13.0008 10.5266C13.0008 10.5281 13.0008 10.5297 13.0008 10.5312C13.0008 10.5328 13.0008 10.5343 13.0008 10.5359C13.0008 10.5375 13.0008 10.5391 13.0008 10.5406C13.0008 10.5422 13.0008 10.5438 13.0008 10.5454C13.0008 10.547 13.0008 10.5486 13.0008 10.5502C13.0008 10.5518 13.0008 10.5534 13.0008 10.555C13.0008 10.5566 13.0008 10.5583 13.0008 10.5599C13.0008 10.5615 13.0008 10.5631 13.0008 10.5648C13.0008 10.5664 13.0008 10.5681 13.0008 10.5697C13.0008 10.5713 13.0008 10.573 13.0008 10.5747C13.0008 10.5763 13.0008 10.578 13.0008 10.5797C13.0008 10.5813 13.0008 10.583 13.0008 10.5847C13.0008 10.5864 13.0008 10.588 13.0008 10.5897C13.0008 10.5914 13.0008 10.5931 13.0008 10.5948C13.0008 10.5965 13.0008 10.5982 13.0008 10.6C13.0008 10.6017 13.0008 10.6034 13.0008 10.6051C13.0008 10.6068 13.0008 10.6086 13.0008 10.6103C13.0008 10.612 13.0008 10.6138 13.0008 10.6155C13.0008 10.6173 13.0008 10.619 13.0008 10.6208C13.0008 10.6225 13.0008 10.6243 13.0008 10.626C13.0008 10.6278 13.0008 10.6296 13.0008 10.6314C13.0008 10.6331 13.0008 10.6349 13.0008 10.6367C13.0008 10.6385 13.0008 10.6403 13.0008 10.6421C13.0008 10.6439 13.0008 10.6457 13.0008 10.6475C13.0008 10.6493 13.0008 10.6511 13.0008 10.6529C13.0008 10.6547 13.0008 10.6566 13.0008 10.6584C13.0008 10.6602 13.0008 10.6621 13.0008 10.6639C13.0008 10.6657 13.0008 10.6676 13.0008 10.6694C13.0008 10.6713 13.0008 10.6731 13.0008 10.675C13.0008 10.6768 13.0008 10.6787 13.0008 10.6806C13.0008 10.6824 13.0008 10.6843 13.0008 10.6862C13.0008 10.6881 13.0008 10.69 13.0008 10.6918C13.0008 10.6937 13.0008 10.6956 13.0008 10.6975C13.0008 10.6994 13.0008 10.7013 13.0008 10.7032C13.0008 10.7051 13.0008 10.7071 13.0008 10.709C13.0008 10.7109 13.0008 10.7128 13.0008 10.7147C13.0008 10.7167 13.0008 10.7186 13.0008 10.7205C13.0008 10.7225 13.0008 10.7244 13.0008 10.7264C13.0008 10.7283 13.0008 10.7303 13.0008 10.7322C13.0008 10.7342 13.0008 10.7361 13.0008 10.7381C13.0008 10.7401 13.0008 10.742 13.0008 10.744C13.0008 10.746 13.0008 10.748 13.0008 10.7499C13.0008 10.7519 13.0008 10.7539 13.0008 10.7559C13.0008 10.7579 13.0008 10.7599 13.0008 10.7619C13.0008 10.7639 13.0008 10.7659 13.0008 10.7679C13.0008 10.7699 13.0008 10.772 13.0008 10.774C13.0008 10.776 13.0008 10.778 13.0008 10.7801C13.0008 10.7821 13.0008 10.7841 13.0008 10.7862C13.0008 10.7882 13.0008 10.7903 13.0008 10.7923C13.0008 10.7944 13.0008 10.7964 13.0008 10.7985C13.0008 10.8005 13.0008 10.8026 13.0008 10.8047C13.0008 10.8067 13.0008 10.8088 13.0008 10.8109C13.0008 10.8129 13.0008 10.815 13.0008 10.8171C13.0008 10.8192 13.0008 10.8213 13.0008 10.8234C13.0008 10.8255 13.0008 10.8276 13.0008 10.8297C13.0008 10.8318 13.0008 10.8339 13.0008 10.836C13.0008 10.8381 13.0008 10.8402 13.0008 10.8423C13.0008 10.8445 13.0008 10.8466 13.0008 10.8487C13.0008 10.8508 13.0008 10.853 13.0008 10.8551C13.0008 10.8573 13.0008 10.8594 13.0008 10.8615C13.0008 10.8637 13.0008 10.8658 13.0008 10.868C13.0008 10.8701 13.0008 10.8723 13.0008 10.8745C13.0008 10.8766 13.0008 10.8788 13.0008 10.881C13.0008 10.8831 13.0008 10.8853 13.0008 10.8875C13.0008 10.8897 13.0008 10.8919 13.0008 10.894C13.0008 10.8962 13.0008 10.8984 13.0008 10.9006C13.0008 10.9028 13.0008 10.905 13.0008 10.9072C13.0008 10.9094 13.0008 10.9116 13.0008 10.9139C13.0008 10.9161 13.0008 10.9183 13.0008 10.9205C13.0008 10.9227 13.0008 10.9249 13.0008 10.9272C13.0008 10.9294 13.0008 10.9316 13.0008 10.9339C13.0008 10.9361 13.0008 10.9384 13.0008 10.9406C13.0008 10.9428 13.0008 10.9451 13.0008 10.9473C13.0008 10.9496 13.0008 10.9519 13.0008 10.9541C13.0008 10.9564 13.0008 10.9586 13.0008 10.9609C13.0008 10.9632 13.0008 10.9655 13.0008 10.9677C13.0008 10.97 13.0008 10.9723 13.0008 10.9746C13.0008 10.9769 13.0008 10.9791 13.0008 10.9814C13.0008 10.9837 13.0008 10.986 13.0008 10.9883C13.0008 10.9906 13.0008 10.9929 13.0008 10.9952C13.0008 10.9975 13.0008 10.9998 13.0008 11.0022C13.0008 11.0045 13.0008 11.0068 13.0008 11.0091C13.0008 11.0114 13.0008 11.0138 13.0008 11.0161C13.0008 11.0184 13.0008 11.0208 13.0008 11.0231C13.0008 11.0254 13.0008 11.0278 13.0008 11.0301C13.0008 11.0325 13.0008 11.0348 13.0008 11.0372C13.0008 11.0395 13.0008 11.0419 13.0008 11.0442C13.0008 11.0466 13.0008 11.049 13.0008 11.0513C13.0008 11.0537 13.0008 11.0561 13.0008 11.0584C13.0008 11.0608 13.0008 11.0632 13.0008 11.0656C13.0008 11.0679 13.0008 11.0703 13.0008 11.0727C13.0008 11.0751 13.0008 11.0775 13.0008 11.0799C13.0008 11.0823 13.0008 11.0847 13.0008 11.0871C13.0008 11.0895 13.0008 11.0919 13.0008 11.0943C13.0008 11.0967 13.0008 11.0991 13.0008 11.1015C13.0008 11.1039 13.0008 11.1064 13.0008 11.1088C13.0008 11.1112 13.0008 11.1136 13.0008 11.1161C13.0008 11.1185 13.0008 11.1209 13.0008 11.1234C13.0008 11.1258 13.0008 11.1282 13.0008 11.1307C13.0008 11.1331 13.0008 11.1356 13.0008 11.138C13.0008 11.1405 13.0008 11.1429 13.0008 11.1454C13.0008 11.1478 13.0008 11.1503 13.0008 11.1528C13.0008 11.1552 13.0008 11.1577 13.0008 11.1601C13.0008 11.1626 13.0008 11.1651 13.0008 11.1676C13.0008 11.17 13.0008 11.1725 13.0008 11.175C13.0008 11.1775 13.0008 11.18 13.0008 11.1825C13.0008 11.1849 13.0008 11.1874 13.0008 11.1899C13.0008 11.1924 13.0008 11.1949 13.0008 11.1974C13.0008 11.1999 13.0008 11.2024 13.0008 11.2049C13.0008 11.2074 13.0008 11.2099 13.0008 11.2125C13.0008 11.215 13.0008 11.2175 13.0008 11.22C13.0008 11.2225 13.0008 11.225 13.0008 11.2276C13.0008 11.2301 13.0008 11.2326 13.0008 11.2352C13.0008 11.2377 13.0008 11.2402 13.0008 11.2428C13.0008 11.2453 13.0008 11.2478 13.0008 11.2504C13.0008 11.2529 13.0008 11.2555 13.0008 11.258C13.0008 11.2606 13.0008 11.2631 13.0008 11.2657C13.0008 11.2682 13.0008 11.2708 13.0008 11.2733C13.0008 11.2759 13.0008 11.2785 13.0008 11.281C13.0008 11.2836 13.0008 11.2862 13.0008 11.2887C13.0008 11.2913 13.0008 11.2939 13.0008 11.2965C13.0008 11.299 13.0008 11.3016 13.0008 11.3042C13.0008 11.3068 13.0008 11.3094 13.0008 11.312C13.0008 11.3146 13.0008 11.3171 13.0008 11.3197C13.0008 11.3223 13.0008 11.3249 13.0008 11.3275C13.0008 11.3301 13.0008 11.3327 13.0008 11.3353C13.0008 11.3379 13.0008 11.3405 13.0008 11.3432C13.0008 11.3458 13.0008 11.3484 13.0008 11.351C13.0008 11.3536 13.0008 11.3562 13.0008 11.3589C13.0008 11.3615 13.0008 11.3641 13.0008 11.3667C13.0008 11.3693 13.0008 11.372 13.0008 11.3746C13.0008 11.3772 13.0008 11.3799 13.0008 11.3825C13.0008 11.3851 13.0008 11.3878 13.0008 11.3904C13.0008 11.3931 13.0008 11.3957 13.0008 11.3984C13.0008 11.401 13.0008 11.4037 13.0008 11.4063C13.0008 11.409 13.0008 11.4116 13.0008 11.4143C13.0008 11.4169 13.0008 11.4196 13.0008 11.4222C13.0008 11.4249 13.0008 11.4276 13.0008 11.4302C13.0008 11.4329 13.0008 11.4356 13.0008 11.4382C13.0008 11.4409 13.0008 11.4436 13.0008 11.4463C13.0008 11.4489 13.0008 11.4516 13.0008 11.4543C13.0008 11.457 13.0008 11.4596 13.0008 11.4623C13.0008 11.465 13.0008 11.4677 13.0008 11.4704C13.0008 11.4731 13.0008 11.4758 13.0008 11.4785C13.0008 11.4812 13.0008 11.4839 13.0008 11.4866C13.0008 11.4893 13.0008 11.492 13.0008 11.4947C13.0008 11.4974 13.0008 11.5001 13.0008 11.5028C13.0008 11.5055 13.0008 11.5082 13.0008 11.5109C13.0008 11.5136 13.0008 11.5163 13.0008 11.519C13.0008 11.5218 13.0008 11.5245 13.0008 11.5272C13.0008 11.5299 13.0008 11.5326 13.0008 11.5354C13.0008 11.5381 13.0008 11.5408 13.0008 11.5435C13.0008 11.5463 13.0008 11.549 13.0008 11.5517C13.0008 11.5545 13.0008 11.5572 13.0008 11.5599C13.0008 11.5627 13.0008 11.5654 13.0008 11.5681C13.0008 11.5709 13.0008 11.5736 13.0008 11.5764C13.0008 11.5791 13.0008 11.5819 13.0008 11.5846C13.0008 11.5874 13.0008 11.5901 13.0008 11.5929C13.0008 11.5956 13.0008 11.5984 13.0008 11.6011C13.0008 11.6039 13.0008 11.6066 13.0008 11.6094C13.0008 11.6122 13.0008 11.6149 13.0008 11.6177C13.0008 11.6204 13.0008 11.6232 13.0008 11.626C13.0008 11.6287 13.0008 11.6315 13.0008 11.6343C13.0008 11.6371 13.0008 11.6398 13.0008 11.6426C13.0008 11.6454 13.0008 11.6482 13.0008 11.6509C13.0008 11.6537 13.0008 11.6565 13.0008 11.6593C13.0008 11.662 13.0008 11.6648 13.0008 11.6676C13.0008 11.6704 13.0008 11.6732 13.0008 11.676C13.0008 11.6788 13.0008 11.6816 13.0008 11.6843C13.0008 11.6871 13.0008 11.6899 13.0008 11.6927C13.0008 11.6955 13.0008 11.6983 13.0008 11.7011C13.0008 11.7039 13.0008 11.7067 13.0008 11.7095C13.0008 11.7123 13.0008 11.7151 13.0008 11.7179C13.0008 11.7207 13.0008 11.7235 13.0008 11.7263C13.0008 11.7291 13.0008 11.7319 13.0008 11.7348C13.0008 11.7376 13.0008 11.7404 13.0008 11.7432C13.0008 11.746 13.0008 11.7488 13.0008 11.7516C13.0008 11.7545 13.0008 11.7573 13.0008 11.7601C13.0008 11.7629 13.0008 11.7657 13.0008 11.7686C13.0008 11.7714 13.0008 11.7742 13.0008 11.777C13.0008 11.7798 13.0008 11.7827 13.0008 11.7855C13.0008 11.7883 13.0008 11.7912 13.0008 11.794C13.0008 11.7968 13.0008 11.7996 13.0008 11.8025C13.0008 11.8053 13.0008 11.8081 13.0008 11.811C13.0008 11.8138 13.0008 11.8167 13.0008 11.8195C13.0008 11.8223 13.0008 11.8252 13.0008 11.828C13.0008 11.8309 13.0008 11.8337 13.0008 11.8365C13.0008 11.8394 13.0008 11.8422 13.0008 11.8451C13.0008 11.8479 13.0008 11.8508 13.0008 11.8536C13.0008 11.8565 13.0008 11.8593 13.0008 11.8622C13.0008 11.865 13.0008 11.8679 13.0008 11.8707C13.0008 11.8736 13.0008 11.8764 13.0008 11.8793C13.0008 11.8821 13.0008 11.885 13.0008 11.8878C13.0008 11.8907 13.0008 11.8935 13.0008 11.8964C13.0008 11.8993 13.0008 11.9021 13.0008 11.905C13.0008 11.9078 13.0008 11.9107 13.0008 11.9136C13.0008 11.9164 13.0008 11.9193 13.0008 11.9222C13.0008 11.925 13.0008 11.9279 13.0008 11.9308C13.0008 11.9336 13.0008 11.9365 13.0008 11.9394C13.0008 11.9422 13.0008 11.9451 13.0008 11.948C13.0008 11.9508 13.0008 11.9537 13.0008 11.9566C13.0008 11.9595 13.0008 11.9623 13.0008 11.9652C13.0008 11.9681 13.0008 11.971 13.0008 11.9738C13.0008 11.9767 13.0008 11.9796 13.0008 11.9825C13.0008 11.9853 13.0008 11.9882 13.0008 11.9911C13.0008 11.994 13.0008 11.9969 13.0008 11.9997C13.0008 12.0026 13.0008 12.0055 13.0008 12.0084C13.0008 12.0113 13.0008 12.0141 13.0008 12.017C13.0008 12.0199 13.0008 12.0228 13.0008 12.0257C13.0008 12.0286 13.0008 12.0314 13.0008 12.0343C13.0008 12.0372 13.0008 12.0401 13.0008 12.043C13.0008 12.0459 13.0008 12.0488 13.0008 12.0517C13.0008 12.0545 13.0008 12.0574 13.0008 12.0603C13.0008 12.0632 13.0008 12.0661 13.0008 12.069C13.0008 12.0719 13.0008 12.0748 13.0008 12.0777C13.0008 12.0806 13.0008 12.0835 13.0008 12.0864C13.0008 12.0892 13.0008 12.0921 13.0008 12.095C13.0008 12.0979 13.0008 12.1008 13.0008 12.1037C13.0008 12.1066 13.0008 12.1095 13.0008 12.1124C13.0008 12.1153 13.0008 12.1182 13.0008 12.1211C13.0008 12.124 13.0008 12.1269 13.0008 12.1298C13.0008 12.1327 13.0008 12.1356 13.0008 12.1385C13.0008 12.1414 13.0008 12.1443 13.0008 12.1472C13.0008 12.1501 13.0008 12.153 13.0008 12.1559C13.0008 12.1588 13.0008 12.1617 13.0008 12.1646C13.0008 12.1675 13.0008 12.1704 13.0008 12.1733C13.0008 12.1762 13.0008 12.1791 13.0008 12.182C13.0008 12.1849 13.0008 12.1878 13.0008 12.1907C13.0008 12.1936 13.0008 12.1965 13.0008 12.1994C13.0008 12.2023 13.0008 12.2052 13.0008 12.2081C13.0008 12.211 13.0008 12.2139 13.0008 12.2168C13.0008 12.2197 13.0008 12.2226 13.0008 12.2255C13.0008 12.2284 13.0008 12.2313 13.0008 12.2342C13.0008 12.2372 13.0008 12.2401 13.0008 12.243C13.0008 12.2459 13.0008 12.2488 13.0008 12.2517C13.0008 12.2546 13.0008 12.2575 13.0008 12.2604C13.0008 12.2633 13.0008 12.2662 13.0008 12.2691C13.0008 12.272 13.0008 12.2749 13.0008 12.2778C13.0008 12.2807 13.0008 12.2836 13.0008 12.2865C13.0008 12.2894 13.0008 12.2923 13.0008 12.2952C13.0008 12.2981 13.0008 12.301 13.0008 12.304C13.0008 12.3069 13.0008 12.3098 13.0008 12.3127C13.0008 12.3156 13.0008 12.3185 13.0008 12.3214C13.0008 12.3243 13.0008 12.3272 13.0008 12.3301C13.0008 12.333 13.0008 12.3359 13.0008 12.3388C13.0008 12.3417 13.0008 12.3446 13.0008 12.3475C13.0008 12.3504 13.0008 12.3533 13.0008 12.3562C13.0008 12.3591 13.0008 12.362 13.0008 12.3649C13.0008 12.3678 13.0008 12.3707 13.0008 12.3736C13.0008 12.3765 13.0008 12.3794 13.0008 12.3823C13.0008 12.3852 13.0008 12.3881 13.0008 12.391C13.0008 12.3939 13.0008 12.3968 13.0008 12.3997C13.0008 12.4026 13.0008 12.4055 13.0008 12.4084C13.0008 12.4113 13.0008 12.4142 13.0008 12.4171C13.0008 12.42 13.0008 12.4229 13.0008 12.4258C13.0008 12.4287 13.0008 12.4316 13.0008 12.4345C13.0008 12.4374 13.0008 12.4403 13.0008 12.4432C13.0008 12.4461 13.0008 12.449 13.0008 12.4519C13.0008 12.4548 13.0008 12.4577 13.0008 12.4606C13.0008 12.4635 13.0008 12.4664 13.0008 12.4693C13.0008 12.4721 13.0008 12.475 13.0008 12.4779C13.0008 12.4808 13.0008 12.4837 13.0008 12.4866C13.0008 12.4895 13.0008 12.4924 13.0008 12.4953C13.0008 12.4982 13.0008 12.501 13.0008 12.5039C13.0008 12.5068 13.0008 12.5097 13.0008 12.5126C13.0008 12.5155 13.0008 12.5184 13.0008 12.5213C13.0008 12.5241 13.0008 12.527 13.0008 12.5299C13.0008 12.5328 13.0008 12.5357 13.0008 12.5386C13.0008 12.5414 13.0008 12.5443 13.0008 12.5472C13.0008 12.5501 13.0008 12.553 13.0008 12.5558C13.0008 12.5587 13.0008 12.5616 13.0008 12.5645C13.0008 12.5674 13.0008 12.5702 13.0008 12.5731C13.0008 12.576 13.0008 12.5789 13.0008 12.5817C13.0008 12.5846 13.0008 12.5875 13.0008 12.5904C13.0008 12.5932 13.0008 12.5961 13.0008 12.599C13.0008 12.6018 13.0008 12.6047 13.0008 12.6076C13.0008 12.6105 13.0008 12.6133 13.0008 12.6162C13.0008 12.6191 13.0008 12.6219 13.0008 12.6248C13.0008 12.6277 13.0008 12.6305 13.0008 12.6334C13.0008 12.6362 13.0008 12.6391 13.0008 12.642C13.0008 12.6448 13.0008 12.6477 13.0008 12.6506C13.0008 12.6534 13.0008 12.6563 13.0008 12.6591C13.0008 12.662 13.0008 12.6648 13.0008 12.6677C13.0008 12.6706 13.0008 12.6734 13.0008 12.6763C13.0008 12.6791 13.0008 12.682 13.0008 12.6848C13.0008 12.6877 13.0008 12.6905 13.0008 12.6934C13.0008 12.6962 13.0008 12.6991 13.0008 12.7019C13.0008 12.7048 13.0008 12.7076 13.0008 12.7104C13.0008 12.7133 13.0008 12.7161 13.0008 12.719C13.0008 12.7218 13.0008 12.7247 13.0008 12.7275C13.0008 12.7303 13.0008 12.7332 13.0008 12.736C13.0008 12.7388 13.0008 12.7417 13.0008 12.7445C13.0008 12.7473 13.0008 12.7502 13.0008 12.753C13.0008 12.7558 13.0008 12.7587 13.0008 12.7615C13.0008 12.7643 13.0008 12.7672 13.0008 12.77C13.0008 12.7728 13.0008 12.7756 13.0008 12.7785C13.0008 12.7813 13.0008 12.7841 13.0008 12.7869C13.0008 12.7897 13.0008 12.7926 13.0008 12.7954C13.0008 12.7982 13.0008 12.801 13.0008 12.8038C13.0008 12.8066 13.0008 12.8094 13.0008 12.8123C13.0008 12.8151 13.0008 12.8179 13.0008 12.8207C13.0008 12.8235 13.0008 12.8263 13.0008 12.8291C13.0008 12.8319 13.0008 12.8347 13.0008 12.8375C13.0008 12.8403 13.0008 12.8431 13.0008 12.8459C13.0008 12.8487 13.0008 12.8515 13.0008 12.8543C13.0008 12.8571 13.0008 12.8599 13.0008 12.8627C13.0008 12.8655 13.0008 12.8683 13.0008 12.8711C13.0008 12.8739 13.0008 12.8766 13.0008 12.8794C13.0008 12.8822 13.0008 12.885 13.0008 12.8878C13.0008 12.8906 13.0008 12.8933 13.0008 12.8961C13.0008 12.8989 13.0008 12.9017 13.0008 12.9045C13.0008 12.9072 13.0008 12.91 13.0008 12.9128C13.0008 12.9155 13.0008 12.9183 13.0008 12.9211C13.0008 12.9239 13.0008 12.9266 13.0008 12.9294C13.0008 12.9321 13.0008 12.9349 13.0008 12.9377C13.0008 12.9404 13.0008 12.9432 13.0008 12.946C13.0008 12.9487 13.0008 12.9515 13.0008 12.9542C13.0008 12.957 13.0008 12.9597 13.0008 12.9625C13.0008 12.9652 13.0008 12.968 13.0008 12.9707C13.0008 12.9735 13.0008 12.9762 13.0008 12.9789C13.0008 12.9817 13.0008 12.9844 13.0008 12.9872C13.0008 12.9899 13.0008 12.9926 13.0008 12.9954C13.0008 12.9981 13.0008 13.0008 13.0008 13.0036C13.0008 13.0063 13.0008 13.009 13.0008 13.0118C13.0008 13.0145 13.0008 13.0172 13.0008 13.0199C13.0008 13.0226 13.0008 13.0254 13.0008 13.0281C13.0008 13.0308 13.0008 13.0335 13.0008 13.0362C13.0008 13.0389 13.0008 13.0416 13.0008 13.0444C13.0008 13.0471 13.0008 13.0498 13.0008 13.0525C13.0008 13.0552 13.0008 13.0579 13.0008 13.0606C13.0008 13.0633 13.0008 13.066 13.0008 13.0687C13.0008 13.0714 13.0008 13.0741 13.0008 13.0768C13.0008 13.0794 13.0008 13.0821 13.0008 13.0848C13.0008 13.0875 13.0008 13.0902 13.0008 13.0929C13.0008 13.0956 13.0008 13.0982 13.0008 13.1009C13.0008 13.1036 13.0008 13.1063 13.0008 13.1089C13.0008 13.1116 13.0008 13.1143 13.0008 13.1169C13.0008 13.1196 13.0008 13.1223 13.0008 13.1249C13.0008 13.1276 13.0008 13.1303 13.0008 13.1329C13.0008 13.1356 13.0008 13.1382 13.0008 13.1409C13.0008 13.1435 13.0008 13.1462 13.0008 13.1488C13.0008 13.1515 13.0008 13.1541 13.0008 13.1568C13.0008 13.1594 13.0008 13.1621 13.0008 13.1647C13.0008 13.1673 13.0008 13.17 13.0008 13.1726C13.0008 13.1752 13.0008 13.1779 13.0008 13.1805C13.0008 13.1831 13.0008 13.1858 13.0008 13.1884C13.0008 13.191 13.0008 13.1936 13.0008 13.1962C13.0008 13.1989 13.0008 13.2015 13.0008 13.2041C13.0008 13.2067 13.0008 13.2093 13.0008 13.2119C13.0008 13.2145 13.0008 13.2171 13.0008 13.2197C13.0008 13.2223 13.0008 13.2249 13.0008 13.2275C13.0008 13.2301 13.0008 13.2327 13.0008 13.2353C13.0008 13.2379 13.0008 13.2405 13.0008 13.2431C13.0008 13.2456 13.0008 13.2482 13.0008 13.2508C13.0008 13.2534 13.0008 13.256 13.0008 13.2585C13.0008 13.2611 13.0008 13.2637 13.0008 13.2662C13.0008 13.2688 13.0008 13.2714 13.0008 13.2739C13.0008 13.2765 13.0008 13.2791 13.0008 13.2816C13.0008 13.2842 13.0008 13.2867 13.0008 13.2893C13.0008 13.2918 13.0008 13.2944 13.0008 13.2969C13.0008 13.2995 13.0008 13.302 13.0008 13.3046C13.0008 13.3071 13.0008 13.3096 13.0008 13.3122C13.0008 13.3147 13.0008 13.3172 13.0008 13.3198C13.0008 13.3223 13.0008 13.3248 13.0008 13.3273C13.0008 13.3299 13.0008 13.3324 13.0008 13.3349C13.0008 13.3374 13.0008 13.3399 13.0008 13.3424C13.0008 13.3449 13.0008 13.3474 13.0008 13.3499C13.0008 13.3524 13.0008 13.3549 13.0008 13.3574C13.0008 13.3599 13.0008 13.3624 13.0008 13.3649C13.0008 13.3674 13.0008 13.3699 13.0008 13.3724C13.0008 13.3749 13.0008 13.3773 13.0008 13.3798C13.0008 13.3823 13.0008 13.3848 13.0008 13.3872C13.0008 13.3897 13.0008 13.3922 13.0008 13.3946C13.0008 13.3971 13.0008 13.3996 13.0008 13.402C13.0008 13.4045 13.0008 13.4069 13.0008 13.4094C13.0008 13.4118 13.0008 13.4143 13.0008 13.4167C13.0008 13.4192 13.0008 13.4216 13.0008 13.4241C13.0008 13.4265 13.0008 13.4289 13.0008 13.4314C13.0008 13.4338 13.0008 13.4362 13.0008 13.4387C13.0008 13.4411 13.0008 13.4435 13.0008 13.4459C13.0008 13.4483 13.0008 13.4508 13.0008 13.4532C13.0008 13.4556 13.0008 13.458 13.0008 13.4604C13.0008 13.4628 13.0008 13.4652 13.0008 13.4676C13.0008 13.47 13.0008 13.4724 13.0008 13.4748C13.0008 13.4772 13.0008 13.4795 13.0008 13.4819C13.0008 13.4843 13.0008 13.4867 13.0008 13.4891C13.0008 13.4914 13.0008 13.4938 13.0008 13.4962C13.0008 13.4986 13.0008 13.5009 13.0008 13.5033C13.0008 13.5056 13.0008 13.508 13.0008 13.5104C13.0008 13.5127 13.0008 13.5151 13.0008 13.5174C13.0008 13.5198 13.0008 13.5221 13.0008 13.5244C13.0008 13.5268 13.0008 13.5291 13.0008 13.5314C13.0008 13.5338 13.0008 13.5361 13.0008 13.5384C13.0008 13.5408 13.0008 13.5431 13.0008 13.5454C13.0008 13.5477 13.0008 13.55 13.0008 13.5523C13.0008 13.5546 13.0008 13.557 13.0008 13.5593C13.0008 13.5616 13.0008 13.5639 13.0008 13.5662C13.0008 13.5684 13.0008 13.5707 13.0008 13.573C13.0008 13.5753 13.0008 13.5776 13.0008 13.5799C13.0008 13.5822 13.0008 13.5844 13.0008 13.5867C13.0008 13.589 13.0008 13.5912 13.0008 13.5935C13.0008 13.5958 13.0008 13.598 13.0008 13.6003H15.0008ZM14.448 9.36085L13.058 8.66584L12.1635 10.4547L13.5536 11.1497L14.448 9.36085ZM9.83803 10.4547C10.57 10.0887 11.4316 10.0887 12.1635 10.4547L13.058 8.66584C11.7629 8.01833 10.2386 8.01833 8.9436 8.66584L9.83803 10.4547ZM11.0574 4.80005H1.40023V6.80005H11.0574V4.80005Z" fill="black"/>
</svg>
