<svg width="22" height="24" viewBox="0 0 22 24" fill="none" xmlns="http://www.w3.org/2000/svg">
<path id="gift-02-icon" d="M1.4001 14.0957L1.39991 8.82796C1.39986 7.50245 2.47438 6.42788 3.79989 6.42787L18.2001 6.42776C19.5256 6.42775 20.6001 7.50227 20.6001 8.82776V14.0957M1.4001 14.0957H20.6001M1.4001 14.0957L1.3999 19.6277C1.39986 20.9532 2.47439 22.0277 3.7999 22.0277H18.2001C19.5256 22.0277 20.6001 20.9532 20.6001 19.6277V14.0957M11.1746 22.0277V6.42775M9.96431 5.92255C10.144 5.91517 10.3101 5.82068 10.3995 5.66594C10.4888 5.5112 10.4875 5.32003 10.4041 5.16075C10.0855 4.58005 8.96742 2.64918 8.23775 2.22791C7.32868 1.70305 6.16098 2.01273 5.63873 2.91731C5.11651 3.82182 5.43206 4.98794 6.3412 5.51283C7.0828 5.941 9.30209 5.93695 9.96431 5.92255ZM11.6347 5.16059C11.5512 5.31992 11.55 5.51103 11.6393 5.66578C11.7287 5.82052 11.8949 5.91496 12.0745 5.92239C12.7368 5.93677 14.968 5.93395 15.6976 5.51267C16.6067 4.98782 16.9224 3.82173 16.4001 2.91715C15.8779 2.01264 14.7102 1.70285 13.8011 2.22774C13.0595 2.65591 11.9533 4.5799 11.6347 5.16059Z" stroke="black" stroke-width="2" stroke-linecap="round" stroke-linejoin="round"/>
</svg>
