<svg width="22" height="10" viewBox="0 0 22 10" fill="none" xmlns="http://www.w3.org/2000/svg">
<path id="glasses-01-icon" d="M7.1199 5.00001C7.1199 6.30341 6.06329 7.36002 4.7599 7.36002V9.36002C7.16786 9.36002 9.1199 7.40798 9.1199 5.00001H7.1199ZM4.7599 7.36002C3.45651 7.36002 2.3999 6.30341 2.3999 5.00001H0.399902C0.399902 7.40798 2.35194 9.36002 4.7599 9.36002V7.36002ZM2.3999 5.00001C2.3999 3.69662 3.45651 2.64001 4.7599 2.64001V0.640015C2.35194 0.640015 0.399902 2.59205 0.399902 5.00001H2.3999ZM4.7599 2.64001C6.06329 2.64001 7.1199 3.69662 7.1199 5.00001H9.1199C9.1199 2.59205 7.16786 0.640015 4.7599 0.640015V2.64001ZM8.95504 4.78074C9.3646 4.07273 10.1276 3.60001 10.9999 3.60001V1.60001C9.38485 1.60001 7.97618 2.47869 7.22383 3.77929L8.95504 4.78074ZM10.9999 3.60001C11.8722 3.60001 12.6352 4.07273 13.0448 4.78074L14.776 3.77929C14.0237 2.47869 12.615 1.60001 10.9999 1.60001V3.60001ZM19.5999 5.00001C19.5999 6.30341 18.5433 7.36002 17.2399 7.36002V9.36002C19.6479 9.36002 21.5999 7.40798 21.5999 5.00001H19.5999ZM17.2399 7.36002C15.9365 7.36002 14.8799 6.30341 14.8799 5.00001H12.8799C12.8799 7.40798 14.8319 9.36002 17.2399 9.36002V7.36002ZM14.8799 5.00001C14.8799 3.69662 15.9365 2.64001 17.2399 2.64001V0.640015C14.8319 0.640015 12.8799 2.59205 12.8799 5.00001H14.8799ZM17.2399 2.64001C18.5433 2.64001 19.5999 3.69662 19.5999 5.00001H21.5999C21.5999 2.59205 19.6479 0.640015 17.2399 0.640015V2.64001Z" fill="black"/>
</svg>
