<svg width="20" height="20" viewBox="0 0 20 20" fill="none" xmlns="http://www.w3.org/2000/svg">
<path id="image-up-icon" d="M4.375 19L13.9375 10L18.4375 14.5M4.375 19H15.625C17.489 19 19 17.489 19 15.625V10M4.375 19C2.51104 19 1 17.489 1 15.625V4.375C1 2.51104 2.51104 1 4.375 1H11.6875M14.5 3.28991L16.8009 1M16.8009 1L19 3.1864M16.8009 1V6.625M7.75 6.0625C7.75 6.99448 6.99448 7.75 6.0625 7.75C5.13052 7.75 4.375 6.99448 4.375 6.0625C4.375 5.13052 5.13052 4.375 6.0625 4.375C6.99448 4.375 7.75 5.13052 7.75 6.0625Z" stroke="black" stroke-width="2" stroke-linecap="round" stroke-linejoin="round"/>
</svg>
