<svg width="22" height="20" viewBox="0 0 22 20" fill="none" xmlns="http://www.w3.org/2000/svg">
<path id="image-no-borders-icon" d="M1.3999 18.4001L0.619033 17.7754C0.378898 18.0756 0.332079 18.4868 0.498599 18.8333C0.665119 19.1798 1.0155 19.4001 1.3999 19.4001L1.3999 18.4001ZM6.6799 11.8001L7.46077 11.1754C7.271 10.9382 6.98369 10.8001 6.6799 10.8001C6.37612 10.8001 6.0888 10.9382 5.89903 11.1754L6.6799 11.8001ZM8.5999 14.2001L7.81903 14.8248C8.0088 15.062 8.29612 15.2001 8.5999 15.2001C8.90368 15.2001 9.191 15.062 9.38077 14.8248L8.5999 14.2001ZM12.9199 8.8001L13.7008 8.1754C13.511 7.93819 13.2237 7.8001 12.9199 7.8001C12.6161 7.8001 12.3288 7.93819 12.139 8.1754L12.9199 8.8001ZM20.5999 18.4001V19.4001C20.9843 19.4001 21.3347 19.1798 21.5012 18.8333C21.6677 18.4868 21.6209 18.0756 21.3808 17.7754L20.5999 18.4001ZM6.3999 3.4001C6.3999 3.84193 6.04173 4.2001 5.5999 4.2001V6.2001C7.1463 6.2001 8.3999 4.94649 8.3999 3.4001H6.3999ZM5.5999 4.2001C5.15807 4.2001 4.7999 3.84193 4.7999 3.4001H2.7999C2.7999 4.94649 4.0535 6.2001 5.5999 6.2001V4.2001ZM4.7999 3.4001C4.7999 2.95827 5.15807 2.6001 5.5999 2.6001V0.600098C4.0535 0.600098 2.7999 1.8537 2.7999 3.4001H4.7999ZM5.5999 2.6001C6.04173 2.6001 6.3999 2.95827 6.3999 3.4001H8.3999C8.3999 1.8537 7.1463 0.600098 5.5999 0.600098V2.6001ZM2.18077 19.0248L7.46077 12.4248L5.89903 11.1754L0.619033 17.7754L2.18077 19.0248ZM5.89903 12.4248L7.81903 14.8248L9.38077 13.5754L7.46077 11.1754L5.89903 12.4248ZM9.38077 14.8248L13.7008 9.42479L12.139 8.1754L7.81903 13.5754L9.38077 14.8248ZM12.139 9.42479L19.819 19.0248L21.3808 17.7754L13.7008 8.1754L12.139 9.42479ZM20.5999 17.4001H1.3999V19.4001H20.5999V17.4001Z" fill="black"/>
</svg>
