<svg width="21" height="20" viewBox="0 0 21 20" fill="none" xmlns="http://www.w3.org/2000/svg">
<path id="image-x-icon" d="M4.35294 18.8823L13.8529 9.94117L18.3235 14.4118M4.35294 18.8823H15.5294C17.3812 18.8823 18.8824 17.3812 18.8824 15.5294V8.82353M4.35294 18.8823C2.50116 18.8823 1 17.3812 1 15.5294V4.35294C1 2.50116 2.50116 1 4.35294 1H11.6176M20 5.47059L17.7647 3.23529M17.7647 3.23529L15.5294 1M17.7647 3.23529L15.5294 5.47059M17.7647 3.23529L20 1M7.70588 6.02941C7.70588 6.9553 6.9553 7.70588 6.02941 7.70588C5.10352 7.70588 4.35294 6.9553 4.35294 6.02941C4.35294 5.10352 5.10352 4.35294 6.02941 4.35294C6.9553 4.35294 7.70588 5.10352 7.70588 6.02941Z" stroke="black" stroke-width="2" stroke-linecap="round" stroke-linejoin="round"/>
</svg>
