<svg width="22" height="22" viewBox="0 0 22 22" fill="none" xmlns="http://www.w3.org/2000/svg">
<g id="intersect-icon">
<path d="M14.1999 18.2C14.1999 19.5255 13.1254 20.6 11.7999 20.6C10.4744 20.6 3.7999 20.6 3.7999 20.6C2.47442 20.6 1.3999 19.5255 1.3999 18.2C1.3999 16.8745 1.3999 11.5255 1.3999 10.2C1.3999 8.87451 2.47442 7.79999 3.7999 7.79999L11.7999 7.79999C13.1254 7.79999 14.1999 8.87451 14.1999 10.2V18.2Z" stroke="black" stroke-width="2" stroke-linecap="round" stroke-linejoin="round"/>
<path d="M20.5999 11.8C20.5999 13.1255 19.5254 14.2 18.1999 14.2C16.8744 14.2 10.1999 14.2 10.1999 14.2C8.87442 14.2 7.7999 13.1255 7.7999 11.8C7.7999 10.4745 7.7999 5.12548 7.7999 3.79999C7.7999 2.47451 8.87442 1.39999 10.1999 1.39999L18.1999 1.39999C19.5254 1.39999 20.5999 2.47451 20.5999 3.79999V11.8Z" stroke="black" stroke-width="2" stroke-linecap="round" stroke-linejoin="round"/>
</g>
</svg>
