<svg width="22" height="22" viewBox="0 0 22 22" fill="none" xmlns="http://www.w3.org/2000/svg">
<path id="layout-03-icon" d="M10.1999 1.39999C10.1999 0.847709 9.75219 0.399994 9.1999 0.399994C8.64762 0.399994 8.1999 0.847709 8.1999 1.39999H10.1999ZM8.1999 20.6C8.1999 21.1523 8.64762 21.6 9.1999 21.6C9.75219 21.6 10.1999 21.1523 10.1999 20.6H8.1999ZM4.9999 2.39999H16.9999V0.399994H4.9999V2.39999ZM19.5999 4.99999V17H21.5999V4.99999H19.5999ZM16.9999 19.6H4.9999V21.6H16.9999V19.6ZM2.3999 17V4.99999H0.399902V17H2.3999ZM4.9999 19.6C3.56396 19.6 2.3999 18.4359 2.3999 17H0.399902C0.399902 19.5405 2.45939 21.6 4.9999 21.6V19.6ZM19.5999 17C19.5999 18.4359 18.4358 19.6 16.9999 19.6V21.6C19.5404 21.6 21.5999 19.5405 21.5999 17H19.5999ZM16.9999 2.39999C18.4358 2.39999 19.5999 3.56405 19.5999 4.99999H21.5999C21.5999 2.45948 19.5404 0.399994 16.9999 0.399994V2.39999ZM4.9999 0.399994C2.45939 0.399994 0.399902 2.45948 0.399902 4.99999H2.3999C2.3999 3.56405 3.56396 2.39999 4.9999 2.39999V0.399994ZM8.1999 1.39999V20.6H10.1999V1.39999H8.1999ZM9.1999 12H19.9999V9.99999H9.1999V12Z" fill="black"/>
</svg>
