<svg width="16" height="20" viewBox="0 0 16 20" fill="none" xmlns="http://www.w3.org/2000/svg">
<path id="luggage-01-icon" d="M4.91667 17.3636C4.91667 16.8114 4.46895 16.3636 3.91667 16.3636C3.36438 16.3636 2.91667 16.8114 2.91667 17.3636H4.91667ZM2.91667 19C2.91667 19.5523 3.36438 20 3.91667 20C4.46895 20 4.91667 19.5523 4.91667 19H2.91667ZM11.6667 19C11.6667 19.5523 12.1144 20 12.6667 20C13.219 20 13.6667 19.5523 13.6667 19H11.6667ZM6.66667 4.27273C6.66667 3.72044 6.21895 3.27273 5.66667 3.27273C5.11438 3.27273 4.66667 3.72044 4.66667 4.27273L6.66667 4.27273ZM4.66667 14.0909C4.66667 14.6432 5.11438 15.0909 5.66667 15.0909C6.21895 15.0909 6.66667 14.6432 6.66667 14.0909L4.66667 14.0909ZM11.3333 4.27273C11.3333 3.72044 10.8856 3.27273 10.3333 3.27273C9.78105 3.27273 9.33333 3.72044 9.33333 4.27273H11.3333ZM9.33333 14.0909C9.33333 14.6432 9.78105 15.0909 10.3333 15.0909C10.8856 15.0909 11.3333 14.6432 11.3333 14.0909H9.33333ZM2.91667 17.3636V19H4.91667V17.3636H2.91667ZM11.6667 17.3636V19H13.6667V17.3636H11.6667ZM4.66667 4.27273L4.66667 14.0909L6.66667 14.0909L6.66667 4.27273L4.66667 4.27273ZM9.33333 4.27273V14.0909H11.3333V4.27273H9.33333ZM3.33333 2H12.6667V0H3.33333V2ZM14 3.18182V15.1818H16V3.18182H14ZM12.6667 16.3636H3.33333V18.3636H12.6667V16.3636ZM2 15.1818V3.18182H0V15.1818H2ZM3.33333 16.3636C2.53265 16.3636 2 15.7723 2 15.1818H0C0 17.0013 1.55669 18.3636 3.33333 18.3636V16.3636ZM14 15.1818C14 15.7723 13.4673 16.3636 12.6667 16.3636V18.3636C14.4433 18.3636 16 17.0013 16 15.1818H14ZM12.6667 2C13.4673 2 14 2.5913 14 3.18182H16C16 1.36237 14.4433 0 12.6667 0V2ZM3.33333 0C1.55669 0 0 1.36237 0 3.18182H2C2 2.5913 2.53265 2 3.33333 2V0Z" fill="black"/>
</svg>
