<svg width="22" height="24" viewBox="0 0 22 24" fill="none" xmlns="http://www.w3.org/2000/svg">
<path id="message-notify-circle-icon" d="M21.5992 12.6C21.5992 12.0477 21.1515 11.6 20.5992 11.6C20.0469 11.6 19.5992 12.0477 19.5992 12.6H21.5992ZM19.7837 16.4779L18.8691 16.0736C18.7934 16.2449 18.7672 16.434 18.7937 16.6194L19.7837 16.4779ZM15.6981 20.9733L15.9406 20.0032C15.6927 19.9412 15.4306 19.9765 15.2079 20.1017L15.6981 20.9733ZM20.601 22.1991L20.3585 23.1692C20.6815 23.25 21.0235 23.1647 21.2707 22.9417C21.518 22.7187 21.638 22.3873 21.5909 22.0577L20.601 22.1991ZM9.38554 4.15094C9.92815 4.04801 10.2846 3.5247 10.1816 2.98209C10.0787 2.43948 9.55541 2.08305 9.0128 2.18598L9.38554 4.15094ZM19.5992 12.6C19.5992 13.8381 19.3381 15.0126 18.8691 16.0736L20.6983 16.8823C21.2778 15.5715 21.5992 14.1219 21.5992 12.6H19.5992ZM10.9992 21.2C6.24952 21.2 2.39917 17.3496 2.39917 12.6H0.39917C0.39917 18.4542 5.14495 23.2 10.9992 23.2V21.2ZM15.2079 20.1017C13.9647 20.8009 12.5301 21.2 10.9992 21.2V23.2C12.8823 23.2 14.6535 22.7081 16.1882 21.845L15.2079 20.1017ZM20.8435 21.2289L15.9406 20.0032L15.4555 21.9435L20.3585 23.1692L20.8435 21.2289ZM18.7937 16.6194L19.611 22.3405L21.5909 22.0577L20.7736 16.3365L18.7937 16.6194ZM2.39917 12.6C2.39917 8.40259 5.40721 4.9056 9.38554 4.15094L9.0128 2.18598C4.10803 3.11638 0.39917 7.42399 0.39917 12.6H2.39917ZM19.5992 5.39999C19.5992 6.83593 18.4351 7.99999 16.9992 7.99999V9.99999C19.5397 9.99999 21.5992 7.9405 21.5992 5.39999H19.5992ZM16.9992 7.99999C15.5632 7.99999 14.3992 6.83593 14.3992 5.39999H12.3992C12.3992 7.9405 14.4587 9.99999 16.9992 9.99999V7.99999ZM14.3992 5.39999C14.3992 3.96405 15.5632 2.79999 16.9992 2.79999V0.799988C14.4587 0.799988 12.3992 2.85948 12.3992 5.39999H14.3992ZM16.9992 2.79999C18.4351 2.79999 19.5992 3.96405 19.5992 5.39999H21.5992C21.5992 2.85948 19.5397 0.799988 16.9992 0.799988V2.79999Z" fill="black"/>
</svg>
