<svg width="22" height="22" viewBox="0 0 22 22" fill="none" xmlns="http://www.w3.org/2000/svg">
<path id="microphone-off-02-icon" d="M6.7921 5.51608V11.0043C6.7921 12.096 7.22576 13.143 7.9977 13.9149C8.76963 14.6868 9.8166 15.1205 10.9083 15.1205C12 15.1205 13.0469 14.6868 13.8189 13.9149C14.034 13.6998 14.2228 13.4633 14.3833 13.2104M1.3999 12.3764C1.73234 14.6606 2.87606 16.7487 4.62182 18.2588C6.36758 19.7688 8.59866 20.5999 10.9069 20.5999C13.2152 20.5999 15.4462 19.7688 17.192 18.2588C18.9378 16.7487 20.0815 14.6606 20.4139 12.3764M15.0245 7.9999V5.51608C15.0245 4.4244 14.5908 3.37744 13.8189 2.6055C13.0469 1.83357 12 1.3999 10.9083 1.3999C10.1472 1.3999 9.40786 1.61068 8.7683 1.9999M3.1999 1.3999L20.5999 18.7999" stroke="black" stroke-width="2" stroke-linecap="round" stroke-linejoin="round"/>
</svg>
