<svg width="22" height="22" viewBox="0 0 22 22" fill="none" xmlns="http://www.w3.org/2000/svg">
<path id="note-02-icon" d="M8.58587 15.8179C8.29209 15.1781 7.0888 14.244 6.78938 14.1092C6.10444 13.7264 5.30815 13.573 4.52401 13.6729C3.73987 13.7729 3.0117 14.1205 2.45241 14.6618C1.89313 15.2032 1.53399 15.9081 1.43069 16.6672C1.32739 17.4264 1.4857 18.1973 1.88107 18.8604C2.27645 19.5235 2.88679 20.0418 3.61745 20.3349C4.34811 20.628 5.15825 20.6796 5.92224 20.4815C6.68623 20.2835 7.36137 19.8469 7.84297 19.2396C8.32456 18.6322 8.5857 17.888 8.58588 17.1223V4.91005C8.58588 4.44257 8.90976 4.03746 9.36579 3.93457L20.5999 1.3999L20.5998 14.6399M20.5998 14.6399L20.5999 15.9445C20.5997 16.7102 20.3386 17.4544 19.857 18.0618C19.3754 18.6691 18.7003 19.1057 17.9363 19.3037C17.1723 19.5018 16.3621 19.4502 15.6315 19.1571C14.9008 18.864 14.2905 18.3457 13.8951 17.6826C13.4997 17.0194 13.3414 16.2485 13.4447 15.4894C13.548 14.7303 13.9072 14.0254 14.4664 13.484C15.0257 12.9426 15.7539 12.595 16.538 12.4951C17.3222 12.3952 18.1185 12.5486 18.8034 12.9314C19.1028 13.0662 20.3058 14.0001 20.5998 14.6399Z" stroke="black" stroke-width="2" stroke-linecap="round" stroke-linejoin="round"/>
</svg>
