<svg width="22" height="22" viewBox="0 0 22 22" fill="none" xmlns="http://www.w3.org/2000/svg">
<path id="pen-tool-04-icon" d="M3.89388 10.4535C3.70919 10.974 3.98141 11.5456 4.5019 11.7303C5.02239 11.915 5.59405 11.6428 5.77874 11.1223L3.89388 10.4535ZM6.86977 5.05725L5.92734 4.72284L5.92734 4.72284L6.86977 5.05725ZM8.2412 3.86984L8.04509 2.88926L8.04509 2.88926L8.2412 3.86984ZM20.2124 1.47559L21.1966 1.65305C21.2553 1.32731 21.1491 0.993613 20.9128 0.761799C20.6766 0.529984 20.3409 0.430092 20.0163 0.495005L20.2124 1.47559ZM18.0278 13.5903L17.0437 13.4129L17.0437 13.4129L18.0278 13.5903ZM16.7675 15.0182L16.4692 14.0637L16.4692 14.0637L16.7675 15.0182ZM10.6019 15.8972C10.0747 16.062 9.78093 16.6229 9.94566 17.15C10.1104 17.6771 10.6713 17.9709 11.1984 17.8062L10.6019 15.8972ZM20.703 2.39926C21.0935 2.00874 21.0935 1.37557 20.703 0.985046C20.3125 0.594522 19.6793 0.594522 19.2888 0.985046L20.703 2.39926ZM14.0912 6.18261C13.7007 6.57314 13.7007 7.2063 14.0912 7.59683C14.4817 7.98735 15.1149 7.98735 15.5054 7.59683L14.0912 6.18261ZM1.37127 15.1192L0.664161 15.8263L0.664161 15.8263L1.37127 15.1192ZM1.37127 13.3867L2.07838 14.0938L2.07838 14.0938L1.37127 13.3867ZM8.30136 20.3168L9.00846 21.0239L9.00846 21.0239L8.30136 20.3168ZM6.56884 20.3168L7.27594 19.6097L7.27594 19.6097L6.56884 20.3168ZM10.467 16.4186L9.7599 17.1257L9.7599 17.1257L10.467 16.4186ZM10.467 18.1511L9.7599 17.444L9.7599 17.444L10.467 18.1511ZM5.26944 11.221L5.97655 10.5139L5.97655 10.5139L5.26944 11.221ZM3.53692 11.221L2.82982 10.5139L2.82981 10.5139L3.53692 11.221ZM5.77874 11.1223L7.81219 5.39166L5.92734 4.72284L3.89388 10.4535L5.77874 11.1223ZM8.43732 4.85042L20.4086 2.45617L20.0163 0.495005L8.04509 2.88926L8.43732 4.85042ZM19.2283 1.29812L17.0437 13.4129L19.0119 13.7678L21.1966 1.65305L19.2283 1.29812ZM16.4692 14.0637L10.6019 15.8972L11.1984 17.8062L17.0658 15.9727L16.4692 14.0637ZM17.0437 13.4129C16.9883 13.7199 16.767 13.9706 16.4692 14.0637L17.0658 15.9727C18.0745 15.6574 18.8244 14.8078 19.0119 13.7678L17.0437 13.4129ZM7.81219 5.39166C7.91079 5.1138 8.14821 4.90824 8.43732 4.85042L8.04509 2.88926C7.06566 3.08514 6.26135 3.78153 5.92734 4.72284L7.81219 5.39166ZM19.2888 0.985046L14.0912 6.18261L15.5054 7.59683L20.703 2.39926L19.2888 0.985046ZM4.56234 11.9281L9.7599 17.1257L11.1741 15.7115L5.97655 10.5139L4.56234 11.9281ZM9.7599 17.444L7.59425 19.6097L9.00846 21.0239L11.1741 18.8582L9.7599 17.444ZM7.27594 19.6097L2.07837 14.4121L0.664161 15.8263L5.86173 21.0239L7.27594 19.6097ZM2.07838 14.0938L4.24403 11.9281L2.82981 10.5139L0.664161 12.6796L2.07838 14.0938ZM2.07837 14.4121C1.99048 14.3242 1.99048 14.1817 2.07838 14.0938L0.664161 12.6796C-0.204785 13.5485 -0.204786 14.9574 0.664161 15.8263L2.07837 14.4121ZM7.59425 19.6097C7.50635 19.6976 7.36384 19.6976 7.27594 19.6097L5.86173 21.0239C6.73068 21.8928 8.13952 21.8928 9.00846 21.0239L7.59425 19.6097ZM9.7599 17.1257C9.8478 17.2136 9.8478 17.3561 9.7599 17.444L11.1741 18.8582C12.0431 17.9893 12.0431 16.5804 11.1741 15.7115L9.7599 17.1257ZM5.97655 10.5139C5.1076 9.64497 3.69876 9.64497 2.82982 10.5139L4.24403 11.9281C4.33193 11.8402 4.47444 11.8402 4.56234 11.9281L5.97655 10.5139ZM13.6581 10.0808C13.0918 10.6471 12.1736 10.6471 11.6072 10.0808L10.193 11.495C11.5404 12.8424 13.7249 12.8424 15.0723 11.495L13.6581 10.0808ZM11.6072 10.0808C11.0409 9.51447 11.0409 8.59628 11.6072 8.02996L10.193 6.61574C8.84567 7.96311 8.84566 10.1476 10.193 11.495L11.6072 10.0808ZM11.6072 8.02996C12.1736 7.46364 13.0918 7.46364 13.6581 8.02996L15.0723 6.61574C13.7249 5.26837 11.5404 5.26837 10.193 6.61574L11.6072 8.02996ZM13.6581 8.02996C14.2244 8.59628 14.2244 9.51447 13.6581 10.0808L15.0723 11.495C16.4197 10.1476 16.4197 7.96311 15.0723 6.61574L13.6581 8.02996Z" fill="black"/>
</svg>
