<svg width="24" height="22" viewBox="0 0 24 22" fill="none" xmlns="http://www.w3.org/2000/svg">
<path id="phone-incoming-02-icon" d="M17.2961 8.89187L13.4042 5M13.4042 5L16.8415 1.5592M13.4042 5L22.2474 5M19.7892 18.1792C19.7892 18.1792 18.5972 19.3499 18.3051 19.6931C17.8293 20.2009 17.2687 20.4407 16.5337 20.4407C16.463 20.4407 16.3877 20.4407 16.317 20.436C14.9178 20.3467 13.6175 19.8013 12.6422 19.3358C9.9757 18.0476 7.63422 16.2187 5.68848 13.9008C4.08196 11.9684 3.0078 10.1818 2.2964 8.26355C1.85826 7.09285 1.69808 6.18074 1.76875 5.32035C1.81586 4.77026 2.02786 4.31421 2.41889 3.92398L4.02542 2.32073C4.25627 2.10446 4.50125 1.98692 4.74153 1.98692C5.03833 1.98692 5.27861 2.16558 5.42936 2.31603C5.43408 2.32073 5.43879 2.32544 5.4435 2.33014C5.73088 2.59813 6.00413 2.87552 6.29152 3.17172C6.43757 3.32217 6.58833 3.47263 6.73908 3.62778L8.02525 4.91131C8.52464 5.40968 8.52464 5.87044 8.02525 6.36881C7.88862 6.50515 7.75671 6.6415 7.62008 6.77314C7.22434 7.17748 7.53522 6.86724 7.12534 7.23396C7.11592 7.24337 7.1065 7.24807 7.10179 7.25747C6.69662 7.66181 6.772 8.05674 6.8568 8.32473C6.86151 8.33884 6.86623 8.35294 6.87094 8.36705C7.20543 9.17572 7.67656 9.93738 8.39266 10.8448L8.39737 10.8495C9.69767 12.448 11.0686 13.694 12.5809 14.6484C12.7741 14.7706 12.972 14.8694 13.1604 14.9634C13.33 15.048 13.4902 15.1279 13.6268 15.2126C13.6457 15.222 13.6645 15.2361 13.6834 15.2455C13.8435 15.3254 13.9943 15.363 14.1498 15.363C14.5408 15.363 14.7858 15.1185 14.8659 15.0386L15.7893 14.117C15.9495 13.9572 16.2039 13.7644 16.5007 13.7644C16.7928 13.7644 17.0331 13.9478 17.1792 14.1076C17.1839 14.1123 17.1839 14.1123 17.1886 14.117L19.7845 16.7076C20.2697 17.1872 19.7892 18.1792 19.7892 18.1792Z" stroke="black" stroke-width="2" stroke-linecap="round" stroke-linejoin="round"/>
</svg>
