<svg width="20" height="20" viewBox="0 0 20 20" fill="none" xmlns="http://www.w3.org/2000/svg">
<path id="phone-icon" d="M18.6633 16.771C18.6633 16.771 17.5047 17.909 17.2207 18.2426C16.7582 18.7362 16.2132 18.9693 15.4988 18.9693C15.4301 18.9693 15.3568 18.9693 15.2881 18.9647C13.9279 18.8779 12.6639 18.3477 11.7159 17.8953C9.12382 16.643 6.84771 14.8651 4.95629 12.6119C3.39461 10.7335 2.35044 8.9968 1.65891 7.13211C1.233 5.99409 1.07729 5.10744 1.14598 4.27107C1.19178 3.73634 1.39787 3.29302 1.77798 2.91368L3.33966 1.35519C3.56406 1.14496 3.80221 1.0307 4.03577 1.0307C4.32429 1.0307 4.55786 1.20437 4.70441 1.35062C4.70899 1.35519 4.71357 1.35977 4.71815 1.36434C4.99751 1.62485 5.26313 1.8945 5.54249 2.18243C5.68446 2.32868 5.83101 2.47493 5.97756 2.62575L7.22782 3.87345C7.71327 4.35791 7.71327 4.8058 7.22782 5.29026C7.09501 5.4228 6.96678 5.55534 6.83397 5.68331C6.44927 6.07636 6.75147 5.77477 6.35304 6.13126C6.34388 6.1404 6.33472 6.14497 6.33014 6.15411C5.93629 6.54716 6.00956 6.93107 6.092 7.19158C6.09658 7.20529 6.10116 7.219 6.10573 7.23271C6.43089 8.01881 6.88886 8.7592 7.58498 9.64128L7.58956 9.64585C8.85355 11.1998 10.1862 12.4109 11.6563 13.3387C11.8441 13.4575 12.0364 13.5535 12.2196 13.6449C12.3845 13.7272 12.5402 13.8049 12.673 13.8871C12.6913 13.8963 12.7097 13.91 12.728 13.9191C12.8837 13.9968 13.0302 14.0334 13.1814 14.0334C13.5615 14.0334 13.7996 13.7957 13.8775 13.718L14.7752 12.8222C14.9309 12.6668 15.1782 12.4794 15.4667 12.4794C15.7506 12.4794 15.9842 12.6576 16.1262 12.813C16.1308 12.8176 16.1308 12.8176 16.1353 12.8222L18.6587 15.3404C19.1305 15.8066 18.6633 16.771 18.6633 16.771Z" stroke="black" stroke-width="2" stroke-linecap="round" stroke-linejoin="round"/>
</svg>
