<svg width="26" height="22" viewBox="0 0 26 22" fill="none" xmlns="http://www.w3.org/2000/svg">
<path id="phone-up-icon" d="M9.31837 15.3568L12.9184 11.7568M12.9184 11.7568L16.3592 15.1941M12.9184 11.7568L12.9184 20.5999M1.83291 8.51103C1.83302 7.72817 1.82865 6.80963 1.8089 6.56419C1.78632 5.86867 2.0132 5.30269 2.53289 4.783C3.58546 3.85676 6.06583 2.81258 6.06583 2.81258C6.06583 2.81258 9.31998 1.39995 12.7621 1.40002C16.1461 1.4001 19.3513 2.47286 21.2107 3.32624C22.3484 3.84423 23.1066 4.37593 23.665 5.03428C24.0207 5.45657 24.1932 5.92896 24.1927 6.48139L24.1732 8.59283C24.1671 9.25838 23.6204 9.7918 22.9549 9.78163L19.9437 9.73561C19.2882 9.7256 18.7621 9.19135 18.7621 8.53575V7.30162C18.7621 7.0113 18.5553 6.76323 18.2687 6.71665C17.1987 6.54274 14.6124 6.16063 12.7608 6.20003C11.1183 6.23497 8.85171 6.5638 7.86016 6.71931C7.57136 6.7646 7.36206 7.01381 7.36206 7.30615V8.51755C7.36206 9.1803 6.8248 9.71756 6.16206 9.71755L3.0365 9.71755C2.37109 9.71754 1.83282 9.17644 1.83291 8.51103Z" stroke="black" stroke-width="2" stroke-linecap="round" stroke-linejoin="round"/>
</svg>
