<svg width="22" height="18" viewBox="0 0 22 18" fill="none" xmlns="http://www.w3.org/2000/svg">
<path id="phone-call-02-icon" d="M7.78995 6.0719C8.66403 5.44875 9.69765 5.1223 10.7823 5.12119C11.867 5.12008 12.8971 5.44728 13.7728 6.06579M5.45484 3.50818C7.01161 2.40194 8.85614 1.81776 10.7829 1.81293C12.7124 1.81096 14.5529 2.39423 16.1074 3.49729M1.41934 15.2669C1.41934 15.2669 1.43222 13.834 1.40121 13.4487C1.38184 12.8522 1.57644 12.3667 2.02218 11.921C2.06504 11.8781 2.11076 11.8324 2.15647 11.7924C3.05927 10.998 4.17865 10.5401 5.05241 10.2309C7.45095 9.39501 9.98026 9.08415 12.5661 9.30985C14.7124 9.50746 16.4474 9.93956 18.0423 10.6715C19.018 11.1158 19.6684 11.5718 20.1473 12.1365C20.4524 12.4987 20.6004 12.9039 20.5999 13.3777L20.5979 15.3244C20.5891 15.5956 20.5118 15.8154 20.3661 15.9612C20.186 16.1412 19.932 16.1785 19.7493 16.1787C19.7436 16.1787 19.7379 16.1787 19.7322 16.1787C19.3953 16.1905 19.0614 16.188 18.7074 16.1826C18.5276 16.18 18.3449 16.1802 18.1594 16.1775L16.6009 16.1791C15.9958 16.1797 15.7163 15.9003 15.7169 15.2951C15.7171 15.1296 15.7144 14.9669 15.7174 14.8042C15.7122 14.3189 15.7118 14.6956 15.738 14.2246C15.738 14.2132 15.7409 14.2047 15.738 14.1961C15.7385 13.7051 15.4533 13.5113 15.2393 13.4002C15.2279 13.3945 15.2165 13.3888 15.2051 13.3831C14.5118 13.0956 13.7641 12.9194 12.7795 12.8033L12.7738 12.8033C11.0156 12.6225 9.42852 12.6983 7.93248 13.0366C7.74119 13.0796 7.5613 13.1398 7.38998 13.197C7.23579 13.2486 7.09017 13.2972 6.95598 13.3288C6.93885 13.3345 6.91886 13.3374 6.90173 13.3431C6.75611 13.3918 6.64186 13.4604 6.54757 13.5547C6.31041 13.7919 6.31011 14.0887 6.31001 14.1858L6.30886 15.3048C6.30867 15.4989 6.27128 15.7701 6.09127 15.9501C5.91412 16.1272 5.65719 16.1617 5.47166 16.1534C5.46595 16.1534 5.46595 16.1534 5.46024 16.1534L2.3147 16.1566C1.72955 16.16 1.41934 15.2669 1.41934 15.2669Z" stroke="black" stroke-width="2" stroke-linecap="round" stroke-linejoin="round"/>
</svg>
