<svg width="22" height="22" viewBox="0 0 22 22" fill="none" xmlns="http://www.w3.org/2000/svg">
<path id="phone-x-icon" d="M20.5999 7.43079L17.5999 4.43078M17.5999 4.43078L14.5999 1.43079M17.5999 4.43078L14.5999 7.43079M17.5999 4.43078L20.5999 1.43079M18.9329 18.3709C18.9329 18.3709 17.7742 19.5089 17.4903 19.8426C17.0277 20.3362 16.4827 20.5693 15.7683 20.5693C15.6996 20.5693 15.6263 20.5693 15.5576 20.5647C14.1974 20.4778 12.9335 19.9477 11.9855 19.4952C9.39335 18.243 7.11724 16.4651 5.22582 14.2119C3.66415 12.3335 2.61997 10.5968 1.92844 8.73208C1.50253 7.59406 1.34682 6.70742 1.41551 5.87104C1.46131 5.33631 1.6674 4.89299 2.04751 4.51365L3.60919 2.95517C3.83359 2.74493 4.07174 2.63067 4.3053 2.63067C4.59382 2.63067 4.82739 2.80435 4.97394 2.9506C4.97852 2.95517 4.9831 2.95974 4.98768 2.96431C5.26704 3.22482 5.53266 3.49447 5.81202 3.7824C5.95399 3.92865 6.10054 4.0749 6.24709 4.22572L7.49735 5.47343C7.9828 5.95788 7.9828 6.40577 7.49735 6.89023C7.36454 7.02277 7.23631 7.15531 7.1035 7.28328C6.7188 7.67633 7.021 7.37475 6.62257 7.73123C6.61341 7.74037 6.60425 7.74494 6.59967 7.75408C6.20582 8.14713 6.27909 8.53104 6.36153 8.79155C6.36611 8.80526 6.37069 8.81897 6.37527 8.83268C6.70042 9.61878 7.15839 10.3592 7.85451 11.2413L7.85909 11.2458C9.12308 12.7997 10.4558 14.0109 11.9259 14.9387C12.1136 15.0575 12.306 15.1535 12.4892 15.2449C12.654 15.3271 12.8097 15.4048 12.9425 15.4871C12.9609 15.4962 12.9792 15.5099 12.9975 15.5191C13.1532 15.5968 13.2998 15.6333 13.4509 15.6333C13.831 15.6333 14.0692 15.3957 14.147 15.318L15.0447 14.4221C15.2004 14.2668 15.4477 14.0794 15.7362 14.0794C16.0202 14.0794 16.2537 14.2576 16.3957 14.413C16.4003 14.4176 16.4003 14.4176 16.4049 14.4221L18.9283 16.9404C19.4 17.4066 18.9329 18.3709 18.9329 18.3709Z" stroke="black" stroke-width="2" stroke-linecap="round" stroke-linejoin="round"/>
</svg>
