<svg width="22" height="22" viewBox="0 0 22 22" fill="none" xmlns="http://www.w3.org/2000/svg">
<path id="scissors-03-icon" d="M3.55015 8.3953L20.3501 15.8001M20.3501 6.20015L3.55015 13.605M4.75015 8.60015C2.76192 8.60015 1.15015 6.98837 1.15015 5.00015C1.15015 3.01192 2.76192 1.40015 4.75015 1.40015C6.73837 1.40015 8.35015 3.01192 8.35015 5.00015C8.35015 6.98837 6.73837 8.60015 4.75015 8.60015ZM4.75015 20.6001C2.76192 20.6001 1.15015 18.9884 1.15015 17.0001C1.15015 15.0119 2.76192 13.4001 4.75015 13.4001C6.73837 13.4001 8.35015 15.0119 8.35015 17.0001C8.35015 18.9884 6.73837 20.6001 4.75015 20.6001Z" stroke="black" stroke-width="2" stroke-linecap="round" stroke-linejoin="round"/>
</svg>
