<svg width="24" height="22" viewBox="0 0 24 22" fill="none" xmlns="http://www.w3.org/2000/svg">
<path id="star-02-icon" d="M11.4951 1.71381C11.7017 1.29527 12.2985 1.29527 12.5051 1.71381L15.1791 7.13194C15.2611 7.29814 15.4196 7.41334 15.6031 7.43999L21.5823 8.30883C22.0442 8.37595 22.2286 8.94357 21.8944 9.26936L17.5678 13.4868C17.4351 13.6162 17.3745 13.8026 17.4058 13.9852L18.4272 19.9403C18.5061 20.4004 18.0233 20.7512 17.6101 20.534L12.2621 17.7224C12.0981 17.6361 11.9021 17.6361 11.738 17.7224L6.39002 20.534C5.97689 20.7512 5.49404 20.4004 5.57294 19.9403L6.59432 13.9852C6.62565 13.8026 6.56509 13.6162 6.43236 13.4868L2.10573 9.26936C1.7715 8.94357 1.95594 8.37595 2.41783 8.30883L8.39708 7.43999C8.5805 7.41334 8.73906 7.29814 8.82109 7.13194L11.4951 1.71381Z" stroke="black" stroke-width="2" stroke-linejoin="round"/>
</svg>
