<svg width="20" height="22" viewBox="0 0 20 22" fill="none" xmlns="http://www.w3.org/2000/svg">
<g id="stopwatch-02-icon">
<path d="M10.8701 13.2565C10.8701 13.9737 10.2887 14.5552 9.57143 14.5552C8.85417 14.5552 8.27273 13.9737 8.27273 13.2565C8.27273 12.5392 8.85417 11.9578 9.57143 11.9578C10.2887 11.9578 10.8701 12.5392 10.8701 13.2565Z" fill="#D9D9D9"/>
<path d="M17.2915 2.37082C16.901 1.98029 16.2678 1.98029 15.8773 2.37082C15.4868 2.76134 15.4868 3.3945 15.8773 3.78503L17.2915 2.37082ZM18.215 6.12269C18.6055 6.51322 19.2387 6.51322 19.6292 6.12269C20.0197 5.73217 20.0197 5.099 19.6292 4.70848L18.215 6.12269ZM10.5714 8.84091C10.5714 8.28862 10.1237 7.84091 9.57143 7.84091C9.01914 7.84091 8.57143 8.28862 8.57143 8.84091H10.5714ZM8.57143 12.2175C8.57143 12.7698 9.01914 13.2175 9.57143 13.2175C10.1237 13.2175 10.5714 12.7698 10.5714 12.2175H8.57143ZM6.97403 0C6.42174 0 5.97403 0.447715 5.97403 1C5.97403 1.55228 6.42174 2 6.97403 2V0ZM11.9091 2C12.4614 2 12.9091 1.55228 12.9091 1C12.9091 0.447715 12.4614 0 11.9091 0V2ZM15.0981 5.4877C14.7076 5.87822 14.7076 6.51139 15.0981 6.90191C15.4886 7.29244 16.1218 7.29244 16.5123 6.90191L15.0981 5.4877ZM17.7532 4.24675L18.4604 3.53965L18.4604 3.53965L17.7532 4.24675ZM8.57143 8.84091V12.2175H10.5714V8.84091H8.57143ZM6.97403 2H11.9091V0H6.97403V2ZM16.5123 6.90191L18.4604 4.95386L17.0461 3.53965L15.0981 5.4877L16.5123 6.90191ZM17.1429 12.4286C17.1429 16.6102 13.753 20 9.57143 20V22C14.8576 22 19.1429 17.7147 19.1429 12.4286H17.1429ZM9.57143 20C5.38984 20 2 16.6102 2 12.4286H0C0 17.7147 4.28527 22 9.57143 22V20ZM2 12.4286C2 8.24699 5.38984 4.85714 9.57143 4.85714V2.85714C4.28527 2.85714 0 7.14242 0 12.4286H2ZM9.57143 4.85714C13.753 4.85714 17.1429 8.24699 17.1429 12.4286H19.1429C19.1429 7.14242 14.8576 2.85714 9.57143 2.85714V4.85714ZM9.87013 13.2565C9.87013 13.4215 9.7364 13.5552 9.57143 13.5552V15.5552C10.841 15.5552 11.8701 14.526 11.8701 13.2565H9.87013ZM9.57143 13.5552C9.40646 13.5552 9.27273 13.4215 9.27273 13.2565H7.27273C7.27273 14.526 8.30189 15.5552 9.57143 15.5552V13.5552ZM9.27273 13.2565C9.27273 13.0915 9.40646 12.9578 9.57143 12.9578V10.9578C8.30189 10.9578 7.27273 11.987 7.27273 13.2565H9.27273ZM9.57143 12.9578C9.7364 12.9578 9.87013 13.0915 9.87013 13.2565H11.8701C11.8701 11.987 10.841 10.9578 9.57143 10.9578V12.9578ZM15.8773 3.78503L17.0461 4.95386L18.4604 3.53965L17.2915 2.37082L15.8773 3.78503ZM17.0461 4.95386L18.215 6.12269L19.6292 4.70848L18.4604 3.53965L17.0461 4.95386Z" fill="black"/>
</g>
</svg>
