<svg width="14" height="20" viewBox="0 0 14 20" fill="none" xmlns="http://www.w3.org/2000/svg">
<path id="watch-01-icon" d="M3 14.6709L4.02392 18.6603C4.0753 18.8605 4.25183 19 4.45373 19H9.34094C9.53484 19 9.70636 18.8711 9.76475 18.6815L11 14.6709M11 5.32911L9.97608 1.33972C9.9247 1.13953 9.74817 1 9.54627 1L4.65906 1C4.46516 1 4.29364 1.12889 4.23525 1.31847L3 5.32911M13 9.88608C13 13.2837 10.3137 16.038 7 16.038C3.68629 16.038 1 13.2837 1 9.88608C1 6.48848 3.68629 3.73418 7 3.73418C10.3137 3.73418 13 6.48848 13 9.88608Z" stroke="black" stroke-width="2" stroke-linecap="round"/>
</svg>
