<svg width="19" height="18" viewBox="0 0 19 18" fill="none" xmlns="http://www.w3.org/2000/svg">
<path d="M11 7.5H14.573C14.8287 7.50001 15.0801 7.56536 15.3034 7.68984C15.5266 7.81433 15.7144 7.99382 15.8488 8.21127C15.9833 8.42873 16.0599 8.67693 16.0714 8.93232C16.083 9.18771 16.029 9.44181 15.9147 9.6705L13.2897 14.9205C13.1651 15.1698 12.9735 15.3795 12.7364 15.5261C12.4993 15.6726 12.226 15.7501 11.9472 15.75H8.9345C8.81225 15.75 8.69 15.735 8.57075 15.705L5.75 15M11 7.5V3.75C11 3.35218 10.842 2.97064 10.5607 2.68934C10.2794 2.40804 9.89782 2.25 9.5 2.25H9.42875C9.05375 2.25 8.75 2.55375 8.75 2.92875C8.75 3.46425 8.59175 3.98775 8.294 4.43325L5.75 8.25V15M11 7.5H9.5M5.75 15H4.25C3.85218 15 3.47064 14.842 3.18934 14.5607C2.90804 14.2794 2.75 13.8978 2.75 13.5V9C2.75 8.60218 2.90804 8.22064 3.18934 7.93934C3.47064 7.65804 3.85218 7.5 4.25 7.5H6.125" stroke="black" stroke-width="2" stroke-linecap="round" stroke-linejoin="round"/>
</svg>
