<svg xmlns="http://www.w3.org/2000/svg"
     fill="currentColor"
     viewBox="0 0 24 24">
    <path fill="#000"
          d="M1.406 15.967a1 1 0 1 0 1.988.225l-1.988-.225ZM3.52 6.2l-.643-.766a1 1 0 0 0-.35.653l.993.113Zm2.883-1.113a1 1 0 1 0-1.286-1.532l1.286 1.532Zm14.203 11.106a1 1 0 0 0 1.988-.225l-1.988.225ZM20.48 6.2l.994-.113a1 1 0 0 0-.351-.653l-.643.766Zm-1.597-2.645a1 1 0 1 0-1.286 1.532l1.286-1.532ZM8.12 16.32a2.36 2.36 0 0 1-2.36 2.36v2a4.36 4.36 0 0 0 4.36-4.36h-2Zm-2.36 2.36a2.36 2.36 0 0 1-2.36-2.36h-2a4.36 4.36 0 0 0 4.36 4.36v-2ZM3.4 16.32a2.36 2.36 0 0 1 2.36-2.36v-2a4.36 4.36 0 0 0-4.36 4.36h2Zm2.36-2.36a2.36 2.36 0 0 1 2.36 2.36h2a4.36 4.36 0 0 0-4.36-4.36v2Zm4.195 2.14A2.359 2.359 0 0 1 12 14.92v-2a4.359 4.359 0 0 0-3.776 2.18l1.731 1ZM12 14.92c.872 0 1.635.473 2.045 1.18l1.731-1A4.359 4.359 0 0 0 12 12.92v2Zm8.6 1.4a2.36 2.36 0 0 1-2.36 2.36v2a4.36 4.36 0 0 0 4.36-4.36h-2Zm-2.36 2.36a2.36 2.36 0 0 1-2.36-2.36h-2a4.36 4.36 0 0 0 4.36 4.36v-2Zm-2.36-2.36a2.36 2.36 0 0 1 2.36-2.36v-2a4.36 4.36 0 0 0-4.36 4.36h2Zm2.36-2.36a2.36 2.36 0 0 1 2.36 2.36h2a4.36 4.36 0 0 0-4.36-4.36v2ZM3.394 16.192l1.12-9.88-1.988-.226-1.12 9.881 1.988.225Zm.769-9.227 2.24-1.88-1.286-1.531-2.24 1.879 1.286 1.532Zm18.43 9.002-1.12-9.88-1.987.225 1.12 9.88 1.988-.225Zm-1.47-10.534-2.24-1.88-1.286 1.533 2.24 1.88 1.286-1.533Z" />
</svg>