<svg width="616" height="459" viewBox="0 0 616 459" fill="none" xmlns="http://www.w3.org/2000/svg">
<path d="M615.936 403.324H0.064209V403.632H615.936V403.324Z" fill="#343C40"/>
<path d="M134.842 418.094H63.6838V418.402H134.842V418.094Z" fill="#343C40"/>
<path d="M290.337 411.402H257.917V411.71H290.337V411.402Z" fill="#343C40"/>
<path d="M365.35 411.242H302.186V411.55H365.35V411.242Z" fill="#343C40"/>
<path d="M485.581 414.938H470.196V415.245H485.581V414.938Z" fill="#343C40"/>
<path d="M417.071 414.938H355.706V415.245H417.071V414.938Z" fill="#343C40"/>
<path d="M158.959 418.094H146.765V418.402H158.959V418.094Z" fill="#343C40"/>
<path d="M548.904 414.938H495.631V415.245H548.904V414.938Z" fill="#343C40"/>
<path d="M291.987 348.388H54.1501C52.2869 348.385 50.5011 347.642 49.1848 346.323C47.8685 345.005 47.1291 343.218 47.1292 341.355V7.02245C47.1454 5.16994 47.8918 3.39863 49.2064 2.09328C50.521 0.787928 52.2975 0.0539547 54.1501 0.0507812H291.987C293.853 0.0507813 295.642 0.791783 296.961 2.11077C298.28 3.42977 299.021 5.2187 299.021 7.08403V341.355C299.021 343.22 298.28 345.009 296.961 346.328C295.642 347.647 293.853 348.388 291.987 348.388ZM54.1501 0.297131C52.3686 0.300394 50.6611 1.01039 49.4025 2.27128C48.144 3.53217 47.4371 5.24092 47.4371 7.02245V341.355C47.4371 343.136 48.144 344.845 49.4025 346.106C50.6611 347.367 52.3686 348.077 54.1501 348.08H291.987C293.77 348.077 295.479 347.367 296.739 346.106C298 344.846 298.709 343.137 298.713 341.355V7.02245C298.709 5.23978 298 3.53106 296.739 2.27053C295.479 1.00999 293.77 0.300387 291.987 0.297131H54.1501Z" fill="#343C40"/>
<path d="M558.426 348.388H320.576C318.712 348.385 316.925 347.642 315.607 346.324C314.288 345.006 313.546 343.219 313.543 341.355V7.02245C313.562 5.16881 314.312 3.39752 315.628 2.09251C316.945 0.787498 318.722 0.0539201 320.576 0.0507812H558.426C560.276 0.0571919 562.05 0.792598 563.362 2.0976C564.673 3.40261 565.418 5.17206 565.434 7.02245V341.355C565.434 343.216 564.697 345.001 563.383 346.319C562.07 347.637 560.287 348.381 558.426 348.388ZM320.576 0.297131C318.794 0.300387 317.085 1.00999 315.824 2.27053C314.564 3.53106 313.854 5.23978 313.851 7.02245V341.355C313.854 343.137 314.564 344.846 315.824 346.106C317.085 347.367 318.794 348.077 320.576 348.08H558.426C560.208 348.077 561.917 347.367 563.178 346.106C564.438 344.846 565.148 343.137 565.151 341.355V7.02245C565.148 5.23978 564.438 3.53106 563.178 2.27053C561.917 1.00999 560.208 0.300387 558.426 0.297131H320.576Z" fill="#343C40"/>
<path d="M94.4404 100.821C89.07 89.2175 93.3319 80.9648 106.45 80.9648C114.69 80.9648 124.926 84.2166 134.78 89.5008C135.913 86.4831 139.066 84.6847 144.154 84.6847C153.108 84.6847 165.463 90.2645 175.144 98.1477C178.13 96.1573 181.644 95.1101 185.232 95.1422C193.854 94.785 204.176 97.9998 213.205 103.222C213.735 102.721 214.36 102.329 215.043 102.071C215.726 101.813 216.454 101.694 217.184 101.72C222.111 101.523 228.799 104.762 232.125 108.95C232.334 109.221 232.507 109.467 232.691 109.726H91.8291C91.5506 108.141 91.6413 106.513 92.0942 104.968C92.547 103.424 93.3499 102.004 94.4404 100.821Z" fill="#161E22"/>
<path d="M254.198 45.6244C254.631 45.5749 255.067 45.5502 255.503 45.5505C255.097 41.0177 257.449 38.16 262.463 38.16C266.084 38.16 270.518 39.6751 275.051 42.2371C273.758 33.4425 277.896 27.7148 287.295 27.7148C294.87 27.7148 304.453 31.4101 313.925 37.5688C314.75 34.1199 317.546 32.0506 322.239 32.0506C330.467 32.0506 342.181 38.431 351.567 47.4474C354.058 45.2084 357.295 43.9787 360.645 43.9985C368.491 43.592 378.222 47.2626 386.856 53.2489C387.268 52.6942 387.808 52.2475 388.43 51.9472C389.052 51.6469 389.738 51.5018 390.428 51.5244C394.715 51.315 400.627 54.6038 404.051 59.0258H247.3C243.617 52.2635 246.548 46.4004 254.198 45.6244Z" fill="#161E22"/>
<path d="M464.431 26.4243C460.982 19.0339 463.729 13.6758 472.142 13.6758C477.426 13.6758 483.979 15.7574 490.36 19.157C491.074 17.2232 493.106 16.053 496.37 16.053C502.123 16.053 510.043 19.6497 516.251 24.6752C518.17 23.4013 520.427 22.7319 522.73 22.7537C528.223 22.5197 534.887 24.5767 540.676 27.9394C541.015 27.6152 541.415 27.362 541.853 27.1949C542.291 27.0278 542.758 26.9501 543.226 26.9663C545.06 27.0324 546.86 27.4794 548.512 28.2789C550.164 29.0783 551.631 30.2127 552.821 31.61L553.191 32.1027H460.133C457.189 29.4914 460.44 26.5475 464.431 26.4243Z" fill="#161E22"/>
<path d="M151.827 269.211H109.874V403.323H151.827V269.211Z" fill="#343C40"/>
<path d="M138.118 403.324H206.911L206.911 222.541H138.118L138.118 403.324Z" fill="#161E22"/>
<path d="M242.619 222.539H206.911V403.322H242.619V222.539Z" fill="#343C40"/>
<path d="M147.368 222.539H206.911V204.568H147.368V222.539Z" fill="#161E22"/>
<path d="M147.368 222.539H206.911V218.499H147.368V222.539Z" fill="#343C40"/>
<path d="M233.356 204.57H206.911V222.541H233.356V204.57Z" fill="#343C40"/>
<path d="M156.619 204.57H206.898V186.599H156.619V204.57Z" fill="#161E22"/>
<path d="M156.619 204.57H206.898V200.53H156.619V204.57Z" fill="#343C40"/>
<path d="M224.106 186.598H206.911V204.569H224.106V186.598Z" fill="#343C40"/>
<path d="M192.031 161.496H188.693V186.611H192.031V161.496Z" fill="#343C40"/>
<path d="M231.213 403.324H281.456V253.975H231.213L231.213 403.324Z" fill="#161E22"/>
<path d="M307.532 253.977H281.456V403.325H307.532V253.977Z" fill="#343C40"/>
<path d="M294.488 296.641L332.586 329.306V403.322H294.488V296.641Z" fill="#161E22"/>
<path d="M352.367 329.297H332.598V403.312H352.367V329.297Z" fill="#343C40"/>
<path d="M352.367 329.306H332.586L294.488 296.641H314.27L352.367 329.306Z" fill="#343C40"/>
<path d="M530.946 403.322C531.474 400.363 532.732 397.583 534.605 395.232C536.478 392.882 538.908 391.035 541.674 389.859C539.245 393.909 538.143 398.616 538.521 403.322H530.946Z" fill="#343C40"/>
<path d="M175.624 403.322C175.096 400.363 173.838 397.583 171.965 395.232C170.092 392.882 167.662 391.035 164.896 389.859C167.325 393.909 168.427 398.616 168.049 403.322H175.624Z" fill="#343C40"/>
<path d="M87.6536 403.325C87.6536 403.325 87.05 387.559 80.4602 382.977C83.1577 389.419 82.5911 403.325 82.5911 403.325H87.6536Z" fill="#343C40"/>
<path d="M85.1777 403.325C85.1777 403.325 85.7813 394.272 92.3711 391.648C89.6736 395.344 90.2648 403.325 90.2648 403.325H85.1777Z" fill="#343C40"/>
<path d="M181.266 403.325C181.266 403.325 180.601 388.396 168.653 382.977C173.999 390.638 173.691 403.325 173.691 403.325H181.266Z" fill="#343C40"/>
<path d="M475.874 383.124H445.684C445.358 383.124 445.044 382.995 444.813 382.764C444.582 382.533 444.453 382.219 444.453 381.893V351.74C444.453 351.413 444.582 351.1 444.813 350.869C445.044 350.638 445.358 350.508 445.684 350.508H475.874C476.201 350.508 476.514 350.638 476.745 350.869C476.976 351.1 477.106 351.413 477.106 351.74V381.893C477.106 382.219 476.976 382.533 476.745 382.764C476.514 382.995 476.201 383.124 475.874 383.124ZM446.916 380.661H474.643V352.971H446.916V380.661Z" fill="#343C40"/>
<path d="M475.874 352.971H445.684C445.358 352.971 445.044 352.841 444.813 352.61C444.582 352.379 444.453 352.065 444.453 351.739V321.536C444.453 321.21 444.582 320.896 444.813 320.665C445.044 320.434 445.358 320.305 445.684 320.305H475.874C476.201 320.305 476.514 320.434 476.745 320.665C476.976 320.896 477.106 321.21 477.106 321.536V351.739C477.106 352.065 476.976 352.379 476.745 352.61C476.514 352.841 476.201 352.971 475.874 352.971ZM446.916 350.507H474.643V322.768H446.916V350.507Z" fill="#343C40"/>
<path d="M475.874 383.124C475.549 383.119 475.24 382.987 475.012 382.754L444.81 352.564C444.578 352.332 444.448 352.018 444.448 351.69C444.448 351.362 444.578 351.047 444.81 350.815C445.042 350.583 445.356 350.453 445.684 350.453C446.012 350.453 446.327 350.583 446.559 350.815L476.749 381.067C476.978 381.298 477.107 381.61 477.107 381.935C477.107 382.261 476.978 382.573 476.749 382.804C476.51 383.021 476.197 383.136 475.874 383.124Z" fill="#343C40"/>
<path d="M475.874 352.969C475.551 352.968 475.242 352.84 475.012 352.612L444.81 322.41C444.58 322.179 444.452 321.867 444.452 321.541C444.452 321.216 444.58 320.904 444.81 320.673C444.924 320.557 445.061 320.466 445.211 320.403C445.361 320.341 445.522 320.309 445.684 320.309C445.847 320.309 446.008 320.341 446.158 320.403C446.308 320.466 446.444 320.557 446.559 320.673L476.749 350.863C476.923 351.035 477.041 351.255 477.089 351.495C477.137 351.735 477.113 351.984 477.019 352.21C476.925 352.436 476.766 352.629 476.562 352.764C476.359 352.899 476.119 352.971 475.874 352.969Z" fill="#343C40"/>
<path d="M475.874 322.767H445.684C445.358 322.767 445.044 322.637 444.813 322.406C444.582 322.175 444.453 321.862 444.453 321.535V291.345C444.453 291.018 444.582 290.705 444.813 290.474C445.044 290.243 445.358 290.113 445.684 290.113H475.874C476.201 290.113 476.514 290.243 476.745 290.474C476.976 290.705 477.106 291.018 477.106 291.345V321.535C477.106 321.862 476.976 322.175 476.745 322.406C476.514 322.637 476.201 322.767 475.874 322.767ZM446.916 320.303H474.643V292.577H446.916V320.303Z" fill="#343C40"/>
<path d="M475.874 292.578H445.684C445.358 292.578 445.044 292.448 444.813 292.217C444.582 291.986 444.453 291.673 444.453 291.346V261.181C444.453 260.854 444.582 260.541 444.813 260.31C445.044 260.079 445.358 259.949 445.684 259.949H475.874C476.201 259.949 476.514 260.079 476.745 260.31C476.976 260.541 477.106 260.854 477.106 261.181V291.383C477.097 291.704 476.963 292.007 476.733 292.23C476.503 292.454 476.195 292.578 475.874 292.578ZM446.916 290.115H474.643V262.413H446.916V290.115Z" fill="#343C40"/>
<path d="M475.874 322.766C475.551 322.765 475.242 322.636 475.012 322.409L444.81 292.207C444.58 291.976 444.452 291.664 444.452 291.338C444.452 291.013 444.58 290.701 444.81 290.47C444.924 290.354 445.061 290.263 445.211 290.2C445.361 290.138 445.522 290.105 445.684 290.105C445.847 290.105 446.008 290.138 446.158 290.2C446.308 290.263 446.444 290.354 446.559 290.47L476.749 320.672C476.978 320.903 477.107 321.215 477.107 321.541C477.107 321.866 476.978 322.178 476.749 322.409C476.634 322.523 476.497 322.613 476.347 322.675C476.197 322.736 476.037 322.767 475.874 322.766Z" fill="#343C40"/>
<path d="M475.874 292.577C475.549 292.572 475.24 292.44 475.012 292.208L444.81 262.018C444.578 261.786 444.448 261.471 444.448 261.143C444.448 260.815 444.578 260.5 444.81 260.269C445.042 260.037 445.356 259.906 445.684 259.906C446.012 259.906 446.327 260.037 446.559 260.269L476.749 290.471C476.978 290.702 477.107 291.014 477.107 291.339C477.107 291.665 476.978 291.977 476.749 292.208C476.635 292.324 476.499 292.417 476.349 292.48C476.199 292.543 476.037 292.576 475.874 292.577Z" fill="#343C40"/>
<path d="M475.874 262.414H445.684C445.358 262.414 445.044 262.284 444.813 262.053C444.582 261.822 444.453 261.509 444.453 261.182V230.943C444.453 230.616 444.582 230.303 444.813 230.072C445.044 229.841 445.358 229.711 445.684 229.711H475.874C476.201 229.711 476.514 229.841 476.745 230.072C476.976 230.303 477.106 230.616 477.106 230.943V261.182C477.106 261.509 476.976 261.822 476.745 262.053C476.514 262.284 476.201 262.414 475.874 262.414ZM446.916 259.95H474.643V232.174H446.916V259.95Z" fill="#343C40"/>
<path d="M475.874 232.173H445.684C445.358 232.173 445.044 232.043 444.813 231.812C444.582 231.581 444.453 231.268 444.453 230.941V200.751C444.453 200.425 444.582 200.111 444.813 199.88C445.044 199.649 445.358 199.52 445.684 199.52H475.874C476.201 199.52 476.514 199.649 476.745 199.88C476.976 200.111 477.106 200.425 477.106 200.751V230.941C477.106 231.268 476.976 231.581 476.745 231.812C476.514 232.043 476.201 232.173 475.874 232.173ZM446.916 229.71H474.643V201.983H446.916V229.71Z" fill="#343C40"/>
<path d="M475.874 262.411C475.551 262.409 475.242 262.281 475.012 262.053L444.81 231.851C444.58 231.62 444.452 231.308 444.452 230.983C444.452 230.657 444.58 230.345 444.81 230.114C444.924 229.999 445.061 229.907 445.211 229.845C445.361 229.782 445.522 229.75 445.684 229.75C445.847 229.75 446.008 229.782 446.158 229.845C446.308 229.907 446.444 229.999 446.559 230.114L476.749 260.267C476.923 260.44 477.041 260.66 477.089 260.9C477.137 261.14 477.113 261.388 477.019 261.614C476.925 261.84 476.766 262.033 476.562 262.168C476.359 262.304 476.119 262.375 475.874 262.374V262.411Z" fill="#343C40"/>
<path d="M445.684 131.293H415.482C415.155 131.293 414.842 131.163 414.611 130.932C414.38 130.701 414.25 130.388 414.25 130.061V99.8216C414.25 99.4949 414.38 99.1816 414.611 98.9506C414.842 98.7196 415.155 98.5898 415.482 98.5898H445.684C446.011 98.5898 446.324 98.7196 446.555 98.9506C446.786 99.1816 446.916 99.4949 446.916 99.8216V130.012C446.923 130.177 446.896 130.343 446.837 130.498C446.778 130.653 446.688 130.795 446.573 130.915C446.458 131.034 446.32 131.129 446.167 131.194C446.015 131.259 445.85 131.293 445.684 131.293ZM416.714 128.829H444.453V101.053H416.714V128.829Z" fill="#343C40"/>
<path d="M475.874 131.292H445.684C445.358 131.292 445.044 131.162 444.813 130.931C444.582 130.7 444.453 130.387 444.453 130.06C444.453 129.733 444.582 129.42 444.813 129.189C445.044 128.958 445.358 128.828 445.684 128.828H474.643V69.7044C474.643 69.3777 474.772 69.0644 475.003 68.8334C475.234 68.6024 475.548 68.4727 475.874 68.4727C476.201 68.4727 476.514 68.6024 476.745 68.8334C476.976 69.0644 477.106 69.3777 477.106 69.7044V130.06C477.106 130.387 476.976 130.7 476.745 130.931C476.514 131.162 476.201 131.292 475.874 131.292Z" fill="#343C40"/>
<path d="M445.684 131.295C445.473 131.296 445.265 131.244 445.081 131.142C444.896 131.04 444.74 130.892 444.629 130.713C444.518 130.533 444.454 130.329 444.445 130.118C444.436 129.907 444.481 129.697 444.576 129.509L474.778 69.1535C474.926 68.8633 475.182 68.6435 475.491 68.5419C475.801 68.4404 476.138 68.4654 476.429 68.6115C476.721 68.757 476.943 69.0125 477.047 69.322C477.151 69.6315 477.128 69.9696 476.983 70.262L446.78 130.617C446.678 130.821 446.522 130.991 446.328 131.111C446.135 131.231 445.912 131.294 445.684 131.295Z" fill="#343C40"/>
<path d="M415.482 131.293H385.292C384.965 131.293 384.652 131.163 384.421 130.932C384.19 130.701 384.06 130.388 384.06 130.061V99.8216C384.06 99.4949 384.19 99.1816 384.421 98.9506C384.652 98.7196 384.965 98.5898 385.292 98.5898H415.482C415.809 98.5898 416.122 98.7196 416.353 98.9506C416.584 99.1816 416.714 99.4949 416.714 99.8216V130.012C416.72 130.177 416.693 130.343 416.634 130.498C416.575 130.653 416.486 130.795 416.371 130.915C416.256 131.034 416.118 131.129 415.965 131.194C415.812 131.259 415.648 131.293 415.482 131.293ZM386.524 128.829H414.25V101.053H386.524V128.829Z" fill="#343C40"/>
<path d="M415.482 131.293C415.241 131.29 415.006 131.216 414.807 131.08C414.607 130.945 414.452 130.754 414.36 130.531C414.269 130.308 414.244 130.063 414.29 129.826C414.336 129.59 414.451 129.372 414.62 129.2L444.81 98.9972C444.924 98.8817 445.061 98.7901 445.211 98.7276C445.361 98.665 445.522 98.6328 445.684 98.6328C445.847 98.6328 446.008 98.665 446.158 98.7276C446.308 98.7901 446.444 98.8817 446.559 98.9972C446.788 99.228 446.917 99.5401 446.917 99.8656C446.917 100.191 446.788 100.503 446.559 100.734L416.394 130.936C416.274 131.055 416.132 131.148 415.975 131.209C415.818 131.271 415.65 131.299 415.482 131.293Z" fill="#343C40"/>
<path d="M506.077 131.293H475.874C475.548 131.293 475.234 131.163 475.003 130.932C474.772 130.701 474.643 130.388 474.643 130.061V99.8216C474.643 99.4949 474.772 99.1816 475.003 98.9506C475.234 98.7196 475.548 98.5898 475.874 98.5898H506.077C506.403 98.5898 506.717 98.7196 506.948 98.9506C507.179 99.1816 507.308 99.4949 507.308 99.8216V130.012C507.315 130.177 507.288 130.343 507.229 130.498C507.17 130.653 507.081 130.795 506.966 130.915C506.85 131.034 506.712 131.129 506.56 131.194C506.407 131.259 506.243 131.293 506.077 131.293ZM477.106 128.829H504.845V101.053H477.106V128.829Z" fill="#343C40"/>
<path d="M475.874 131.293C475.633 131.29 475.398 131.216 475.199 131.08C475 130.945 474.844 130.754 474.753 130.531C474.661 130.308 474.637 130.063 474.683 129.826C474.729 129.59 474.843 129.372 475.012 129.2L505.202 98.9972C505.317 98.8817 505.453 98.7901 505.603 98.7276C505.753 98.665 505.914 98.6328 506.077 98.6328C506.239 98.6328 506.4 98.665 506.55 98.7276C506.701 98.7901 506.837 98.8817 506.951 98.9972C507.181 99.228 507.309 99.5401 507.309 99.8656C507.309 100.191 507.181 100.503 506.951 100.734L476.749 130.936C476.634 131.05 476.497 131.141 476.347 131.202C476.197 131.263 476.036 131.294 475.874 131.293Z" fill="#343C40"/>
<path d="M294.697 131.293C294.535 131.294 294.374 131.263 294.224 131.201C294.074 131.14 293.938 131.05 293.823 130.935C293.593 130.705 293.464 130.393 293.464 130.067C293.464 129.742 293.593 129.43 293.823 129.199L324.013 98.9964C324.18 98.8203 324.401 98.7036 324.641 98.6638L475.64 68.4615C475.838 68.4219 476.043 68.4315 476.236 68.4894C476.429 68.5474 476.605 68.652 476.749 68.794L537.104 129.149C537.233 129.26 537.338 129.396 537.412 129.549C537.486 129.701 537.527 129.868 537.534 130.037C537.54 130.207 537.512 130.376 537.45 130.534C537.388 130.692 537.294 130.836 537.174 130.956C537.054 131.076 536.91 131.17 536.752 131.232C536.594 131.294 536.425 131.322 536.255 131.316C536.086 131.309 535.919 131.268 535.767 131.194C535.614 131.12 535.478 131.015 535.367 130.886L475.517 71.0112L325.503 101.053L295.559 130.985C295.322 131.194 295.013 131.305 294.697 131.293Z" fill="#343C40"/>
<path d="M385.292 131.292C385.13 131.293 384.969 131.262 384.819 131.2C384.669 131.139 384.532 131.049 384.417 130.934C384.188 130.704 384.059 130.392 384.059 130.066C384.059 129.741 384.188 129.429 384.417 129.198L414.62 98.9954C414.855 98.7936 415.158 98.6882 415.468 98.7001C415.778 98.7121 416.072 98.8406 416.292 99.06C416.511 99.2794 416.64 99.5734 416.652 99.8834C416.664 100.193 416.558 100.497 416.356 100.732L386.154 130.934C385.925 131.162 385.615 131.29 385.292 131.292Z" fill="#343C40"/>
<path d="M385.292 131.293H355.09C354.763 131.293 354.45 131.163 354.219 130.932C353.988 130.701 353.858 130.388 353.858 130.061V99.8216C353.858 99.4949 353.988 99.1816 354.219 98.9506C354.45 98.7196 354.763 98.5898 355.09 98.5898H385.292C385.619 98.5898 385.932 98.7196 386.163 98.9506C386.394 99.1816 386.524 99.4949 386.524 99.8216V130.012C386.53 130.177 386.503 130.343 386.444 130.498C386.386 130.653 386.296 130.795 386.181 130.915C386.066 131.034 385.928 131.129 385.775 131.194C385.622 131.259 385.458 131.293 385.292 131.293ZM356.321 128.829H384.06V101.053H356.321V128.829Z" fill="#343C40"/>
<path d="M355.09 131.293H324.887C324.561 131.293 324.247 131.163 324.016 130.932C323.785 130.701 323.656 130.388 323.656 130.061V99.8216C323.656 99.4949 323.785 99.1816 324.016 98.9506C324.247 98.7196 324.561 98.5898 324.887 98.5898H355.09C355.416 98.5898 355.73 98.7196 355.961 98.9506C356.192 99.1816 356.321 99.4949 356.321 99.8216V130.012C356.328 130.177 356.301 130.343 356.242 130.498C356.183 130.653 356.094 130.795 355.978 130.915C355.863 131.034 355.725 131.129 355.573 131.194C355.42 131.259 355.256 131.293 355.09 131.293ZM326.119 128.829H353.858V101.053H326.119V128.829Z" fill="#343C40"/>
<path d="M355.09 131.292C354.928 131.293 354.767 131.262 354.617 131.2C354.467 131.139 354.33 131.049 354.215 130.934C353.986 130.704 353.857 130.392 353.857 130.066C353.857 129.741 353.986 129.429 354.215 129.198L384.368 98.9954C384.604 98.7936 384.907 98.6882 385.217 98.7001C385.527 98.7121 385.821 98.8406 386.04 99.06C386.26 99.2794 386.388 99.5734 386.4 99.8834C386.412 100.193 386.307 100.497 386.105 100.732L355.915 130.934C355.695 131.153 355.4 131.281 355.09 131.292Z" fill="#343C40"/>
<path d="M324.887 131.293C324.646 131.29 324.411 131.216 324.212 131.08C324.013 130.945 323.857 130.754 323.766 130.531C323.674 130.308 323.649 130.063 323.696 129.826C323.742 129.59 323.856 129.372 324.025 129.2L354.215 98.9972C354.33 98.8817 354.466 98.7901 354.616 98.7276C354.766 98.665 354.927 98.6328 355.09 98.6328C355.252 98.6328 355.413 98.665 355.563 98.7276C355.713 98.7901 355.85 98.8817 355.964 98.9972C356.194 99.228 356.322 99.5401 356.322 99.8656C356.322 100.191 356.194 100.503 355.964 100.734L325.762 130.936C325.647 131.05 325.51 131.141 325.36 131.202C325.21 131.263 325.049 131.294 324.887 131.293Z" fill="#343C40"/>
<path d="M324.887 131.293H294.697C294.37 131.293 294.057 131.163 293.826 130.932C293.595 130.701 293.465 130.388 293.465 130.061C293.465 129.734 293.595 129.421 293.826 129.19C294.057 128.959 294.37 128.829 294.697 128.829H323.655V99.8216C323.655 99.4949 323.785 99.1816 324.016 98.9506C324.247 98.7196 324.56 98.5898 324.887 98.5898C325.214 98.5898 325.527 98.7196 325.758 98.9506C325.989 99.1816 326.119 99.4949 326.119 99.8216V130.012C326.125 130.177 326.099 130.343 326.04 130.498C325.981 130.653 325.891 130.795 325.776 130.915C325.661 131.034 325.523 131.129 325.37 131.194C325.217 131.259 325.053 131.293 324.887 131.293Z" fill="#343C40"/>
<path d="M475.874 232.174C475.551 232.173 475.242 232.045 475.012 231.817L444.81 201.627C444.695 201.512 444.604 201.376 444.542 201.226C444.479 201.076 444.448 200.915 444.448 200.752C444.448 200.59 444.479 200.429 444.542 200.279C444.604 200.129 444.695 199.993 444.81 199.878C444.925 199.763 445.061 199.672 445.211 199.61C445.361 199.548 445.522 199.516 445.684 199.516C445.847 199.516 446.008 199.548 446.158 199.61C446.308 199.672 446.444 199.763 446.559 199.878L476.749 230.08C476.978 230.311 477.107 230.623 477.107 230.949C477.107 231.274 476.978 231.586 476.749 231.817C476.634 231.931 476.497 232.021 476.347 232.083C476.197 232.144 476.036 232.175 475.874 232.174Z" fill="#343C40"/>
<path d="M475.874 201.982H445.684C445.358 201.982 445.044 201.852 444.813 201.621C444.582 201.39 444.453 201.077 444.453 200.75V170.548C444.453 170.221 444.582 169.908 444.813 169.677C445.044 169.446 445.358 169.316 445.684 169.316H475.874C476.201 169.316 476.514 169.446 476.745 169.677C476.976 169.908 477.106 170.221 477.106 170.548V200.75C477.106 201.077 476.976 201.39 476.745 201.621C476.514 201.852 476.201 201.982 475.874 201.982ZM446.916 199.519H474.643V171.78H446.916V199.519Z" fill="#343C40"/>
<path d="M475.874 171.779H445.684C445.358 171.779 445.044 171.649 444.813 171.418C444.582 171.187 444.453 170.873 444.453 170.547V140.357C444.453 140.03 444.582 139.717 444.813 139.486C445.044 139.255 445.358 139.125 445.684 139.125H475.874C476.201 139.125 476.514 139.255 476.745 139.486C476.976 139.717 477.106 140.03 477.106 140.357V170.547C477.106 170.873 476.976 171.187 476.745 171.418C476.514 171.649 476.201 171.779 475.874 171.779ZM446.916 169.315H474.643V141.588H446.916V169.315Z" fill="#343C40"/>
<path d="M475.874 201.983C475.551 201.982 475.242 201.854 475.012 201.626L444.81 171.424C444.695 171.309 444.604 171.173 444.542 171.023C444.479 170.873 444.448 170.712 444.448 170.549C444.448 170.387 444.479 170.226 444.542 170.076C444.604 169.926 444.695 169.79 444.81 169.675C444.925 169.56 445.061 169.469 445.211 169.407C445.361 169.344 445.522 169.312 445.684 169.312C445.847 169.313 446.008 169.344 446.158 169.407C446.308 169.469 446.444 169.56 446.559 169.675L476.749 199.877C476.923 200.049 477.041 200.269 477.089 200.509C477.137 200.749 477.113 200.998 477.019 201.224C476.925 201.45 476.766 201.643 476.562 201.778C476.358 201.913 476.119 201.985 475.874 201.983Z" fill="#343C40"/>
<path d="M475.874 171.782C475.551 171.78 475.242 171.652 475.012 171.425L444.81 141.222C444.58 140.991 444.452 140.679 444.452 140.354C444.452 140.028 444.58 139.716 444.81 139.485C444.924 139.37 445.061 139.278 445.211 139.216C445.361 139.153 445.522 139.121 445.684 139.121C445.847 139.121 446.008 139.153 446.158 139.216C446.308 139.278 446.444 139.37 446.559 139.485L476.749 169.675C476.923 169.848 477.041 170.068 477.089 170.308C477.137 170.548 477.113 170.796 477.019 171.022C476.925 171.248 476.766 171.441 476.562 171.576C476.359 171.712 476.119 171.783 475.874 171.782Z" fill="#343C40"/>
<path d="M536.279 130.062H294.697L324.887 140.36H536.279V130.062Z" fill="#343C40"/>
<path d="M536.279 141.589H324.887C324.752 141.588 324.619 141.563 324.493 141.515L294.291 131.23C294.01 131.138 293.772 130.949 293.62 130.696C293.468 130.444 293.411 130.145 293.46 129.854C293.509 129.564 293.661 129.3 293.888 129.112C294.115 128.924 294.402 128.823 294.697 128.828H536.279C536.606 128.828 536.919 128.958 537.15 129.189C537.381 129.42 537.511 129.733 537.511 130.06V140.357C537.511 140.684 537.381 140.997 537.15 141.228C536.919 141.459 536.606 141.589 536.279 141.589ZM325.097 139.126H535.047V131.292H302.125L325.097 139.126Z" fill="#343C40"/>
<path d="M423.328 182.719H445.684V135.21H423.328V182.719Z" fill="#343C40"/>
<path d="M423.316 135.211H412.92V182.719H423.316V135.211Z" fill="#161E22"/>
<path d="M449.01 403.312H493.032V381.929H449.01V403.312Z" fill="#343C40"/>
<path d="M449.01 381.941H428.526V403.324H449.01V381.941Z" fill="#161E22"/>
<path d="M506.077 183.135C505.75 183.135 505.437 183.006 505.206 182.775C504.975 182.544 504.845 182.23 504.845 181.904V135.208C504.845 134.882 504.975 134.568 505.206 134.337C505.437 134.106 505.75 133.977 506.077 133.977C506.403 133.977 506.717 134.106 506.948 134.337C507.179 134.568 507.308 134.882 507.308 135.208V181.904C507.308 182.23 507.179 182.544 506.948 182.775C506.717 183.006 506.403 183.135 506.077 183.135Z" fill="#343C40"/>
<path d="M506.077 188.801C505.273 188.801 504.487 188.563 503.818 188.116C503.15 187.67 502.629 187.035 502.321 186.292C502.014 185.549 501.933 184.732 502.09 183.944C502.247 183.155 502.634 182.431 503.203 181.862C503.771 181.294 504.495 180.907 505.284 180.75C506.072 180.593 506.889 180.674 507.632 180.981C508.375 181.289 509.01 181.81 509.456 182.478C509.903 183.147 510.141 183.933 510.141 184.737C510.141 185.27 510.036 185.799 509.832 186.292C509.628 186.785 509.328 187.233 508.951 187.611C508.574 187.988 508.125 188.288 507.632 188.492C507.139 188.696 506.611 188.801 506.077 188.801ZM506.077 183.135C505.76 183.135 505.45 183.229 505.187 183.405C504.924 183.581 504.719 183.831 504.597 184.124C504.476 184.416 504.444 184.738 504.506 185.049C504.568 185.36 504.721 185.645 504.944 185.869C505.168 186.093 505.454 186.245 505.764 186.307C506.075 186.369 506.397 186.337 506.69 186.216C506.982 186.095 507.232 185.89 507.408 185.626C507.584 185.363 507.678 185.053 507.678 184.737C507.678 184.526 507.637 184.318 507.556 184.124C507.476 183.93 507.358 183.753 507.209 183.604C507.06 183.456 506.884 183.338 506.69 183.257C506.495 183.177 506.287 183.135 506.077 183.135Z" fill="#343C40"/>
<path d="M328.681 207.647C328.354 207.647 328.041 207.517 327.81 207.286C327.579 207.055 327.449 206.742 327.449 206.415V135.208C327.449 134.882 327.579 134.568 327.81 134.337C328.041 134.106 328.354 133.977 328.681 133.977C329.008 133.977 329.321 134.106 329.552 134.337C329.783 134.568 329.913 134.882 329.913 135.208V206.415C329.913 206.742 329.783 207.055 329.552 207.286C329.321 207.517 329.008 207.647 328.681 207.647Z" fill="#343C40"/>
<path d="M340.247 215.026C339.954 215.03 339.668 214.929 339.442 214.742C339.217 214.555 339.065 214.293 339.015 214.003C338.104 212.575 330.085 207.845 328.619 207.648C327.24 207.832 319.221 212.575 318.31 214.003C318.282 214.33 318.126 214.632 317.875 214.844C317.624 215.055 317.3 215.158 316.973 215.131C316.647 215.103 316.344 214.946 316.133 214.696C315.922 214.445 315.818 214.121 315.846 213.794C315.846 211.023 327.018 205.172 328.632 205.172C330.245 205.172 341.43 211.01 341.43 213.794C341.43 214.112 341.307 214.418 341.086 214.648C340.866 214.878 340.565 215.013 340.247 215.026Z" fill="#343C40"/>
<path d="M353.575 304.059L371.644 285.989L367.789 278.599C368.122 277.859 368.429 277.12 368.713 276.357L376.633 273.893V248.372L368.713 245.908C368.417 245.157 368.122 244.405 367.789 243.666L371.632 236.276L353.575 218.243L346.184 222.086C345.445 221.754 344.706 221.446 343.955 221.162L341.491 213.242H315.908L313.444 221.162C312.693 221.446 311.954 221.754 311.215 222.086L303.825 218.243L285.829 236.3L289.684 243.691C289.339 244.43 289.044 245.181 288.748 245.933L280.828 248.396V273.942L288.748 276.406C289.044 277.17 289.339 277.909 289.672 278.648L285.829 286.038L303.898 304.108L311.289 300.253C312.028 300.585 312.779 300.893 313.531 301.176L315.994 309.096H341.553L344.016 301.176C344.768 300.893 345.507 300.585 346.246 300.253L353.575 304.059ZM342.181 274.583C339.522 277.244 336.133 279.056 332.444 279.791C328.754 280.525 324.93 280.149 321.454 278.71C317.978 277.271 315.008 274.833 312.917 271.705C310.827 268.578 309.712 264.9 309.712 261.139C309.712 257.377 310.827 253.699 312.917 250.572C315.008 247.444 317.978 245.006 321.454 243.567C324.93 242.128 328.754 241.752 332.444 242.487C336.133 243.221 339.522 245.033 342.181 247.694C343.946 249.461 345.344 251.56 346.297 253.868C347.25 256.177 347.738 258.651 347.734 261.149C347.729 263.646 347.232 266.119 346.271 268.424C345.309 270.729 343.903 272.822 342.132 274.583H342.181Z" fill="#343C40"/>
<path d="M308 458.949C439.898 458.949 546.823 452.706 546.823 445.006C546.823 437.305 439.898 431.062 308 431.062C176.102 431.062 69.1772 437.305 69.1772 445.006C69.1772 452.706 176.102 458.949 308 458.949Z" fill="#161E22"/>
<path d="M216.716 133.266H201.343C200.641 133.266 199.95 133.451 199.341 133.801C198.732 134.151 198.224 134.654 197.87 135.261L190.184 148.576C189.833 149.187 189.648 149.879 189.648 150.584C189.648 151.289 189.833 151.981 190.184 152.592L197.87 165.895C198.221 166.505 198.727 167.012 199.337 167.365C199.947 167.717 200.639 167.903 201.343 167.902H216.716C217.42 167.903 218.112 167.717 218.722 167.365C219.332 167.012 219.838 166.505 220.189 165.895L227.875 152.592C228.226 151.981 228.411 151.289 228.411 150.584C228.411 149.879 228.226 149.187 227.875 148.576L220.189 135.261C219.834 134.654 219.327 134.151 218.718 133.801C218.109 133.451 217.418 133.266 216.716 133.266Z" fill="#407BFF"/>
<path opacity="0.5" d="M216.716 133.266H201.343C200.641 133.266 199.95 133.451 199.341 133.801C198.732 134.151 198.224 134.654 197.87 135.261L190.184 148.576C189.833 149.187 189.648 149.879 189.648 150.584C189.648 151.289 189.833 151.981 190.184 152.592L197.87 165.895C198.221 166.505 198.727 167.012 199.337 167.365C199.947 167.717 200.639 167.903 201.343 167.902H216.716C217.42 167.903 218.112 167.717 218.722 167.365C219.332 167.012 219.838 166.505 220.189 165.895L227.875 152.592C228.226 151.981 228.411 151.289 228.411 150.584C228.411 149.879 228.226 149.187 227.875 148.576L220.189 135.261C219.834 134.654 219.327 134.151 218.718 133.801C218.109 133.451 217.418 133.266 216.716 133.266Z" fill="white"/>
<path d="M118.312 89.1461L117.437 88.2715L124.827 80.8811L125.702 81.7556L118.312 89.1461ZM131.035 76.4222L130.161 75.5476L145.607 60.1016L146.482 60.9638L131.035 76.4222Z" fill="#407BFF"/>
<path opacity="0.5" d="M118.312 89.1461L117.437 88.2715L124.827 80.8811L125.702 81.7556L118.312 89.1461ZM131.035 76.4222L130.161 75.5476L145.607 60.1016L146.482 60.9638L131.035 76.4222Z" fill="white"/>
<path d="M313.543 178.458V122.709L296.299 117.302C295.683 115.651 295.005 114.026 294.291 112.375L302.679 96.3624L263.263 56.9466L247.251 65.3471C245.637 64.6204 244.023 63.9429 242.324 63.3147L236.916 46.0703H181.131L175.735 63.3147C174.073 63.9429 172.459 64.6204 170.809 65.3471L154.796 56.9466L115.38 96.3624L123.781 112.375C123.054 113.989 122.376 115.602 121.761 117.302L104.516 122.709V178.458L121.761 183.853C122.389 185.504 123.066 187.13 123.781 188.78L115.38 204.793L154.796 244.209L170.809 235.808C172.41 236.535 174.023 237.212 175.735 237.84L181.131 255.085H236.879L242.287 237.84C243.937 237.212 245.551 236.535 247.214 235.808L263.226 244.209L302.642 204.793L294.242 188.78C294.956 187.179 295.646 185.553 296.262 183.853L313.543 178.458ZM250.515 150.571C250.515 158.776 248.082 166.797 243.523 173.619C238.965 180.441 232.486 185.759 224.905 188.899C217.325 192.039 208.984 192.86 200.936 191.259C192.889 189.659 185.497 185.708 179.695 179.906C173.893 174.104 169.942 166.712 168.342 158.665C166.741 150.617 167.562 142.276 170.702 134.696C173.842 127.115 179.159 120.636 185.982 116.078C192.804 111.519 200.825 109.086 209.03 109.086C220.031 109.09 230.581 113.461 238.36 121.241C246.14 129.02 250.511 139.57 250.515 150.571Z" fill="#407BFF"/>
<path opacity="0.5" d="M313.543 178.458V122.709L296.299 117.302C295.683 115.651 295.005 114.026 294.291 112.375L302.679 96.3624L263.263 56.9466L247.251 65.3471C245.637 64.6204 244.023 63.9429 242.324 63.3147L236.916 46.0703H181.131L175.735 63.3147C174.073 63.9429 172.459 64.6204 170.809 65.3471L154.796 56.9466L115.38 96.3624L123.781 112.375C123.054 113.989 122.376 115.602 121.761 117.302L104.516 122.709V178.458L121.761 183.853C122.389 185.504 123.066 187.13 123.781 188.78L115.38 204.793L154.796 244.209L170.809 235.808C172.41 236.535 174.023 237.212 175.735 237.84L181.131 255.085H236.879L242.287 237.84C243.937 237.212 245.551 236.535 247.214 235.808L263.226 244.209L302.642 204.793L294.242 188.78C294.956 187.179 295.646 185.553 296.262 183.853L313.543 178.458ZM250.515 150.571C250.515 158.776 248.082 166.797 243.523 173.619C238.965 180.441 232.486 185.759 224.905 188.899C217.325 192.039 208.984 192.86 200.936 191.259C192.889 189.659 185.497 185.708 179.695 179.906C173.893 174.104 169.942 166.712 168.342 158.665C166.741 150.617 167.562 142.276 170.702 134.696C173.842 127.115 179.159 120.636 185.982 116.078C192.804 111.519 200.825 109.086 209.03 109.086C220.031 109.09 230.581 113.461 238.36 121.241C246.14 129.02 250.511 139.57 250.515 150.571Z" fill="white"/>
<path d="M234.194 251.709H183.877C183.811 251.709 183.746 251.688 183.693 251.648C183.639 251.608 183.6 251.552 183.582 251.488L178.655 235.943C178.63 235.865 178.638 235.78 178.676 235.707C178.714 235.634 178.78 235.579 178.858 235.555C178.936 235.531 179.021 235.538 179.094 235.576C179.167 235.614 179.222 235.68 179.246 235.758L184.038 251.093H233.899L239.023 234.908C239.037 234.864 239.061 234.823 239.093 234.789C239.125 234.755 239.164 234.729 239.207 234.711L240.895 234.083C242.324 233.541 243.839 232.913 245.551 232.149L247.189 231.41C247.264 231.378 247.349 231.376 247.425 231.406C247.502 231.436 247.563 231.495 247.596 231.57C247.628 231.645 247.63 231.73 247.6 231.807C247.57 231.883 247.511 231.944 247.435 231.977L245.797 232.704C244.085 233.48 242.545 234.108 241.117 234.65L239.565 235.241L234.49 251.488C234.469 251.551 234.43 251.606 234.377 251.645C234.324 251.685 234.26 251.707 234.194 251.709ZM262.524 239.971C262.443 239.968 262.364 239.938 262.303 239.885C262.273 239.856 262.249 239.821 262.233 239.783C262.217 239.745 262.208 239.704 262.208 239.663C262.208 239.621 262.217 239.58 262.233 239.542C262.249 239.504 262.273 239.47 262.303 239.441L297.727 204.029L289.857 189.001C289.835 188.959 289.824 188.913 289.824 188.866C289.824 188.819 289.835 188.772 289.857 188.73L290.596 187.092C291.335 185.429 291.963 183.902 292.517 182.448L293.145 180.761C293.163 180.718 293.189 180.679 293.223 180.647C293.258 180.615 293.298 180.591 293.342 180.576L309.54 175.514V125.69L293.527 120.689C293.483 120.682 293.441 120.666 293.403 120.642C293.366 120.617 293.334 120.585 293.311 120.547C293.287 120.509 293.272 120.467 293.266 120.422C293.261 120.378 293.265 120.333 293.279 120.29C293.292 120.248 293.315 120.209 293.345 120.176C293.375 120.143 293.412 120.117 293.453 120.1C293.495 120.083 293.539 120.075 293.584 120.076C293.628 120.078 293.672 120.09 293.712 120.11L309.897 125.16C309.958 125.182 310.01 125.223 310.048 125.275C310.085 125.328 310.106 125.391 310.106 125.456V175.772C310.107 175.837 310.087 175.901 310.05 175.954C310.012 176.007 309.959 176.047 309.897 176.068L293.675 181.118L293.096 182.67C292.542 184.136 291.864 185.663 291.15 187.351L290.485 188.853L298.38 203.942C298.419 203.994 298.44 204.056 298.44 204.121C298.44 204.185 298.419 204.248 298.38 204.3L262.808 239.885C262.732 239.947 262.635 239.978 262.537 239.971H262.524ZM155.523 239.971C155.441 239.968 155.363 239.938 155.301 239.885L119.728 204.3C119.693 204.247 119.674 204.185 119.674 204.121C119.674 204.057 119.693 203.995 119.728 203.942L127.698 188.718C127.737 188.646 127.802 188.592 127.88 188.567C127.958 188.542 128.043 188.547 128.116 188.582C128.152 188.602 128.184 188.628 128.209 188.66C128.235 188.691 128.254 188.727 128.265 188.766C128.276 188.805 128.28 188.846 128.276 188.886C128.271 188.927 128.259 188.966 128.24 189.001L120.381 204.029L155.794 239.441C155.823 239.47 155.847 239.504 155.863 239.542C155.88 239.58 155.888 239.621 155.888 239.663C155.888 239.704 155.88 239.745 155.863 239.783C155.847 239.821 155.823 239.856 155.794 239.885C155.759 239.916 155.718 239.939 155.673 239.954C155.629 239.969 155.582 239.975 155.535 239.971H155.523ZM176.462 234.44H176.351C175.12 233.96 173.777 233.393 172.287 232.728C172.243 232.717 172.202 232.697 172.167 232.669C172.132 232.64 172.104 232.605 172.084 232.564C172.065 232.524 172.054 232.48 172.053 232.435C172.052 232.39 172.062 232.345 172.08 232.304C172.098 232.263 172.125 232.227 172.159 232.197C172.193 232.168 172.233 232.146 172.276 232.133C172.319 232.121 172.365 232.118 172.409 232.125C172.453 232.132 172.496 232.149 172.533 232.174C174.011 232.827 175.329 233.406 176.573 233.861C176.612 233.876 176.647 233.899 176.676 233.927C176.706 233.956 176.729 233.99 176.745 234.028C176.761 234.066 176.77 234.107 176.77 234.148C176.77 234.189 176.762 234.23 176.746 234.268C176.72 234.326 176.676 234.374 176.62 234.405C176.565 234.436 176.501 234.448 176.438 234.44H176.462ZM209.054 196.084C196.982 196.061 185.412 191.249 176.884 182.705C168.356 174.16 163.566 162.581 163.566 150.509C163.566 150.428 163.598 150.349 163.656 150.292C163.714 150.234 163.792 150.201 163.874 150.201C163.956 150.201 164.034 150.234 164.092 150.292C164.149 150.349 164.182 150.428 164.182 150.509C164.182 159.384 166.814 168.06 171.744 175.439C176.675 182.818 183.683 188.57 191.882 191.966C200.082 195.362 209.104 196.251 217.808 194.519C226.513 192.788 234.508 188.514 240.784 182.239C247.059 175.963 251.333 167.968 253.064 159.263C254.796 150.559 253.907 141.537 250.511 133.337C247.115 125.138 241.363 118.13 233.984 113.199C226.605 108.269 217.929 105.637 209.054 105.637C208.973 105.637 208.894 105.604 208.837 105.547C208.779 105.489 208.746 105.411 208.746 105.329C208.746 105.247 208.779 105.169 208.837 105.111C208.894 105.053 208.973 105.021 209.054 105.021C221.122 105.021 232.695 109.815 241.228 118.348C249.761 126.881 254.555 138.454 254.555 150.522C254.555 162.589 249.761 174.162 241.228 182.695C232.695 191.228 221.122 196.022 209.054 196.022V196.084ZM125.296 182.867C125.231 182.865 125.169 182.843 125.117 182.806C125.064 182.769 125.024 182.718 125 182.658L124.421 181.118L108.15 176.031C108.088 176.01 108.035 175.97 107.997 175.917C107.959 175.864 107.94 175.8 107.94 175.735V125.419C107.941 125.354 107.962 125.291 107.999 125.238C108.037 125.186 108.089 125.145 108.15 125.123L123.707 120.27C123.785 120.246 123.87 120.253 123.943 120.29C124.016 120.327 124.073 120.39 124.101 120.467C124.121 120.547 124.111 120.632 124.072 120.704C124.033 120.777 123.969 120.833 123.892 120.861L108.519 125.69V175.551L124.717 180.613C124.76 180.627 124.8 180.651 124.832 180.683C124.864 180.715 124.888 180.754 124.902 180.798L125.542 182.485C125.57 182.561 125.568 182.644 125.536 182.718C125.504 182.791 125.444 182.849 125.37 182.879L125.296 182.867ZM125.296 118.817H125.185C125.109 118.784 125.049 118.723 125.017 118.648C124.985 118.572 124.984 118.487 125.012 118.41C125.604 116.833 126.244 115.331 126.922 113.803C126.956 113.73 127.018 113.674 127.095 113.646C127.171 113.618 127.255 113.622 127.328 113.656C127.365 113.672 127.399 113.695 127.427 113.724C127.456 113.753 127.478 113.788 127.493 113.825C127.508 113.863 127.515 113.904 127.514 113.944C127.513 113.985 127.505 114.025 127.488 114.062C126.798 115.565 126.183 117.067 125.591 118.632C125.57 118.699 125.527 118.757 125.469 118.797C125.411 118.837 125.341 118.857 125.271 118.853L125.296 118.817ZM290.583 111.783H290.436C290.4 111.764 290.368 111.738 290.343 111.706C290.317 111.675 290.298 111.638 290.287 111.599C290.275 111.561 290.272 111.52 290.276 111.479C290.281 111.439 290.293 111.4 290.312 111.364L297.703 97.1378L291.79 91.2008C291.755 91.1744 291.726 91.1406 291.705 91.1019C291.684 91.0631 291.671 91.0203 291.668 90.9763C291.665 90.9323 291.671 90.8881 291.687 90.8468C291.702 90.8055 291.726 90.7679 291.757 90.7368C291.789 90.7056 291.826 90.6814 291.868 90.666C291.909 90.6506 291.953 90.6442 291.997 90.6473C292.041 90.6505 292.084 90.663 292.123 90.6841C292.161 90.7052 292.195 90.7344 292.222 90.7697L298.38 96.9284C298.419 96.9798 298.44 97.0426 298.44 97.107C298.44 97.1715 298.419 97.2343 298.38 97.2857L290.83 111.709C290.797 111.749 290.756 111.78 290.708 111.799C290.661 111.818 290.61 111.826 290.559 111.82L290.583 111.783ZM119.95 97.3596C119.868 97.3603 119.788 97.3295 119.728 97.2733C119.675 97.2144 119.645 97.1375 119.645 97.0578C119.645 96.9781 119.675 96.9012 119.728 96.8422L155.264 61.2818C155.315 61.2408 155.378 61.2184 155.443 61.2184C155.508 61.2184 155.571 61.2408 155.621 61.2818L170.71 69.1773L172.213 68.5121C173.666 67.8593 174.997 67.2804 176.278 66.8C176.316 66.784 176.356 66.7758 176.397 66.7759C176.439 66.776 176.479 66.7843 176.517 66.8004C176.555 66.8164 176.589 66.84 176.618 66.8695C176.647 66.8991 176.669 66.9341 176.684 66.9724C176.712 67.0492 176.708 67.1339 176.673 67.2078C176.639 67.2817 176.576 67.3388 176.499 67.3666C175.268 67.8716 173.913 68.4259 172.471 69.0664L170.833 69.8055C170.79 69.8237 170.744 69.8332 170.698 69.8332C170.651 69.8332 170.605 69.8237 170.562 69.8055L155.535 61.9346L120.172 97.3596C120.101 97.3883 120.021 97.3883 119.95 97.3596ZM286.876 86.126C286.794 86.1268 286.714 86.096 286.654 86.0398L262.426 61.873L247.398 69.7439C247.359 69.7654 247.314 69.7767 247.269 69.7767C247.224 69.7767 247.179 69.7654 247.14 69.7439L245.502 69.0048C243.814 68.2535 242.287 67.6253 240.846 67.071L239.158 66.4428C239.115 66.4254 239.076 66.3987 239.044 66.3647C239.012 66.3307 238.988 66.29 238.973 66.2457L233.911 50.0606H184.099L179.739 63.9916C179.728 64.0303 179.709 64.0662 179.683 64.0973C179.658 64.1284 179.626 64.154 179.59 64.1724C179.555 64.1909 179.515 64.2018 179.475 64.2046C179.435 64.2074 179.395 64.202 179.357 64.1887C179.281 64.1633 179.218 64.1092 179.181 64.0378C179.144 63.9665 179.136 63.8836 179.16 63.8069L183.594 49.6664C183.615 49.6048 183.655 49.5513 183.708 49.5137C183.761 49.4761 183.825 49.4562 183.89 49.4571H234.206C234.271 49.458 234.334 49.4786 234.387 49.5159C234.439 49.5533 234.48 49.6058 234.502 49.6664L239.577 65.9255L241.129 66.5167C242.582 67.0587 244.11 67.7484 245.809 68.4629L247.312 69.128L262.426 61.2325C262.477 61.1936 262.54 61.1725 262.604 61.1725C262.669 61.1725 262.732 61.1936 262.783 61.2325L287.061 85.621C287.09 85.6498 287.114 85.6842 287.13 85.7223C287.146 85.7604 287.155 85.8014 287.155 85.8428C287.155 85.8841 287.146 85.9251 287.13 85.9632C287.114 86.0013 287.09 86.0357 287.061 86.0645C287.01 86.1126 286.945 86.1428 286.876 86.1507V86.126Z" fill="#161E22"/>
<path d="M386.019 160.66C389.874 165.587 393.483 170.514 397.006 175.601C400.529 180.688 403.879 185.886 407.044 191.306C407.845 192.649 408.609 194.053 409.385 195.432C410.505 197.523 411.164 199.828 411.319 202.195C411.52 205.786 411.171 209.388 410.284 212.874C408.751 219.142 406.425 225.19 403.362 230.87L397.018 228.406C398.277 222.719 399.187 216.96 399.74 211.162C399.986 208.657 399.903 206.131 399.494 203.648C399.393 202.959 399.136 202.301 398.743 201.726C397.93 200.495 397.141 199.263 396.279 198.031C392.941 193.104 389.406 188.288 385.846 183.447L375.142 168.937L386.019 160.66Z" fill="#FF8B7B"/>
<path d="M396.575 227.69L393.298 233.553L404.729 235.241C404.729 235.241 405.961 230.314 403.091 226.914L396.575 227.69Z" fill="#FF8B7B"/>
<path d="M391.574 241.352L401.095 242.312L404.729 235.242L393.298 233.555L391.574 241.352Z" fill="#FF8B7B"/>
<path d="M422.552 276.33L425.952 258.236C426.347 256.137 427.558 254.28 429.319 253.072C431.081 251.864 433.25 251.405 435.35 251.794L463.89 257.139C462.187 251.437 459.159 246.219 455.053 241.912C450.948 237.604 445.881 234.329 440.268 232.354C434.654 230.379 428.653 229.76 422.755 230.549C416.856 231.337 411.228 233.51 406.33 236.89L276.849 160.25C277.522 152.148 275.558 144.045 271.251 137.149C266.943 130.253 260.523 124.934 252.946 121.984C245.369 119.034 237.042 118.612 229.206 120.78C221.37 122.948 214.444 127.59 209.461 134.014L238 139.36C240.096 139.764 241.948 140.979 243.153 142.741C244.357 144.504 244.816 146.671 244.43 148.771L241.03 166.877C240.632 168.975 239.421 170.83 237.66 172.037C235.899 173.244 233.732 173.705 231.632 173.319L203.093 167.961C204.803 173.698 207.854 178.945 211.993 183.269C216.133 187.593 221.242 190.87 226.899 192.828C232.556 194.786 238.598 195.37 244.525 194.531C250.452 193.691 256.094 191.453 260.984 188.002L390.207 264.493C389.461 272.613 391.368 280.756 395.64 287.701C399.912 294.646 406.32 300.02 413.904 303.017C421.487 306.014 429.837 306.472 437.703 304.323C445.569 302.175 452.527 297.535 457.534 291.099L428.994 285.74C426.896 285.34 425.041 284.126 423.834 282.363C422.627 280.6 422.166 278.431 422.552 276.33Z" fill="#407BFF"/>
<path d="M390.304 236.427L285.322 174.291C283.413 173.162 280.951 173.793 279.821 175.702L275.542 182.931C274.413 184.839 275.044 187.302 276.953 188.432L381.934 250.567C383.843 251.697 386.306 251.065 387.435 249.157L391.714 241.928C392.843 240.019 392.212 237.556 390.304 236.427Z" fill="#407BFF"/>
<path opacity="0.2" d="M390.304 236.427L285.322 174.291C283.413 173.162 280.951 173.793 279.821 175.702L275.542 182.931C274.413 184.839 275.044 187.302 276.953 188.432L381.934 250.567C383.843 251.697 386.306 251.065 387.435 249.157L391.714 241.928C392.843 240.019 392.212 237.556 390.304 236.427Z" fill="white"/>
<path d="M342.169 122.377C342.046 123.103 341.578 123.608 341.109 123.608C340.641 123.608 340.346 122.882 340.457 122.167C340.568 121.453 341.048 120.936 341.516 120.997C341.984 121.059 342.28 121.662 342.169 122.377Z" fill="#263238"/>
<path d="M341.639 123.633C340.434 125.702 338.95 127.596 337.229 129.262C337.665 129.699 338.19 130.035 338.769 130.248C339.347 130.461 339.965 130.544 340.58 130.494L341.639 123.633Z" fill="#FF5652"/>
<path d="M345.408 118.793C345.353 118.794 345.299 118.783 345.248 118.762C345.197 118.741 345.151 118.709 345.113 118.67C344.742 118.28 344.284 117.984 343.776 117.806C343.269 117.628 342.726 117.574 342.193 117.648C342.138 117.66 342.08 117.662 342.023 117.652C341.967 117.642 341.913 117.621 341.865 117.59C341.817 117.559 341.775 117.519 341.743 117.471C341.71 117.424 341.688 117.371 341.676 117.315C341.663 117.26 341.662 117.203 341.672 117.147C341.682 117.092 341.704 117.039 341.735 116.992C341.766 116.944 341.806 116.904 341.853 116.873C341.9 116.842 341.953 116.82 342.009 116.81C342.678 116.704 343.363 116.76 344.007 116.975C344.65 117.189 345.232 117.555 345.704 118.042C345.781 118.126 345.824 118.236 345.824 118.35C345.824 118.464 345.781 118.574 345.704 118.658C345.624 118.736 345.519 118.784 345.408 118.793Z" fill="#263238"/>
<path d="M366.225 130.32C364.993 136.947 363.638 149.08 368.269 153.489C368.269 153.489 366.459 160.202 354.154 160.202C340.604 160.202 347.687 153.489 347.687 153.489C355.077 151.728 354.88 146.247 353.599 141.172L366.225 130.32Z" fill="#FF8B7B"/>
<path d="M374.514 158.467C374.364 158.249 374.252 158.008 374.182 157.753C373.147 153.823 368.799 150.756 363.158 150.596C357.208 150.448 350.495 151.163 346.529 154.439C344.78 155.88 346.714 157.987 346.714 157.987L374.514 158.467Z" fill="#407BFF"/>
<path opacity="0.5" d="M374.514 158.467C374.364 158.249 374.252 158.008 374.182 157.753C373.147 153.823 368.799 150.756 363.158 150.596C357.208 150.448 350.495 151.163 346.529 154.439C344.78 155.88 346.714 157.987 346.714 157.987L374.514 158.467Z" fill="white"/>
<path d="M418.007 406.315H417.921C417.74 406.29 417.571 406.209 417.438 406.083C417.306 405.957 417.216 405.793 417.182 405.613C417.139 405.474 417.126 405.327 417.145 405.182C417.165 405.038 417.215 404.899 417.293 404.776C417.982 403.606 420.988 402.99 421.074 402.965C421.115 402.957 421.158 402.961 421.198 402.976C421.237 402.991 421.271 403.017 421.296 403.051C421.316 403.087 421.327 403.127 421.327 403.168C421.327 403.209 421.316 403.25 421.296 403.285C420.84 404.061 419.153 406.315 418.007 406.315ZM420.655 403.495C419.67 403.753 418.069 404.283 417.662 404.985C417.623 405.059 417.603 405.142 417.603 405.225C417.603 405.309 417.623 405.392 417.662 405.466C417.773 405.847 417.97 405.872 418.019 405.884C418.574 405.958 419.879 404.628 420.655 403.495Z" fill="#407BFF"/>
<path d="M419.645 403.545C418.524 403.545 417.268 403.336 416.886 402.794C416.796 402.66 416.755 402.499 416.768 402.338C416.782 402.177 416.849 402.025 416.96 401.907C417.06 401.778 417.184 401.671 417.326 401.59C417.467 401.51 417.624 401.459 417.785 401.439C419.14 401.291 421.173 402.93 421.259 403.003C421.29 403.027 421.314 403.059 421.328 403.096C421.342 403.133 421.345 403.173 421.338 403.211C421.33 403.25 421.311 403.286 421.284 403.314C421.257 403.343 421.223 403.363 421.185 403.373C420.682 403.5 420.164 403.558 419.645 403.545ZM417.995 401.858H417.835C417.73 401.864 417.628 401.894 417.536 401.946C417.444 401.997 417.365 402.068 417.305 402.154C417.132 402.375 417.206 402.486 417.243 402.523C417.588 403.028 419.473 403.225 420.618 403.04C419.859 402.428 418.956 402.021 417.995 401.858Z" fill="#407BFF"/>
<path d="M328.546 436.225C327.388 436.225 326.267 436.065 325.885 435.548C325.789 435.411 325.737 435.247 325.737 435.08C325.737 434.912 325.789 434.749 325.885 434.612C325.96 434.485 326.06 434.376 326.179 434.289C326.297 434.202 326.432 434.14 326.575 434.107C328.078 433.7 331.243 435.498 331.379 435.585C331.416 435.607 331.446 435.64 331.463 435.68C331.481 435.72 331.486 435.764 331.477 435.806C331.468 435.849 331.447 435.888 331.417 435.918C331.386 435.949 331.347 435.97 331.305 435.979C330.394 436.139 329.471 436.221 328.546 436.225ZM327.105 434.476C326.97 434.457 326.833 434.457 326.698 434.476C326.611 434.493 326.529 434.528 326.457 434.579C326.385 434.63 326.324 434.696 326.279 434.772C326.119 435.043 326.181 435.178 326.279 435.252C326.698 435.831 328.989 435.843 330.677 435.609C329.571 435.003 328.358 434.618 327.105 434.476Z" fill="#407BFF"/>
<path d="M331.28 435.98H331.194C330.098 435.487 327.93 433.516 328.102 432.506C328.102 432.26 328.312 431.964 328.903 431.902C329.123 431.876 329.345 431.895 329.557 431.958C329.769 432.022 329.966 432.129 330.135 432.272C331.292 433.22 331.526 435.659 331.539 435.758C331.544 435.795 331.538 435.834 331.523 435.868C331.508 435.903 331.483 435.933 331.453 435.955C331.4 435.985 331.339 435.994 331.28 435.98ZM329.075 432.284H328.94C328.558 432.284 328.533 432.469 328.521 432.518C328.422 433.134 329.901 434.674 330.985 435.339C330.872 434.306 330.441 433.334 329.753 432.555C329.56 432.402 329.322 432.315 329.075 432.309V432.284Z" fill="#407BFF"/>
<path d="M341.233 435.768H332.179L331.28 414.816H340.333L341.233 435.768Z" fill="#FF8B7B"/>
<path d="M429.216 396.734L421.875 402.031L404.556 388.679L411.898 383.395L429.216 396.734Z" fill="#FF8B7B"/>
<path d="M420.828 401.956L427.873 394.565C427.996 394.436 428.161 394.353 428.338 394.33C428.515 394.308 428.695 394.347 428.846 394.442L435.892 398.716C436.061 398.823 436.203 398.966 436.31 399.135C436.416 399.303 436.484 399.494 436.508 399.692C436.531 399.89 436.51 400.091 436.446 400.281C436.382 400.47 436.277 400.642 436.138 400.785C433.675 403.311 432.283 404.407 429.191 407.634C427.282 409.617 422.109 416.589 419.473 419.336C416.837 422.082 413.794 419.828 414.62 418.473C418.315 412.389 420.113 406.353 420.212 403.348C420.248 402.826 420.466 402.333 420.828 401.956Z" fill="#263238"/>
<path d="M332.241 434.723H342.095C342.275 434.721 342.45 434.781 342.592 434.893C342.733 435.006 342.831 435.163 342.871 435.339L344.657 443.382C344.7 443.576 344.698 443.777 344.652 443.97C344.606 444.164 344.517 444.344 344.391 444.498C344.266 444.652 344.107 444.776 343.927 444.86C343.747 444.944 343.55 444.986 343.351 444.983C339.791 444.983 334.643 444.724 330.159 444.724C324.912 444.724 320.391 445.008 314.245 445.008C310.55 445.008 309.503 441.251 311.055 440.906C318.137 439.366 323.914 439.194 330.036 435.425C330.691 434.989 331.455 434.746 332.241 434.723Z" fill="#263238"/>
<path d="M373.356 172.593C374.588 174.871 375.98 177.076 377.323 179.133C379.638 182.693 381.88 185.772 383.481 187.891C384.922 189.8 385.846 190.921 385.846 190.921L404.076 178.493C404.076 178.493 392.99 156.913 384.454 155.533C375.672 154.141 367.629 162.369 373.356 172.593Z" fill="#407BFF"/>
<path opacity="0.5" d="M373.356 172.593C374.588 174.871 375.98 177.076 377.323 179.133C379.638 182.693 381.88 185.772 383.481 187.891C384.922 189.8 385.846 190.921 385.846 190.921L404.076 178.493C404.076 178.493 392.99 156.913 384.454 155.533C375.672 154.141 367.629 162.369 373.356 172.593Z" fill="black"/>
<path d="M377.323 179.137C379.638 182.696 381.88 185.776 383.481 187.894C383.296 183.657 382.422 176.809 379.133 171.586C377.938 172.768 377.458 175.823 377.323 179.137Z" fill="#407BFF"/>
<path opacity="0.6" d="M377.323 179.137C379.638 182.696 381.88 185.776 383.481 187.894C383.296 183.657 382.422 176.809 379.133 171.586C377.938 172.768 377.458 175.823 377.323 179.137Z" fill="black"/>
<path d="M329.322 185.504C329.322 188.583 329.395 191.971 329.568 195.703C330.011 205.853 331.12 218.503 333.263 234.22H381.658C381.991 226.829 377.323 190.542 384.491 155.536C379.138 154.506 373.723 153.823 368.282 153.491C361.431 153.097 354.563 153.097 347.711 153.491C343.016 153.955 338.363 154.779 333.793 155.955C333.793 155.955 329.309 161.042 329.322 185.504Z" fill="#407BFF"/>
<path opacity="0.5" d="M329.322 185.504C329.322 188.583 329.395 191.971 329.568 195.703C330.011 205.853 331.12 218.503 333.263 234.22H381.658C381.991 226.829 377.323 190.542 384.491 155.536C379.138 154.506 373.723 153.823 368.282 153.491C361.431 153.097 354.563 153.097 347.711 153.491C343.016 153.955 338.363 154.779 333.793 155.955C333.793 155.955 329.309 161.042 329.322 185.504Z" fill="black"/>
<path d="M329.322 185.504C329.322 188.583 329.395 191.97 329.568 195.702C335.246 190.16 335.628 178.84 335.628 178.84L329.322 185.504Z" fill="#407BFF"/>
<path opacity="0.6" d="M329.322 185.504C329.322 188.583 329.395 191.97 329.568 195.702C335.246 190.16 335.628 178.84 335.628 178.84L329.322 185.504Z" fill="black"/>
<path d="M339.41 171.447C338.479 173.005 337.45 174.502 336.33 175.93C335.308 177.261 334.286 178.517 333.239 179.761C331.157 182.224 328.927 184.602 326.661 186.905C322.018 191.62 316.876 195.816 311.326 199.42C309.832 200.354 308.29 201.209 306.707 201.982L306.079 202.277L305.771 202.425L305.389 202.585C304.781 202.842 304.155 203.056 303.517 203.226L302.617 203.46L301.755 203.608C301.205 203.703 300.65 203.765 300.092 203.792C296.385 203.914 292.684 203.394 289.155 202.253C282.915 200.311 276.969 197.531 271.479 193.988L274.398 187.829C280 189.506 285.707 190.806 291.483 191.721C293.926 192.132 296.419 192.165 298.873 191.82C299.083 191.786 299.289 191.732 299.489 191.66L299.76 191.586L299.957 191.499C300.117 191.499 300.154 191.376 300.253 191.339L300.992 190.908C302.126 190.249 303.223 189.53 304.28 188.753C308.826 185.333 313.052 181.507 316.906 177.322C318.913 175.216 320.847 173.011 322.732 170.819C323.668 169.71 324.579 168.601 325.429 167.48C326.279 166.36 327.154 165.214 327.659 164.426L339.41 171.447Z" fill="#FF8B7B"/>
<path d="M275.728 189.492L269.718 182.348L265.628 192.793C265.628 192.793 270.814 195.256 274.854 193.828L275.728 189.492Z" fill="#FF8B7B"/>
<path d="M260.898 180.785L259.223 189.124L265.628 192.782L269.718 182.337L260.898 180.785Z" fill="#FF8B7B"/>
<path d="M346.665 166.546C345.593 175.168 326.033 193.337 326.033 193.337L308.419 179.369C312.847 172.824 318.022 166.818 323.84 161.471C336.601 150.41 347.958 156.249 346.665 166.546Z" fill="#407BFF"/>
<path opacity="0.5" d="M346.665 166.546C345.593 175.168 326.033 193.337 326.033 193.337L308.419 179.369C312.847 172.824 318.022 166.818 323.84 161.471C336.601 150.41 347.958 156.249 346.665 166.546Z" fill="black"/>
<path d="M331.403 224.745C348.98 224.745 352.996 204.865 353.92 196.329C351.7 181.893 346.557 168.061 338.806 155.681C338.711 155.53 338.654 155.358 338.64 155.179C338.627 155.001 338.657 154.821 338.729 154.657C338.8 154.493 338.911 154.349 339.051 154.238C339.191 154.127 339.357 154.051 339.533 154.019L343.388 153.304C343.608 153.268 343.833 153.297 344.036 153.386C344.239 153.476 344.412 153.623 344.534 153.809C355.114 170.746 358.576 185.108 359.696 192.498H362.85C366.077 185.477 373.184 169.477 372.605 154.487C372.594 154.326 372.62 154.165 372.679 154.015C372.738 153.865 372.831 153.731 372.948 153.621C373.066 153.511 373.207 153.429 373.361 153.381C373.515 153.332 373.677 153.319 373.837 153.341L377.976 153.748C378.242 153.766 378.492 153.881 378.678 154.072C378.865 154.263 378.974 154.516 378.986 154.782C379.589 169.231 371.423 189.271 368.282 195.639C369.353 219.215 382.471 223.292 382.471 223.292C382.794 229.154 382.534 235.034 381.695 240.844C353.92 245.352 340.075 242.606 332.155 239.329C332.771 233.404 331.662 229.254 331.403 224.745Z" fill="#407BFF"/>
<path opacity="0.3" d="M331.403 224.745C348.98 224.745 352.996 204.865 353.92 196.329C351.7 181.893 346.557 168.061 338.806 155.681C338.711 155.53 338.654 155.358 338.64 155.179C338.627 155.001 338.657 154.821 338.729 154.657C338.8 154.493 338.911 154.349 339.051 154.238C339.191 154.127 339.357 154.051 339.533 154.019L343.388 153.304C343.608 153.268 343.833 153.297 344.036 153.386C344.239 153.476 344.412 153.623 344.534 153.809C355.114 170.746 358.576 185.108 359.696 192.498H362.85C366.077 185.477 373.184 169.477 372.605 154.487C372.594 154.326 372.62 154.165 372.679 154.015C372.738 153.865 372.831 153.731 372.948 153.621C373.066 153.511 373.207 153.429 373.361 153.381C373.515 153.332 373.677 153.319 373.837 153.341L377.976 153.748C378.242 153.766 378.492 153.881 378.678 154.072C378.865 154.263 378.974 154.516 378.986 154.782C379.589 169.231 371.423 189.271 368.282 195.639C369.353 219.215 382.471 223.292 382.471 223.292C382.794 229.154 382.534 235.034 381.695 240.844C353.92 245.352 340.075 242.606 332.155 239.329C332.771 233.404 331.662 229.254 331.403 224.745Z" fill="black"/>
<path d="M331.28 414.816L331.748 425.619H340.801L340.333 414.816H331.28Z" fill="#FF5652"/>
<path d="M411.91 383.395L404.569 388.691L413.499 395.564L420.84 390.268L411.91 383.395Z" fill="#FF5652"/>
<path d="M366.459 124.618C364.525 133.388 363.835 138.623 358.649 142.466C350.852 148.255 340.555 142.466 339.828 133.314C339.175 125.061 342.44 112.103 351.665 109.911C353.696 109.441 355.813 109.494 357.817 110.065C359.822 110.636 361.648 111.707 363.126 113.176C364.605 114.646 365.686 116.466 366.268 118.467C366.851 120.468 366.917 122.585 366.459 124.618Z" fill="#FF8B7B"/>
<path d="M374.28 111.009C381.979 111.218 378.813 115.27 374.958 117.5C374.958 117.5 379.404 119.631 377.113 124.718C373.64 132.441 366.988 140.928 360.201 140.46C351.752 139.881 349.35 130.692 349.658 121.626C345.199 117.426 344.447 115.11 343.758 110.06C342.366 100.046 348.648 94.5402 374.28 111.009Z" fill="#263238"/>
<path d="M364.365 94.1306C369.635 95.4824 374.153 98.872 376.924 103.554C379.696 108.236 380.495 113.827 379.146 119.098L339.373 108.948C340.039 106.334 341.215 103.876 342.832 101.716C344.449 99.5557 346.476 97.7355 348.797 96.3593C351.118 94.9832 353.688 94.078 356.359 93.6955C359.03 93.3131 361.751 93.4609 364.365 94.1306Z" fill="#407BFF"/>
<path opacity="0.5" d="M364.365 94.1306C369.635 95.4824 374.153 98.872 376.924 103.554C379.696 108.236 380.495 113.827 379.146 119.098L339.373 108.948C340.039 106.334 341.215 103.876 342.832 101.716C344.449 99.5557 346.476 97.7355 348.797 96.3593C351.118 94.9832 353.688 94.078 356.359 93.6955C359.03 93.3131 361.751 93.4609 364.365 94.1306Z" fill="white"/>
<path d="M372.223 119.124C371.948 119.128 371.676 119.068 371.428 118.949C371.18 118.83 370.964 118.654 370.795 118.437C370.627 118.219 370.511 117.966 370.458 117.696C370.404 117.426 370.414 117.148 370.487 116.882C371.04 114.645 371.116 112.317 370.711 110.048C370.305 107.78 369.427 105.622 368.134 103.715C365.366 99.5505 361.131 96.5818 356.272 95.4007C355.81 95.2831 355.413 94.9867 355.17 94.5767C354.926 94.1667 354.855 93.6766 354.973 93.2144C355.09 92.7521 355.387 92.3555 355.797 92.1118C356.207 91.8681 356.697 91.7973 357.159 91.9149C362.893 93.3236 367.885 96.8423 371.139 101.769C372.706 104.091 373.768 106.716 374.256 109.474C374.744 112.233 374.648 115.063 373.972 117.782C373.871 118.168 373.644 118.509 373.328 118.752C373.011 118.995 372.623 119.126 372.223 119.124Z" fill="#407BFF"/>
<path opacity="0.3" d="M372.223 119.124C371.948 119.128 371.676 119.068 371.428 118.949C371.18 118.83 370.964 118.654 370.795 118.437C370.627 118.219 370.511 117.966 370.458 117.696C370.404 117.426 370.414 117.148 370.487 116.882C371.04 114.645 371.116 112.317 370.711 110.048C370.305 107.78 369.427 105.622 368.134 103.715C365.366 99.5505 361.131 96.5818 356.272 95.4007C355.81 95.2831 355.413 94.9867 355.17 94.5767C354.926 94.1667 354.855 93.6766 354.973 93.2144C355.09 92.7521 355.387 92.3555 355.797 92.1118C356.207 91.8681 356.697 91.7973 357.159 91.9149C362.893 93.3236 367.885 96.8423 371.139 101.769C372.706 104.091 373.768 106.716 374.256 109.474C374.744 112.233 374.648 115.063 373.972 117.782C373.871 118.168 373.644 118.509 373.328 118.752C373.011 118.995 372.623 119.126 372.223 119.124Z" fill="white"/>
<path d="M333.867 109.479L380.673 121.427C381.16 121.55 381.675 121.475 382.107 121.219C382.539 120.963 382.851 120.546 382.976 120.06C383.1 119.571 383.026 119.054 382.769 118.62C382.513 118.186 382.096 117.871 381.609 117.744L334.803 105.796C334.313 105.673 333.794 105.749 333.36 106.007C332.926 106.266 332.612 106.686 332.487 107.176C332.426 107.417 332.414 107.669 332.45 107.916C332.486 108.162 332.571 108.399 332.699 108.613C332.827 108.827 332.996 109.014 333.197 109.162C333.397 109.311 333.625 109.418 333.867 109.479Z" fill="#407BFF"/>
<path opacity="0.3" d="M333.867 109.479L380.673 121.427C381.16 121.55 381.675 121.475 382.107 121.219C382.539 120.963 382.851 120.546 382.976 120.06C383.1 119.571 383.026 119.054 382.769 118.62C382.513 118.186 382.096 117.871 381.609 117.744L334.803 105.796C334.313 105.673 333.794 105.749 333.36 106.007C332.926 106.266 332.612 106.686 332.487 107.176C332.426 107.417 332.414 107.669 332.45 107.916C332.486 108.162 332.571 108.399 332.699 108.613C332.827 108.827 332.996 109.014 333.197 109.162C333.397 109.311 333.625 109.418 333.867 109.479Z" fill="white"/>
<path d="M354.277 123.791C354.047 126.011 353.085 128.091 351.542 129.704C349.497 131.81 347.477 130.394 347.219 127.733C346.985 125.343 347.773 121.365 350.224 120.256C352.675 119.148 354.535 121.119 354.277 123.791Z" fill="#FF8B7B"/>
<path d="M350.409 234.219C350.409 234.219 349.362 298.614 357.455 323.865C370.277 363.86 409.003 396.255 409.003 396.255L422.848 386.265C422.848 386.265 390.601 358.896 384.688 325.232C379.38 294.968 381.634 258.964 381.634 234.243L350.409 234.219Z" fill="#407BFF"/>
<path opacity="0.3" d="M350.409 234.219C350.409 234.219 349.362 298.614 357.455 323.865C370.277 363.86 409.003 396.255 409.003 396.255L422.848 386.265C422.848 386.265 390.601 358.896 384.688 325.232C379.38 294.968 381.634 258.964 381.634 234.243L350.409 234.219Z" fill="black"/>
<path d="M359.438 245.28C361.15 256.883 355.102 289.192 353.008 299.773C350.816 279.991 350.409 256.526 350.372 243.716C354.806 240.711 358.649 239.934 359.438 245.28Z" fill="#407BFF"/>
<path opacity="0.4" d="M359.438 245.28C361.15 256.883 355.102 289.192 353.008 299.773C350.816 279.991 350.409 256.526 350.372 243.716C354.806 240.711 358.649 239.934 359.438 245.28Z" fill="black"/>
<path d="M403.078 393.334C403.017 393.334 408.769 396.722 408.769 396.722L423.882 385.808L418.857 381.953L403.078 393.334Z" fill="#407BFF"/>
<path opacity="0.4" d="M403.078 393.334C403.017 393.334 408.769 396.722 408.769 396.722L423.882 385.808L418.857 381.953L403.078 393.334Z" fill="white"/>
<path d="M333.239 234.219C333.239 234.219 319.603 291.988 318.642 319.579C317.571 350.532 328.373 423.525 328.373 423.525H343.721C343.721 423.525 345.618 349.966 346.295 321.771C347.034 291.039 365.079 234.219 365.079 234.219H333.239Z" fill="#407BFF"/>
<path opacity="0.3" d="M333.239 234.219C333.239 234.219 319.603 291.988 318.642 319.579C317.571 350.532 328.373 423.525 328.373 423.525H343.721C343.721 423.525 345.618 349.966 346.295 321.771C347.034 291.039 365.079 234.219 365.079 234.219H333.239Z" fill="black"/>
<path d="M325.417 417.414C325.355 417.414 326.292 423.782 326.292 423.782H344.952L345.457 418.104L325.417 417.414Z" fill="#407BFF"/>
<path opacity="0.4" d="M325.417 417.414C325.355 417.414 326.292 423.782 326.292 423.782H344.952L345.457 418.104L325.417 417.414Z" fill="white"/>
</svg>
