<svg width="21" height="20" viewBox="0 0 21 20" fill="none" xmlns="http://www.w3.org/2000/svg">
<path d="M12.7379 9.59375L5.81982 8.375V17.3806C5.81974 17.4785 5.83898 17.5754 5.87644 17.6659C5.9139 17.7563 5.96883 17.8384 6.03811 17.9076C6.10738 17.9768 6.18961 18.0316 6.28011 18.0689C6.3706 18.1062 6.46757 18.1252 6.56545 18.125H18.5029C18.6009 18.1254 18.698 18.1065 18.7887 18.0692C18.8793 18.032 18.9617 17.9772 19.0311 17.908C19.1005 17.8389 19.1556 17.7567 19.1931 17.6662C19.2306 17.5756 19.2499 17.4786 19.2498 17.3806V14.0625L12.7379 9.59375Z" fill="#185C37"/>
<path d="M12.7379 1.875H6.56545C6.46757 1.87476 6.3706 1.89383 6.28011 1.93114C6.18961 1.96844 6.10738 2.02324 6.03811 2.0924C5.96883 2.16155 5.9139 2.2437 5.87644 2.33413C5.83898 2.42456 5.81974 2.5215 5.81982 2.61938V5.9375L12.7379 10L16.4011 11.2188L19.2498 10V5.9375L12.7379 1.875Z" fill="#21A366"/>
<path d="M5.81982 5.9375H12.7379V10H5.81982V5.9375Z" fill="#107C41"/>
<path opacity="0.1" d="M10.7711 5.125H5.81982V15.2812H10.7711C10.9684 15.2803 11.1573 15.2016 11.297 15.0623C11.4367 14.9229 11.5158 14.7342 11.5173 14.5369V5.86937C11.5158 5.67209 11.4367 5.48333 11.297 5.34399C11.1573 5.20466 10.9684 5.12598 10.7711 5.125Z" fill="black"/>
<path opacity="0.2" d="M10.3642 5.53125H5.81982V15.6875H10.3642C10.5615 15.6865 10.7505 15.6078 10.8901 15.4685C11.0298 15.3292 11.109 15.1404 11.1104 14.9431V6.27562C11.109 6.07834 11.0298 5.88958 10.8901 5.75024C10.7505 5.61091 10.5615 5.53223 10.3642 5.53125Z" fill="black"/>
<path opacity="0.2" d="M10.3642 5.53125H5.81982V14.875H10.3642C10.5615 14.874 10.7505 14.7953 10.8901 14.656C11.0298 14.5167 11.109 14.3279 11.1104 14.1306V6.27562C11.109 6.07834 11.0298 5.88958 10.8901 5.75024C10.7505 5.61091 10.5615 5.53223 10.3642 5.53125Z" fill="black"/>
<path opacity="0.2" d="M9.95732 5.53125H5.81982V14.875H9.95732C10.1546 14.874 10.3436 14.7953 10.4833 14.656C10.6229 14.5167 10.7021 14.3279 10.7036 14.1306V6.27562C10.7021 6.07834 10.6229 5.88958 10.4833 5.75024C10.3436 5.61091 10.1546 5.53223 9.95732 5.53125Z" fill="black"/>
<path d="M2.49625 5.53125H9.9575C10.1551 5.53109 10.3448 5.6094 10.4847 5.74898C10.6246 5.88856 10.7034 6.07799 10.7038 6.27563V13.7244C10.7034 13.922 10.6246 14.1114 10.4847 14.251C10.3448 14.3906 10.1551 14.4689 9.9575 14.4688H2.49625C2.39832 14.4691 2.30128 14.4501 2.21072 14.4128C2.12015 14.3755 2.03784 14.3207 1.9685 14.2516C1.89916 14.1824 1.84417 14.1002 1.80667 14.0098C1.76918 13.9193 1.74992 13.8223 1.75 13.7244V6.27563C1.74992 6.1777 1.76918 6.08071 1.80667 5.99024C1.84417 5.89977 1.89916 5.81759 1.9685 5.74843C2.03784 5.67927 2.12015 5.62448 2.21072 5.58721C2.30128 5.54994 2.39832 5.53092 2.49625 5.53125Z" fill="url(#paint0_linear_13576_45228)"/>
<path d="M4.0625 12.4204L5.63188 9.99285L4.19437 7.5791H5.34875L6.13312 9.12473C6.20562 9.27098 6.25813 9.37973 6.28188 9.45223H6.2925C6.34375 9.33514 6.39792 9.22139 6.455 9.11098L7.29375 7.5816H8.35625L6.88188 9.9816L8.39375 12.4222H7.26313L6.35688 10.7279C6.31492 10.6549 6.27917 10.5786 6.25 10.4997H6.235C6.20851 10.5766 6.17328 10.6502 6.13 10.7191L5.19688 12.4204H4.0625Z" fill="white"/>
<path d="M18.5039 1.875H12.7383V5.9375H19.2502V2.61938C19.2502 2.52145 19.231 2.42446 19.1935 2.33399C19.156 2.24352 19.101 2.16134 19.0317 2.09218C18.9623 2.02302 18.88 1.96823 18.7894 1.93096C18.6989 1.89369 18.6018 1.87467 18.5039 1.875Z" fill="#33C481"/>
<path d="M12.7383 10H19.2502V14.0625H12.7383V10Z" fill="#107C41"/>
<defs>
<linearGradient id="paint0_linear_13576_45228" x1="3.30875" y1="4.94625" x2="9.145" y2="15.0538" gradientUnits="userSpaceOnUse">
<stop stop-color="#18884F"/>
<stop offset="0.5" stop-color="#117E43"/>
<stop offset="1" stop-color="#0B6631"/>
</linearGradient>
</defs>
</svg>
