<svg width="21" height="20" viewBox="0 0 21 20" fill="none" xmlns="http://www.w3.org/2000/svg">
<path opacity="0.3" fill-rule="evenodd" clip-rule="evenodd" d="M6.33317 5C4.03198 5 2.1665 6.86548 2.1665 9.16667V14.1667C2.1665 16.4679 4.03198 18.3333 6.33317 18.3333H14.6665C16.8978 18.3333 18.7195 16.5794 18.8281 14.375H15.0832C13.5874 14.375 12.3748 13.1624 12.3748 11.6667C12.3748 10.1709 13.5874 8.95833 15.0832 8.95833H18.8281C18.7195 6.75394 16.8978 5 14.6665 5H6.33317ZM5.49984 13.9583C5.15466 13.9583 4.87484 14.2382 4.87484 14.5833C4.87484 14.9285 5.15466 15.2083 5.49984 15.2083H10.4998C10.845 15.2083 11.1248 14.9285 11.1248 14.5833C11.1248 14.2382 10.845 13.9583 10.4998 13.9583H5.49984Z" fill="#1D222B"/>
<path fill-rule="evenodd" clip-rule="evenodd" d="M15.0833 10.208H18.8333V13.1247H15.0833C14.2779 13.1247 13.625 12.4718 13.625 11.6663C13.625 10.8609 14.2779 10.208 15.0833 10.208ZM15.0833 11.0413C14.7382 11.0413 14.4583 11.3212 14.4583 11.6663C14.4583 12.0115 14.7382 12.2913 15.0833 12.2913H15.25C15.5952 12.2913 15.875 12.0115 15.875 11.6663C15.875 11.3212 15.5952 11.0413 15.25 11.0413H15.0833Z" fill="#1D222B"/>
<path d="M16.7397 4.16045C16.1388 2.50097 14.3837 1.4296 12.5344 1.81034L5.36712 3.28596C3.87014 3.59416 2.65731 4.58101 2.02295 5.88546C3.0125 4.58734 4.57511 3.74959 6.33338 3.74959H14.6667C15.401 3.74959 16.1012 3.89571 16.7397 4.16045Z" fill="#1D222B"/>
</svg>
