<svg xmlns="http://www.w3.org/2000/svg"
     fill="currentColor"
     viewBox="0 0 24 24">
    <path fill="#000"
          d="M9.126 7.634a1 1 0 1 0 0-2v2Zm-5.503-2a1 1 0 1 0 0 2v-2Zm16.777 2a1 1 0 1 0 0-2v2Zm-5.77-2a1 1 0 1 0 0 2v-2Zm-4.114.166h2.715v-2h-2.715v2Zm2.62-.095v2.714h2V5.705h-2Zm.095 2.62h-2.715v2h2.715v-2Zm-2.62.094V5.705h-2v2.714h2Zm-.095-.095c.053 0 .095.043.095.095h-2c0 1.052.853 1.905 1.905 1.905v-2Zm2.62.095c0-.052.042-.095.095-.095v2a1.905 1.905 0 0 0 1.905-1.905h-2Zm.095-2.62a.095.095 0 0 1-.095-.094h2A1.905 1.905 0 0 0 13.23 3.8v2Zm-2.715-2a1.905 1.905 0 0 0-1.905 1.906h2a.095.095 0 0 1-.095.095v-2ZM3.305 15.585h2.714v-2H3.305v2Zm2.62-.095v2.714h2V15.49h-2Zm.094 2.619H3.305v2h2.714v-2Zm-2.62.095V15.49h-2v2.714h2Zm-.094-.095c.052 0 .095.043.095.095h-2c0 1.052.853 1.905 1.905 1.905v-2Zm2.62.095c0-.052.042-.095.094-.095v2a1.905 1.905 0 0 0 1.905-1.905h-2Zm.094-2.62a.095.095 0 0 1-.095-.095h2a1.905 1.905 0 0 0-1.905-1.904v2Zm-2.714-2A1.905 1.905 0 0 0 1.4 15.489h2a.095.095 0 0 1-.095.096v-2Zm14.675 2h2.715v-2H17.98v2Zm2.62-.095v2.715h2V15.49h-2Zm.095 2.62H17.98v2h2.715v-2Zm-2.62.095V15.49h-2v2.714h2Zm-.095-.095c.053 0 .096.043.096.095h-2c0 1.052.852 1.905 1.904 1.905v-2Zm2.62.095c0-.052.042-.095.095-.095v2a1.905 1.905 0 0 0 1.905-1.905h-2Zm.095-2.62a.095.095 0 0 1-.095-.095h2a1.905 1.905 0 0 0-1.905-1.904v2Zm-2.715-2a1.905 1.905 0 0 0-1.904 1.905h2a.095.095 0 0 1-.096.096v-2ZM9.127 5.635H3.623v2h5.503v-2Zm11.274 0h-5.77v2h5.77v-2ZM3.846 13.361v1.223h2V13.36h-2Zm14.676 0v1.223h2V13.36h-2Zm-12.676 0a6.335 6.335 0 0 1 3.17-5.49L8.013 6.138a8.335 8.335 0 0 0-4.168 7.222h2Zm9.506-5.49a6.335 6.335 0 0 1 3.17 5.49h2a8.335 8.335 0 0 0-4.169-7.222L15.352 7.87Z" />
</svg>