<svg xmlns="http://www.w3.org/2000/svg"
     fill="currentColor"
     viewBox="0 0 24 24">
    <path fill="#000"
          d="M8.4 16.8h-1v1h1v-1Zm0-9.6v-1h-1v1h1Zm4.86 8.6H8.4v2h4.86v-2Zm-3.86 1V12h-2v4.8h2Zm7.2-2.4c0-1.854-1.472-3.4-3.34-3.4v2c.716 0 1.34.603 1.34 1.4h2Zm-3.34 3.4c1.868 0 3.34-1.546 3.34-3.4h-2c0 .797-.624 1.4-1.34 1.4v2Zm-.72-6.8H8.4v2h4.14v-2ZM9.4 12V7.2h-2V12h2Zm3.14-5.8H8.4v2h4.14v-2Zm3.34 3.4c0-1.854-1.472-3.4-3.34-3.4v2c.716 0 1.34.603 1.34 1.4h2ZM12.54 13c1.868 0 3.34-1.546 3.34-3.4h-2c0 .797-.624 1.4-1.34 1.4v2Zm.72-2H8.4v2h4.86v-2ZM4.8 3.4h14.4v-2H4.8v2Zm15.8 1.4v14.4h2V4.8h-2Zm-1.4 15.8H4.8v2h14.4v-2ZM3.4 19.2V4.8h-2v14.4h2Zm1.4 1.4a1.4 1.4 0 0 1-1.4-1.4h-2a3.4 3.4 0 0 0 3.4 3.4v-2Zm15.8-1.4a1.4 1.4 0 0 1-1.4 1.4v2a3.4 3.4 0 0 0 3.4-3.4h-2ZM19.2 3.4a1.4 1.4 0 0 1 1.4 1.4h2a3.4 3.4 0 0 0-3.4-3.4v2Zm-14.4-2a3.4 3.4 0 0 0-3.4 3.4h2a1.4 1.4 0 0 1 1.4-1.4v-2Z" />
</svg>