<svg width="100" height="20" viewBox="0 0 100 20" fill="none" xmlns="http://www.w3.org/2000/svg">
<path d="M91.3266 10.9011H89.0985V19.5736H91.3266V10.9011Z" fill="#401955"/>
<path d="M91.3266 0H89.0985V8.67249H91.3266V0Z" fill="#F9B100"/>
<path d="M89.0991 10.9008V8.67273L80.4266 8.67273V10.9008L89.0991 10.9008Z" fill="#32B5AC"/>
<path d="M100 10.901V8.67297L91.3275 8.67297V10.901L100 10.901Z" fill="#EC2024"/>
<path d="M5.59121 17.6269C3.73683 17.6269 2.22865 16.1181 2.22865 14.2637C2.22865 12.4093 3.73742 10.9011 5.59121 10.9011H8.95378V14.2666C8.95261 16.1198 7.44443 17.6269 5.59121 17.6269ZM5.59121 8.67249C2.5035 8.67249 0 11.176 0 14.2637C0 17.3514 2.50292 19.8549 5.59121 19.8549C6.85554 19.8549 8.01752 19.4304 8.95378 18.7228V19.5736H11.1818V8.67249H5.59121Z" fill="#401955"/>
<path d="M30.4435 8.67249C27.3558 8.67249 24.8523 11.1754 24.8523 14.2637C24.8523 17.3514 27.3552 19.8549 30.4435 19.8549C31.7078 19.8549 32.8698 19.4304 33.8061 18.7228V19.5736H36.0341V14.2637V8.67249H30.4435ZM30.4435 17.6269C28.5891 17.6269 27.0809 16.1181 27.0809 14.2637C27.0809 12.4093 28.5897 10.9011 30.4435 10.9011H33.8061V14.2666C33.8049 16.1198 32.2973 17.6269 30.4435 17.6269Z" fill="#401955"/>
<path d="M66.1887 8.67249C63.101 8.67249 60.5975 11.1754 60.5975 14.2637C60.5975 17.3514 63.1005 19.8549 66.1887 19.8549C67.4531 19.8549 68.6151 19.4304 69.5513 18.7228V19.5736H71.7794V14.2637V8.67249H66.1887ZM66.1882 17.6269C64.3338 17.6269 62.8256 16.1181 62.8256 14.2637C62.8256 12.4093 64.3344 10.9011 66.1882 10.9011H69.5507V14.2666C69.5501 16.1198 68.042 17.6269 66.1882 17.6269Z" fill="#401955"/>
<path d="M21.8844 8.67249L18.575 16.6625L15.2651 8.67249H12.8534L17.3686 19.5736H19.7809L24.2961 8.67249H21.8844Z" fill="#401955"/>
<path d="M43.0103 8.67249H38.2629V19.5736H40.491V10.9011H43.0097C44.8641 10.9011 46.3723 12.4099 46.3723 14.2637V19.5736H48.6003V14.2637C48.6015 11.176 46.098 8.67249 43.0103 8.67249Z" fill="#401955"/>
<path d="M74.0082 8.67249V19.5736H76.2362V10.9011H78.7549V8.67249H74.0082Z" fill="#401955"/>
<path d="M54.4938 13.4707L59.292 8.67249H56.1406L52.9184 11.8947V4.33624H50.6903V19.5736H52.9184V15.0462L57.4458 19.5736H60.5973L54.4938 13.4707Z" fill="#401955"/>
</svg>
