<svg xmlns="http://www.w3.org/2000/svg" width="24" height="24" fill="none" viewBox="0 0 24 24">
  <g clip-path="url(#a)">
    <path fill="#FFDA44" d="M6.782 22.81A11.953 11.953 0 0 0 11.999 24c1.87 0 3.64-.428 5.217-1.19L18.26 12 17.216 1.19A11.952 11.952 0 0 0 12 0c-1.87 0-3.64.428-5.217 1.19L5.738 12l1.044 10.81Z"/>
    <path fill="#D80027" d="M17.217 22.809A12 12 0 0 0 23.999 12a12 12 0 0 0-6.782-10.809V22.81Z"/>
    <path fill="#0052B4" d="M6.783 22.809V1.19A12 12 0 0 0 0 12a12 12 0 0 0 6.783 10.809Z"/>
    <path fill="#D80027" d="M12 16.174V12h3.13v1.565c0 .272-.521 1.269-1.81 2.087-.487.31-.992.41-1.32.522ZM8.87 8.87H12V12H8.87V8.87Z"/>
    <path fill="#FF9811" d="M13.565 7.826A1.043 1.043 0 0 0 12 6.923a1.043 1.043 0 0 0-1.565.903H7.826v5.217c0 1.943 1.543 3.066 2.752 3.648A1.043 1.043 0 0 0 12 18.12a1.044 1.044 0 0 0 1.422-1.429c1.21-.582 2.752-1.705 2.752-3.648V7.826h-2.609Zm1.044 5.217c0 .272 0 1.1-1.288 1.918-.488.31-.993.512-1.32.623a6.317 6.317 0 0 1-1.322-.623c-1.288-.818-1.288-1.646-1.288-1.918V9.391h5.218v3.652Z"/>
  </g>
  <defs>
    <clipPath id="a">
      <path fill="#fff" d="M0 0h24v24H0z"/>
    </clipPath>
  </defs>
</svg>
