<svg xmlns="http://www.w3.org/2000/svg" width="24" height="24" fill="none" viewBox="0 0 24 24">
  <g clip-path="url(#a)">
    <path fill="#FFDA44" d="M12 0c6.627 0 12 5.373 12 12s-5.373 12-12 12S0 18.627 0 12"/>
    <path fill="#D80027" d="M11.738 5.333h10.24a12.063 12.063 0 0 0-2.437-2.666h-7.803v2.666Zm0 5.334h12.187A11.935 11.935 0 0 0 23.315 8H11.738v2.667ZM.684 16h22.632c.3-.85.508-1.742.61-2.667H.074c.102.925.31 1.818.61 2.667Zm3.774 5.333h15.084c.94-.76 1.762-1.66 2.437-2.666H2.02a12.067 12.067 0 0 0 2.437 2.666Z"/>
    <path fill="#4A1F63" d="M12 0C5.373 0 0 5.373 0 12h12V0Z"/>
    <path fill="#F0F0F0" d="M9.914 6.26v1.044h-.522V6.261H8.349v1.043h-.522V5.217H5.74v2.087h-.522V6.261H4.175v1.043h-.522V6.261H2.609v3.13h8.348v-3.13H9.914Z"/>
  </g>
  <defs>
    <clipPath id="a">
      <path fill="#fff" d="M0 0h24v24H0z"/>
    </clipPath>
  </defs>
</svg>
