<svg xmlns="http://www.w3.org/2000/svg" width="24" height="24" fill="none" viewBox="0 0 24 24">
  <g clip-path="url(#a)">
    <path fill="#FFDA44" d="M24 12.001c0-1.468-.264-2.874-.746-4.174L12 7.305.746 7.827A11.973 11.973 0 0 0 0 12.001c0 1.468.264 2.874.746 4.174L12 16.697l11.254-.522c.482-1.3.746-2.706.746-4.174Z"/>
    <path fill="#6DA544" d="M12 24.001c5.16 0 9.558-3.257 11.253-7.826H.746C2.442 20.745 6.84 24 12 24Z"/>
    <path fill="#D80027" d="M.746 7.827h22.507C21.558 3.257 17.16.001 12 .001S2.442 3.257.746 7.827Z"/>
  </g>
  <defs>
    <clipPath id="a">
      <path fill="#fff" d="M0 .001h24v24H0z"/>
    </clipPath>
  </defs>
</svg>
