<svg xmlns="http://www.w3.org/2000/svg" width="24" height="24" fill="none" viewBox="0 0 24 24">
  <g clip-path="url(#a)">
    <path fill="#F0F0F0" d="M0 12C0 5.373 5.373 0 12 0s12 5.373 12 12H0Z"/>
    <path fill="#0052B4" d="M8.869 11.344 8.213 12h.656v-.656Zm6.261 0V12h.657l-.656-.656ZM.346 9.13C.121 10.05 0 11.01 0 12h3.786l2.87-2.87H.346Zm16.998 0 2.87 2.87H24c0-.99-.12-1.95-.346-2.87h-6.31Z"/>
    <path fill="#D80027" d="M16.607 9.13H15.13L18 12h1.475l-2.87-2.87ZM8.87 10.606V9.13L6 12h1.476l1.394-1.394Z"/>
    <path fill="#0052B4" d="M5.622 1.835c-.494.31-.965.657-1.407 1.035h2.442L5.622 1.835ZM19.788 2.87a12.047 12.047 0 0 0-1.408-1.035L17.346 2.87h2.442Z"/>
    <path fill="#D80027" d="M13.564 7.565h9.589a11.99 11.99 0 0 0-1.84-3.13h-7.749V.102a12.119 12.119 0 0 0-3.13 0v4.333h-7.75a11.989 11.989 0 0 0-1.838 3.13h9.588V12h3.13V7.565Z"/>
    <path fill="#D80027" d="m8.869 2.87-1.81-1.81c-.334.152-.66.318-.977.498L7.393 2.87H8.87Zm6.26 0 1.809-1.81a11.945 11.945 0 0 0-1.057-.418l-.752.752V2.87Z"/>
    <path fill="#F0F0F0" d="M24 12c0 6.627-5.373 12-12 12S0 18.627 0 12h24Z"/>
    <path fill="#0052B4" d="M22 13.53c-1 0-1-.914-2-.914s-1 .914-2 .914-1-.914-2-.914-1 .914-2 .914-1-.914-2-.914-1 .914-2 .914-1-.914-2-.914-1 .914-2 .914-1-.914-2-.914-1 .914-2 .914c-.995 0-1-.904-1.984-.913.027.548.093 1.087.192 1.614.797.117.867.9 1.792.9 1 0 1-.915 2-.915s1 .914 2 .914 1-.914 2-.914 1 .914 2 .914 1-.914 2-.914 1 .914 2 .914 1-.914 2-.914 1 .914 2 .914 1-.914 2-.914 1 .914 2 .914c.925 0 .995-.782 1.792-.899.1-.527.165-1.066.192-1.614-.984.01-.99.913-1.984.913Zm-2 2.217c-1 0-1 .914-2 .914s-1-.914-2-.914-1 .914-2 .914-1-.914-2-.914-1 .914-2 .914-1-.914-2-.914-1 .914-2 .914-1-.914-2-.914-1 .914-2 .914c-.715 0-.919-.467-1.342-.733.282.813.648 1.587 1.09 2.31.076.015.16.023.252.023 1 0 1-.914 2-.914s1 .914 2 .914 1-.914 2-.914 1 .914 2 .914 1-.914 2-.914 1 .914 2 .914 1-.914 2-.914 1 .914 2 .914 1-.914 2-.914 1 .914 2 .914c.092 0 .176-.008.252-.022.442-.724.808-1.498 1.09-2.311-.423.266-.628.733-1.342.733-1 0-1-.914-2-.914Z"/>
    <path fill="#F0F0F0" d="m23.994 11.623.003.1-.003-.1Zm-23.99.1.003-.1-.003.1ZM0 12Zm0 0c0 .219.006.436.018.651.982.011.988.914 1.982.914 1 0 1-.914 2-.914s1 .914 2 .914 1-.914 2-.914 1 .914 2 .914 1-.914 2-.914 1 .914 2 .914 1-.914 2-.914 1 .914 2 .914 1-.914 2-.914 1 .914 2 .914c.994 0 1-.903 1.982-.914.012-.215.018-.432.018-.651H0Zm23.996-.277Z"/>
    <path fill="#0052B4" d="M20 18.877c-1 0-1 .914-2 .914s-1-.914-2-.914-1 .914-2 .914-1-.914-2-.914-1 .914-2 .914-1-.914-2-.914-1 .914-2 .914-1-.914-2-.914c-.691 0-.905.436-1.3.706a12.052 12.052 0 0 0 3.85 3.11L12 22.42l5.448.274a12.052 12.052 0 0 0 3.852-3.11c-.396-.27-.61-.706-1.3-.706Z"/>
    <path fill="#FFDA44" d="m18.655 19.163-3.65.698-.463-3.687-2.543 2.712-2.542-2.712-.463 3.687-3.65-.698 1.79 3.256-.585.275A11.948 11.948 0 0 0 12 24a11.95 11.95 0 0 0 5.45-1.306l-.584-.275 1.79-3.256Z"/>
  </g>
  <defs>
    <clipPath id="a">
      <path fill="#fff" d="M0 0h24v24H0z"/>
    </clipPath>
  </defs>
</svg>
