<svg xmlns="http://www.w3.org/2000/svg" width="24" height="25" fill="none" viewBox="0 0 24 25">
  <g clip-path="url(#a)">
    <path fill="#D80027" d="M0 12.012c0 2.079.529 4.034 1.46 5.739L12 18.794l10.54-1.043a11.938 11.938 0 0 0 1.46-5.74c0-2.078-.529-4.033-1.46-5.738L12 5.229 1.46 6.273A11.946 11.946 0 0 0 0 12.012Z"/>
    <path fill="#0052B4" d="M1.459 6.273h21.082A11.997 11.997 0 0 0 12 .012c-4.549 0-8.506 2.53-10.541 6.26ZM12 24.012c4.548 0 8.506-2.531 10.54-6.261H1.46A11.997 11.997 0 0 0 12 24.011Z"/>
    <path fill="#F0F0F0" d="M16.174 14.36v-1.566h-1.043v-2.087l-1.043-1.043-1.044 1.043V8.62l-1.043-1.043-1.044 1.043v2.087L9.914 9.664 8.87 10.707v2.087H7.827v1.566H6.783v1.565h10.435v-1.566h-1.044Z"/>
  </g>
  <defs>
    <clipPath id="a">
      <path fill="#fff" d="M0 .012h24v24H0z"/>
    </clipPath>
  </defs>
</svg>
