<svg xmlns="http://www.w3.org/2000/svg" width="24" height="25" fill="none" viewBox="0 0 24 25">
  <g clip-path="url(#a)">
    <path fill="#338AF3" d="M12 .012c-1.467 0-2.874.264-4.174.746l-.521 11.254.521 11.253c1.3.483 2.707.747 4.174.747a11.96 11.96 0 0 0 4.174-.747l.522-11.253L16.174.758A11.975 11.975 0 0 0 12 .012Z"/>
    <path fill="#FFDA44" d="M24 12.012c0-5.16-3.257-9.558-7.826-11.254v22.507C20.744 21.57 24 17.171 24 12.012Z"/>
    <path fill="#F0F0F0" d="M7.826 23.265V.758C3.256 2.454 0 6.852 0 12.012c0 5.16 3.256 9.558 7.826 11.253Z"/>
  </g>
  <defs>
    <clipPath id="a">
      <path fill="#fff" d="M0 .012h24v24H0z"/>
    </clipPath>
  </defs>
</svg>
