<svg xmlns="http://www.w3.org/2000/svg" width="24" height="25" fill="none" viewBox="0 0 24 25">
  <g clip-path="url(#a)">
    <path fill="#6DA544" d="M12 24.023c6.627 0 12-5.372 12-12 0-6.627-5.373-12-12-12s-12 5.373-12 12c0 6.628 5.373 12 12 12Z"/>
    <path fill="#FFDA44" d="m18.422 17.24.33.69.743-.172-.333.686.598.475-.745.167.002.764-.595-.478-.596.478.002-.764-.744-.167.598-.475-.333-.686.744.171.329-.688Zm-3.065-7.303.33.688.743-.172-.333.687.598.474-.744.168.002.763-.596-.477-.595.477.002-.763-.744-.168.598-.474-.334-.687.744.172.33-.688Zm3.065-4.174.33.688.743-.172-.333.687.598.474-.745.168.002.763-.595-.477-.596.477.002-.763-.744-.168.598-.474-.333-.687.744.172.329-.688Zm2.676 3.13.329.689.744-.172-.334.687.599.474-.745.168.002.763-.595-.478-.596.478.002-.764-.744-.167.598-.474-.333-.687.743.172.33-.689Zm-1.915 3.652.26.797h.837l-.678.493.26.797-.679-.492-.678.492.259-.797-.678-.493h.838l.26-.797Z"/>
    <path fill="#FFDA44" d="M13.305 15.415a3.391 3.391 0 1 1 1.613-6.375 4.174 4.174 0 1 0 0 5.967c-.48.26-1.03.408-1.613.408ZM7.546 4.72a2.086 2.086 0 0 0-3.614 0h3.614Zm.007.011L5.74 6.545 3.925 4.731a2.087 2.087 0 1 0 3.628 0Z"/>
    <path fill="#A2001D" d="M5.217 6.023v1.76a2.092 2.092 0 0 0 1.043 0v-1.76H5.217Z"/>
  </g>
  <defs>
    <clipPath id="a">
      <path fill="#fff" d="M0 .023h24v24H0z"/>
    </clipPath>
  </defs>
</svg>
