<svg xmlns="http://www.w3.org/2000/svg" width="24" height="25" fill="none" viewBox="0 0 24 25">
  <g clip-path="url(#a)">
    <path fill="#F0F0F0" d="M12 24.023c6.627 0 12-5.372 12-12 0-6.627-5.373-12-12-12s-12 5.373-12 12c0 6.628 5.373 12 12 12Z"/>
    <path fill="#D80027" d="M24 11.989H10.99c-2.583 2.582-4.144 4.576-5.739 6.171l6.783.611 10.525-1.043A11.946 11.946 0 0 0 24 12.023v-.034Z"/>
    <path fill="#FFDA44" d="M5.253 6.25h17.269A11.996 11.996 0 0 0 12.001.023a11.96 11.96 0 0 0-8.468 3.498l1.72 2.729Z"/>
    <path fill="#0052B4" d="M5.774 17.728C4.695 18.807 4.28 19.71 3.498 20.49A11.962 11.962 0 0 0 12 24.023c4.563 0 8.53-2.546 10.56-6.295H5.774Z"/>
    <path fill="#6DA544" d="M3.515 3.503c-4.687 4.687-4.687 12.285 0 16.971L12 11.989 3.515 3.503Z"/>
    <path fill="#F0F0F0" d="M3.165 11.989a3.653 3.653 0 0 1 2.87-3.568 3.652 3.652 0 1 0 0 7.135 3.653 3.653 0 0 1-2.87-3.567Z"/>
    <path fill="#F0F0F0" d="m5.995 8.858.194.598h.629l-.509.37.194.598-.508-.37-.509.37.194-.598-.508-.37H5.8l.195-.598Z"/>
    <path fill="#F0F0F0" d="m5.995 10.424.194.597h.629l-.509.37.194.598-.508-.37-.509.37.194-.598-.508-.37H5.8l.195-.598Zm0 1.565.194.598h.629l-.509.37.194.597-.508-.37-.509.37.194-.598-.508-.37H5.8l.195-.597Zm0 1.565.194.598h.629l-.509.37.194.597-.508-.37-.509.37.194-.598-.508-.37H5.8l.195-.597Z"/>
  </g>
  <defs>
    <clipPath id="a">
      <path fill="#fff" d="M0 .023h24v24H0z"/>
    </clipPath>
  </defs>
</svg>
