<svg xmlns="http://www.w3.org/2000/svg" width="24" height="25" fill="none" viewBox="0 0 24 25">
  <g clip-path="url(#a)">
    <path fill="#FCFCFC" d="M12 24.013c6.627 0 12-5.373 12-12 0-6.628-5.373-12-12-12s-12 5.372-12 12c0 6.627 5.373 12 12 12Z"/>
    <path fill="#000" d="M16.178 10.177a4.595 4.595 0 0 0-8.795-1.868l-.566 2.055.521.522-1.043 2.087 1.043.521-.521.522v.522l.521.521v1.044l.522.522 1.565-.522s0 .522.522 1.043c.522.522 1.044 1.566 1.044 1.566s1.565.521 2.608-1.044c1.044-1.565 2.087-2.087 2.087-2.087l-1.005-2.011a4.582 4.582 0 0 0 1.497-3.393Z"/>
    <path fill="#ACABB1" d="M16.552 11.934c2.12-.357 2.473-4.51 2.473-4.51h-2.921c1.513 3.653-.071 3.899-.071 3.899-.215-.16-7.893-3.797-8.136-3.89-.059.079-.275.285-.537.927-.262.641-.327 1.219-.327 1.219.123.08 8.277 2.927 8.493 2.95.427.28.954 1.117.66 3.596l2.812-.792s-.954-2.54-2.446-3.399Z"/>
  </g>
  <defs>
    <clipPath id="a">
      <path fill="#fff" d="M0 .013h24v24H0z"/>
    </clipPath>
  </defs>
</svg>
