<svg xmlns="http://www.w3.org/2000/svg" width="24" height="25" fill="none" viewBox="0 0 24 25">
  <g clip-path="url(#a)">
    <path fill="#F0F0F0" d="M24 12.024c0-1.467-.264-2.874-.746-4.173L12 7.329.746 7.85A11.974 11.974 0 0 0 0 12.024c0 1.468.264 2.874.746 4.174L12 16.72l11.254-.522c.482-1.3.746-2.706.746-4.174Z"/>
    <path fill="#0052B4" d="M12 24.024c5.16 0 9.558-3.256 11.253-7.826H.746C2.442 20.768 6.84 24.024 12 24.024Z"/>
    <path fill="#D80027" d="M.746 7.85h22.507C21.558 3.28 17.16.025 12 .025 6.84.024 2.442 3.281.746 7.851Z"/>
    <path fill="#338AF3" d="M15.13 8.372h-2.087l.348-2.608 1.391-1.044 1.391 1.044V7.85l-1.043.521Zm-6.26 0h2.087l-.348-2.608L9.217 4.72l-1.39 1.044V7.85l1.043.521Z"/>
    <path fill="#0052B4" d="M13.392 8.372H10.61V5.764l1.392-1.044 1.391 1.044v2.608Z"/>
    <path fill="#F0F0F0" d="M7.826 7.85v5.74a4.17 4.17 0 0 0 1.678 3.343l.73-.182.923.927a4.18 4.18 0 0 0 1.682 0l1.052-.875.605.129a4.169 4.169 0 0 0 1.678-3.342V7.85H7.826Z"/>
    <path fill="#D80027" d="M7.826 7.85h1.67v1.67h-1.67V7.85Zm3.34 0h1.67v1.67h-1.67V7.85Zm3.338 0h1.67v1.67h-1.67V7.85ZM9.496 9.52h1.67v1.67h-1.67V9.52Zm3.338 0h1.67v1.67h-1.67V9.52Zm-5.008 1.67h1.67v1.669h-1.67v-1.67Zm1.67 1.669h1.67v1.67h-1.67v-1.67Z"/>
    <path fill="#D80027" d="M11.166 11.19h1.67v1.669h-1.67v-1.67Zm3.338 0h1.67v1.669h-1.67v-1.67Zm-1.67 1.669h1.67v1.67h-1.67v-1.67Z"/>
    <path fill="#D80027" d="M11.166 14.528h1.67v1.67h-1.67v-1.67Zm-1.671 0H7.934c.143.62.424 1.189.81 1.67h.751v-1.67Zm5.009 1.67h.75a4.162 4.162 0 0 0 .812-1.67h-1.562v1.67Zm-5.008 0v.728a4.158 4.158 0 0 0 1.67.754v-1.482h-1.67Z"/>
    <path fill="#D80027" d="M12.834 16.198v1.482a4.156 4.156 0 0 0 1.67-.754v-.728h-1.67Z"/>
  </g>
  <defs>
    <clipPath id="a">
      <path fill="#fff" d="M0 .024h24v24H0z"/>
    </clipPath>
  </defs>
</svg>
