<svg xmlns="http://www.w3.org/2000/svg" width="24" height="25" fill="none" viewBox="0 0 24 25">
  <g clip-path="url(#a)">
    <path fill="#FCFCFC" d="M12 24.035c6.627 0 12-5.372 12-12 0-6.627-5.373-12-12-12s-12 5.373-12 12c0 6.628 5.373 12 12 12Z"/>
    <path fill="#6DA544" d="M18.782 10.47h-1.565a5.217 5.217 0 1 1-10.435 0H5.217a6.785 6.785 0 0 0 4.93 6.527 1.736 1.736 0 0 0 .182 1.895l1.705-1.367 1.706 1.367c.45-.562.494-1.318.172-1.913a6.786 6.786 0 0 0 4.87-6.509Z"/>
    <path fill="#FFDA44" d="M7.826 9.948s0 2.609 2.609 2.609l.522.522H12s.522-1.566 1.565-1.566c0 0 0-1.043 1.044-1.043h1.565s-.522-2.087 2.087-3.652l-1.044-.522s-3.652 2.609-6.26 2.087v1.043H9.913l-.522-.521-1.565 1.043Z"/>
  </g>
  <defs>
    <clipPath id="a">
      <path fill="#fff" d="M0 .035h24v24H0z"/>
    </clipPath>
  </defs>
</svg>
