<svg xmlns="http://www.w3.org/2000/svg" width="24" height="25" fill="none" viewBox="0 0 24 25">
  <g clip-path="url(#a)">
    <path fill="#F0F0F0" d="M12 24.035c6.627 0 12-5.372 12-12 0-6.627-5.373-12-12-12s-12 5.373-12 12c0 6.628 5.373 12 12 12Z"/>
    <path fill="#D80027" d="M9.39 10.47h14.508C23.13 4.582 18.096.035 11.999.035c-.896 0-1.768.1-2.608.285v10.15Zm-3.13 0V1.494A12.008 12.008 0 0 0 .103 10.47H6.26Zm0 3.13H.103a12.007 12.007 0 0 0 6.159 8.976V13.6Zm3.13 0v10.15c.84.186 1.713.285 2.61.285 6.096 0 11.13-4.547 11.898-10.435H9.39Z"/>
  </g>
  <defs>
    <clipPath id="a">
      <path fill="#fff" d="M0 .035h24v24H0z"/>
    </clipPath>
  </defs>
</svg>
