<svg xmlns="http://www.w3.org/2000/svg" width="24" height="25" fill="none" viewBox="0 0 24 25">
  <g clip-path="url(#a)">
    <path fill="#F0F0F0" d="M12 24.047c6.627 0 12-5.373 12-12 0-6.628-5.373-12-12-12s-12 5.372-12 12c0 6.627 5.373 12 12 12Z"/>
    <path fill="#0052B4" d="M12 .047A12 12 0 0 0 1.192 6.83H22.81A12 12 0 0 0 12 .046Zm0 24a12 12 0 0 0 10.81-6.783H1.191a12 12 0 0 0 10.81 6.783Z"/>
    <path fill="#FFDA44" d="M9.59 12.569 12 8.395l2.41 4.174H9.59Z"/>
    <path fill="#6DA544" d="M15.13 13.947 12 15.512l-3.13-1.565V11.86h6.26v2.087Z"/>
    <path fill="#FFDA44" d="M14.951 8.574 13.845 9.68a2.609 2.609 0 1 1-3.69 0L9.05 8.574a4.174 4.174 0 1 0 5.903 0Z"/>
  </g>
  <defs>
    <clipPath id="a">
      <path fill="#fff" d="M0 .047h24v24H0z"/>
    </clipPath>
  </defs>
</svg>
