<svg xmlns="http://www.w3.org/2000/svg" width="24" height="25" fill="none" viewBox="0 0 24 25">
  <g clip-path="url(#a)">
    <path fill="#0052B4" d="M12 24.047c6.627 0 12-5.373 12-12 0-6.628-5.373-12-12-12s-12 5.372-12 12c0 6.627 5.373 12 12 12Z"/>
    <path fill="#FFDA44" d="m12 4.743.388 1.195h1.257l-1.017.74.388 1.195L12 7.134l-1.017.739.389-1.196-1.018-.739h1.258L12 4.743ZM6.834 6.882l1.12.57.89-.888-.198 1.241 1.12.571-1.241.197-.197 1.242-.57-1.12-1.242.196.889-.889-.571-1.12Zm-2.139 5.165 1.196-.389v-1.257l.739 1.017 1.196-.388-.74 1.017.74 1.017-1.196-.389-.739 1.018v-1.258l-1.196-.388Zm2.139 5.165.57-1.12-.888-.89 1.241.197.571-1.12.197 1.242 1.242.196-1.12.571.196 1.242-.889-.889-1.12.57ZM12 19.351l-.39-1.196h-1.256l1.017-.739-.389-1.195L12 16.96l1.017-.74-.388 1.197 1.017.738h-1.257L12 19.351Zm5.165-2.139-1.12-.57-.89.888.198-1.242-1.12-.57 1.241-.197.197-1.242.57 1.12 1.242-.196-.889.889.571 1.12Zm2.139-5.165-1.195.388v1.258l-.74-1.018-1.195.389.739-1.017-.74-1.017 1.197.388.738-1.017v1.257l1.196.389Zm-2.139-5.165-.57 1.12.888.89-1.242-.197-.57 1.12-.197-1.242-1.242-.197 1.12-.57-.196-1.242.889.889 1.12-.571Z"/>
  </g>
  <defs>
    <clipPath id="a">
      <path fill="#fff" d="M0 .047h24v24H0z"/>
    </clipPath>
  </defs>
</svg>
