<svg xmlns="http://www.w3.org/2000/svg" width="24" height="25" fill="none" viewBox="0 0 24 25">
  <g clip-path="url(#a)">
    <path fill="#0052B4" d="M24 12.048c0 6.627-5.373 12-12 12s-12-5.373-12-12c0 .003 12-11.999 12-12 6.627 0 12 5.372 12 12Z"/>
    <path fill="#F0F0F0" d="M11.969 12.048H12v-.032l-.032.032Z"/>
    <path fill="#F0F0F0" d="M12 6.309V.048h-.002C5.372.049 0 5.42 0 12.048h6.26V8.522l3.526 3.526h2.182l.032-.032V9.834L8.474 6.31H12Z"/>
    <path fill="#D80027" d="M6.07 1.613a12.057 12.057 0 0 0-4.506 4.506v5.929h3.13V4.744H12V1.612H6.07Z"/>
    <path fill="#D80027" d="M11.999 10.572 7.735 6.31H6.26l5.739 5.739v-1.476Z"/>
    <path fill="#FFDA44" d="M19.304 14.135v.521H15.13v-.521h-1.566v2.087h1.044v.521h5.217v-.521h1.044v-2.087h-1.565Z"/>
    <path fill="#338AF3" d="M13.565 6.309v5.739c0 2.795 3.652 3.652 3.652 3.652s3.652-.857 3.652-3.652v-5.74h-7.304Z"/>
    <path fill="#F3F3F3" d="M17.216 10.59c-.913 0-.913.834-1.826.834s-.913-.834-1.825-.834v1.46c.912 0 .912.835 1.825.835.913 0 .913-.835 1.826-.835s.913.835 1.827.835c.913 0 .913-.835 1.826-.835v-1.46c-.913 0-.913.834-1.826.834s-.913-.834-1.827-.834Zm0-2.925c-.913 0-.913.835-1.826.835s-.913-.835-1.825-.835v1.461c.912 0 .912.835 1.825.835.913 0 .913-.835 1.826-.835s.913.835 1.827.835c.913 0 .913-.835 1.826-.835v-1.46c-.913 0-.913.834-1.826.834s-.913-.835-1.827-.835Z"/>
  </g>
  <defs>
    <clipPath id="a">
      <path fill="#fff" d="M0 .048h24v24H0z"/>
    </clipPath>
  </defs>
</svg>
