<svg xmlns="http://www.w3.org/2000/svg" width="24" height="25" fill="none" viewBox="0 0 24 25">
  <g clip-path="url(#a)">
    <path fill="#F0F0F0" d="M12 24.059c6.627 0 12-5.373 12-12 0-6.628-5.373-12-12-12s-12 5.372-12 12c0 6.627 5.373 12 12 12Z"/>
    <path fill="#0052B4" d="m23.478 12.059.42-1.566a11.978 11.978 0 0 0-.311-1.565h-12.63V.104a11.97 11.97 0 0 0-1.566.24l-2.087 1.28-1.043-.106c-.55.3-1.073.641-1.566 1.02v6.39H.413c-.137.51-.242 1.032-.311 1.565l.42 1.566-.42 1.565c.07.533.174 1.056.311 1.565h4.282v6.39c.493.379 1.017.72 1.566 1.02l1.565-.106 1.565 1.28c.51.113 1.033.194 1.565.24v-8.824h12.63c.138-.51.242-1.032.312-1.565l-.42-1.565Z"/>
    <path fill="#D80027" d="M23.898 10.493H9.391V.343c-1.109.247-2.16.645-3.13 1.175v8.975H.1a12.12 12.12 0 0 0 0 3.13h6.16V22.6c.97.53 2.021.928 3.13 1.174v-10.15h14.507a12.121 12.121 0 0 0 0-3.13Z"/>
  </g>
  <defs>
    <clipPath id="a">
      <path fill="#fff" d="M0 .059h24v24H0z"/>
    </clipPath>
  </defs>
</svg>
