<svg xmlns="http://www.w3.org/2000/svg" width="24" height="25" fill="none" viewBox="0 0 24 25">
  <g clip-path="url(#a)">
    <path fill="#F0F0F0" d="M12 24.059c6.627 0 12-5.373 12-12 0-6.628-5.373-12-12-12s-12 5.372-12 12c0 6.627 5.373 12 12 12Z"/>
    <path fill="#D80027" d="M1.459 6.32h21.082A11.997 11.997 0 0 0 12 .058c-4.549 0-8.506 2.53-10.541 6.26ZM12 24.059c4.548 0 8.506-2.531 10.54-6.261H1.46A11.997 11.997 0 0 0 12 24.058Z"/>
    <path fill="#FFDA44" d="M16.174 12.059c0 2.305-1.869 3.652-4.174 3.652-2.305 0-4.174-1.347-4.174-3.652a4.174 4.174 0 0 1 8.348 0Z"/>
    <path fill="#0052B4" d="M16.174 12.059a4.174 4.174 0 0 1-8.348 0"/>
    <path fill="#D80027" d="M9.39 11.015h1.044v2.087H9.391v-2.087Zm4.175 0h1.043v2.087h-1.043v-2.087ZM11.479 9.45h1.043v3.652h-1.043V9.45Z"/>
  </g>
  <defs>
    <clipPath id="a">
      <path fill="#fff" d="M0 .059h24v24H0z"/>
    </clipPath>
  </defs>
</svg>
