<svg xmlns="http://www.w3.org/2000/svg" width="24" height="25" fill="none" viewBox="0 0 24 25">
  <g clip-path="url(#a)">
    <path fill="#F0F0F0" d="M12 24.048c6.627 0 12-5.373 12-12 0-6.628-5.373-12-12-12s-12 5.372-12 12c0 6.627 5.373 12 12 12Z"/>
    <path fill="#A2001D" d="M12 .048C7.037.048 2.78 3.058.952 7.352h22.093C21.218 3.058 16.96.048 11.998.048Z"/>
    <path fill="#496E2D" d="M12 24.048c4.96 0 9.218-3.01 11.046-7.304H.953C2.781 21.037 7.038 24.047 12 24.047Z"/>
    <path fill="#0052B4" d="M23.587 8.917H.413A12.013 12.013 0 0 0 0 12.047c0 1.084.144 2.133.413 3.131h23.174a12.01 12.01 0 0 0 .413-3.13c0-1.083-.144-2.133-.413-3.13Z"/>
  </g>
  <defs>
    <clipPath id="a">
      <path fill="#fff" d="M0 .048h24v24H0z"/>
    </clipPath>
  </defs>
</svg>
