<svg xmlns="http://www.w3.org/2000/svg" width="24" height="25" fill="none" viewBox="0 0 24 25">
  <g clip-path="url(#a)">
    <path fill="#F0F0F0" d="M12 24.059c6.627 0 12-5.373 12-12 0-6.628-5.373-12-12-12s-12 5.372-12 12c0 6.627 5.373 12 12 12Z"/>
    <path fill="#D80027" d="M23.898 10.493H13.565V.16a12.12 12.12 0 0 0-3.13 0v10.333H.102a12.12 12.12 0 0 0 0 3.13h10.333v10.334a12.121 12.121 0 0 0 3.13 0V13.624h10.333a12.117 12.117 0 0 0 0-3.13Z"/>
    <path fill="#D80027" d="M7.304 5.798V4.233H5.74v1.565H4.174v1.565h1.565v1.565h1.565V7.363H8.87V5.798H7.304Zm10.957 0V4.233h-1.565v1.565h-1.565v1.565h1.565v1.565h1.565V7.363h1.566V5.798H18.26ZM7.304 16.754V15.19H5.74v1.565H4.174v1.566h1.565v1.565h1.565V18.32H8.87v-1.565H7.304Zm10.957 0V15.19h-1.565v1.565h-1.565v1.566h1.565v1.565h1.565V18.32h1.566v-1.565H18.26Z"/>
  </g>
  <defs>
    <clipPath id="a">
      <path fill="#fff" d="M0 .059h24v24H0z"/>
    </clipPath>
  </defs>
</svg>
