<svg xmlns="http://www.w3.org/2000/svg" width="24" height="25" fill="none" viewBox="0 0 24 25">
  <g clip-path="url(#a)">
    <path fill="#FFDA44" d="M12 .07a12.01 12.01 0 0 0-3.13.414L7.826 12.07 8.87 23.657a12.01 12.01 0 0 0 3.13.413c6.627 0 12-5.372 12-12 0-6.627-5.373-12-12-12Z"/>
    <path fill="#6DA544" d="M7.826 12.07 8.87 23.657a12.01 12.01 0 0 0 3.13.413c6.627 0 12-5.372 12-12H7.826Z"/>
    <path fill="#D80027" d="M0 12.07c0 4.549 2.53 8.506 6.26 10.541V1.53A11.997 11.997 0 0 0 0 12.07Z"/>
    <path fill="#D80027" d="M0 12.07c0 5.545 3.76 10.21 8.87 11.587V.484C3.76 1.86 0 6.526 0 12.07Z"/>
    <path fill="#000" d="m4.534 8.94.777 2.391h2.514L5.791 12.81l.777 2.392-2.034-1.478L2.499 15.2l.777-2.392-2.034-1.478h2.515l.777-2.391Z"/>
  </g>
  <defs>
    <clipPath id="a">
      <path fill="#fff" d="M0 .07h24v24H0z"/>
    </clipPath>
  </defs>
</svg>
