<svg xmlns="http://www.w3.org/2000/svg" width="24" height="25" fill="none" viewBox="0 0 24 25">
  <g clip-path="url(#a)">
    <path fill="#F0F0F0" d="M12 24.49c6.627 0 12-5.372 12-12 0-6.627-5.373-12-12-12s-12 5.373-12 12c0 6.628 5.373 12 12 12Z"/>
    <path fill="#0052B4" d="M.414 15.62a12.01 12.01 0 0 0 4.282 6.39v-6.39H.414Zm10.543 8.825c.344.03.692.045 1.043.045 5.545 0 10.21-3.76 11.587-8.87h-12.63v8.825ZM23.587 9.36C22.21 4.25 17.545.49 12.001.49c-.352 0-.7.016-1.044.046V9.36h12.63ZM4.696 2.97A12.01 12.01 0 0 0 .414 9.36h4.282V2.97Z"/>
    <path fill="#D80027" d="M23.898 10.925H9.391V.775a11.93 11.93 0 0 0-3.13 1.174v8.976H.1a12.104 12.104 0 0 0 0 3.13h6.16v8.976c.97.53 2.021.928 3.13 1.174v-10.15h14.507a12.12 12.12 0 0 0 0-3.13Z"/>
  </g>
  <defs>
    <clipPath id="a">
      <path fill="#fff" d="M0 .49h24v24H0z"/>
    </clipPath>
  </defs>
</svg>
