<svg xmlns="http://www.w3.org/2000/svg" width="24" height="25" fill="none" viewBox="0 0 24 25">
  <g clip-path="url(#a)">
    <path fill="#F0F0F0" d="M12 24.91c1.468 0 2.874-.264 4.174-.746l.522-11.254-.522-11.253A11.975 11.975 0 0 0 12 .91c-1.467 0-2.874.264-4.174.747L7.305 12.91l.521 11.254c1.3.482 2.707.746 4.174.746Z"/>
    <path fill="#FF9811" d="M0 12.91c0 5.16 3.256 9.558 7.826 11.254V1.656C3.256 3.352 0 7.751 0 12.91Z"/>
    <path fill="#6DA544" d="M16.174 1.656v22.508C20.744 22.468 24 18.07 24 12.91c0-5.16-3.257-9.558-7.826-11.254Z"/>
  </g>
  <defs>
    <clipPath id="a">
      <path fill="#fff" d="M0 .91h24v24H0z"/>
    </clipPath>
  </defs>
</svg>
