<svg xmlns="http://www.w3.org/2000/svg" width="24" height="25" fill="none" viewBox="0 0 24 25">
  <g clip-path="url(#a)">
    <path fill="#F0F0F0" d="M12 24.91c6.627 0 12-5.372 12-12 0-6.627-5.373-12-12-12s-12 5.373-12 12c0 6.628 5.373 12 12 12Z"/>
    <path fill="#D80027" d="m21.52 20.217-7.306-7.307 7.307-7.307a12.128 12.128 0 0 0-2.214-2.213l-7.306 7.307L4.694 3.39a12.115 12.115 0 0 0-2.213 2.213l7.306 7.307-7.307 7.307a12.122 12.122 0 0 0 2.214 2.213l7.307-7.306 7.306 7.306a12.122 12.122 0 0 0 2.214-2.213Z"/>
    <path fill="#FFDA44" d="M9.912 4.562 12 5.084l2.087-.522V2.788l-.835.418L12 1.954l-1.252 1.252-.835-.418v1.774Z"/>
    <path fill="#D80027" d="M9.912 4.562v1.305C9.912 7.464 12 7.954 12 7.954s2.087-.49 2.087-2.087V4.562H9.912Z"/>
  </g>
  <defs>
    <clipPath id="a">
      <path fill="#fff" d="M0 .91h24v24H0z"/>
    </clipPath>
  </defs>
</svg>
