<svg xmlns="http://www.w3.org/2000/svg" width="24" height="25" fill="none" viewBox="0 0 24 25">
  <g clip-path="url(#a)">
    <path fill="#0052B4" d="M12 24.33c6.627 0 12-5.372 12-12 0-6.627-5.373-12-12-12s-12 5.373-12 12 5.373 12 12 12Z"/>
    <path fill="#F0F0F0" d="m5.271 7.634.259.798h.838l-.678.492.26.797-.679-.492-.678.492.259-.797-.678-.492h.838l.259-.798Zm2.609-.782.26.797h.837l-.678.493.26.797-.679-.493-.678.493.26-.797-.679-.493h.838l.26-.797Zm2.608-.782.259.796h.838l-.678.493.259.797-.678-.492-.678.492.259-.797-.678-.493h.838l.259-.797Zm8.24 1.564-.259.798h-.838l.678.492-.26.797.679-.492.678.492-.259-.797.678-.492h-.838l-.259-.798Zm-2.608-.782-.258.797h-.839l.678.493-.258.797.678-.493.678.493-.26-.797.679-.493h-.838l-.26-.797Zm-2.609-.782-.259.796h-.838l.678.493-.259.797.678-.492.678.492-.259-.797.678-.493h-.838l-.259-.797Z"/>
    <path fill="#FFDA44" d="M14.087 12.852 12 10.243l-1.044.522v1.043l-1.565 1.044H8.348V14.2a4.174 4.174 0 0 1 2.608 3.87H12v-1.044l1.043-1.044 1.044 1.044 1.043-1.044V14.94l1.044-1.565-2.087-.522Z"/>
  </g>
  <defs>
    <clipPath id="a">
      <path fill="#fff" d="M0 .33h24v24H0z"/>
    </clipPath>
  </defs>
</svg>
