<svg xmlns="http://www.w3.org/2000/svg" width="24" height="25" fill="none" viewBox="0 0 24 25">
  <g clip-path="url(#a)">
    <path fill="#F0F0F0" d="M0 12.331c0 1.87.428 3.64 1.19 5.217L12 18.07l10.81-.521A11.952 11.952 0 0 0 24 12.33c0-1.87-.428-3.64-1.19-5.217L12 6.592l-10.81.522A11.952 11.952 0 0 0 0 12.33Z"/>
    <path fill="#6DA544" d="M12 24.331a12 12 0 0 0 10.81-6.782H1.191a12 12 0 0 0 10.81 6.782Z"/>
    <path fill="#0052B4" d="M12 .331A12 12 0 0 0 1.192 7.114H22.81A12 12 0 0 0 12 .33Z"/>
    <path fill="#000" d="M12.782 12.07V9.2h-1.565v2.87l-1.89 1.89a3.129 3.129 0 0 0 5.346 0l-1.891-1.89Z"/>
  </g>
  <defs>
    <clipPath id="a">
      <path fill="#fff" d="M0 .331h24v24H0z"/>
    </clipPath>
  </defs>
</svg>
