<svg xmlns="http://www.w3.org/2000/svg" width="24" height="24" fill="none" viewBox="0 0 24 24">
  <g clip-path="url(#a)">
    <path fill="#F0F0F0" d="M12 24c6.627 0 12-5.373 12-12S18.627 0 12 0 0 5.373 0 12s5.373 12 12 12Z"/>
    <path fill="#F0F0F0" d="M2.742 4.364h18.514A12.066 12.066 0 0 0 18.9 2.182H5.099c-.88.62-1.673 1.354-2.357 2.182ZM0 12c0 .368.017.732.05 1.091h23.9a12.146 12.146 0 0 0 0-2.182H.05C.017 11.27 0 11.632 0 12Zm1.308 5.454H22.69c.353-.69.641-1.42.856-2.181H.451c.215.76.504 1.49.857 2.181Zm3.791 4.364h13.8c.88-.62 1.674-1.354 2.357-2.182H2.742A12.07 12.07 0 0 0 5.1 21.818ZM.451 8.727h23.096c-.215-.76-.503-1.49-.856-2.181H1.308A11.921 11.921 0 0 0 .45 8.727Z"/>
    <path fill="#D80027" d="M5.74 2.182h13.161A11.945 11.945 0 0 0 12.001 0c-1.565 0-4.309.808-6.26 2.182Zm5.739 4.363h11.213a12.05 12.05 0 0 0-1.435-2.181h-9.779v2.181Zm0 4.365H23.95a11.958 11.958 0 0 0-.402-2.183h-12.07v2.182ZM.453 15.273h23.096c.199-.703.335-1.433.402-2.182H.051c.067.75.203 1.479.402 2.182Zm2.29 4.363h18.514a12.023 12.023 0 0 0 1.434-2.181H1.31c.399.78.88 1.511 1.434 2.181ZM12 24c2.569 0 4.948-.808 6.9-2.182H5.1A11.945 11.945 0 0 0 12 24Z"/>
    <path fill="#0052B4" d="M.453 8.727A11.956 11.956 0 0 0 .05 10.91H12V0C6.508 0 1.877 3.69.453 8.727Z"/>
    <path fill="#F0F0F0" d="m7.143 3.13.777 2.392h2.515L8.4 7l.777 2.391-2.034-1.478L5.11 9.391 5.886 7 3.852 5.522h2.514l.777-2.392Z"/>
  </g>
  <defs>
    <clipPath id="a">
      <path fill="#fff" d="M0 0h24v24H0z"/>
    </clipPath>
  </defs>
</svg>
