<svg xmlns="http://www.w3.org/2000/svg" width="24" height="24" fill="none" viewBox="0 0 24 24">
  <g clip-path="url(#a)">
    <path fill="#D80027" d="M24 12c0 6.627-5.373 12-12 12S0 18.627 0 12c.522 0 12-1.565 12-1.565L24 12Z"/>
    <path fill="#0052B4" d="M0 12C0 5.373 5.373 0 12 0s12 5.373 12 12"/>
    <path fill="#FFDA44" d="M8.87 8.348a1.565 1.565 0 0 0-2.608-1.166V6.26h.521V5.217h-.521v-.521H5.218v.521h-.522v1.044h.522v.92a1.565 1.565 0 0 0-2.087 2.333v.92h5.217v-.92a1.56 1.56 0 0 0 .522-1.166Z"/>
  </g>
  <defs>
    <clipPath id="a">
      <path fill="#fff" d="M0 0h24v24H0z"/>
    </clipPath>
  </defs>
</svg>
