<svg xmlns="http://www.w3.org/2000/svg" width="24" height="24" fill="none" viewBox="0 0 24 24">
  <g clip-path="url(#a)">
    <path fill="#496E2D" d="M12 24c6.627 0 12-5.373 12-12S18.627 0 12 0 0 5.373 0 12s5.373 12 12 12Z"/>
    <path fill="#F0F0F0" d="M14.087 11.5c-.294 0-.574.058-.834.152.143-.317.238-.67.238-1.047 0-1.49-1.49-2.608-1.49-2.608s-1.491 1.118-1.491 2.608c0 .377.095.73.237 1.047a2.462 2.462 0 0 0-.834-.152c-1.49 0-2.608 1.49-2.608 1.49s1.118 1.491 2.608 1.491c.874 0 1.62-.512 2.087-.936.468.424 1.213.936 2.087.936 1.491 0 2.609-1.49 2.609-1.49S15.578 11.5 14.087 11.5Z"/>
    <path fill="#FFDA44" d="m12 4.696.308.947h.996l-.806.586.308.948L12 6.59l-.806.586.307-.948-.806-.586h.997L12 4.696ZM8.212 6.353l.592.533.69-.398-.323.728.592.534-.793-.084-.324.728-.166-.78-.793-.083.69-.398-.165-.78ZM5.438 9.127l.78.166.398-.69.083.792.78.166-.728.324.083.793-.534-.593-.728.325.399-.69-.534-.593ZM15.79 6.353l-.593.533-.69-.398.324.728-.593.534.793-.084.324.728.166-.78.793-.083-.69-.398.165-.78Zm2.773 2.774-.78.166-.399-.69-.083.792-.78.166.729.324-.084.793.534-.593.728.325-.399-.69.534-.593Z"/>
    <path fill="#F0F0F0" d="M11.999 18.655a5.193 5.193 0 0 0 3.15-1.06h-6.3a5.193 5.193 0 0 0 3.15 1.06Zm-4.782-3.131c.165.38.375.735.622 1.06h8.321a5.21 5.21 0 0 0 .622-1.06H7.217Z"/>
  </g>
  <defs>
    <clipPath id="a">
      <path fill="#fff" d="M0 0h24v24H0z"/>
    </clipPath>
  </defs>
</svg>
