<svg xmlns="http://www.w3.org/2000/svg" width="24" height="24" fill="none" viewBox="0 0 24 24">
  <g clip-path="url(#a)">
    <path fill="#F0F0F0" d="M12 24c6.627 0 12-5.373 12-12S18.627 0 12 0 0 5.373 0 12s5.373 12 12 12Z"/>
    <path fill="#D80027" d="M11.479 12H24a12.01 12.01 0 0 0-.413-3.13H11.479V12Zm0-6.26h10.76a12.064 12.064 0 0 0-2.769-3.131h-7.99v3.13ZM12.001 24c2.824 0 5.42-.976 7.47-2.609H4.531A11.949 11.949 0 0 0 12.001 24ZM1.762 18.26h20.477a11.931 11.931 0 0 0 1.348-3.13H.414c.3 1.117.758 2.169 1.348 3.13Z"/>
    <path fill="#0052B4" d="M12 12V0C5.373 0 0 5.373 0 12h12Z"/>
    <path fill="#FFDA44" d="M7.979 10.272a2.967 2.967 0 1 1 1.412-5.578 3.652 3.652 0 1 0 0 5.221c-.42.228-.9.357-1.412.357Z"/>
    <path fill="#FFDA44" d="M8.815 5.217 9.34 6.32l1.19-.275-.533 1.099.957.759-1.191.268.003 1.221-.952-.764-.953.764.003-1.22-1.191-.27.957-.758-.533-1.099 1.19.275.527-1.102Z"/>
  </g>
  <defs>
    <clipPath id="a">
      <path fill="#fff" d="M0 0h24v24H0z"/>
    </clipPath>
  </defs>
</svg>
