<svg xmlns="http://www.w3.org/2000/svg" width="24" height="24" fill="none" viewBox="0 0 24 24">
  <g clip-path="url(#a)">
    <path fill="#D80027" d="M0 12c0 1.468.264 2.874.746 4.174L12 16.696l11.254-.522c.482-1.3.746-2.706.746-4.174 0-1.468-.264-2.874-.746-4.174L12 7.304.746 7.826A11.975 11.975 0 0 0 0 12Z"/>
    <path fill="#000" d="M12 0C6.84 0 2.442 3.256.746 7.826h22.507C21.558 3.256 17.16 0 12 0Z"/>
    <path fill="#496E2D" d="M23.253 16.174H.746C2.442 20.744 6.84 24 12 24c5.16 0 9.558-3.256 11.253-7.826Z"/>
    <path fill="#D80027" d="m15.587 5.74-1.465-.69.78-1.42-1.591.305-.202-1.608-1.108 1.183-1.109-1.183-.201 1.608-1.592-.305.78 1.42-1.465.69h7.173Z"/>
  </g>
  <defs>
    <clipPath id="a">
      <path fill="#fff" d="M0 0h24v24H0z"/>
    </clipPath>
  </defs>
</svg>
