<svg xmlns="http://www.w3.org/2000/svg" width="24" height="24" fill="none" viewBox="0 0 24 24">
  <g clip-path="url(#a)">
    <path fill="#D80027" d="m1.459 6.26 10.54 1.044 10.542-1.043A11.997 11.997 0 0 0 12 0C7.45 0 3.494 2.53 1.459 6.26Z"/>
    <path fill="#FFDA44" d="M1.46 17.74 12 18.782l10.54-1.044A11.917 11.917 0 0 0 24 12l-12-1.043L0 12c0 2.079.529 4.034 1.46 5.74Z"/>
    <path fill="#0052B4" d="M1.46 6.26A11.946 11.946 0 0 0 0 12h24c0-2.079-.529-4.034-1.46-5.74H1.46Z"/>
    <path fill="#6DA544" d="M12 24c4.548 0 8.506-2.53 10.54-6.26H1.46A11.997 11.997 0 0 0 11.999 24Z"/>
  </g>
  <defs>
    <clipPath id="a">
      <path fill="#fff" d="M0 0h24v24H0z"/>
    </clipPath>
  </defs>
</svg>
