<svg xmlns="http://www.w3.org/2000/svg" width="24" height="24" fill="none" viewBox="0 0 24 24">
  <g clip-path="url(#a)">
    <path fill="#338AF3" d="M12 24c6.627 0 12-5.373 12-12S18.627 0 12 0 0 5.373 0 12s5.373 12 12 12Z"/>
    <path fill="#F0F0F0" d="m11.999 5.217.518 1.595h1.677l-1.357.985.518 1.594L12 8.406l-1.356.985.518-1.594-1.356-.985h1.676L12 5.217ZM5.217 12l1.594-.518V9.806l.985 1.356 1.595-.518L8.405 12l.986 1.356-1.595-.518-.985 1.356v-1.676L5.217 12ZM12 18.783l-.519-1.595H9.805l1.356-.985-.518-1.594 1.356.985 1.356-.985-.518 1.594 1.357.985h-1.677L12 18.783ZM18.781 12l-1.594.518v1.676l-.985-1.356-1.595.518.986-1.356-.986-1.356 1.595.518.985-1.356v1.676l1.594.518Z"/>
  </g>
  <defs>
    <clipPath id="a">
      <path fill="#fff" d="M0 0h24v24H0z"/>
    </clipPath>
  </defs>
</svg>
