<svg xmlns="http://www.w3.org/2000/svg" width="24" height="24" fill="none" viewBox="0 0 24 24">
  <g clip-path="url(#a)">
    <path fill="#D80027" d="M12 24c6.627 0 12-5.373 12-12S18.627 0 12 0 0 5.373 0 12s5.373 12 12 12Z"/>
    <path fill="#FFDA44" d="M19.091 9.848h-5.417L12 4.696l-1.674 5.152H4.908l4.383 3.184-1.674 5.153L12 15l4.383 3.185-1.674-5.153 4.383-3.184Zm-8.573 2.786.566-1.743h1.832l.566 1.743L12 13.71l-1.482-1.076Zm2.059-2.786h-1.154L12 8.072l.577 1.776Zm1.793 2.14-.357-1.096h1.867l-1.51 1.097Zm-4.383-1.096-.357 1.097-1.51-1.098h1.867Zm-.385 4.56.577-1.775.933.678-1.51 1.098Zm3.285-1.097.934-.678.577 1.776-1.51-1.098Z"/>
  </g>
  <defs>
    <clipPath id="a">
      <path fill="#fff" d="M0 0h24v24H0z"/>
    </clipPath>
  </defs>
</svg>
