<svg xmlns="http://www.w3.org/2000/svg" width="24" height="24" fill="none" viewBox="0 0 24 24">
  <g clip-path="url(#a)">
    <path fill="#0052B4" d="M12 24c6.627 0 12-5.373 12-12S18.627 0 12 0 0 5.373 0 12s5.373 12 12 12Z"/>
    <path fill="#F0F0F0" d="M17.15 12.837 19.304 12l-2.154-.837-1.184-.46-1.922-.747-.747-1.923a4.192 4.192 0 0 1 2.67 2.67l1.182.46a5.23 5.23 0 0 0-4.312-4.313L12 4.696l-.838 2.154a5.23 5.23 0 0 0-4.312 4.313L4.695 12l2.155.837a5.23 5.23 0 0 0 4.313 4.313L12 19.304l.837-2.154a5.23 5.23 0 0 0 4.313-4.313Zm-3.912-2.075L12 12h4.423l-3.185 1.238L12 12v4.423l-1.238-3.185L12 12H7.576l3.186-1.238L12 12V7.577l1.238 3.185Zm-2.535-2.728-.747 1.922-1.923.747a4.192 4.192 0 0 1 2.67-2.67Zm-2.67 5.263 1.923.747.747 1.922a4.191 4.191 0 0 1-2.67-2.669Zm5.264 2.67.747-1.923 1.922-.747a4.192 4.192 0 0 1-2.67 2.67Z"/>
    <path fill="#0052B4" d="M16.423 12H12l1.238 1.238L16.423 12Zm-8.847 0H12l-1.237-1.238L7.576 12ZM12 16.423V12l-1.238 1.238L12 16.423ZM12 12l1.238-1.238L12 7.577V12Z"/>
    <path fill="#F0F0F0" d="M11.477 1.565h1.043v2.087h-1.043V1.565Zm-9.913 9.913h2.087v1.044H1.564v-1.044Zm9.913 8.87h1.043v2.087h-1.043v-2.087Zm8.871-8.87h2.087v1.044h-2.087v-1.044Z"/>
  </g>
  <defs>
    <clipPath id="a">
      <path fill="#fff" d="M0 0h24v24H0z"/>
    </clipPath>
  </defs>
</svg>
