<svg xmlns="http://www.w3.org/2000/svg" width="24" height="25" fill="none" viewBox="0 0 24 25">
  <g clip-path="url(#a)">
    <path fill="#6DA544" d="M0 12.023c0 5.16 3.256 9.558 7.826 11.254L8.87 12.023 7.826.77C3.256 2.465 0 6.864 0 12.023Z"/>
    <path fill="#D80027" d="M24 12.023c0-6.627-5.372-12-12-12A11.96 11.96 0 0 0 7.826.77v22.507c1.3.482 2.706.746 4.174.746 6.628 0 12-5.372 12-12Z"/>
    <path fill="#FFDA44" d="M7.826 16.197a4.174 4.174 0 1 0 0-8.347 4.174 4.174 0 0 0 0 8.347Z"/>
    <path fill="#D80027" d="M5.479 9.937v2.608a2.348 2.348 0 1 0 4.695 0V9.937H5.48Z"/>
    <path fill="#F0F0F0" d="M7.826 13.328a.784.784 0 0 1-.783-.783v-1.043h1.565v1.043a.784.784 0 0 1-.782.783Z"/>
  </g>
  <defs>
    <clipPath id="a">
      <path fill="#fff" d="M0 .023h24v24H0z"/>
    </clipPath>
  </defs>
</svg>
