<svg xmlns="http://www.w3.org/2000/svg" width="24" height="25" fill="none" viewBox="0 0 24 25">
  <g clip-path="url(#a)">
    <path fill="#F0F0F0" d="M12 24.035c6.627 0 12-5.372 12-12 0-6.627-5.373-12-12-12s-12 5.373-12 12c0 6.628 5.373 12 12 12Z"/>
    <path fill="#D80027" d="M12 .035c-.011-.008-12.003 11.997-12 12 0-6.627 5.373-12 12-12Zm0 0c.011-.008 12.003 11.997 12 12 0-6.627-5.373-12-12-12Z"/>
    <path fill="#0052B4" d="M12 24.035c-.011.009-12.003-11.997-12-12 0 6.628 5.373 12 12 12Zm0 0c.011.009 12.003-11.997 12-12 0 6.628-5.373 12-12 12Z"/>
    <path fill="#FFDA44" d="m12 6.296 1.295 3.986h4.19l-3.39 2.463 1.295 3.986L12 14.267l-3.39 2.464 1.294-3.986-3.39-2.463h4.19L12 6.296Z"/>
  </g>
  <defs>
    <clipPath id="a">
      <path fill="#fff" d="M0 .035h24v24H0z"/>
    </clipPath>
  </defs>
</svg>
