<svg xmlns="http://www.w3.org/2000/svg" width="24" height="25" fill="none" viewBox="0 0 24 25">
  <g clip-path="url(#a)">
    <path fill="#F0F0F0" d="M12 24.047c6.627 0 12-5.373 12-12 0-6.628-5.373-12-12-12s-12 5.372-12 12c0 6.627 5.373 12 12 12Z"/>
    <path fill="#D80027" d="M0 12.047c0-6.628 5.373-12 12-12s12 5.373 12 12"/>
    <path fill="#F0F0F0" d="M7.304 6.308a3.653 3.653 0 0 1 2.87-3.568 3.652 3.652 0 1 0 0 7.135 3.653 3.653 0 0 1-2.87-3.567ZM12 2.916l.258.797h.839l-.678.493.259.797-.679-.492-.678.492.26-.797-.679-.493h.839l.258-.797Z"/>
    <path fill="#F0F0F0" d="m9.966 4.482.26.797h.837l-.678.492.26.797-.679-.492-.678.492.26-.797-.679-.492h.838l.26-.797Zm4.067 0 .259.797h.838l-.678.492.259.797-.678-.492-.678.492.259-.797-.679-.492h.839l.259-.797ZM13.25 6.83l.258.797h.839l-.678.492.259.797-.679-.492-.678.492.26-.797-.679-.492h.838l.26-.798Zm-2.502 0 .259.797h.838l-.678.492.259.797-.678-.492-.678.492.258-.797-.678-.492h.839l.259-.798Z"/>
  </g>
  <defs>
    <clipPath id="a">
      <path fill="#fff" d="M0 .047h24v24H0z"/>
    </clipPath>
  </defs>
</svg>
