<svg xmlns="http://www.w3.org/2000/svg" width="24" height="25" fill="none" viewBox="0 0 24 25">
  <g clip-path="url(#a)">
    <path fill="#F0F0F0" d="M12 24.059c6.627 0 12-5.373 12-12 0-6.628-5.373-12-12-12s-12 5.372-12 12c0 6.627 5.373 12 12 12Z"/>
    <path fill="#0052B4" d="M23.254 7.885h-12.82v-3.13h-6.26v3.13H.746A11.974 11.974 0 0 0 0 12.059c0 1.468.264 2.873.746 4.174L12 17.276l11.254-1.043c.482-1.3.746-2.707.746-4.174 0-1.468-.264-2.874-.746-4.174Z"/>
    <path fill="#D80027" d="M12 24.059c5.16 0 9.558-3.257 11.253-7.826H.746C2.442 20.803 6.84 24.059 12 24.059Z"/>
    <path fill="#F0F0F0" d="M4.174 7.885v1.043c0 2.396 3.13 3.13 3.13 3.13s3.13-.733 3.13-3.13V7.885L9.392 8.928 7.304 7.363 5.217 8.928 4.174 7.885Z"/>
  </g>
  <defs>
    <clipPath id="a">
      <path fill="#fff" d="M0 .059h24v24H0z"/>
    </clipPath>
  </defs>
</svg>
