<svg xmlns="http://www.w3.org/2000/svg" width="24" height="25" fill="none" viewBox="0 0 24 25">
  <g clip-path="url(#a)">
    <path fill="#F0F0F0" d="M12 24.06c6.627 0 12-5.373 12-12 0-6.628-5.373-12-12-12s-12 5.372-12 12c0 6.627 5.373 12 12 12Z"/>
    <path fill="#0052B4" d="M12 24.06c6.627 0 12-5.373 12-12 0-1.468-.264-2.874-.746-4.174H.746A11.974 11.974 0 0 0 0 12.059c0 6.628 5.373 12 12 12Z"/>
    <path fill="#D80027" d="M12 24.06c5.16 0 9.558-3.257 11.253-7.826H.746C2.442 20.803 6.84 24.06 12 24.06Z"/>
    <path fill="#F0F0F0" d="M3.104 6.842v5.986c0 3.406 4.448 4.449 4.448 4.449S12 16.234 12 12.828V6.842H3.104Z"/>
    <path fill="#D80027" d="M4.146 6.842v5.986c0 .4.09.778.265 1.132h6.28a2.51 2.51 0 0 0 .265-1.132V6.842h-6.81Z"/>
    <path fill="#F0F0F0" d="M9.639 11.016H8.074V9.973h1.043V8.929H8.074V7.886H7.03v1.043H5.987v1.044H7.03v1.043H5.465v1.043H7.03v1.044h1.044V12.06h1.565v-1.044Z"/>
    <path fill="#0052B4" d="M5.835 15.416a7.499 7.499 0 0 0 1.717.777 7.499 7.499 0 0 0 1.717-.777c.678-.426 1.154-.913 1.424-1.456a1.818 1.818 0 0 0-1.469-.287 1.826 1.826 0 0 0-3.343 0 1.826 1.826 0 0 0-1.469.287c.27.543.745 1.03 1.423 1.456Z"/>
  </g>
  <defs>
    <clipPath id="a">
      <path fill="#fff" d="M0 .06h24v24H0z"/>
    </clipPath>
  </defs>
</svg>
