<svg xmlns="http://www.w3.org/2000/svg" width="24" height="25" fill="none" viewBox="0 0 24 25">
  <g clip-path="url(#a)">
    <path fill="#FFDA44" d="M0 12.059c0 1.467.264 2.873.746 4.174L12 17.276l11.254-1.043c.482-1.3.746-2.707.746-4.174 0-1.468-.264-2.874-.746-4.174L12 6.84.746 7.885A11.974 11.974 0 0 0 0 12.059Z"/>
    <path fill="#D80027" d="M23.253 7.885C21.558 3.315 17.16.059 12 .059S2.442 3.315.746 7.885h22.507ZM.746 16.233C2.442 20.803 6.84 24.059 12 24.059c5.16 0 9.558-3.257 11.253-7.826H.746Z"/>
  </g>
  <defs>
    <clipPath id="a">
      <path fill="#fff" d="M0 .059h24v24H0z"/>
    </clipPath>
  </defs>
</svg>
