<svg xmlns="http://www.w3.org/2000/svg" width="24" height="25" fill="none" viewBox="0 0 24 25">
  <g clip-path="url(#a)">
    <path fill="#FFDA44" d="M12 24.07c6.627 0 12-5.372 12-12 0-6.627-5.373-12-12-12s-12 5.373-12 12c0 6.628 5.373 12 12 12Z"/>
    <path fill="#FF9811" d="M9.392 2.157H5.237c-.184.126-.365.257-.541.393l-1.044 9.52 1.044 9.52c.176.136.357.267.54.393h4.156V2.157Z"/>
    <path fill="#6DA544" d="M0 12.07a11.98 11.98 0 0 0 4.696 9.52V2.55A11.98 11.98 0 0 0 0 12.07Z"/>
    <path fill="#FFDA44" d="M19.305 7.386v.3l.01.002-.01-.302Z"/>
    <path fill="#A2001D" d="M23.044 15.2h-2.26l-.957 1.044v2.087H17.74v-1.043h1.043V15.2h-4.696v1.304h-1.043v-2.486a1.56 1.56 0 0 1-.522-1.166V6.07c0-.864.701-1.565 1.565-1.565v9.652h2.087l.716-.597a2.495 2.495 0 0 1-.194-.968v-1.565h-1.565v-3.13h3.13c0-.522.783-1.044.783-1.044s.783.522.783 1.043v3.131c.58.007 1.502-.008 2.499 0-.262-.458-.413-1-.413-1.565 0-.921.398-1.749 1.03-2.322a12.048 12.048 0 0 0-4.18-4.983h-7.806v19.826h7.807a12.027 12.027 0 0 0 4.693-6.332l-.413-.45Z"/>
  </g>
  <defs>
    <clipPath id="a">
      <path fill="#fff" d="M0 .07h24v24H0z"/>
    </clipPath>
  </defs>
</svg>
