<svg xmlns="http://www.w3.org/2000/svg" width="24" height="25" fill="none" viewBox="0 0 24 25">
  <g clip-path="url(#a)">
    <path fill="#F0F0F0" d="M12 24.071c6.627 0 12-5.372 12-12 0-6.627-5.373-12-12-12s-12 5.373-12 12c0 6.628 5.373 12 12 12Z"/>
    <path fill="#ACABB1" d="M21.427 9.723h-3.948c0-.72-.584-1.304-1.305-1.304l-1.043 2.087s1.113 3.13 1.078 3.13h1.305c.72 0 1.304-.583 1.304-1.304.72 0 1.304-.584 1.304-1.304h-.043c.72 0 1.348-.584 1.348-1.305Zm-18.853 0h3.948c0-.72.584-1.304 1.304-1.304l1.044 2.087s-1.113 3.13-1.078 3.13H6.487c-.72 0-1.304-.583-1.304-1.304-.72 0-1.304-.584-1.304-1.304h.043c-.72 0-1.348-.584-1.348-1.305Z"/>
    <path fill="#FFDA44" d="M16.173 16.767v.522H7.825v-.522H5.738v2.087h2.087v.521h8.348v-.521h2.087v-2.087h-2.087Z"/>
    <path fill="#0052B4" d="M7.826 8.42v5.216C7.826 16.831 12 17.81 12 17.81s4.174-.979 4.174-4.174V8.42L12 7.897l-4.174.522Z"/>
    <path fill="#D80027" d="M7.826 10.506h8.348v3.13H7.826v-3.13Z"/>
    <path fill="#FFDA44" d="M14.087 5.81v.783l-.522.26-.521-.52V4.766h-2.087v1.565l-.522.522-.522-.261V5.81H7.826v2.61h8.348V5.81h-2.087Z"/>
  </g>
  <defs>
    <clipPath id="a">
      <path fill="#fff" d="M0 .071h24v24H0z"/>
    </clipPath>
  </defs>
</svg>
