<svg xmlns="http://www.w3.org/2000/svg" width="24" height="25" fill="none" viewBox="0 0 24 25">
  <g clip-path="url(#a)">
    <path fill="#F0F0F0" d="M12 24.07c6.627 0 12-5.372 12-12 0-6.627-5.373-12-12-12s-12 5.373-12 12c0 6.628 5.373 12 12 12Z"/>
    <path fill="#A2001D" d="M23.254 7.896H.746A11.976 11.976 0 0 0 0 12.07c0 1.468.264 2.874.746 4.174h22.508c.482-1.3.746-2.706.746-4.174 0-1.468-.264-2.874-.746-4.174Z"/>
    <path fill="#6DA544" d="M12.034 24.07c4.11 0 7.738-2.066 9.9-5.217h-19.8a11.986 11.986 0 0 0 9.9 5.217Zm0-24c4.11 0 7.738 2.067 9.9 5.218h-19.8a11.986 11.986 0 0 1 9.9-5.218Z"/>
    <path fill="#FFDA44" d="m12 7.896 1.036 3.189h3.353l-2.713 1.97 1.037 3.19L12 14.273l-2.712 1.97 1.036-3.188-2.713-1.971h3.353L12 7.896Z"/>
  </g>
  <defs>
    <clipPath id="a">
      <path fill="#fff" d="M0 .07h24v24H0z"/>
    </clipPath>
  </defs>
</svg>
