<svg xmlns="http://www.w3.org/2000/svg" width="24" height="25" fill="none" viewBox="0 0 24 25">
  <g clip-path="url(#a)">
    <path fill="#FFDA44" d="M22.81 17.288A11.953 11.953 0 0 0 24 12.07c0-1.87-.428-3.64-1.19-5.217L12 6.33l-10.81.522A11.953 11.953 0 0 0 0 12.07c0 1.87.428 3.64 1.19 5.218l10.81.521 10.81-.521Z"/>
    <path fill="#000" d="M12 .07A12 12 0 0 0 1.192 6.853H22.81A12 12 0 0 0 12 .07Z"/>
    <path fill="#0052B4" d="M12 24.07a12 12 0 0 1-10.809-6.782H22.81A12 12 0 0 1 12 24.07Z"/>
    <path fill="#A2001D" d="M23.433 8.418H.567A11.99 11.99 0 0 0 0 12.07c0 1.274.2 2.5.567 3.652h22.866A11.99 11.99 0 0 0 24 12.07c0-1.273-.2-2.5-.567-3.652Z"/>
    <path fill="#FFDA44" d="M4.174 11.549h15.652v1.043H4.174V11.55Zm2.088-2.087H17.74v1.043H6.262V9.462Z"/>
    <path fill="#F0F0F0" d="M17.813 12.07S15.13 15.2 12 15.2s-3.13-3.13-3.13-3.13 0-3.13 3.13-3.13 5.813 3.13 5.813 3.13Z"/>
    <path fill="#000" d="M12 15.2c-3.131 0-5.814-3.13-5.814-3.13s2.683-3.13 5.813-3.13"/>
    <path fill="#F0F0F0" d="M9.912 11.027h1.044v2.087H9.912v-2.087Z"/>
    <path fill="#000" d="M13.043 11.027h1.043v2.087h-1.043v-2.087Z"/>
    <path fill="#0052B4" d="M4.174 13.114a1.044 1.044 0 1 0 0-2.087 1.044 1.044 0 0 0 0 2.087Zm15.653 0a1.044 1.044 0 1 0 0-2.087 1.044 1.044 0 0 0 0 2.087Z"/>
  </g>
  <defs>
    <clipPath id="a">
      <path fill="#fff" d="M0 .07h24v24H0z"/>
    </clipPath>
  </defs>
</svg>
