<svg xmlns="http://www.w3.org/2000/svg" width="24" height="25" fill="none" viewBox="0 0 24 25">
  <g clip-path="url(#a)">
    <path fill="#F0F0F0" d="M1.19 6.854A11.952 11.952 0 0 0 0 12.07c0 1.87.428 3.64 1.19 5.218L12 18.332l10.81-1.043A11.954 11.954 0 0 0 24 12.07c0-1.87-.428-3.64-1.19-5.217L12 5.81 1.19 6.854Z"/>
    <path fill="#6DA544" d="M1.191 17.289a12 12 0 0 0 10.81 6.782 12 12 0 0 0 10.808-6.782H1.191Z"/>
    <path fill="#D80027" d="M1.191 6.854H22.81A12 12 0 0 0 12 .07 12 12 0 0 0 1.191 6.854Z"/>
    <path fill="#FFDA44" d="M9.912 15.202h4.174v-1.774l-.835.417L12 12.593l-1.252 1.252-.835-.417v1.774Zm-2.388-2.087.194.598h.629l-.509.37.195.597-.509-.37-.509.37.195-.598-.509-.37h.629l.194-.597Zm.602-2.087.194.598h.629l-.51.37.195.597-.508-.37-.509.37.194-.598-.508-.37h.628l.195-.597Zm1.722-1.565.195.598h.628l-.508.369.194.598-.509-.37-.508.37.194-.598-.509-.37h.629l.194-.597Zm6.625 3.652-.194.598h-.629l.509.37-.194.597.508-.37.509.37-.194-.598.508-.37h-.628l-.195-.597Zm-.601-2.087-.195.598h-.628l.508.37-.194.597.509-.37.508.37-.194-.598.509-.37h-.629l-.194-.597Zm-1.721-1.565-.194.598h-.629l.509.369-.195.598.509-.37.508.37-.194-.598.509-.37h-.629l-.194-.597Zm-2.152-.783.194.598h.629l-.509.37.194.597-.508-.37-.509.37.194-.598-.508-.37h.628L12 8.68Z"/>
  </g>
  <defs>
    <clipPath id="a">
      <path fill="#fff" d="M0 .071h24v24H0z"/>
    </clipPath>
  </defs>
</svg>
