<svg xmlns="http://www.w3.org/2000/svg" width="24" height="25" fill="none" viewBox="0 0 24 25">
  <g clip-path="url(#a)">
    <path fill="#FFDA44" d="M12 24.49c6.627 0 12-5.372 12-12 0-6.627-5.373-12-12-12s-12 5.373-12 12c0 6.628 5.373 12 12 12Z"/>
    <path fill="#496E2D" d="M12 .49c-.008 0-.521 4.8-.521 4.8H21.6A11.982 11.982 0 0 0 12 .49Zm0 24a11.98 11.98 0 0 0 9.601-4.8h-19.2a11.982 11.982 0 0 0 9.6 4.8Zm11.76-14.4H11.478l.522 4.8h11.76a12.056 12.056 0 0 0 0-4.8Z"/>
    <path fill="#D80027" d="M12 14.89V.49c-6.627 0-12 5.373-12 12 0 .822.083 1.625.24 2.4H12Z"/>
    <path fill="#F0F0F0" d="m6.622 6.23.777 2.39h2.514L7.88 10.1l.777 2.391-2.034-1.478-2.035 1.478.777-2.391L3.33 8.62h2.515l.777-2.392Z"/>
  </g>
  <defs>
    <clipPath id="a">
      <path fill="#fff" d="M0 .49h24v24H0z"/>
    </clipPath>
  </defs>
</svg>
