<svg xmlns="http://www.w3.org/2000/svg" width="24" height="25" fill="none" viewBox="0 0 24 25">
  <g clip-path="url(#a)">
    <path fill="#A2001D" d="M23.587 9.36C22.21 4.25 17.545.49 12.001.49 6.456.49 1.79 4.25.414 9.36l11.587.522 11.586-.522ZM.414 15.62c1.377 5.11 6.042 8.87 11.587 8.87 5.544 0 10.21-3.76 11.586-8.87l-11.586-.52-11.587.52Z"/>
    <path fill="#6DA544" d="M23.587 9.36H.413A12.013 12.013 0 0 0 0 12.49c0 1.083.144 2.133.413 3.13h23.174c.269-.997.413-2.047.413-3.13a12.01 12.01 0 0 0-.413-3.13Z"/>
  </g>
  <defs>
    <clipPath id="a">
      <path fill="#fff" d="M0 .49h24v24H0z"/>
    </clipPath>
  </defs>
</svg>
