<svg xmlns="http://www.w3.org/2000/svg" width="24" height="25" fill="none" viewBox="0 0 24 25">
  <g clip-path="url(#a)">
    <path fill="#D80027" d="M12 24.91c6.627 0 12-5.373 12-12 0-6.628-5.373-12-12-12s-12 5.372-12 12c0 6.627 5.373 12 12 12Z"/>
    <path fill="#F0F0F0" d="M12 18.648A5.74 5.74 0 1 0 12 7.17a5.74 5.74 0 0 0 0 11.478Z"/>
    <path fill="#D80027" d="m12.707 10.715.984 1.357 1.595-.517-.986 1.355.984 1.357-1.594-.52-.986 1.357.001-1.677-1.594-.519 1.595-.517.001-1.676Z"/>
    <path fill="#D80027" d="M13.304 16.3a3.391 3.391 0 1 1 1.614-6.375 4.174 4.174 0 1 0 0 5.967 3.38 3.38 0 0 1-1.614.409Z"/>
  </g>
  <defs>
    <clipPath id="a">
      <path fill="#fff" d="M0 .91h24v24H0z"/>
    </clipPath>
  </defs>
</svg>
