<svg xmlns="http://www.w3.org/2000/svg" width="24" height="25" fill="none" viewBox="0 0 24 25">
  <g clip-path="url(#a)">
    <path fill="#0052B4" d="M24 12.911c0 6.627-5.373 12-12 12s-12-5.373-12-12c0 .003 12-11.999 12-12 6.627 0 12 5.373 12 12Z"/>
    <path fill="#F0F0F0" d="M11.969 12.911H12v-.032l-.032.032Z"/>
    <path fill="#F0F0F0" d="M12 7.172V.912h-.002C5.371.911 0 6.283 0 12.911h6.26V9.385l3.526 3.525h2.182l.032-.03v-2.181L8.474 7.172H12Z"/>
    <path fill="#D80027" d="M6.07 2.476a12.057 12.057 0 0 0-4.506 4.506v5.93h3.13V5.606H12v-3.13H6.07Z"/>
    <path fill="#D80027" d="M11.999 11.435 7.735 7.172H6.26l5.739 5.74v-1.477Z"/>
    <path fill="#FFDA44" d="M13.565 7.172v5.74c0 2.795 3.652 3.651 3.652 3.651s3.652-.856 3.652-3.652V7.172h-7.304Z"/>
    <path fill="#FF9811" d="M16.696 9.259c0 .576-.467 2.087-1.043 2.087-.577 0-1.044-1.51-1.044-2.087 0-.576 1.044-1.044 1.044-1.044s1.043.468 1.043 1.044Z"/>
    <path fill="#A2001D" d="M19.464 10.395c.169-.41.3-1.011.3-1.31 0-.48-.627-.87-.627-.87s-.626.39-.626.87c0 .299.131.9.3 1.31l-.362.816a1.823 1.823 0 0 0 1.377 0l-.362-.816Z"/>
    <path fill="#6DA544" d="M16.434 12.911s-.522 1.044-.522 2.087h2.609c0-1.043-.522-2.087-.522-2.087l-.783-.522-.782.522Z"/>
    <path fill="#D80027" d="M18 12.911v-.26a.783.783 0 0 0-1.564 0v.26H18Z"/>
  </g>
  <defs>
    <clipPath id="a">
      <path fill="#fff" d="M0 .911h24v24H0z"/>
    </clipPath>
  </defs>
</svg>
