<svg xmlns="http://www.w3.org/2000/svg" width="24" height="25" fill="none" viewBox="0 0 24 25">
  <g clip-path="url(#a)">
    <path fill="#FFDA44" d="M20.943 20.91a11.954 11.954 0 0 0 3.057-8c0-3.073-1.156-5.877-3.057-8L12 4.04l-8.943.87a11.954 11.954 0 0 0-3.057 8c0 3.074 1.156 5.877 3.057 8l8.943.87 8.943-.87Z"/>
    <path fill="#000" d="M3.057 4.91h17.886A11.97 11.97 0 0 0 12 .91a11.97 11.97 0 0 0-8.943 4Z"/>
    <path fill="#D80027" d="m0 12.91 12 1.044 12-1.044c0-1.402-.241-2.749-.684-4H.684a11.977 11.977 0 0 0-.684 4Z"/>
    <path fill="#000" d="M.684 16.91h22.632a11.98 11.98 0 0 0 .684-4H0c0 1.403.241 2.749.684 4Z"/>
    <path fill="#D80027" d="M20.944 20.91H3.056a11.97 11.97 0 0 0 8.943 4 11.97 11.97 0 0 0 8.944-4Z"/>
    <path fill="#F0F0F0" d="M16.005 12.91a4.004 4.004 0 1 1-8.008 0 4.004 4.004 0 0 1 8.008 0Z"/>
    <path fill="#000" d="M13.467 13.114 12 12.48s.343-1.14.361-1.217a.78.78 0 0 0-.209-.73l.37-.37a1.3 1.3 0 0 0-1.845 0l.369.369a.78.78 0 0 0-.196.78l-.555.556h1.01s-.418.626-.646 1.141a1.053 1.053 0 0 0 .53 1.378l.304.135.507.476v.522l-.522.522h1.044v-1.044l.476-.476h.985l.014-.03a1.043 1.043 0 0 0-.53-1.377Z"/>
  </g>
  <defs>
    <clipPath id="a">
      <path fill="#fff" d="M0 .91h24v24H0z"/>
    </clipPath>
  </defs>
</svg>
