<svg xmlns="http://www.w3.org/2000/svg" width="24" height="25" fill="none" viewBox="0 0 24 25">
  <g clip-path="url(#a)">
    <path fill="#F0F0F0" d="M12 .33c6.628 0 12 5.373 12 12s-5.372 12-12 12c0-.522-1.565-12-1.565-12l1.566-12Z"/>
    <path fill="#FFDA44" d="M12 24.33c-6.627 0-12-5.372-12-12 0-6.627 5.373-12 12-12"/>
    <path fill="#ACABB1" d="m16.594 10.772 2.255 2.984a1.566 1.566 0 1 0 .833-.63l-3.515-4.65-.832.63-1.25.944 1.26 1.665 1.25-.943Zm3.247 3.43a.522.522 0 1 1 .63.833.522.522 0 0 1-.63-.833Z"/>
    <path fill="#FFDA44" d="m20.464 11.715 1.259-1.665-1.249-.944-.832-.63-3.515 4.65a1.566 1.566 0 1 0 .832.63l2.256-2.984 1.25.943Zm-4.395 3.218a.522.522 0 1 1-.832-.63.522.522 0 0 1 .832.63Z"/>
  </g>
  <defs>
    <clipPath id="a">
      <path fill="#fff" d="M0 .33h24v24H0z"/>
    </clipPath>
  </defs>
</svg>
