<svg width="16" height="16" viewBox="0 0 16 16" fill="none" xmlns="http://www.w3.org/2000/svg">
<path d="M7.79983 14.4001H3.79982C2.91617 14.4001 2.19982 13.6837 2.19983 12.8001L2.19989 3.20009C2.1999 2.31644 2.91624 1.6001 3.79989 1.6001H11.0001C11.8837 1.6001 12.6001 2.31644 12.6001 3.2001V6.4001M5.00008 4.8001H9.80008M5.00008 7.2001H9.80008M9.80008 10.3694V12.3323C9.80008 13.3023 10.8343 14.1919 11.8043 14.1919C12.7743 14.1919 13.8001 13.3023 13.8001 12.3323V9.85285C13.8001 9.33933 13.5049 8.81821 12.8482 8.81821C12.1457 8.81821 11.8043 9.33933 11.8043 9.85284V12.229M5.00008 9.6001H7.40008" stroke="#1D222B" stroke-width="1.5" stroke-linecap="round" stroke-linejoin="round"/>
</svg>
