<svg xmlns="http://www.w3.org/2000/svg"
     fill="currentColor"
     viewBox="0 0 26 26">
    <path fill="#000"
          d="M12 5.8a1 1 0 1 0 2 0h-2ZM14 1a1 1 0 1 0-2 0h2Zm-2 24a1 1 0 1 0 2 0h-2Zm2-4.8a1 1 0 1 0-2 0h2Zm6.2-8.2a1 1 0 1 0 0 2v-2Zm4.8 2a1 1 0 1 0 0-2v2ZM1 12a1 1 0 1 0 0 2v-2Zm4.8 2a1 1 0 1 0 0-2v2Zm15.8-1a8.6 8.6 0 0 1-8.6 8.6v2c5.854 0 10.6-4.746 10.6-10.6h-2ZM13 21.6A8.6 8.6 0 0 1 4.4 13h-2c0 5.854 4.746 10.6 10.6 10.6v-2ZM4.4 13A8.6 8.6 0 0 1 13 4.4v-2C7.146 2.4 2.4 7.146 2.4 13h2ZM13 4.4a8.6 8.6 0 0 1 8.6 8.6h2c0-5.854-4.746-10.6-10.6-10.6v2Zm1 1.4V1h-2v4.8h2ZM14 25v-4.8h-2V25h2Zm6.2-11H25v-2h-4.8v2ZM1 14h4.8v-2H1v2Zm14.6-1a2.6 2.6 0 0 1-2.6 2.6v2a4.6 4.6 0 0 0 4.6-4.6h-2ZM13 15.6a2.6 2.6 0 0 1-2.6-2.6h-2a4.6 4.6 0 0 0 4.6 4.6v-2ZM10.4 13a2.6 2.6 0 0 1 2.6-2.6v-2A4.6 4.6 0 0 0 8.4 13h2Zm2.6-2.6a2.6 2.6 0 0 1 2.6 2.6h2A4.6 4.6 0 0 0 13 8.4v2Z" />
</svg>