<svg xmlns="http://www.w3.org/2000/svg"
     fill="currentColor"
     viewBox="0 0 24 24">
    <path stroke="currentColor"
          stroke-linecap="round"
          stroke-width="2"
          d="M5.143 17.029h-.914A1.829 1.829 0 0 1 2.4 15.2V6.972a1.83 1.83 0 0 1 1.829-1.829h8.228a1.83 1.83 0 0 1 1.829 1.829V15.2a1.83 1.83 0 0 1-1.829 1.829h-.914m4.114 0H15.2a.914.914 0 0 1-.914-.915v-7.77c0-.506.41-.915.914-.915h2.303c.278 0 .54.126.714.343L21.4 11.75c.13.162.2.363.2.57v3.794c0 .505-.41.915-.914.915m-10.057-.457a2.286 2.286 0 1 1-4.572 0 2.286 2.286 0 0 1 4.572 0Zm9.6 0a2.286 2.286 0 1 1-4.572 0 2.286 2.286 0 0 1 4.572 0Z" />
</svg>