<svg width="616" height="459" viewBox="0 0 616 459" fill="none" xmlns="http://www.w3.org/2000/svg">
<path d="M615.936 403.323H0.064209V403.631H615.936V403.323Z" fill="#E0E0E0"/>
<path d="M134.842 418.092H63.6838V418.4H134.842V418.092Z" fill="#E0E0E0"/>
<path d="M290.337 411.404H257.917V411.712H290.337V411.404Z" fill="#E0E0E0"/>
<path d="M365.35 411.244H302.186V411.552H365.35V411.244Z" fill="#E0E0E0"/>
<path d="M485.581 414.939H470.196V415.247H485.581V414.939Z" fill="#E0E0E0"/>
<path d="M417.071 414.939H355.706V415.247H417.071V414.939Z" fill="#E0E0E0"/>
<path d="M158.959 418.092H146.765V418.4H158.959V418.092Z" fill="#E0E0E0"/>
<path d="M548.904 414.939H495.631V415.247H548.904V414.939Z" fill="#E0E0E0"/>
<path d="M291.987 348.388H54.1501C52.2869 348.385 50.5011 347.642 49.1848 346.323C47.8685 345.005 47.1291 343.218 47.1292 341.355V7.02245C47.1454 5.16994 47.8918 3.39863 49.2064 2.09328C50.521 0.787928 52.2975 0.0539547 54.1501 0.0507812H291.987C293.853 0.0507813 295.642 0.791783 296.961 2.11077C298.28 3.42977 299.021 5.2187 299.021 7.08403V341.355C299.021 343.22 298.28 345.009 296.961 346.328C295.642 347.647 293.853 348.388 291.987 348.388ZM54.1501 0.297131C52.3686 0.300394 50.6611 1.01039 49.4025 2.27128C48.144 3.53217 47.4371 5.24092 47.4371 7.02245V341.355C47.4371 343.136 48.144 344.845 49.4025 346.106C50.6611 347.367 52.3686 348.077 54.1501 348.08H291.987C293.77 348.077 295.479 347.367 296.739 346.106C298 344.846 298.709 343.137 298.713 341.355V7.02245C298.709 5.23978 298 3.53106 296.739 2.27053C295.479 1.00999 293.77 0.300387 291.987 0.297131H54.1501Z" fill="#E0E0E0"/>
<path d="M558.426 348.388H320.576C318.712 348.385 316.925 347.642 315.607 346.324C314.288 345.006 313.546 343.219 313.543 341.355V7.02245C313.562 5.16881 314.312 3.39752 315.628 2.09251C316.945 0.787498 318.722 0.0539201 320.576 0.0507812H558.426C560.276 0.0571919 562.05 0.792598 563.362 2.0976C564.673 3.40261 565.418 5.17206 565.434 7.02245V341.355C565.434 343.216 564.697 345.001 563.383 346.319C562.07 347.637 560.287 348.381 558.426 348.388ZM320.576 0.297131C318.794 0.300387 317.085 1.00999 315.824 2.27053C314.564 3.53106 313.854 5.23978 313.851 7.02245V341.355C313.854 343.137 314.564 344.846 315.824 346.106C317.085 347.367 318.794 348.077 320.576 348.08H558.426C560.208 348.077 561.917 347.367 563.178 346.106C564.438 344.846 565.148 343.137 565.151 341.355V7.02245C565.148 5.23978 564.438 3.53106 563.178 2.27053C561.917 1.00999 560.208 0.300387 558.426 0.297131H320.576Z" fill="#E0E0E0"/>
<path d="M94.4404 100.82C89.07 89.2168 93.3319 80.9641 106.45 80.9641C114.69 80.9641 124.926 84.2159 134.78 89.5001C135.913 86.4823 139.066 84.684 144.154 84.684C153.108 84.684 165.463 90.2638 175.144 98.1469C178.13 96.1565 181.644 95.1094 185.232 95.1415C193.854 94.7843 204.176 97.9991 213.205 103.222C213.735 102.72 214.36 102.329 215.043 102.071C215.726 101.813 216.454 101.693 217.184 101.719C222.111 101.522 228.799 104.761 232.125 108.949C232.334 109.22 232.507 109.467 232.691 109.725H91.8291C91.5506 108.14 91.6413 106.512 92.0942 104.967C92.547 103.423 93.3499 102.004 94.4404 100.82Z" fill="#F5F5F5"/>
<path d="M254.198 45.6254C254.631 45.5758 255.067 45.5512 255.503 45.5515C255.097 41.0187 257.449 38.161 262.463 38.161C266.084 38.161 270.518 39.676 275.051 42.2381C273.758 33.4434 277.896 27.7158 287.295 27.7158C294.87 27.7158 304.453 31.4111 313.925 37.5698C314.75 34.1209 317.546 32.0516 322.239 32.0516C330.467 32.0516 342.181 38.432 351.567 47.4484C354.058 45.2094 357.295 43.9797 360.645 43.9995C368.491 43.593 378.222 47.2636 386.856 53.2499C387.268 52.6952 387.808 52.2485 388.43 51.9482C389.052 51.6479 389.738 51.5028 390.428 51.5254C394.715 51.316 400.627 54.6048 404.051 59.0267H247.3C243.617 52.2645 246.548 46.4014 254.198 45.6254Z" fill="#F5F5F5"/>
<path d="M464.431 26.4224C460.982 19.0319 463.729 13.6738 472.142 13.6738C477.426 13.6738 483.979 15.7555 490.36 19.1551C491.074 17.2213 493.106 16.0511 496.37 16.0511C502.123 16.0511 510.043 19.6478 516.251 24.6733C518.17 23.3993 520.427 22.73 522.73 22.7518C528.223 22.5177 534.887 24.5748 540.676 27.9374C541.015 27.6132 541.415 27.3601 541.853 27.193C542.291 27.0258 542.758 26.9481 543.226 26.9643C545.06 27.0305 546.86 27.4775 548.512 28.2769C550.164 29.0764 551.631 30.2108 552.821 31.608L553.191 32.1007H460.133C457.189 29.4894 460.44 26.5456 464.431 26.4224Z" fill="#F5F5F5"/>
<path d="M151.827 269.211H109.874V403.324H151.827V269.211Z" fill="#E0E0E0"/>
<path d="M138.118 403.323H206.911L206.911 222.541H138.118L138.118 403.323Z" fill="#F5F5F5"/>
<path d="M242.619 222.541H206.911V403.323H242.619V222.541Z" fill="#E0E0E0"/>
<path d="M147.368 222.541H206.911V204.569H147.368V222.541Z" fill="#F5F5F5"/>
<path d="M147.368 222.541H206.911V218.5H147.368V222.541Z" fill="#E0E0E0"/>
<path d="M233.356 204.569H206.911V222.54H233.356V204.569Z" fill="#E0E0E0"/>
<path d="M156.619 204.569H206.898V186.598H156.619V204.569Z" fill="#F5F5F5"/>
<path d="M156.619 204.569H206.898V200.529H156.619V204.569Z" fill="#E0E0E0"/>
<path d="M224.106 186.598H206.911V204.57H224.106V186.598Z" fill="#E0E0E0"/>
<path d="M192.031 161.495H188.693V186.611H192.031V161.495Z" fill="#E0E0E0"/>
<path d="M231.213 403.323H281.456V253.975H231.213L231.213 403.323Z" fill="#F5F5F5"/>
<path d="M307.532 253.975H281.456V403.323H307.532V253.975Z" fill="#E0E0E0"/>
<path d="M294.488 296.642L332.586 329.308V403.324H294.488V296.642Z" fill="#F5F5F5"/>
<path d="M352.367 329.296H332.598V403.311H352.367V329.296Z" fill="#E0E0E0"/>
<path d="M352.367 329.308H332.586L294.488 296.642H314.27L352.367 329.308Z" fill="#E0E0E0"/>
<path d="M530.946 403.324C531.474 400.365 532.732 397.584 534.605 395.233C536.478 392.883 538.908 391.036 541.674 389.861C539.245 393.91 538.143 398.617 538.521 403.324H530.946Z" fill="#E0E0E0"/>
<path d="M175.624 403.324C175.096 400.365 173.838 397.584 171.965 395.233C170.092 392.883 167.662 391.036 164.896 389.861C167.325 393.91 168.427 398.617 168.049 403.324H175.624Z" fill="#E0E0E0"/>
<path d="M87.6536 403.323C87.6536 403.323 87.05 387.557 80.4602 382.975C83.1577 389.417 82.5911 403.323 82.5911 403.323H87.6536Z" fill="#E0E0E0"/>
<path d="M85.1777 403.324C85.1777 403.324 85.7813 394.27 92.3711 391.647C89.6736 395.342 90.2648 403.324 90.2648 403.324H85.1777Z" fill="#E0E0E0"/>
<path d="M181.266 403.323C181.266 403.323 180.601 388.395 168.653 382.975C173.999 390.637 173.691 403.323 173.691 403.323H181.266Z" fill="#E0E0E0"/>
<path d="M475.874 383.123H445.684C445.358 383.123 445.044 382.993 444.813 382.762C444.582 382.531 444.453 382.218 444.453 381.891V351.738C444.453 351.411 444.582 351.098 444.813 350.867C445.044 350.636 445.358 350.506 445.684 350.506H475.874C476.201 350.506 476.514 350.636 476.745 350.867C476.976 351.098 477.106 351.411 477.106 351.738V381.891C477.106 382.218 476.976 382.531 476.745 382.762C476.514 382.993 476.201 383.123 475.874 383.123ZM446.916 380.659H474.643V352.97H446.916V380.659Z" fill="#E0E0E0"/>
<path d="M475.874 352.97H445.684C445.358 352.97 445.044 352.84 444.813 352.609C444.582 352.378 444.453 352.065 444.453 351.738V321.536C444.453 321.209 444.582 320.896 444.813 320.665C445.044 320.434 445.358 320.304 445.684 320.304H475.874C476.201 320.304 476.514 320.434 476.745 320.665C476.976 320.896 477.106 321.209 477.106 321.536V351.738C477.106 352.065 476.976 352.378 476.745 352.609C476.514 352.84 476.201 352.97 475.874 352.97ZM446.916 350.506H474.643V322.767H446.916V350.506Z" fill="#E0E0E0"/>
<path d="M475.874 383.123C475.549 383.118 475.24 382.986 475.012 382.753L444.81 352.563C444.578 352.332 444.448 352.017 444.448 351.689C444.448 351.361 444.578 351.046 444.81 350.814C445.042 350.582 445.356 350.452 445.684 350.452C446.012 350.452 446.327 350.582 446.559 350.814L476.749 381.066C476.978 381.297 477.107 381.609 477.107 381.934C477.107 382.26 476.978 382.572 476.749 382.803C476.51 383.02 476.197 383.135 475.874 383.123Z" fill="#E0E0E0"/>
<path d="M475.874 352.97C475.551 352.969 475.242 352.84 475.012 352.613L444.81 322.41C444.58 322.18 444.452 321.867 444.452 321.542C444.452 321.217 444.58 320.904 444.81 320.674C444.924 320.558 445.061 320.467 445.211 320.404C445.361 320.342 445.522 320.309 445.684 320.309C445.847 320.309 446.008 320.342 446.158 320.404C446.308 320.467 446.444 320.558 446.559 320.674L476.749 350.864C476.923 351.036 477.041 351.256 477.089 351.496C477.137 351.736 477.113 351.985 477.019 352.211C476.925 352.437 476.766 352.629 476.562 352.765C476.359 352.9 476.119 352.971 475.874 352.97Z" fill="#E0E0E0"/>
<path d="M475.874 322.768H445.684C445.358 322.768 445.044 322.638 444.813 322.407C444.582 322.176 444.453 321.862 444.453 321.536V291.346C444.453 291.019 444.582 290.706 444.813 290.475C445.044 290.244 445.358 290.114 445.684 290.114H475.874C476.201 290.114 476.514 290.244 476.745 290.475C476.976 290.706 477.106 291.019 477.106 291.346V321.536C477.106 321.862 476.976 322.176 476.745 322.407C476.514 322.638 476.201 322.768 475.874 322.768ZM446.916 320.304H474.643V292.578H446.916V320.304Z" fill="#E0E0E0"/>
<path d="M475.874 292.578H445.684C445.358 292.578 445.044 292.448 444.813 292.217C444.582 291.986 444.453 291.673 444.453 291.346V261.18C444.453 260.854 444.582 260.541 444.813 260.31C445.044 260.079 445.358 259.949 445.684 259.949H475.874C476.201 259.949 476.514 260.079 476.745 260.31C476.976 260.541 477.106 260.854 477.106 261.18V291.383C477.097 291.703 476.963 292.007 476.733 292.23C476.503 292.453 476.195 292.578 475.874 292.578ZM446.916 290.114H474.643V262.412H446.916V290.114Z" fill="#E0E0E0"/>
<path d="M475.874 322.768C475.551 322.766 475.242 322.638 475.012 322.41L444.81 292.208C444.58 291.977 444.452 291.665 444.452 291.34C444.452 291.014 444.58 290.702 444.81 290.471C444.924 290.356 445.061 290.264 445.211 290.202C445.361 290.139 445.522 290.107 445.684 290.107C445.847 290.107 446.008 290.139 446.158 290.202C446.308 290.264 446.444 290.356 446.559 290.471L476.749 320.674C476.978 320.904 477.107 321.217 477.107 321.542C477.107 321.867 476.978 322.18 476.749 322.41C476.634 322.525 476.497 322.615 476.347 322.676C476.197 322.737 476.037 322.769 475.874 322.768Z" fill="#E0E0E0"/>
<path d="M475.874 292.578C475.549 292.573 475.24 292.44 475.012 292.208L444.81 262.018C444.578 261.786 444.448 261.472 444.448 261.144C444.448 260.816 444.578 260.501 444.81 260.269C445.042 260.037 445.356 259.907 445.684 259.907C446.012 259.907 446.327 260.037 446.559 260.269L476.749 290.471C476.978 290.702 477.107 291.014 477.107 291.34C477.107 291.665 476.978 291.977 476.749 292.208C476.635 292.324 476.499 292.417 476.349 292.48C476.199 292.544 476.037 292.577 475.874 292.578Z" fill="#E0E0E0"/>
<path d="M475.874 262.412H445.684C445.358 262.412 445.044 262.282 444.813 262.051C444.582 261.82 444.453 261.507 444.453 261.18V230.941C444.453 230.614 444.582 230.301 444.813 230.07C445.044 229.839 445.358 229.709 445.684 229.709H475.874C476.201 229.709 476.514 229.839 476.745 230.07C476.976 230.301 477.106 230.614 477.106 230.941V261.18C477.106 261.507 476.976 261.82 476.745 262.051C476.514 262.282 476.201 262.412 475.874 262.412ZM446.916 259.949H474.643V232.173H446.916V259.949Z" fill="#E0E0E0"/>
<path d="M475.874 232.173H445.684C445.358 232.173 445.044 232.043 444.813 231.812C444.582 231.581 444.453 231.268 444.453 230.941V200.751C444.453 200.424 444.582 200.111 444.813 199.88C445.044 199.649 445.358 199.519 445.684 199.519H475.874C476.201 199.519 476.514 199.649 476.745 199.88C476.976 200.111 477.106 200.424 477.106 200.751V230.941C477.106 231.268 476.976 231.581 476.745 231.812C476.514 232.043 476.201 232.173 475.874 232.173ZM446.916 229.709H474.643V201.983H446.916V229.709Z" fill="#E0E0E0"/>
<path d="M475.874 262.412C475.551 262.411 475.242 262.282 475.012 262.055L444.81 231.853C444.58 231.622 444.452 231.31 444.452 230.984C444.452 230.659 444.58 230.347 444.81 230.116C444.924 230 445.061 229.909 445.211 229.846C445.361 229.784 445.522 229.751 445.684 229.751C445.847 229.751 446.008 229.784 446.158 229.846C446.308 229.909 446.444 230 446.559 230.116L476.749 260.269C476.923 260.441 477.041 260.661 477.089 260.901C477.137 261.141 477.113 261.39 477.019 261.616C476.925 261.842 476.766 262.035 476.562 262.17C476.359 262.305 476.119 262.377 475.874 262.375V262.412Z" fill="#E0E0E0"/>
<path d="M445.684 131.293H415.482C415.155 131.293 414.842 131.163 414.611 130.932C414.38 130.701 414.25 130.388 414.25 130.061V99.8221C414.25 99.4954 414.38 99.1821 414.611 98.9511C414.842 98.7201 415.155 98.5903 415.482 98.5903H445.684C446.011 98.5903 446.324 98.7201 446.555 98.9511C446.786 99.1821 446.916 99.4954 446.916 99.8221V130.012C446.923 130.178 446.896 130.343 446.837 130.499C446.778 130.654 446.688 130.795 446.573 130.915C446.458 131.035 446.32 131.13 446.167 131.195C446.015 131.26 445.85 131.293 445.684 131.293ZM416.714 128.83H444.453V101.054H416.714V128.83Z" fill="#E0E0E0"/>
<path d="M475.874 131.293H445.684C445.358 131.293 445.044 131.163 444.813 130.932C444.582 130.701 444.453 130.388 444.453 130.061C444.453 129.735 444.582 129.421 444.813 129.19C445.044 128.959 445.358 128.83 445.684 128.83H474.643V69.7059C474.643 69.3792 474.772 69.0659 475.003 68.8349C475.234 68.6039 475.548 68.4741 475.874 68.4741C476.201 68.4741 476.514 68.6039 476.745 68.8349C476.976 69.0659 477.106 69.3792 477.106 69.7059V130.061C477.106 130.388 476.976 130.701 476.745 130.932C476.514 131.163 476.201 131.293 475.874 131.293Z" fill="#E0E0E0"/>
<path d="M445.684 131.293C445.473 131.294 445.265 131.242 445.081 131.14C444.896 131.038 444.74 130.89 444.629 130.711C444.518 130.532 444.454 130.327 444.445 130.116C444.436 129.905 444.481 129.695 444.576 129.507L474.778 69.1515C474.926 68.8614 475.182 68.6415 475.491 68.54C475.801 68.4384 476.138 68.4634 476.429 68.6095C476.721 68.755 476.943 69.0106 477.047 69.3201C477.151 69.6296 477.128 69.9677 476.983 70.2601L446.78 130.615C446.678 130.819 446.522 130.989 446.328 131.109C446.135 131.229 445.912 131.292 445.684 131.293Z" fill="#E0E0E0"/>
<path d="M415.482 131.293H385.292C384.965 131.293 384.652 131.163 384.421 130.932C384.19 130.701 384.06 130.388 384.06 130.061V99.8221C384.06 99.4954 384.19 99.1821 384.421 98.9511C384.652 98.7201 384.965 98.5903 385.292 98.5903H415.482C415.809 98.5903 416.122 98.7201 416.353 98.9511C416.584 99.1821 416.714 99.4954 416.714 99.8221V130.012C416.72 130.178 416.693 130.343 416.634 130.499C416.575 130.654 416.486 130.795 416.371 130.915C416.256 131.035 416.118 131.13 415.965 131.195C415.812 131.26 415.648 131.293 415.482 131.293ZM386.524 128.83H414.25V101.054H386.524V128.83Z" fill="#E0E0E0"/>
<path d="M415.482 131.293C415.241 131.29 415.006 131.216 414.807 131.08C414.607 130.944 414.452 130.753 414.36 130.53C414.269 130.307 414.244 130.062 414.29 129.826C414.336 129.589 414.451 129.371 414.62 129.199L444.81 98.9967C444.924 98.8812 445.061 98.7896 445.211 98.7271C445.361 98.6645 445.522 98.6323 445.684 98.6323C445.847 98.6323 446.008 98.6645 446.158 98.7271C446.308 98.7896 446.444 98.8812 446.559 98.9967C446.788 99.2275 446.917 99.5397 446.917 99.8651C446.917 100.19 446.788 100.503 446.559 100.733L416.394 130.936C416.274 131.054 416.132 131.147 415.975 131.209C415.818 131.27 415.65 131.299 415.482 131.293Z" fill="#E0E0E0"/>
<path d="M506.077 131.293H475.874C475.548 131.293 475.234 131.163 475.003 130.932C474.772 130.701 474.643 130.388 474.643 130.061V99.8221C474.643 99.4954 474.772 99.1821 475.003 98.9511C475.234 98.7201 475.548 98.5903 475.874 98.5903H506.077C506.403 98.5903 506.717 98.7201 506.948 98.9511C507.179 99.1821 507.308 99.4954 507.308 99.8221V130.012C507.315 130.178 507.288 130.343 507.229 130.499C507.17 130.654 507.081 130.795 506.966 130.915C506.85 131.035 506.712 131.13 506.56 131.195C506.407 131.26 506.243 131.293 506.077 131.293ZM477.106 128.83H504.845V101.054H477.106V128.83Z" fill="#E0E0E0"/>
<path d="M475.874 131.293C475.633 131.29 475.398 131.216 475.199 131.08C475 130.944 474.844 130.753 474.753 130.53C474.661 130.307 474.637 130.062 474.683 129.826C474.729 129.589 474.843 129.371 475.012 129.199L505.202 98.9967C505.317 98.8812 505.453 98.7896 505.603 98.7271C505.753 98.6645 505.914 98.6323 506.077 98.6323C506.239 98.6323 506.4 98.6645 506.55 98.7271C506.701 98.7896 506.837 98.8812 506.951 98.9967C507.181 99.2275 507.309 99.5397 507.309 99.8651C507.309 100.19 507.181 100.503 506.951 100.733L476.749 130.936C476.634 131.05 476.497 131.14 476.347 131.202C476.197 131.263 476.036 131.294 475.874 131.293Z" fill="#E0E0E0"/>
<path d="M294.697 131.293C294.535 131.294 294.374 131.263 294.224 131.202C294.074 131.14 293.938 131.05 293.823 130.936C293.593 130.705 293.464 130.393 293.464 130.067C293.464 129.742 293.593 129.43 293.823 129.199L324.013 98.9966C324.18 98.8206 324.401 98.7038 324.641 98.6641L475.64 68.4617C475.838 68.4221 476.043 68.4317 476.236 68.4897C476.429 68.5477 476.605 68.6523 476.749 68.7943L537.104 129.15C537.233 129.26 537.338 129.396 537.412 129.549C537.486 129.702 537.527 129.868 537.534 130.038C537.54 130.207 537.512 130.377 537.45 130.535C537.388 130.693 537.294 130.836 537.174 130.956C537.054 131.076 536.91 131.17 536.752 131.232C536.594 131.294 536.425 131.323 536.255 131.316C536.086 131.31 535.919 131.268 535.767 131.194C535.614 131.12 535.478 131.015 535.367 130.886L475.517 71.0114L325.503 101.054L295.559 130.985C295.322 131.195 295.013 131.305 294.697 131.293Z" fill="#E0E0E0"/>
<path d="M385.292 131.293C385.13 131.294 384.969 131.263 384.819 131.201C384.669 131.14 384.532 131.05 384.417 130.936C384.188 130.705 384.059 130.393 384.059 130.067C384.059 129.742 384.188 129.43 384.417 129.199L414.62 98.9966C414.855 98.7948 415.158 98.6894 415.468 98.7014C415.778 98.7133 416.072 98.8418 416.292 99.0612C416.511 99.2806 416.64 99.5746 416.652 99.8846C416.664 100.195 416.558 100.498 416.356 100.733L386.154 130.936C385.925 131.163 385.615 131.292 385.292 131.293Z" fill="#E0E0E0"/>
<path d="M385.292 131.293H355.09C354.763 131.293 354.45 131.163 354.219 130.932C353.988 130.701 353.858 130.388 353.858 130.061V99.8221C353.858 99.4954 353.988 99.1821 354.219 98.9511C354.45 98.7201 354.763 98.5903 355.09 98.5903H385.292C385.619 98.5903 385.932 98.7201 386.163 98.9511C386.394 99.1821 386.524 99.4954 386.524 99.8221V130.012C386.53 130.178 386.503 130.343 386.444 130.499C386.386 130.654 386.296 130.795 386.181 130.915C386.066 131.035 385.928 131.13 385.775 131.195C385.622 131.26 385.458 131.293 385.292 131.293ZM356.321 128.83H384.06V101.054H356.321V128.83Z" fill="#E0E0E0"/>
<path d="M355.09 131.293H324.887C324.561 131.293 324.247 131.163 324.016 130.932C323.785 130.701 323.656 130.388 323.656 130.061V99.8221C323.656 99.4954 323.785 99.1821 324.016 98.9511C324.247 98.7201 324.561 98.5903 324.887 98.5903H355.09C355.416 98.5903 355.73 98.7201 355.961 98.9511C356.192 99.1821 356.321 99.4954 356.321 99.8221V130.012C356.328 130.178 356.301 130.343 356.242 130.499C356.183 130.654 356.094 130.795 355.978 130.915C355.863 131.035 355.725 131.13 355.573 131.195C355.42 131.26 355.256 131.293 355.09 131.293ZM326.119 128.83H353.858V101.054H326.119V128.83Z" fill="#E0E0E0"/>
<path d="M355.09 131.293C354.928 131.294 354.767 131.263 354.617 131.201C354.467 131.14 354.33 131.05 354.215 130.936C353.986 130.705 353.857 130.393 353.857 130.067C353.857 129.742 353.986 129.43 354.215 129.199L384.368 98.9966C384.604 98.7948 384.907 98.6894 385.217 98.7014C385.527 98.7133 385.821 98.8418 386.04 99.0612C386.26 99.2806 386.388 99.5746 386.4 99.8846C386.412 100.195 386.307 100.498 386.105 100.733L355.915 130.936C355.695 131.155 355.4 131.282 355.09 131.293Z" fill="#E0E0E0"/>
<path d="M324.887 131.293C324.646 131.29 324.411 131.216 324.212 131.08C324.013 130.944 323.857 130.753 323.766 130.53C323.674 130.307 323.649 130.062 323.696 129.826C323.742 129.589 323.856 129.371 324.025 129.199L354.215 98.9967C354.33 98.8812 354.466 98.7896 354.616 98.7271C354.766 98.6645 354.927 98.6323 355.09 98.6323C355.252 98.6323 355.413 98.6645 355.563 98.7271C355.713 98.7896 355.85 98.8812 355.964 98.9967C356.194 99.2275 356.322 99.5397 356.322 99.8651C356.322 100.19 356.194 100.503 355.964 100.733L325.762 130.936C325.647 131.05 325.51 131.14 325.36 131.202C325.21 131.263 325.049 131.294 324.887 131.293Z" fill="#E0E0E0"/>
<path d="M324.887 131.293H294.697C294.37 131.293 294.057 131.163 293.826 130.932C293.595 130.701 293.465 130.388 293.465 130.061C293.465 129.735 293.595 129.421 293.826 129.19C294.057 128.959 294.37 128.83 294.697 128.83H323.655V99.8221C323.655 99.4954 323.785 99.1821 324.016 98.9511C324.247 98.7201 324.56 98.5903 324.887 98.5903C325.214 98.5903 325.527 98.7201 325.758 98.9511C325.989 99.1821 326.119 99.4954 326.119 99.8221V130.012C326.125 130.178 326.099 130.343 326.04 130.499C325.981 130.654 325.891 130.795 325.776 130.915C325.661 131.035 325.523 131.13 325.37 131.195C325.217 131.26 325.053 131.293 324.887 131.293Z" fill="#E0E0E0"/>
<path d="M475.874 232.173C475.551 232.171 475.242 232.043 475.012 231.816L444.81 201.625C444.695 201.511 444.604 201.374 444.542 201.224C444.479 201.074 444.448 200.913 444.448 200.751C444.448 200.589 444.479 200.428 444.542 200.278C444.604 200.128 444.695 199.991 444.81 199.876C444.925 199.762 445.061 199.67 445.211 199.608C445.361 199.546 445.522 199.514 445.684 199.514C445.847 199.514 446.008 199.546 446.158 199.608C446.308 199.67 446.444 199.762 446.559 199.876L476.749 230.079C476.978 230.31 477.107 230.622 477.107 230.947C477.107 231.273 476.978 231.585 476.749 231.816C476.634 231.93 476.497 232.02 476.347 232.081C476.197 232.143 476.036 232.174 475.874 232.173Z" fill="#E0E0E0"/>
<path d="M475.874 201.983H445.684C445.358 201.983 445.044 201.853 444.813 201.622C444.582 201.391 444.453 201.078 444.453 200.751V170.549C444.453 170.222 444.582 169.909 444.813 169.678C445.044 169.447 445.358 169.317 445.684 169.317H475.874C476.201 169.317 476.514 169.447 476.745 169.678C476.976 169.909 477.106 170.222 477.106 170.549V200.751C477.106 201.078 476.976 201.391 476.745 201.622C476.514 201.853 476.201 201.983 475.874 201.983ZM446.916 199.519H474.643V171.78H446.916V199.519Z" fill="#E0E0E0"/>
<path d="M475.874 171.78H445.684C445.358 171.78 445.044 171.651 444.813 171.42C444.582 171.189 444.453 170.875 444.453 170.549V140.359C444.453 140.032 444.582 139.719 444.813 139.488C445.044 139.257 445.358 139.127 445.684 139.127H475.874C476.201 139.127 476.514 139.257 476.745 139.488C476.976 139.719 477.106 140.032 477.106 140.359V170.549C477.106 170.875 476.976 171.189 476.745 171.42C476.514 171.651 476.201 171.78 475.874 171.78ZM446.916 169.317H474.643V141.59H446.916V169.317Z" fill="#E0E0E0"/>
<path d="M475.874 201.983C475.551 201.982 475.242 201.853 475.012 201.626L444.81 171.423C444.695 171.308 444.604 171.172 444.542 171.022C444.479 170.872 444.448 170.711 444.448 170.549C444.448 170.386 444.479 170.226 444.542 170.075C444.604 169.925 444.695 169.789 444.81 169.674C444.925 169.559 445.061 169.468 445.211 169.406C445.361 169.344 445.522 169.312 445.684 169.312C445.847 169.312 446.008 169.344 446.158 169.406C446.308 169.468 446.444 169.559 446.559 169.674L476.749 199.877C476.923 200.049 477.041 200.269 477.089 200.509C477.137 200.749 477.113 200.998 477.019 201.223C476.925 201.449 476.766 201.642 476.562 201.778C476.358 201.913 476.119 201.984 475.874 201.983Z" fill="#E0E0E0"/>
<path d="M475.874 171.781C475.551 171.779 475.242 171.651 475.012 171.423L444.81 141.221C444.58 140.99 444.452 140.678 444.452 140.353C444.452 140.027 444.58 139.715 444.81 139.484C444.924 139.369 445.061 139.277 445.211 139.215C445.361 139.152 445.522 139.12 445.684 139.12C445.847 139.12 446.008 139.152 446.158 139.215C446.308 139.277 446.444 139.369 446.559 139.484L476.749 169.674C476.923 169.847 477.041 170.067 477.089 170.307C477.137 170.546 477.113 170.795 477.019 171.021C476.925 171.247 476.766 171.44 476.562 171.575C476.359 171.71 476.119 171.782 475.874 171.781Z" fill="#E0E0E0"/>
<path d="M536.279 130.061H294.697L324.887 140.359H536.279V130.061Z" fill="#E0E0E0"/>
<path d="M536.279 141.59H324.887C324.752 141.59 324.619 141.565 324.493 141.517L294.291 131.231C294.01 131.14 293.772 130.95 293.62 130.698C293.468 130.445 293.411 130.146 293.46 129.856C293.509 129.565 293.661 129.301 293.888 129.113C294.115 128.925 294.402 128.824 294.697 128.83H536.279C536.606 128.83 536.919 128.959 537.15 129.19C537.381 129.421 537.511 129.735 537.511 130.061V140.359C537.511 140.685 537.381 140.999 537.15 141.23C536.919 141.461 536.606 141.59 536.279 141.59ZM325.097 139.127H535.047V131.293H302.125L325.097 139.127Z" fill="#E0E0E0"/>
<path d="M423.328 182.718H445.684V135.21H423.328V182.718Z" fill="#E0E0E0"/>
<path d="M423.316 135.21H412.92V182.718H423.316V135.21Z" fill="#F5F5F5"/>
<path d="M449.01 403.311H493.032V381.928H449.01V403.311Z" fill="#E0E0E0"/>
<path d="M449.01 381.94H428.526V403.323H449.01V381.94Z" fill="#F5F5F5"/>
<path d="M506.077 183.137C505.75 183.137 505.437 183.007 505.206 182.776C504.975 182.545 504.845 182.232 504.845 181.905V135.21C504.845 134.883 504.975 134.57 505.206 134.339C505.437 134.108 505.75 133.978 506.077 133.978C506.403 133.978 506.717 134.108 506.948 134.339C507.179 134.57 507.308 134.883 507.308 135.21V181.905C507.308 182.232 507.179 182.545 506.948 182.776C506.717 183.007 506.403 183.137 506.077 183.137Z" fill="#E0E0E0"/>
<path d="M506.077 188.803C505.273 188.803 504.487 188.565 503.818 188.118C503.15 187.671 502.629 187.037 502.321 186.294C502.014 185.551 501.933 184.734 502.09 183.945C502.247 183.157 502.634 182.433 503.203 181.864C503.771 181.296 504.495 180.909 505.284 180.752C506.072 180.595 506.889 180.675 507.632 180.983C508.375 181.291 509.01 181.812 509.456 182.48C509.903 183.149 510.141 183.934 510.141 184.738C510.141 185.272 510.036 185.801 509.832 186.294C509.628 186.787 509.328 187.235 508.951 187.613C508.574 187.99 508.125 188.289 507.632 188.494C507.139 188.698 506.611 188.803 506.077 188.803ZM506.077 183.137C505.76 183.137 505.45 183.231 505.187 183.407C504.924 183.583 504.719 183.833 504.597 184.126C504.476 184.418 504.444 184.74 504.506 185.051C504.568 185.361 504.721 185.647 504.944 185.871C505.168 186.095 505.454 186.247 505.764 186.309C506.075 186.371 506.397 186.339 506.69 186.218C506.982 186.097 507.232 185.891 507.408 185.628C507.584 185.365 507.678 185.055 507.678 184.738C507.678 184.528 507.637 184.32 507.556 184.126C507.476 183.931 507.358 183.755 507.209 183.606C507.06 183.457 506.884 183.339 506.69 183.259C506.495 183.178 506.287 183.137 506.077 183.137Z" fill="#E0E0E0"/>
<path d="M328.681 207.649C328.354 207.649 328.041 207.519 327.81 207.288C327.579 207.057 327.449 206.744 327.449 206.417V135.21C327.449 134.883 327.579 134.57 327.81 134.339C328.041 134.108 328.354 133.978 328.681 133.978C329.008 133.978 329.321 134.108 329.552 134.339C329.783 134.57 329.913 134.883 329.913 135.21V206.417C329.913 206.744 329.783 207.057 329.552 207.288C329.321 207.519 329.008 207.649 328.681 207.649Z" fill="#E0E0E0"/>
<path d="M340.247 215.027C339.954 215.031 339.668 214.931 339.442 214.743C339.217 214.556 339.065 214.294 339.015 214.005C338.104 212.576 330.085 207.846 328.619 207.649C327.24 207.834 319.221 212.576 318.31 214.005C318.282 214.331 318.126 214.634 317.875 214.845C317.624 215.056 317.3 215.16 316.973 215.132C316.647 215.104 316.344 214.948 316.133 214.697C315.922 214.446 315.818 214.122 315.846 213.795C315.846 211.024 327.018 205.173 328.632 205.173C330.245 205.173 341.43 211.012 341.43 213.795C341.43 214.114 341.307 214.42 341.086 214.649C340.866 214.879 340.565 215.014 340.247 215.027Z" fill="#E0E0E0"/>
<path d="M353.575 304.057L371.644 285.988L367.789 278.597C368.122 277.858 368.429 277.119 368.713 276.356L376.633 273.892V248.37L368.713 245.907C368.417 245.155 368.122 244.404 367.789 243.665L371.632 236.275L353.575 218.242L346.184 222.085C345.445 221.752 344.706 221.444 343.955 221.161L341.491 213.241H315.908L313.444 221.161C312.693 221.444 311.954 221.752 311.215 222.085L303.825 218.242L285.829 236.299L289.684 243.69C289.339 244.429 289.044 245.18 288.748 245.931L280.828 248.395V273.941L288.748 276.405C289.044 277.168 289.339 277.907 289.672 278.647L285.829 286.037L303.898 304.107L311.289 300.251C312.028 300.584 312.779 300.892 313.531 301.175L315.994 309.095H341.553L344.016 301.175C344.768 300.892 345.507 300.584 346.246 300.251L353.575 304.057ZM342.181 274.582C339.522 277.242 336.133 279.055 332.444 279.789C328.754 280.524 324.93 280.148 321.454 278.709C317.978 277.27 315.008 274.832 312.917 271.704C310.827 268.576 309.712 264.899 309.712 261.137C309.712 257.375 310.827 253.698 312.917 250.57C315.008 247.443 317.978 245.005 321.454 243.566C324.93 242.127 328.754 241.751 332.444 242.485C336.133 243.22 339.522 245.032 342.181 247.693C343.946 249.46 345.344 251.558 346.297 253.867C347.25 256.176 347.738 258.65 347.734 261.148C347.729 263.645 347.232 266.117 346.271 268.423C345.309 270.728 343.903 272.821 342.132 274.582H342.181Z" fill="#E0E0E0"/>
<path d="M308 458.949C439.898 458.949 546.823 452.706 546.823 445.006C546.823 437.305 439.898 431.062 308 431.062C176.102 431.062 69.1772 437.305 69.1772 445.006C69.1772 452.706 176.102 458.949 308 458.949Z" fill="#F5F5F5"/>
<path d="M216.716 133.264H201.343C200.641 133.264 199.95 133.449 199.341 133.799C198.732 134.149 198.224 134.652 197.87 135.259L190.184 148.574C189.833 149.185 189.648 149.877 189.648 150.582C189.648 151.287 189.833 151.979 190.184 152.59L197.87 165.893C198.221 166.503 198.727 167.01 199.337 167.363C199.947 167.716 200.639 167.901 201.343 167.9H216.716C217.42 167.901 218.112 167.716 218.722 167.363C219.332 167.01 219.838 166.503 220.189 165.893L227.875 152.59C228.226 151.979 228.411 151.287 228.411 150.582C228.411 149.877 228.226 149.185 227.875 148.574L220.189 135.259C219.834 134.652 219.327 134.149 218.718 133.799C218.109 133.449 217.418 133.264 216.716 133.264Z" fill="#407BFF"/>
<path opacity="0.5" d="M216.716 133.264H201.343C200.641 133.264 199.95 133.449 199.341 133.799C198.732 134.149 198.224 134.652 197.87 135.259L190.184 148.574C189.833 149.185 189.648 149.877 189.648 150.582C189.648 151.287 189.833 151.979 190.184 152.59L197.87 165.893C198.221 166.503 198.727 167.01 199.337 167.363C199.947 167.716 200.639 167.901 201.343 167.9H216.716C217.42 167.901 218.112 167.716 218.722 167.363C219.332 167.01 219.838 166.503 220.189 165.893L227.875 152.59C228.226 151.979 228.411 151.287 228.411 150.582C228.411 149.877 228.226 149.185 227.875 148.574L220.189 135.259C219.834 134.652 219.327 134.149 218.718 133.799C218.109 133.449 217.418 133.264 216.716 133.264Z" fill="white"/>
<path d="M118.312 89.1427L117.437 88.2681L124.827 80.8777L125.702 81.7522L118.312 89.1427ZM131.035 76.4187L130.161 75.5442L145.607 60.0981L146.482 60.9604L131.035 76.4187Z" fill="#407BFF"/>
<path opacity="0.5" d="M118.312 89.1427L117.437 88.2681L124.827 80.8777L125.702 81.7522L118.312 89.1427ZM131.035 76.4187L130.161 75.5442L145.607 60.0981L146.482 60.9604L131.035 76.4187Z" fill="white"/>
<path d="M313.543 178.456V122.708L296.299 117.3C295.683 115.65 295.005 114.024 294.291 112.373L302.679 96.3607L263.263 56.9449L247.251 65.3454C245.637 64.6187 244.023 63.9412 242.324 63.313L236.916 46.0686H181.131L175.735 63.313C174.073 63.9412 172.459 64.6187 170.809 65.3454L154.796 56.9449L115.38 96.3607L123.781 112.373C123.054 113.987 122.376 115.601 121.761 117.3L104.516 122.708V178.456L121.761 183.851C122.389 185.502 123.066 187.128 123.781 188.778L115.38 204.791L154.796 244.207L170.809 235.806C172.41 236.533 174.023 237.211 175.735 237.839L181.131 255.083H236.879L242.287 237.839C243.937 237.211 245.551 236.533 247.214 235.806L263.226 244.207L302.642 204.791L294.242 188.778C294.956 187.177 295.646 185.551 296.262 183.851L313.543 178.456ZM250.515 150.57C250.515 158.775 248.082 166.795 243.523 173.618C238.965 180.44 232.486 185.757 224.905 188.897C217.325 192.037 208.984 192.858 200.936 191.258C192.889 189.657 185.497 185.706 179.695 179.904C173.893 174.102 169.942 166.71 168.342 158.663C166.741 150.616 167.562 142.274 170.702 134.694C173.842 127.114 179.159 120.635 185.982 116.076C192.804 111.518 200.825 109.085 209.03 109.085C220.031 109.088 230.581 113.46 238.36 121.239C246.14 129.018 250.511 139.568 250.515 150.57Z" fill="#407BFF"/>
<path opacity="0.5" d="M313.543 178.456V122.708L296.299 117.3C295.683 115.65 295.005 114.024 294.291 112.373L302.679 96.3607L263.263 56.9449L247.251 65.3454C245.637 64.6187 244.023 63.9412 242.324 63.313L236.916 46.0686H181.131L175.735 63.313C174.073 63.9412 172.459 64.6187 170.809 65.3454L154.796 56.9449L115.38 96.3607L123.781 112.373C123.054 113.987 122.376 115.601 121.761 117.3L104.516 122.708V178.456L121.761 183.851C122.389 185.502 123.066 187.128 123.781 188.778L115.38 204.791L154.796 244.207L170.809 235.806C172.41 236.533 174.023 237.211 175.735 237.839L181.131 255.083H236.879L242.287 237.839C243.937 237.211 245.551 236.533 247.214 235.806L263.226 244.207L302.642 204.791L294.242 188.778C294.956 187.177 295.646 185.551 296.262 183.851L313.543 178.456ZM250.515 150.57C250.515 158.775 248.082 166.795 243.523 173.618C238.965 180.44 232.486 185.757 224.905 188.897C217.325 192.037 208.984 192.858 200.936 191.258C192.889 189.657 185.497 185.706 179.695 179.904C173.893 174.102 169.942 166.71 168.342 158.663C166.741 150.616 167.562 142.274 170.702 134.694C173.842 127.114 179.159 120.635 185.982 116.076C192.804 111.518 200.825 109.085 209.03 109.085C220.031 109.088 230.581 113.46 238.36 121.239C246.14 129.018 250.511 139.568 250.515 150.57Z" fill="white"/>
<path d="M234.194 251.708H183.877C183.811 251.708 183.746 251.686 183.693 251.647C183.639 251.607 183.6 251.55 183.582 251.486L178.655 235.942C178.63 235.863 178.638 235.778 178.676 235.706C178.714 235.633 178.78 235.578 178.858 235.554C178.936 235.529 179.021 235.537 179.094 235.575C179.167 235.613 179.222 235.679 179.246 235.757L184.038 251.092H233.899L239.023 234.907C239.037 234.863 239.061 234.822 239.093 234.788C239.125 234.754 239.164 234.727 239.207 234.71L240.895 234.082C242.324 233.54 243.839 232.912 245.551 232.148L247.189 231.409C247.264 231.376 247.349 231.375 247.425 231.405C247.502 231.435 247.563 231.494 247.596 231.569C247.628 231.644 247.63 231.729 247.6 231.805C247.57 231.882 247.511 231.943 247.435 231.976L245.797 232.702C244.085 233.478 242.545 234.106 241.117 234.648L239.565 235.24L234.49 251.486C234.469 251.549 234.43 251.604 234.377 251.644C234.324 251.684 234.26 251.706 234.194 251.708ZM262.524 239.97C262.443 239.967 262.364 239.937 262.303 239.883C262.273 239.855 262.249 239.82 262.233 239.782C262.217 239.744 262.208 239.703 262.208 239.662C262.208 239.62 262.217 239.579 262.233 239.541C262.249 239.503 262.273 239.469 262.303 239.44L297.727 204.027L289.857 189C289.835 188.958 289.824 188.912 289.824 188.865C289.824 188.817 289.835 188.771 289.857 188.729L290.596 187.091C291.335 185.428 291.963 183.901 292.517 182.447L293.145 180.76C293.163 180.716 293.189 180.677 293.223 180.646C293.258 180.614 293.298 180.589 293.342 180.575L309.54 175.512V125.688L293.527 120.688C293.483 120.681 293.441 120.665 293.403 120.641C293.366 120.616 293.334 120.584 293.311 120.546C293.287 120.508 293.272 120.465 293.266 120.421C293.261 120.377 293.265 120.332 293.279 120.289C293.292 120.247 293.315 120.208 293.345 120.175C293.375 120.142 293.412 120.116 293.453 120.099C293.495 120.081 293.539 120.073 293.584 120.075C293.628 120.077 293.672 120.088 293.712 120.109L309.897 125.159C309.958 125.181 310.01 125.221 310.048 125.274C310.085 125.327 310.106 125.39 310.106 125.454V175.771C310.107 175.836 310.087 175.9 310.05 175.953C310.012 176.006 309.959 176.046 309.897 176.067L293.675 181.117L293.096 182.669C292.542 184.135 291.864 185.662 291.15 187.35L290.485 188.852L298.38 203.941C298.419 203.992 298.44 204.055 298.44 204.12C298.44 204.184 298.419 204.247 298.38 204.298L262.808 239.883C262.732 239.946 262.635 239.977 262.537 239.97H262.524ZM155.523 239.97C155.441 239.967 155.363 239.937 155.301 239.883L119.728 204.298C119.693 204.245 119.674 204.183 119.674 204.12C119.674 204.056 119.693 203.994 119.728 203.941L127.698 188.717C127.737 188.645 127.802 188.591 127.88 188.566C127.958 188.54 128.043 188.546 128.116 188.581C128.152 188.601 128.184 188.627 128.209 188.658C128.235 188.69 128.254 188.726 128.265 188.765C128.276 188.804 128.28 188.845 128.276 188.885C128.271 188.925 128.259 188.964 128.24 189L120.381 204.027L155.794 239.44C155.823 239.469 155.847 239.503 155.863 239.541C155.88 239.579 155.888 239.62 155.888 239.662C155.888 239.703 155.88 239.744 155.863 239.782C155.847 239.82 155.823 239.855 155.794 239.883C155.759 239.915 155.718 239.938 155.673 239.953C155.629 239.968 155.582 239.974 155.535 239.97H155.523ZM176.462 234.439H176.351C175.12 233.959 173.777 233.392 172.287 232.727C172.243 232.716 172.202 232.696 172.167 232.667C172.132 232.639 172.104 232.604 172.084 232.563C172.065 232.523 172.054 232.479 172.053 232.434C172.052 232.389 172.062 232.344 172.08 232.303C172.098 232.262 172.125 232.225 172.159 232.196C172.193 232.166 172.233 232.145 172.276 232.132C172.319 232.12 172.365 232.117 172.409 232.124C172.453 232.131 172.496 232.148 172.533 232.173C174.011 232.825 175.329 233.404 176.573 233.86C176.612 233.875 176.647 233.897 176.676 233.926C176.706 233.955 176.729 233.989 176.745 234.027C176.761 234.065 176.77 234.106 176.77 234.147C176.77 234.188 176.762 234.229 176.746 234.267C176.72 234.325 176.676 234.373 176.62 234.404C176.565 234.435 176.501 234.447 176.438 234.439H176.462ZM209.054 196.083C196.982 196.06 185.412 191.248 176.884 182.704C168.356 174.159 163.566 162.58 163.566 150.508C163.566 150.426 163.598 150.348 163.656 150.29C163.714 150.233 163.792 150.2 163.874 150.2C163.956 150.2 164.034 150.233 164.092 150.29C164.149 150.348 164.182 150.426 164.182 150.508C164.182 159.383 166.814 168.059 171.744 175.438C176.675 182.817 183.683 188.568 191.882 191.965C200.082 195.361 209.104 196.25 217.808 194.518C226.513 192.787 234.508 188.513 240.784 182.238C247.059 175.962 251.333 167.967 253.064 159.262C254.796 150.558 253.907 141.535 250.511 133.336C247.115 125.137 241.363 118.129 233.984 113.198C226.605 108.267 217.929 105.636 209.054 105.636C208.973 105.636 208.894 105.603 208.837 105.545C208.779 105.488 208.746 105.409 208.746 105.328C208.746 105.246 208.779 105.168 208.837 105.11C208.894 105.052 208.973 105.02 209.054 105.02C221.122 105.02 232.695 109.814 241.228 118.347C249.761 126.88 254.555 138.453 254.555 150.52C254.555 162.588 249.761 174.161 241.228 182.694C232.695 191.227 221.122 196.021 209.054 196.021V196.083ZM125.296 182.866C125.231 182.863 125.169 182.842 125.117 182.805C125.064 182.768 125.024 182.716 125 182.657L124.421 181.117L108.15 176.03C108.088 176.009 108.035 175.969 107.997 175.916C107.959 175.863 107.94 175.799 107.94 175.734V125.417C107.941 125.353 107.962 125.29 107.999 125.237C108.037 125.184 108.089 125.144 108.15 125.122L123.707 120.269C123.785 120.245 123.87 120.252 123.943 120.289C124.016 120.325 124.073 120.389 124.101 120.466C124.121 120.546 124.111 120.63 124.072 120.703C124.033 120.776 123.969 120.832 123.892 120.86L108.519 125.688V175.549L124.717 180.612C124.76 180.626 124.8 180.65 124.832 180.682C124.864 180.714 124.888 180.753 124.902 180.797L125.542 182.484C125.57 182.559 125.568 182.643 125.536 182.716C125.504 182.79 125.444 182.848 125.37 182.878L125.296 182.866ZM125.296 118.815H125.185C125.109 118.783 125.049 118.722 125.017 118.647C124.985 118.571 124.984 118.486 125.012 118.409C125.604 116.832 126.244 115.329 126.922 113.802C126.956 113.729 127.018 113.672 127.095 113.645C127.171 113.617 127.255 113.621 127.328 113.654C127.365 113.67 127.399 113.694 127.427 113.723C127.456 113.752 127.478 113.786 127.493 113.824C127.508 113.862 127.515 113.902 127.514 113.943C127.513 113.984 127.505 114.024 127.488 114.061C126.798 115.563 126.183 117.066 125.591 118.631C125.57 118.698 125.527 118.756 125.469 118.796C125.411 118.836 125.341 118.856 125.271 118.852L125.296 118.815ZM290.583 111.782H290.436C290.4 111.763 290.368 111.737 290.343 111.705C290.317 111.673 290.298 111.637 290.287 111.598C290.275 111.559 290.272 111.519 290.276 111.478C290.281 111.438 290.293 111.399 290.312 111.363L297.703 97.1366L291.79 91.1996C291.755 91.1731 291.726 91.1394 291.705 91.1007C291.684 91.0619 291.671 91.0191 291.668 90.9751C291.665 90.9311 291.671 90.8869 291.687 90.8456C291.702 90.8043 291.726 90.7667 291.757 90.7355C291.789 90.7043 291.826 90.6802 291.868 90.6648C291.909 90.6493 291.953 90.643 291.997 90.6461C292.041 90.6492 292.084 90.6618 292.123 90.6829C292.161 90.704 292.195 90.7332 292.222 90.7685L298.38 96.9272C298.419 96.9786 298.44 97.0413 298.44 97.1058C298.44 97.1703 298.419 97.233 298.38 97.2844L290.83 111.708C290.797 111.748 290.756 111.778 290.708 111.798C290.661 111.817 290.61 111.824 290.559 111.819L290.583 111.782ZM119.95 97.3583C119.868 97.3591 119.788 97.3282 119.728 97.2721C119.675 97.2131 119.645 97.1363 119.645 97.0566C119.645 96.9768 119.675 96.9 119.728 96.841L155.264 61.2806C155.315 61.2396 155.378 61.2172 155.443 61.2172C155.508 61.2172 155.571 61.2396 155.621 61.2806L170.71 69.176L172.213 68.5109C173.666 67.8581 174.997 67.2792 176.278 66.7988C176.316 66.7828 176.356 66.7746 176.397 66.7747C176.439 66.7748 176.479 66.7831 176.517 66.7992C176.555 66.8152 176.589 66.8387 176.618 66.8683C176.647 66.8978 176.669 66.9328 176.684 66.9712C176.712 67.048 176.708 67.1326 176.673 67.2065C176.639 67.2805 176.576 67.3376 176.499 67.3654C175.268 67.8704 173.913 68.4247 172.471 69.0652L170.833 69.8042C170.79 69.8225 170.744 69.832 170.698 69.832C170.651 69.832 170.605 69.8225 170.562 69.8042L155.535 61.9334L120.172 97.3583C120.101 97.3871 120.021 97.3871 119.95 97.3583ZM286.876 86.1248C286.794 86.1256 286.714 86.0947 286.654 86.0386L262.426 61.8718L247.398 69.7426C247.359 69.7642 247.314 69.7755 247.269 69.7755C247.224 69.7755 247.179 69.7642 247.14 69.7426L245.502 69.0036C243.814 68.2522 242.287 67.6241 240.846 67.0698L239.158 66.4416C239.115 66.4242 239.076 66.3975 239.044 66.3635C239.012 66.3294 238.988 66.2888 238.973 66.2445L233.911 50.0594H184.099L179.739 63.9904C179.728 64.0291 179.709 64.065 179.683 64.0961C179.658 64.1272 179.626 64.1527 179.59 64.1712C179.555 64.1896 179.515 64.2006 179.475 64.2034C179.435 64.2062 179.395 64.2008 179.357 64.1875C179.281 64.1621 179.218 64.1079 179.181 64.0366C179.144 63.9653 179.136 63.8824 179.16 63.8056L183.594 49.6652C183.615 49.6036 183.655 49.5501 183.708 49.5125C183.761 49.4748 183.825 49.455 183.89 49.4558H234.206C234.271 49.4568 234.334 49.4773 234.387 49.5147C234.439 49.5521 234.48 49.6046 234.502 49.6652L239.577 65.9242L241.129 66.5155C242.582 67.0574 244.11 67.7472 245.809 68.4616L247.312 69.1268L262.426 61.2313C262.477 61.1923 262.54 61.1712 262.604 61.1712C262.669 61.1712 262.732 61.1923 262.783 61.2313L287.061 85.6198C287.09 85.6485 287.114 85.683 287.13 85.7211C287.146 85.7592 287.155 85.8001 287.155 85.8415C287.155 85.8829 287.146 85.9239 287.13 85.962C287.114 86.0001 287.09 86.0345 287.061 86.0632C287.01 86.1113 286.945 86.1416 286.876 86.1495V86.1248Z" fill="#FAFAFA"/>
<path d="M386.019 160.658C389.874 165.585 393.483 170.512 397.006 175.599C400.529 180.686 403.879 185.884 407.044 191.303C407.845 192.646 408.609 194.05 409.385 195.43C410.505 197.52 411.164 199.826 411.319 202.192C411.52 205.784 411.171 209.385 410.284 212.871C408.751 219.14 406.425 225.187 403.362 230.867L397.018 228.404C398.277 222.717 399.187 216.958 399.74 211.159C399.986 208.655 399.903 206.129 399.494 203.646C399.393 202.956 399.136 202.299 398.743 201.724C397.93 200.492 397.141 199.261 396.279 198.029C392.941 193.102 389.406 188.286 385.846 183.445L375.142 168.935L386.019 160.658Z" fill="#FF8B7B"/>
<path d="M396.575 227.689L393.298 233.552L404.729 235.24C404.729 235.24 405.961 230.313 403.091 226.913L396.575 227.689Z" fill="#FF8B7B"/>
<path d="M391.574 241.349L401.095 242.31L404.729 235.24L393.298 233.552L391.574 241.349Z" fill="#FF8B7B"/>
<path d="M422.552 276.331L425.952 258.236C426.347 256.137 427.558 254.28 429.319 253.073C431.081 251.865 433.25 251.405 435.35 251.794L463.89 257.14C462.187 251.438 459.159 246.22 455.053 241.912C450.948 237.605 445.881 234.329 440.268 232.355C434.654 230.38 428.653 229.761 422.755 230.549C416.856 231.338 411.228 233.511 406.33 236.89L276.849 160.251C277.522 152.148 275.558 144.045 271.251 137.149C266.943 130.254 260.523 124.934 252.946 121.985C245.369 119.035 237.042 118.612 229.206 120.78C221.37 122.948 214.444 127.59 209.461 134.015L238 139.361C240.096 139.764 241.948 140.98 243.153 142.742C244.357 144.505 244.816 146.672 244.43 148.771L241.03 166.878C240.632 168.976 239.421 170.83 237.66 172.037C235.899 173.245 233.732 173.706 231.632 173.32L203.093 167.962C204.803 173.699 207.854 178.946 211.993 183.27C216.133 187.594 221.242 190.87 226.899 192.829C232.556 194.787 238.598 195.371 244.525 194.531C250.452 193.692 256.094 191.454 260.984 188.002L390.207 264.494C389.461 272.614 391.368 280.756 395.64 287.702C399.912 294.647 406.32 300.021 413.904 303.018C421.487 306.014 429.837 306.473 437.703 304.324C445.569 302.175 452.527 297.535 457.534 291.099L428.994 285.741C426.896 285.341 425.041 284.126 423.834 282.364C422.627 280.601 422.166 278.432 422.552 276.331Z" fill="#407BFF"/>
<path d="M390.304 236.425L285.322 174.289C283.413 173.16 280.951 173.791 279.821 175.699L275.542 182.929C274.413 184.837 275.044 187.3 276.953 188.429L381.934 250.565C383.843 251.695 386.306 251.063 387.435 249.155L391.714 241.926C392.843 240.017 392.212 237.554 390.304 236.425Z" fill="#407BFF"/>
<path opacity="0.2" d="M390.304 236.425L285.322 174.289C283.413 173.16 280.951 173.791 279.821 175.699L275.542 182.929C274.413 184.837 275.044 187.3 276.953 188.429L381.934 250.565C383.843 251.695 386.306 251.063 387.435 249.155L391.714 241.926C392.843 240.017 392.212 237.554 390.304 236.425Z" fill="white"/>
<path d="M342.169 122.375C342.046 123.102 341.578 123.607 341.109 123.607C340.641 123.607 340.346 122.88 340.457 122.166C340.568 121.451 341.048 120.934 341.516 120.996C341.984 121.057 342.28 121.661 342.169 122.375Z" fill="#263238"/>
<path d="M341.639 123.632C340.434 125.701 338.95 127.595 337.229 129.261C337.665 129.697 338.19 130.034 338.769 130.247C339.347 130.459 339.965 130.543 340.58 130.492L341.639 123.632Z" fill="#FF5652"/>
<path d="M345.408 118.791C345.353 118.791 345.299 118.781 345.248 118.76C345.197 118.738 345.151 118.707 345.113 118.668C344.742 118.278 344.284 117.982 343.776 117.804C343.269 117.626 342.726 117.572 342.193 117.645C342.138 117.658 342.08 117.659 342.023 117.65C341.967 117.64 341.913 117.619 341.865 117.588C341.817 117.557 341.775 117.516 341.743 117.469C341.71 117.422 341.688 117.369 341.676 117.313C341.663 117.258 341.662 117.201 341.672 117.145C341.682 117.09 341.704 117.037 341.735 116.989C341.766 116.942 341.806 116.902 341.853 116.871C341.9 116.839 341.953 116.818 342.009 116.808C342.678 116.702 343.363 116.758 344.007 116.972C344.65 117.187 345.232 117.553 345.704 118.04C345.781 118.124 345.824 118.233 345.824 118.347C345.824 118.461 345.781 118.571 345.704 118.655C345.624 118.734 345.519 118.781 345.408 118.791Z" fill="#263238"/>
<path d="M366.225 130.32C364.993 136.947 363.638 149.079 368.269 153.489C368.269 153.489 366.459 160.202 354.154 160.202C340.604 160.202 347.687 153.489 347.687 153.489C355.077 151.728 354.88 146.246 353.599 141.171L366.225 130.32Z" fill="#FF8B7B"/>
<path d="M374.514 158.465C374.364 158.247 374.252 158.006 374.182 157.751C373.147 153.822 368.799 150.755 363.158 150.594C357.208 150.447 350.495 151.161 346.529 154.437C344.78 155.879 346.714 157.985 346.714 157.985L374.514 158.465Z" fill="#407BFF"/>
<path opacity="0.5" d="M374.514 158.465C374.364 158.247 374.252 158.006 374.182 157.751C373.147 153.822 368.799 150.755 363.158 150.594C357.208 150.447 350.495 151.161 346.529 154.437C344.78 155.879 346.714 157.985 346.714 157.985L374.514 158.465Z" fill="white"/>
<path d="M418.007 406.317H417.921C417.74 406.292 417.571 406.21 417.438 406.084C417.306 405.959 417.216 405.794 417.182 405.615C417.139 405.475 417.126 405.328 417.145 405.184C417.165 405.039 417.215 404.9 417.293 404.777C417.982 403.607 420.988 402.991 421.074 402.966C421.115 402.958 421.158 402.962 421.198 402.977C421.237 402.993 421.271 403.019 421.296 403.053C421.316 403.088 421.327 403.129 421.327 403.17C421.327 403.211 421.316 403.251 421.296 403.287C420.84 404.063 419.153 406.317 418.007 406.317ZM420.655 403.496C419.67 403.755 418.069 404.284 417.662 404.986C417.623 405.061 417.603 405.143 417.603 405.227C417.603 405.31 417.623 405.393 417.662 405.467C417.773 405.849 417.97 405.873 418.019 405.886C418.574 405.96 419.879 404.629 420.655 403.496Z" fill="#407BFF"/>
<path d="M419.645 403.545C418.524 403.545 417.268 403.336 416.886 402.794C416.796 402.659 416.755 402.499 416.768 402.337C416.782 402.176 416.849 402.025 416.96 401.907C417.06 401.778 417.184 401.671 417.326 401.59C417.467 401.51 417.624 401.458 417.785 401.439C419.14 401.291 421.173 402.929 421.259 403.003C421.29 403.027 421.314 403.059 421.328 403.096C421.342 403.133 421.345 403.173 421.338 403.211C421.33 403.25 421.311 403.285 421.284 403.314C421.257 403.342 421.223 403.363 421.185 403.373C420.682 403.5 420.164 403.558 419.645 403.545ZM417.995 401.858H417.835C417.73 401.864 417.628 401.894 417.536 401.945C417.444 401.996 417.365 402.068 417.305 402.153C417.132 402.375 417.206 402.486 417.243 402.523C417.588 403.028 419.473 403.225 420.618 403.04C419.859 402.428 418.956 402.021 417.995 401.858Z" fill="#407BFF"/>
<path d="M328.546 436.223C327.388 436.223 326.267 436.063 325.885 435.546C325.789 435.409 325.737 435.246 325.737 435.078C325.737 434.91 325.789 434.747 325.885 434.61C325.96 434.484 326.06 434.374 326.179 434.287C326.297 434.201 326.432 434.139 326.575 434.105C328.078 433.698 331.243 435.497 331.379 435.583C331.416 435.605 331.446 435.638 331.463 435.678C331.481 435.718 331.486 435.762 331.477 435.805C331.468 435.847 331.447 435.886 331.417 435.917C331.386 435.947 331.347 435.968 331.305 435.977C330.394 436.137 329.471 436.219 328.546 436.223ZM327.105 434.474C326.97 434.455 326.833 434.455 326.698 434.474C326.611 434.491 326.529 434.527 326.457 434.578C326.385 434.628 326.324 434.694 326.279 434.77C326.119 435.041 326.181 435.176 326.279 435.25C326.698 435.829 328.989 435.842 330.677 435.608C329.571 435.001 328.358 434.616 327.105 434.474Z" fill="#407BFF"/>
<path d="M331.28 435.977H331.194C330.098 435.484 327.93 433.514 328.102 432.504C328.102 432.257 328.312 431.962 328.903 431.9C329.123 431.873 329.345 431.892 329.557 431.956C329.769 432.019 329.966 432.126 330.135 432.27C331.292 433.218 331.526 435.657 331.539 435.755C331.544 435.793 331.538 435.831 331.523 435.866C331.508 435.901 331.483 435.931 331.453 435.952C331.4 435.983 331.339 435.991 331.28 435.977ZM329.075 432.282H328.94C328.558 432.282 328.533 432.467 328.521 432.516C328.422 433.132 329.901 434.671 330.985 435.337C330.872 434.304 330.441 433.331 329.753 432.553C329.56 432.399 329.322 432.313 329.075 432.306V432.282Z" fill="#407BFF"/>
<path d="M341.233 435.768H332.179L331.28 414.816H340.333L341.233 435.768Z" fill="#FF8B7B"/>
<path d="M429.216 396.734L421.875 402.03L404.556 388.678L411.898 383.394L429.216 396.734Z" fill="#FF8B7B"/>
<path d="M420.828 401.956L427.873 394.566C427.996 394.436 428.161 394.354 428.338 394.331C428.515 394.309 428.695 394.348 428.846 394.443L435.892 398.717C436.061 398.824 436.203 398.967 436.31 399.135C436.416 399.304 436.484 399.495 436.508 399.693C436.531 399.891 436.51 400.092 436.446 400.281C436.382 400.47 436.277 400.643 436.138 400.786C433.675 403.311 432.283 404.408 429.191 407.635C427.282 409.618 422.109 416.589 419.473 419.336C416.837 422.083 413.794 419.829 414.62 418.474C418.315 412.389 420.113 406.354 420.212 403.348C420.248 402.826 420.466 402.334 420.828 401.956Z" fill="#263238"/>
<path d="M332.241 434.721H342.095C342.275 434.719 342.45 434.779 342.592 434.892C342.733 435.004 342.831 435.161 342.871 435.337L344.657 443.38C344.7 443.574 344.698 443.775 344.652 443.968C344.606 444.162 344.517 444.342 344.391 444.496C344.266 444.65 344.107 444.774 343.927 444.858C343.747 444.942 343.55 444.984 343.351 444.981C339.791 444.981 334.643 444.722 330.159 444.722C324.912 444.722 320.391 445.006 314.245 445.006C310.55 445.006 309.503 441.249 311.055 440.904C318.137 439.364 323.914 439.192 330.036 435.423C330.691 434.987 331.455 434.744 332.241 434.721Z" fill="#263238"/>
<path d="M373.356 172.593C374.588 174.872 375.98 177.077 377.323 179.134C379.638 182.694 381.88 185.773 383.481 187.892C384.922 189.801 385.846 190.922 385.846 190.922L404.076 178.493C404.076 178.493 392.99 156.913 384.454 155.534C375.672 154.142 367.629 162.37 373.356 172.593Z" fill="#407BFF"/>
<path opacity="0.5" d="M373.356 172.593C374.588 174.872 375.98 177.077 377.323 179.134C379.638 182.694 381.88 185.773 383.481 187.892C384.922 189.801 385.846 190.922 385.846 190.922L404.076 178.493C404.076 178.493 392.99 156.913 384.454 155.534C375.672 154.142 367.629 162.37 373.356 172.593Z" fill="black"/>
<path d="M377.323 179.134C379.638 182.694 381.88 185.773 383.481 187.892C383.296 183.654 382.422 176.806 379.133 171.583C377.938 172.766 377.458 175.82 377.323 179.134Z" fill="#407BFF"/>
<path opacity="0.6" d="M377.323 179.134C379.638 182.694 381.88 185.773 383.481 187.892C383.296 183.654 382.422 176.806 379.133 171.583C377.938 172.766 377.458 175.82 377.323 179.134Z" fill="black"/>
<path d="M329.322 185.502C329.322 188.581 329.395 191.969 329.568 195.701C330.011 205.85 331.12 218.5 333.263 234.217H381.658C381.991 226.827 377.323 190.54 384.491 155.534C379.138 154.504 373.723 153.821 368.282 153.489C361.431 153.095 354.563 153.095 347.711 153.489C343.016 153.953 338.363 154.777 333.793 155.952C333.793 155.952 329.309 161.04 329.322 185.502Z" fill="#407BFF"/>
<path opacity="0.5" d="M329.322 185.502C329.322 188.581 329.395 191.969 329.568 195.701C330.011 205.85 331.12 218.5 333.263 234.217H381.658C381.991 226.827 377.323 190.54 384.491 155.534C379.138 154.504 373.723 153.821 368.282 153.489C361.431 153.095 354.563 153.095 347.711 153.489C343.016 153.953 338.363 154.777 333.793 155.952C333.793 155.952 329.309 161.04 329.322 185.502Z" fill="black"/>
<path d="M329.322 185.502C329.322 188.581 329.395 191.969 329.568 195.701C335.246 190.158 335.628 178.838 335.628 178.838L329.322 185.502Z" fill="#407BFF"/>
<path opacity="0.6" d="M329.322 185.502C329.322 188.581 329.395 191.969 329.568 195.701C335.246 190.158 335.628 178.838 335.628 178.838L329.322 185.502Z" fill="black"/>
<path d="M339.41 171.448C338.479 173.006 337.45 174.503 336.33 175.931C335.308 177.262 334.286 178.518 333.239 179.762C331.157 182.226 328.927 184.603 326.661 186.906C322.018 191.621 316.876 195.817 311.326 199.421C309.832 200.355 308.29 201.211 306.707 201.983L306.079 202.278L305.771 202.426L305.389 202.586C304.781 202.844 304.155 203.058 303.517 203.227L302.617 203.461L301.755 203.609C301.205 203.704 300.65 203.766 300.092 203.794C296.385 203.916 292.684 203.395 289.155 202.254C282.915 200.313 276.969 197.532 271.479 193.989L274.398 187.83C280 189.507 285.707 190.807 291.483 191.722C293.926 192.133 296.419 192.166 298.873 191.821C299.083 191.787 299.289 191.733 299.489 191.661L299.76 191.587L299.957 191.501C300.117 191.501 300.154 191.378 300.253 191.341L300.992 190.909C302.126 190.25 303.223 189.531 304.28 188.754C308.826 185.334 313.052 181.508 316.906 177.323C318.913 175.217 320.847 173.012 322.732 170.82C323.668 169.711 324.579 168.603 325.429 167.482C326.279 166.361 327.154 165.215 327.659 164.427L339.41 171.448Z" fill="#FF8B7B"/>
<path d="M275.728 189.493L269.718 182.349L265.628 192.794C265.628 192.794 270.814 195.258 274.854 193.829L275.728 189.493Z" fill="#FF8B7B"/>
<path d="M260.898 180.784L259.223 189.123L265.628 192.782L269.718 182.336L260.898 180.784Z" fill="#FF8B7B"/>
<path d="M346.665 166.545C345.593 175.168 326.033 193.336 326.033 193.336L308.419 179.368C312.847 172.823 318.022 166.817 323.84 161.471C336.601 150.41 347.958 156.248 346.665 166.545Z" fill="#407BFF"/>
<path opacity="0.5" d="M346.665 166.545C345.593 175.168 326.033 193.336 326.033 193.336L308.419 179.368C312.847 172.823 318.022 166.817 323.84 161.471C336.601 150.41 347.958 156.248 346.665 166.545Z" fill="black"/>
<path d="M331.403 224.745C348.98 224.745 352.996 204.865 353.92 196.329C351.7 181.893 346.557 168.061 338.806 155.681C338.711 155.53 338.654 155.358 338.64 155.179C338.627 155.001 338.657 154.821 338.729 154.657C338.8 154.493 338.911 154.349 339.051 154.238C339.191 154.127 339.357 154.051 339.533 154.019L343.388 153.304C343.608 153.268 343.833 153.297 344.036 153.386C344.239 153.476 344.412 153.623 344.534 153.809C355.114 170.746 358.576 185.108 359.696 192.498H362.85C366.077 185.477 373.184 169.477 372.605 154.487C372.594 154.326 372.62 154.165 372.679 154.015C372.738 153.865 372.831 153.731 372.948 153.621C373.066 153.511 373.207 153.429 373.361 153.381C373.515 153.332 373.677 153.319 373.837 153.341L377.976 153.748C378.242 153.766 378.492 153.881 378.678 154.072C378.865 154.263 378.974 154.516 378.986 154.782C379.589 169.231 371.423 189.271 368.282 195.639C369.353 219.215 382.471 223.292 382.471 223.292C382.794 229.154 382.534 235.034 381.695 240.844C353.92 245.352 340.075 242.606 332.155 239.329C332.771 233.404 331.662 229.254 331.403 224.745Z" fill="#407BFF"/>
<path opacity="0.3" d="M331.403 224.745C348.98 224.745 352.996 204.865 353.92 196.329C351.7 181.893 346.557 168.061 338.806 155.681C338.711 155.53 338.654 155.358 338.64 155.179C338.627 155.001 338.657 154.821 338.729 154.657C338.8 154.493 338.911 154.349 339.051 154.238C339.191 154.127 339.357 154.051 339.533 154.019L343.388 153.304C343.608 153.268 343.833 153.297 344.036 153.386C344.239 153.476 344.412 153.623 344.534 153.809C355.114 170.746 358.576 185.108 359.696 192.498H362.85C366.077 185.477 373.184 169.477 372.605 154.487C372.594 154.326 372.62 154.165 372.679 154.015C372.738 153.865 372.831 153.731 372.948 153.621C373.066 153.511 373.207 153.429 373.361 153.381C373.515 153.332 373.677 153.319 373.837 153.341L377.976 153.748C378.242 153.766 378.492 153.881 378.678 154.072C378.865 154.263 378.974 154.516 378.986 154.782C379.589 169.231 371.423 189.271 368.282 195.639C369.353 219.215 382.471 223.292 382.471 223.292C382.794 229.154 382.534 235.034 381.695 240.844C353.92 245.352 340.075 242.606 332.155 239.329C332.771 233.404 331.662 229.254 331.403 224.745Z" fill="black"/>
<path d="M331.28 414.816L331.748 425.618H340.801L340.333 414.816H331.28Z" fill="#FF5652"/>
<path d="M411.91 383.394L404.569 388.691L413.499 395.564L420.84 390.267L411.91 383.394Z" fill="#FF5652"/>
<path d="M366.459 124.617C364.525 133.387 363.835 138.622 358.649 142.465C350.852 148.254 340.555 142.465 339.828 133.313C339.175 125.06 342.44 112.102 351.665 109.91C353.696 109.44 355.813 109.493 357.817 110.064C359.822 110.635 361.648 111.706 363.126 113.175C364.605 114.645 365.686 116.465 366.268 118.466C366.851 120.467 366.917 122.584 366.459 124.617Z" fill="#FF8B7B"/>
<path d="M374.28 111.006C381.979 111.216 378.813 115.268 374.958 117.497C374.958 117.497 379.404 119.628 377.113 124.715C373.64 132.438 366.988 140.925 360.201 140.457C351.752 139.878 349.35 130.689 349.658 121.624C345.199 117.424 344.447 115.108 343.758 110.058C342.366 100.044 348.648 94.5377 374.28 111.006Z" fill="#263238"/>
<path d="M364.365 94.1313C369.635 95.4832 374.153 98.8727 376.924 103.555C379.696 108.237 380.495 113.828 379.146 119.099L339.373 108.949C340.039 106.334 341.215 103.877 342.832 101.717C344.449 99.5565 346.476 97.7363 348.797 96.3601C351.118 94.9839 353.688 94.0787 356.359 93.6963C359.03 93.3138 361.751 93.4617 364.365 94.1313Z" fill="#407BFF"/>
<path opacity="0.5" d="M364.365 94.1313C369.635 95.4832 374.153 98.8727 376.924 103.555C379.696 108.237 380.495 113.828 379.146 119.099L339.373 108.949C340.039 106.334 341.215 103.877 342.832 101.717C344.449 99.5565 346.476 97.7363 348.797 96.3601C351.118 94.9839 353.688 94.0787 356.359 93.6963C359.03 93.3138 361.751 93.4617 364.365 94.1313Z" fill="white"/>
<path d="M372.223 119.123C371.948 119.127 371.676 119.067 371.428 118.948C371.18 118.829 370.964 118.654 370.795 118.436C370.627 118.219 370.511 117.965 370.458 117.695C370.404 117.425 370.414 117.147 370.487 116.882C371.04 114.645 371.116 112.316 370.711 110.048C370.305 107.779 369.427 105.621 368.134 103.714C365.366 99.5498 361.131 96.5811 356.272 95.4C355.81 95.2824 355.413 94.986 355.17 94.576C354.926 94.1659 354.855 93.6759 354.973 93.2137C355.09 92.7514 355.387 92.3548 355.797 92.1111C356.207 91.8674 356.697 91.7966 357.159 91.9142C362.893 93.3229 367.885 96.8415 371.139 101.768C372.706 104.09 373.768 106.715 374.256 109.474C374.744 112.232 374.648 115.062 373.972 117.781C373.871 118.167 373.644 118.509 373.328 118.752C373.011 118.995 372.623 119.125 372.223 119.123Z" fill="#407BFF"/>
<path opacity="0.3" d="M372.223 119.123C371.948 119.127 371.676 119.067 371.428 118.948C371.18 118.829 370.964 118.654 370.795 118.436C370.627 118.219 370.511 117.965 370.458 117.695C370.404 117.425 370.414 117.147 370.487 116.882C371.04 114.645 371.116 112.316 370.711 110.048C370.305 107.779 369.427 105.621 368.134 103.714C365.366 99.5498 361.131 96.5811 356.272 95.4C355.81 95.2824 355.413 94.986 355.17 94.576C354.926 94.1659 354.855 93.6759 354.973 93.2137C355.09 92.7514 355.387 92.3548 355.797 92.1111C356.207 91.8674 356.697 91.7966 357.159 91.9142C362.893 93.3229 367.885 96.8415 371.139 101.768C372.706 104.09 373.768 106.715 374.256 109.474C374.744 112.232 374.648 115.062 373.972 117.781C373.871 118.167 373.644 118.509 373.328 118.752C373.011 118.995 372.623 119.125 372.223 119.123Z" fill="white"/>
<path d="M333.867 109.479L380.673 121.427C381.16 121.55 381.675 121.475 382.107 121.219C382.539 120.963 382.851 120.546 382.976 120.06C383.1 119.571 383.026 119.054 382.769 118.62C382.513 118.186 382.096 117.871 381.609 117.744L334.803 105.796C334.313 105.673 333.794 105.749 333.36 106.007C332.926 106.266 332.612 106.686 332.487 107.176C332.426 107.417 332.414 107.669 332.45 107.916C332.486 108.162 332.571 108.399 332.699 108.613C332.827 108.827 332.996 109.014 333.197 109.162C333.397 109.311 333.625 109.418 333.867 109.479Z" fill="#407BFF"/>
<path opacity="0.3" d="M333.867 109.479L380.673 121.427C381.16 121.55 381.675 121.475 382.107 121.219C382.539 120.963 382.851 120.546 382.976 120.06C383.1 119.571 383.026 119.054 382.769 118.62C382.513 118.186 382.096 117.871 381.609 117.744L334.803 105.796C334.313 105.673 333.794 105.749 333.36 106.007C332.926 106.266 332.612 106.686 332.487 107.176C332.426 107.417 332.414 107.669 332.45 107.916C332.486 108.162 332.571 108.399 332.699 108.613C332.827 108.827 332.996 109.014 333.197 109.162C333.397 109.311 333.625 109.418 333.867 109.479Z" fill="white"/>
<path d="M354.277 123.792C354.047 126.011 353.085 128.091 351.542 129.704C349.497 131.81 347.477 130.394 347.219 127.733C346.985 125.344 347.773 121.365 350.224 120.257C352.675 119.148 354.535 121.119 354.277 123.792Z" fill="#FF8B7B"/>
<path d="M350.409 234.218C350.409 234.218 349.362 298.613 357.455 323.864C370.277 363.859 409.003 396.253 409.003 396.253L422.848 386.264C422.848 386.264 390.601 358.895 384.688 325.231C379.38 294.967 381.634 258.963 381.634 234.242L350.409 234.218Z" fill="#407BFF"/>
<path opacity="0.3" d="M350.409 234.218C350.409 234.218 349.362 298.613 357.455 323.864C370.277 363.859 409.003 396.253 409.003 396.253L422.848 386.264C422.848 386.264 390.601 358.895 384.688 325.231C379.38 294.967 381.634 258.963 381.634 234.242L350.409 234.218Z" fill="black"/>
<path d="M359.438 245.279C361.15 256.882 355.102 289.19 353.008 299.771C350.816 279.989 350.409 256.524 350.372 243.714C354.806 240.709 358.649 239.933 359.438 245.279Z" fill="#407BFF"/>
<path opacity="0.4" d="M359.438 245.279C361.15 256.882 355.102 289.19 353.008 299.771C350.816 279.989 350.409 256.524 350.372 243.714C354.806 240.709 358.649 239.933 359.438 245.279Z" fill="black"/>
<path d="M403.078 393.334C403.017 393.334 408.769 396.721 408.769 396.721L423.882 385.808L418.857 381.953L403.078 393.334Z" fill="#407BFF"/>
<path opacity="0.4" d="M403.078 393.334C403.017 393.334 408.769 396.721 408.769 396.721L423.882 385.808L418.857 381.953L403.078 393.334Z" fill="white"/>
<path d="M333.239 234.218C333.239 234.218 319.603 291.986 318.642 319.577C317.571 350.531 328.373 423.524 328.373 423.524H343.721C343.721 423.524 345.618 349.964 346.295 321.77C347.034 291.038 365.079 234.218 365.079 234.218H333.239Z" fill="#407BFF"/>
<path opacity="0.3" d="M333.239 234.218C333.239 234.218 319.603 291.986 318.642 319.577C317.571 350.531 328.373 423.524 328.373 423.524H343.721C343.721 423.524 345.618 349.964 346.295 321.77C347.034 291.038 365.079 234.218 365.079 234.218H333.239Z" fill="black"/>
<path d="M325.417 417.415C325.355 417.415 326.292 423.783 326.292 423.783H344.952L345.457 418.104L325.417 417.415Z" fill="#407BFF"/>
<path opacity="0.4" d="M325.417 417.415C325.355 417.415 326.292 423.783 326.292 423.783H344.952L345.457 418.104L325.417 417.415Z" fill="white"/>
</svg>
