<svg xmlns="http://www.w3.org/2000/svg" width="24" height="24" fill="none" viewBox="0 0 24 24">
  <circle cx="12" cy="12" r="12" fill="#000"/>
  <path fill="#D81FFA" d="M20.519 12.491a13.027 13.027 0 0 1-7.429 6.139c-3.296 1.072-5.385.338-8.291-1.026 3.198.288 5.412.263 8.142-1.871a13.013 13.013 0 0 0 3.611-4.387 13.1 13.1 0 0 1 3.967 1.145Z"/>
  <path fill="#E167FF" d="M16.562 11.346a13.013 13.013 0 0 1-3.613 4.385c-2.73 2.134-4.944 2.16-8.142 1.871 3.103-.822 5.176-1.605 7.01-4.544.323-.517.61-1.056.859-1.613a13.03 13.03 0 0 1 3.886-.1Z"/>
  <path fill="#0057FF" d="M16.562 11.346a13.031 13.031 0 0 0-3.884.101 12.969 12.969 0 0 0 1.038-3.745 13.083 13.083 0 0 1 4.11-.277 13.042 13.042 0 0 1-1.264 3.921Z"/>
  <path fill="#189FFF" d="M12.678 11.447c-.6.108-1.191.256-1.77.444-3.296 1.073-4.554 2.9-6.1 5.713.49-3.176 1.048-5.32 3.778-7.454a13.03 13.03 0 0 1 5.13-2.448 12.977 12.977 0 0 1-1.038 3.745Z"/>
  <path fill="#17EF97" d="M13.716 7.702a13.031 13.031 0 0 0-5.13 2.448c-2.73 2.134-3.288 4.278-3.777 7.454-.627-3.153-.834-5.358 1-8.297a13.046 13.046 0 0 1 7.75-5.72c.268 1.355.322 2.744.157 4.115Z"/>
  <path fill="#fff" fill-rule="evenodd" d="M24 12c0-6.627-5.372-12-12-12C5.373 0 0 5.373 0 12c0 6.628 5.373 12 12 12 6.628 0 12-5.372 12-12ZM1.5 12C1.5 6.201 6.201 1.5 12 1.5S22.5 6.201 22.5 12 17.799 22.5 12 22.5 1.5 17.799 1.5 12Z" clip-rule="evenodd"/>
</svg>
