<svg xmlns="http://www.w3.org/2000/svg" width="24" height="24" fill="none" viewBox="0 0 24 24">
  <circle cx="12" cy="12" r="12" fill="#3B99FC"/>
  <path fill="#fff" fill-rule="evenodd" d="M16.726 8.954a6.689 6.689 0 0 0-9.45 0l-.344.344a.333.333 0 0 0 0 .472l1.074 1.072a.167.167 0 0 0 .236 0l.463-.462a4.666 4.666 0 0 1 6.592 0l.432.432a.167.167 0 0 0 .236 0l1.075-1.073a.333.333 0 0 0 0-.472l-.314-.313Zm3.176 3.172-.956-.954a.334.334 0 0 0-.472 0l-3.06 3.055a.084.084 0 0 1-.118 0l-3.06-3.055a.335.335 0 0 0-.472 0l-3.06 3.055a.084.084 0 0 1-.118 0l-3.06-3.055a.335.335 0 0 0-.472 0l-.956.954a.333.333 0 0 0 0 .472l4.31 4.304c.131.13.343.13.473 0l3.06-3.055a.084.084 0 0 1 .118 0l3.06 3.055c.13.13.342.13.472 0l4.311-4.304a.333.333 0 0 0 0-.472Z" clip-rule="evenodd"/>
</svg>
