<svg xmlns="http://www.w3.org/2000/svg" width="24" height="24" fill="none" viewBox="0 0 24 24">
  <circle cx="12" cy="12" r="12" fill="#0657F9"/>
  <path fill="#fff" fill-rule="evenodd" d="M10.77 11.699v-1.216a2.825 2.825 0 0 1-1.56-2.534c0-1.557 1.249-2.82 2.79-2.82 1.73 0 2.98 1.263 2.98 2.82 0 .393-.08.767-.272 1.211l-.492-1.617-.986.312.874 3.366L17.5 9.958l-.413-.985-1.266.439c.229-.503.274-.872.274-1.463C16.095 5.77 14.346 4 12 4 9.842 4 8.094 5.768 8.094 7.95a3.948 3.948 0 0 0 2.676 3.749Zm.654-4.788h1.152v10.178h-1.152V6.911Zm1.806 6.606v-1.216a3.948 3.948 0 0 1 2.676 3.75C15.906 18.23 14.157 20 12 20c-2.347 0-4.095-1.768-4.095-3.95 0-.59.045-.96.274-1.462l-1.266.439-.413-.985 3.395-1.263.875 3.366-.986.312-.492-1.617c-.192.444-.272.818-.272 1.21 0 1.558 1.25 2.822 2.98 2.822 1.54 0 2.79-1.264 2.79-2.821a2.825 2.825 0 0 0-1.56-2.534Z" clip-rule="evenodd"/>
</svg>
