<svg width="24" height="24" viewBox="0 0 24 24" fill="none" xmlns="http://www.w3.org/2000/svg">
<path d="M13.6099 12.2428C13.6038 12.5596 13.5039 12.8674 13.3227 13.1274C13.1415 13.3873 12.8872 13.5875 12.592 13.7028C12.2969 13.818 11.9742 13.843 11.6648 13.7746C11.3554 13.7062 11.0733 13.5475 10.8542 13.3186C10.6352 13.0897 10.489 12.8009 10.4342 12.4888C10.3795 12.1767 10.4186 11.8554 10.5467 11.5656C10.6747 11.2758 10.886 11.0305 11.1536 10.8609C11.4212 10.6913 11.7331 10.6049 12.0499 10.6128C12.4708 10.6284 12.8691 10.8073 13.1603 11.1116C13.4515 11.4159 13.6128 11.8216 13.6099 12.2428Z" fill="#1D222B" fill-opacity="0.65"/>
<path d="M14.763 7.2334H9.33797C8.80117 7.2334 8.28635 7.44664 7.90678 7.82621C7.52721 8.20579 7.31396 8.7206 7.31396 9.2574V14.8044C7.31396 15.0702 7.36632 15.3334 7.46803 15.5789C7.56975 15.8245 7.71883 16.0476 7.90678 16.2356C8.09473 16.4235 8.31785 16.5726 8.56341 16.6743C8.80898 16.776 9.07217 16.8284 9.33797 16.8284H14.763C15.0288 16.8284 15.292 16.776 15.5375 16.6743C15.7831 16.5726 16.0062 16.4235 16.1941 16.2356C16.3821 16.0476 16.5312 15.8245 16.6329 15.5789C16.7346 15.3334 16.787 15.0702 16.787 14.8044V9.2674C16.788 9.00084 16.7365 8.73669 16.6352 8.49009C16.534 8.24349 16.3851 8.01929 16.1971 7.83033C16.0091 7.64138 15.7856 7.49139 15.5395 7.38896C15.2934 7.28652 15.0295 7.23366 14.763 7.2334ZM12.05 14.9564C11.5129 14.9685 10.9845 14.8204 10.532 14.5308C10.0795 14.2413 9.72362 13.8235 9.50965 13.3308C9.29568 12.838 9.23338 12.2927 9.33068 11.7645C9.42799 11.2362 9.68049 10.7489 10.056 10.3647C10.4314 9.98057 10.9129 9.71701 11.4388 9.60767C11.9647 9.49833 12.5113 9.54818 13.0088 9.75085C13.5062 9.95352 13.9321 10.2998 14.2318 10.7455C14.5316 11.1913 14.6918 11.7162 14.692 12.2534C14.6963 12.6045 14.6314 12.9529 14.5009 13.2788C14.3704 13.6048 14.177 13.9018 13.9316 14.1529C13.6862 14.4039 13.3937 14.6041 13.0708 14.742C12.7479 14.8799 12.401 14.9527 12.05 14.9564ZM14.986 9.5514C14.92 9.55141 14.8547 9.53826 14.7938 9.51271C14.733 9.48716 14.6778 9.44973 14.6317 9.40261C14.5855 9.35548 14.5491 9.29962 14.5248 9.23828C14.5005 9.17695 14.4886 9.11137 14.49 9.0454C14.49 8.9112 14.5433 8.7825 14.6382 8.6876C14.7331 8.59271 14.8618 8.5394 14.996 8.5394C15.1302 8.5394 15.2589 8.59271 15.3538 8.6876C15.4487 8.7825 15.502 8.9112 15.502 9.0454C15.504 9.11684 15.4905 9.18786 15.4625 9.2536C15.4345 9.31935 15.3926 9.37826 15.3397 9.42632C15.2868 9.47437 15.2241 9.51043 15.156 9.53201C15.0879 9.5536 15.0159 9.56021 14.945 9.5514H14.986Z" fill="#1D222B" fill-opacity="0.65"/>
<path d="M12.0501 2.00013C9.39796 1.98686 6.84915 3.02771 4.96441 4.8937C3.07967 6.75969 2.01339 9.29796 2.00013 11.9501C1.98686 14.6023 3.02771 17.1511 4.8937 19.0358C6.75969 20.9206 9.29796 21.9869 11.9501 22.0001C13.2633 22.0067 14.565 21.7545 15.7808 21.2581C16.9965 20.7616 18.1026 20.0305 19.0358 19.1065C19.9691 18.1826 20.7112 17.0839 21.2198 15.8732C21.7284 14.6624 21.9936 13.3633 22.0001 12.0501C22.0067 10.7369 21.7545 9.43525 21.2581 8.21948C20.7616 7.00372 20.0305 5.89764 19.1065 4.96441C18.1826 4.03118 17.0839 3.28908 15.8732 2.78046C14.6624 2.27185 13.3633 2.00669 12.0501 2.00013ZM18.1231 14.7021C18.1259 15.1508 18.0396 15.5955 17.8693 16.0105C17.6989 16.4256 17.4478 16.8026 17.1306 17.1199C16.8134 17.4372 16.4364 17.6884 16.0214 17.8589C15.6065 18.0294 15.1618 18.1158 14.7131 18.1131H9.38913C8.94049 18.1159 8.49577 18.0296 8.08073 17.8593C7.6657 17.6889 7.28861 17.4378 6.97133 17.1206C6.65404 16.8034 6.40287 16.4264 6.23238 16.0114C6.06189 15.5965 5.97547 15.1518 5.97813 14.7031V9.37813C5.97534 8.92949 6.06163 8.48477 6.232 8.06973C6.40237 7.6547 6.65343 7.27761 6.97062 6.96033C7.28781 6.64304 7.66482 6.39187 8.07981 6.22138C8.49479 6.05089 8.93949 5.96447 9.38812 5.96713H14.7131C15.1617 5.96447 15.6063 6.05086 16.0212 6.22129C16.4361 6.39172 16.8131 6.6428 17.1303 6.95997C17.4475 7.27715 17.6985 7.65412 17.869 8.06904C18.0394 8.48396 18.1258 8.92858 18.1231 9.37713V14.7021Z" fill="#1D222B" fill-opacity="0.65"/>
</svg>
