<svg width="20" height="21" viewBox="0 0 20 21" fill="none" xmlns="http://www.w3.org/2000/svg">
<path d="M18.2266 1.25488H1.775C1.21149 1.25488 0.754684 1.71169 0.754684 2.2752V18.7268C0.754684 19.2903 1.21149 19.7471 1.775 19.7471H18.2266C18.7901 19.7471 19.2469 19.2903 19.2469 18.7268V2.2752C19.2469 1.71169 18.7901 1.25488 18.2266 1.25488Z" fill="#3D5A98"/>
<path d="M13.5125 19.7456V12.5846H15.9156L16.275 9.79401H13.5125V8.01276C13.5125 7.20495 13.7375 6.65338 14.8953 6.65338H16.3734V4.15338C15.6577 4.07892 14.9384 4.04345 14.2188 4.04713C12.0906 4.04713 10.625 5.34401 10.625 7.7362V9.79401H8.22188V12.5846H10.625V19.7456H13.5125Z" fill="white"/>
</svg>
