<svg width="34" height="34" viewBox="0 0 34 34" fill="none" xmlns="http://www.w3.org/2000/svg">
<g clip-path="url(#clip0_915_39903)">
<path d="M0 17C0 7.61116 7.61116 0 17 0C26.3888 0 34 7.61116 34 17C34 26.3888 26.3888 34 17 34C7.61116 34 0 26.3888 0 17Z" fill="#9C78AE"/>
<line x1="41.1768" y1="-9.82322" x2="2.17678" y2="29.1768" stroke="white" stroke-opacity="0.2" stroke-width="0.5"/>
<line x1="38.1768" y1="-9.82322" x2="-0.823224" y2="29.1768" stroke="white" stroke-opacity="0.2" stroke-width="0.5"/>
<line x1="35.1768" y1="-9.82322" x2="-3.82322" y2="29.1768" stroke="white" stroke-opacity="0.2" stroke-width="0.5"/>
<line x1="35.1768" y1="-12.8232" x2="-3.82322" y2="26.1768" stroke="white" stroke-opacity="0.2" stroke-width="0.5"/>
<line x1="35.1768" y1="-15.8232" x2="-3.82322" y2="23.1768" stroke="white" stroke-opacity="0.2" stroke-width="0.5"/>
<line x1="32.1768" y1="-15.8232" x2="-6.82322" y2="23.1768" stroke="white" stroke-opacity="0.2" stroke-width="0.5"/>
<line x1="32.1768" y1="-18.8232" x2="-6.82322" y2="20.1768" stroke="white" stroke-opacity="0.2" stroke-width="0.5"/>
<line x1="29.1768" y1="-18.8232" x2="-9.82322" y2="20.1768" stroke="white" stroke-opacity="0.2" stroke-width="0.5"/>
<line x1="29.1768" y1="-21.8232" x2="-9.82322" y2="17.1768" stroke="white" stroke-opacity="0.2" stroke-width="0.5"/>
<line x1="41.1768" y1="-6.82322" x2="2.17678" y2="32.1768" stroke="white" stroke-opacity="0.2" stroke-width="0.5"/>
<line x1="41.1768" y1="-3.82322" x2="2.17678" y2="35.1768" stroke="white" stroke-opacity="0.2" stroke-width="0.5"/>
<line x1="41.1768" y1="-0.823223" x2="2.17678" y2="38.1768" stroke="white" stroke-opacity="0.2" stroke-width="0.5"/>
<line x1="52.1768" y1="-8.82322" x2="2.17678" y2="41.1768" stroke="white" stroke-opacity="0.2" stroke-width="0.5"/>
<line x1="51.1768" y1="-4.82322" x2="2.17678" y2="44.1768" stroke="white" stroke-opacity="0.2" stroke-width="0.5"/>
<line x1="52.1768" y1="-2.82322" x2="2.17678" y2="47.1768" stroke="white" stroke-opacity="0.2" stroke-width="0.5"/>
<line x1="52.1768" y1="0.176777" x2="2.17678" y2="50.1768" stroke="white" stroke-opacity="0.2" stroke-width="0.5"/>
<line x1="52.1768" y1="3.17678" x2="2.17678" y2="53.1768" stroke="white" stroke-opacity="0.2" stroke-width="0.5"/>
<line x1="52.1768" y1="6.17678" x2="2.17678" y2="56.1768" stroke="white" stroke-opacity="0.2" stroke-width="0.5"/>
<path d="M11.9537 16.463C11.9537 15.579 12.1573 14.786 12.5647 14.084C12.9807 13.382 13.5397 12.836 14.2417 12.446C14.9523 12.0473 15.728 11.848 16.5687 11.848C17.5307 11.848 18.3843 12.0863 19.1297 12.563C19.8837 13.031 20.4297 13.6983 20.7677 14.565H18.9867C18.7527 14.0883 18.4277 13.733 18.0117 13.499C17.5957 13.265 17.1147 13.148 16.5687 13.148C15.9707 13.148 15.4377 13.2823 14.9697 13.551C14.5017 13.8197 14.1333 14.2053 13.8647 14.708C13.6047 15.2107 13.4747 15.7957 13.4747 16.463C13.4747 17.1303 13.6047 17.7153 13.8647 18.218C14.1333 18.7207 14.5017 19.1107 14.9697 19.388C15.4377 19.6567 15.9707 19.791 16.5687 19.791C17.1147 19.791 17.5957 19.674 18.0117 19.44C18.4277 19.206 18.7527 18.8507 18.9867 18.374H20.7677C20.4297 19.2407 19.8837 19.908 19.1297 20.376C18.3843 20.844 17.5307 21.078 16.5687 21.078C15.7193 21.078 14.9437 20.883 14.2417 20.493C13.5397 20.0943 12.9807 19.544 12.5647 18.842C12.1573 18.14 11.9537 17.347 11.9537 16.463Z" fill="white"/>
</g>
<defs>
<clipPath id="clip0_915_39903">
<path d="M0 17C0 7.61116 7.61116 0 17 0C26.3888 0 34 7.61116 34 17C34 26.3888 26.3888 34 17 34C7.61116 34 0 26.3888 0 17Z" fill="white"/>
</clipPath>
</defs>
</svg>
