<svg width="34" height="34" viewBox="0 0 34 34" fill="none" xmlns="http://www.w3.org/2000/svg">
<g clip-path="url(#clip0_915_39900)">
<path d="M0 17C0 7.61116 7.61116 0 17 0C26.3888 0 34 7.61116 34 17C34 26.3888 26.3888 34 17 34C7.61116 34 0 26.3888 0 17Z" fill="#9C78AE"/>
<line x1="41.1768" y1="-9.82322" x2="2.17678" y2="29.1768" stroke="white" stroke-opacity="0.2" stroke-width="0.5"/>
<line x1="38.1768" y1="-9.82322" x2="-0.823224" y2="29.1768" stroke="white" stroke-opacity="0.2" stroke-width="0.5"/>
<line x1="35.1768" y1="-9.82322" x2="-3.82322" y2="29.1768" stroke="white" stroke-opacity="0.2" stroke-width="0.5"/>
<line x1="35.1768" y1="-12.8232" x2="-3.82322" y2="26.1768" stroke="white" stroke-opacity="0.2" stroke-width="0.5"/>
<line x1="35.1768" y1="-15.8232" x2="-3.82322" y2="23.1768" stroke="white" stroke-opacity="0.2" stroke-width="0.5"/>
<line x1="32.1768" y1="-15.8232" x2="-6.82322" y2="23.1768" stroke="white" stroke-opacity="0.2" stroke-width="0.5"/>
<line x1="32.1768" y1="-18.8232" x2="-6.82322" y2="20.1768" stroke="white" stroke-opacity="0.2" stroke-width="0.5"/>
<line x1="29.1768" y1="-18.8232" x2="-9.82322" y2="20.1768" stroke="white" stroke-opacity="0.2" stroke-width="0.5"/>
<line x1="29.1768" y1="-21.8232" x2="-9.82322" y2="17.1768" stroke="white" stroke-opacity="0.2" stroke-width="0.5"/>
<line x1="41.1768" y1="-6.82322" x2="2.17678" y2="32.1768" stroke="white" stroke-opacity="0.2" stroke-width="0.5"/>
<line x1="41.1768" y1="-3.82322" x2="2.17678" y2="35.1768" stroke="white" stroke-opacity="0.2" stroke-width="0.5"/>
<line x1="41.1768" y1="-0.823223" x2="2.17678" y2="38.1768" stroke="white" stroke-opacity="0.2" stroke-width="0.5"/>
<line x1="52.1768" y1="-8.82322" x2="2.17678" y2="41.1768" stroke="white" stroke-opacity="0.2" stroke-width="0.5"/>
<line x1="51.1768" y1="-4.82322" x2="2.17678" y2="44.1768" stroke="white" stroke-opacity="0.2" stroke-width="0.5"/>
<line x1="52.1768" y1="-2.82322" x2="2.17678" y2="47.1768" stroke="white" stroke-opacity="0.2" stroke-width="0.5"/>
<line x1="52.1768" y1="0.176777" x2="2.17678" y2="50.1768" stroke="white" stroke-opacity="0.2" stroke-width="0.5"/>
<line x1="52.1768" y1="3.17678" x2="2.17678" y2="53.1768" stroke="white" stroke-opacity="0.2" stroke-width="0.5"/>
<line x1="52.1768" y1="6.17678" x2="2.17678" y2="56.1768" stroke="white" stroke-opacity="0.2" stroke-width="0.5"/>
<path d="M10.4686 19.791C11.0146 19.791 11.4956 19.674 11.9116 19.44C12.3276 19.206 12.6526 18.8507 12.8866 18.374H14.6676C14.3556 19.1713 13.8702 19.804 13.2116 20.272C12.5529 20.7313 11.7902 20.9957 10.9236 21.065V21.624C11.4262 21.624 11.8336 21.741 12.1456 21.975C12.4576 22.2177 12.6136 22.5557 12.6136 22.989C12.6136 23.4223 12.4576 23.7647 12.1456 24.016C11.8336 24.276 11.4392 24.406 10.9626 24.406H9.24656V23.47H10.6636C10.9062 23.47 11.0882 23.4353 11.2096 23.366C11.3309 23.2967 11.3916 23.171 11.3916 22.989C11.3916 22.807 11.3309 22.6813 11.2096 22.612C11.0882 22.5427 10.9062 22.508 10.6636 22.508H9.94856V21.052C9.18589 20.974 8.49256 20.7313 7.86856 20.324C7.24456 19.9167 6.75056 19.3793 6.38656 18.712C6.03123 18.036 5.85356 17.2863 5.85356 16.463C5.85356 15.579 6.05723 14.786 6.46456 14.084C6.88056 13.382 7.43956 12.836 8.14156 12.446C8.85223 12.0473 9.62789 11.848 10.4686 11.848C11.4306 11.848 12.2842 12.0863 13.0296 12.563C13.7836 13.031 14.3296 13.6983 14.6676 14.565H12.8866C12.6526 14.0883 12.3276 13.733 11.9116 13.499C11.4956 13.265 11.0146 13.148 10.4686 13.148C9.87056 13.148 9.33756 13.2823 8.86956 13.551C8.40156 13.8197 8.03323 14.2053 7.76456 14.708C7.50456 15.2107 7.37456 15.7957 7.37456 16.463C7.37456 17.1303 7.50456 17.7153 7.76456 18.218C8.03323 18.7207 8.40156 19.1107 8.86956 19.388C9.33756 19.6567 9.87056 19.791 10.4686 19.791ZM17.0002 21.091C16.7316 21.091 16.5062 21 16.3242 20.818C16.1422 20.636 16.0512 20.4107 16.0512 20.142C16.0512 19.8733 16.1422 19.648 16.3242 19.466C16.5062 19.284 16.7316 19.193 17.0002 19.193C17.2602 19.193 17.4812 19.284 17.6632 19.466C17.8452 19.648 17.9362 19.8733 17.9362 20.142C17.9362 20.4107 17.8452 20.636 17.6632 20.818C17.4812 21 17.2602 21.091 17.0002 21.091ZM24.985 19.154H21.202L20.552 21H19.005L22.242 11.952H23.958L27.195 21H25.635L24.985 19.154ZM24.569 17.945L23.1 13.746L21.618 17.945H24.569Z" fill="white"/>
</g>
<defs>
<clipPath id="clip0_915_39900">
<path d="M0 17C0 7.61116 7.61116 0 17 0C26.3888 0 34 7.61116 34 17C34 26.3888 26.3888 34 17 34C7.61116 34 0 26.3888 0 17Z" fill="white"/>
</clipPath>
</defs>
</svg>
