<svg width="16" height="16" viewBox="0 0 16 16" fill="none" xmlns="http://www.w3.org/2000/svg">
<path d="M14 12.6667C14 13.403 13.4112 14 12.6849 14L3.31507 14C2.58878 14 2 13.403 2 12.6667L2 10.6667C2 9.93029 2.58878 9.33333 3.31507 9.33333L12.6849 9.33333C13.4112 9.33333 14 9.93029 14 10.6667V12.6667Z" stroke="#1D222B" stroke-width="1.5" stroke-linecap="round" stroke-linejoin="round"/>
<path d="M14 3.33333C14 2.59695 13.4112 2 12.6849 2L3.31507 2C2.58878 2 2 2.59695 2 3.33333L2 5.33333C2 6.06971 2.58878 6.66667 3.31507 6.66667H12.6849C13.4112 6.66667 14 6.06971 14 5.33333V3.33333Z" stroke="#1D222B" stroke-width="1.5" stroke-linecap="round" stroke-linejoin="round"/>
</svg>
