<svg width="24" height="24" viewBox="0 0 24 24" fill="none" xmlns="http://www.w3.org/2000/svg">
<path d="M13.6099 12.2438C13.6038 12.5606 13.5039 12.8684 13.3227 13.1283C13.1415 13.3882 12.8872 13.5885 12.592 13.7037C12.2969 13.819 11.9742 13.844 11.6648 13.7756C11.3554 13.7072 11.0733 13.5485 10.8542 13.3196C10.6352 13.0907 10.489 12.8019 10.4342 12.4898C10.3795 12.1777 10.4186 11.8564 10.5467 11.5666C10.6747 11.2768 10.886 11.0315 11.1536 10.8619C11.4212 10.6923 11.7331 10.6059 12.0499 10.6138C12.4708 10.6294 12.8691 10.8083 13.1603 11.1126C13.4515 11.4168 13.6128 11.8226 13.6099 12.2438Z" fill="white" fill-opacity="0.65"/>
<path d="M14.763 7.23438H9.33797C8.80117 7.23438 8.28635 7.44762 7.90678 7.82719C7.52721 8.20676 7.31396 8.72158 7.31396 9.25838V14.8054C7.31396 15.0712 7.36632 15.3344 7.46803 15.5799C7.56975 15.8255 7.71883 16.0486 7.90678 16.2366C8.09473 16.4245 8.31785 16.5736 8.56341 16.6753C8.80898 16.777 9.07217 16.8294 9.33797 16.8294H14.763C15.0288 16.8294 15.292 16.777 15.5375 16.6753C15.7831 16.5736 16.0062 16.4245 16.1941 16.2366C16.3821 16.0486 16.5312 15.8255 16.6329 15.5799C16.7346 15.3344 16.787 15.0712 16.787 14.8054V9.26838C16.788 9.00181 16.7365 8.73766 16.6352 8.49106C16.534 8.24446 16.3851 8.02026 16.1971 7.83131C16.0091 7.64236 15.7856 7.49237 15.5395 7.38993C15.2934 7.2875 15.0295 7.23464 14.763 7.23438ZM12.05 14.9574C11.5129 14.9695 10.9845 14.8213 10.532 14.5318C10.0795 14.2422 9.72362 13.8245 9.50965 13.3317C9.29568 12.839 9.23338 12.2937 9.33068 11.7654C9.42799 11.2372 9.68049 10.7498 10.056 10.3657C10.4314 9.98154 10.9129 9.71798 11.4388 9.60865C11.9647 9.49931 12.5113 9.54916 13.0088 9.75183C13.5062 9.95449 13.9321 10.3008 14.2318 10.7465C14.5316 11.1923 14.6918 11.7172 14.692 12.2544C14.6963 12.6054 14.6314 12.9539 14.5009 13.2798C14.3704 13.6058 14.177 13.9028 13.9316 14.1538C13.6862 14.4049 13.3937 14.6051 13.0708 14.743C12.7479 14.8809 12.401 14.9537 12.05 14.9574ZM14.986 9.55237C14.92 9.55239 14.8547 9.53924 14.7938 9.51369C14.733 9.48814 14.6778 9.4507 14.6317 9.40358C14.5855 9.35646 14.5491 9.3006 14.5248 9.23926C14.5005 9.17792 14.4886 9.11235 14.49 9.04638C14.49 8.91218 14.5433 8.78347 14.6382 8.68858C14.7331 8.59369 14.8618 8.54037 14.996 8.54037C15.1302 8.54037 15.2589 8.59369 15.3538 8.68858C15.4487 8.78347 15.502 8.91218 15.502 9.04638C15.504 9.11781 15.4905 9.18883 15.4625 9.25458C15.4345 9.32033 15.3926 9.37924 15.3397 9.42729C15.2868 9.47535 15.2241 9.5114 15.156 9.53299C15.0879 9.55458 15.0159 9.56119 14.945 9.55237H14.986Z" fill="white" fill-opacity="0.65"/>
<path d="M12.0501 2.00013C9.39796 1.98686 6.84915 3.02771 4.96441 4.8937C3.07967 6.75969 2.01339 9.29796 2.00013 11.9501C1.98686 14.6023 3.02771 17.1511 4.8937 19.0358C6.75969 20.9206 9.29796 21.9869 11.9501 22.0001C13.2633 22.0067 14.565 21.7545 15.7808 21.2581C16.9965 20.7616 18.1026 20.0305 19.0358 19.1065C19.9691 18.1826 20.7112 17.0839 21.2198 15.8732C21.7284 14.6624 21.9936 13.3633 22.0001 12.0501C22.0067 10.7369 21.7545 9.43525 21.2581 8.21948C20.7616 7.00372 20.0305 5.89764 19.1065 4.96441C18.1826 4.03118 17.0839 3.28908 15.8732 2.78046C14.6624 2.27185 13.3633 2.00669 12.0501 2.00013ZM18.1231 14.7021C18.1259 15.1508 18.0396 15.5955 17.8693 16.0105C17.6989 16.4256 17.4478 16.8026 17.1306 17.1199C16.8134 17.4372 16.4364 17.6884 16.0214 17.8589C15.6065 18.0294 15.1618 18.1158 14.7131 18.1131H9.38913C8.94049 18.1159 8.49577 18.0296 8.08073 17.8593C7.6657 17.6889 7.28861 17.4378 6.97133 17.1206C6.65404 16.8034 6.40287 16.4264 6.23238 16.0114C6.06189 15.5965 5.97547 15.1518 5.97813 14.7031V9.37813C5.97534 8.92949 6.06163 8.48477 6.232 8.06973C6.40237 7.6547 6.65343 7.27761 6.97062 6.96033C7.28781 6.64304 7.66482 6.39187 8.07981 6.22138C8.49479 6.05089 8.93949 5.96447 9.38812 5.96713H14.7131C15.1617 5.96447 15.6063 6.05086 16.0212 6.22129C16.4361 6.39172 16.8131 6.6428 17.1303 6.95997C17.4475 7.27715 17.6985 7.65412 17.869 8.06904C18.0394 8.48396 18.1258 8.92858 18.1231 9.37713V14.7021Z" fill="white" fill-opacity="0.65"/>
</svg>
