<svg width="16" height="16" viewBox="0 0 16 16" fill="none" xmlns="http://www.w3.org/2000/svg">
<g clip-path="url(#clip0_1134_28184)">
<path d="M13.6128 5.98441H13.2488L13.2679 4.64566C13.2658 4.56737 13.2357 4.49243 13.1829 4.43458L10.0549 1.01191C10.0296 0.98342 9.99877 0.96033 9.96433 0.944021C9.92988 0.927712 9.8925 0.918519 9.85442 0.916992H3.30943C3.16268 0.919348 3.02257 0.978547 2.91859 1.08213C2.81462 1.18571 2.75488 1.32559 2.75197 1.47233V5.98441H2.38717C2.1853 5.98441 1.99051 6.06799 1.84884 6.21674C1.7043 6.36792 1.62406 6.56929 1.62501 6.77845V10.908C1.62501 11.3458 1.96643 11.7014 2.38717 11.7014H2.75197V14.5276C2.75471 14.6747 2.81456 14.815 2.91886 14.9188C3.02316 15.0225 3.16373 15.0817 3.31084 15.0837H12.7161C13.01 15.0837 13.2686 14.8343 13.2686 14.5283V11.7021H13.6135C14.0343 11.7021 14.3757 11.3458 14.3757 10.9073V6.77774C14.3757 6.56808 14.2957 6.36549 14.1526 6.21674C14.0833 6.14356 13.9998 6.08523 13.9073 6.04529C13.8147 6.00535 13.715 5.98464 13.6143 5.98441M3.71459 1.89308H8.64176V5.13512C8.64148 5.20812 8.6694 5.2784 8.71967 5.33133C8.74407 5.35697 8.7734 5.37741 8.8059 5.39141C8.83841 5.40541 8.87341 5.41268 8.9088 5.41278H12.2798V5.98441H3.71459V1.89308ZM3.71459 14.1076V11.7014H12.2798V14.1076H3.71459ZM9.6228 1.99366L9.89551 2.30108L11.723 4.32195L11.8243 4.44449H9.95642C9.81476 4.44449 9.72551 4.42088 9.68867 4.37366C9.6509 4.32738 9.62894 4.25348 9.6228 4.15195V1.99366ZM3.04168 10.998V6.74799H4.40026C4.91498 6.74799 5.25026 6.76924 5.40609 6.81174C5.64692 6.87549 5.84833 7.01433 6.0103 7.22824C6.17227 7.44121 6.25326 7.71699 6.25326 8.05558C6.25326 8.31624 6.20651 8.53583 6.11301 8.71433C6.01951 8.89141 5.90074 9.03071 5.75672 9.13224C5.62548 9.22852 5.47608 9.2972 5.31755 9.33412C5.11544 9.37473 4.8229 9.39503 4.43992 9.39503H3.88813V10.998H3.04168ZM3.88813 7.46695V8.67324H4.35138C4.68524 8.67324 4.90837 8.65105 5.02076 8.60666C5.12937 8.56521 5.22238 8.49097 5.28687 8.39424C5.35135 8.29752 5.38411 8.18311 5.38059 8.06691C5.38583 7.92696 5.33773 7.79024 5.24601 7.68441C5.15768 7.58442 5.03762 7.51788 4.90601 7.49599C4.80542 7.4771 4.60237 7.46766 4.29684 7.46766L3.88813 7.46695ZM6.7498 6.74799H8.2968C8.64577 6.74799 8.91187 6.77515 9.09509 6.82945C9.34065 6.90265 9.55126 7.03298 9.72692 7.22045C9.90212 7.40839 10.0355 7.6379 10.1271 7.90895C10.2192 8.18095 10.265 8.51576 10.2645 8.91337C10.2645 9.26328 10.2216 9.5648 10.1356 9.81791C10.0303 10.1272 9.88063 10.3775 9.68655 10.5687C9.54016 10.7142 9.34183 10.8275 9.09155 10.9087C8.90502 10.9682 8.65545 10.998 8.34284 10.998H6.7498V6.74799ZM7.59626 7.46695V10.2819H8.22809C8.46467 10.2819 8.63538 10.2684 8.74022 10.2415C8.87763 10.2065 8.99144 10.1475 9.08163 10.0644C9.17277 9.9813 9.24667 9.84459 9.30334 9.65428C9.36048 9.46398 9.38905 9.20449 9.38905 8.87583C9.38905 8.54716 9.36072 8.29499 9.30405 8.11933C9.25844 7.9646 9.17577 7.82333 9.06322 7.70778C8.95394 7.60568 8.81824 7.53624 8.67151 7.50733C8.55345 7.48041 8.32206 7.46695 7.97734 7.46695H7.59626ZM10.793 10.998V6.74799H13.6667V7.46695H11.6394V8.47278H13.389V9.19174H11.6394V10.998H10.793Z" fill="#1D222B"/>
</g>
<defs>
<clipPath id="clip0_1134_28184">
<rect width="14.1667" height="14.1667" fill="white" transform="translate(0.916016 0.916992)"/>
</clipPath>
</defs>
</svg>
