<svg width="22" height="16" viewBox="0 0 22 16" fill="none" xmlns="http://www.w3.org/2000/svg">
<path d="M22.0002 5.71005C22.0497 4.27871 21.7366 2.85807 21.0902 1.58005C20.6516 1.05565 20.0429 0.701764 19.3702 0.580054C16.5878 0.32689 13.7937 0.223408 11.0002 0.270054C8.21685 0.223045 5.43297 0.323185 2.6602 0.570054C2.11202 0.669771 1.60472 0.926896 1.2002 1.31005C0.300198 2.14005 0.200197 3.56005 0.100197 4.76005C-0.045769 6.91759 -0.045769 9.08252 0.100197 11.2401C0.129501 11.9154 0.230059 12.5858 0.400197 13.2401C0.520773 13.7451 0.76472 14.2124 1.1102 14.6001C1.51747 15.0035 2.03658 15.2753 2.6002 15.3801C4.75606 15.6468 6.92841 15.7571 9.1002 15.7101C12.6002 15.7601 15.6702 15.7101 19.3002 15.4301C19.8773 15.3305 20.4106 15.0586 20.8302 14.6501C21.1099 14.3697 21.3189 14.027 21.4402 13.6501C21.7975 12.5526 21.9731 11.4041 21.9602 10.2501C22.0002 9.69005 22.0002 6.31005 22.0002 5.71005ZM8.7402 10.8501V4.66005L14.6602 7.77005C13.0002 8.69005 10.8102 9.73005 8.7402 10.8501Z" fill="#1D222B" fill-opacity="0.65"/>
</svg>
