<svg width="20" height="20" viewBox="0 0 20 20" fill="none" xmlns="http://www.w3.org/2000/svg">
<path d="M18.1602 4.83829C15.2802 0.398291 9.40022 -0.921709 4.84022 1.83829C0.400224 4.59829 -1.03978 10.5983 1.84022 15.0383L2.08022 15.3983L1.12022 18.9983L4.72022 18.0383L5.08022 18.2783C6.64022 19.1183 8.32022 19.5983 10.0002 19.5983C11.8002 19.5983 13.6002 19.1183 15.1602 18.1583C19.6002 15.2783 20.9202 9.39829 18.1602 4.83829ZM15.6402 14.0783C15.1602 14.7983 14.5602 15.2783 13.7202 15.3983C13.2402 15.3983 12.6402 15.6383 10.2402 14.6783C8.20022 13.7183 6.52022 12.1583 5.32022 10.3583C4.60022 9.51829 4.24022 8.43829 4.12022 7.35829C4.12022 6.39829 4.48022 5.55829 5.08022 4.95829C5.32022 4.71829 5.56022 4.59829 5.80022 4.59829H6.40022C6.64022 4.59829 6.88022 4.59829 7.00022 5.07829C7.24022 5.67829 7.84022 7.11829 7.84022 7.23829C7.96022 7.35829 7.96022 7.59829 7.84022 7.71829C7.96022 7.95829 7.84022 8.19829 7.72022 8.31829C7.60022 8.43829 7.48022 8.67829 7.36022 8.79829C7.12022 8.91829 7.00022 9.15829 7.12022 9.39829C7.60022 10.1183 8.20022 10.8383 8.80022 11.4383C9.52022 12.0383 10.2402 12.5183 11.0802 12.8783C11.3202 12.9983 11.5602 12.9983 11.6802 12.7583C11.8002 12.5183 12.4002 11.9183 12.6402 11.6783C12.8802 11.4383 13.0002 11.4383 13.2402 11.5583L15.1602 12.5183C15.4002 12.6383 15.6402 12.7583 15.7602 12.8783C15.8802 13.2383 15.8802 13.7183 15.6402 14.0783Z" fill="white" fill-opacity="0.65"/>
</svg>
