<svg width="24" height="24" viewBox="0 0 24 24" fill="none" xmlns="http://www.w3.org/2000/svg">
<path d="M23.0002 9.70908C23.0497 8.27773 22.7366 6.85709 22.0902 5.57908C21.6516 5.05468 21.0429 4.70079 20.3702 4.57908C17.5878 4.32591 14.7937 4.22243 12.0002 4.26908C9.21685 4.22207 6.43297 4.32221 3.6602 4.56908C3.11202 4.66879 2.60472 4.92592 2.2002 5.30908C1.3002 6.13908 1.2002 7.55908 1.1002 8.75908C0.954231 10.9166 0.954231 13.0815 1.1002 15.2391C1.1295 15.9144 1.23006 16.5848 1.4002 17.2391C1.52077 17.7441 1.76472 18.2114 2.1102 18.5991C2.51747 19.0025 3.03658 19.2743 3.6002 19.3791C5.75606 19.6458 7.92841 19.7561 10.1002 19.7091C13.6002 19.7591 16.6702 19.7091 20.3002 19.4291C20.8773 19.3295 21.4106 19.0576 21.8302 18.6491C22.1099 18.3688 22.3189 18.026 22.4402 17.6491C22.7975 16.5516 22.9731 15.4032 22.9602 14.2491C23.0002 13.6891 23.0002 10.3091 23.0002 9.70908ZM9.7402 14.8491V8.65908L15.6602 11.7691C14.0002 12.6891 11.8102 13.7291 9.7402 14.8491Z" fill="white" fill-opacity="0.65"/>
</svg>
