<svg xmlns="http://www.w3.org/2000/svg"
     fill="currentColor"
     viewBox="0 0 24 24">
    <path fill="#000"
          d="m6.46 22.47-.5-.866.5.866Zm-.922-.694-.993-.123.993.123Zm-.73-3.882-.873.49.006.01.866-.5Zm-1.104-1.966.872-.49-.006-.01-.866.5Zm17.357-1.888.5.867-.5-.867Zm-.125-1.133.407-.913-.407.913Zm-2.963-2.614-.873.489.006.01.866-.5Zm-1.048-1.869.873-.489-.007-.01-.866.5ZM6.448 5.59l.5.866-.5-.866Zm6.921 16.788.5.866-.5-.866ZM6.53 21.9c.155-1.24.06-2.916-.857-4.505l-1.732 1c.638 1.105.723 2.309.604 3.259l1.985.246Zm-.85-4.495L4.575 15.44l-1.744.979 1.103 1.965 1.744-.979Zm15.663-5.41c-.86-.384-1.855-1.076-2.505-2.201l-1.732 1c.917 1.587 2.295 2.524 3.422 3.027l.815-1.826Zm-2.498-2.19-1.047-1.869-1.745.978 1.047 1.869 1.745-.978Zm-1.054-1.88c-2.398-4.154-7.699-5.593-11.843-3.2l1 1.732c3.18-1.836 7.26-.737 9.111 2.468l1.732-1Zm3.77 6.983c.658-.38.803-1.083.743-1.572-.06-.488-.351-1.069-.96-1.341l-.816 1.826c-.18-.08-.206-.212-.21-.24a.441.441 0 0 1 .243-.405l1 1.732Zm-16.99.521c-1.82-3.151-.75-7.167 2.377-8.972l-1-1.732C1.857 7.086.471 12.328 2.838 16.428l1.732-1Zm1.39 6.176a.51.51 0 0 1 .327-.064c.08.012.126.041.146.057a.22.22 0 0 1 .064.08c.02.043.045.12.032.222l-1.985-.247c-.083.674.277 1.227.667 1.529.391.301 1.08.541 1.749.155l-1-1.732Zm14.6-8.43-14.6 8.43 1 1.732 14.6-8.43-1-1.732Zm-6.627 4.982c.626 1.084.233 2.608-1.064 3.356l1 1.732c2.146-1.239 3.034-3.944 1.796-6.088l-1.732 1Zm-1.064 3.356c-1.298.75-2.814.328-3.44-.756l-1.732 1c1.238 2.144 4.025 2.728 6.171 1.488l-1-1.732Zm-6.41-18.7a1.4 1.4 0 0 1-.512 1.912l1 1.732a3.4 3.4 0 0 0 1.244-4.645l-1.732 1Zm-.512 1.912a1.4 1.4 0 0 1-1.912-.513l-1.733 1a3.4 3.4 0 0 0 4.645 1.245l-1-1.732ZM4.036 4.21a1.4 1.4 0 0 1 .512-1.91l-1-1.732a3.4 3.4 0 0 0-1.245 4.644l1.733-1Zm.512-1.91a1.4 1.4 0 0 1 1.912.512l1.732-1A3.4 3.4 0 0 0 3.548.567l1 1.732Z" />
</svg>