<svg xmlns="http://www.w3.org/2000/svg" width="24" height="24" fill="none" viewBox="0 0 24 24">
  <g clip-path="url(#a)">
    <path fill="#F0F0F0" d="M12 0c6.628 0 12 5.373 12 12s-5.372 12-12 12c0-.522-1.565-12-1.565-12l1.566-12Z"/>
    <path fill="#496E2D" d="M12 24C5.373 24 0 18.627 0 12S5.373 0 12 0"/>
    <path fill="#D80027" d="m14.58 9.698-.986 1.357L12 10.538l.986 1.355-.984 1.357 1.594-.519.986 1.356-.001-1.676 1.594-.52-1.595-.516V9.698Z"/>
    <path fill="#D80027" d="M12.996 15.391a3.391 3.391 0 1 1 1.613-6.375 4.174 4.174 0 1 0 0 5.967c-.48.26-1.03.408-1.613.408Z"/>
  </g>
  <defs>
    <clipPath id="a">
      <path fill="#fff" d="M0 0h24v24H0z"/>
    </clipPath>
  </defs>
</svg>
