<svg xmlns="http://www.w3.org/2000/svg" width="24" height="24" fill="none" viewBox="0 0 24 24">
  <g clip-path="url(#a)">
    <path fill="#0052B4" d="M24 12c0-1.468-.264-2.874-.746-4.174L12 7.304.746 7.826A11.974 11.974 0 0 0 0 12c0 1.468.264 2.874.746 4.174L12 16.696l11.254-.522c.482-1.3.746-2.706.746-4.174Z"/>
    <path fill="#FF9811" d="M12 24c5.16 0 9.558-3.256 11.253-7.826H.746C2.442 20.744 6.84 24 12 24Z"/>
    <path fill="#D80027" d="M.746 7.826h22.507C21.558 3.256 17.16 0 12 0S2.442 3.256.746 7.826Z"/>
  </g>
  <defs>
    <clipPath id="a">
      <path fill="#fff" d="M0 0h24v24H0z"/>
    </clipPath>
  </defs>
</svg>
