<svg xmlns="http://www.w3.org/2000/svg" width="24" height="24" fill="none" viewBox="0 0 24 24">
  <g clip-path="url(#a)">
    <path fill="#F0F0F0" d="M12 24c6.627 0 12-5.373 12-12S18.627 0 12 0 0 5.373 0 12s5.373 12 12 12Z"/>
    <path fill="#D80027" d="M0 12c0 4.549 2.53 8.506 6.26 10.54V1.46A11.997 11.997 0 0 0 0 12Z"/>
    <path fill="#0052B4" d="M0 12c0 5.544 3.76 10.21 8.87 11.587V.413C3.76 1.79 0 6.456 0 12Z"/>
    <path fill="#D80027" d="M4.305 4.174V6.13a1.76 1.76 0 1 0 3.521 0V4.174H4.305Z"/>
    <path fill="#F0F0F0" d="M6.065 6.848a.718.718 0 0 1-.717-.718v-.913h1.434v.913a.718.718 0 0 1-.717.718Z"/>
    <path fill="#FFDA44" d="M13.043 12.522h-3.13a1.044 1.044 0 0 0-2.087 0h-3.13c0 .576.501 1.043 1.078 1.043h-.035c0 .577.467 1.044 1.043 1.044 0 .576.467 1.043 1.044 1.043h2.087c.576 0 1.043-.467 1.043-1.043.577 0 1.044-.467 1.044-1.044h-.035c.576 0 1.078-.467 1.078-1.043Zm.429-1.67-.274.439.332.396-.501-.125-.274.438-.037-.516-.501-.125.48-.194-.037-.515.333.396.48-.194ZM11.873 9.51l-.107.506.448.259-.515.054-.107.506-.21-.473-.515.054.384-.346-.21-.472.448.259.384-.346Zm-1.959-.713.072.512.51.09-.465.227.071.512-.359-.372-.464.226.242-.456-.359-.372.51.09.242-.457Zm-2.087 0 .243.457.51-.09-.36.372.243.456-.465-.226-.36.372.073-.512-.465-.227.51-.09.071-.512Zm-1.961.713.384.347.448-.259-.21.473.384.346-.515-.054-.21.472-.107-.506-.515-.054.448-.258-.107-.506Zm-1.599 1.342.48.194.332-.396-.036.515.48.194-.502.125-.036.516-.274-.438-.502.125.332-.396-.274-.44Z"/>
  </g>
  <defs>
    <clipPath id="a">
      <path fill="#fff" d="M0 0h24v24H0z"/>
    </clipPath>
  </defs>
</svg>
