<svg xmlns="http://www.w3.org/2000/svg" width="24" height="24" fill="none" viewBox="0 0 24 24">
  <g clip-path="url(#a)">
    <path fill="#F0F0F0" d="M12 24c6.627 0 12-5.373 12-12S18.627 0 12 0 0 5.373 0 12s5.373 12 12 12Z"/>
    <path fill="#D80027" d="M.102 13.565a11.94 11.94 0 0 0 2.379 5.74l6.388-5.74H.102Zm10.332 10.333V15.13l-5.74 6.39a11.94 11.94 0 0 0 5.74 2.378Zm0-23.796a11.94 11.94 0 0 0-5.74 2.379l5.74 6.389V.102ZM.102 10.435h8.767l-6.388-5.74a11.938 11.938 0 0 0-2.38 5.74ZM13.565.102V8.87l5.74-6.39a11.94 11.94 0 0 0-5.74-2.378Zm10.334 10.333a11.94 11.94 0 0 0-2.38-5.74l-6.388 5.74h8.768Zm-8.769 3.13 6.39 5.74a11.94 11.94 0 0 0 2.379-5.74H15.13Zm-1.565 10.333a11.939 11.939 0 0 0 5.74-2.379l-5.74-6.388v8.767Z"/>
    <path fill="#496E2D" d="M21.52 19.307 14.215 12l7.307-7.307a12.121 12.121 0 0 0-2.214-2.213l-7.306 7.306L4.694 2.48A12.114 12.114 0 0 0 2.48 4.693L9.787 12l-7.306 7.307a12.123 12.123 0 0 0 2.213 2.213l7.307-7.306 7.306 7.306a12.134 12.134 0 0 0 2.214-2.213Z"/>
    <path fill="#F0F0F0" d="M13.565 23.898V13.565h10.333a12.103 12.103 0 0 0 0-3.13H13.565V.102a12.12 12.12 0 0 0-3.13 0v10.333H.102a12.11 12.11 0 0 0 0 3.13h10.333v10.333a12.118 12.118 0 0 0 3.13 0Z"/>
  </g>
  <defs>
    <clipPath id="a">
      <path fill="#fff" d="M0 0h24v24H0z"/>
    </clipPath>
  </defs>
</svg>
