<svg xmlns="http://www.w3.org/2000/svg" width="24" height="24" fill="none" viewBox="0 0 24 24">
  <g clip-path="url(#a)">
    <path fill="#F0F0F0" d="M12 24c6.627 0 12-5.373 12-12S18.627 0 12 0 0 5.373 0 12s5.373 12 12 12Z"/>
    <path fill="#FFDA44" d="M3.514 3.515a11.973 11.973 0 0 0-3.48 9.383L12.897.034a11.972 11.972 0 0 0-9.384 3.48Z"/>
    <path fill="#0052B4" d="M4.285 21.19c4.715 3.967 11.763 3.733 16.2-.705 4.438-4.437 4.673-11.486.706-16.2L4.285 21.19Z"/>
    <path fill="#000" d="m11.958 11.517 1.034-.56-1.034-.56a3.655 3.655 0 0 0-3.05-3.05l-.56-1.034-.56 1.034a3.655 3.655 0 0 0-3.049 3.05l-1.034.56 1.034.56a3.655 3.655 0 0 0 3.05 3.049l.56 1.034.56-1.034a3.655 3.655 0 0 0 3.049-3.05Zm-3.61 1.527a2.087 2.087 0 1 1 0-4.174 2.087 2.087 0 0 1 0 4.174Z"/>
    <path fill="#D80027" d="m8.348 9.391.451.783h.904l-.452.783.452.782H8.8l-.452.783-.452-.783h-.904l.452-.782-.452-.783h.904l.452-.783Z"/>
  </g>
  <defs>
    <clipPath id="a">
      <path fill="#fff" d="M0 0h24v24H0z"/>
    </clipPath>
  </defs>
</svg>
