<svg xmlns="http://www.w3.org/2000/svg" width="24" height="25" fill="none" viewBox="0 0 24 25">
  <g clip-path="url(#a)">
    <path fill="#F0F0F0" d="M12 24.012c6.627 0 12-5.373 12-12 0-6.628-5.373-12-12-12s-12 5.372-12 12c0 6.627 5.373 12 12 12Z"/>
    <path fill="#D80027" d="M19.307 2.492a12.006 12.006 0 0 0-14.614 0L12 9.797l7.307-7.306ZM12 14.225l-7.307 7.307a12.006 12.006 0 0 0 14.614 0L12 14.225Z"/>
    <path fill="#6DA544" d="M9.786 12.012 2.48 4.705a12.006 12.006 0 0 0 0 14.614l7.307-7.307Zm4.427 0 7.307 7.306a12.006 12.006 0 0 0 0-14.613l-7.307 7.307Z"/>
    <path fill="#F0F0F0" d="M12 17.23a5.217 5.217 0 1 0 0-10.436 5.217 5.217 0 0 0 0 10.435Z"/>
    <path fill="#D80027" d="m12 8.36.452.782h.903l-.451.783.451.782h-.903L12 11.49l-.452-.783h-.903l.451-.782-.451-.783h.903L12 8.36Zm-2.297 3.652.452.782h.904l-.452.783.452.783h-.904l-.452.782-.452-.782h-.903l.451-.783-.451-.783h.903l.452-.782Zm4.594 0 .452.782h.903l-.451.783.451.783h-.903l-.452.782-.452-.782h-.904l.452-.783-.452-.783h.904l.452-.782Z"/>
  </g>
  <defs>
    <clipPath id="a">
      <path fill="#fff" d="M0 .012h24v24H0z"/>
    </clipPath>
  </defs>
</svg>
