<svg xmlns="http://www.w3.org/2000/svg" width="24" height="25" fill="none" viewBox="0 0 24 25">
  <g clip-path="url(#a)">
    <path fill="#D80027" d="M17.216 1.202A11.952 11.952 0 0 0 12 .012c-1.87 0-3.64.428-5.217 1.19l-1.044 10.81L6.782 22.82a11.953 11.953 0 0 0 5.217 1.19c1.87 0 3.64-.427 5.217-1.19l1.044-10.81-1.044-10.809Z"/>
    <path fill="#FFDA44" d="m12 7.838 1.036 3.188h3.353l-2.713 1.971 1.036 3.189L12 14.215l-2.712 1.97 1.036-3.188-2.713-1.97h3.353L12 7.836Z"/>
    <path fill="#496E2D" d="M6.783 1.203A12 12 0 0 0 0 12.012 12 12 0 0 0 6.783 22.82V1.203Z"/>
    <path fill="#FFDA44" d="M17.217 1.203V22.82a12 12 0 0 0 6.782-10.81 12 12 0 0 0-6.782-10.808Z"/>
  </g>
  <defs>
    <clipPath id="a">
      <path fill="#fff" d="M0 .012h24v24H0z"/>
    </clipPath>
  </defs>
</svg>
