<svg xmlns="http://www.w3.org/2000/svg" width="24" height="25" fill="none" viewBox="0 0 24 25">
  <g clip-path="url(#a)">
    <path fill="#F0F0F0" d="M12 24.012c6.627 0 12-5.373 12-12 0-6.628-5.373-12-12-12s-12 5.372-12 12c0 6.627 5.373 12 12 12Z"/>
    <path fill="#D80027" d="M24 12.012a12 12 0 0 0-6.783-10.81v21.619a12 12 0 0 0 6.782-10.81Zm-24 0A12 12 0 0 0 6.783 22.82V1.202A12 12 0 0 0 0 12.012Zm14.087 1.565 2.087-1.044-1.043-.521v-1.044l-2.088 1.044 1.044-2.087h-1.043L12 8.359l-1.043 1.566H9.913l1.044 2.087-2.087-1.044v1.044l-1.044.521 2.087 1.044-.522 1.043h2.087v1.566h1.044V14.62h2.087l-.522-1.043Z"/>
  </g>
  <defs>
    <clipPath id="a">
      <path fill="#fff" d="M0 .012h24v24H0z"/>
    </clipPath>
  </defs>
</svg>
