<svg xmlns="http://www.w3.org/2000/svg" width="24" height="25" fill="none" viewBox="0 0 24 25">
  <g clip-path="url(#a)">
    <path fill="#D80027" d="M12 24.023c6.627 0 12-5.372 12-12 0-6.627-5.373-12-12-12s-12 5.373-12 12c0 6.628 5.373 12 12 12Z"/>
    <path fill="#FFDA44" d="m6.567 7.327 1.036 3.187h3.352l-2.71 1.974 1.036 3.187-2.714-1.969-2.714 1.97 1.04-3.188-2.713-1.974h3.35l1.036-3.187Zm7.66 11.283-.792-.976-1.172.455.68-1.055-.793-.98 1.214.324.685-1.055.066 1.257 1.218.323-1.176.45.07 1.256Zm1.575-2.86.375-1.2-1.027-.727 1.257-.018.37-1.2.408 1.19 1.256-.014-1.008.75.403 1.19-1.026-.726-1.008.755Zm2.123-6.919-.553 1.13.9.877-1.243-.179-.553 1.125-.215-1.237-1.247-.178 1.115-.586-.215-1.242.9.876 1.11-.586ZM14.26 5.41l-.094 1.251 1.168.473-1.224.3-.089 1.257-.66-1.07-1.224.3.81-.96-.665-1.064 1.167.473.811-.96Z"/>
  </g>
  <defs>
    <clipPath id="a">
      <path fill="#fff" d="M0 .023h24v24H0z"/>
    </clipPath>
  </defs>
</svg>
