<svg xmlns="http://www.w3.org/2000/svg" width="24" height="25" fill="none" viewBox="0 0 24 25">
  <g clip-path="url(#a)">
    <path fill="#0052B4" d="M24 12.023c0 6.628-5.373 12-12 12s-12-5.372-12-12c0 .003 12-11.998 12-12 6.627 0 12 5.373 12 12Z"/>
    <path fill="#F0F0F0" d="M11.969 12.023H12v-.032l-.032.032ZM12 6.284V.024h-.002C5.371.023 0 5.396 0 12.023h6.26V8.497l3.526 3.525h2.182L12 11.99V9.81L8.474 6.284H12Z"/>
    <path fill="#D80027" d="M6.07 1.589a12.057 12.057 0 0 0-4.506 4.505v5.93h3.13V4.718H12V1.59H6.07Z"/>
    <path fill="#D80027" d="M11.999 10.548 7.735 6.284H6.26l5.739 5.74v-1.476Z"/>
    <path fill="#F0F0F0" d="m16.175 12.023.222.684h.718l-.581.422.222.683-.581-.422-.582.422.223-.683-.582-.422h.719l.222-.684Zm-2.952 1.223.64.326.508-.508-.112.71.64.326-.71.112-.112.71-.326-.64-.71.112.508-.508-.326-.64ZM12 16.197l.683-.222v-.718l.422.581.684-.222-.422.581.422.582-.684-.222-.422.58v-.718L12 16.197Zm1.223 2.952.326-.64-.508-.508.71.112.326-.64.112.71.71.112-.64.326.112.71-.508-.508-.64.326Zm2.952 1.222-.222-.683h-.719l.582-.422-.222-.683.58.422.582-.422-.222.683.581.422h-.718l-.222.683Zm2.95-1.222-.64-.326-.508.508.112-.71-.64-.326.71-.113.112-.71.326.641.71-.112-.508.508.326.64Zm1.222-2.952-.683.222v.719l-.422-.582-.683.223.422-.582-.422-.581.683.222.422-.581v.718l.683.222Zm-1.222-2.951-.326.64.508.508-.71-.112-.326.64-.112-.71-.71-.112.64-.326-.112-.71.508.508.64-.326Z"/>
  </g>
  <defs>
    <clipPath id="a">
      <path fill="#fff" d="M0 .023h24v24H0z"/>
    </clipPath>
  </defs>
</svg>
