<svg xmlns="http://www.w3.org/2000/svg" width="24" height="25" fill="none" viewBox="0 0 24 25">
  <g clip-path="url(#a)">
    <path fill="#FFDA44" d="M12 24.035c6.627 0 12-5.372 12-12 0-6.627-5.373-12-12-12s-12 5.373-12 12c0 6.628 5.373 12 12 12Z"/>
    <path fill="#0052B4" d="M12.001 24.035a11.98 11.98 0 0 0 9.62-4.826H2.381A11.982 11.982 0 0 0 12 24.035Zm11.999-12c0-6.627-5.373-12-12-12s-12 5.373-12 12c0 1.42.247 2.78.7 4.044h22.6c.453-1.264.7-2.625.7-4.044Z"/>
    <path fill="#F0F0F0" d="m8.214 7.731.647 1.993h2.096L9.26 10.956l.648 1.992-1.695-1.231-1.696 1.231.648-1.992L5.47 9.724h2.095l.648-1.993Zm-3.6-2.087.389 1.196H6.26l-1.017.739.389 1.196-1.018-.74-1.017.74.389-1.196-1.017-.74h1.257l.388-1.195Z"/>
  </g>
  <defs>
    <clipPath id="a">
      <path fill="#fff" d="M0 .035h24v24H0z"/>
    </clipPath>
  </defs>
</svg>
