<svg xmlns="http://www.w3.org/2000/svg" width="24" height="25" fill="none" viewBox="0 0 24 25">
  <g clip-path="url(#a)">
    <path fill="#F0F0F0" d="M12 24.035c6.627 0 12-5.372 12-12 0-6.627-5.373-12-12-12s-12 5.373-12 12c0 6.628 5.373 12 12 12Z"/>
    <path fill="#D80027" d="M.414 15.166a12.021 12.021 0 0 0 8.456 8.456v-8.456H.414Z"/>
    <path fill="#0052B4" d="M8.87.448A12.02 12.02 0 0 0 .414 8.905H8.87V.448Z"/>
    <path fill="#D80027" d="M23.587 8.905A12.021 12.021 0 0 0 15.131.448v8.457h8.456Z"/>
    <path fill="#0052B4" d="M15.13 23.622a12.021 12.021 0 0 0 8.457-8.457h-8.456v8.457Z"/>
    <path fill="#496E2D" d="M15.13 12.035a3.13 3.13 0 1 1-6.26 0c0-1.729 3.13-3.13 3.13-3.13s3.13 1.401 3.13 3.13Z"/>
    <path fill="#0052B4" d="M8.87 12.035a3.13 3.13 0 0 1 6.26 0"/>
    <path fill="#D80027" d="M10.238 10.47v1.957a1.76 1.76 0 1 0 3.522 0V10.47h-3.522Z"/>
  </g>
  <defs>
    <clipPath id="a">
      <path fill="#fff" d="M0 .035h24v24H0z"/>
    </clipPath>
  </defs>
</svg>
