<svg xmlns="http://www.w3.org/2000/svg" width="24" height="25" fill="none" viewBox="0 0 24 25">
  <g clip-path="url(#a)">
    <path fill="#F0F0F0" d="M12 24.024c6.627 0 12-5.372 12-12 0-6.627-5.373-12-12-12s-12 5.373-12 12c0 6.628 5.373 12 12 12Z"/>
    <path fill="#496E2D" d="M14.348 23.794a12.013 12.013 0 0 0 9.421-9.422h-9.421v9.422ZM.23 14.372a12.013 12.013 0 0 0 9.422 9.422v-9.422H.23Zm23.54-4.695A12.013 12.013 0 0 0 14.348.255v9.422h9.421ZM9.652.255A12.013 12.013 0 0 0 .23 9.677h9.422V.255Z"/>
    <path fill="#FFDA44" d="M11.217 14.372H9.652v9.422c.511.101 1.034.17 1.566.204v-9.626Zm0-4.695V.05c-.531.034-1.054.102-1.565.204v9.422h1.566Z"/>
    <path fill="#000" d="M12.782.05a12.122 12.122 0 0 0-1.565 0v9.627h1.565V.05Zm-1.565 23.948a12.146 12.146 0 0 0 1.565 0v-9.626h-1.565v9.626Z"/>
    <path fill="#FFDA44" d="M9.651 11.242V9.677H.23a12 12 0 0 0-.205 1.565h9.626Zm4.697 0h9.626a12.02 12.02 0 0 0-.204-1.565h-9.422v1.565Z"/>
    <path fill="#000" d="M14.348 12.807h9.626a12.147 12.147 0 0 0 0-1.565h-9.626v1.565ZM.026 11.242a12.155 12.155 0 0 0 0 1.565h9.626v-1.565H.026Z"/>
    <path fill="#D80027" d="M12 17.764a5.74 5.74 0 1 0 0-11.479 5.74 5.74 0 0 0 0 11.479Z"/>
    <path fill="#496E2D" d="M13.307 12.665c-.426-.854-.981-1.72-.981-1.72s.013-.393.013-.628a.64.64 0 0 0-1.277-.055.505.505 0 0 0-.2.95.727.727 0 0 1 .431-.4.702.702 0 0 0 .102.069l.082.039s-.304.857-.304 1.318c0 1.295.854 1.694.854 1.694v.013l-.427.427h.854v-.854l.427.427c.003-.008.808-.517.426-1.28Zm-1.308-5.336.194.598h.629l-.51.37.195.597-.508-.37-.509.37.194-.598-.508-.37h.628L12 7.33Zm-2.761.897.509.369.508-.37-.194.598.509.37h-.63l-.194.598-.195-.598h-.628l.508-.37-.194-.597Zm-1.705 2.347h.629l.194-.597.194.597h.629l-.509.37.195.598-.509-.37-.508.37.194-.598-.509-.37Zm0 2.902.509-.37-.195-.597.509.37.509-.37-.195.598.509.37H8.55l-.194.597-.194-.598h-.629Zm1.705 2.348.194-.598-.508-.37h.628l.195-.597.194.598h.629l-.509.37.194.597-.508-.37-.509.37Zm2.761.897-.195-.598h-.628l.508-.37-.194-.597.509.37.508-.37-.194.598.508.37h-.628l-.194.597Zm2.761-.897-.51-.37-.508.37.194-.598-.508-.37h.628l.195-.597.194.598h.628l-.508.37.194.597Zm1.704-2.348h-.628l-.195.598-.194-.598h-.629l.509-.369-.194-.598.508.37.509-.37-.194.598.508.37Zm0-2.902-.508.37.194.598-.509-.37-.508.37.194-.598-.509-.37h.629l.194-.597.195.597h.628ZM14.76 8.226l-.195.597.508.37h-.628l-.194.598-.195-.598h-.628l.508-.37-.194-.597.509.369.508-.37Z"/>
  </g>
  <defs>
    <clipPath id="a">
      <path fill="#fff" d="M0 .024h24v24H0z"/>
    </clipPath>
  </defs>
</svg>
