<svg xmlns="http://www.w3.org/2000/svg" width="24" height="25" fill="none" viewBox="0 0 24 25">
  <g clip-path="url(#a)">
    <path fill="#FFDA44" d="M0 12.047c0-6.628 5.373-12 12-12s12 5.373 12 12L12 13.09 0 12.047Z"/>
    <path fill="#D80027" d="M1.605 18.047c2.075 3.587 5.953 6 10.395 6 4.441 0 8.319-2.413 10.394-6L12 17.264l-10.395.783Z"/>
    <path fill="#0052B4" d="M22.394 18.047a11.944 11.944 0 0 0 1.606-6H0c0 2.186.585 4.235 1.606 6h20.788Z"/>
    <path fill="#FFDA44" d="M12 16.22a4.174 4.174 0 1 0 0-8.347 4.174 4.174 0 0 0 0 8.348Z"/>
    <path fill="#338AF3" d="M12 14.655a2.612 2.612 0 0 1-2.61-2.608v-1.565A2.612 2.612 0 0 1 12 7.872a2.612 2.612 0 0 1 2.608 2.61v1.565a2.612 2.612 0 0 1-2.609 2.608Z"/>
    <path fill="#000" d="M16.174 5.786h-3.13a1.044 1.044 0 0 0-2.087 0h-3.13c0 .576.501 1.044 1.077 1.044H8.87c0 .576.467 1.043 1.043 1.043 0 .576.467 1.043 1.044 1.043h2.087c.576 0 1.043-.467 1.043-1.043.576 0 1.044-.467 1.044-1.043h-.035c.576 0 1.078-.468 1.078-1.044Z"/>
  </g>
  <defs>
    <clipPath id="a">
      <path fill="#fff" d="M0 .047h24v24H0z"/>
    </clipPath>
  </defs>
</svg>
