<svg xmlns="http://www.w3.org/2000/svg" width="24" height="25" fill="none" viewBox="0 0 24 25">
  <g clip-path="url(#a)">
    <path fill="#000" d="M0 12.047c0 1.468.264 2.874.746 4.174L12 16.742l11.254-.521c.482-1.3.746-2.706.746-4.174 0-1.468-.264-2.874-.746-4.174L12 7.351.746 7.873A11.975 11.975 0 0 0 0 12.047Z"/>
    <path fill="#0052B4" d="M12 .047C6.84.047 2.442 3.303.746 7.873h22.507C21.558 3.303 17.16.047 12 .047Z"/>
    <path fill="#F0F0F0" d="M23.253 16.22H.746C2.442 20.79 6.84 24.048 12 24.048c5.16 0 9.558-3.257 11.253-7.826Z"/>
  </g>
  <defs>
    <clipPath id="a">
      <path fill="#fff" d="M0 .047h24v24H0z"/>
    </clipPath>
  </defs>
</svg>
