<svg xmlns="http://www.w3.org/2000/svg" width="24" height="25" fill="none" viewBox="0 0 24 25">
  <g clip-path="url(#a)">
    <path fill="#FFDA44" d="M0 12.036c0 1.468.264 2.874.746 4.174L12 17.253l11.254-1.043c.482-1.3.746-2.706.746-4.174 0-1.448-.256-2.835-.726-4.12L12 6.819.726 7.916A11.976 11.976 0 0 0 0 12.036Z"/>
    <path fill="#D80027" d="M12 24.036c5.16 0 9.558-3.256 11.253-7.826H.746C2.442 20.78 6.84 24.036 12 24.036Z"/>
    <path fill="#6DA544" d="M12 .036C6.84.036 2.442 3.293.746 7.862h22.507C21.558 3.292 17.16.036 12 .036Z"/>
    <path fill="#0052B4" d="M12 17.775a5.74 5.74 0 1 0 0-11.478 5.74 5.74 0 0 0 0 11.478Z"/>
    <path fill="#FFDA44" d="m11.999 7.592 1.036 3.189h3.358l-2.718 1.97 1.044 3.198L12 13.97l-2.716 1.976 1.04-3.194-2.716-1.97h3.356L12 7.592Z"/>
    <path fill="#FFDA44" d="m16.13 12.83-3.286-1.068 2.031-2.796-.844-.613L12 11.149 9.969 8.353l-.845.613 2.032 2.796-3.287 1.068.323.992 3.286-1.068v3.456h1.044v-3.456l3.286 1.068.323-.992Z"/>
  </g>
  <defs>
    <clipPath id="a">
      <path fill="#fff" d="M0 .036h24v24H0z"/>
    </clipPath>
  </defs>
</svg>
