<svg xmlns="http://www.w3.org/2000/svg" width="24" height="25" fill="none" viewBox="0 0 24 25">
  <g clip-path="url(#a)">
    <path fill="#338AF3" d="M24 12.059c0 6.627-5.373 12-12 12s-12-5.373-12-12c0 .003 12-12 12-12 6.627 0 12 5.372 12 12Z"/>
    <path fill="#0052B4" d="M12 5.798v4.047L7.826 5.798H12Zm-5.74 6.261h3.526L6.26 7.363l-.522 3.652.522 1.044Z"/>
    <path fill="#F0F0F0" d="M11.969 12.059H12v-.032l-.032.032Z"/>
    <path fill="#F0F0F0" d="M12 6.32V.058h-.002C5.372.059 0 5.432 0 12.059h6.26V8.533l3.526 3.526h2.182l.032-.032V9.845L8.474 6.32H12Z"/>
    <path fill="#D80027" d="M6.07 1.624A12.057 12.057 0 0 0 1.564 6.13v5.929h3.13V4.754H12v-3.13H6.07Z"/>
    <path fill="#D80027" d="M11.999 10.583 7.735 6.319H6.26l5.739 5.74v-1.476Z"/>
    <path fill="#F3F3F3" d="M13.565 7.885v4.174c0 2.795 3.652 3.652 3.652 3.652s3.652-.857 3.652-3.652V7.885L17.217 6.84l-3.652 1.044Z"/>
    <path fill="#D80027" d="M20.869 7.885V6.319h-7.304v1.566h3.13v3.13h-3.13v1.044h3.13v3.492c.315.111.522.16.522.16s.206-.049.521-.16v-3.492h3.13v-1.044h-3.13v-3.13h3.13Z"/>
  </g>
  <defs>
    <clipPath id="a">
      <path fill="#fff" d="M0 .059h24v24H0z"/>
    </clipPath>
  </defs>
</svg>
