<svg xmlns="http://www.w3.org/2000/svg" width="24" height="25" fill="none" viewBox="0 0 24 25">
  <g clip-path="url(#a)">
    <path fill="#D80027" d="M5.236 21.983A11.944 11.944 0 0 0 12 24.07c2.509 0 4.837-.77 6.763-2.087L12 20.94l-6.764 1.043ZM18.763 2.157A11.944 11.944 0 0 0 12 .07c-2.51 0-4.838.77-6.764 2.087L12 3.201l6.763-1.044Z"/>
    <path fill="#0052B4" d="M24 12.07c0-3.97-2.377-7.958-5.236-9.913H5.237A11.987 11.987 0 0 0 0 12.07c0 4.119 2.075 7.752 5.237 9.913h13.526A11.987 11.987 0 0 0 24 12.07Z"/>
    <path fill="#D80027" d="M11.321 19.645c-.164-.14-4.016-3.49-4.016-7.575s3.852-7.434 4.016-7.575l.68-.582.678.582c.164.141 4.017 3.49 4.017 7.575s-3.853 7.435-4.017 7.575l-.679.582-.679-.582Z"/>
    <path fill="#338AF3" d="M15.652 12.07C15.652 8.418 12 5.288 12 5.288s-3.652 3.13-3.652 6.782c0 1.118.342 2.186.816 3.13h5.671c.475-.944.817-2.012.817-3.13Z"/>
    <path fill="#0052B4" d="M15.652 12.07c0 1.118-.342 2.186-.816 3.13L12 15.724 9.164 15.2c-.474-.945-.816-2.013-.816-3.13h7.304Z"/>
    <path fill="#FFDA44" d="M12 18.853s1.759-1.508 2.835-3.652h-5.67C10.24 17.345 12 18.853 12 18.853Z"/>
    <path fill="#6DA544" d="M9.652 9.983h4.696L12 12.331 9.652 9.983Z"/>
    <path fill="#A2001D" d="M11.217 11.549h1.565v4.695h-1.565V11.55Z"/>
  </g>
  <defs>
    <clipPath id="a">
      <path fill="#fff" d="M0 .07h24v24H0z"/>
    </clipPath>
  </defs>
</svg>
