<svg xmlns="http://www.w3.org/2000/svg" width="24" height="25" fill="none" viewBox="0 0 24 25">
  <g clip-path="url(#a)">
    <path fill="#F0F0F0" d="M12 24.911c6.627 0 12-5.373 12-12s-5.373-12-12-12-12 5.373-12 12 5.373 12 12 12Z"/>
    <path fill="#000" d="M7.305 8.737h15.95C21.558 4.167 17.16.911 12 .911a11.96 11.96 0 0 0-8.485 3.515l3.789 4.311Z"/>
    <path fill="#6DA544" d="M7.305 17.085h15.95c-1.696 4.57-6.095 7.826-11.254 7.826a11.961 11.961 0 0 1-8.485-3.515l3.789-4.31Z"/>
    <path fill="#D80027" d="M3.515 4.426c-4.687 4.686-4.687 12.284 0 16.97L12 12.911 3.515 4.426Z"/>
    <path fill="#F0F0F0" d="m4.764 10.303.658 1.377 1.488-.344-.667 1.373 1.196.949-1.489.335.004 1.527-1.19-.955-1.191.955.004-1.527-1.49-.335 1.197-.949-.666-1.373 1.487.344.659-1.377Z"/>
  </g>
  <defs>
    <clipPath id="a">
      <path fill="#fff" d="M0 .911h24v24H0z"/>
    </clipPath>
  </defs>
</svg>
