<svg xmlns="http://www.w3.org/2000/svg" width="24" height="25" fill="none" viewBox="0 0 24 25">
  <g clip-path="url(#a)">
    <path fill="#D80027" d="M0 12.33c0-6.627 5.373-12 12-12s12 5.373 12 12"/>
    <path fill="#FFDA44" d="m16.174 11.49-1.706.802.909 1.652-1.852-.354-.235 1.87L12 14.085l-1.29 1.377-.235-1.871-1.852.354.909-1.652-1.706-.802 1.706-.802-.909-1.652 1.852.354.235-1.87L12 8.894l1.29-1.376.235 1.871 1.852-.354-.909 1.652 1.706.802ZM15.13 4.243h-2.348a.783.783 0 0 0-1.565 0H8.869c0 .432.377.783.809.783h-.026c0 .432.35.782.782.782 0 .433.35.783.783.783h1.565c.432 0 .783-.35.783-.783.432 0 .782-.35.782-.782h-.026c.433 0 .809-.35.809-.783Z"/>
    <path fill="#F0F0F0" d="M24 12.33c0 6.627-5.373 12-12 12s-12-5.372-12-12h24Z"/>
    <path fill="#0052B4" d="M12 24.33c3.75 0 7.099-1.721 9.3-4.417-.396-.27-.61-.706-1.3-.706-1 0-1 .914-2 .914s-1-.914-2-.914-1 .914-2 .914-1-.914-2-.914-1 .914-2 .914-1-.914-2-.914-1 .914-2 .914-1-.914-2-.914c-.691 0-.905.436-1.3.706A11.976 11.976 0 0 0 12 24.33Zm10-10.47c-1 0-1-.914-2-.914s-1 .915-2 .915-1-.915-2-.915-1 .915-2 .915-1-.915-2-.915-1 .915-2 .915-1-.915-2-.915-1 .915-2 .915-1-.915-2-.915-1 .915-2 .915c-.995 0-1-.905-1.984-.914.027.549.093 1.087.192 1.614.797.117.867.9 1.792.9 1 0 1-.915 2-.915s1 .915 2 .915 1-.915 2-.915 1 .915 2 .915 1-.915 2-.915 1 .915 2 .915 1-.915 2-.915 1 .915 2 .915 1-.915 2-.915 1 .915 2 .915c.925 0 .995-.783 1.792-.9.1-.527.165-1.066.192-1.614-.984.01-.99.914-1.984.914Zm-2 2.217c-1 0-1 .914-2 .914s-1-.914-2-.914-1 .914-2 .914-1-.914-2-.914-1 .914-2 .914-1-.914-2-.914-1 .914-2 .914-1-.914-2-.914-1 .914-2 .914c-.715 0-.919-.467-1.342-.733a11.94 11.94 0 0 0 1.09 2.311c.076.014.16.022.252.022 1 0 1-.914 2-.914s1 .914 2 .914 1-.914 2-.914 1 .914 2 .914 1-.914 2-.914 1 .914 2 .914 1-.914 2-.914 1 .914 2 .914 1-.914 2-.914 1 .914 2 .914c.092 0 .176-.008.252-.022.442-.724.808-1.498 1.09-2.311-.423.266-.628.733-1.342.733-1 0-1-.914-2-.914Z"/>
    <path fill="#F0F0F0" d="M23.963 11.382c-.963.023-.976.913-1.963.913-1 0-1-.914-2-.914s-1 .914-2 .914-1-.914-2-.914-1 .914-2 .914-1-.914-2-.914-1 .914-2 .914-1-.914-2-.914-1 .914-2 .914-1-.914-2-.914-1 .914-2 .914c-.987 0-1-.89-1.963-.913a12.18 12.18 0 0 0-.02 1.6c.983.01.99.913 1.983.913 1 0 1-.914 2-.914s1 .914 2 .914 1-.914 2-.914 1 .914 2 .914 1-.914 2-.914 1 .914 2 .914 1-.914 2-.914 1 .914 2 .914 1-.914 2-.914 1 .914 2 .914c.994 0 1-.902 1.982-.913a12.234 12.234 0 0 0-.02-1.6Z"/>
  </g>
  <defs>
    <clipPath id="a">
      <path fill="#fff" d="M0 .33h24v24H0z"/>
    </clipPath>
  </defs>
</svg>
