<svg xmlns="http://www.w3.org/2000/svg" width="24" height="24" fill="none" viewBox="0 0 24 24">
  <g clip-path="url(#a)">
    <path fill="#F0F0F0" d="M12 24c6.627 0 12-5.373 12-12S18.627 0 12 0 0 5.373 0 12s5.373 12 12 12Z"/>
    <path fill="#0052B4" d="M23.93 13.304 10.77.062c-.594.06-1.175.165-1.74.309C3.839 1.692 0 12 0 12s16.8 11.242 18.716 9.945c.384-.26.752-.54 1.102-.841l-7.8-7.8H23.93Z"/>
    <path fill="#D80027" d="M20.87 12 9.198.33C3.923 1.59 0 6.336 0 12c0 6.627 5.373 12 12 12 2.514 0 4.847-.773 6.775-2.095L8.87 12h12Z"/>
    <path fill="#F0F0F0" d="m11.414 17.718-1.466-.689.78-1.42-1.591.305-.202-1.607-1.108 1.182-1.109-1.183-.201 1.608-1.592-.304.78 1.42-1.465.688 1.466.69-.78 1.42 1.59-.305.202 1.607 1.109-1.182 1.108 1.182.202-1.607 1.591.304-.78-1.42 1.466-.689Zm-.978-11.062L9.37 6.154l.568-1.032-1.158.221-.146-1.17-.807.861-.806-.86-.146 1.17-1.158-.222.568 1.032-1.066.502 2.608.521 2.61-.521Z"/>
    <path fill="#F0F0F0" d="M10.958 6.656a3.13 3.13 0 0 1-6.26 0"/>
  </g>
  <defs>
    <clipPath id="a">
      <path fill="#fff" d="M0 0h24v24H0z"/>
    </clipPath>
  </defs>
</svg>
