<svg xmlns="http://www.w3.org/2000/svg" width="24" height="24" fill="none" viewBox="0 0 24 24">
  <g clip-path="url(#a)">
    <path fill="#0052B4" d="M24 12c0 6.627-5.373 12-12 12S0 18.627 0 12C0 12.003 12 .001 12 0c6.627 0 12 5.373 12 12Z"/>
    <path fill="#F0F0F0" d="M11.969 12H12v-.032l-.032.032Z"/>
    <path fill="#F0F0F0" d="M12 6.26V0h-.002C5.372.001 0 5.373 0 12h6.26V8.474L9.787 12h2.182l.032-.032V9.786L8.474 6.261H12Z"/>
    <path fill="#D80027" d="M6.07 1.565a12.057 12.057 0 0 0-4.506 4.506V12h3.13V4.696H12v-3.13H6.07Z"/>
    <path fill="#D80027" d="M11.999 10.524 7.735 6.261H6.26L11.999 12v-1.476Zm8.781-1.62.26.797h.838l-.678.493.259.797-.678-.492-.678.492.259-.797-.678-.493h.838l.259-.797Zm-2.995 5.739.388 1.196h1.257l-1.017.74.389 1.195-1.017-.74-1.018.74.389-1.196-1.017-.739h1.257l.389-1.196Zm.112-9.391.324.997h1.047l-.847.615.323.997-.847-.616-.848.616.324-.997-.848-.615h1.048l.324-.997ZM15.015 8.87l.388 1.195h1.258l-1.018.74.39 1.195-1.018-.739-1.017.739.388-1.196-1.017-.739h1.257l.389-1.195Z"/>
  </g>
  <defs>
    <clipPath id="a">
      <path fill="#fff" d="M0 0h24v24H0z"/>
    </clipPath>
  </defs>
</svg>
