<svg xmlns="http://www.w3.org/2000/svg" width="24" height="25" fill="none" viewBox="0 0 24 25">
  <g clip-path="url(#a)">
    <path fill="#F0F0F0" d="M12 24.023c6.627 0 12-5.372 12-12 0-6.627-5.373-12-12-12s-12 5.373-12 12c0 6.628 5.373 12 12 12Z"/>
    <path fill="#D80027" d="M12 .023A12 12 0 0 0 1.192 6.806H22.81A12 12 0 0 0 12 .023Z"/>
    <path fill="#0052B4" d="M12 24.023a12 12 0 0 0 10.81-6.782H1.191a12 12 0 0 0 10.81 6.782Z"/>
    <path fill="#6DA544" d="m14.951 8.55-1.106 1.107a2.609 2.609 0 1 1-3.69 0L9.05 8.55a4.174 4.174 0 1 0 5.903 0Z"/>
    <path fill="#FFDA44" d="m12 9.937.388 1.195h1.257l-1.017.74.389 1.195-1.018-.739-1.017.739.389-1.196-1.018-.739h1.258l.388-1.195Z"/>
  </g>
  <defs>
    <clipPath id="a">
      <path fill="#fff" d="M0 .023h24v24H0z"/>
    </clipPath>
  </defs>
</svg>
