<svg xmlns="http://www.w3.org/2000/svg" width="24" height="25" fill="none" viewBox="0 0 24 25">
  <g clip-path="url(#a)">
    <path fill="#FFDA44" d="M12 24.035c6.627 0 12-5.372 12-12 0-6.627-5.373-12-12-12s-12 5.373-12 12c0 6.628 5.373 12 12 12Z"/>
    <path fill="#D80027" d="M13.825 23.897a11.935 11.935 0 0 0 5.271-2.185L12 12.035l1.825 11.862ZM10.176.173a11.937 11.937 0 0 0-5.272 2.185l7.097 9.677L10.176.173ZM4.904 21.712a11.939 11.939 0 0 0 5.272 2.185L12 12.035l-7.097 9.677ZM2.324 4.939A11.937 11.937 0 0 0 .139 10.21L12 12.035 2.324 4.94ZM.139 13.86a11.936 11.936 0 0 0 2.185 5.271L12 12.035.139 13.86Z"/>
    <path fill="#D80027" d="M23.862 10.21a11.937 11.937 0 0 0-2.185-5.271L12 12.035l11.862-1.825Zm-4.766-7.852A11.936 11.936 0 0 0 13.825.173L12 12.035l7.096-9.677Z"/>
    <path fill="#D80027" d="M21.677 19.131a11.937 11.937 0 0 0 2.185-5.27L12 12.034l9.677 7.096Z"/>
    <path fill="#D80027" d="M12 16.209a4.174 4.174 0 1 0 0-8.348 4.174 4.174 0 0 0 0 8.348Z"/>
    <path fill="#FFDA44" d="M12 15.166a3.13 3.13 0 1 0 0-6.261 3.13 3.13 0 0 0 0 6.26Z"/>
  </g>
  <defs>
    <clipPath id="a">
      <path fill="#fff" d="M0 .035h24v24H0z"/>
    </clipPath>
  </defs>
</svg>
