<svg xmlns="http://www.w3.org/2000/svg" width="24" height="25" fill="none" viewBox="0 0 24 25">
  <g clip-path="url(#a)">
    <path fill="#F0F0F0" d="M1.19 6.818A11.953 11.953 0 0 0 0 12.035c0 1.87.428 3.64 1.19 5.218L12 18.296l10.81-1.043A11.953 11.953 0 0 0 24 12.035c0-1.87-.428-3.64-1.19-5.217L12 5.774 1.19 6.818Z"/>
    <path fill="#496E2D" d="M1.191 17.253a12 12 0 0 0 10.81 6.782 12 12 0 0 0 10.808-6.782H1.191Z"/>
    <path fill="#000" d="M1.191 6.818H22.81A12 12 0 0 0 12 .035 12 12 0 0 0 1.191 6.818Z"/>
    <path fill="#D80027" d="M3.515 3.55c-4.687 4.686-4.687 12.284 0 16.97L12 12.035 3.515 3.55Zm11.615 8.485A3.653 3.653 0 0 1 18 8.468a3.652 3.652 0 1 0 0 7.134 3.653 3.653 0 0 1-2.87-3.567Z"/>
    <path fill="#D80027" d="m18.153 9.687.518 1.595h1.677l-1.357.985.519 1.594-1.357-.985-1.356.985.518-1.594-1.356-.985h1.676l.518-1.595Z"/>
  </g>
  <defs>
    <clipPath id="a">
      <path fill="#fff" d="M0 .035h24v24H0z"/>
    </clipPath>
  </defs>
</svg>
