<svg xmlns="http://www.w3.org/2000/svg" width="24" height="25" fill="none" viewBox="0 0 24 25">
  <g clip-path="url(#a)">
    <path fill="#338AF3" d="M24 12.035c0 6.628-5.373 12-12 12s-12-5.372-12-12c.522 0 12-1.565 12-1.565l12 1.565Z"/>
    <path fill="#F0F0F0" d="M0 12.035c0-6.627 5.373-12 12-12s12 5.373 12 12"/>
    <path fill="#6DA544" d="m16.764 8.315-4.763 4.764-4.763-4.764a5.706 5.706 0 0 0-.976 3.198v1.566a5.75 5.75 0 0 0 3.877 5.429c-.3.59-.25 1.325.191 1.875l1.706-1.367 1.705 1.367a1.736 1.736 0 0 0 .18-1.896 5.749 5.749 0 0 0 3.819-5.408v-1.566c0-1.183-.36-2.283-.976-3.198Z"/>
    <path fill="#FFDA44" d="M12 17.253a4.179 4.179 0 0 1-4.174-4.174v-1.566A4.179 4.179 0 0 1 12 7.34a4.179 4.179 0 0 1 4.174 4.174v1.565A4.179 4.179 0 0 1 12 17.253Z"/>
    <path fill="#338AF3" d="M14.608 13.079v-1.566a2.612 2.612 0 0 0-2.609-2.608 2.612 2.612 0 0 0-2.608 2.609v1.565l2.608.521 2.609-.521Z"/>
    <path fill="#6DA544" d="M9.39 13.079A2.612 2.612 0 0 0 12 15.687a2.612 2.612 0 0 0 2.608-2.608H9.391Z"/>
    <path fill="#FFDA44" d="M15.13 7.34a1.565 1.565 0 0 0-2.609-1.167v-.92h.522V4.209h-.522v-.522h-1.043v.522h-.522v1.044h.522v.92A1.565 1.565 0 0 0 9.39 8.506v.92h5.217v-.92c.32-.287.522-.703.522-1.166Z"/>
  </g>
  <defs>
    <clipPath id="a">
      <path fill="#fff" d="M0 .035h24v24H0z"/>
    </clipPath>
  </defs>
</svg>
