<svg xmlns="http://www.w3.org/2000/svg" width="24" height="25" fill="none" viewBox="0 0 24 25">
  <g clip-path="url(#a)">
    <path fill="#FFDA44" d="M12 24.047c6.627 0 12-5.373 12-12 0-6.628-5.373-12-12-12s-12 5.372-12 12c0 6.627 5.373 12 12 12Z"/>
    <path fill="#6DA544" d="M7.305 7.873h15.95C21.558 3.303 17.16.047 12 .047a11.96 11.96 0 0 0-8.485 3.515l3.789 4.311Zm0 8.347h15.95C21.558 20.79 17.16 24.048 12 24.048a11.961 11.961 0 0 1-8.485-3.515l3.789-4.311Z"/>
    <path fill="#D80027" d="M3.515 3.562c-4.687 4.686-4.687 12.284 0 16.97L12 12.047 3.515 3.562Z"/>
    <path fill="#000" d="m15.237 9.96.518 1.594h1.677l-1.356.986.517 1.594-1.356-.986-1.356.986.518-1.594-1.356-.986h1.676l.518-1.594Zm5.219 0 .518 1.594h1.676l-1.356.986.518 1.594-1.356-.986-1.356.986.518-1.594-1.356-.986h1.676l.518-1.594Z"/>
  </g>
  <defs>
    <clipPath id="a">
      <path fill="#fff" d="M0 .047h24v24H0z"/>
    </clipPath>
  </defs>
</svg>
