<svg xmlns="http://www.w3.org/2000/svg" width="24" height="25" fill="none" viewBox="0 0 24 25">
  <g clip-path="url(#a)">
    <path fill="#6DA544" d="M12 24.047c6.627 0 12-5.373 12-12 0-6.628-5.373-12-12-12s-12 5.372-12 12c0 6.627 5.373 12 12 12Z"/>
    <path fill="#F0F0F0" d="M6.783 14.395c0 .864.701 1.565 1.565 1.565h4.696c0 .72.584 1.304 1.304 1.304h1.566c.72 0 1.304-.584 1.304-1.304v-1.565H6.783ZM17.348 6.83v3.652c0 .575-.468 1.043-1.043 1.043v1.565a2.612 2.612 0 0 0 2.608-2.608V6.829h-1.565ZM6.131 10.482c0 .575-.468 1.043-1.043 1.043v1.565a2.612 2.612 0 0 0 2.609-2.608V6.829H6.13v3.653Z"/>
    <path fill="#F0F0F0" d="M15 6.83h1.565v3.652H15V6.829Zm-2.348 2.086a.261.261 0 0 1-.521 0V6.83h-1.566v2.087a.261.261 0 0 1-.521 0V6.83H8.479v2.087a1.828 1.828 0 0 0 2.869 1.498 1.816 1.816 0 0 0 1.274.313c-.11.457-.522.798-1.013.798v1.565a2.612 2.612 0 0 0 2.609-2.608V6.829h-1.566v2.087Z"/>
    <path fill="#F0F0F0" d="M8.479 11.525h2.347v1.565H8.48v-1.565Z"/>
  </g>
  <defs>
    <clipPath id="a">
      <path fill="#fff" d="M0 .047h24v24H0z"/>
    </clipPath>
  </defs>
</svg>
