<svg xmlns="http://www.w3.org/2000/svg" width="24" height="25" fill="none" viewBox="0 0 24 25">
  <g clip-path="url(#a)">
    <path fill="#F0F0F0" d="M12 24.058c6.627 0 12-5.373 12-12 0-6.628-5.373-12-12-12s-12 5.372-12 12c0 6.627 5.373 12 12 12Z"/>
    <path fill="#D80027" d="M16.174 12.058c0 1.043-1.869 3.652-4.174 3.652-2.305 0-4.174-2.609-4.174-3.652a4.174 4.174 0 1 1 8.348 0Z"/>
    <path fill="#0052B4" d="M16.174 12.058a4.174 4.174 0 0 1-8.348 0"/>
    <path fill="#000" d="m16.424 15.747 1.106-1.107.738.738-1.106 1.107-.738-.738Zm-1.846 1.844 1.107-1.106.737.738-1.106 1.106-.738-.738Zm4.059.369 1.106-1.106.738.737-1.107 1.107-.737-.738Zm-1.844 1.845 1.107-1.107.737.738-1.106 1.107-.738-.738Zm.738-2.951 1.107-1.107.738.738-1.107 1.106-.738-.737Zm-1.846 1.844 1.107-1.107.738.738-1.107 1.107-.737-.738ZM18.643 8.37l-2.951-2.95.737-.738 2.951 2.95-.737.738Zm-2.952-.737-1.106-1.107.737-.737 1.107 1.106-.738.738Zm1.844 1.845L16.43 8.37l.737-.738 1.107 1.107-.738.738Zm.369-4.058-1.106-1.107.737-.738 1.107 1.106-.738.738Zm1.844 1.844-1.107-1.106.738-.738 1.107 1.106-.738.738ZM4.254 16.852l2.95 2.95-.737.738-2.95-2.95.737-.738Zm2.951.737 1.107 1.106-.738.738-1.107-1.107.738-.737Zm-1.844-1.844 1.107 1.106-.738.738-1.106-1.106.737-.738Zm1.106-1.107 2.95 2.95-.737.738-2.95-2.95.737-.738ZM7.205 4.31l-2.95 2.951-.739-.737 2.951-2.951.738.737ZM8.31 5.417l-2.95 2.95-.738-.737 2.95-2.951.739.738Zm1.11 1.107L6.469 9.475l-.738-.738 2.951-2.95.738.737Z"/>
  </g>
  <defs>
    <clipPath id="a">
      <path fill="#fff" d="M0 .058h24v24H0z"/>
    </clipPath>
  </defs>
</svg>
