<svg xmlns="http://www.w3.org/2000/svg" width="24" height="25" fill="none" viewBox="0 0 24 25">
  <g clip-path="url(#a)">
    <path fill="#F0F0F0" d="M1.19 6.853A11.952 11.952 0 0 0 0 12.07c0 1.87.428 3.64 1.19 5.218L12 18.33l10.81-1.043A11.953 11.953 0 0 0 24 12.07c0-1.87-.428-3.64-1.19-5.217L12 5.809 1.19 6.853Z"/>
    <path fill="#000" d="M1.191 17.288a12 12 0 0 0 10.81 6.782 12 12 0 0 0 10.808-6.782H1.191Z"/>
    <path fill="#D80027" d="M1.191 6.853H22.81A12 12 0 0 0 12 .07 12 12 0 0 0 1.191 6.853Z"/>
    <path fill="#496E2D" d="M3.515 3.585c-4.687 4.686-4.687 12.284 0 16.97L12 12.07 3.515 3.585Z"/>
  </g>
  <defs>
    <clipPath id="a">
      <path fill="#fff" d="M0 .07h24v24H0z"/>
    </clipPath>
  </defs>
</svg>
