<svg xmlns="http://www.w3.org/2000/svg" width="24" height="25" fill="none" viewBox="0 0 24 25">
  <g clip-path="url(#a)">
    <path fill="#F0F0F0" d="M6.497 1.823a11.993 11.993 0 0 0-2.983 2.182c-.9.9-1.628 1.909-2.182 2.983l7.716 8.454 8.454 7.716a11.994 11.994 0 0 0 2.983-2.182c.9-.9 1.628-1.91 2.182-2.983l-7.716-8.454-8.454-7.716Z"/>
    <path fill="#000" d="M20.485 20.976a12.1 12.1 0 0 0 1.348-1.604L5.117 2.657a12.07 12.07 0 0 0-2.952 2.952L18.88 22.323c.563-.395 1.1-.844 1.604-1.347Z"/>
    <path fill="#D80027" d="M3.514 20.976c3.786 3.786 9.472 4.512 13.988 2.182L1.332 6.988C-.997 11.504-.27 17.19 3.515 20.976ZM20.486 4.005C16.7.219 11.014-.508 6.498 1.823l16.17 16.17c2.33-4.517 1.604-10.202-2.182-13.988Z"/>
  </g>
  <defs>
    <clipPath id="a">
      <path fill="#fff" d="M0 .49h24v24H0z"/>
    </clipPath>
  </defs>
</svg>
