<svg xmlns="http://www.w3.org/2000/svg" width="24" height="25" fill="none" viewBox="0 0 24 25">
  <g clip-path="url(#a)">
    <path fill="#D80027" d="M12 24.491c6.627 0 12-5.372 12-12 0-6.627-5.373-12-12-12s-12 5.373-12 12c0 6.628 5.373 12 12 12Z"/>
    <path fill="#F0F0F0" d="m11.51 10.297.984 1.356 1.595-.517-.986 1.356.984 1.357-1.594-.52-.986 1.356.001-1.676-1.594-.519 1.595-.517v-1.676Z"/>
    <path fill="#F0F0F0" d="M8.822 15.883a3.391 3.391 0 1 1 1.613-6.375 4.174 4.174 0 1 0 0 5.967c-.48.26-1.029.408-1.613.408Z"/>
  </g>
  <defs>
    <clipPath id="a">
      <path fill="#fff" d="M0 .491h24v24H0z"/>
    </clipPath>
  </defs>
</svg>
