<svg xmlns="http://www.w3.org/2000/svg" width="24" height="25" fill="none" viewBox="0 0 24 25">
  <g clip-path="url(#a)">
    <path fill="#F0F0F0" d="M12 24.91c6.627 0 12-5.372 12-12 0-6.627-5.373-12-12-12s-12 5.373-12 12c0 6.628 5.373 12 12 12Z"/>
    <path fill="#0052B4" d="M2.481 5.604A11.956 11.956 0 0 0 .414 9.78h6.243L2.48 5.604ZM23.586 9.78a11.957 11.957 0 0 0-2.067-4.176L17.344 9.78h6.242ZM.414 16.04a11.956 11.956 0 0 0 2.067 4.176l4.176-4.175H.414ZM19.306 3.39a11.957 11.957 0 0 0-4.175-2.067v6.243l4.175-4.175ZM4.695 22.43a11.96 11.96 0 0 0 4.176 2.067v-6.243l-4.176 4.175ZM8.87 1.323a11.957 11.957 0 0 0-4.175 2.068l4.176 4.175V1.323Zm6.26 23.174a11.96 11.96 0 0 0 4.176-2.068l-4.175-4.175v6.243Zm2.214-8.457 4.175 4.176a11.957 11.957 0 0 0 2.067-4.175h-6.242Z"/>
    <path fill="#D80027" d="M23.898 11.345H13.565V1.012a12.121 12.121 0 0 0-3.13 0v10.333H.102a12.12 12.12 0 0 0 0 3.13h10.333V24.81a12.12 12.12 0 0 0 3.13 0V14.475h10.333a12.12 12.12 0 0 0 0-3.13Z"/>
    <path fill="#D80027" d="m15.13 16.04 5.356 5.355c.246-.246.48-.503.705-.77l-4.584-4.584H15.13Zm-6.26 0-5.354 5.355c.246.247.503.482.77.706l4.584-4.585v-1.475Zm-.001-6.26L3.514 4.425a12.03 12.03 0 0 0-.705.77L7.393 9.78H8.87Zm6.261 0 5.356-5.355a12.023 12.023 0 0 0-.77-.705L15.13 8.304V9.78Z"/>
  </g>
  <defs>
    <clipPath id="a">
      <path fill="#fff" d="M0 .91h24v24H0z"/>
    </clipPath>
  </defs>
</svg>
