<svg xmlns="http://www.w3.org/2000/svg" width="24" height="25" fill="none" viewBox="0 0 24 25">
  <g clip-path="url(#a)">
    <path fill="#338AF3" d="M12 24.91c6.627 0 12-5.372 12-12 0-6.627-5.373-12-12-12s-12 5.373-12 12c0 6.628 5.373 12 12 12Z"/>
    <path fill="#F0F0F0" d="M11.967 8.736a4.174 4.174 0 1 0 0 8.348 4.174 4.174 0 0 0 0-8.348Zm-1.044 4.174a1.043 1.043 0 1 1 2.087 0 1.043 1.043 0 0 1-2.087 0Zm2.126-1.785a2.075 2.075 0 0 0-.526-.226V9.83a3.11 3.11 0 0 1 1.277.543l-.751.752Zm-1.57-.244c-.195.047-.38.121-.55.219l-.755-.755a3.113 3.113 0 0 1 1.306-.527v1.063Zm-.55 3.84c.17.097.355.171.55.218v1.064a3.112 3.112 0 0 1-1.305-.527l.755-.756Zm1.594.2c.187-.051.364-.127.526-.226l.751.752c-.372.27-.806.459-1.277.543v-1.069Zm1.254-.973c.092-.16.164-.333.211-.516h1.065c-.078.467-.26.899-.52 1.271l-.756-.755Zm.211-1.56a2.072 2.072 0 0 0-.21-.516l.754-.755c.261.373.443.804.521 1.271h-1.065ZM9.43 11.077l.752.751c-.105.172-.185.36-.236.56H8.88c.08-.484.273-.93.55-1.311Zm-.55 2.355h1.066c.051.2.131.388.236.56l-.752.752a3.112 3.112 0 0 1-.55-1.312Z"/>
    <path fill="#F0F0F0" d="M18.749 12.91a6.76 6.76 0 0 0-1.952-4.76L15.69 9.255a5.217 5.217 0 1 1-7.413-.035L7.17 8.114a6.786 6.786 0 0 0 2.944 11.323 1.736 1.736 0 0 0 .181 1.895l1.706-1.367 1.706 1.367c.45-.562.494-1.317.171-1.913a6.785 6.785 0 0 0 4.87-6.509Z"/>
  </g>
  <defs>
    <clipPath id="a">
      <path fill="#fff" d="M0 .91h24v24H0z"/>
    </clipPath>
  </defs>
</svg>
