<svg xmlns="http://www.w3.org/2000/svg" width="24" height="25" fill="none" viewBox="0 0 24 25">
  <g clip-path="url(#a)">
    <path fill="#F0F0F0" d="M12 24.911c6.627 0 12-5.373 12-12s-5.373-12-12-12-12 5.373-12 12 5.373 12 12 12Z"/>
    <path fill="#338AF3" d="M12 9.78h11.587a11.932 11.932 0 0 0-1.348-3.13H12v3.13ZM4.53 22.302h14.94a12.059 12.059 0 0 0 2.77-3.13H1.761a12.062 12.062 0 0 0 2.769 3.13ZM12 .911V3.52h7.47A11.949 11.949 0 0 0 12 .91Z"/>
    <path fill="#338AF3" d="M12 9.78h11.587a11.932 11.932 0 0 0-1.348-3.13H12v3.13ZM0 12.911c0 1.083.144 2.132.413 3.13h23.174a12.01 12.01 0 0 0 .413-3.13H0Z"/>
    <path fill="#FFDA44" d="m10.435 7.934-1.466.69.78 1.419-1.59-.305-.202 1.608-1.109-1.182-1.108 1.182-.202-1.608-1.591.305.78-1.42-1.465-.69 1.465-.688-.78-1.42 1.591.305.202-1.608 1.108 1.182 1.109-1.182.201 1.608 1.592-.305-.78 1.42 1.465.689Z"/>
  </g>
  <defs>
    <clipPath id="a">
      <path fill="#fff" d="M0 .911h24v24H0z"/>
    </clipPath>
  </defs>
</svg>
