<svg xmlns="http://www.w3.org/2000/svg" width="24" height="25" fill="none" viewBox="0 0 24 25">
  <g clip-path="url(#a)">
    <path fill="#F0F0F0" d="M12 24.023c6.627 0 12-5.372 12-12 0-6.627-5.373-12-12-12s-12 5.373-12 12c0 6.628 5.373 12 12 12Z"/>
    <path fill="#FFDA44" d="M22.851 6.895a12.029 12.029 0 0 0-2.447-3.436L12 2.632l-8.405.827-.08.08 3.357 3.356L12 7.052l10.851-.157ZM3.516 20.508l.133.132 8.351.775 8.351-.775a12.031 12.031 0 0 0 2.476-3.437L7.304 16.72l-3.788 3.789Z"/>
    <path fill="#000" d="M23.88 10.332 9.912 9.937 12 12.024 9.912 14.11l13.96-.343a12.086 12.086 0 0 0 .008-3.437Z"/>
    <path fill="#6DA544" d="M12 .023A11.96 11.96 0 0 0 3.596 3.46h16.81A11.96 11.96 0 0 0 12 .023Z"/>
    <path fill="#D80027" d="M10.31 10.332h13.572a11.917 11.917 0 0 0-1.03-3.436H6.873l3.436 3.436Zm-3.49 6.872h16.008c.511-1.068.87-2.223 1.046-3.436H10.256L6.82 17.204Z"/>
    <path fill="#6DA544" d="M12 24.023c3.246 0 6.19-1.29 8.35-3.383H3.649A11.959 11.959 0 0 0 12 24.023Z"/>
    <path fill="#000" d="M4.286 2.833c-.267.224-.524.459-.77.705L12 12.024l-8.485 8.485c.246.246.503.48.77.705l9.19-9.19-9.19-9.191Z"/>
    <path fill="#D80027" d="m4.825 8.893.777 2.391h2.514l-2.034 1.478.777 2.392-2.034-1.478-2.035 1.478.777-2.392-2.034-1.478h2.515l.777-2.391Z"/>
    <path fill="#FFDA44" d="m6.962 12.22-2.025-.718s-.15-1.404-.159-1.451a.783.783 0 1 0-1.523.353l-.567.572h1.009c0 1.047-.782 1.047-.782 2.091l.434 1.043h2.609l.434-1.043c.044-.1.07-.203.081-.307.375-.151.489-.54.489-.54Z"/>
  </g>
  <defs>
    <clipPath id="a">
      <path fill="#fff" d="M0 .023h24v24H0z"/>
    </clipPath>
  </defs>
</svg>
