<svg xmlns="http://www.w3.org/2000/svg" width="24" height="24" fill="none" viewBox="0 0 24 24">
  <path fill="#0A090B" fill-rule="evenodd" d="M8.627 0a4.629 4.629 0 0 0-2.796 8.314A4.62 4.62 0 0 0 4 12a4.62 4.62 0 0 0 1.831 3.686A4.629 4.629 0 0 0 8.627 24a4.629 4.629 0 0 0 4.628-4.627v-3.649a4.629 4.629 0 0 0 5.542-7.41A4.629 4.629 0 0 0 16 0H8.626ZM5.882 4.627a2.747 2.747 0 0 1 2.745-2.745h2.746v5.49H8.617a2.747 2.747 0 0 1-2.735-2.745Zm7.373 2.746V1.882H16a2.747 2.747 0 0 1 2.746 2.745 2.747 2.747 0 0 1-2.737 2.746h-2.754ZM5.881 12a2.747 2.747 0 0 1 2.737-2.746h2.754v5.491H8.627A2.747 2.747 0 0 1 5.882 12ZM16 9.254h.008A2.748 2.748 0 0 1 18.746 12 2.747 2.747 0 0 1 16 14.746a2.747 2.747 0 0 1-2.745-2.71v-.072a2.747 2.747 0 0 1 2.733-2.71H16ZM5.882 19.373a2.747 2.747 0 0 1 2.745-2.746h2.746v2.746a2.747 2.747 0 0 1-2.746 2.745 2.747 2.747 0 0 1-2.745-2.745Z" clip-rule="evenodd"/>
</svg>
