<svg xmlns="http://www.w3.org/2000/svg" width="24" height="24" fill="none" viewBox="0 0 24 24">
  <g clip-path="url(#a)">
    <path fill="url(#b)" d="M4.505 1.088a5.665 5.665 0 0 0-2.044 1.33 5.638 5.638 0 0 0-1.33 2.04c-.287.731-.479 1.57-.535 2.798-.057 1.228-.07 1.622-.07 4.753 0 3.132.013 3.525.07 4.754.056 1.228.253 2.067.534 2.798a5.66 5.66 0 0 0 1.331 2.044 5.654 5.654 0 0 0 2.044 1.331c.731.286 1.57.478 2.799.534 1.228.057 1.621.07 4.753.07 3.13 0 3.525-.013 4.753-.07 1.228-.056 2.067-.253 2.798-.534a5.654 5.654 0 0 0 2.044-1.331 5.655 5.655 0 0 0 1.331-2.044c.286-.731.478-1.57.535-2.798.056-1.229.07-1.622.07-4.754 0-3.13-.014-3.525-.07-4.753-.057-1.228-.253-2.067-.535-2.798a5.686 5.686 0 0 0-1.326-2.04 5.653 5.653 0 0 0-2.044-1.33c-.731-.286-1.57-.479-2.799-.535-1.228-.056-1.621-.07-4.753-.07-3.13 0-3.525.014-4.753.07-1.233.052-2.072.249-2.803.535Zm12.211 1.537c1.125.052 1.734.24 2.142.399.54.21.924.459 1.327.862.403.403.651.788.862 1.327.16.407.347 1.017.399 2.142.056 1.214.065 1.58.065 4.66 0 3.079-.014 3.444-.065 4.659-.052 1.125-.24 1.734-.399 2.142a3.59 3.59 0 0 1-.862 1.326 3.594 3.594 0 0 1-1.327.863c-.408.16-1.017.347-2.142.398-1.214.056-1.58.066-4.66.066-3.079 0-3.445-.014-4.659-.066-1.125-.051-1.734-.239-2.142-.398a3.593 3.593 0 0 1-1.326-.863 3.591 3.591 0 0 1-.863-1.326c-.16-.408-.347-1.017-.398-2.142-.057-1.214-.066-1.58-.066-4.66s.014-3.445.066-4.66c.051-1.124.239-1.734.398-2.141.21-.54.46-.924.863-1.327a3.592 3.592 0 0 1 1.326-.862c.408-.16 1.017-.347 2.142-.399 1.214-.056 1.58-.066 4.66-.066s3.445.01 4.659.066Z"/>
    <path fill="url(#c)" d="M6.137 12.014a5.92 5.92 0 1 0 11.84 0 5.92 5.92 0 0 0-11.84 0Zm9.764 0a3.843 3.843 0 1 1-7.688 0 3.843 3.843 0 1 1 7.688 0Z"/>
    <path fill="#654C9F" d="M18.217 7.242a1.383 1.383 0 1 0 0-2.765 1.383 1.383 0 0 0 0 2.765Z"/>
  </g>
  <defs>
    <radialGradient id="b" cx="0" cy="0" r="1" gradientTransform="matrix(33.2971 -1.74503 1.48326 28.30226 .945 21.43)" gradientUnits="userSpaceOnUse">
      <stop stop-color="#FED576"/>
      <stop offset=".263" stop-color="#F47133"/>
      <stop offset=".609" stop-color="#BC3081"/>
      <stop offset="1" stop-color="#4C63D2"/>
    </radialGradient>
    <radialGradient id="c" cx="0" cy="0" r="1" gradientTransform="rotate(-3 324.877 -112.848) scale(17.122 14.5535)" gradientUnits="userSpaceOnUse">
      <stop stop-color="#FED576"/>
      <stop offset=".263" stop-color="#F47133"/>
      <stop offset=".609" stop-color="#BC3081"/>
      <stop offset="1" stop-color="#4C63D2"/>
    </radialGradient>
    <clipPath id="a">
      <path fill="#fff" d="M0 0h24v24H0z"/>
    </clipPath>
  </defs>
</svg>
