<svg xmlns="http://www.w3.org/2000/svg" width="24" height="24" fill="none" viewBox="0 0 24 24">
  <path fill="#0A090B" stroke="#000" d="m20.313 5.214-.399-.485-.383.497c-.192.248-1.845 2.387-5.507 3.877l-.495.201.234.48c.231.476.462.976.666 1.46v.003c.022.049.048.114.077.186.048.12.103.257.15.36l.154.332.363-.045c3.235-.408 6.46.22 6.942.313l.034.007.6.115-.006-.612a10.702 10.702 0 0 0-2.43-6.689Zm-1.11-.58.256-.366-.334-.295A10.727 10.727 0 0 0 12 1.27c-.87 0-1.715.095-2.523.287l-.734.174.446.608.013.018a54.84 54.84 0 0 1 3.777 5.925l.208.382.407-.152c3.76-1.41 5.384-3.556 5.61-3.878ZM8.04 2.434l-.245-.327-.369.174C4.425 3.7 2.173 6.47 1.476 9.802l-.126.603h.643c.587 0 4.805.004 9.576-1.267l.624-.166-.317-.563C10.158 5.367 8.323 2.81 8.04 2.433ZM1.759 11.2l-.515-.015v.828c0 2.758 1.052 5.284 2.757 7.18l.453.503.348-.58c.226-.376 2.955-4.888 8.05-6.534l.19-.056.208-.06.544-.163-.23-.52a31.066 31.066 0 0 0-.848-1.772l-.191-.366-.396.12C7.09 11.276 2.18 11.212 1.76 11.2Zm3.504 8.677-.175.363.318.248A10.678 10.678 0 0 0 12 22.756c1.487 0 2.908-.3 4.207-.861l.362-.156-.068-.389c-.159-.914-.751-4.086-2.213-7.864l-.198-.513-.473.236a.662.662 0 0 0-.046.018c-5.932 2.08-8.092 6.205-8.308 6.651Zm11.957.703.128.766.645-.433c2.414-1.624 4.136-4.204 4.6-7.197l.066-.418-.401-.133c-.387-.13-3.287-.988-6.614-.463l-.6.095.208.57c1.327 3.646 1.868 6.608 1.968 7.213ZM.5 12C.5 5.651 5.651.5 12 .5 18.336.5 23.5 5.652 23.5 12S18.336 23.5 12 23.5C5.651 23.5.5 18.349.5 12Z"/>
</svg>
