<svg xmlns="http://www.w3.org/2000/svg" width="24" height="24" fill="none" viewBox="0 0 24 24">
  <g clip-path="url(#a)">
    <path fill="#4285F4" d="M23.766 12.277c0-.816-.066-1.636-.207-2.439H12.24v4.621h6.482a5.554 5.554 0 0 1-2.399 3.647v2.998h3.867c2.271-2.09 3.576-5.177 3.576-8.827Z"/>
    <path fill="#34A853" d="M12.24 24c3.236 0 5.965-1.062 7.954-2.896l-3.867-2.998c-1.076.731-2.465 1.146-4.084 1.146-3.13 0-5.785-2.112-6.737-4.952h-3.99v3.091a12.002 12.002 0 0 0 10.723 6.61Z"/>
    <path fill="#FBBC04" d="M5.503 14.3a7.188 7.188 0 0 1 0-4.594V6.615H1.517a12.01 12.01 0 0 0 0 10.776l3.986-3.09Z"/>
    <path fill="#EA4335" d="M12.24 4.75a6.521 6.521 0 0 1 4.603 1.799l3.425-3.426A11.533 11.533 0 0 0 12.24 0 11.998 11.998 0 0 0 1.516 6.615l3.986 3.09C6.45 6.863 9.108 4.75 12.239 4.75Z"/>
  </g>
  <defs>
    <clipPath id="a">
      <path fill="#fff" d="M0 0h24v24H0z"/>
    </clipPath>
  </defs>
</svg>
