<svg xmlns="http://www.w3.org/2000/svg" width="24" height="24" fill="none" viewBox="0 0 24 24">
  <g clip-path="url(#a)">
    <path fill="#FF4500" d="M12 24c6.627 0 12-5.373 12-12S18.627 0 12 0 0 5.373 0 12s5.373 12 12 12Z"/>
    <path fill="#fff" d="M20 12c0-.968-.787-1.754-1.755-1.754-.477 0-.898.182-1.207.49-1.193-.855-2.85-1.417-4.674-1.487l.8-3.747 2.597.547a1.25 1.25 0 0 0 2.498-.056c0-.688-.561-1.25-1.25-1.25-.49 0-.912.282-1.108.703l-2.905-.618a.35.35 0 0 0-.239.042.342.342 0 0 0-.14.197l-.884 4.182c-1.867.056-3.537.604-4.744 1.488a1.77 1.77 0 0 0-1.207-.491c-.969 0-1.755.786-1.755 1.754 0 .716.421 1.32 1.039 1.6a3.28 3.28 0 0 0-.042.533c0 2.695 3.13 4.87 7.003 4.87 3.874 0 7.004-2.175 7.004-4.87 0-.182-.014-.35-.042-.519A1.816 1.816 0 0 0 19.999 12ZM8 13.25c0-.69.56-1.25 1.247-1.25s1.25.561 1.25 1.25c0 .687-.562 1.248-1.25 1.248a1.252 1.252 0 0 1-1.249-1.249Zm6.975 3.297c-.856.857-2.484.913-2.962.913-.477 0-2.119-.07-2.961-.913a.33.33 0 0 1 0-.463.33.33 0 0 1 .463 0c.533.534 1.684.73 2.512.73.828 0 1.965-.196 2.513-.73a.33.33 0 0 1 .463 0 .361.361 0 0 1-.028.463Zm-.225-2.049a1.251 1.251 0 0 1-1.249-1.249c0-.688.561-1.249 1.25-1.249.687 0 1.248.561 1.248 1.25 0 .687-.561 1.248-1.249 1.248Z"/>
  </g>
  <defs>
    <clipPath id="a">
      <path fill="#fff" d="M0 0h24v24H0z"/>
    </clipPath>
  </defs>
</svg>
