<svg xmlns="http://www.w3.org/2000/svg" width="24" height="24" fill="none" viewBox="0 0 24 24">
  <g clip-path="url(#a)">
    <path fill="#FF0302" d="M23.522 6.185A3.017 3.017 0 0 0 21.4 4.05c-1.877-.505-9.377-.505-9.377-.505s-7.5 0-9.376.505A3.016 3.016 0 0 0 .525 6.185C.023 8.07.023 12 .023 12s0 3.93.502 5.814a3.016 3.016 0 0 0 2.122 2.136c1.876.505 9.376.505 9.376.505s7.5 0 9.377-.505a3.017 3.017 0 0 0 2.122-2.136c.501-1.884.501-5.814.501-5.814s0-3.93-.501-5.815Z"/>
    <path fill="#FEFEFE" d="M9.568 15.569V8.43L15.841 12l-6.273 3.569Z"/>
  </g>
  <defs>
    <clipPath id="a">
      <path fill="#fff" d="M0 0h24v24H0z"/>
    </clipPath>
  </defs>
</svg>
