<svg xmlns="http://www.w3.org/2000/svg"
     fill="currentColor"
     viewBox="0 0 24 24">
    <path fill="#000"
          d="m16.562 2.787-.725.69.725-.69ZM18 4.2l.667-.745L18 4.2Zm1.47 1.455-.72.694.72-.694Zm.33.823h-1 1ZM4.2 4.8h-1 1ZM2.4 14a1 1 0 1 0 0 2v-2Zm19.2 2a1 1 0 1 0 0-2v2ZM3.2 10.2a1 1 0 1 0 2 0h-2Zm15.6 0a1 1 0 1 0 2 0h-2Zm-13.6 9a1 1 0 1 0-2 0h2Zm-2 2.4a1 1 0 1 0 2 0h-2Zm10.4-2.4a1 1 0 1 0-2 0h2Zm-2 2.4a1 1 0 1 0 2 0h-2ZM22 19.2a1 1 0 1 0-2 0h2Zm-2 2.4a1 1 0 1 0 2 0h-2ZM9.4 19.2a1 1 0 1 0-2 0h2Zm-2 1.2a1 1 0 1 0 2 0h-2Zm10.4-1.2a1 1 0 1 0-2 0h2Zm-2 1.2a1 1 0 1 0 2 0h-2Zm-9.2-17H15v-2H6.6v2Zm8.4 0h.67v-2H15v2Zm.837.076c.356.375.932.964 1.497 1.47l1.333-1.491a25.513 25.513 0 0 1-1.38-1.357l-1.45 1.378Zm1.497 1.47c.386.345 1.018.99 1.416 1.403l1.44-1.388c-.39-.404-1.072-1.103-1.523-1.506l-1.333 1.49ZM20.8 6.477a2.18 2.18 0 0 0-.61-1.517l-1.44 1.388c.03.031.05.076.05.129h2ZM15.67 3.4c.055 0 .117.023.167.076l1.45-1.378A2.234 2.234 0 0 0 15.67 1.4v2Zm-9.07-2a3.4 3.4 0 0 0-3.4 3.4h2a1.4 1.4 0 0 1 1.4-1.4v-2Zm7.4 1V6h2V2.4h-2Zm2.2 5.8h3.6v-2h-3.6v2ZM14 6a2.2 2.2 0 0 0 2.2 2.2v-2A.2.2 0 0 1 16 6h-2ZM2.4 16h19.2v-2H2.4v2Zm.8-11.2v5.4h2V4.8h-2Zm15.6 1.678V7.2h2v-.722h-2Zm0 .722v3h2v-3h-2Zm-15.6 12v2.4h2v-2.4h-2Zm8.4 0v2.4h2v-2.4h-2Zm8.4 0v2.4h2v-2.4h-2Zm-12.6 0v1.2h2v-1.2h-2Zm8.4 0v1.2h2v-1.2h-2Z" />
</svg>