<svg xmlns="http://www.w3.org/2000/svg"
     fill="currentColor"
     viewBox="0 0 24 24">
    <path stroke="currentColor"
          stroke-width="2"
          d="M2.4 3.6a1.2 1.2 0 0 1 1.2-1.2H6a1.2 1.2 0 0 1 1.2 1.2V6A1.2 1.2 0 0 1 6 7.2H3.6A1.2 1.2 0 0 1 2.4 6V3.6Zm7.2 0a1.2 1.2 0 0 1 1.2-1.2h2.4a1.2 1.2 0 0 1 1.2 1.2V6a1.2 1.2 0 0 1-1.2 1.2h-2.4A1.2 1.2 0 0 1 9.6 6V3.6Zm7.2 0A1.2 1.2 0 0 1 18 2.4h2.4a1.2 1.2 0 0 1 1.2 1.2V6a1.2 1.2 0 0 1-1.2 1.2H18A1.2 1.2 0 0 1 16.8 6V3.6ZM2.4 10.8a1.2 1.2 0 0 1 1.2-1.2H6a1.2 1.2 0 0 1 1.2 1.2v2.4A1.2 1.2 0 0 1 6 14.4H3.6a1.2 1.2 0 0 1-1.2-1.2v-2.4Zm7.2 0a1.2 1.2 0 0 1 1.2-1.2h2.4a1.2 1.2 0 0 1 1.2 1.2v2.4a1.2 1.2 0 0 1-1.2 1.2h-2.4a1.2 1.2 0 0 1-1.2-1.2v-2.4Zm7.2 0A1.2 1.2 0 0 1 18 9.6h2.4a1.2 1.2 0 0 1 1.2 1.2v2.4a1.2 1.2 0 0 1-1.2 1.2H18a1.2 1.2 0 0 1-1.2-1.2v-2.4ZM2.4 18a1.2 1.2 0 0 1 1.2-1.2H6A1.2 1.2 0 0 1 7.2 18v2.4A1.2 1.2 0 0 1 6 21.6H3.6a1.2 1.2 0 0 1-1.2-1.2V18Zm7.2 0a1.2 1.2 0 0 1 1.2-1.2h2.4a1.2 1.2 0 0 1 1.2 1.2v2.4a1.2 1.2 0 0 1-1.2 1.2h-2.4a1.2 1.2 0 0 1-1.2-1.2V18Zm7.2 0a1.2 1.2 0 0 1 1.2-1.2h2.4a1.2 1.2 0 0 1 1.2 1.2v2.4a1.2 1.2 0 0 1-1.2 1.2H18a1.2 1.2 0 0 1-1.2-1.2V18Z" />
</svg>