<svg xmlns="http://www.w3.org/2000/svg"
     fill="currentColor"
     viewBox="0 0 24 24">
    <path stroke="currentColor"
          stroke-linecap="round"
          stroke-linejoin="round"
          stroke-width="2"
          d="M15.2 19.2a2.4 2.4 0 0 1-2.4 2.4h-8a2.4 2.4 0 0 1-2.4-2.4v-8a2.4 2.4 0 0 1 2.4-2.4h8a2.4 2.4 0 0 1 2.4 2.4v8Z" />
    <path stroke="currentColor"
          stroke-linecap="round"
          stroke-linejoin="round"
          stroke-width="2"
          d="M21.6 12.8a2.4 2.4 0 0 1-2.4 2.4h-8a2.4 2.4 0 0 1-2.4-2.4v-8a2.4 2.4 0 0 1 2.4-2.4h8a2.4 2.4 0 0 1 2.4 2.4v8Z" />
</svg>