<svg xmlns="http://www.w3.org/2000/svg"
     fill="currentColor"
     viewBox="0 0 24 24">
    <path fill="#000"
          d="m8.392 10.958-.249.969a1 1 0 0 0 1.175-.59l-.926-.379Zm-4.472.01a1 1 0 0 0 1.84-.785l-1.84.786Zm2.816-5.117-.392-.92.392.92Zm-1.155-.159a1 1 0 0 0 1.84-.785l-1.84.785Zm1.132-2.44a1 1 0 0 0-1.839.785l1.84-.786Zm2.304 1.637a1 1 0 1 0 1.856.745L9.017 4.89Zm2.526-.925a1 1 0 1 0-1.856-.745l1.856.745ZM2.794 6.163a1 1 0 0 0-.745 1.856l.745-1.856Zm.925 2.526a1 1 0 1 0 .746-1.856L3.719 8.69Zm6.346-1.287a1 1 0 1 0 1.473-1.354l-1.473 1.354Zm10.535 6.15a5.857 5.857 0 0 1-5.857 5.857v2a7.857 7.857 0 0 0 7.857-7.857h-2Zm-5.857-5.857a5.857 5.857 0 0 1 5.857 5.857h2a7.857 7.857 0 0 0-7.857-7.857v2Zm-5.425 3.642a5.862 5.862 0 0 1 5.425-3.642v-2a7.862 7.862 0 0 0-7.277 4.885l1.852.757Zm-2.118.472c.329 0 .644.041.943.118l.498-1.937A5.78 5.78 0 0 0 7.2 9.809v2Zm-3.8 3.8a3.8 3.8 0 0 1 3.8-3.8v-2a5.8 5.8 0 0 0-5.8 5.8h2Zm3.8 3.8a3.8 3.8 0 0 1-3.8-3.8h-2a5.8 5.8 0 0 0 5.8 5.8v-2Zm7.543 0H7.2v2h7.543v-2Zm-8.984-9.226a2.6 2.6 0 0 1 1.37-3.412l-.785-1.84A4.6 4.6 0 0 0 3.92 10.97l1.84-.786ZM7.42 4.907 6.713 3.25l-1.839.786.707 1.655 1.84-.785Zm3.453.727.67-1.67-1.856-.745-.67 1.67 1.856.745ZM2.049 8.02l1.67.67.746-1.856-1.67-.67-.746 1.856ZM7.13 6.77a2.602 2.602 0 0 1 2.936.63l1.473-1.353a4.601 4.601 0 0 0-5.194-1.116L7.13 6.77Z" />
</svg>