<svg xmlns="http://www.w3.org/2000/svg"
     fill="currentColor"
     viewBox="0 0 24 24">
    <path fill="#000"
          d="M18.857 20.2a1 1 0 1 0 0-2v2Zm-13.714-2a1 1 0 0 0 0 2v-2ZM2.4 13.902a1 1 0 1 0 0 2v-2Zm19.2 2a1 1 0 1 0 0-2v2ZM4.244 12.048a1 1 0 1 0 1.11-1.664l-1.11 1.664Zm-.947-3.035a1 1 0 0 0-1.11 1.664l1.11-1.664Zm4.805-1.554a1 1 0 0 0 1.793-.886l-1.793.886ZM8.8 4.357a1 1 0 0 0-1.792.886L8.8 4.357Zm4.99 1.945a1 1 0 1 0 1.665 1.11l-1.664-1.11Zm3.036-.947a1 1 0 0 0-1.664-1.11l1.664 1.11Zm4.976 5.386a1 1 0 0 0-.886-1.793l.886 1.793Zm-3.102-.697a1 1 0 1 0 .886 1.793l-.886-1.793Zm.157 8.156H5.143v2h13.714v-2ZM2.4 15.902h19.2v-2H2.4v2Zm5.8-1a3.8 3.8 0 0 1 3.8-3.8v-2a5.8 5.8 0 0 0-5.8 5.8h2Zm3.8-3.8a3.8 3.8 0 0 1 3.8 3.8h2a5.8 5.8 0 0 0-5.8-5.8v2Zm-6.645-.718L3.298 9.013l-1.11 1.664 2.057 1.371 1.11-1.664Zm4.541-3.811L8.8 4.357l-1.792.886L8.103 7.46l1.793-.886Zm5.559.839 1.371-2.058-1.664-1.109-1.371 2.057 1.664 1.11Zm5.46 1.536L18.7 10.044l.886 1.793 2.216-1.096-.886-1.793Z" />
</svg>