<svg xmlns="http://www.w3.org/2000/svg"
     fill="currentColor"
     viewBox="0 0 24 24">
    <path stroke="currentColor"
          stroke-linecap="round"
          stroke-linejoin="round"
          stroke-width="2"
          d="M8.7 17.4h.056m5.944-6.6.412-.17a2.598 2.598 0 0 1 1.988.001 2.597 2.597 0 0 0 1.988.002l.412-.17m-4.8-3.526.412-.17a2.598 2.598 0 0 1 1.988.002 2.598 2.598 0 0 0 1.988.001l.412-.17m-6.6 10.8a4.2 4.2 0 1 1-6.6-3.447V4.798a2.4 2.4 0 0 1 4.8.002v9.153c.86.769 1.8 2.203 1.8 3.447Z" />
</svg>