<svg width="14" height="14" viewBox="0 0 14 14" fill="none" xmlns="http://www.w3.org/2000/svg">
<path d="M4.67513 9.20736H3.04102C2.00548 9.20736 1.16602 8.49243 1.16602 7.44416C1.16602 6.3959 2.00548 5.54611 3.04102 5.54611C3.11143 5.54611 3.18095 5.55004 3.24935 5.5577V5.54611H3.27514C3.25812 5.40793 3.24935 5.26716 3.24935 5.12432C3.24935 3.26073 4.74173 1.75 6.58268 1.75C7.82932 1.75 8.91612 2.44276 9.4879 3.46874C9.62763 3.44794 9.77058 3.43716 9.91601 3.43716C11.5268 3.43716 12.8327 4.75905 12.8327 6.38969C12.8327 7.87712 11.7461 8.97279 10.3327 9.17746H8.82226M6.79102 5.757V12.25M6.79102 12.25L5.31315 10.7921M6.79102 12.25L8.22982 10.7921" stroke="#1D222B" stroke-width="1.5" stroke-linecap="round" stroke-linejoin="round"/>
</svg>
