<svg width="24" height="24" viewBox="0 0 24 24" fill="none" xmlns="http://www.w3.org/2000/svg">
<g clip-path="url(#clip0_10180_57105)">
<path fill-rule="evenodd" clip-rule="evenodd" d="M12 0C5.37258 0 0 5.37258 0 12C0 18.6274 5.37258 24 12 24C18.6274 24 24 18.6274 24 12C24 5.37258 18.6274 0 12 0ZM17.225 7.44999C17.4735 7.11861 17.4064 6.64851 17.075 6.39999C16.7436 6.15147 16.2735 6.21864 16.025 6.55001L13.1875 10.3335L10.5563 6.82502L10.5562 6.825C10.4224 6.64647 10.2487 6.50156 10.0491 6.40176C9.84951 6.30196 9.62941 6.25 9.40625 6.25H7C6.71592 6.25 6.45622 6.4105 6.32918 6.6646C6.20213 6.91869 6.22956 7.22275 6.40001 7.45001L10.875 13.4165L7.77499 17.55C7.52647 17.8814 7.59364 18.3515 7.92501 18.6C8.25639 18.8485 8.72649 18.7814 8.97501 18.45L11.8125 14.6665L14.4437 18.175L14.4438 18.175C14.5777 18.3535 14.7513 18.4984 14.9509 18.5982C15.1505 18.698 15.3706 18.75 15.5938 18.75H18C18.2841 18.75 18.5438 18.5895 18.6708 18.3354C18.7979 18.0813 18.7704 17.7773 18.6 17.55L14.125 11.5835L17.225 7.44999ZM12.4125 12.9664L8.50003 7.75H9.375L12.5875 12.0335L12.5875 12.0336L16.5 17.25H15.625L12.4125 12.9665L12.4125 12.9664Z" fill="#1D222B" fill-opacity="0.65"/>
</g>
<defs>
<clipPath id="clip0_10180_57105">
<rect width="24" height="24" fill="white"/>
</clipPath>
</defs>
</svg>
