<svg width="34" height="34" viewBox="0 0 34 34" fill="none" xmlns="http://www.w3.org/2000/svg">
<g clip-path="url(#clip0_915_39899)">
<path d="M0 17C0 7.61116 7.61116 0 17 0C26.3888 0 34 7.61116 34 17C34 26.3888 26.3888 34 17 34C7.61116 34 0 26.3888 0 17Z" fill="#9C78AE"/>
<line x1="41.1768" y1="-9.82322" x2="2.17678" y2="29.1768" stroke="white" stroke-opacity="0.2" stroke-width="0.5"/>
<line x1="38.1768" y1="-9.82322" x2="-0.823224" y2="29.1768" stroke="white" stroke-opacity="0.2" stroke-width="0.5"/>
<line x1="35.1768" y1="-9.82322" x2="-3.82322" y2="29.1768" stroke="white" stroke-opacity="0.2" stroke-width="0.5"/>
<line x1="35.1768" y1="-12.8232" x2="-3.82322" y2="26.1768" stroke="white" stroke-opacity="0.2" stroke-width="0.5"/>
<line x1="35.1768" y1="-15.8232" x2="-3.82322" y2="23.1768" stroke="white" stroke-opacity="0.2" stroke-width="0.5"/>
<line x1="32.1768" y1="-15.8232" x2="-6.82322" y2="23.1768" stroke="white" stroke-opacity="0.2" stroke-width="0.5"/>
<line x1="32.1768" y1="-18.8232" x2="-6.82322" y2="20.1768" stroke="white" stroke-opacity="0.2" stroke-width="0.5"/>
<line x1="29.1768" y1="-18.8232" x2="-9.82322" y2="20.1768" stroke="white" stroke-opacity="0.2" stroke-width="0.5"/>
<line x1="29.1768" y1="-21.8232" x2="-9.82322" y2="17.1768" stroke="white" stroke-opacity="0.2" stroke-width="0.5"/>
<line x1="41.1768" y1="-6.82322" x2="2.17678" y2="32.1768" stroke="white" stroke-opacity="0.2" stroke-width="0.5"/>
<line x1="41.1768" y1="-3.82322" x2="2.17678" y2="35.1768" stroke="white" stroke-opacity="0.2" stroke-width="0.5"/>
<line x1="41.1768" y1="-0.823223" x2="2.17678" y2="38.1768" stroke="white" stroke-opacity="0.2" stroke-width="0.5"/>
<line x1="52.1768" y1="-8.82322" x2="2.17678" y2="41.1768" stroke="white" stroke-opacity="0.2" stroke-width="0.5"/>
<line x1="51.1768" y1="-4.82322" x2="2.17678" y2="44.1768" stroke="white" stroke-opacity="0.2" stroke-width="0.5"/>
<line x1="52.1768" y1="-2.82322" x2="2.17678" y2="47.1768" stroke="white" stroke-opacity="0.2" stroke-width="0.5"/>
<line x1="52.1768" y1="0.176777" x2="2.17678" y2="50.1768" stroke="white" stroke-opacity="0.2" stroke-width="0.5"/>
<line x1="52.1768" y1="3.17678" x2="2.17678" y2="53.1768" stroke="white" stroke-opacity="0.2" stroke-width="0.5"/>
<line x1="52.1768" y1="6.17678" x2="2.17678" y2="56.1768" stroke="white" stroke-opacity="0.2" stroke-width="0.5"/>
<path d="M13.2402 16.359C13.7255 16.4457 14.1372 16.7013 14.4752 17.126C14.8132 17.5507 14.9822 18.0317 14.9822 18.569C14.9822 19.0283 14.8609 19.4443 14.6182 19.817C14.3842 20.181 14.0419 20.4713 13.5912 20.688C13.1405 20.896 12.6162 21 12.0182 21H8.4042V11.965H11.8492C12.4645 11.965 12.9932 12.069 13.4352 12.277C13.8772 12.485 14.2109 12.7667 14.4362 13.122C14.6615 13.4687 14.7742 13.8587 14.7742 14.292C14.7742 14.812 14.6355 15.2453 14.3582 15.592C14.0809 15.9387 13.7082 16.1943 13.2402 16.359ZM9.8862 15.761H11.7192C12.2045 15.761 12.5815 15.6527 12.8502 15.436C13.1275 15.2107 13.2662 14.89 13.2662 14.474C13.2662 14.0667 13.1275 13.7503 12.8502 13.525C12.5815 13.291 12.2045 13.174 11.7192 13.174H9.8862V15.761ZM11.8882 19.791C12.3909 19.791 12.7852 19.6697 13.0712 19.427C13.3572 19.1843 13.5002 18.8463 13.5002 18.413C13.5002 17.971 13.3485 17.62 13.0452 17.36C12.7419 17.1 12.3389 16.97 11.8362 16.97H9.8862V19.791H11.8882ZM17.1907 21.091C16.922 21.091 16.6967 21 16.5147 20.818C16.3327 20.636 16.2417 20.4107 16.2417 20.142C16.2417 19.8733 16.3327 19.648 16.5147 19.466C16.6967 19.284 16.922 19.193 17.1907 19.193C17.4507 19.193 17.6717 19.284 17.8537 19.466C18.0357 19.648 18.1267 19.8733 18.1267 20.142C18.1267 20.4107 18.0357 20.636 17.8537 20.818C17.6717 21 17.4507 21.091 17.1907 21.091ZM21.2104 13.161V15.813H24.3304V17.022H21.2104V19.791H24.7204V21H19.7284V11.952H24.7204V13.161H21.2104Z" fill="white"/>
</g>
<defs>
<clipPath id="clip0_915_39899">
<path d="M0 17C0 7.61116 7.61116 0 17 0C26.3888 0 34 7.61116 34 17C34 26.3888 26.3888 34 17 34C7.61116 34 0 26.3888 0 17Z" fill="white"/>
</clipPath>
</defs>
</svg>
