<svg width="24" height="24" viewBox="0 0 24 24" fill="none" xmlns="http://www.w3.org/2000/svg">
<g clip-path="url(#clip0_14659_58666)">
<path d="M12 0.480469C5.63758 0.480469 0.47998 5.63807 0.47998 12.0005C0.47998 18.3629 5.63758 23.5205 12 23.5205C18.3624 23.5205 23.52 18.3629 23.52 12.0005C23.52 5.63807 18.3624 0.480469 12 0.480469ZM9.17998 16.7753H6.84718V9.26807H9.17998V16.7753ZM7.99918 8.34647C7.26238 8.34647 6.78598 7.82447 6.78598 7.17887C6.78598 6.52007 7.27678 6.01367 8.02918 6.01367C8.78158 6.01367 9.24238 6.52007 9.25678 7.17887C9.25678 7.82447 8.78158 8.34647 7.99918 8.34647ZM17.7 16.7753H15.3672V12.6149C15.3672 11.6465 15.0288 10.9889 14.1852 10.9889C13.5408 10.9889 13.158 11.4341 12.9888 11.8625C12.9264 12.0149 12.9108 12.2309 12.9108 12.4457V16.7741H10.5768V11.6621C10.5768 10.7249 10.5468 9.94127 10.5156 9.26687H12.5424L12.6492 10.3097H12.696C13.0032 9.82007 13.7556 9.09767 15.0144 9.09767C16.5492 9.09767 17.7 10.1261 17.7 12.3365V16.7753Z" fill="white" fill-opacity="0.65"/>
</g>
<defs>
<clipPath id="clip0_14659_58666">
<rect width="24" height="24" fill="white"/>
</clipPath>
</defs>
</svg>
