<svg width="100" height="100" viewBox="0 0 100 100" fill="none" xmlns="http://www.w3.org/2000/svg">
<path d="M50 0.5C77.3381 0.5 99.5 22.6619 99.5 50C99.5 77.3381 77.3381 99.5 50 99.5C22.6619 99.5 0.5 77.3381 0.5 50C0.5 22.6619 22.6619 0.5 50 0.5Z" fill="#101E26"/>
<path d="M50 0.5C77.3381 0.5 99.5 22.6619 99.5 50C99.5 77.3381 77.3381 99.5 50 99.5C22.6619 99.5 0.5 77.3381 0.5 50C0.5 22.6619 22.6619 0.5 50 0.5Z" stroke="white"/>
<path d="M19.36 42.6C19.36 43.44 19.4267 44.2667 19.56 45.08C19.7067 45.8933 19.9333 46.6333 20.24 47.3C20.5467 47.9533 20.9533 48.48 21.46 48.88C21.98 49.2667 22.6133 49.46 23.36 49.46L23.16 50.3C21.6667 50.3 20.38 49.9933 19.3 49.38C18.22 48.7667 17.3933 47.9133 16.82 46.82C16.2467 45.7267 15.96 44.4533 15.96 43C15.96 41.5467 16.2533 40.2733 16.84 39.18C17.4267 38.0867 18.26 37.2333 19.34 36.62C20.42 36.0067 21.6933 35.7 23.16 35.7L22.96 36.54C22.0667 36.54 21.3533 36.8133 20.82 37.36C20.3 37.8933 19.9267 38.62 19.7 39.54C19.4733 40.46 19.36 41.48 19.36 42.6ZM26.96 43.4C26.96 42.56 26.8867 41.7333 26.74 40.92C26.6067 40.1067 26.3867 39.3733 26.08 38.72C25.7733 38.0533 25.36 37.5267 24.84 37.14C24.3333 36.74 23.7067 36.54 22.96 36.54L23.16 35.7C24.6667 35.7 25.9533 36.0067 27.02 36.62C28.1 37.2333 28.9267 38.0867 29.5 39.18C30.0733 40.2733 30.36 41.5467 30.36 43C30.36 44.4533 30.0667 45.7267 29.48 46.82C28.8933 47.9133 28.06 48.7667 26.98 49.38C25.9 49.9933 24.6267 50.3 23.16 50.3L23.36 49.46C24.2667 49.46 24.98 49.1867 25.5 48.64C26.02 48.0933 26.3933 47.3667 26.62 46.46C26.8467 45.54 26.96 44.52 26.96 43.4ZM20.86 31.5L22.26 32.24V33.86L20.86 34.6L19.46 33.86V32.24L20.86 31.5ZM25.46 31.5L26.86 32.24V33.86L25.46 34.6L24.06 33.86V32.24L25.46 31.5ZM32.4323 36H43.1923C43.2457 36.1733 43.279 36.34 43.2923 36.5C43.3057 36.66 43.3057 36.8267 43.2923 37L39.6323 36.8H36.0723C35.139 36.8 34.419 37.0333 33.9123 37.5C33.4057 37.9667 33.1257 38.8 33.0723 40C32.859 40.04 32.6457 40.04 32.4323 40V36ZM43.3323 50H31.8323C31.779 49.8267 31.7457 49.66 31.7323 49.5C31.719 49.34 31.719 49.1733 31.7323 49L35.4323 49.2H39.6923C40.3857 49.2 40.9457 49.06 41.3723 48.78C41.799 48.5 42.119 48.1333 42.3323 47.68C42.5457 47.2267 42.6657 46.7333 42.6923 46.2C42.9057 46.16 43.119 46.16 43.3323 46.2V50ZM39.6323 36.8L43.2923 37C42.839 37.2667 42.4457 37.66 42.1123 38.18C41.7923 38.7 41.5057 39.1733 41.2523 39.6L36.5323 47.84C36.359 48.1333 36.1923 48.3933 36.0323 48.62C35.8857 48.8333 35.6857 49.0267 35.4323 49.2L31.7323 49C31.999 48.88 32.259 48.6733 32.5123 48.38C32.779 48.0733 33.0257 47.74 33.2523 47.38C33.4923 47.0067 33.6923 46.68 33.8523 46.4L38.4923 38.32C38.6657 38.0267 38.8457 37.7467 39.0323 37.48C39.2323 37.2 39.4323 36.9733 39.6323 36.8ZM49.7973 50.28C48.984 50.28 48.1973 50.2067 47.4373 50.06C46.6773 49.9133 45.9973 49.7 45.3973 49.42V45.5C45.6107 45.46 45.824 45.46 46.0373 45.5C46.144 46.3 46.3773 47 46.7373 47.6C47.1107 48.1867 47.5773 48.6467 48.1373 48.98C48.7107 49.3133 49.3373 49.48 50.0173 49.48C50.9773 49.48 51.7107 49.2667 52.2173 48.84C52.724 48.4 52.9773 47.8467 52.9773 47.18C52.9773 46.66 52.844 46.2333 52.5773 45.9C52.3107 45.5667 51.9573 45.2867 51.5173 45.06C51.0907 44.82 50.6173 44.6 50.0973 44.4C49.5773 44.2 49.0507 43.98 48.5173 43.74C47.9973 43.5 47.5173 43.2067 47.0773 42.86C46.6507 42.5133 46.304 42.08 46.0373 41.56C45.7707 41.0267 45.6373 40.3733 45.6373 39.6C45.6373 38.76 45.844 38.0533 46.2573 37.48C46.684 36.8933 47.2707 36.4533 48.0173 36.16C48.7773 35.8667 49.6507 35.72 50.6373 35.72C51.4507 35.72 52.164 35.7933 52.7773 35.94C53.404 36.0867 53.964 36.2933 54.4573 36.56V40.2C54.244 40.24 54.0307 40.24 53.8173 40.2C53.6707 39.0533 53.324 38.1533 52.7773 37.5C52.244 36.8467 51.4907 36.52 50.5173 36.52C49.7173 36.52 49.084 36.6933 48.6173 37.04C48.164 37.3733 47.9373 37.8933 47.9373 38.6C47.9373 39.04 48.0707 39.4067 48.3373 39.7C48.6173 39.9933 48.9773 40.2467 49.4173 40.46C49.8707 40.6733 50.364 40.88 50.8973 41.08C51.444 41.2667 51.984 41.48 52.5173 41.72C53.0507 41.96 53.5373 42.26 53.9773 42.62C54.4307 42.9667 54.7907 43.4 55.0573 43.92C55.3373 44.44 55.4773 45.0867 55.4773 45.86C55.4773 46.74 55.244 47.5133 54.7773 48.18C54.324 48.8333 53.6707 49.3467 52.8173 49.72C51.9773 50.0933 50.9707 50.28 49.7973 50.28ZM64.4263 50.3C62.5196 50.3 61.0529 49.9533 60.0263 49.26C59.0129 48.5533 58.5063 47.5 58.5063 46.1V40.2C58.5063 39.6 58.4863 39.0067 58.4463 38.42C58.4196 37.82 58.3729 37.2467 58.3063 36.7H56.9663C56.9129 36.4467 56.9129 36.2 56.9663 35.96C57.4329 35.9733 57.9396 35.9867 58.4863 36C59.0463 36 59.5529 36 60.0063 36C60.4729 36 60.9796 36 61.5263 36C62.0863 35.9867 62.5929 35.9733 63.0463 35.96C63.0996 36.2 63.0996 36.4467 63.0463 36.7H61.7063C61.6396 37.2467 61.5863 37.82 61.5462 38.42C61.5196 39.0067 61.5063 39.6 61.5063 40.2V45.78C61.5063 46.94 61.7463 47.8267 62.2263 48.44C62.7196 49.0533 63.5529 49.36 64.7263 49.36C65.7929 49.36 66.6329 49.0333 67.2463 48.38C67.8596 47.7133 68.1662 46.78 68.1662 45.58V40.2C68.1662 39.6 68.1396 39.04 68.0863 38.52C68.0463 38 67.9729 37.3933 67.8663 36.7H66.1263C66.0729 36.4467 66.0729 36.2 66.1263 35.96C66.6863 35.9733 67.1863 35.9867 67.6263 36C68.0663 36 68.4129 36 68.6663 36C68.8929 36 69.1796 36 69.5263 36C69.8863 35.9867 70.2929 35.9733 70.7463 35.96C70.7996 36.2 70.7996 36.4467 70.7463 36.7H69.4063C69.2996 37.3933 69.2196 38 69.1663 38.52C69.1263 39.04 69.1063 39.6 69.1063 40.2V45.9C69.1063 47.2733 68.6996 48.3533 67.8863 49.14C67.0729 49.9133 65.9196 50.3 64.4263 50.3ZM62.2663 31.5L63.6663 32.24V33.86L62.2663 34.6L60.8663 33.86V32.24L62.2663 31.5ZM66.8663 31.5L68.2663 32.24V33.86L66.8663 34.6L65.4663 33.86V32.24L66.8663 31.5ZM74.81 50.04C74.7567 49.7867 74.7567 49.54 74.81 49.3H76.15C76.2167 48.7533 76.2633 48.1867 76.29 47.6C76.33 47 76.35 46.4 76.35 45.8V40.2C76.35 39.6 76.33 39.0333 76.29 38.5C76.2633 37.9667 76.2167 37.4 76.15 36.8H75.49C74.5567 36.8 73.8367 37.1 73.33 37.7C72.8233 38.3 72.5433 39.2 72.49 40.4C72.2767 40.44 72.0633 40.44 71.85 40.4V36H83.85V40.4C83.6367 40.44 83.4233 40.44 83.21 40.4C83.1567 39.2 82.8767 38.3 82.37 37.7C81.8767 37.1 81.1567 36.8 80.21 36.8H79.55C79.4833 37.4 79.43 37.9667 79.39 38.5C79.3633 39.0333 79.35 39.6 79.35 40.2V45.8C79.35 46.4 79.3633 47 79.39 47.6C79.43 48.1867 79.4833 48.7533 79.55 49.3H80.89C80.9433 49.54 80.9433 49.7867 80.89 50.04C80.4367 50.0133 79.93 50 79.37 50C78.8233 50 78.3167 50 77.85 50C77.3967 50 76.89 50 76.33 50C75.7833 50 75.2767 50.0133 74.81 50.04Z" fill="white"/>
<line x1="21" y1="63.25" x2="35" y2="63.25" stroke="white" stroke-width="0.5"/>
<path d="M38.848 63.8V61.88C38.848 61.704 38.844 61.528 38.836 61.352C38.828 61.176 38.816 60.992 38.8 60.8H37.54C37.508 60.648 37.508 60.5 37.54 60.356C37.844 60.356 38.144 60.308 38.44 60.212C38.736 60.108 39.016 59.972 39.28 59.804C39.544 59.628 39.776 59.436 39.976 59.228C40.024 59.244 40.08 59.272 40.144 59.312C40.216 59.344 40.268 59.372 40.3 59.396C40.244 59.78 40.208 60.168 40.192 60.56C40.176 60.944 40.168 61.264 40.168 61.52V63.8H38.848ZM39.508 68C39.236 68 38.952 68 38.656 68C38.368 68 38.024 68.008 37.624 68.024C37.592 67.872 37.592 67.724 37.624 67.58H38.728C38.768 67.22 38.796 66.872 38.812 66.536C38.836 66.192 38.848 65.84 38.848 65.48V63.8H39.508V68ZM39.508 68V63.8H40.168V65.48C40.168 65.84 40.176 66.192 40.192 66.536C40.216 66.872 40.248 67.22 40.288 67.58H41.392C41.424 67.724 41.424 67.872 41.392 68.024C41 68.008 40.656 68 40.36 68C40.072 68 39.788 68 39.508 68ZM47.9855 63.08C47.9855 63.784 47.8895 64.444 47.6975 65.06C47.5055 65.668 47.2095 66.2 46.8095 66.656C46.4095 67.112 45.8975 67.468 45.2735 67.724C44.6495 67.98 43.9095 68.108 43.0535 68.108C43.0295 67.924 43.0295 67.744 43.0535 67.568C43.9095 67.568 44.5935 67.412 45.1055 67.1C45.6255 66.788 46.0015 66.368 46.2335 65.84C46.4735 65.312 46.5975 64.724 46.6055 64.076C46.4375 64.324 46.1975 64.52 45.8855 64.664C45.5815 64.808 45.2255 64.88 44.8175 64.88C44.3615 64.88 43.9375 64.78 43.5455 64.58C43.1615 64.372 42.8535 64.072 42.6215 63.68C42.3895 63.28 42.2735 62.796 42.2735 62.228C42.2735 61.652 42.3895 61.156 42.6215 60.74C42.8535 60.316 43.1775 59.992 43.5935 59.768C44.0175 59.536 44.5175 59.42 45.0935 59.42C45.6695 59.42 46.1735 59.548 46.6055 59.804C47.0455 60.052 47.3855 60.444 47.6255 60.98C47.8655 61.516 47.9855 62.216 47.9855 63.08ZM46.6055 62.168C46.6055 61.448 46.4735 60.892 46.2095 60.5C45.9535 60.1 45.5935 59.9 45.1295 59.9C44.6655 59.9 44.3015 60.092 44.0375 60.476C43.7815 60.86 43.6535 61.408 43.6535 62.12C43.6535 62.824 43.7815 63.372 44.0375 63.764C44.3015 64.156 44.6655 64.352 45.1295 64.352C45.5935 64.352 45.9535 64.164 46.2095 63.788C46.4735 63.404 46.6055 62.864 46.6055 62.168ZM54.8996 65.696C54.8996 66.256 54.7636 66.72 54.4916 67.088C54.2276 67.456 53.8756 67.732 53.4356 67.916C52.9956 68.092 52.5116 68.18 51.9836 68.18C51.3836 68.18 50.8756 68.076 50.4596 67.868C50.0516 67.66 49.7476 67.384 49.5476 67.04C49.3476 66.696 49.2556 66.324 49.2716 65.924H50.6516C50.6516 66.492 50.7556 66.932 50.9636 67.244C51.1716 67.548 51.5116 67.7 51.9836 67.7C52.3996 67.7 52.7156 67.6 52.9316 67.4C53.1556 67.2 53.3076 66.952 53.3876 66.656C53.4756 66.352 53.5196 66.056 53.5196 65.768C53.5196 65.12 53.3756 64.628 53.0876 64.292C52.8076 63.956 52.4116 63.788 51.8996 63.788C51.6276 63.788 51.3916 63.8 51.1916 63.824C50.9996 63.84 50.7996 63.868 50.5916 63.908C50.5596 63.716 50.5596 63.524 50.5916 63.332H51.4916C51.8276 63.332 52.1036 63.288 52.3196 63.2C52.5356 63.104 52.7036 62.976 52.8236 62.816C52.9436 62.656 53.0276 62.468 53.0756 62.252C53.1236 62.036 53.1476 61.808 53.1476 61.568C53.1476 60.992 53.0476 60.572 52.8476 60.308C52.6476 60.036 52.3476 59.9 51.9476 59.9C51.6276 59.9 51.3756 59.98 51.1916 60.14C51.0156 60.292 50.8916 60.488 50.8196 60.728C50.7476 60.96 50.7116 61.2 50.7116 61.448H49.4516C49.4356 61.12 49.5156 60.8 49.6916 60.488C49.8756 60.176 50.1556 59.92 50.5316 59.72C50.9156 59.52 51.3916 59.42 51.9596 59.42C52.5196 59.42 52.9836 59.516 53.3516 59.708C53.7276 59.9 54.0076 60.156 54.1916 60.476C54.3756 60.796 54.4676 61.152 54.4676 61.544C54.4676 61.952 54.3636 62.336 54.1556 62.696C53.9476 63.056 53.5876 63.32 53.0756 63.488C53.4036 63.536 53.7036 63.652 53.9756 63.836C54.2556 64.012 54.4796 64.256 54.6476 64.568C54.8156 64.872 54.8996 65.248 54.8996 65.696ZM61.9825 65.768C61.9825 66.528 61.7265 67.12 61.2145 67.544C60.7105 67.968 60.0065 68.18 59.1025 68.18C58.2065 68.18 57.5025 67.968 56.9905 67.544C56.4785 67.12 56.2225 66.528 56.2225 65.768C56.2225 65.176 56.3865 64.68 56.7145 64.28C57.0425 63.88 57.4945 63.608 58.0705 63.464C57.8065 63.392 57.5625 63.272 57.3385 63.104C57.1145 62.928 56.9345 62.708 56.7985 62.444C56.6705 62.18 56.6065 61.876 56.6065 61.532C56.6065 60.844 56.8385 60.32 57.3025 59.96C57.7745 59.6 58.3745 59.42 59.1025 59.42C59.5905 59.42 60.0185 59.504 60.3865 59.672C60.7625 59.832 61.0585 60.072 61.2745 60.392C61.4905 60.704 61.5985 61.084 61.5985 61.532C61.5985 61.876 61.5305 62.18 61.3945 62.444C61.2665 62.7 61.0905 62.916 60.8665 63.092C60.6505 63.26 60.4065 63.384 60.1345 63.464C60.7105 63.608 61.1625 63.88 61.4905 64.28C61.8185 64.68 61.9825 65.176 61.9825 65.768ZM60.3385 61.592C60.3385 61.024 60.2145 60.596 59.9665 60.308C59.7185 60.02 59.4305 59.876 59.1025 59.876C58.7745 59.876 58.4865 60.02 58.2385 60.308C57.9905 60.596 57.8665 61.024 57.8665 61.592C57.8665 62.152 57.9905 62.576 58.2385 62.864C58.4865 63.152 58.7745 63.296 59.1025 63.296C59.4305 63.296 59.7185 63.152 59.9665 62.864C60.2145 62.576 60.3385 62.152 60.3385 61.592ZM60.6025 65.72C60.6025 65.104 60.4705 64.612 60.2065 64.244C59.9425 63.868 59.5745 63.68 59.1025 63.68C58.6385 63.68 58.2705 63.868 57.9985 64.244C57.7345 64.612 57.6025 65.104 57.6025 65.72C57.6025 66.328 57.7345 66.816 57.9985 67.184C58.2705 67.544 58.6385 67.724 59.1025 67.724C59.5745 67.724 59.9425 67.544 60.2065 67.184C60.4705 66.816 60.6025 66.328 60.6025 65.72Z" fill="white"/>
<line x1="65" y1="63.25" x2="79" y2="63.25" stroke="white" stroke-width="0.5"/>
</svg>
