<svg width="24" height="24" viewBox="0 0 24 24" fill="none" xmlns="http://www.w3.org/2000/svg">
<path d="M14.0002 12.3081C13.9782 12.7281 13.8832 13.1411 13.7202 13.5281C13.5868 13.823 13.3672 14.0706 13.0902 14.2381C12.9042 14.3381 12.7002 14.4031 12.4902 14.4281C12.1864 14.4874 11.874 14.4874 11.5702 14.4281C11.3712 14.3743 11.1844 14.2827 11.0202 14.1581C10.921 14.0705 10.8402 13.9641 10.7825 13.8451C10.7247 13.7261 10.6912 13.5968 10.6837 13.4648C10.6763 13.3327 10.6951 13.2005 10.7391 13.0757C10.7832 12.951 10.8515 12.8362 10.9402 12.7381C11.1266 12.5552 11.3576 12.4243 11.6102 12.3581C11.8822 12.2731 12.1652 12.2331 12.4502 12.2381C12.7102 12.2227 12.9702 12.2227 13.2302 12.2381C13.4722 12.2567 13.7122 12.2901 13.9502 12.3381L14.0002 12.3081Z" fill="white" fill-opacity="0.65"/>
<path d="M17 2H7C5.67392 2 4.40215 2.52678 3.46447 3.46447C2.52678 4.40215 2 5.67392 2 7V17C2 18.3261 2.52678 19.5979 3.46447 20.5355C4.40215 21.4732 5.67392 22 7 22H17C18.3261 22 19.5979 21.4732 20.5355 20.5355C21.4732 19.5979 22 18.3261 22 17V7C22 5.67392 21.4732 4.40215 20.5355 3.46447C19.5979 2.52678 18.3261 2 17 2ZM7.52 14.53C7.67762 15.0562 7.92088 15.5529 8.24 16C8.69555 16.6293 9.32449 17.1123 10.05 17.39C10.497 17.556 10.965 17.664 11.44 17.71C11.9067 17.7553 12.3733 17.7553 12.84 17.71C13.3835 17.6674 13.9151 17.5286 14.41 17.3C14.9693 17.0269 15.4482 16.6134 15.8 16.1C16.0112 15.7982 16.1507 15.4521 16.2079 15.0882C16.2651 14.7242 16.2385 14.3521 16.13 14C15.998 13.5548 15.7151 13.1694 15.33 12.91L15.13 12.77C15.13 12.86 15.13 12.94 15.08 13.02C15.01 13.47 14.86 13.902 14.64 14.3C14.4452 14.6565 14.1705 14.963 13.8373 15.1954C13.5042 15.4279 13.1218 15.5801 12.72 15.64C12.1914 15.7435 11.6455 15.716 11.13 15.56C10.7023 15.442 10.3128 15.2146 10 14.9C9.65706 14.5511 9.4421 14.0965 9.39 13.61C9.33991 13.1983 9.40721 12.7808 9.58415 12.4057C9.76108 12.0306 10.0404 11.7132 10.39 11.49C10.7537 11.2489 11.1615 11.0824 11.59 11C12.014 10.93 12.4407 10.9 12.87 10.91C13.2049 10.919 13.5389 10.9491 13.87 11H13.93C13.8857 10.7264 13.7944 10.4625 13.66 10.22C13.5632 10.0582 13.4343 9.91791 13.2813 9.80784C13.1282 9.69776 12.9542 9.62022 12.77 9.58C12.3301 9.44496 11.8599 9.44496 11.42 9.58C11.103 9.69212 10.8275 9.89786 10.63 10.17V10.24L9.63 9.55V9.48C10.0467 8.87598 10.681 8.45669 11.4 8.31C12.0132 8.17629 12.6506 8.20385 13.25 8.39C13.5861 8.4929 13.8972 8.66417 14.164 8.89304C14.4307 9.12192 14.6472 9.40346 14.8 9.72C14.976 10.079 15.095 10.464 15.15 10.86C15.178 11.0321 15.1947 11.2058 15.2 11.38L15.5 11.52C15.969 11.769 16.3837 12.109 16.72 12.52C17.066 12.947 17.293 13.457 17.38 14C17.451 14.328 17.475 14.665 17.45 15C17.3989 15.8326 17.0716 16.6243 16.52 17.25C15.8228 18.0743 14.8742 18.647 13.82 18.88C13.356 18.9784 12.8841 19.0352 12.41 19.05C11.9794 19.0681 11.548 19.0514 11.12 19C10.4258 18.9189 9.74988 18.7229 9.12 18.42C8.30818 18.0086 7.61854 17.3914 7.12 16.63C6.75152 16.0552 6.47172 15.4282 6.29 14.77C6.156 14.274 6.05933 13.7707 6 13.26V12C6 11.58 6 11.16 6.07 10.74C6.11117 10.2649 6.18805 9.79356 6.3 9.33C6.4526 8.74599 6.68835 8.18694 7 7.67C7.62538 6.55613 8.646 5.71751 9.86 5.32C10.2957 5.1719 10.7444 5.06477 11.2 5C11.7715 4.93491 12.3485 4.93491 12.92 5C13.6104 5.06385 14.2859 5.23947 14.92 5.52C15.8347 5.92345 16.6127 6.58342 17.16 7.42C17.5444 8.02348 17.8281 8.68545 18 9.38L16.82 9.7V9.62C16.6868 9.14648 16.4918 8.69257 16.24 8.27C15.7272 7.43701 14.9323 6.81596 14 6.52C13.5092 6.35346 12.9976 6.25586 12.48 6.23C12.0973 6.19846 11.7127 6.19846 11.33 6.23C10.7393 6.28784 10.1637 6.45038 9.63 6.71C8.94025 7.0702 8.37295 7.62706 8 8.31C7.74228 8.77804 7.55046 9.27945 7.43 9.8C7.32493 10.2236 7.2547 10.655 7.22 11.09C7.19393 11.5063 7.19393 11.9237 7.22 12.34C7.22538 13.0799 7.32621 13.8159 7.52 14.53Z" fill="white" fill-opacity="0.65"/>
<path d="M14.0002 12.3081C13.9782 12.7281 13.8832 13.1411 13.7202 13.5281C13.5868 13.823 13.3672 14.0706 13.0902 14.2381C12.9042 14.3381 12.7002 14.4031 12.4902 14.4281C12.1864 14.4874 11.874 14.4874 11.5702 14.4281C11.3712 14.3743 11.1844 14.2827 11.0202 14.1581C10.921 14.0705 10.8402 13.9641 10.7825 13.8451C10.7247 13.7261 10.6912 13.5968 10.6837 13.4648C10.6763 13.3327 10.6951 13.2005 10.7391 13.0757C10.7832 12.951 10.8515 12.8362 10.9402 12.7381C11.1266 12.5552 11.3576 12.4243 11.6102 12.3581C11.8822 12.2731 12.1652 12.2331 12.4502 12.2381C12.7102 12.2227 12.9702 12.2227 13.2302 12.2381C13.4722 12.2567 13.7122 12.2901 13.9502 12.3381L14.0002 12.3081Z" fill="white" fill-opacity="0.65"/>
</svg>
