<svg width="16" height="17" viewBox="0 0 16 17" fill="none" xmlns="http://www.w3.org/2000/svg">
<path d="M5.00001 3.16679C5.08775 3.1673 5.17472 3.15048 5.25595 3.1173C5.33717 3.08413 5.41105 3.03524 5.47334 2.97346L6.14001 2.30679C6.26555 2.18125 6.33607 2.01099 6.33607 1.83346C6.33607 1.65592 6.26555 1.48566 6.14001 1.36012C6.01447 1.23459 5.84421 1.16406 5.66668 1.16406C5.48914 1.16406 5.31888 1.23459 5.19334 1.36012L4.52668 2.02679C4.46419 2.08877 4.41459 2.1625 4.38075 2.24374C4.3469 2.32498 4.32948 2.41212 4.32948 2.50012C4.32948 2.58813 4.3469 2.67527 4.38075 2.75651C4.41459 2.83775 4.46419 2.91148 4.52668 2.97346C4.58897 3.03524 4.66285 3.08413 4.74407 3.1173C4.8253 3.15048 4.91227 3.1673 5.00001 3.16679ZM7.66668 3.16679C7.75441 3.1673 7.84139 3.15048 7.92261 3.1173C8.00384 3.08413 8.07772 3.03524 8.14001 2.97346L8.80668 2.30679C8.93221 2.18125 9.00274 2.01099 9.00274 1.83346C9.00274 1.65592 8.93221 1.48566 8.80668 1.36012C8.68114 1.23459 8.51088 1.16406 8.33334 1.16406C8.15581 1.16406 7.98555 1.23459 7.86001 1.36012L7.19334 2.02679C7.13086 2.08877 7.08126 2.1625 7.04742 2.24374C7.01357 2.32498 6.99614 2.41212 6.99614 2.50012C6.99614 2.58813 7.01357 2.67527 7.04742 2.75651C7.08126 2.83775 7.13086 2.91148 7.19334 2.97346C7.25564 3.03524 7.32951 3.08413 7.41074 3.1173C7.49196 3.15048 7.57894 3.1673 7.66668 3.16679ZM10.3333 3.16679C10.4211 3.1673 10.5081 3.15048 10.5893 3.1173C10.6705 3.08413 10.7444 3.03524 10.8067 2.97346L11.4733 2.30679C11.5355 2.24463 11.5848 2.17084 11.6184 2.08962C11.6521 2.00841 11.6694 1.92136 11.6694 1.83346C11.6694 1.74555 11.6521 1.65851 11.6184 1.57729C11.5848 1.49608 11.5355 1.42228 11.4733 1.36012C11.4112 1.29796 11.3374 1.24866 11.2562 1.21502C11.175 1.18138 11.0879 1.16406 11 1.16406C10.9121 1.16406 10.8251 1.18138 10.7438 1.21502C10.6626 1.24866 10.5888 1.29796 10.5267 1.36012L9.86001 2.02679C9.79752 2.08877 9.74793 2.1625 9.71408 2.24374C9.68024 2.32498 9.66281 2.41212 9.66281 2.50012C9.66281 2.58813 9.68024 2.67527 9.71408 2.75651C9.74793 2.83775 9.79752 2.91148 9.86001 2.97346C9.9223 3.03524 9.99618 3.08413 10.0774 3.1173C10.1586 3.15048 10.2456 3.1673 10.3333 3.16679ZM11.9467 10.9135C11.9318 10.8711 11.9116 10.8308 11.8867 10.7935L11.8067 10.6935L11.7067 10.6135C11.6694 10.5885 11.629 10.5683 11.5867 10.5535C11.547 10.5332 11.5042 10.5196 11.46 10.5135C11.3529 10.492 11.2422 10.4972 11.1376 10.5286C11.0329 10.56 10.9376 10.6166 10.86 10.6935C10.8318 10.7255 10.8051 10.7589 10.78 10.7935C10.755 10.8308 10.7349 10.8711 10.72 10.9135C10.7004 10.9511 10.6869 10.9916 10.68 11.0335C10.6768 11.0778 10.6768 11.1224 10.68 11.1668C10.6807 11.3417 10.7502 11.5093 10.8733 11.6335C10.9349 11.6981 11.01 11.7482 11.0933 11.7801C11.1693 11.8126 11.2507 11.8307 11.3333 11.8335C11.5102 11.8335 11.6797 11.7632 11.8047 11.6382C11.9298 11.5132 12 11.3436 12 11.1668C12.0032 11.1224 12.0032 11.0778 12 11.0335C11.989 10.9908 11.9709 10.9502 11.9467 10.9135ZM13.1733 7.90679L12.2667 5.20012C12.1284 4.80894 11.8718 4.47046 11.5326 4.23156C11.1934 3.99267 10.7882 3.86519 10.3733 3.86679H5.62668C5.21177 3.86519 4.80664 3.99267 4.46741 4.23156C4.12818 4.47046 3.87164 4.80894 3.73334 5.20012L2.82668 7.90679C2.40023 8.01846 2.02262 8.2679 1.75256 8.61632C1.48251 8.96475 1.33513 9.39263 1.33334 9.83346V12.5001C1.3345 12.9128 1.46326 13.3149 1.70197 13.6515C1.94068 13.9881 2.27764 14.2426 2.66668 14.3801V15.1668C2.66668 15.3436 2.73691 15.5132 2.86194 15.6382C2.98696 15.7632 3.15653 15.8335 3.33334 15.8335C3.51015 15.8335 3.67972 15.7632 3.80475 15.6382C3.92977 15.5132 4.00001 15.3436 4.00001 15.1668V14.5001H12V15.1668C12 15.3436 12.0702 15.5132 12.1953 15.6382C12.3203 15.7632 12.4899 15.8335 12.6667 15.8335C12.8435 15.8335 13.0131 15.7632 13.1381 15.6382C13.2631 15.5132 13.3333 15.3436 13.3333 15.1668V14.3801C13.7224 14.2426 14.0593 13.9881 14.2981 13.6515C14.5368 13.3149 14.6655 12.9128 14.6667 12.5001V9.83346C14.6649 9.39263 14.5175 8.96475 14.2475 8.61632C13.9774 8.2679 13.5998 8.01846 13.1733 7.90679ZM4.99334 5.62012C5.03807 5.48771 5.12328 5.3727 5.23692 5.29135C5.35057 5.21 5.48691 5.16643 5.62668 5.16679H10.3733C10.5187 5.1592 10.6626 5.19941 10.783 5.28127C10.9033 5.36312 10.9936 5.48214 11.04 5.62012L11.74 7.83346H4.26001L4.99334 5.62012ZM13.3333 12.5001C13.3333 12.6769 13.2631 12.8465 13.1381 12.9715C13.0131 13.0966 12.8435 13.1668 12.6667 13.1668H3.33334C3.15653 13.1668 2.98696 13.0966 2.86194 12.9715C2.73691 12.8465 2.66668 12.6769 2.66668 12.5001V9.83346C2.66668 9.65664 2.73691 9.48708 2.86194 9.36205C2.98696 9.23703 3.15653 9.16679 3.33334 9.16679H12.6667C12.8435 9.16679 13.0131 9.23703 13.1381 9.36205C13.2631 9.48708 13.3333 9.65664 13.3333 9.83346V12.5001ZM8.66668 10.5001H7.33334C7.15653 10.5001 6.98696 10.5704 6.86194 10.6954C6.73691 10.8204 6.66668 10.99 6.66668 11.1668C6.66668 11.3436 6.73691 11.5132 6.86194 11.6382C6.98696 11.7632 7.15653 11.8335 7.33334 11.8335H8.66668C8.84349 11.8335 9.01306 11.7632 9.13808 11.6382C9.2631 11.5132 9.33334 11.3436 9.33334 11.1668C9.33334 10.99 9.2631 10.8204 9.13808 10.6954C9.01306 10.5704 8.84349 10.5001 8.66668 10.5001ZM5.28001 10.9135C5.26514 10.8711 5.24498 10.8308 5.22001 10.7935L5.14001 10.6935C5.04626 10.601 4.92721 10.5383 4.79789 10.5134C4.66856 10.4885 4.53475 10.5024 4.41334 10.5535C4.33151 10.5852 4.25675 10.6328 4.19334 10.6935C4.16509 10.7255 4.13839 10.7589 4.11334 10.7935C4.08837 10.8308 4.06821 10.8711 4.05334 10.9135C4.02908 10.9502 4.01106 10.9908 4.00001 11.0335C3.99683 11.0778 3.99683 11.1224 4.00001 11.1668C4.00056 11.2986 4.0402 11.4274 4.11391 11.5367C4.18762 11.646 4.29209 11.731 4.41411 11.781C4.53613 11.8309 4.67022 11.8436 4.79943 11.8173C4.92864 11.7911 5.04716 11.7271 5.14001 11.6335C5.26317 11.5093 5.33261 11.3417 5.33334 11.1668C5.33652 11.1224 5.33652 11.0778 5.33334 11.0335C5.3223 10.9908 5.30428 10.9502 5.28001 10.9135Z" fill="#1D222B"/>
</svg>
