<svg width="20" height="20" viewBox="0 0 20 20" fill="none" xmlns="http://www.w3.org/2000/svg">
<path d="M18.1602 4.84024C15.2802 0.400244 9.40022 -0.919756 4.84022 1.84024C0.400224 4.60024 -1.03978 10.6002 1.84022 15.0402L2.08022 15.4002L1.12022 19.0002L4.72022 18.0402L5.08022 18.2802C6.64022 19.1202 8.32022 19.6002 10.0002 19.6002C11.8002 19.6002 13.6002 19.1202 15.1602 18.1602C19.6002 15.2802 20.9202 9.40024 18.1602 4.84024ZM15.6402 14.0802C15.1602 14.8002 14.5602 15.2802 13.7202 15.4002C13.2402 15.4002 12.6402 15.6402 10.2402 14.6802C8.20022 13.7202 6.52022 12.1602 5.32022 10.3602C4.60022 9.52024 4.24022 8.44024 4.12022 7.36024C4.12022 6.40024 4.48022 5.56024 5.08022 4.96024C5.32022 4.72024 5.56022 4.60024 5.80022 4.60024H6.40022C6.64022 4.60024 6.88022 4.60024 7.00022 5.08024C7.24022 5.68024 7.84022 7.12024 7.84022 7.24024C7.96022 7.36024 7.96022 7.60024 7.84022 7.72024C7.96022 7.96025 7.84022 8.20024 7.72022 8.32024C7.60022 8.44024 7.48022 8.68024 7.36022 8.80024C7.12022 8.92024 7.00022 9.16024 7.12022 9.40024C7.60022 10.1202 8.20022 10.8402 8.80022 11.4402C9.52022 12.0402 10.2402 12.5202 11.0802 12.8802C11.3202 13.0002 11.5602 13.0002 11.6802 12.7602C11.8002 12.5202 12.4002 11.9202 12.6402 11.6802C12.8802 11.4402 13.0002 11.4402 13.2402 11.5602L15.1602 12.5202C15.4002 12.6402 15.6402 12.7602 15.7602 12.8802C15.8802 13.2402 15.8802 13.7202 15.6402 14.0802Z" fill="#1D222B" fill-opacity="0.65"/>
</svg>
