<svg xmlns="http://www.w3.org/2000/svg"
     fill="currentColor"
     viewBox="0 0 25 24">
    <path fill="#000"
          d="M1.65 7.008a1 1 0 1 0 2 0h-2ZM7.258 3.4a1 1 0 1 0 0-2v2Zm9.984-2a1 1 0 1 0 0 2v-2Zm.768 1v-1 1Zm3.84 3.84h-1 1Zm-1 .768a1 1 0 1 0 2 0h-2ZM6.813 19.619a1 1 0 1 0-1.414-1.414l1.414 1.414Zm-4.102 1.274a1 1 0 1 0 1.414 1.414l-1.414-1.414Zm17.664 1.414a1 1 0 0 0 1.414-1.414l-1.414 1.414ZM19.1 18.205a1 1 0 0 0-1.414 1.414l1.414-1.414ZM13.25 9.6a1 1 0 1 0-2 0h2Zm-2 6a1 1 0 1 0 2 0h-2Zm4-2a1 1 0 1 0 0-2v2Zm-6-2a1 1 0 1 0 0 2v-2Zm-5.6-4.592V6.24h-2v.768h2ZM6.49 3.4h.768v-2H6.49v2ZM3.65 6.24A2.84 2.84 0 0 1 6.49 3.4v-2a4.84 4.84 0 0 0-4.84 4.84h2ZM17.242 3.4h.768v-2h-.768v2Zm3.608 2.84v.768h2V6.24h-2ZM18.01 3.4a2.84 2.84 0 0 1 2.84 2.84h2a4.84 4.84 0 0 0-4.84-4.84v2ZM5.399 18.205 2.71 20.893l1.414 1.414 2.688-2.688-1.414-1.414Zm16.39 2.688-2.688-2.688-1.414 1.414 2.688 2.688 1.414-1.414Zm-2.091-8.125a7.448 7.448 0 0 1-7.448 7.448v2a9.448 9.448 0 0 0 9.448-9.448h-2Zm-7.448 7.448a7.448 7.448 0 0 1-7.448-7.448h-2a9.448 9.448 0 0 0 9.448 9.448v-2Zm-7.448-7.448A7.448 7.448 0 0 1 12.25 5.32v-2a9.448 9.448 0 0 0-9.448 9.448h2ZM12.25 5.32a7.448 7.448 0 0 1 7.448 7.448h2A9.448 9.448 0 0 0 12.25 3.32v2Zm-1 4.28v3h2v-3h-2Zm0 3v3h2v-3h-2Zm4-1h-3v2h3v-2Zm-3 0h-3v2h3v-2Z" />
</svg>