<svg xmlns="http://www.w3.org/2000/svg"
     fill="currentColor"
     viewBox="0 0 24 24">
    <path fill="#000"
          d="M14.648 1.4a1 1 0 0 0 0 2v-2Zm6.951 1h1a1 1 0 0 0-1-1v1Zm-1 6.952a1 1 0 1 0 2 0h-2Zm-7.11 1.158-.707-.707.707.707ZM9.352 22.6a1 1 0 1 0 0-2v2Zm-6.951-1h-1a1 1 0 0 0 1 1v-1Zm1-6.952a1 1 0 1 0-2 0h2ZM14.648 3.4h6.951v-2h-6.951v2Zm5.951-1v6.952h2V2.4h-2Zm.293-.707-8.11 8.11 1.414 1.414 8.11-8.11-1.414-1.414ZM9.352 20.6H2.401v2h6.951v-2Zm-5.951 1v-6.952h-2V21.6h2Zm-.293.707 11.088-11.09-1.414-1.414-11.089 11.09 1.415 1.414Z" />
</svg>