<svg xmlns="http://www.w3.org/2000/svg"
     fill="currentColor"
     viewBox="0 0 24 24">
    <path fill="#000"
          d="M3.4 18.12V5.88h-2v12.24h2ZM4.8 4.48h14.4v-2H4.8v2Zm15.8 1.4v12.24h2V5.88h-2Zm0 12.24a1.4 1.4 0 0 1-1.4 1.4v2a3.4 3.4 0 0 0 3.4-3.4h-2ZM19.2 4.48a1.4 1.4 0 0 1 1.4 1.4h2a3.4 3.4 0 0 0-3.4-3.4v2ZM3.4 5.88a1.4 1.4 0 0 1 1.4-1.4v-2a3.4 3.4 0 0 0-3.4 3.4h2Zm1.4 13.64a1.4 1.4 0 0 1-1.4-1.4h-2a3.4 3.4 0 0 0 3.4 3.4v-2ZM14.6 12a2.6 2.6 0 0 1-2.6 2.6v2a4.6 4.6 0 0 0 4.6-4.6h-2ZM12 14.6A2.6 2.6 0 0 1 9.4 12h-2a4.6 4.6 0 0 0 4.6 4.6v-2ZM9.4 12A2.6 2.6 0 0 1 12 9.4v-2A4.6 4.6 0 0 0 7.4 12h2ZM12 9.4a2.6 2.6 0 0 1 2.6 2.6h2A4.6 4.6 0 0 0 12 7.4v2Zm7.2 10.12H4.8v2h14.4v-2Z" />
</svg>