<svg xmlns="http://www.w3.org/2000/svg" width="35" height="25" fill="none" viewBox="0 0 35 25">
  <g clip-path="url(#a)">
    <path fill="#009B3A" d="M0 .568h35v24H0v-24Z"/>
    <path fill="#FEDF00" d="m17.5 1.923 13.98 10.624L17.5 23.165 3.454 12.547 17.501 1.923Z"/>
    <path fill="#fff" d="M17.5 18.21c3.029 0 5.484-2.526 5.484-5.642 0-3.116-2.456-5.642-5.485-5.642-3.03 0-5.485 2.526-5.485 5.642 0 3.116 2.456 5.643 5.485 5.643Z"/>
    <path fill="#002776" d="M14.73 12.196a9.1 9.1 0 0 0-2.736.421c.041 3.081 2.477 5.565 5.479 5.565 1.855 0 3.5-.954 4.489-2.407-1.699-2.175-4.312-3.579-7.232-3.579Zm8.119 1.425c.061-.35.102-.709.102-1.08 0-3.116-2.456-5.643-5.485-5.643-2.258 0-4.196 1.41-5.042 3.41a11.249 11.249 0 0 1 2.292-.238c3.193.007 6.072 1.368 8.133 3.551Z"/>
  </g>
  <defs>
    <clipPath id="a">
      <rect width="35" height="24" y=".568" fill="#fff" rx="4"/>
    </clipPath>
  </defs>
</svg>
