<svg xmlns="http://www.w3.org/2000/svg" width="35" height="25" fill="none" viewBox="0 0 35 25">
  <g clip-path="url(#a)">
    <path fill="#007C30" d="M0 .037h35v24H0v-24Z"/>
    <path fill="#CE1720" d="M0 16.177h35V.037H0"/>
    <path fill="#fff" d="M6.823 16.177V.037H0v24h35H6.823v-7.86Z"/>
    <path fill="#CE1720" d="M1.91 11.237.586 9.033 1.91 6.872l1.316 2.161-1.316 2.204Zm3.042 0L3.636 9.033l1.316-2.161 1.324 2.161-1.324 2.204ZM1.91 16.963.586 14.76 1.91 12.6l1.316 2.16-1.316 2.204Zm3.042 0L3.636 14.76l1.316-2.16 1.324 2.16-1.324 2.204Z"/>
    <path stroke="#CE1720" stroke-width="7" d="M1.91 5.216.814 3.39 1.91 1.594l1.092 1.797L1.91 5.216Zm3.044 0L3.862 3.39l1.092-1.797L6.052 3.39 4.954 5.215ZM1.91 22.352.812 20.521l1.099-1.797 1.092 1.797-1.092 1.831Zm3.043 0-1.092-1.831 1.092-1.797 1.098 1.797-1.098 1.831Z"/>
  </g>
  <defs>
    <clipPath id="a">
      <rect width="35" height="24" y=".037" fill="#fff" rx="4"/>
    </clipPath>
  </defs>
</svg>
