<svg xmlns="http://www.w3.org/2000/svg" width="35" height="25" fill="none" viewBox="0 0 35 25">
  <g clip-path="url(#a)">
    <path fill="#01237A" d="M0 .033h35v24H0v-24Z"/>
    <path fill="#fff" d="m26.199 5.042.36 1.14h1.166l-.943.705.36 1.141-.943-.705-.943.705.36-1.14-.943-.706h1.166l.36-1.14Zm-4.79 2.04 1.039.545.824-.848-.182 1.185 1.039.544-1.152.188-.182 1.184-.53-1.068-1.151.187.824-.848-.53-1.068Zm-1.984 4.927 1.109-.37v-1.2l.685.97 1.109-.37-.686.97.686.97-1.11-.37-.684.97V12.38l-1.11-.37Zm1.984 4.927.53-1.068-.825-.848 1.151.187.53-1.068.182 1.184 1.152.188-1.04.544.183 1.185-.824-.848-1.04.544Zm4.79 2.041-.36-1.14h-1.166l.943-.705-.36-1.141.943.705.943-.705-.36 1.14.943.706H26.56l-.36 1.14Zm4.79-2.04-1.04-.545-.824.848.183-1.185-1.039-.544 1.152-.188.182-1.184.53 1.068 1.151-.187-.825.848.53 1.068Zm1.984-4.928-1.109.371v1.2l-.685-.97-1.11.37.686-.97-.685-.97 1.109.37.685-.97v1.199l1.109.37Zm-1.984-4.926-.53 1.068.825.848-1.152-.187-.529 1.068-.182-1.184-1.152-.188 1.039-.544-.183-1.185.825.848 1.039-.544ZM0 7.144v1.123h3.143L0 10.422v.53l3.915-2.685h1.543L0 12.01h7.641V7.144H0Zm6.55 4.866H1.544L6.55 8.577v3.433Zm5.458-8.234L17.466.033H9.825V4.9h7.64V3.776h-3.142l3.143-2.156v-.529L13.55 3.776h-1.543ZM10.916.033h5.006l-5.006 3.433V.033ZM9.825 12.01h7.64l-5.457-3.743h1.543l3.915 2.684v-.529l-3.143-2.155h3.143V7.144H9.825v4.866Zm1.091-3.433 5.006 3.433h-5.006V8.577ZM7.641.033H0l5.458 3.743H3.915L0 1.09v.53l3.143 2.155H0v1.123h7.641V.033ZM6.55 3.466 1.544.033H6.55v3.433Z"/>
    <path fill="#D80027" d="M9.825.033H7.64V4.9H0v2.245h7.641v4.866h2.184V7.144h7.64V4.9h-7.64V.033Z"/>
    <path fill="#D80027" d="M5.458 3.776 0 .033v1.058l3.915 2.685h1.543Zm6.55 0h1.543l3.915-2.685V.033l-5.458 3.743ZM3.915 8.267 0 10.951v1.059l5.458-3.743H3.915Zm8.093 0 5.458 3.743v-1.06L13.55 8.267h-1.543Z"/>
  </g>
  <defs>
    <clipPath id="a">
      <rect width="35" height="24" y=".033" fill="#fff" rx="4"/>
    </clipPath>
  </defs>
</svg>
