<svg xmlns="http://www.w3.org/2000/svg" width="35" height="25" fill="none" viewBox="0 0 35 25">
  <g clip-path="url(#a)">
    <path fill="#fff" d="M0 .974h35v24H0v-24Z"/>
    <path fill="#DB7D00" d="M9.668 11.83s.014 4.71 5.096 4.583l.307.975h.608s-.505-2.884 4.1-2.912c0 0 0-1.937 1.883-1.937h2.832s-4.503-3.635 4.018-8.28l.123-.92s-8.863 4.983-13.57 4.014c0 0 .73 2.983-.737 2.983-.737 0-.662-.569-2.204-.569-1.276 0-1.18 1.383-1.794 1.369-.607-.014-1.283-.864-1.338-.716-.047.147.676 1.41.676 1.41Z"/>
    <path fill="#006651" d="M16.184 22.595c.47-.35.886-.463 1.528-.582.641-.12 1.323-.31 1.678-.407.355-.099-1.207.463-1.603.582-.396.112-1.603.407-1.603.407Zm2.585-1.031c-.13-.836.191-1.706.921-2.057.171.604-.354 1.628-.92 2.056Zm1.242-.436c-.396-.687.273-1.585.757-2.02.226.42-.17 1.663-.757 2.02Zm1.153-.533c-.423-.59.075-1.628.6-2.035.212.576.007 1.628-.6 2.035Zm1.153-.744c-.382-.561-.116-1.431.43-1.993.396.463.061 1.474-.43 1.993Zm.921-.75c-.32-.527.075-1.783.587-2.134.225.463.055 1.783-.587 2.133Zm.737-.197c-.096-.758 1.187-1.593 1.72-1.572-.062.624-.608 1.305-1.72 1.572Zm-.716.856c.6-.639 1.773-.639 2.19-.505-.116.372-1.495 1.186-2.19.505Z"/>
    <path fill="#006651" d="M22.427 20.399c.846-.232 1.398-.428 1.903.119-.355.463-1.733.33-1.903-.12Zm-1.208.561c.812-.45 1.794.21 1.944.604-.907.386-1.958-.506-1.944-.604Zm-1.112.646c.737-.288 1.583.098 1.924.526-.396.19-1.433.4-1.924-.526Zm-1.017.33c.846-.099 1.665.56 1.842.94-1.084.105-1.5-.225-1.842-.94Zm-.273.66c-.47-.352-.887-.464-1.528-.583-.641-.12-1.324-.31-1.678-.407-.362-.099 1.207.463 1.603.582.396.112 1.603.407 1.603.407Zm-2.585-1.032c.13-.836-.191-1.706-.921-2.057-.171.604.354 1.628.92 2.056Zm-1.242-.436c.396-.687-.273-1.585-.757-2.02-.226.42.17 1.663.757 2.02Zm-1.153-.533c.423-.59-.075-1.628-.6-2.035-.212.576-.007 1.628.6 2.035Zm-1.153-.744c.382-.561.116-1.431-.43-1.993-.396.463-.061 1.474.43 1.993Zm-.921-.75c.32-.527-.075-1.783-.587-2.134-.225.463-.055 1.783.587 2.133Zm-.737-.197c.095-.758-1.187-1.593-1.72-1.572.062.624.608 1.305 1.72 1.572Zm.716.856c-.6-.639-1.774-.639-2.19-.505.116.372 1.494 1.186 2.19.505Z"/>
    <path fill="#006651" d="M12.575 20.399c-.846-.232-1.398-.428-1.903.119.355.463 1.733.33 1.903-.12Zm1.208.561c-.812-.449-1.794.21-1.944.604.907.386 1.958-.506 1.944-.604Zm1.112.646c-.737-.288-1.583.098-1.924.526.396.19 1.433.4 1.924-.526Zm1.017.33c-.846-.099-1.665.56-1.843.94 1.085.105 1.501-.225 1.843-.94Z"/>
  </g>
  <defs>
    <clipPath id="a">
      <rect width="35" height="24" y=".974" fill="#fff" rx="4"/>
    </clipPath>
  </defs>
</svg>
