<svg xmlns="http://www.w3.org/2000/svg" width="35" height="25" fill="none" viewBox="0 0 35 25">
  <g clip-path="url(#a)">
    <path fill="#fff" d="M0 .2h35v24H0V.2Z"/>
    <path fill="#D80027" d="M0 .2h35v8.003H0V.201Z"/>
    <path fill="#000" d="M0 16.205h35v8.003H0v-8.003Z"/>
    <path fill="#C09300" d="M15.059 14.574s0-4.107.307-4.55c.212-.302 1.149.366 1.552.317 0 0 .287-.528.308-.844.02-.324-.076-.535-.335-.436 0 0-.082-.148.034-.232.11-.085.383.007.383.007s-.035-.07.109-.063c.198.014.492.098.506.393.014.218.02.542.027.612.048.478.185.612.185.612s1.258-.647 1.504-.366c.225.268.307 4.55.307 4.55l-1.237-1.181.827 2.074s-.984.169-1.976.169c-.99 0-2.125-.296-2.125-.296l.943-1.983-1.32 1.217Z"/>
  </g>
  <defs>
    <clipPath id="a">
      <rect width="35" height="24" y=".201" fill="#fff" rx="4"/>
    </clipPath>
  </defs>
</svg>
