<svg xmlns="http://www.w3.org/2000/svg" width="35" height="24" fill="none" viewBox="0 0 35 24">
  <g clip-path="url(#a)">
    <path fill="#039" d="M0 0h35v24H0V0Z"/>
    <path fill="#FC0" d="m17.497 2.66.29.921h.947l-.762.57.287.922-.762-.57-.762.57.291-.922-.762-.57h.942l.29-.92Zm-3.889 1.067.291.921h.946l-.762.57.287.921-.762-.57-.762.57.291-.921-.762-.57h.942l.291-.92Zm-2.852 2.934.291.92h.946l-.762.57.287.922-.762-.57-.762.57.291-.922-.762-.57h.942l.291-.92Zm-1.037 4 .291.92h.946l-.762.57.287.922-.762-.57-.762.57.291-.922-.762-.57h.942l.291-.92Zm1.037 4 .291.92h.946l-.762.57.287.922-.762-.57-.762.57.291-.922-.762-.57h.942l.291-.92Zm2.852 2.933.291.92h.946l-.762.57.287.922-.762-.57-.762.57.291-.921-.762-.57h.942l.291-.921Zm7.778-13.867.29.921h.947l-.762.57.287.921-.762-.57-.762.57.29-.921-.761-.57h.942l.29-.92Zm2.852 2.934.29.92h.947l-.762.57.287.922-.762-.57-.762.57.29-.922-.761-.57h.942l.29-.92Zm1.037 4 .29.92h.947l-.762.57.287.922-.762-.57-.762.57.29-.922-.761-.57h.942l.29-.92Zm-1.037 4 .29.92h.947l-.762.57.287.922-.762-.57-.762.57.29-.922-.761-.57h.942l.29-.92Zm-6.741 4 .29.92h.947l-.762.57.287.922-.762-.57-.762.57.291-.922-.762-.57h.942l.29-.92Zm3.889-1.067.29.92h.947l-.762.57.287.922-.762-.57-.762.57.29-.921-.761-.57h.942l.29-.921Z"/>
  </g>
  <defs>
    <clipPath id="a">
      <rect width="35" height="24" fill="#fff" rx="4"/>
    </clipPath>
  </defs>
</svg>
