<svg xmlns="http://www.w3.org/2000/svg" width="35" height="25" fill="none" viewBox="0 0 35 25">
  <g clip-path="url(#a)">
    <path fill="#0052B4" d="M0 .774h35v24H0v-24Z"/>
    <path fill="#fff" d="M17.5.774v2.152L14.41 4.69h3.09v4.17h-4.04l4.04 2.306v1.61h-1.825L10.65 9.901v2.876h-3.8V9.36L.868 12.777H0v-2.151L3.09 8.86H0V4.69h4.04L0 2.377V.774h1.825L6.85 3.643V.773h3.8v3.418L16.632.774h.868Z"/>
    <path fill="#D80027" d="M9.844.774H7.656v4.873H0v2.25h7.656v4.88h2.188v-4.88H17.5v-2.25H9.844V.774Z"/>
    <path fill="#0052B4" d="m10.65 8.86 6.85 3.917v-1.11L12.592 8.86H10.65Z"/>
    <path fill="#fff" d="m10.65 8.86 6.85 3.917v-1.11L12.592 8.86H10.65Z"/>
    <path fill="#D80027" d="m10.65 8.86 6.85 3.917v-1.11L12.592 8.86H10.65Zm-5.742 0L0 11.667v1.111l6.85-3.916H4.908Z"/>
    <path fill="#0052B4" d="M6.85 4.684 0 .774v1.104l4.908 2.806H6.85Z"/>
    <path fill="#fff" d="M6.85 4.684 0 .774v1.104l4.908 2.806H6.85Z"/>
    <path fill="#D80027" d="M6.85 4.684 0 .774v1.104l4.908 2.806H6.85Zm5.742 0L17.5 1.878V.774l-6.85 3.91h1.942Z"/>
    <path fill="#1F8BDE" d="M21.342 14.43V8.101c0-.597.444-1.076 1.025-1.076h8.238c.567 0 1.025.479 1.025 1.076v6.329c0 5.288-5.14 7.405-5.14 7.405s-5.148-2.117-5.148-7.405Z"/>
    <path fill="#fff" d="M21.342 14.43V8.101c0-.597.444-1.076 1.025-1.076h8.238c.567 0 1.025.479 1.025 1.076v6.329c0 5.288-5.14 7.405-5.14 7.405s-5.148-2.117-5.148-7.405Zm5.441 6.069a8.752 8.752 0 0 0 1.586-1.175c1.401-1.3 2.229-2.911 2.229-4.901V8.094c0-.02-8.23-.02-8.23-.02v6.349c0 1.99.826 3.6 2.228 4.901a8.733 8.733 0 0 0 1.886 1.336c.096-.042.192-.098.301-.161Z"/>
    <path fill="#187536" d="M23.727 14.374c-.177-.556.117-1.006.69-1.006h4.136c.561 0 .875.443.691 1.006l-.376 1.16c-.178.556-.608.647-1.08.281 0 0 .178-.337-1.306-.337-1.483 0-1.305.337-1.305.337-.417.401-.896.282-1.08-.281.006.007-.37-1.16-.37-1.16Z"/>
    <path fill="#fff" d="M24.433 13.368c.553.113 1.216-1.055 2.057-1.055.896 0 1.49 1.203 2.058 1.055.506-.126 1.025-1.56 1.025-2.116 0-1.168-1.38-2.117-3.083-2.117-1.702 0-3.083.95-3.083 2.117-.007.597.451 2.004 1.026 2.116Zm-.096 6.441c.424.029.854-.126 1.176-.457l.615-.633a.49.49 0 0 1 .71 0l.616.633c.321.33.752.486 1.169.457.362-.02 2.222-2.355 1.757-2.292a1.528 1.528 0 0 0-.868.443l-.007.007-.615.633a.49.49 0 0 1-.711 0l-.616-.633a1.503 1.503 0 0 0-2.167-.007l-.006.007-.616.633a.49.49 0 0 1-.71 0l-.616-.633a1.499 1.499 0 0 0-.84-.443c-.459-.077 1.373 2.264 1.729 2.285Zm-2.317-4.268a.49.49 0 0 1 .71 0l.616.633a1.509 1.509 0 0 0 2.167 0l.615-.633a.49.49 0 0 1 .71 0l.616.633a1.509 1.509 0 0 0 2.167 0l.615-.633a.49.49 0 0 1 .711 0s.376-1.04.171-1.118a1.49 1.49 0 0 0-1.606.366l-.007.007-.615.633a.49.49 0 0 1-.711 0l-.616-.633a1.503 1.503 0 0 0-2.167-.007l-.006.007-.616.633a.49.49 0 0 1-.71 0l-.616-.633a1.505 1.505 0 0 0-1.558-.387c-.212.077.13 1.132.13 1.132Z"/>
  </g>
  <defs>
    <clipPath id="a">
      <rect width="35" height="24" y=".774" fill="#fff" rx="4"/>
    </clipPath>
  </defs>
</svg>
