<svg xmlns="http://www.w3.org/2000/svg" width="35" height="25" fill="none" viewBox="0 0 35 25">
  <g clip-path="url(#a)">
    <path fill="#338AF3" d="M0 .47h35v24H0v-24Z"/>
    <path fill="#fff" d="m17.5 3.136.69 2.194h2.25l-1.82 1.357.697 2.194L17.5 7.524 15.682 8.88l.697-2.194L14.56 5.33h2.25l.69-2.194Zm-9.078 9.338 2.133-.717V9.45l1.319 1.87 2.133-.716-1.32 1.87 1.32 1.864-2.133-.71-1.32 1.863v-2.307l-2.132-.71Zm9.078 9.339-.69-2.194h-2.25l1.819-1.358-.697-2.2 1.818 1.357 1.818-1.358-.697 2.201 1.819 1.358h-2.25l-.69 2.194Zm9.078-9.339-2.133.71v2.307l-1.319-1.864-2.133.71 1.32-1.863-1.32-1.87 2.133.717 1.32-1.87v2.306l2.132.717Z"/>
  </g>
  <defs>
    <clipPath id="a">
      <rect width="35" height="24" y=".471" fill="#fff" rx="4"/>
    </clipPath>
  </defs>
</svg>
