<svg xmlns="http://www.w3.org/2000/svg" width="35" height="25" fill="none" viewBox="0 0 35 25">
  <g clip-path="url(#a)">
    <path fill="#fff" d="M0 .434h35v24H0v-24Z"/>
    <path fill="#6DA544" d="M0 .434h35v3.431H0V.434ZM0 7.29h35v3.431H0V7.29Zm0 6.856h35v3.431H0v-3.431Zm0 6.863h35v3.432H0v-3.432Z"/>
    <path fill="#D80027" d="M0 .434h17.5V10.72H0V.434Z"/>
    <path fill="#fff" d="m7.991 8.478-.512-1.04v-2.09l1.271-.766 1.271.767v1.568l.506-.52.288.21-.288.83L9.51 8.478H7.99ZM5.605 6.636c.204 0 .37-.17.37-.38s-.166-.38-.37-.38c-.203 0-.369.17-.369.38s.166.38.37.38Zm.602-1.484c.204 0 .37-.17.37-.38s-.166-.38-.37-.38-.37.17-.37.38.166.38.37.38Zm1.08-1.09c.204 0 .37-.17.37-.38s-.166-.38-.37-.38-.369.17-.369.38.165.38.37.38Zm1.463-.38c.204 0 .37-.17.37-.38s-.166-.38-.37-.38-.37.17-.37.38.166.38.37.38Zm1.463.38c.204 0 .369-.17.369-.38s-.165-.38-.37-.38c-.203 0-.368.17-.368.38s.165.38.369.38Zm1.08 1.09c.204 0 .37-.17.37-.38s-.166-.38-.37-.38-.37.17-.37.38.166.38.37.38Zm.602 1.484c.203 0 .369-.17.369-.38s-.166-.38-.37-.38c-.203 0-.369.17-.369.38s.166.38.37.38Z"/>
  </g>
  <defs>
    <clipPath id="a">
      <rect width="35" height="24" y=".434" fill="#fff" rx="4"/>
    </clipPath>
  </defs>
</svg>
