<svg xmlns="http://www.w3.org/2000/svg" width="35" height="25" fill="none" viewBox="0 0 35 25">
  <g clip-path="url(#a)">
    <path fill="#0052B4" d="M0 .1h35v24H0V.1Z"/>
    <path fill="#FFDA44" d="M0 .1h35v6H0v-6Z"/>
    <path fill="#fff" d="M0 6.1h35v6H0v-6Z"/>
    <path fill="#D80027" d="M0 12.1h35v6H0v-6Z"/>
    <path fill="#6DA544" d="M17.5 12.1 0 24.1V.1l17.5 12Z"/>
    <path fill="#fff" d="M4.692 12.1c0-1.749 1.194-3.21 2.79-3.568a3.464 3.464 0 0 0-.761-.084c-1.961 0-3.551 1.635-3.551 3.652 0 2.017 1.59 3.652 3.55 3.652.262 0 .516-.03.761-.085-1.595-.358-2.79-1.819-2.79-3.567Z"/>
    <path fill="#fff" d="m7.443 8.97.188.597h.612l-.495.37.189.598-.494-.37-.495.37.19-.598-.495-.37h.61l.19-.598Zm0 1.564.188.598h.612l-.495.37.189.598-.494-.37-.495.37.19-.598-.495-.37h.61l.19-.598Zm0 1.566.188.598h.612l-.495.37.189.597-.494-.37-.495.37.19-.598-.495-.37h.61l.19-.597Zm0 1.565.188.598h.612l-.495.37.189.597-.494-.37-.495.37.19-.598-.495-.37h.61l.19-.597Z"/>
  </g>
  <defs>
    <clipPath id="a">
      <rect width="35" height="24" y=".1" fill="#fff" rx="4"/>
    </clipPath>
  </defs>
</svg>
