<svg xmlns="http://www.w3.org/2000/svg" width="35" height="25" fill="none" viewBox="0 0 35 25">
  <g clip-path="url(#a)">
    <path fill="#fff" d="M0 .073h35v24H0v-24Z"/>
    <path fill="#D80027" d="M0 .087h35v6.365H0V.087Zm.034 17.62H35v6.366H.034v-6.365Z"/>
    <path fill="#6DA544" d="m19.805 13.652-2.34-4.407-2.34 4.407h1.753v1.207h1.174v-1.207h1.753Z"/>
    <path fill="#14AF5A" d="M16.463 15.027c.3-.309.3-.814-.007-1.123l.32.33a1.484 1.484 0 0 0-1.302-.372l-1.604.414c-.416.106-.463-.028-.122-.294l1.849-1.425c.348-.267.286-.484-.157-.484h-.75c-.438 0-.478-.162-.103-.358l1.726-.891c.382-.197.348-.358-.102-.358h-.75c-.438 0-.506-.218-.158-.485l1.85-1.424c.381-.267.88-.267 1.261 0l1.85 1.424c.347.267.286.485-.158.485h-.75c-.437 0-.478.161-.103.358l1.727.89c.382.197.348.359-.103.359h-.75c-.437 0-.505.217-.157.484l1.849 1.425c.348.266.3.4-.123.294l-1.603-.414a1.49 1.49 0 0 0-1.303.372l.32-.33a.812.812 0 0 0-.007 1.123l.464.477c.3.31.212.562-.225.562h-3.124c-.424 0-.526-.253-.226-.562.007.007.471-.477.471-.477Z"/>
  </g>
  <defs>
    <clipPath id="a">
      <rect width="35" height="24" y=".073" fill="#fff" rx="4"/>
    </clipPath>
  </defs>
</svg>
