<svg xmlns="http://www.w3.org/2000/svg" width="35" height="25" fill="none" viewBox="0 0 35 25">
  <g clip-path="url(#a)">
    <path fill="#fff" d="M0 .2h35v24H0V.2Z"/>
    <path fill="#0052B4" d="M0 .2h35v8H0v-8Z"/>
    <path fill="#6DA544" d="M0 16.173h35v8H0v-8Z"/>
    <path fill="#000" d="m16.729 12.2.525-1.62c.137-.414.348-.421.485 0l.525 1.62 1.324 2.043c.116.182.088.442-.082.561 0 0-.471.562-2.013.562-1.542 0-2.013-.562-2.013-.562a.432.432 0 0 1-.082-.561l1.33-2.042Z"/>
    <path fill="#000" d="M17.5 12.2c-.852 0-1.541-.708-1.541-1.585s.69-1.586 1.542-1.586c.853 0 1.542.709 1.542 1.586 0 .877-.696 1.586-1.542 1.586Zm0 0c.424 0 .772-1.143.772-1.585a.786.786 0 0 0-.771-.793.786.786 0 0 0-.771.793c0 .442.341 1.586.77 1.586Z"/>
  </g>
  <defs>
    <clipPath id="a">
      <rect width="35" height="24" y=".201" fill="#fff" rx="4"/>
    </clipPath>
  </defs>
</svg>
