<svg xmlns="http://www.w3.org/2000/svg" width="35" height="25" fill="none" viewBox="0 0 35 25">
  <g clip-path="url(#a)">
    <path fill="#000" d="M0 .343h35v23.999H0v-24Z"/>
    <path fill="#D80027" d="M0 .343h35v8H0v-8Z"/>
    <path fill="#496E2D" d="M0 16.342h35v8H0v-8Z"/>
    <path fill="#fff" d="m19.239 10.938.613.868.992-.33-.614.867.613.868-.992-.332-.614.868.001-1.073-.992-.332.992-.331v-1.073Z"/>
    <path fill="#fff" d="M17.567 14.513c-1.166 0-2.11-.972-2.11-2.17 0-1.2.945-2.171 2.11-2.171.35 0 .695.09 1.004.26a2.552 2.552 0 0 0-1.816-.76c-1.434 0-2.597 1.195-2.597 2.67 0 1.476 1.163 2.672 2.597 2.672.707 0 1.347-.291 1.816-.762a2.056 2.056 0 0 1-1.004.26Z"/>
  </g>
  <defs>
    <clipPath id="a">
      <rect width="35" height="24" y=".342" fill="#fff" rx="4"/>
    </clipPath>
  </defs>
</svg>
