<svg xmlns="http://www.w3.org/2000/svg" width="35" height="25" fill="none" viewBox="0 0 35 25">
  <g clip-path="url(#a)">
    <path fill="#E6BE53" d="M0 .342h35v24H0v-24Z"/>
    <path fill="#E01D24" d="M1.365 1.746h32.271v21.193H1.366V1.746Z"/>
    <path fill="#E6BE53" d="M16.954 8.265c.3.309.791.309 1.091 0l-.32.33 1.548-1.593a1.113 1.113 0 0 1 1.242-.197l.143.07c.39.204.458.611.157.92l.321-.33-1.555 1.6c-.308.344-.383.85-.191 1.277l.068.148c.198.4.348 1.08.348 1.515v-.793c0 .436.3.639.696.436l.143-.07c.389-.204.457-.611.157-.92l.32.33a.813.813 0 0 1 0-1.123l-.32.33c.355-.386.655-.814.893-1.277l.069-.148c.198-.4.43-1.06.539-1.487l.395-1.635c.103-.422.403-.478.655-.127l1.379 1.888c.259.358.47.982.47 1.446v1.572c0 .442-.15 1.108-.348 1.522l-.068.148a5.839 5.839 0 0 1-.894 1.277l-.463.477a5.38 5.38 0 0 1-1.242.92l-.143.07c-.39.203-1.058.357-1.474.357-.423 0-.471.155-.075.358l.143.07c.389.204.941.611 1.242.92l-.32-.33c.3.309.79.309 1.09 0l-.32.33a.759.759 0 0 1 1.092 0l-.294-.344c.314.344.39.849.198 1.277l-.068.148c-.198.4-.71.715-1.119.715a3.83 3.83 0 0 1-1.474-.358l-.143-.07a2.723 2.723 0 0 1-1.05-1.08l-.069-.148c-.198-.4-.593-.47-.894-.161l.321-.33c-.3.33-.355.828-.123 1.214l.703 1.08a.802.802 0 0 1-.212 1.088l-1.05.723a1.215 1.215 0 0 1-1.27 0l-1.05-.723a.8.8 0 0 1-.211-1.087l.702-1.081a1.028 1.028 0 0 0-.122-1.214l.32.33c-.3-.31-.696-.253-.894.161l-.068.148c-.198.4-.648.87-1.05 1.08l-.144.07c-.389.204-1.057.358-1.474.358a1.341 1.341 0 0 1-1.118-.715l-.069-.148a1.197 1.197 0 0 1 .198-1.277l-.32.33a.76.76 0 0 1 1.091 0l-.32-.33c.3.309.791.309 1.091 0l-.32.33a5.686 5.686 0 0 1 1.241-.92l.143-.07c.39-.203.342-.358-.075-.358a3.831 3.831 0 0 1-1.473-.357l-.143-.07a5.686 5.686 0 0 1-1.242-.92l-.464-.477a5.52 5.52 0 0 1-.894-1.277l-.068-.148a4.03 4.03 0 0 1-.348-1.523V8.833c0-.442.211-1.094.47-1.445l1.38-1.888c.26-.358.552-.302.655.126l.396 1.636c.136.512.313 1.01.539 1.487l.068.148c.198.4.593.968.893 1.277l-.32-.33c.3.309.3.814 0 1.123l.32-.33c-.3.309-.245.716.157.92l.144.07c.389.203.696 0 .696-.436v.793c0-.435.15-1.101.347-1.515l.069-.148a1.197 1.197 0 0 0-.191-1.277l-1.55-1.593.32.33c-.3-.309-.245-.716.158-.92l.143-.07c.416-.196.9-.119 1.242.197L17.28 8.58l-.327-.316ZM15.726 5.41c-.3-.309-.219-.667.19-.807l.847-.295c.41-.14 1.057-.14 1.467 0l.846.295c.409.14.49.498.19.807l-.463.477c-.362.33-.826.526-1.31.554-.423 0-1.01-.245-1.31-.554.007 0-.457-.477-.457-.477Z"/>
    <path fill="#215F90" d="M15.959 14.391c0 .435.116.45.287.035 0 0 .484-1.628 1.255-1.628.77 0 1.269 1.656 1.269 1.656.15.4.273.372.273-.077v-.786c0-1.312-.69-2.379-1.542-2.379-.853 0-1.542 1.067-1.542 2.38v.8Z"/>
  </g>
  <defs>
    <clipPath id="a">
      <rect width="35" height="24" y=".342" fill="#fff" rx="4"/>
    </clipPath>
  </defs>
</svg>
