<svg xmlns="http://www.w3.org/2000/svg" width="35" height="25" fill="none" viewBox="0 0 35 25">
  <g clip-path="url(#a)">
    <path fill="#095FAD" d="M0 .5h35v24H0V.5Z"/>
    <path fill="#BE1229" d="M23.333.5H35v24H23.333V.5ZM0 .5h11.667v24H0V.5Z"/>
    <path fill="#FFDA44" d="M7.389 12.17h1.01v5.208h-1.01V12.17Zm-4.053 0h1.01v5.208h-1.01V12.17Zm2.531 3.643c.558 0 1.01-.465 1.01-1.039 0-.573-.452-1.038-1.01-1.038s-1.01.465-1.01 1.038c0 .574.452 1.039 1.01 1.039Zm-1.01.527h2.027v1.038H4.857v-1.039Zm0-4.17h2.027v1.04H4.857v-1.04Zm1.01-.526c.558 0 1.01-.465 1.01-1.038 0-.574-.452-1.039-1.01-1.039s-1.01.465-1.01 1.039c0 .573.452 1.038 1.01 1.038Zm-.662-2.449h1.33L5.867 8.1l-.662 1.095Z"/>
  </g>
  <defs>
    <clipPath id="a">
      <rect width="35" height="24" y=".5" fill="#fff" rx="4"/>
    </clipPath>
  </defs>
</svg>
