<svg xmlns="http://www.w3.org/2000/svg" width="35" height="25" fill="none" viewBox="0 0 35 25">
  <g clip-path="url(#a)">
    <path fill="#fff" d="m26.9 6.023 1.198 1.327 1.597-.761-.857 1.581 1.197 1.327-1.727-.35-.857 1.582-.21-1.798-1.727-.35 1.597-.76-.21-1.798Z"/>
    <path fill="#fff" d="M0 .034h35v24H0v-24Z"/>
    <path fill="#01411C" d="M8.75.033H35v24H8.75v-24Z"/>
    <path fill="#fff" d="M24.74 15.042c-2.122 1.577-5.085 1.086-6.618-1.096-1.533-2.182-1.056-5.23 1.066-6.807a4.645 4.645 0 0 1 2.16-.883 5.69 5.69 0 0 0-4.278 1.07c-2.612 1.94-3.199 5.69-1.312 8.377 1.887 2.686 5.533 3.29 8.145 1.35a6.004 6.004 0 0 0 2.33-3.844 4.825 4.825 0 0 1-1.494 1.833Zm-.091-8.852 1.195 1.324 1.594-.76-.856 1.58 1.195 1.324-1.724-.35-.855 1.58-.21-1.795-1.724-.35 1.594-.759-.21-1.794Z"/>
  </g>
  <defs>
    <clipPath id="a">
      <rect width="35" height="24" y=".033" fill="#fff" rx="4"/>
    </clipPath>
  </defs>
</svg>
