<svg xmlns="http://www.w3.org/2000/svg" width="35" height="25" fill="none" viewBox="0 0 35 25">
  <g clip-path="url(#a)">
    <path fill="#0052B4" d="M0 .34h35v24H0v-24Z"/>
    <path fill="#D80027" d="M0 .34h35v8H0v-8Z"/>
    <path fill="#fff" d="M0 16.34h35v8H0v-8Z"/>
    <path fill="#D80027" d="M8.85 7.122v5.986c0 3.406 4.325 4.449 4.325 4.449s4.324-1.043 4.324-4.449V7.122H8.85Z"/>
    <path fill="#FFDA44" d="M10.638 8.166h5.072V6.079l-1.014.522-1.522-1.566-1.521 1.566-1.015-.522v2.087Zm5.847 5.776-3.297-3.391-3.297 3.39 1.076 1.107 2.22-2.284 2.222 2.285 1.076-1.107Z"/>
    <path fill="#fff" d="M16.485 10.774h-1.539c.09-.158.137-.338.137-.521 0-.577-.454-1.044-1.014-1.044a1.01 1.01 0 0 0-.895.551 1.01 1.01 0 0 0-.894-.55c-.56 0-1.014.466-1.014 1.043 0 .19.05.368.136.521H9.891c0 .577.488 1.044 1.048 1.044h-.034c0 .576.454 1.043 1.014 1.043 0 .51.357.934.827 1.025l-.8 1.856a3.206 3.206 0 0 0 2.482 0l-.8-1.856c.471-.09.828-.515.828-1.025.56 0 1.014-.467 1.014-1.043h-.034c.56 0 1.049-.467 1.049-1.044Z"/>
  </g>
  <defs>
    <clipPath id="a">
      <rect width="35" height="24" y=".34" fill="#fff" rx="4"/>
    </clipPath>
  </defs>
</svg>
