<svg xmlns="http://www.w3.org/2000/svg" width="35" height="24" fill="none" viewBox="0 0 35 24">
  <g clip-path="url(#a)">
    <path fill="#055E1C" d="M0 0h35v24H0V0Z"/>
    <path fill="#fff" d="M12.547 14.348c0 .864.665 1.565 1.486 1.565h4.458c0 .72.554 1.304 1.238 1.304h1.486c.684 0 1.238-.584 1.238-1.304v-1.566h-9.906Zm10.03-7.566v3.652c0 .576-.445 1.044-.991 1.044v1.565c1.366 0 2.476-1.17 2.476-2.609V6.782h-1.485Zm-10.649 3.652c0 .576-.444 1.044-.99 1.044v1.565c1.365 0 2.476-1.17 2.476-2.608V6.781h-1.486v3.652Z"/>
    <path fill="#fff" d="M20.347 6.782h1.486v3.652h-1.486V6.782ZM18.12 8.869a.255.255 0 0 1-.248.261.255.255 0 0 1-.248-.26V6.781h-1.486V8.87c0 .144-.11.261-.247.261a.255.255 0 0 1-.248-.26v-2.09h-1.486V8.87c0 1.007.778 1.826 1.734 1.826.368 0 .71-.122.99-.329a1.664 1.664 0 0 0 1.21.314c-.106.457-.496.798-.962.798v1.565c1.366 0 2.476-1.17 2.476-2.609V6.782H18.12V8.87Z"/>
    <path fill="#fff" d="M14.156 11.477h2.229v1.566h-2.229v-1.566Z"/>
  </g>
  <defs>
    <clipPath id="a">
      <rect width="35" height="24" fill="#fff" rx="4"/>
    </clipPath>
  </defs>
</svg>
