<svg xmlns="http://www.w3.org/2000/svg" width="35" height="25" fill="none" viewBox="0 0 35 25">
  <g clip-path="url(#a)">
    <path fill="#fff" d="M0 .167h35v24H0v-24Z"/>
    <path fill="#0052B4" d="M0 .167h35v8H0v-8Zm0 16h35v8H0v-8Z"/>
    <path fill="#FFDA44" d="m15.625 12.584 1.874-3.339 1.875 3.34h-3.749Z"/>
    <path fill="#6DA544" d="m19.934 13.687-2.435 1.252-2.434-1.252v-1.67h4.869v1.67Z"/>
    <path fill="#FFDA44" d="m19.796 9.389-.861.885c.367.378.594.9.594 1.476 0 1.152-.908 2.087-2.029 2.087-1.12 0-2.029-.935-2.029-2.087 0-.576.227-1.098.595-1.476l-.861-.885a3.377 3.377 0 0 0-.951 2.36c0 1.845 1.453 3.34 3.246 3.34s3.247-1.495 3.247-3.34c0-.921-.364-1.756-.951-2.36Z"/>
  </g>
  <defs>
    <clipPath id="a">
      <rect width="35" height="24" y=".167" fill="#fff" rx="4"/>
    </clipPath>
  </defs>
</svg>
