<svg xmlns="http://www.w3.org/2000/svg" width="35" height="25" fill="none" viewBox="0 0 35 25">
  <g clip-path="url(#a)">
    <path fill="#fff" d="M0 .333h32.667v24H0v-24Z"/>
    <path fill="#073AB6" d="M0 .333h35v24H0v-24Z"/>
    <path fill="#fff" d="M0 .333h17.578v12H0v-12Z"/>
    <path fill="#F44653" d="M11.045.333h5.6v11.2h-5.6V.334Z"/>
    <path fill="#1035BB" d="M0 .333h5.6v11.2H0V.334Z"/>
    <path fill="#fff" d="M5.6.333h5.6v11.2H5.6V.334Zm16.955 9.6h7.778l-.778 1.6h-2.333v.8h1.555l-.777 1.6h-.778v2.4h-1.556v-4.8h-2.333l-.778-1.6Zm6.222 4 1.556 2.4h-3.111l1.555-2.4Zm-4.666 0 1.555 2.4h-3.11l1.555-2.4Zm2.333 4.8-1.555-2.4h3.11l-1.555 2.4Zm4.667-5.6c-.467 0-.778-.32-.778-.8 0-.48.311-.8.778-.8.466 0 .777.32.777.8 0 .48-.31.8-.777.8Zm-9.334 0c-.466 0-.777-.32-.777-.8 0-.48.31-.8.777-.8s.778.32.778.8c0 .48-.311.8-.778.8Zm1.556 6.4c-.467 0-.778-.32-.778-.8 0-.48.311-.8.778-.8s.778.32.778.8c0 .48-.311.8-.778.8Zm6.222 0c-.466 0-.778-.32-.778-.8 0-.48.311-.8.778-.8s.778.32.778.8c0 .48-.311.8-.778.8Zm-3.111 1.6c-.467 0-.778-.32-.778-.8 0-.48.311-.8.778-.8s.778.32.778.8c0 .48-.311.8-.778.8Z"/>
  </g>
  <defs>
    <clipPath id="a">
      <rect width="35" height="24" y=".333" fill="#fff" rx="4"/>
    </clipPath>
  </defs>
</svg>
