<svg xmlns="http://www.w3.org/2000/svg" width="35" height="25" fill="none" viewBox="0 0 35 25">
  <g clip-path="url(#a)">
    <path fill="#0052B4" d="M0 .372h35v24H0v-24Z"/>
    <path fill="#fff" d="m14.404 6.633.252.797h.815l-.66.492.252.798-.659-.493-.66.493.253-.798-.66-.492h.815l.252-.797Zm-6.419 7.565.315.996h1.018l-.824.616.315.996-.824-.615-.824.616.315-.997-.824-.616H7.67l.315-.996ZM9.891 2.787l.315.996h1.018L10.4 4.4l.315.996-.824-.616-.824.616.315-.996-.824-.616h1.018l.315-.996ZM4.753 6.7l.315.996h1.019l-.825.616.315.996-.824-.615-.824.615.315-.996-.824-.616h1.018l.315-.996Z"/>
    <path fill="#FFDA44" d="M33.043 19.298H8.052s7.467-6.227 21.232-15.535c0 0-6.046 9.066 3.76 15.535Zm-24.991.814c-.764 0-.765 1.222 0 1.222h24.991c.764 0 .766-1.222 0-1.222H8.052Z"/>
  </g>
  <defs>
    <clipPath id="a">
      <rect width="35" height="24" y=".372" fill="#fff" rx="4"/>
    </clipPath>
  </defs>
</svg>
