<svg xmlns="http://www.w3.org/2000/svg" width="35" height="25" fill="none" viewBox="0 0 35 25">
  <g clip-path="url(#a)">
    <path fill="#D80027" d="M0 .033h35v24H0v-24Z"/>
    <path fill="#fff" d="M17.5 18.783c3.624 0 6.563-3.022 6.563-6.75s-2.939-6.75-6.563-6.75c-3.624 0-6.563 3.022-6.563 6.75s2.939 6.75 6.563 6.75Z"/>
    <path fill="#D80027" d="m18.307 9.452 1.126 1.596 1.823-.608-1.127 1.594 1.125 1.596-1.822-.61-1.128 1.594.001-1.972-1.823-.61 1.824-.608.001-1.972Z"/>
    <path fill="#D80027" d="M18.99 16.022c-2.141 0-3.877-1.786-3.877-3.989s1.736-3.989 3.878-3.989c.668 0 1.296.174 1.844.48a4.69 4.69 0 0 0-3.336-1.4c-2.635 0-4.772 2.198-4.772 4.91 0 2.71 2.136 4.908 4.772 4.908a4.69 4.69 0 0 0 3.336-1.4 3.776 3.776 0 0 1-1.844.48Z"/>
  </g>
  <defs>
    <clipPath id="a">
      <rect width="35" height="24" y=".033" fill="#fff" rx="4"/>
    </clipPath>
  </defs>
</svg>
