<svg xmlns="http://www.w3.org/2000/svg" width="35" height="25" fill="none" viewBox="0 0 35 25">
  <g clip-path="url(#a)">
    <path fill="#0052B4" d="M0 .5h35v24H0V.5Z"/>
    <path fill="#00B2EE" d="M0 12.5h17.5V.5H35v24H0v-12Z"/>
    <path fill="#FFDA44" d="m13.43 19.736 1.143 3.624-2.999-2.24h3.71l-2.998 2.24 1.143-3.623ZM27.471 14.1l1.143 3.624-2.998-2.24h3.706l-2.998 2.24 1.147-3.623Zm4.138-3.14 1.143 3.624-2.998-2.24h3.706l-2.998 2.24 1.147-3.623Zm0-8.964 1.143 3.624-2.998-2.24h3.706l-2.998 2.24 1.147-3.624Z"/>
    <path fill="#fff" d="M17.496.5v8.252h-3.15l3.15 2.16V12.5h-1.544l-5.016-3.436v3.437H6.56V9.064l-5.017 3.437H0v-1.588l3.15-2.16H0v-4.5h3.15L0 2.095V.5h1.544L6.56 3.936V.5h4.375v3.436L15.952.5h1.544Z"/>
    <path fill="#D80027" d="M9.843.5h-2.19v4.88H0v2.248h7.653v4.873h2.19V7.628h7.653V5.38H9.843V.5Z"/>
    <path fill="#2E52B2" d="M17.496 2.096v2.156h-3.15l3.15-2.156Z"/>
    <path fill="#D80027" d="M0 12.5v-.771l4.274-2.976h1.544L.498 12.5H0ZM.498.506l5.32 3.748H4.274L0 1.277V.505h.498ZM17.496.51v.772l-4.274 2.972h-1.544L16.998.51h.498Zm-.498 11.99-5.32-3.748h1.544l4.274 2.976v.772h-.498Z"/>
    <path fill="#FFDA44" d="m27.996 5.765 1.144 3.624-2.999-2.24h3.707l-2.999 2.24 1.147-3.624Zm-5.285 2.244 1.144 3.623-2.999-2.24h3.706l-2.998 2.24 1.147-3.623Zm1.167 9.715 1.143 3.625-2.998-2.24h3.706l-2.998 2.24 1.147-3.625Zm-4.9-3.944 1.143 3.624-2.998-2.24h3.706l-2.998 2.24 1.147-3.623Zm0 5.28 1.143 3.625-2.998-2.24h3.706l-2.998 2.24 1.147-3.624Z"/>
  </g>
  <defs>
    <clipPath id="a">
      <rect width="35" height="24" y=".5" fill="#fff" rx="4"/>
    </clipPath>
  </defs>
</svg>
