<svg xmlns="http://www.w3.org/2000/svg" width="35" height="24" fill="none" viewBox="0 0 35 24">
  <g clip-path="url(#a)">
    <path fill="#FFCE00" d="M0 0h35v8H0V0Z"/>
    <path fill="#203899" d="M0 8h35v8H0V8Z"/>
    <path fill="#D82B2B" d="M0 16h35v8H0v-8Z"/>
    <path fill="#fff" d="m18.87 8.608.218.736.7.224-.607.432.015.768-.59-.464-.7.24.233-.704-.436-.608h.731l.436-.624Zm-2.754 0 .42.624h.732l-.436.608.233.72-.7-.256-.59.448.015-.752-.607-.448.7-.208.233-.736Zm5.352.896-.016.768.607.432-.716.224-.218.72-.42-.608h-.746l.45-.608-.232-.72.7.256.59-.464Zm-7.95.032.623.432.684-.288-.202.736.467.576-.731.032-.405.64-.249-.704-.715-.192.575-.48-.046-.752Zm10.19 1.872-.311.704.388.64-.73-.08-.483.576-.155-.736-.67-.288.638-.384.047-.752.545.496.73-.176Zm.295 1.792.327.688.73.112-.528.528.125.736-.654-.352-.653.352.124-.736-.529-.528.732-.112.326-.688Zm-13.113-.08.326.688.732.096-.53.528.125.752-.653-.352-.654.352.125-.752-.529-.528.731-.096.327-.688Zm.482-1.84.7.224.591-.464v.768l.607.416-.7.24-.202.736-.436-.608-.731.016.42-.608-.249-.72Z"/>
  </g>
  <defs>
    <clipPath id="a">
      <rect width="35" height="24" fill="#fff" rx="4"/>
    </clipPath>
  </defs>
</svg>
