<svg xmlns="http://www.w3.org/2000/svg" width="35" height="24" fill="none" viewBox="0 0 35 24">
  <g clip-path="url(#a)">
    <path fill="#0052B4" d="M0 0h35v24H0V0Z"/>
    <path fill="#fff" d="M17.5 0v8.25h-3.15l3.15 2.16V12h-1.547l-5.015-3.44V12H6.561V8.56L1.548 12H0v-1.59l3.15-2.16H0v-4.5h3.15L0 1.59V0h1.547l5.016 3.439V0h4.375v3.439L15.953 0H17.5Z"/>
    <path fill="#D80027" d="M9.844 0H7.656v4.875H0v2.25h7.656V12h2.188V7.125H17.5v-2.25H9.844V0Z"/>
    <path fill="#D80027" d="M0 0v1.06l3.922 2.69H5.47L0 0Zm17.5 0v1.06l-3.922 2.69H12.03L17.5 0Z"/>
    <path fill="#2E52B2" d="M17.5 1.59v2.16h-3.148L17.5 1.59Z"/>
    <path fill="#D80027" d="M0 0v1.06l3.922 2.69H5.47L0 0Zm17.5 0v1.06l-3.922 2.69H12.03L17.5 0Z"/>
    <path fill="#2E52B2" d="M17.5 1.59v2.16h-3.148L17.5 1.59Z"/>
    <path fill="#D80027" d="M0 12v-1.06l3.922-2.69H5.47L0 12Zm17.5 0v-1.06l-3.922-2.69H12.03L17.5 12Z"/>
    <path fill="#FFDA44" d="m26.25 12.26-3.154 3.244c.59 1.172 1.78 1.974 3.153 1.974s2.562-.802 3.153-1.974L26.25 12.26Z"/>
    <path fill="#6DA544" d="M22.7 6.521v5.74c0 2.795 3.55 3.652 3.55 3.652s3.55-.857 3.55-3.652V6.52h-7.1Z"/>
    <path fill="#fff" d="M25.488 9.13h1.522v4.174h-1.522V9.13Z"/>
    <path fill="#A2001D" d="M26.25 9.913c.42 0 .76-.35.76-.783a.772.772 0 0 0-.76-.783.772.772 0 0 0-.762.783c0 .432.34.783.761.783Z"/>
    <path fill="#FFDA44" d="M23.715 7.565h1.014v1.043h-1.014V7.565Zm0 2.348h1.014v1.043h-1.014V9.913Zm0 2.347h1.014v1.044h-1.014V12.26Zm4.058-4.695h1.014v1.043h-1.014V7.565Zm0 2.348h1.014v1.043h-1.014V9.913Zm0 2.347h1.014v1.044h-1.014V12.26Z"/>
  </g>
  <defs>
    <clipPath id="a">
      <rect width="35" height="24" fill="#fff" rx="4"/>
    </clipPath>
  </defs>
</svg>
