<svg xmlns="http://www.w3.org/2000/svg" width="35" height="24" fill="none" viewBox="0 0 35 24">
  <g clip-path="url(#a)">
    <path fill="#000" d="M0 0h35v24H0V0Z"/>
    <path fill="#FFDA44" d="M0 3.436h35v3.436H0V3.436ZM0 17.18h35v3.436H0V17.18Z"/>
    <path fill="#057F44" d="M0 0h35v3.436H0V0Z"/>
    <path fill="#D80027" d="M0 6.872h35v3.436H0V6.872Zm0 6.872h35v3.436H0v-3.436Z"/>
    <path fill="#057F44" d="M0 20.616h35V24H0v-3.384Z"/>
    <path fill="#fff" d="M18.935 12 7.269 24H0V0h7.269l11.666 12Z"/>
    <path fill="#000" d="M17.5 12 5.835 24H7.27l11.666-12L7.27 0H5.834l11.667 12Z"/>
    <path fill="#D80027" d="m7.004 8.243.907 2.87h2.933l-2.373 1.774.907 2.87-2.374-1.774-2.373 1.773.906-2.87-2.373-1.773h2.934l.906-2.87Z"/>
    <path fill="#FFDA44" d="m9.499 12.235-2.363-.861s-.174-1.685-.185-1.742a.92.92 0 0 0-.897-.763.926.926 0 0 0-.913.94.97.97 0 0 0 .033.248l-.662.685h1.177c0 1.258-.912 1.258-.912 2.51l.506 1.252h3.044l.507-1.252c.05-.117.081-.24.094-.368.438-.182.57-.65.57-.65Z"/>
  </g>
  <defs>
    <clipPath id="a">
      <rect width="35" height="24" fill="#fff" rx="4"/>
    </clipPath>
  </defs>
</svg>
