<svg xmlns="http://www.w3.org/2000/svg"
     fill="currentColor"
     viewBox="0 0 24 24">
    <path fill="#000"
          d="M9.067 20.17a1 1 0 1 0 0-2v2Zm-4.8-4.2h-1 1Zm1-13.57a1 1 0 1 0-2 0h2Zm3.8 5.917a1 1 0 1 0 0-2v2Zm9.6 1.55v-1 1Zm-4.8 0v1-1ZM19.733 2.4h1a1 1 0 0 0-1-1v1Zm0 6.4h1-1Zm-6.933 0h-1 1Zm0-4.267-.664-.747a1 1 0 0 0-.336.747h1ZM15.2 2.4v-1a1 1 0 0 0-.664.253l.664.747Zm3.467 19.2v-1 1Zm-4.8 0v1-1Zm5.866-7.467h1a1 1 0 0 0-1-1v1Zm0 6.4h1-1Zm-6.933 0h-1 1Zm0-4.266-.664-.748a1 1 0 0 0-.336.748h1Zm2.4-2.134v-1a1 1 0 0 0-.664.253l.664.747ZM9.067 18.17h-1.6v2h1.6v-2Zm-3.8-2.2V7.317h-2v8.653h2Zm0-8.653V2.4h-2v4.917h2Zm3.8-1h-4.8v2h4.8v-2Zm-1.6 11.853a2.2 2.2 0 0 1-2.2-2.2h-2a4.2 4.2 0 0 0 4.2 4.2v-2Zm11.2-9.303h-4.8v2h4.8v-2Zm.066-6.467v6.4h2V2.4h-2Zm-.066 8.467A2.067 2.067 0 0 0 20.733 8.8h-2c0 .037-.03.067-.066.067v2ZM11.8 8.8c0 1.141.925 2.066 2.067 2.066v-2A.067.067 0 0 1 13.8 8.8h-2Zm2 0V4.533h-2V8.8h2Zm1.4-5.4h4.533v-2H15.2v2Zm-.664-1.747-2.4 2.133 1.328 1.495 2.4-2.134-1.329-1.494Zm4.13 18.947h-4.8v2h4.8v-2Zm.067-6.467v6.4h2v-6.4h-2Zm-.066 8.467a2.067 2.067 0 0 0 2.066-2.067h-2c0 .037-.03.067-.066.067v2ZM11.8 20.533c0 1.142.925 2.067 2.067 2.067v-2a.067.067 0 0 1-.067-.067h-2Zm2 0v-4.266h-2v4.266h2Zm1.4-5.4h4.533v-2H15.2v2Zm-.664-1.747-2.4 2.133 1.328 1.495 2.4-2.133-1.329-1.495Z" />
</svg>