<svg xmlns="http://www.w3.org/2000/svg"
     fill="currentColor"
     viewBox="0 0 24 24">
    <path fill="#000"
          d="m3.677 16.774-.806-.592.806.592Zm1.226-3.597-1-.012v.012h1Zm.026-2.175 1 .012v-.012h-1Zm15.403 5.79.818-.576-.818.576Zm-1.18-3.615-1-.013v.013h1Zm.026-2.067 1 .012v-.012h-1ZM9.79 19.897a1 1 0 0 0-1.204 1.597l1.204-1.597Zm5.624 1.597a1 1 0 1 0-1.204-1.597l1.204 1.597ZM2.072 5.632a1 1 0 1 0 1.856.744l-1.856-.744Zm4.57-2.352a1 1 0 1 0-.948-1.76l.949 1.76Zm11.651-1.746a1 1 0 0 0-.967 1.75l.967-1.75Zm1.775 4.823a1 1 0 0 0 1.864-.725l-1.864.725ZM4.483 17.367c.71-.969 1.42-2.418 1.42-4.19h-2c0 1.23-.495 2.274-1.032 3.005l1.612 1.184Zm1.42-4.178.026-2.175-2-.024-.026 2.175 2 .024Zm15.247 3.027c-.515-.731-.998-1.787-.998-3.04h-2c0 1.771.68 3.222 1.363 4.191l1.635-1.151Zm-.998-3.027.026-2.067-2-.025-.026 2.067 2 .025Zm.026-2.08c0-4.62-3.63-8.424-8.177-8.424v2c3.38 0 6.177 2.844 6.177 6.425h2Zm-.275 7.69c.762 0 1.222-.55 1.401-.985.18-.439.219-1.068-.154-1.598l-1.635 1.151a.406.406 0 0 1-.077-.208.236.236 0 0 1 .016-.106.348.348 0 0 1 .107-.135.548.548 0 0 1 .342-.118v2ZM5.929 11.003c0-3.521 2.75-6.317 6.072-6.317v-2c-4.49 0-8.072 3.756-8.072 8.317h2ZM4.1 16.8c.15 0 .271.06.346.12a.34.34 0 0 1 .103.134c.01.026.018.059.015.102a.408.408 0 0 1-.082.21L2.87 16.182c-.39.531-.355 1.171-.179 1.613.175.438.634 1.005 1.409 1.005v-2Zm15.802 0H4.1v2h15.802v-2ZM12 20.6c-.871 0-1.643-.276-2.21-.703l-1.204 1.597c.926.698 2.125 1.106 3.414 1.106v-2Zm2.21-.703c-.566.427-1.339.703-2.21.703v2c1.29 0 2.488-.408 3.414-1.106l-1.204-1.597ZM3.928 6.377c.535-1.335 1.487-2.435 2.715-3.097l-.949-1.76c-1.667.898-2.925 2.373-3.622 4.112l1.856.744Zm13.398-3.092c1.263.698 2.24 1.778 2.742 3.072l1.864-.725c-.684-1.761-1.996-3.19-3.639-4.098l-.967 1.75Z" />
</svg>