<svg xmlns="http://www.w3.org/2000/svg"
     fill="currentColor"
     viewBox="0 0 24 24">
    <path fill="#000"
          d="M16.883 13.475a1 1 0 0 0-1.28-1.536l1.28 1.536ZM12 16.243l-.64.768a1 1 0 0 0 1.28 0l-.64-.768Zm-3.602-4.304a1 1 0 0 0-1.28 1.536l1.28-1.536ZM13 7.757a1 1 0 1 0-2 0h2Zm2.602 4.182-4.242 3.535 1.28 1.537 4.243-3.536-1.28-1.536Zm-2.962 3.535L8.398 11.94l-1.28 1.536 4.242 3.536 1.28-1.537Zm.36.769V7.757h-2v8.486h2Zm5.081 1.838a8.6 8.6 0 0 1-12.162 0l-1.414 1.414c4.14 4.14 10.85 4.14 14.99 0l-1.414-1.414Zm-12.162 0a8.6 8.6 0 0 1 0-12.162L4.505 4.505c-4.14 4.14-4.14 10.85 0 14.99l1.414-1.414Zm0-12.162a8.6 8.6 0 0 1 12.162 0l1.414-1.414c-4.14-4.14-10.85-4.14-14.99 0l1.414 1.414Zm12.162 0a8.6 8.6 0 0 1 0 12.162l1.414 1.414c4.14-4.14 4.14-10.85 0-14.99l-1.414 1.414Z" />
</svg>