<svg xmlns="http://www.w3.org/2000/svg"
     fill="currentColor"
     viewBox="0 0 24 24">
    <path fill="#000"
          d="M16.496 9.59a1 1 0 1 0-1.992-.18l1.992.18ZM15 15l.09.996a1 1 0 0 0 .906-.905L15 15Zm-5.59-.496a1 1 0 1 0 .18 1.992l-.18-1.992Zm.297-6.211a1 1 0 1 0-1.414 1.414l1.414-1.414Zm4.797 1.116-.5 5.5 1.992.181.5-5.5-1.992-.18Zm.405 4.595-5.5.5.182 1.992 5.5-.5-.181-1.992Zm.798.289-6-6-1.414 1.414 6 6 1.414-1.414ZM20.6 12a8.6 8.6 0 0 1-8.6 8.6v2c5.854 0 10.6-4.746 10.6-10.6h-2ZM12 20.6A8.6 8.6 0 0 1 3.4 12h-2c0 5.854 4.746 10.6 10.6 10.6v-2ZM3.4 12A8.6 8.6 0 0 1 12 3.4v-2C6.146 1.4 1.4 6.146 1.4 12h2ZM12 3.4a8.6 8.6 0 0 1 8.6 8.6h2c0-5.854-4.746-10.6-10.6-10.6v2Z" />
</svg>