<svg xmlns="http://www.w3.org/2000/svg"
     fill="currentColor"
     viewBox="0 0 24 24">
    <path fill="#000"
          d="M10.525 16.883a1 1 0 1 0 1.536-1.28l-1.536 1.28ZM7.757 12l-.768-.64a1 1 0 0 0 0 1.28l.768-.64Zm4.304-3.603a1 1 0 0 0-1.536-1.28l1.536 1.28ZM16.243 13a1 1 0 0 0 0-2v2Zm-4.182 2.602L8.526 11.36l-1.537 1.28 3.536 4.243 1.536-1.28ZM8.526 12.64l3.535-4.243-1.536-1.28-3.536 4.243 1.537 1.28Zm-.769.36h8.486v-2H7.757v2ZM5.92 5.919a8.6 8.6 0 0 1 12.162 0l1.414-1.414c-4.14-4.14-10.85-4.14-14.99 0L5.92 5.919Zm12.162 0a8.6 8.6 0 0 1 0 12.162l1.414 1.414c4.14-4.14 4.14-10.85 0-14.99l-1.414 1.414Zm0 12.162a8.6 8.6 0 0 1-12.162 0l-1.414 1.414c4.14 4.14 10.85 4.14 14.99 0l-1.414-1.414Zm-12.162 0a8.6 8.6 0 0 1 0-12.162L4.505 4.505c-4.14 4.14-4.14 10.85 0 14.99l1.414-1.414Z" />
</svg>