<svg xmlns="http://www.w3.org/2000/svg"
     fill="currentColor"
     viewBox="0 0 24 24">
    <path fill="#000"
          d="M14.41 16.496a1 1 0 1 0 .18-1.992l-.18 1.992ZM9 15l-.996.09a1 1 0 0 0 .905.906L9 15Zm.496-5.59a1 1 0 1 0-1.992.18l1.992-.18Zm6.211.297a1 1 0 0 0-1.414-1.414l1.414 1.414Zm-1.117 4.797-5.5-.5-.18 1.992 5.5.5.18-1.992Zm-4.594.405-.5-5.5-1.992.181.5 5.5 1.992-.18Zm-.289.798 6-6-1.414-1.414-6 6 1.414 1.414ZM12 20.6A8.6 8.6 0 0 1 3.4 12h-2c0 5.854 4.746 10.6 10.6 10.6v-2ZM3.4 12A8.6 8.6 0 0 1 12 3.4v-2C6.146 1.4 1.4 6.146 1.4 12h2ZM12 3.4a8.6 8.6 0 0 1 8.6 8.6h2c0-5.854-4.746-10.6-10.6-10.6v2Zm8.6 8.6a8.6 8.6 0 0 1-8.6 8.6v2c5.854 0 10.6-4.746 10.6-10.6h-2Z" />
</svg>