<svg xmlns="http://www.w3.org/2000/svg"
     fill="currentColor"
     viewBox="0 0 24 24">
    <path fill="#000"
          d="M13.475 7.117a1 1 0 0 0-1.536 1.28l1.536-1.28ZM16.243 12l.768.64a1 1 0 0 0 0-1.28l-.768.64Zm-4.304 3.602a1 1 0 0 0 1.536 1.28l-1.536-1.28ZM7.757 11a1 1 0 1 0 0 2v-2Zm4.182-2.603 3.536 4.243 1.536-1.28-3.536-4.243-1.536 1.28Zm3.536 2.963-3.536 4.242 1.536 1.28 3.536-4.242-1.536-1.28Zm.768-.36H7.757v2h8.486v-2Zm1.838-5.081a8.6 8.6 0 0 1 0 12.162l1.414 1.414c4.14-4.14 4.14-10.85 0-14.99l-1.414 1.414Zm0 12.162a8.6 8.6 0 0 1-12.162 0l-1.414 1.414c4.14 4.14 10.85 4.14 14.99 0l-1.414-1.414Zm-12.162 0a8.6 8.6 0 0 1 0-12.162L4.505 4.505c-4.14 4.14-4.14 10.85 0 14.99l1.414-1.414Zm0-12.162a8.6 8.6 0 0 1 12.162 0l1.414-1.414c-4.14-4.14-10.85-4.14-14.99 0l1.414 1.414Z" />
</svg>