<svg xmlns="http://www.w3.org/2000/svg"
     fill="currentColor"
     viewBox="0 0 24 24">
    <path fill="#000"
          d="M12.367 16.669a1 1 0 1 0 1.536-1.28l-1.536 1.28Zm-2.768-4.883-.768-.64a1 1 0 0 0 0 1.28l.768-.64Zm4.304-3.602a1 1 0 1 0-1.536-1.28l1.536 1.28Zm0 7.205-3.535-4.243-1.537 1.28 3.536 4.243 1.536-1.28Zm-3.535-2.963 3.535-4.242-1.536-1.28-3.536 4.242 1.537 1.28ZM12 3.4a8.6 8.6 0 0 1 8.6 8.6h2c0-5.854-4.746-10.6-10.6-10.6v2Zm8.6 8.6a8.6 8.6 0 0 1-8.6 8.6v2c5.854 0 10.6-4.746 10.6-10.6h-2ZM12 20.6A8.6 8.6 0 0 1 3.4 12h-2c0 5.854 4.746 10.6 10.6 10.6v-2ZM3.4 12A8.6 8.6 0 0 1 12 3.4v-2C6.146 1.4 1.4 6.146 1.4 12h2Z" />
</svg>