<svg width="34" height="36" viewBox="0 0 34 36" fill="none" xmlns="http://www.w3.org/2000/svg">
<path fill-rule="evenodd" clip-rule="evenodd" d="M9 10C7.34315 10 6 11.3431 6 13L6 27C6 28.6569 7.34315 30 9 30H13C14.6569 30 16 28.6569 16 27V13C16 11.3431 14.6569 10 13 10H9ZM11 27C11.5523 27 12 26.5523 12 26C12 25.4477 11.5523 25 11 25C10.4477 25 10 25.4477 10 26C10 26.5523 10.4477 27 11 27Z" fill="#1D222B"/>
<path opacity="0.3" d="M17.5 23.6583C17.5 23.9951 17.8908 24.1811 18.1522 23.9687L24.0347 19.1904C25.2332 18.0236 25.2461 16.1021 24.0634 14.9194L21.2219 12.0779C20.4882 11.3442 19.4672 11.069 18.5181 11.256C17.8451 11.3885 17.5 12.0771 17.5 12.7632V23.6583Z" fill="#1D222B"/>
<path opacity="0.3" d="M17.8695 26.1304C17.6357 26.3203 17.5 26.6055 17.5 26.9066V28.9982C17.5 29.5505 17.9477 29.9982 18.5 29.9982H23C24.6569 29.9982 26 28.6551 26 26.9982V22.2008C26 21.4231 25.597 20.7396 24.9884 20.3477L17.8695 26.1304Z" fill="#1D222B"/>
<path d="M29 0C29.5523 0 30 0.447715 30 1V4H33C33.5523 4 34 4.44772 34 5C34 5.55228 33.5523 6 33 6H30V9C30 9.55228 29.5523 10 29 10C28.4477 10 28 9.55228 28 9V6H25C24.4477 6 24 5.55228 24 5C24 4.44772 24.4477 4 25 4H28V1C28 0.447715 28.4477 0 29 0Z" fill="#1D222B"/>
</svg>
