<svg width="20" height="20" viewBox="0 0 20 20" fill="none" xmlns="http://www.w3.org/2000/svg">
<path d="M6.25008 3.33153C6.35975 3.33217 6.46847 3.31115 6.57 3.26968C6.67153 3.22821 6.76388 3.1671 6.84175 3.08987L7.67508 2.25653C7.832 2.09961 7.92016 1.88679 7.92016 1.66487C7.92016 1.44295 7.832 1.23012 7.67508 1.0732C7.51816 0.916282 7.30533 0.828125 7.08341 0.828125C6.8615 0.828125 6.64867 0.916282 6.49175 1.0732L5.65841 1.90653C5.58031 1.984 5.51831 2.07617 5.47601 2.17772C5.4337 2.27927 5.41192 2.38819 5.41192 2.4982C5.41192 2.60821 5.4337 2.71713 5.47601 2.81868C5.51831 2.92023 5.58031 3.0124 5.65841 3.08987C5.73628 3.1671 5.82863 3.22821 5.93016 3.26968C6.03169 3.31115 6.14041 3.33217 6.25008 3.33153ZM9.58341 3.33153C9.69309 3.33217 9.80181 3.31115 9.90334 3.26968C10.0049 3.22821 10.0972 3.1671 10.1751 3.08987L11.0084 2.25653C11.1653 2.09961 11.2535 1.88679 11.2535 1.66487C11.2535 1.44295 11.1653 1.23012 11.0084 1.0732C10.8515 0.916282 10.6387 0.828125 10.4167 0.828125C10.1948 0.828125 9.982 0.916282 9.82508 1.0732L8.99175 1.90653C8.91364 1.984 8.85165 2.07617 8.80934 2.17772C8.76703 2.27927 8.74525 2.38819 8.74525 2.4982C8.74525 2.60821 8.76703 2.71713 8.80934 2.81868C8.85165 2.92023 8.91364 3.0124 8.99175 3.08987C9.06961 3.1671 9.16196 3.22821 9.26349 3.26968C9.36502 3.31115 9.47374 3.33217 9.58341 3.33153ZM12.9167 3.33153C13.0264 3.33217 13.1351 3.31115 13.2367 3.26968C13.3382 3.22821 13.4305 3.1671 13.5084 3.08987L14.3417 2.25653C14.4194 2.17884 14.4811 2.08659 14.5231 1.98508C14.5652 1.88356 14.5868 1.77475 14.5868 1.66487C14.5868 1.55499 14.5652 1.44618 14.5231 1.34466C14.4811 1.24314 14.4194 1.1509 14.3417 1.0732C14.264 0.995503 14.1718 0.933868 14.0703 0.891818C13.9688 0.849768 13.86 0.828125 13.7501 0.828125C13.6402 0.828125 13.5314 0.849768 13.4299 0.891818C13.3284 0.933868 13.2361 0.995503 13.1584 1.0732L12.3251 1.90653C12.247 1.984 12.185 2.07617 12.1427 2.17772C12.1004 2.27927 12.0786 2.38819 12.0786 2.4982C12.0786 2.60821 12.1004 2.71713 12.1427 2.81868C12.185 2.92023 12.247 3.0124 12.3251 3.08987C12.4029 3.1671 12.4953 3.22821 12.5968 3.26968C12.6984 3.31115 12.8071 3.33217 12.9167 3.33153ZM14.9334 13.0149C14.9148 12.9619 14.8896 12.9115 14.8584 12.8649L14.7584 12.7399L14.6334 12.6399C14.5868 12.6087 14.5364 12.5835 14.4834 12.5649C14.4338 12.5395 14.3803 12.5226 14.3251 12.5149C14.1912 12.4881 14.0528 12.4946 13.922 12.5338C13.7912 12.573 13.6721 12.6438 13.5751 12.7399C13.5398 12.7799 13.5064 12.8216 13.4751 12.8649C13.4439 12.9115 13.4187 12.9619 13.4001 13.0149C13.3756 13.0619 13.3587 13.1125 13.3501 13.1649C13.3461 13.2204 13.3461 13.276 13.3501 13.3315C13.351 13.5502 13.4378 13.7597 13.5917 13.9149C13.6686 13.9957 13.7626 14.0583 13.8667 14.0982C13.9617 14.1388 14.0635 14.1614 14.1667 14.1649C14.3878 14.1649 14.5997 14.0771 14.756 13.9208C14.9123 13.7645 15.0001 13.5525 15.0001 13.3315C15.0041 13.276 15.0041 13.2204 15.0001 13.1649C14.9863 13.1115 14.9637 13.0609 14.9334 13.0149ZM16.4667 9.25653L15.3334 5.8732C15.1605 5.38423 14.8399 4.96112 14.4158 4.6625C13.9918 4.36388 13.4854 4.20454 12.9667 4.20653H7.03341C6.51478 4.20454 6.00837 4.36388 5.58433 4.6625C5.16029 4.96112 4.83962 5.38423 4.66675 5.8732L3.53341 9.25653C3.00035 9.39612 2.52834 9.70792 2.19077 10.1435C1.8532 10.579 1.66898 11.1138 1.66675 11.6649V14.9982C1.6682 15.514 1.82915 16.0167 2.12753 16.4374C2.42591 16.8581 2.84712 17.1763 3.33341 17.3482V18.3315C3.33341 18.5525 3.42121 18.7645 3.57749 18.9208C3.73377 19.0771 3.94573 19.1649 4.16675 19.1649C4.38776 19.1649 4.59972 19.0771 4.756 18.9208C4.91228 18.7645 5.00008 18.5525 5.00008 18.3315V17.4982H15.0001V18.3315C15.0001 18.5525 15.0879 18.7645 15.2442 18.9208C15.4004 19.0771 15.6124 19.1649 15.8334 19.1649C16.0544 19.1649 16.2664 19.0771 16.4227 18.9208C16.579 18.7645 16.6667 18.5525 16.6667 18.3315V17.3482C17.153 17.1763 17.5742 16.8581 17.8726 16.4374C18.171 16.0167 18.332 15.514 18.3334 14.9982V11.6649C18.3312 11.1138 18.147 10.579 17.8094 10.1435C17.4718 9.70792 16.9998 9.39612 16.4667 9.25653ZM6.24175 6.3982C6.29765 6.23268 6.40416 6.08892 6.54622 5.98724C6.68828 5.88555 6.85871 5.83108 7.03341 5.83153H12.9667C13.1485 5.82205 13.3283 5.87231 13.4788 5.97463C13.6293 6.07695 13.7421 6.22572 13.8001 6.3982L14.6751 9.16487H5.32508L6.24175 6.3982ZM16.6667 14.9982C16.6667 15.2192 16.579 15.4312 16.4227 15.5875C16.2664 15.7437 16.0544 15.8315 15.8334 15.8315H4.16675C3.94573 15.8315 3.73377 15.7437 3.57749 15.5875C3.42121 15.4312 3.33341 15.2192 3.33341 14.9982V11.6649C3.33341 11.4439 3.42121 11.2319 3.57749 11.0756C3.73377 10.9193 3.94573 10.8315 4.16675 10.8315H15.8334C16.0544 10.8315 16.2664 10.9193 16.4227 11.0756C16.579 11.2319 16.6667 11.4439 16.6667 11.6649V14.9982ZM10.8334 12.4982H9.16675C8.94573 12.4982 8.73377 12.586 8.57749 12.7423C8.42121 12.8986 8.33341 13.1105 8.33341 13.3315C8.33341 13.5525 8.42121 13.7645 8.57749 13.9208C8.73377 14.0771 8.94573 14.1649 9.16675 14.1649H10.8334C11.0544 14.1649 11.2664 14.0771 11.4227 13.9208C11.5789 13.7645 11.6667 13.5525 11.6667 13.3315C11.6667 13.1105 11.5789 12.8986 11.4227 12.7423C11.2664 12.586 11.0544 12.4982 10.8334 12.4982ZM6.60008 13.0149C6.58149 12.9619 6.5563 12.9115 6.52508 12.8649L6.42508 12.7399C6.30789 12.6242 6.15908 12.5459 5.99743 12.5148C5.83577 12.4836 5.66851 12.5011 5.51675 12.5649C5.41446 12.6045 5.321 12.664 5.24175 12.7399C5.20643 12.7799 5.17306 12.8216 5.14175 12.8649C5.11053 12.9115 5.08533 12.9619 5.06675 13.0149C5.03641 13.0609 5.01389 13.1115 5.00008 13.1649C4.99611 13.2204 4.99611 13.276 5.00008 13.3315C5.00077 13.4963 5.05032 13.6572 5.14245 13.7939C5.23459 13.9306 5.36518 14.0368 5.5177 14.0993C5.67023 14.1617 5.83785 14.1775 5.99936 14.1447C6.16087 14.1119 6.30902 14.0319 6.42508 13.9149C6.57903 13.7597 6.66583 13.5502 6.66675 13.3315C6.67072 13.276 6.67072 13.2204 6.66675 13.1649C6.65294 13.1115 6.63042 13.0609 6.60008 13.0149Z" fill="#1D222B"/>
</svg>
