<svg xmlns="http://www.w3.org/2000/svg" width="35" height="25" fill="none" viewBox="0 0 35 25">
  <g clip-path="url(#a)">
    <path fill="#FFDA44" d="M0 .033h35v24H0v-24Z"/>
    <path fill="#0052B4" d="M0 .033h11.667v24H0v-24Z"/>
    <path fill="#D80027" d="M23.334.033H35v24H23.334v-24ZM13.57 8.005h3.896v4.547H13.57V8.006Z"/>
    <path fill="#000" d="M18.258 8.005v4.54-4.54Zm1.132 0v4.54-4.54Zm1.133 0v4.54-4.54Z"/>
    <path stroke="#D80027" stroke-width="7" d="M20.523 8.005v4.54m-2.265-4.54v4.54-4.54Zm1.132 0v4.54-4.54Z"/>
    <path fill="#000" d="M16.878 12.553v4.54-4.54Zm-.907 0v4.54-4.54Zm-.907.006v3.783-3.782Zm-.935 0v3.306-3.306Z"/>
    <path stroke="#D80027" stroke-width="5" d="M14.129 12.56v3.305m2.75-3.313v4.54-4.54Zm-.908 0v4.54-4.54Zm-.907.008v3.782-3.782Z"/>
    <path fill="#FFDA44" d="m13.639 10.279 1.883-2.274 1.944 2.267-1.917 2.274-1.91-2.267Z"/>
    <path fill="#BC8B00" d="M12.432 6.763v6.47c0 2.407 1.862 3.804 3.315 4.527-.054.098 1.713.582 1.713.582s1.767-.484 1.712-.582c1.46-.723 3.316-2.113 3.316-4.527v-6.47H12.432Zm8.862 6.47c0 1.186-.682 2.063-2.238 3.08a7.492 7.492 0 0 1-1.59.773 7.492 7.492 0 0 1-1.589-.772c-1.556-1.018-2.238-1.965-2.238-3.08v-5.23h7.655v5.228Z"/>
    <path fill="#D80027" d="M18.04 13.29h2.012v.603h-2.013v-.604Zm0 1.234h2.012v.604h-2.013v-.604Z"/>
  </g>
  <defs>
    <clipPath id="a">
      <rect width="35" height="24" y=".033" fill="#fff" rx="4"/>
    </clipPath>
  </defs>
</svg>
