<svg xmlns="http://www.w3.org/2000/svg" width="35" height="25" fill="none" viewBox="0 0 35 25">
  <g clip-path="url(#a)">
    <path fill="#000" d="M0 .334h35v24H0v-24Z"/>
    <path fill="#0072C6" d="M6.058 9.913a17.002 17.002 0 0 0 0 5.586l11.407.857 11.408-.85a17.003 17.003 0 0 0 0-5.586"/>
    <path fill="#fff" d="M28.873 15.703H6.06c1.078 4.898 5.778 8.582 11.407 8.582 5.629 0 10.33-3.684 11.407-8.582Z"/>
    <path fill="#FFDA44" d="M24.965 9.913H9.969l3.063-1.48-1.63-3.053 3.329.66.416-3.46 2.32 2.54 2.32-2.54.416 3.46 3.33-.66L21.9 8.433l3.064 1.48Z"/>
    <path fill="#CE1126" d="M17.5 24.334 0 .334v24h17.5Z"/>
    <path fill="#CE1126" d="M35 24.334v-24l-17.533 24H35Z"/>
  </g>
  <defs>
    <clipPath id="a">
      <rect width="35" height="24" y=".334" fill="#fff" rx="4"/>
    </clipPath>
  </defs>
</svg>
