<svg xmlns="http://www.w3.org/2000/svg" width="35" height="24" fill="none" viewBox="0 0 35 24">
  <g clip-path="url(#a)">
    <path fill="#003893" d="M0 0h35v24H0V0Z"/>
    <path fill="#CF2027" d="M0 12.786h35v2.905H0v-2.905Z"/>
    <path fill="#fff" d="M0 9.88h35v2.906H0V9.88Zm0 5.811h35v2.905H0v-2.905Z"/>
    <path fill="#F7D116" stroke="#000" d="m10.26 4.912.471 1.481h1.515l-1.228.92.47 1.48-1.227-.92-1.222.92.464-1.48-1.221-.92h1.515l.463-1.48Zm0 14.716.471 1.48h1.515l-1.228.913.47 1.488-1.227-.92-1.222.92.464-1.488-1.221-.912h1.515l.463-1.48Zm-6.658-4.975.47 1.48h1.515l-1.228.913.47 1.487-1.227-.919-1.222.92.464-1.488-1.22-.913h1.514l.464-1.48Zm2.544-8.267.471 1.48h1.515l-1.228.913.47 1.488-1.228-.92-1.22.92.463-1.488-1.228-.912h1.522l.463-1.481Zm-4.523 4.982h1.515l.464-1.48.47 1.48h1.515l-1.228.92.47 1.48-1.227-.912-1.222.912.464-1.48-1.22-.92Zm3.302 10.45.464-1.481-1.228-.912h1.522l.463-1.488.471 1.488h1.515l-1.228.912.47 1.48-1.228-.912-1.22.913Zm11.994-7.165-.47 1.48h-1.515l1.228.913-.47 1.487 1.227-.919 1.228.92-.47-1.488 1.228-.913H17.39l-.47-1.48Zm-2.545-8.267-.463 1.48h-1.515l1.221.913-.464 1.488 1.221-.92 1.229.92-.471-1.488 1.228-.912h-1.515l-.47-1.481Zm4.53 4.982H17.39l-.47-1.48-.471 1.48h-1.515l1.228.92-.47 1.48 1.227-.912 1.228.912-.47-1.48 1.228-.92Zm-3.301 10.45-.471-1.481 1.228-.912h-1.515l-.47-1.488-.464 1.488h-1.515l1.221.912-.464 1.48 1.221-.912 1.229.913Z"/>
  </g>
  <defs>
    <clipPath id="a">
      <rect width="35" height="24" fill="#fff" rx="4"/>
    </clipPath>
  </defs>
</svg>
