<svg xmlns="http://www.w3.org/2000/svg" width="35" height="24" fill="none" viewBox="0 0 35 24">
  <g clip-path="url(#a)">
    <path fill="#496E2D" d="M0 0h35v24H0V0Z"/>
    <path fill="#000" d="M0 7.784v8.439h35V7.784H0Z"/>
    <path fill="#FFDA44" d="M0 7.784h35v2.813H0V7.784Z"/>
    <path fill="#fff" d="M0 13.41h35v2.813H0V13.41Z"/>
    <path fill="#000" d="M13.398 0h8.204v24h-8.204V0Z"/>
    <path fill="#FFDA44" d="M13.398 0h2.735v24h-2.735V0Z"/>
    <path fill="#fff" d="M18.78 0h2.734v24h-2.735V0Z"/>
    <path fill="#D80027" d="M17.499 20.66c4.648 0 8.415-3.876 8.415-8.656 0-4.781-3.768-8.657-8.415-8.657-4.647 0-8.415 3.876-8.415 8.657 0 4.78 3.768 8.656 8.415 8.656Z"/>
    <path fill="#496E2D" d="m17.5 4.12.314 1h1.026l-.827.625.314.999-.827-.62-.827.62.314-.999-.827-.626h1.026l.314-.998Zm-4.505 1.506.834.618.827-.618-.314 1.005.827.619h-1.025l-.315.998-.321-.998h-1.026l.828-.619-.315-1.005Zm-2.782 3.937h1.025l.315-.998.321.998h1.025l-.834.62.322 1.005-.834-.619-.827.619.314-1.006-.827-.619Zm0 4.874.827-.62-.314-1.005.827.619.834-.619-.322 1.006.834.619h-1.025l-.321 1.005-.315-1.005h-1.025Zm2.782 3.944.315-1.005-.828-.619h1.026l.321-1.005.315 1.005h1.025l-.827.619.314 1.005-.827-.625-.834.625Zm4.505 1.505-.314-1.005H16.16l.827-.619-.314-1.006.827.62.827-.62-.314 1.006.827.619h-1.026l-.314 1.005Zm4.505-1.505-.834-.625-.827.625.314-1.005-.827-.619h1.025l.315-1.005.321 1.005h1.026l-.828.619.315 1.005Zm2.782-3.944h-1.025l-.315 1.005-.321-1.005h-1.025l.834-.62-.322-1.005.834.619.827-.619-.314 1.006.827.619Zm0-4.874-.827.62.314 1.005-.827-.619-.834.619.322-1.006-.834-.619h1.025l.321-.998.315.998h1.025Zm-2.782-3.937L21.69 6.63l.828.619h-1.026l-.321.998-.315-.998h-1.025l.827-.619-.314-1.005.827.618.834-.618Zm-2.912 6.237c-.752-1.484-.991-1.765-.991-1.765s.027-.682.027-1.097c0-.619-.506-1.111-1.128-1.111-.588 0-1.073.204-1.128.773a.725.725 0 0 0-.588.753c0 .337.069.513.356.654.143-.324.294-.338.635-.45.055.042.117.21.178.239l.02.07s-.909.464-.909 2.173c0 2.074 1.504 3.192 1.504 3.192l-.123.022-.13.499h1.504v-.506l.752 1.23c.02-.02.698-3.347.02-4.676Z"/>
  </g>
  <defs>
    <clipPath id="a">
      <rect width="35" height="24" fill="#fff" rx="4"/>
    </clipPath>
  </defs>
</svg>
