<svg xmlns="http://www.w3.org/2000/svg" width="35" height="25" fill="none" viewBox="0 0 35 25">
  <g clip-path="url(#a)">
    <path fill="#fff" d="M0 .953h34.932v24H0v-24Z"/>
    <path fill="#D03433" d="M0 .953h34.932v6.4H0v-6.4Zm0 17.6h34.932v6.4H0v-6.4Z"/>
    <path fill="#FBCA46" d="M0 7.339h34.932v11.228H0V7.339Z"/>
    <path fill="#fff" d="M12.11 12.153h1.552v.8h-1.553v-.8Z"/>
    <path fill="#A41517" d="M11.178 14.553c0 .48.465.8.931.8s.932-.32.932-.8l.155-2.4h-2.174l.156 2.4Zm-.932-2.4c0-.48.31-.8.621-.8h2.329c.466 0 .776.32.776.64v.16l-.155 2.4c-.155.96-.776 1.6-1.708 1.6-.931 0-1.552-.64-1.708-1.6l-.155-2.4Z"/>
    <path fill="#A41517" d="M10.557 12.953h3.105v.8h-.776l-.776 1.6-.776-1.6h-.777v-.8Zm-2.328-2.4H9.78v5.6H8.229v-5.6Zm6.21 0h1.552v5.6H14.44v-5.6Zm-3.882-.8c0-.48.31-.8.777-.8h1.552c.466 0 .776.32.776.8v.32c0 .32-.155.48-.465.48h-2.33c-.154 0-.31-.16-.31-.32v-.48Z"/>
  </g>
  <defs>
    <clipPath id="a">
      <rect width="35" height="24" y=".936" fill="#fff" rx="4"/>
    </clipPath>
  </defs>
</svg>
