<svg xmlns="http://www.w3.org/2000/svg" width="35" height="25" fill="none" viewBox="0 0 35 25">
  <g clip-path="url(#a)">
    <path fill="#fff" d="M0 .771h35v24H0v-24Z"/>
    <path fill="#D80027" d="M0 16.911h35v7.86H0v-7.86Z"/>
    <path fill="#D80027" stroke="#000" stroke-miterlimit="10" d="M24.773 10.02V7.725h.743v-1.53h-1.494v.766h-1.487v-.765h-1.488v1.53h.744v2.294h-1.487V4.666h.744v-1.53H19.56v.765h-.743v-.765h-1.488v.765h-.743v-.765h-1.488v1.53h.744v5.354h-1.487V7.725h.743v-1.53h-1.487v.766h-1.487v-.765h-1.488v1.53h.744v2.294H9.893v6.12H26.26v-6.12h-1.487Z"/>
    <path fill="#FFDA44" stroke="#000" stroke-miterlimit="10" d="m18.073 17.297-1.65 1.278 1.302 1.003v2.197h-1.582v.631h1.569v.555h-1.57v.652h2.28v-4.035l1.302-1.003-1.65-1.278Zm0 1.776-.689-.498.69-.499.688.499-.689.498Z"/>
    <path fill="#000" d="M16.347 15.487v-1.958s.007-1.565 1.706-1.565c1.692 0 1.753 1.544 1.753 1.544v1.979h-3.459Zm-4.714 0V13.78s.007-1.312 1.337-1.312 1.378 1.291 1.378 1.291v1.72h-2.715v.007Z"/>
    <path fill="#000" d="M11.537 15.487V13.78s.007-1.312 1.337-1.312 1.378 1.291 1.378 1.291v1.72h-2.715v.007Zm10.357 0V13.78s.007-1.312 1.337-1.312 1.378 1.291 1.378 1.291v1.72h-2.715v.007Zm.573-5.453V8.932s.007-.849.77-.849c.772 0 .8.835.8.835v1.116h-1.57Zm-5.376 0V8.371s.006-1.284.975-1.284c.97 0 1.003 1.263 1.003 1.263v1.684h-1.978Zm-4.98 0V8.932s.006-.849.77-.849.798.835.798.835v1.116H12.11Z"/>
  </g>
  <defs>
    <clipPath id="a">
      <rect width="35" height="24" y=".771" fill="#fff" rx="4"/>
    </clipPath>
  </defs>
</svg>
