<svg xmlns="http://www.w3.org/2000/svg" width="35" height="25" fill="none" viewBox="0 0 35 25">
  <g clip-path="url(#a)">
    <path fill="#D80027" d="M0 .467h34.932v23.951H0V.468Z"/>
    <path fill="#0052B4" d="M.758 1.246h33.41V23.64H.758V1.246Z"/>
    <path fill="#7DBEF1" d="M17.466 20.488s5.213-3.6 5.213-8.042-5.213-8.049-5.213-8.049-5.212 3.6-5.212 8.042 5.212 8.05 5.212 8.05Z"/>
    <path fill="#1C8AE6" d="M12.268 13.148h10.41l-1.998 4.554h-6.495l-1.917-4.554Z"/>
    <path fill="#FFF042" d="M13.12 14.916s2.762 2.681 3.479 2.681c.846 0 .86-1.291 1.74-1.79 1.378-.778 3.479-.89 3.479-.89l-1.556 3.003-2.797 2.568-3.193-2.786-1.153-2.786Z"/>
    <path fill="#259C7B" d="m17.466 11.52-1.535 1.095.539-1.839-1.488-1.158 1.87-.035.614-1.817.614 1.817 1.87.035-1.488 1.165.539 1.839-1.535-1.102Z"/>
    <path fill="#8E5715" d="M17.035 10.615a26.364 26.364 0 0 0-.116 1.936c-.02.835.02 1.453.137 1.825.15.463.49.905.968 1.326.362.323.724.569.97.71.21.118.477.041.593-.17a.46.46 0 0 0-.164-.61 5.43 5.43 0 0 1-.832-.61c-.369-.323-.621-.646-.71-.934-.075-.238-.11-.793-.095-1.522.013-.625.054-1.25.116-1.867a.445.445 0 0 0-.39-.491.442.442 0 0 0-.477.407Z"/>
    <path fill="#fff" d="m14.86 12.446 1.74 2.681h-1.74v-2.68Z"/>
    <path stroke="#D80027" stroke-miterlimit="10" stroke-width="12" d="M17.466 20.488s5.213-3.6 5.213-8.042-5.213-8.049-5.213-8.049-5.212 3.6-5.212 8.042 5.212 8.05 5.212 8.05Z"/>
  </g>
  <defs>
    <clipPath id="a">
      <rect width="35" height="24" y=".467" fill="#fff" rx="4"/>
    </clipPath>
  </defs>
</svg>
