<svg xmlns="http://www.w3.org/2000/svg" width="35" height="25" fill="none" viewBox="0 0 35 25">
  <g clip-path="url(#a)">
    <path fill="#fff" d="M0 .04h35v24H0v-24Z"/>
    <path fill="#338AF3" d="M0 .04h35v8H0v-8Zm0 16h35v8H0v-8Zm13.884-7.726.457 1.165 1.2.07-.954.765.32 1.242-1.023-.694-1.023.694.32-1.242-.955-.765 1.2-.07.458-1.165Zm7.164 0 .457 1.165 1.2.07-.954.765.32 1.242-1.023-.694-1.024.694.321-1.242-.955-.765 1.2-.07.458-1.165Zm-3.582 2.084.457 1.165 1.2.07-.954.765.32 1.242-1.023-.694-1.024.694.321-1.242-.955-.764 1.2-.07.458-1.166Zm-3.582 2.085.457 1.165 1.2.07-.954.765.32 1.235-1.023-.695-1.023.695.32-1.235-.955-.765 1.2-.07.458-1.165Zm7.164 0 .457 1.165 1.2.07-.954.765.32 1.235-1.023-.695-1.024.695.321-1.235-.955-.765 1.2-.07.458-1.165Z"/>
  </g>
  <defs>
    <clipPath id="a">
      <rect width="35" height="24" y=".041" fill="#fff" rx="4"/>
    </clipPath>
  </defs>
</svg>
