<svg xmlns="http://www.w3.org/2000/svg" width="35" height="25" fill="none" viewBox="0 0 35 25">
  <g clip-path="url(#a)">
    <path fill="#fff" d="M0 .074h35v24H0v-24Z"/>
    <path fill="#D80027" d="M20.59 12.074 35 2.193V.073h-3.09L17.5 9.955 3.09.074H0v2.119l14.41 9.88L0 21.955v2.12h3.09l14.41-9.881 14.41 9.88H35v-2.119l-14.41-9.88Z"/>
    <path fill="#FFDA44" d="m15.945 3.204 1.521.393 1.522-.393.273-1.467-1.017.456-.778-1.08-.778 1.08-1.016-.456.273 1.467Z"/>
    <path fill="#D80027" d="M15.945 3.204s-.273.905-.273 2.098c0 1.958 1.794 2.898 1.794 2.898s1.795-1.088 1.795-2.898c0-1.08-.273-2.098-.273-2.098s-.553-.351-1.522-.351-1.521.35-1.521.35Z"/>
  </g>
  <defs>
    <clipPath id="a">
      <rect width="35" height="24" y=".074" fill="#fff" rx="4"/>
    </clipPath>
  </defs>
</svg>
