<svg xmlns="http://www.w3.org/2000/svg" width="35" height="25" fill="none" viewBox="0 0 35 25">
  <g clip-path="url(#a)">
    <path fill="#D80027" d="M0 .804h35.068v24H0v-24Z"/>
    <path fill="#D80027" d="M17.501 24.762c6.445 0 11.669-5.364 11.669-11.98C29.17 6.168 23.946.805 17.5.805S5.832 6.167 5.832 12.783c0 6.615 5.224 11.979 11.669 11.979Z"/>
    <path fill="#FFDA44" d="m26.14 12.783-3.527 1.705 1.88 3.509-3.835-.751-.485 3.972L17.5 18.29l-2.673 2.927-.485-3.972-3.835.75 1.88-3.508-3.528-1.705 3.528-1.706-1.88-3.515 3.835.758.485-3.98L17.5 7.268l2.673-2.926.485 3.979 3.835-.758-1.88 3.515 3.528 1.706Z"/>
    <path fill="#D80027" d="M17.596 17.807c2.703 0 4.894-2.25 4.894-5.024 0-2.775-2.191-5.025-4.894-5.025-2.704 0-4.895 2.25-4.895 5.025 0 2.775 2.191 5.024 4.895 5.024Z"/>
    <path fill="#FFDA44" d="M14.643 12.783c-.144 0-.28.007-.424.02.007.843.3 1.608.793 2.211.26-.723.65-1.375 1.141-1.944a4.025 4.025 0 0 0-1.51-.287Zm1.818 3.263a3.23 3.23 0 0 0 1.135.203c.396 0 .779-.07 1.134-.203a4.369 4.369 0 0 0-1.134-2.021 4.369 4.369 0 0 0-1.135 2.02Zm4.06-4.997a3.353 3.353 0 0 0-2.925-1.733c-1.251 0-2.338.695-2.926 1.733a5.775 5.775 0 0 1 2.926.814 5.706 5.706 0 0 1 2.925-.814Zm-1.483 2.021a6.057 6.057 0 0 1 1.142 1.944 3.506 3.506 0 0 0 .793-2.21 4.051 4.051 0 0 0-1.935.267Z"/>
  </g>
  <defs>
    <clipPath id="a">
      <rect width="35" height="24" y=".804" fill="#fff" rx="4"/>
    </clipPath>
  </defs>
</svg>
