<svg xmlns="http://www.w3.org/2000/svg" width="35" height="25" fill="none" viewBox="0 0 35 25">
  <g clip-path="url(#a)">
    <path fill="#91DC5A" d="M0 .2h35v24H0V.2Z"/>
    <path fill="#fff" d="M0 .2h35v24H0V.2Z"/>
    <path fill="#0052B4" d="M0 .2h35v4.02H0V.2Zm0 19.979h35v4.02H0v-4.02Z"/>
    <path fill="#D80027" d="M0 5.816h35v12.768H0V5.816Z"/>
    <path fill="#fff" d="M13.01 16.817c2.48 0 4.49-2.068 4.49-4.618 0-2.55-2.01-4.617-4.49-4.617-2.479 0-4.489 2.067-4.489 4.617s2.01 4.618 4.49 4.618Z"/>
    <path fill="#D80027" d="m13.012 7.582 1.007 3.189h3.265l-2.642 1.97 1.014 3.198-2.644-1.98-2.641 1.977 1.011-3.194-2.64-1.971h3.262l1.008-3.189Z"/>
  </g>
  <defs>
    <clipPath id="a">
      <rect width="35" height="24" y=".2" fill="#fff" rx="4"/>
    </clipPath>
  </defs>
</svg>
