<svg xmlns="http://www.w3.org/2000/svg" width="35" height="24" fill="none" viewBox="0 0 35 24">
  <g clip-path="url(#a)">
    <path fill="#fff" d="M0 0h35v24H0V0Z"/>
    <path fill="#000" d="m5.77 7.52 3.204-4.95L5.77 7.52Zm1.215.834 3.205-4.95-3.205 4.95ZM8.2 9.19l3.205-4.95L8.2 9.189Zm15.393 10.57 3.205-4.95-3.205 4.95Zm1.216.835 3.204-4.95-3.204 4.95Zm1.215.834 3.205-4.95-3.205 4.95Z"/>
    <path stroke="#000" stroke-width="25" d="m26.024 21.43 3.205-4.95M5.769 7.52l3.205-4.95L5.77 7.52Zm1.216.834 3.205-4.95-3.205 4.95ZM8.2 9.19l3.205-4.95L8.2 9.189Zm15.393 10.57 3.205-4.95-3.205 4.95Zm1.216.835 3.204-4.95-3.204 4.95Z"/>
    <path fill="#000" d="m24.375 16.714 4.045 2.774-4.045-2.774Z"/>
    <path stroke="#fff" stroke-width="12.5" d="m24.375 16.714 4.045 2.774"/>
    <path fill="#CA163A" d="M22.373 15.35c1.776-2.745 1.034-6.47-1.658-8.32a5.72 5.72 0 0 0-8.09 1.619c-1.775 2.745-1.033 6.47 1.66 8.32a5.72 5.72 0 0 0 8.088-1.62Z"/>
    <path fill="#0E4896" d="M12.623 8.658a3.059 3.059 0 0 0 .829 4.157 2.86 2.86 0 0 0 4.042-.81 2.86 2.86 0 0 1 4.042-.808 3.059 3.059 0 0 1 .828 4.157 5.719 5.719 0 0 1-8.083 1.618c-2.689-1.848-3.431-5.573-1.658-8.314Z"/>
    <path fill="#000" d="M9.005 21.43 5.77 16.436l3.235 4.992Zm1.214-.833-3.236-4.992 3.236 4.992Zm1.213-.832-3.236-4.992 3.236 4.992Zm15.37-10.54-3.236-4.992 3.236 4.993Zm1.213-.831L24.78 3.4l3.236 4.993Zm1.214-.832-3.236-4.993 3.236 4.993Z"/>
    <path stroke="#000" stroke-width="25" d="m29.229 7.562-3.236-4.993M9.005 21.43 5.77 16.437l3.235 4.992Zm1.214-.832-3.236-4.992 3.236 4.992Zm1.213-.832-3.236-4.992 3.236 4.992Zm15.37-10.54-3.236-4.992 3.236 4.993Zm1.213-.831L24.78 3.4l3.236 4.993Z"/>
    <path fill="#000" d="m7.996 18.516 1.213-.832-1.213.832Zm16.38-11.232 1.417-.971-1.418.971Zm2.63-1.804 1.213-.832-1.213.832Z"/>
    <path stroke="#fff" stroke-width="12.5" d="m27.006 5.48 1.213-.832M7.997 18.516l1.213-.832-1.213.832Zm16.38-11.232 1.417-.971-1.418.971Z"/>
  </g>
  <defs>
    <clipPath id="a">
      <rect width="35" height="24" fill="#fff" rx="4"/>
    </clipPath>
  </defs>
</svg>
