<svg xmlns="http://www.w3.org/2000/svg" width="35" height="25" fill="none" viewBox="0 0 35 25">
  <g clip-path="url(#a)">
    <path fill="#0052B4" d="M0 .033h35v24H0v-24Z"/>
    <path fill="#6DA544" d="M26.25 8.902c1.12 0 2.029-.934 2.029-2.087 0-1.152-.909-2.087-2.03-2.087-1.12 0-2.028.935-2.028 2.087 0 1.153.908 2.087 2.029 2.087Z"/>
    <path fill="#D80027" d="M22.7 6.294h7.1v3.13h-7.1v-3.13Z"/>
    <path fill="#FFDA44" d="M22.7 14.12v2.087h1.067a3.487 3.487 0 0 0 2.483 1.043c.967 0 1.843-.398 2.483-1.043h1.068V14.12h-7.102Z"/>
    <path fill="#338AF3" d="M22.7 8.903v3.13c0 2.796 3.55 3.652 3.55 3.652s3.55-.856 3.55-3.652v-3.13h-7.1Z"/>
    <path fill="#F3F3F3" d="M26.25 10.575c-.888 0-.888.835-1.776.835-.887 0-.887-.835-1.775-.835v1.46c.888 0 .888.835 1.775.835.888 0 .888-.834 1.776-.834.887 0 .887.834 1.775.834.888 0 .888-.834 1.776-.834v-1.461c-.888 0-.888.835-1.776.835-.887 0-.887-.835-1.775-.835Zm0-2.925c-.888 0-.888.835-1.776.835-.887 0-.887-.835-1.775-.835v1.461c.888 0 .888.835 1.775.835.888 0 .888-.835 1.776-.835.887 0 .887.835 1.775.835.888 0 .888-.835 1.776-.835v-1.46c-.888 0-.888.834-1.776.834-.887 0-.887-.835-1.775-.835Z"/>
    <path fill="#fff" d="M17.5.033v1.59l-3.15 2.16h3.15v4.5h-3.15l3.15 2.16v1.59h-1.547l-5.015-3.44v3.44H6.561v-3.44l-5.015 3.44H0v-1.59l3.15-2.16H0v-4.5h3.15L0 1.623V.034h1.547l5.016 3.44V.032h4.375v3.44l5.015-3.44H17.5Z"/>
    <path fill="#D80027" d="M9.844.033H7.656v4.875H0v2.25h7.656v4.875h2.188V7.158H17.5v-2.25H9.844V.033Z"/>
    <path fill="#D80027" d="M0 .033v1.06l3.922 2.69H5.47L0 .033Zm17.5 0v1.06l-3.922 2.69H12.03L17.5.033Z"/>
    <path fill="#D80027" d="M0 .033v1.06l3.922 2.69H5.47L0 .033Zm17.5 0v1.06l-3.922 2.69H12.03L17.5.033Zm-17.5 12v-1.06l3.922-2.69H5.47L0 12.033Zm17.5 0v-1.06l-3.922-2.69H12.03l5.469 3.75Z"/>
  </g>
  <defs>
    <clipPath id="a">
      <rect width="35" height="24" y=".033" fill="#fff" rx="4"/>
    </clipPath>
  </defs>
</svg>
