<svg xmlns="http://www.w3.org/2000/svg" width="35" height="25" fill="none" viewBox="0 0 35 25">
  <g clip-path="url(#a)">
    <path fill="#FFDA44" d="M0 .033h35v24H0v-24Z"/>
    <path fill="#A2001D" d="M15.188 1.598H33.41v20.828H15.187V1.598Z"/>
    <path fill="#D80027" d="M1.521 1.598h13.666v20.828H1.521V1.598Z"/>
    <path fill="#FFDA44" d="M13.666.033h1.521v24h-1.521v-24Z"/>
    <path fill="#6DA544" d="M1.521 1.598h6.073v20.828H1.52V1.598Z"/>
    <path fill="#FF9811" d="M7.594 1.598h6.072v20.828H7.594V1.598Z"/>
    <path fill="#FFDA44" d="M25.12 11.037c-.095-.14 0-2.66 0-2.66.062-.52.008-.59.07-.8.06-.203.367-.814.367-.814s-.409-.161-.702-.042c-.294.12-1.685-.526-2.129.239-.3.49-1.61 1.136-1.678.982-.068-.154-.403-.35-.471-.204-.068.148-.048.976 0 1.123.055.183.669.14.84.218.252.126.831.575.811.75-.02.176-1.535-.42-1.651-.315-.096.084-.13.926-.027 1.053.122.147 1.596.393 1.705.526.11.133-.893.52-.839 1.754.048 1.032.546 1.221.546 1.221s-.164.253-.532.218c-.423-.042-1.87-1.242-1.87-1.242s-.238-7.65.246-8.52c.334-.596-1.549.71-1.549 3.565v2.54c0 .464-.095 1.573.178 2.387 0 0-.028 3.29.102 3.48.13.19.867.155 1.01 0 .143-.154 0-2.105 0-2.105.525.014 1.248 1.228 2.217 1.151 1.406-.112 1.958-.695 2.34-.35.553.497.376 1.627.028 2.21-.15.245-.976.33-1.072.533a.392.392 0 0 0 .035.379h2.026s.095-1.439.184-1.832c.089-.4-.04-.75.403-.73 1.603.078 2.715-1.073 3.104-.56.218.287.382 2.097.225 2.336-.15.239-.941.196-1.037.47-.096.28.055.309.055.309h2.026s-.027-1.488.17-1.944c.198-.456.335-.73.635-1.207.3-.477.77-1.102.77-2.54 0-.997-.552-1.6-.552-1.6H28.45c-.962.014-3.234.161-3.33.02ZM15.843 2.3c.73-.744 1.378-.19 1.515.147.13.337.143.576.19.955.062.484.335.982.335.982s-.484-.267-1.003-.295c-.32-.02-.614-.042-.928-.175-.389-.162-.798-.905-.109-1.614Zm16.947-.007c.73.744.191 1.417-.136 1.558-.328.14-.56.147-.928.196-.47.063-.955.351-.955.351s.252-.498.287-1.031c.02-.33.04-.64.163-.955.15-.4.874-.828 1.57-.12Zm.007 19.431c-.73.744-1.378.183-1.514-.154-.13-.337-.144-.575-.184-.954-.055-.485-.335-.99-.335-.99s.478.267 1.003.302c.32.021.614.042.928.175.389.169.798.92.102 1.621Zm-16.933-.007c-.724-.75-.185-1.417.143-1.557.327-.134.56-.148.928-.197.47-.063.955-.344.955-.344s-.26.498-.287 1.032c-.02.33-.04.631-.17.954-.157.4-.88.828-1.57.112Z"/>
    <path stroke="#FFDA44" stroke-miterlimit="10" stroke-width="6" d="M30.49 11.43s.511-.183.573-1.13c.04-.604-1.351-1.123-2.661-.807-1.344.323-2.32-.218-2.32-1.025 0-1.607 2.026-1.137 2.654-.793.62.344 2.026 1.65 2.395.66"/>
  </g>
  <defs>
    <clipPath id="a">
      <rect width="35" height="24" y=".033" fill="#fff" rx="4"/>
    </clipPath>
  </defs>
</svg>
