<svg xmlns="http://www.w3.org/2000/svg" width="35" height="25" fill="none" viewBox="0 0 35 25">
  <g clip-path="url(#a)">
    <path fill="#D01920" d="M0 .333h35v24H0v-24Z"/>
    <path fill="#017C3B" d="M9.89 6.594h15.218v11.479H9.891V6.594Z"/>
    <path fill="#fff" d="M19.379 15.724c-1.821 0-3.297-1.518-3.297-3.39 0-1.874 1.476-3.392 3.297-3.392a3.21 3.21 0 0 1 1.568.407 3.987 3.987 0 0 0-2.836-1.19c-2.241 0-4.058 1.869-4.058 4.174 0 2.305 1.817 4.174 4.058 4.174a3.987 3.987 0 0 0 2.836-1.19c-.466.26-1 .407-1.568.407Z"/>
  </g>
  <defs>
    <clipPath id="a">
      <rect width="35" height="24" y=".333" fill="#fff" rx="4"/>
    </clipPath>
  </defs>
</svg>
