<svg xmlns="http://www.w3.org/2000/svg" width="35" height="24" fill="none" viewBox="0 0 35 24">
  <g clip-path="url(#a)">
    <path fill="#fff" d="M0 0h35v24H0V0Z"/>
    <path fill="#C00" d="M0 0h35v1.712H0V0Zm0 3.432h35v1.712H0V3.432Zm0 3.424h35v1.712H0V6.856Zm0 3.432h35V12H0v-1.712Zm0 3.424h35v1.713H0v-1.713Zm0 3.432h35v1.712H0v-1.712Zm0 3.424h35v1.713H0v-1.713Z"/>
    <path fill="#006" d="M0 0h17.5v13.712H0V0Z"/>
    <path fill="#FC0" d="M10.46 2.954c-2.095-.8-4.421.295-5.199 2.45-.778 2.154.287 4.547 2.381 5.347.908.35 1.91.35 2.825 0-2.095 1.72-5.144 1.375-6.823-.78-1.678-2.154-1.337-5.29.758-7.017a4.756 4.756 0 0 1 6.058 0Zm1.822 5.263-1.406 1.636.369-2.148-2.115-.112 1.862-1.046-1.235-1.775 1.952.842.573-2.098.573 2.098 1.951-.842-1.228 1.782L15.44 7.6l-2.116.112.369 2.148-1.412-1.643Z"/>
  </g>
  <defs>
    <clipPath id="a">
      <rect width="35" height="24" fill="#fff" rx="4"/>
    </clipPath>
  </defs>
</svg>
