<svg xmlns="http://www.w3.org/2000/svg" width="35" height="24" fill="none" viewBox="0 0 35 24">
  <g clip-path="url(#a)">
    <path fill="#496E2D" d="M0 0h35v24H0V0Z"/>
    <path fill="#0052B4" d="M0 24V0h35"/>
    <path fill="#fff" d="M35 4.703V0h-6.858L0 19.297V24h6.859L35 4.703Z"/>
    <path fill="#A2001D" d="M35 0v2.822L4.115 24H0v-2.822L30.885 0H35Z"/>
    <path fill="#FFDA44" d="m12.833 7.304-1.554.752.828 1.549-1.688-.333-.214 1.754-1.176-1.29-1.176 1.29-.214-1.754-1.688.333.828-1.549-1.554-.752 1.554-.752-.828-1.549 1.688.332.214-1.753 1.176 1.29 1.176-1.29.214 1.753 1.688-.332-.828 1.549 1.554.752Z"/>
  </g>
  <defs>
    <clipPath id="a">
      <rect width="35" height="24" fill="#fff" rx="4"/>
    </clipPath>
  </defs>
</svg>
