<svg xmlns="http://www.w3.org/2000/svg" width="35" height="25" fill="none" viewBox="0 0 35 25">
  <g clip-path="url(#a)">
    <path fill="#FFDA44" d="M0 .17h35v24H0v-24Z"/>
    <path fill="#fff" d="M0 .17h17.5v12H0v-12Z"/>
    <path fill="#D80027" d="M9.844.17H7.656v4.874H0v2.25h7.656v4.875h2.188V7.294H17.5v-2.25H9.844V.17Z"/>
    <path fill="#D80027" d="M0 .17v1.06l3.922 2.69H5.47L0 .17Z"/>
    <path fill="#2E52B2" d="M0 1.76v2.16h3.15L0 1.76ZM6.563.17v3.438L1.546.17h5.016Z"/>
    <path fill="#D80027" d="M17.5.17v1.06l-3.922 2.69H12.03L17.5.17Z"/>
    <path fill="#2E52B2" d="M17.5 1.76v2.16h-3.15l3.15-2.16ZM10.937.17v3.438L15.954.17h-5.015Z"/>
    <path fill="#D80027" d="M0 .17v1.06l3.922 2.69H5.47L0 .17Z"/>
    <path fill="#2E52B2" d="M0 1.76v2.16h3.15L0 1.76ZM6.563.17v3.438L1.546.17h5.016Z"/>
    <path fill="#D80027" d="M17.5.17v1.06l-3.922 2.69H12.03L17.5.17Z"/>
    <path fill="#2E52B2" d="M17.5 1.76v2.16h-3.15l3.15-2.16ZM10.937.17v3.438L15.954.17h-5.015Z"/>
    <path fill="#D80027" d="M0 12.17v-1.061l3.922-2.69H5.47L0 12.17Z"/>
    <path fill="#2E52B2" d="M0 10.579v-2.16h3.15L0 10.58Zm6.563 1.59v-3.44l-5.016 3.44h5.016Z"/>
    <path fill="#D80027" d="M17.5 12.17v-1.061l-3.922-2.69H12.03l5.469 3.75Z"/>
    <path fill="#2E52B2" d="M17.5 10.579v-2.16h-3.15l3.15 2.16Zm-6.563 1.59v-3.44l5.016 3.44h-5.015ZM8.75 7.76c.854 0 1.547-.712 1.547-1.59 0-.88-.693-1.592-1.547-1.592S7.203 5.29 7.203 6.17s.693 1.59 1.547 1.59Z"/>
    <path fill="#FFDA44" d="m8.75 5.044.272.86H9.9l-.71.53.271.86-.71-.531-.711.531.271-.86-.71-.53h.878l.271-.86Zm0 4.58.162.512h.523l-.423.316.162.512-.424-.316-.423.316.162-.512-.423-.316h.523l.161-.512Zm0-8.25.162.512h.523l-.423.316.162.512-.424-.316-.423.316.162-.512-.423-.316h.523l.161-.512ZM13.53 5.5l.163.512h.523l-.424.316.162.512-.423-.316-.423.316.161-.512-.423-.316h.523l.162-.512Zm-9.56 0 .162.512h.523l-.423.316.161.512-.423-.316-.423.316.161-.512-.423-.316h.523L3.97 5.5Z"/>
  </g>
  <defs>
    <clipPath id="a">
      <rect width="35" height="24" y=".169" fill="#fff" rx="4"/>
    </clipPath>
  </defs>
</svg>
