<svg xmlns="http://www.w3.org/2000/svg" width="35" height="25" fill="none" viewBox="0 0 35 25">
  <g clip-path="url(#a)">
    <path fill="#fff" d="M0 .901h35v24H0V.9Z"/>
    <path fill="#D80027" d="M0 .901h35v12H0V.9Z"/>
    <path fill="#fff" d="M5.707 6.901c0-1.748 1.195-3.209 2.79-3.567a3.464 3.464 0 0 0-.76-.085c-1.962 0-3.551 1.635-3.551 3.652 0 2.017 1.59 3.652 3.55 3.652.262 0 .516-.03.761-.085-1.595-.358-2.79-1.819-2.79-3.567Zm4.566-3.391.251.797h.815l-.66.493.253.797-.66-.493-.659.493.252-.797-.66-.493h.816l.252-.797Z"/>
    <path fill="#fff" d="m8.295 5.075.252.797h.815l-.66.493.252.797-.659-.493-.66.493.253-.797-.66-.493h.815l.252-.797Zm3.954 0 .252.797h.815l-.66.493.252.797-.66-.493-.659.493.252-.797-.659-.493h.815l.252-.797Zm-.761 2.348.252.797h.815l-.66.493.252.797-.66-.493-.658.493.252-.797-.66-.493h.815l.252-.797Zm-2.432 0 .252.797h.815l-.66.493.252.797-.659-.493-.66.493.253-.797-.66-.493h.815l.252-.797Z"/>
  </g>
  <defs>
    <clipPath id="a">
      <rect width="35" height="24" y=".901" fill="#fff" rx="4"/>
    </clipPath>
  </defs>
</svg>
