<svg xmlns="http://www.w3.org/2000/svg" width="35" height="24" fill="none" viewBox="0 0 35 24">
  <g clip-path="url(#a)">
    <path fill="#fff" d="M0 0h35v24H0V0Z"/>
    <path fill="#1583C4" d="m27.186 11.694-3.486 6.87a.292.292 0 0 0 .123.394c.136.077.307.021.383-.127l3.486-6.87a.289.289 0 0 0-.137-.386.282.282 0 0 0-.369.119Z"/>
    <path fill="#1583C4" d="m27.678 13.22-3.95 5.302a.3.3 0 0 0 .074.408.28.28 0 0 0 .376-.05l3.952-5.301a.29.29 0 0 0-.055-.408.272.272 0 0 0-.397.049Z"/>
    <path fill="#1583C4" d="m25.908 12.749-2.221 5.843c-.055.148.013.324.164.38a.283.283 0 0 0 .369-.169l2.222-5.843a.298.298 0 0 0-.178-.373.298.298 0 0 0-.356.162Z"/>
    <path fill="#409347" d="M8.346 12.088c.027.12.082.33.15.598.117.45.247.9.383 1.315.158.485 1.005 2.208 1.381 2.75a46.66 46.66 0 0 0 1.47 2.01c.11.134.307.148.437.035a.333.333 0 0 0 .048-.436 45.532 45.532 0 0 1-1.449-1.983c-.287-.407-1.176-2.186-1.299-2.58a25.02 25.02 0 0 1-.52-1.864.31.31 0 0 0-.362-.246.318.318 0 0 0-.239.373c-.007.014 0 .02 0 .028Z"/>
    <path fill="#FFD836" stroke="#231F20" stroke-miterlimit="10" d="M20.31 8.08s-1.204-5.07-2.468-5.07c-.472 0-.814-.042-1.053.45-.062.12-1.415-.113-1.306 1.462.035.486.076-.689 1.019-.239.43.211-1.121 3.39-1.121 3.39h4.929v.007Z"/>
    <path fill="#FFD836" stroke="#231F20" stroke-miterlimit="10" d="M31.863 3.403 25.649 4.95c-5.147 1.287-2.878 3.123-2.878 3.123l-4.928.843-4.93-.843s2.27-1.836-2.877-3.123L3.822 3.403c-.875-.218-1.217.24-.725 1.027 0 0 7.287 7.313 8.668 7.876 1.381.57 2.79 0 2.79 0s-1.02.612-1.641 1.688c-.63 1.075-.315 2.44-2.66 2.826-.375.465-.341.985.199 1.4.54.408 4.929-3.383 4.929-3.383s-1.641 1.716-1.641 2.539c0 .359 3.015 3.783 4.108 3.783 1.094 0 4.109-3.424 4.109-3.783 0-.823-1.64-2.539-1.64-2.539s4.388 3.79 4.928 3.383c.54-.408.78-1.357.191-1.4-1.914-.126-2.03-1.75-2.659-2.826s-1.64-1.688-1.64-1.688 1.408.57 2.788 0c1.381-.57 8.662-7.876 8.662-7.876.492-.787.157-1.245-.725-1.027Z"/>
    <path fill="#fff" stroke="#231F20" stroke-miterlimit="10" d="M13.76 7.862v5.646c0 3.214 4.08 4.198 4.08 4.198s4.082-.984 4.082-4.197V7.861H13.76Z"/>
    <path fill="#D80027" d="M15.395 9.683v6.842c.56.422 1.162.717 1.633.907v-7.75h-1.633Zm4.894 0v6.842a7.274 7.274 0 0 1-1.634.907v-7.75h1.634Z"/>
    <path fill="#0052B4" d="M13.76 7.862h8.162v2.665H13.76V7.862Z"/>
    <path fill="#1583C4" d="m4.11 14.802-1.498-4.085H1.074l2.174 5.681h1.723l2.153-5.681H5.586l-1.477 4.085Zm26.755-4.12h1.292v5.745h-1.292V10.68Z"/>
  </g>
  <defs>
    <clipPath id="a">
      <rect width="35" height="24" fill="#fff" rx="4"/>
    </clipPath>
  </defs>
</svg>
