<svg xmlns="http://www.w3.org/2000/svg" width="35" height="25" fill="none" viewBox="0 0 35 25">
  <g clip-path="url(#a)">
    <path fill="#D80027" d="M0 .233h35v24H0v-24Z"/>
    <path fill="#0052B4" d="M0 .233h17.5v12H0v-12Z"/>
    <path fill="#fff" d="m11.313 7.016.189.597h.61l-.494.37.19.598-.495-.37-.495.37.19-.598-.495-.37h.61l.19-.597ZM8.243 2.32l.315.996h1.019l-.824.616.314.996-.824-.615-.824.615.315-.996-.824-.616h1.018l.315-.996Zm3.044 1.043.314.997h1.02l-.825.616.315.996-.824-.616-.824.616.314-.996-.824-.616h1.019l.315-.997ZM8.88 7.537l.315.997h1.018l-.824.616.315.996-.824-.616-.824.616.315-.996-.824-.616h1.018l.315-.997ZM6.214 4.928l.315.997h1.019l-.824.616.314.996-.824-.616-.824.616.315-.996-.824-.616h1.018l.315-.997Z"/>
  </g>
  <defs>
    <clipPath id="a">
      <rect width="35" height="24" y=".233" fill="#fff" rx="4"/>
    </clipPath>
  </defs>
</svg>
