<svg xmlns="http://www.w3.org/2000/svg" width="35" height="24" fill="none" viewBox="0 0 35 24">
  <g clip-path="url(#a)">
    <path fill="#fff" d="M0 0h35v24H0V0Z"/>
    <path fill="#ABABAB" stroke="#7F7F7F" stroke-width=".25" d="M29.399 15.84c-.428.28 0 .72-.233.76-.234.04-.584-.56-.078-1 .622-.6 2.255 0 2.294 1.72 0 .88-.35 2.72-2.8 2.72-2.955 0-4.433-2.28-4.433-4.56 0-1.92 1.439-5.4 2.528-5.84 1.205-.48 2.605-1.4 2.644-2 0-.2-.544-.04-1.283.36-1.206.68-2.567 1-2.567.56 0-.44 1.128-1.24 1.556-1.84.466-.64.35-2.2 1.166-2.2 2.956 0 3.85 3.08 2.723 4.68-.74 1.04 1.672.4 1.672.4s0 2.12-1.245 2.92c-1.166.72-1.866 1.56-1.866 1.56s.078-1.84-.195-1.56c-.233.28-4.316 1.8-4.005 4.8.116 1.2 1.75 2.16 3.305 2.08 1.556-.08 2.217-.96 2.256-1.96.039-1.56-1.167-1.76-1.439-1.6ZM4.16 17.44c.039 1 .7 1.88 2.256 1.96 1.555.08 3.189-.88 3.305-2.08.311-3-3.772-4.52-4.005-4.8-.273-.28-.195 1.56-.195 1.56s-.7-.84-1.866-1.56C2.41 11.72 2.41 9.6 2.41 9.6s2.411.64 1.672-.4C2.955 7.6 3.85 4.52 6.805 4.52c.816 0 .7 1.56 1.166 2.2.428.6 1.556 1.4 1.556 1.84 0 .44-1.361.12-2.567-.56-.739-.4-1.283-.56-1.283-.36.039.6 1.439 1.52 2.644 2 1.09.44 2.528 3.92 2.528 5.84 0 2.28-1.478 4.56-4.433 4.56-2.45 0-2.8-1.84-2.8-2.72C3.655 15.6 5.288 15 5.91 15.6c.467.44.156 1.08-.078 1-.233-.04.234-.48-.233-.76-.233-.16-1.439.04-1.439 1.6Z"/>
    <path fill="#DE393A" d="M12.055 11.52v5.6c0 .76.816.64.816.64h3.617c.467 0 1.011.92 1.011.92s.545-.92.972-.92h3.734s.778.08.778-.72v-5.56H12.055v.04Z"/>
    <path fill="#3951A3" d="M12.055 5.24h10.889v6.28h-10.89V5.24Z"/>
    <path fill="#fff" d="M19.483 6.6A1.993 1.993 0 0 1 17.5 8.28c-.973 0-1.79-.72-1.984-1.68-.194.36-.31.76-.31 1.2 0 1.32 1.01 2.36 2.294 2.36 1.283 0 2.294-1.04 2.294-2.36 0-.44-.117-.84-.311-1.2Z"/>
    <path fill="#FEE05F" d="M15.206 15.8c.644 0 1.166-.537 1.166-1.2 0-.663-.522-1.2-1.166-1.2-.645 0-1.167.537-1.167 1.2 0 .663.522 1.2 1.167 1.2Zm4.588 0c.644 0 1.166-.537 1.166-1.2 0-.663-.522-1.2-1.166-1.2-.645 0-1.167.537-1.167 1.2 0 .663.522 1.2 1.167 1.2Z"/>
  </g>
  <defs>
    <clipPath id="a">
      <rect width="35" height="24" fill="#fff" rx="4"/>
    </clipPath>
  </defs>
</svg>
