<svg xmlns="http://www.w3.org/2000/svg"
     fill="currentColor"
     viewBox="0 0 24 24">
    <path fill="#000"
          d="m15.467 8.262-.383.924.383-.924Zm4.55 11.262a1 1 0 1 0 .765-1.848l-.764 1.848ZM3.383 10.476a1 1 0 1 0-.764 1.848l.764-1.848ZM5.788 3.4h12.424v-2H5.788v2Zm12.424 17.2H5.788v2h12.424v-2ZM3.4 18.212V5.788h-2v12.424h2ZM5.788 20.6A2.388 2.388 0 0 1 3.4 18.212h-2A4.388 4.388 0 0 0 5.788 22.6v-2ZM20.6 18.212a2.388 2.388 0 0 1-2.388 2.388v2a4.388 4.388 0 0 0 4.388-4.388h-2ZM18.212 3.4A2.388 2.388 0 0 1 20.6 5.788h2A4.388 4.388 0 0 0 18.212 1.4v2Zm-12.424-2A4.388 4.388 0 0 0 1.4 5.788h2A2.388 2.388 0 0 1 5.788 3.4v-2ZM20.6 10.8v7.412h2V10.8h-2ZM3.818 4.524l11.266 4.662.765-1.848L4.582 2.676l-.764 1.848Zm11.266 4.662 6.134 2.538.764-1.848-6.133-2.538-.765 1.848Zm2.241-6.649L14.58 7.8l1.773.925 2.745-5.262-1.773-.925Zm3.457 15.139-17.4-7.2-.764 1.848 17.4 7.2.764-1.848ZM20.6 5.788V10.8h2V5.788h-2Z" />
</svg>