<svg width="40" height="40" viewBox="0 0 40 40" fill="none" xmlns="http://www.w3.org/2000/svg">
<path d="M24.4764 19.1875L10.6401 16.75V34.7612C10.64 34.957 10.6784 35.1509 10.7534 35.3317C10.8283 35.5126 10.9382 35.6769 11.0767 35.8152C11.2152 35.9535 11.3797 36.0631 11.5607 36.1377C11.7417 36.2123 11.9356 36.2505 12.1314 36.25H36.0064C36.2024 36.2508 36.3966 36.2129 36.5778 36.1385C36.7591 36.064 36.9239 35.9544 37.0627 35.8161C37.2015 35.6778 37.3116 35.5133 37.3867 35.3323C37.4617 35.1513 37.5003 34.9572 37.5001 34.7612V28.125L24.4764 19.1875Z" fill="#185C37"/>
<path d="M24.4764 3.75H12.1314C11.9356 3.74951 11.7417 3.78766 11.5607 3.86227C11.3797 3.93689 11.2152 4.04649 11.0767 4.1848C10.9382 4.32311 10.8283 4.4874 10.7534 4.66826C10.6784 4.84912 10.64 5.04299 10.6401 5.23875V11.875L24.4764 20L31.8026 22.4375L37.5001 20V11.875L24.4764 3.75Z" fill="#21A366"/>
<path d="M10.6401 11.875H24.4764V20H10.6401V11.875Z" fill="#107C41"/>
<path opacity="0.1" d="M20.5426 10.25H10.6401V30.5625H20.5426C20.9372 30.5605 21.3151 30.4032 21.5945 30.1245C21.8739 29.8458 22.0322 29.4683 22.0351 29.0738V11.7387C22.0322 11.3442 21.8739 10.9667 21.5945 10.688C21.3151 10.4093 20.9372 10.252 20.5426 10.25Z" fill="black"/>
<path opacity="0.2" d="M19.7289 11.0625H10.6401V31.375H19.7289C20.1235 31.373 20.5014 31.2157 20.7808 30.937C21.0601 30.6583 21.2184 30.2808 21.2214 29.8862V12.5512C21.2184 12.1567 21.0601 11.7792 20.7808 11.5005C20.5014 11.2218 20.1235 11.0645 19.7289 11.0625Z" fill="black"/>
<path opacity="0.2" d="M19.7289 11.0625H10.6401V29.75H19.7289C20.1235 29.748 20.5014 29.5907 20.7808 29.312C21.0601 29.0333 21.2184 28.6558 21.2214 28.2612V12.5512C21.2184 12.1567 21.0601 11.7792 20.7808 11.5005C20.5014 11.2218 20.1235 11.0645 19.7289 11.0625Z" fill="black"/>
<path opacity="0.2" d="M18.9151 11.0625H10.6401V29.75H18.9151C19.3097 29.748 19.6876 29.5907 19.967 29.312C20.2464 29.0333 20.4047 28.6558 20.4076 28.2612V12.5512C20.4047 12.1567 20.2464 11.7792 19.967 11.5005C19.6876 11.2218 19.3097 11.0645 18.9151 11.0625Z" fill="black"/>
<path d="M3.9925 11.0625H18.915C19.3103 11.0622 19.6895 11.2188 19.9694 11.498C20.2493 11.7771 20.4068 12.156 20.4075 12.5513V27.4488C20.4068 27.844 20.2493 28.2229 19.9694 28.5021C19.6895 28.7812 19.3103 28.9378 18.915 28.9375H3.9925C3.79663 28.9382 3.60257 28.9001 3.42143 28.8256C3.2403 28.7511 3.07568 28.6415 2.937 28.5032C2.79833 28.3648 2.68834 28.2005 2.61335 28.0195C2.53835 27.8386 2.49983 27.6446 2.5 27.4488V12.5513C2.49983 12.3554 2.53835 12.1614 2.61335 11.9805C2.68834 11.7995 2.79833 11.6352 2.937 11.4969C3.07568 11.3585 3.2403 11.249 3.42143 11.1744C3.60257 11.0999 3.79663 11.0618 3.9925 11.0625Z" fill="url(#paint0_linear_7456_430987)"/>
<path d="M7.125 24.8407L10.2638 19.9857L7.38875 15.1582H9.6975L11.2662 18.2495C11.4112 18.542 11.5163 18.7595 11.5638 18.9045H11.585C11.6875 18.6703 11.7958 18.4428 11.91 18.222L13.5875 15.1632H15.7125L12.7638 19.9632L15.7875 24.8445H13.5263L11.7138 21.4557C11.6298 21.3099 11.5583 21.1573 11.5 20.9995H11.47C11.417 21.1533 11.3466 21.3005 11.26 21.4382L9.39375 24.8407H7.125Z" fill="white"/>
<path d="M36.0073 3.75001H24.4761V11.875H37.4998V5.23876C37.5 5.04289 37.4615 4.84892 37.3865 4.66798C37.3115 4.48703 37.2015 4.32268 37.0628 4.18436C36.9241 4.04603 36.7595 3.93646 36.5784 3.86192C36.3973 3.78738 36.2032 3.74935 36.0073 3.75001Z" fill="#33C481"/>
<path d="M24.4761 20H37.4998V28.125H24.4761V20Z" fill="#107C41"/>
<defs>
<linearGradient id="paint0_linear_7456_430987" x1="5.6175" y1="9.89251" x2="17.29" y2="30.1075" gradientUnits="userSpaceOnUse">
<stop stop-color="#18884F"/>
<stop offset="0.5" stop-color="#117E43"/>
<stop offset="1" stop-color="#0B6631"/>
</linearGradient>
</defs>
</svg>
