<svg xmlns="http://www.w3.org/2000/svg"
     fill="currentColor"
     viewBox="0 0 24 24">
    <path fill="#000"
          d="M8.8 20.1a1 1 0 1 0-2 0h2Zm-2 1.8a1 1 0 1 0 2 0h-2Zm9 0a1 1 0 1 0 2 0h-2ZM10.6 5.7a1 1 0 1 0-2 0h2Zm-2 10.8a1 1 0 1 0 2 0h-2Zm6.8-10.8a1 1 0 1 0-2 0h2Zm-2 10.8a1 1 0 1 0 2 0h-2Zm-6.6 3.6v1.8h2v-1.8h-2Zm9 0v1.8h2v-1.8h-2ZM8.6 5.7v10.8h2V5.7h-2Zm4.8 0v10.8h2V5.7h-2ZM7.2 3.1h9.6v-2H7.2v2Zm11 1.4v13.2h2V4.5h-2Zm-1.4 14.6H7.2v2h9.6v-2Zm-11-1.4V4.5h-2v13.2h2Zm1.4 1.4a1.4 1.4 0 0 1-1.4-1.4h-2a3.4 3.4 0 0 0 3.4 3.4v-2Zm11-1.4a1.4 1.4 0 0 1-1.4 1.4v2a3.4 3.4 0 0 0 3.4-3.4h-2ZM16.8 3.1a1.4 1.4 0 0 1 1.4 1.4h2a3.4 3.4 0 0 0-3.4-3.4v2Zm-9.6-2a3.4 3.4 0 0 0-3.4 3.4h2a1.4 1.4 0 0 1 1.4-1.4v-2Z" />
</svg>