<svg xmlns="http://www.w3.org/2000/svg"
     fill="currentColor"
     viewBox="0 0 24 24">
    <path stroke="currentColor"
          stroke-linecap="round"
          stroke-linejoin="round"
          stroke-width="2"
          d="m12.873 12.675-2.423 4.197m6.817-12.96c-2.052 1.253-6.203 4.528-6.388 7.612m7.385-7.036c-.013 2.43-.697 7.707-3.329 9.378M1.8 19.19l2.534-1.115a9.21 9.21 0 0 1 4.93-.698l.077.01a9.21 9.21 0 0 1 4.633 2.018L16 21.073M6.666 9.092l12.413 7.166c.702.406 1.6.165 2.005-.537A8.318 8.318 0 0 0 18.04 4.359l-.549-.317A8.318 8.318 0 0 0 6.13 7.087c-.405.702-.165 1.6.537 2.005Z" />
</svg>