<svg width="20" height="21" viewBox="0 0 20 21" fill="none" xmlns="http://www.w3.org/2000/svg">
<g clip-path="url(#clip0_9706_40121)">
<path d="M18.125 0.968822H1.875C1.5063 0.96507 1.15117 1.10774 0.887529 1.36551C0.623892 1.62329 0.473283 1.97513 0.46875 2.34382V18.6594C0.474103 19.0276 0.625072 19.3786 0.88862 19.6357C1.15217 19.8928 1.50683 20.0351 1.875 20.0313H18.125C18.4937 20.0342 18.8486 19.8911 19.1121 19.6332C19.3756 19.3752 19.5263 19.0235 19.5312 18.6548V2.33913C19.5247 1.97152 19.3733 1.62136 19.1099 1.36477C18.8466 1.10817 18.4927 0.965881 18.125 0.968822Z" fill="#0076B2"/>
<path d="M3.29063 8.11426H6.12032V17.2189H3.29063V8.11426ZM4.70625 3.58301C5.03081 3.58301 5.34806 3.67927 5.6179 3.85961C5.88773 4.03996 6.09801 4.29628 6.22214 4.59615C6.34627 4.89603 6.37867 5.22599 6.31524 5.54428C6.25181 5.86257 6.0954 6.1549 5.8658 6.38428C5.63619 6.61367 5.34372 6.7698 5.02536 6.83292C4.70701 6.89605 4.37709 6.86334 4.07733 6.73892C3.77757 6.61451 3.52145 6.40398 3.34136 6.13398C3.16128 5.86397 3.06532 5.54662 3.06563 5.22207C3.06604 4.78722 3.23908 4.37032 3.54671 4.06298C3.85434 3.75564 4.2714 3.58301 4.70625 3.58301ZM7.89532 8.11426H10.6078V9.36426H10.6453C11.0234 8.64863 11.9453 7.89395 13.3219 7.89395C16.1875 7.8877 16.7188 9.77363 16.7188 12.2189V17.2189H13.8891V12.7893C13.8891 11.7346 13.8703 10.3768 12.4188 10.3768C10.9672 10.3768 10.7203 11.5268 10.7203 12.7205V17.2189H7.89532V8.11426Z" fill="white"/>
</g>
<defs>
<clipPath id="clip0_9706_40121">
<rect width="20" height="20" fill="white" transform="translate(0 0.5)"/>
</clipPath>
</defs>
</svg>
