<svg width="24" height="26" viewBox="0 0 24 26" fill="none" xmlns="http://www.w3.org/2000/svg">
<path d="M12 1C5.37256 1 0 6.37256 0 13C0 19.6274 5.37256 25 12 25C18.6274 25 24 19.6274 24 13C24 6.37256 18.6274 1 12 1ZM17.5622 9.16097C17.3816 11.0585 16.6002 15.6631 16.2025 17.7884C16.0343 18.6876 15.7031 18.9892 15.3825 19.0186C14.6857 19.0828 14.1564 18.5581 13.4815 18.1157C12.4253 17.4234 11.8287 16.9924 10.8034 16.3168C9.61868 15.5361 10.3867 15.1071 11.0619 14.4055C11.2386 14.222 14.309 11.4292 14.3685 11.1759C14.3759 11.1442 14.383 11.0259 14.3126 10.9637C14.2423 10.9016 14.1389 10.9226 14.0641 10.9395C13.9582 10.9636 12.271 12.0788 9.00247 14.2851C8.5236 14.614 8.08982 14.7742 7.70114 14.7658C7.27268 14.7565 6.4485 14.5236 5.83577 14.3244C5.08427 14.0801 4.48698 13.951 4.539 13.5361C4.5661 13.32 4.86368 13.099 5.43174 12.8732C8.93 11.349 11.2627 10.3442 12.4299 9.85866C15.7624 8.47252 16.4549 8.23174 16.9062 8.22371C17.0055 8.22206 17.2275 8.24664 17.3712 8.36331C17.4668 8.4464 17.5278 8.56238 17.542 8.68827C17.5664 8.84459 17.5731 9.00314 17.5622 9.16097Z" fill="#1D222B" fill-opacity="0.65"/>
</svg>
