<svg width="34" height="34" viewBox="0 0 34 34" fill="none" xmlns="http://www.w3.org/2000/svg">
<g clip-path="url(#clip0_915_39904)">
<path d="M0 17C0 7.61116 7.61116 0 17 0C26.3888 0 34 7.61116 34 17C34 26.3888 26.3888 34 17 34C7.61116 34 0 26.3888 0 17Z" fill="black" fill-opacity="0.1"/>
<rect x="3.76538" y="-11.1846" width="27.1957" height="57.6473" transform="rotate(15 3.76538 -11.1846)" fill="#9C78AE"/>
<line x1="35.1768" y1="-2.82322" x2="-3.82322" y2="36.1768" stroke="white" stroke-opacity="0.2" stroke-width="0.5"/>
<line x1="32.1768" y1="-2.82322" x2="-6.82322" y2="36.1768" stroke="white" stroke-opacity="0.2" stroke-width="0.5"/>
<line x1="29.1768" y1="-2.82322" x2="-9.82322" y2="36.1768" stroke="white" stroke-opacity="0.2" stroke-width="0.5"/>
<line x1="29.1768" y1="-5.82322" x2="-9.82322" y2="33.1768" stroke="white" stroke-opacity="0.2" stroke-width="0.5"/>
<line x1="29.1768" y1="-8.82322" x2="-9.82322" y2="30.1768" stroke="white" stroke-opacity="0.2" stroke-width="0.5"/>
<line x1="26.1768" y1="-8.82322" x2="-12.8232" y2="30.1768" stroke="white" stroke-opacity="0.2" stroke-width="0.5"/>
<line x1="26.1768" y1="-11.8232" x2="-12.8232" y2="27.1768" stroke="white" stroke-opacity="0.2" stroke-width="0.5"/>
<line x1="23.1768" y1="-11.8232" x2="-15.8232" y2="27.1768" stroke="white" stroke-opacity="0.2" stroke-width="0.5"/>
<line x1="23.1768" y1="-14.8232" x2="-15.8232" y2="24.1768" stroke="white" stroke-opacity="0.2" stroke-width="0.5"/>
<line x1="35.1768" y1="0.176777" x2="-3.82322" y2="39.1768" stroke="white" stroke-opacity="0.2" stroke-width="0.5"/>
<line x1="35.1768" y1="3.17678" x2="-3.82322" y2="42.1768" stroke="white" stroke-opacity="0.2" stroke-width="0.5"/>
<line x1="35.1768" y1="6.17678" x2="-3.82322" y2="45.1768" stroke="white" stroke-opacity="0.2" stroke-width="0.5"/>
<line x1="46.1768" y1="-1.82322" x2="-3.82322" y2="48.1768" stroke="white" stroke-opacity="0.2" stroke-width="0.5"/>
<line x1="45.1768" y1="2.17678" x2="-3.82322" y2="51.1768" stroke="white" stroke-opacity="0.2" stroke-width="0.5"/>
<line x1="46.1768" y1="4.17678" x2="-3.82322" y2="54.1768" stroke="white" stroke-opacity="0.2" stroke-width="0.5"/>
<line x1="46.1768" y1="7.17678" x2="-3.82322" y2="57.1768" stroke="white" stroke-opacity="0.2" stroke-width="0.5"/>
<line x1="46.1768" y1="10.1768" x2="-3.82322" y2="60.1768" stroke="white" stroke-opacity="0.2" stroke-width="0.5"/>
<line x1="46.1768" y1="13.1768" x2="-3.82322" y2="63.1768" stroke="white" stroke-opacity="0.2" stroke-width="0.5"/>
<path d="M19.1491 18.439C19.1491 18.855 19.0451 19.2537 18.8371 19.635C18.6378 20.0077 18.3431 20.324 17.9531 20.584C17.5631 20.8353 17.0995 20.9957 16.5621 21.065V21.715C17.0648 21.715 17.4721 21.832 17.7841 22.066C18.0961 22.3087 18.2521 22.6467 18.2521 23.08C18.2521 23.5133 18.0961 23.8557 17.7841 24.107C17.4721 24.367 17.0778 24.497 16.6011 24.497H14.8851V23.561H16.3021C16.5448 23.561 16.7268 23.5263 16.8481 23.457C16.9695 23.3877 17.0301 23.262 17.0301 23.08C17.0301 22.898 16.9695 22.7723 16.8481 22.703C16.7268 22.6337 16.5448 22.599 16.3021 22.599H15.5871V21.065C14.7725 20.9957 14.1095 20.7313 13.5981 20.272C13.0868 19.8127 12.8311 19.2233 12.8311 18.504H14.4171C14.4518 18.894 14.6035 19.2147 14.8721 19.466C15.1495 19.7173 15.5351 19.843 16.0291 19.843C16.5405 19.843 16.9391 19.7217 17.2251 19.479C17.5111 19.2277 17.6541 18.907 17.6541 18.517C17.6541 18.2137 17.5631 17.9667 17.3811 17.776C17.2078 17.5853 16.9868 17.438 16.7181 17.334C16.4581 17.23 16.0941 17.1173 15.6261 16.996C15.0368 16.84 14.5558 16.684 14.1831 16.528C13.8191 16.3633 13.5071 16.112 13.2471 15.774C12.9871 15.436 12.8571 14.9853 12.8571 14.422C12.8571 13.902 12.9871 13.447 13.2471 13.057C13.5071 12.667 13.8711 12.368 14.3391 12.16C14.8071 11.952 15.3488 11.848 15.9641 11.848C16.8395 11.848 17.5545 12.069 18.1091 12.511C18.6725 12.9443 18.9845 13.5423 19.0451 14.305H17.4071C17.3811 13.9757 17.2251 13.694 16.9391 13.46C16.6531 13.226 16.2761 13.109 15.8081 13.109C15.3835 13.109 15.0368 13.2173 14.7681 13.434C14.4995 13.6507 14.3651 13.9627 14.3651 14.37C14.3651 14.6473 14.4475 14.877 14.6121 15.059C14.7855 15.2323 15.0021 15.371 15.2621 15.475C15.5221 15.579 15.8775 15.6917 16.3281 15.813C16.9261 15.9777 17.4115 16.1423 17.7841 16.307C18.1655 16.4717 18.4861 16.7273 18.7461 17.074C19.0148 17.412 19.1491 17.867 19.1491 18.439Z" fill="white"/>
</g>
<defs>
<clipPath id="clip0_915_39904">
<path d="M0 17C0 7.61116 7.61116 0 17 0C26.3888 0 34 7.61116 34 17C34 26.3888 26.3888 34 17 34C7.61116 34 0 26.3888 0 17Z" fill="white"/>
</clipPath>
</defs>
</svg>
