<svg width="34" height="34" viewBox="0 0 34 34" fill="none" xmlns="http://www.w3.org/2000/svg">
<path d="M0 17C0 7.61116 7.61116 0 17 0C26.3888 0 34 7.61116 34 17C34 26.3888 26.3888 34 17 34C7.61116 34 0 26.3888 0 17Z" fill="black" fill-opacity="0.1"/>
<path d="M18.2168 16.359C18.7021 16.4457 19.1138 16.7013 19.4518 17.126C19.7898 17.5507 19.9588 18.0317 19.9588 18.569C19.9588 19.0283 19.8374 19.4443 19.5948 19.817C19.3608 20.181 19.0184 20.4713 18.5678 20.688C18.1171 20.896 17.5928 21 16.9948 21H13.3808V11.965H16.8258C17.4411 11.965 17.9698 12.069 18.4118 12.277C18.8538 12.485 19.1874 12.7667 19.4128 13.122C19.6381 13.4687 19.7508 13.8587 19.7508 14.292C19.7508 14.812 19.6121 15.2453 19.3348 15.592C19.0574 15.9387 18.6848 16.1943 18.2168 16.359ZM14.8628 15.761H16.6958C17.1811 15.761 17.5581 15.6527 17.8268 15.436C18.1041 15.2107 18.2428 14.89 18.2428 14.474C18.2428 14.0667 18.1041 13.7503 17.8268 13.525C17.5581 13.291 17.1811 13.174 16.6958 13.174H14.8628V15.761ZM16.8648 19.791C17.3674 19.791 17.7618 19.6697 18.0478 19.427C18.3338 19.1843 18.4768 18.8463 18.4768 18.413C18.4768 17.971 18.3251 17.62 18.0218 17.36C17.7184 17.1 17.3154 16.97 16.8128 16.97H14.8628V19.791H16.8648Z" fill="#1D222B" fill-opacity="0.5"/>
</svg>
