<svg width="16" height="17" viewBox="0 0 16 17" fill="none" xmlns="http://www.w3.org/2000/svg">
<path d="M13.5 5.5H2.5C2.22386 5.5 2 5.72386 2 6V8C2 8.27614 2.22386 8.5 2.5 8.5H13.5C13.7761 8.5 14 8.27614 14 8V6C14 5.72386 13.7761 5.5 13.5 5.5Z" stroke="#1D222B" stroke-linecap="round" stroke-linejoin="round"/>
<path d="M13 8.5V13C13 13.1326 12.9473 13.2598 12.8536 13.3536C12.7598 13.4473 12.6326 13.5 12.5 13.5H3.5C3.36739 13.5 3.24021 13.4473 3.14645 13.3536C3.05268 13.2598 3 13.1326 3 13V8.5" stroke="#1D222B" stroke-linecap="round" stroke-linejoin="round"/>
<path d="M8 5.5V13.5" stroke="#1D222B" stroke-linecap="round" stroke-linejoin="round"/>
<path d="M10.8313 4.79362C10.1188 5.49987 8 5.49987 8 5.49987C8 5.49987 8 3.38112 8.70625 2.66862C8.98804 2.38683 9.37024 2.22852 9.76875 2.22852C10.1673 2.22852 10.5495 2.38683 10.8313 2.66862C11.113 2.95041 11.2714 3.3326 11.2714 3.73112C11.2714 4.12963 11.113 4.51182 10.8313 4.79362V4.79362Z" stroke="#1D222B" stroke-linecap="round" stroke-linejoin="round"/>
<path d="M5.16874 4.79362C5.88124 5.49987 7.99999 5.49987 7.99999 5.49987C7.99999 5.49987 7.99999 3.38112 7.29374 2.66862C7.01195 2.38683 6.62975 2.22852 6.23124 2.22852C5.83272 2.22852 5.45053 2.38683 5.16874 2.66862C4.88695 2.95041 4.72864 3.3326 4.72864 3.73112C4.72864 4.12963 4.88695 4.51182 5.16874 4.79362V4.79362Z" stroke="#1D222B" stroke-linecap="round" stroke-linejoin="round"/>
</svg>
