<svg width="78" height="73" viewBox="0 0 78 73" fill="none" xmlns="http://www.w3.org/2000/svg">
<path d="M64.8201 60.9686L44.4141 40.8047L40.3734 44.8939L60.7794 65.0578L64.8201 60.9686Z" fill="#699CFF"/>
<path d="M72.6141 66.3858L56.7382 50.6982C56.6498 50.6108 56.5073 50.6117 56.42 50.7001L50.411 56.7812C50.3237 56.8696 50.3246 57.012 50.4129 57.0994L66.2889 72.7869C66.3773 72.8743 66.5198 72.8734 66.6071 72.785L72.616 66.7039C72.7034 66.6156 72.7025 66.4731 72.6141 66.3858Z" fill="#0E84E5"/>
<path d="M26.3276 50.9452C40.3663 50.9452 51.7469 39.5646 51.7469 25.5258C51.7469 11.4871 40.3663 0.106445 26.3276 0.106445C12.2888 0.106445 0.908203 11.4871 0.908203 25.5258C0.908203 39.5646 12.2888 50.9452 26.3276 50.9452Z" fill="#0E84E5"/>
<path d="M26.3284 46.7974C38.0764 46.7974 47.6001 37.2737 47.6001 25.5256C47.6001 13.7776 38.0764 4.25391 26.3284 4.25391C14.5803 4.25391 5.05664 13.7776 5.05664 25.5256C5.05664 37.2737 14.5803 46.7974 26.3284 46.7974Z" fill="#D4E5FF"/>
<path d="M69.3027 2.54689C63.3402 0.614214 56.8966 3.88294 54.956 9.86996C53.0234 15.8325 56.2921 22.2761 62.2792 24.2166C68.2663 26.157 74.6931 22.8563 76.6262 16.8935C78.5592 10.9307 75.2655 4.47949 69.3027 2.54689ZM67.5036 8.09764C68.171 8.31398 68.7591 8.72365 69.1934 9.2747C69.6276 9.82576 69.8884 10.4934 69.9427 11.1928C69.9969 11.8923 69.8423 12.5922 69.4982 13.2036C69.1542 13.8151 68.6363 14.3106 68.0103 14.6273C67.3843 14.944 66.6783 15.0676 65.9819 14.9825C65.2855 14.8974 64.63 14.6074 64.0987 14.1492C63.5673 13.6911 63.184 13.0855 62.9973 12.4092C62.8107 11.7329 62.8291 11.0164 63.0502 10.3506C63.6473 8.50841 65.6612 7.50056 67.5036 8.09764ZM63.002 21.9866C61.021 21.3478 59.3238 20.0402 58.2009 18.2877C60.3021 17.0937 62.4992 16.7612 64.4868 17.4054C66.4745 18.0497 68.0907 19.5913 69.06 21.8073C67.1226 22.5679 64.981 22.6313 63.002 21.9866Z" fill="#418DF9"/>
<path d="M19.675 56.8798C18.6393 57.4085 17.7837 58.2323 17.2163 59.2473C16.6489 60.2622 16.3951 61.4226 16.4872 62.5817C16.5793 63.7409 17.013 64.8467 17.7335 65.7593C18.4541 66.6719 19.429 67.3504 20.5352 67.7089C21.6413 68.0674 22.8289 68.0899 23.9478 67.7734C25.0667 67.457 26.0666 66.8159 26.8211 65.9311C27.5756 65.0464 28.0509 63.9578 28.1867 62.803C28.3225 61.6481 28.1128 60.479 27.5842 59.4433C26.8741 58.0558 25.6425 57.0066 24.1597 56.526C22.6769 56.0454 21.0641 56.1727 19.675 56.8798ZM21.0444 59.5624C21.3669 59.3978 21.7311 59.3326 22.0908 59.3752C22.4504 59.4178 22.7893 59.5663 23.0644 59.8018C23.3396 60.0373 23.5386 60.3492 23.6362 60.698C23.7338 61.0468 23.7256 61.4167 23.6127 61.7608C23.4997 62.1049 23.2872 62.4077 23.0019 62.6308C22.7166 62.8539 22.3715 62.9873 22.0103 63.0139C21.6491 63.0406 21.2882 62.9594 20.9732 62.7807C20.6582 62.6019 20.4034 62.3336 20.2412 62.0098C20.0261 61.5782 19.9898 61.0793 20.1402 60.6211C20.2905 60.1629 20.6154 59.7825 21.0444 59.5622V59.5624ZM24.4706 66.2749C23.5144 66.7648 22.4177 66.907 21.3682 66.6772C21.6993 65.4745 22.3799 64.5512 23.3407 64.0609C24.3015 63.5705 25.4539 63.5434 26.6165 63.9983C26.1869 64.983 25.4283 65.7877 24.4706 66.2746V66.2749Z" fill="#418DF9"/>
</svg>
