<svg width="16" height="17" viewBox="0 0 16 17" fill="none" xmlns="http://www.w3.org/2000/svg">
<path d="M2 15.1663H10M2.66667 6.49967H9.33333M9.33333 15.1663V3.16634C9.33333 2.81272 9.19286 2.47358 8.94281 2.22353C8.69276 1.97348 8.35362 1.83301 8 1.83301H4C3.64638 1.83301 3.30724 1.97348 3.05719 2.22353C2.80714 2.47358 2.66667 2.81272 2.66667 3.16634V15.1663M9.33333 9.16634H10.6667C11.0203 9.16634 11.3594 9.30682 11.6095 9.55687C11.8595 9.80691 12 10.1461 12 10.4997V11.833C12 12.1866 12.1405 12.5258 12.3905 12.7758C12.6406 13.0259 12.9797 13.1663 13.3333 13.1663C13.687 13.1663 14.0261 13.0259 14.2761 12.7758C14.5262 12.5258 14.6667 12.1866 14.6667 11.833V7.05301C14.6668 6.87707 14.6321 6.70284 14.5646 6.54036C14.4971 6.37789 14.3981 6.23038 14.2733 6.10634L12 3.83301" stroke="#1D222B" stroke-linecap="round" stroke-linejoin="round"/>
</svg>
