<svg width="20" height="20" viewBox="0 0 20 20" fill="none" xmlns="http://www.w3.org/2000/svg">
<path d="M15 0H5C3.67392 0 2.40215 0.526784 1.46447 1.46447C0.526784 2.40215 0 3.67392 0 5V15C0 16.3261 0.526784 17.5979 1.46447 18.5355C2.40215 19.4732 3.67392 20 5 20H15C16.3261 20 17.5979 19.4732 18.5355 18.5355C19.4732 17.5979 20 16.3261 20 15V5C20 3.67392 19.4732 2.40215 18.5355 1.46447C17.5979 0.526784 16.3261 0 15 0ZM5.52 12.53C5.67762 13.0562 5.92088 13.5529 6.24 14C6.69555 14.6293 7.32449 15.1123 8.05 15.39C8.497 15.556 8.965 15.664 9.44 15.71C9.90667 15.7553 10.3733 15.7553 10.84 15.71C11.3835 15.6674 11.9151 15.5286 12.41 15.3C12.9693 15.0269 13.4482 14.6134 13.8 14.1C14.0112 13.7982 14.1507 13.4521 14.2079 13.0882C14.2651 12.7242 14.2385 12.3521 14.13 12C13.998 11.5548 13.7151 11.1694 13.33 10.91L13.13 10.77C13.13 10.86 13.13 10.94 13.08 11.02C13.01 11.47 12.86 11.902 12.64 12.3C12.4452 12.6565 12.1705 12.963 11.8373 13.1954C11.5042 13.4279 11.1218 13.5801 10.72 13.64C10.1914 13.7435 9.64553 13.716 9.13 13.56C8.70233 13.442 8.31284 13.2146 8 12.9C7.65706 12.5511 7.4421 12.0965 7.39 11.61C7.33991 11.1983 7.40721 10.7808 7.58415 10.4057C7.76108 10.0306 8.04044 9.71318 8.39 9.49C8.75367 9.24894 9.16154 9.0824 9.59 9C10.014 8.93 10.4407 8.9 10.87 8.91C11.2049 8.91903 11.5389 8.94909 11.87 9H11.93C11.8857 8.72636 11.7944 8.46246 11.66 8.22C11.5632 8.05818 11.4343 7.91791 11.2813 7.80784C11.1282 7.69776 10.9542 7.62022 10.77 7.58C10.3301 7.44496 9.85987 7.44496 9.42 7.58C9.10299 7.69212 8.8275 7.89786 8.63 8.17V8.24L7.63 7.55V7.48C8.04669 6.87598 8.681 6.45669 9.4 6.31C10.0132 6.17629 10.6506 6.20385 11.25 6.39C11.5861 6.4929 11.8972 6.66417 12.164 6.89304C12.4307 7.12192 12.6472 7.40346 12.8 7.72C12.976 8.079 13.095 8.464 13.15 8.86C13.178 9.03206 13.1947 9.20576 13.2 9.38L13.5 9.52C13.969 9.76905 14.3837 10.109 14.72 10.52C15.066 10.947 15.293 11.457 15.38 12C15.451 12.328 15.475 12.665 15.45 13C15.3989 13.8326 15.0716 14.6243 14.52 15.25C13.8228 16.0743 12.8742 16.647 11.82 16.88C11.356 16.9784 10.8841 17.0352 10.41 17.05C9.97935 17.0681 9.54795 17.0514 9.12 17C8.42578 16.9189 7.74988 16.7229 7.12 16.42C6.30818 16.0086 5.61854 15.3914 5.12 14.63C4.75152 14.0552 4.47172 13.4282 4.29 12.77C4.156 12.274 4.05933 11.7707 4 11.26V10C4 9.58 4 9.16 4.07 8.74C4.11117 8.26489 4.18805 7.79356 4.3 7.33C4.4526 6.74599 4.68835 6.18694 5 5.67C5.62538 4.55613 6.646 3.71751 7.86 3.32C8.29574 3.1719 8.74435 3.06477 9.2 3C9.77149 2.93491 10.3485 2.93491 10.92 3C11.6104 3.06385 12.2859 3.23947 12.92 3.52C13.8347 3.92345 14.6127 4.58342 15.16 5.42C15.5444 6.02348 15.8281 6.68545 16 7.38L14.82 7.7V7.62C14.6868 7.14648 14.4918 6.69257 14.24 6.27C13.7272 5.43701 12.9323 4.81596 12 4.52C11.5092 4.35346 10.9976 4.25586 10.48 4.23C10.0973 4.19846 9.71268 4.19846 9.33 4.23C8.73934 4.28784 8.16369 4.45038 7.63 4.71C6.94025 5.0702 6.37295 5.62706 6 6.31C5.74228 6.77804 5.55046 7.27945 5.43 7.8C5.32493 8.22355 5.2547 8.65499 5.22 9.09C5.19393 9.50626 5.19393 9.92374 5.22 10.34C5.22538 11.0799 5.32621 11.8159 5.52 12.53Z" fill="#1D222B" fill-opacity="0.65"/>
</svg>
