<svg width="103" height="82" viewBox="0 0 103 82" fill="none" xmlns="http://www.w3.org/2000/svg">
<path d="M43.2157 11.2414C42.9816 11.2265 42.7624 11.1214 42.6042 10.9482C42.446 10.775 42.3612 10.5473 42.3675 10.3128L42.4326 1.47719C42.4312 1.35431 42.4544 1.2324 42.5011 1.11872C42.5478 1.00503 42.6168 0.901901 42.7042 0.815474C42.7915 0.729048 42.8954 0.661091 43.0096 0.615656C43.1238 0.570221 43.2459 0.548238 43.3688 0.551015L44.0751 0.582587C44.1975 0.590653 44.317 0.623404 44.4265 0.678864C44.5359 0.734324 44.633 0.811349 44.7119 0.905306C44.7908 0.999263 44.8499 1.10821 44.8856 1.22559C44.9213 1.34297 44.9329 1.46636 44.9196 1.58834L44.1483 10.3924C44.1321 10.6268 44.0261 10.8459 43.8524 11.004C43.6786 11.1622 43.4506 11.2472 43.2157 11.2414Z" fill="#418DF9"/>
<path d="M39.0861 12.1969C38.9418 12.2468 38.7837 12.2373 38.6464 12.1706C38.5091 12.1039 38.4039 11.9854 38.354 11.8411L36.3714 6.44054C36.3139 6.28701 36.3196 6.11693 36.3873 5.96763C36.4551 5.81833 36.5793 5.70201 36.7327 5.64419L37.1725 5.48842C37.248 5.46246 37.3281 5.45243 37.4076 5.45897C37.4872 5.46551 37.5645 5.48848 37.6348 5.52642C37.705 5.56435 37.7666 5.61644 37.8157 5.67939C37.8648 5.74233 37.9003 5.81478 37.92 5.89214L39.4629 11.4484C39.5056 11.5977 39.4905 11.7576 39.4207 11.8963C39.3509 12.035 39.2314 12.1423 39.0861 12.1969Z" fill="#418DF9"/>
<path d="M36.9111 15.4701C36.6204 15.8672 35.9993 15.8921 35.503 15.5264L26.6908 9.03399C26.1645 8.64616 25.9827 7.97183 26.2909 7.55063L26.7206 6.96353C27.0289 6.54226 27.7031 6.54353 28.2039 6.96661L36.5863 14.0462C37.0584 14.4449 37.2016 15.073 36.9111 15.4701Z" fill="#418DF9"/>
<path d="M98.8091 29.4982L44.441 16.5559C42.4263 16.0763 40.4042 17.3208 39.9246 19.3356L31.9294 52.9217C31.4498 54.9365 32.6943 56.9586 34.709 57.4382L89.0771 70.3804C91.0918 70.8601 93.1139 69.6156 93.5935 67.6008L101.589 34.0146C102.068 31.9999 100.824 29.9778 98.8091 29.4982Z" fill="#A2BDFF"/>
<path d="M100.836 37.1869L39.1719 22.5078L37.4988 29.5359L99.163 44.215L100.836 37.1869Z" fill="#418DF9"/>
<path d="M90.9492 63.4356L78.6879 60.5168C78.6488 60.5075 78.6097 60.5317 78.6004 60.5707L77.8236 63.8339C77.8143 63.8729 77.8384 63.9121 77.8774 63.9214L90.1388 66.8402C90.1778 66.8495 90.217 66.8254 90.2263 66.7864L91.0031 63.5232C91.0124 63.4841 90.9883 63.4449 90.9492 63.4356Z" fill="white"/>
<path d="M67.3095 11.8713L3.98693 33.6849C2.02879 34.3594 0.988235 36.4936 1.66278 38.4518L15.3016 78.0438C15.9761 80.0019 18.1103 81.0425 20.0685 80.3679L83.3911 58.5543C85.3492 57.8798 86.3898 55.7456 85.7152 53.7874L72.0764 14.1954C71.4019 12.2373 69.2676 11.1967 67.3095 11.8713Z" fill="#699CFF"/>
<path d="M65.9941 16.9883L58.6078 19.5328C57.4329 19.9375 56.8086 21.2181 57.2133 22.3929L59.7578 29.7793C60.1625 30.9542 61.443 31.5785 62.6179 31.1738L70.0042 28.6293C71.1791 28.2246 71.8034 26.944 71.3987 25.7692L68.8543 18.3828C68.4495 17.2079 67.169 16.5836 65.9941 16.9883Z" fill="white"/>
<path d="M40.1221 52.387L15.5532 60.8506C15.4828 60.8749 15.4454 60.9516 15.4697 61.022L16.7211 64.6548C16.7454 64.7252 16.8221 64.7626 16.8924 64.7383L41.4614 56.2747C41.5318 56.2505 41.5692 56.1738 41.5449 56.1034L40.2935 52.4706C40.2692 52.4002 40.1925 52.3628 40.1221 52.387Z" fill="white"/>
<path d="M53.2032 56.2795L18.1391 68.3584C18.0688 68.3827 18.0314 68.4594 18.0556 68.5298L19.3071 72.1626C19.3313 72.2329 19.408 72.2703 19.4784 72.2461L54.5424 60.1672C54.6128 60.1429 54.6502 60.0662 54.626 59.9958L53.3745 56.363C53.3503 56.2927 53.2736 56.2553 53.2032 56.2795Z" fill="white"/>
</svg>
