<svg width="16" height="16" viewBox="0 0 16 16" fill="none" xmlns="http://www.w3.org/2000/svg">
<path d="M9.79231 7.67422L4.25781 6.69922V13.9037C4.25775 13.982 4.27314 14.0596 4.3031 14.1319C4.33307 14.2043 4.37702 14.27 4.43244 14.3253C4.48785 14.3806 4.55365 14.4245 4.62604 14.4543C4.69843 14.4842 4.77601 14.4994 4.85431 14.4992H14.4043C14.4827 14.4995 14.5604 14.4844 14.6329 14.4546C14.7054 14.4248 14.7713 14.381 14.8268 14.3257C14.8824 14.2703 14.9264 14.2046 14.9564 14.1321C14.9865 14.0597 15.0019 13.9821 15.0018 13.9037V11.2492L9.79231 7.67422Z" fill="#185C37"/>
<path d="M9.79231 1.5H4.85431C4.77601 1.4998 4.69843 1.51507 4.62604 1.54491C4.55365 1.57475 4.48785 1.6186 4.43244 1.67392C4.37702 1.72924 4.33307 1.79496 4.3031 1.8673C4.27314 1.93965 4.25775 2.0172 4.25781 2.0955V4.75L9.79231 8L12.7228 8.975L15.0018 8V4.75L9.79231 1.5Z" fill="#21A366"/>
<path d="M4.25781 4.75H9.79231V8H4.25781V4.75Z" fill="#107C41"/>
<path opacity="0.1" d="M8.21881 4.10156H4.25781V12.2266H8.21881C8.37665 12.2258 8.52781 12.1628 8.63956 12.0514C8.75131 11.9399 8.81463 11.7889 8.81581 11.6311V4.69706C8.81463 4.53923 8.75131 4.38822 8.63956 4.27676C8.52781 4.16529 8.37665 4.10235 8.21881 4.10156Z" fill="black"/>
<path opacity="0.2" d="M7.89331 4.42578H4.25781V12.5508H7.89331C8.05115 12.55 8.20231 12.4871 8.31406 12.3756C8.42581 12.2641 8.48913 12.1131 8.49031 11.9553V5.02128C8.48913 4.86345 8.42581 4.71244 8.31406 4.60098C8.20231 4.48951 8.05115 4.42657 7.89331 4.42578Z" fill="black"/>
<path opacity="0.2" d="M7.89331 4.42578H4.25781V11.9008H7.89331C8.05115 11.9 8.20231 11.8371 8.31406 11.7256C8.42581 11.6141 8.48913 11.4631 8.49031 11.3053V5.02128C8.48913 4.86345 8.42581 4.71244 8.31406 4.60098C8.20231 4.48951 8.05115 4.42657 7.89331 4.42578Z" fill="black"/>
<path opacity="0.2" d="M7.56781 4.42578H4.25781V11.9008H7.56781C7.72565 11.9 7.87681 11.8371 7.98856 11.7256C8.10031 11.6141 8.16363 11.4631 8.16481 11.3053V5.02128C8.16363 4.86345 8.10031 4.71244 7.98856 4.60098C7.87681 4.48951 7.72565 4.42657 7.56781 4.42578Z" fill="black"/>
<path d="M1.597 4.42578H7.566C7.72411 4.42565 7.87581 4.4883 7.98776 4.59996C8.0997 4.71163 8.16273 4.86317 8.163 5.02128V10.9803C8.16273 11.1384 8.0997 11.2899 7.98776 11.4016C7.87581 11.5133 7.72411 11.5759 7.566 11.5758H1.597C1.51865 11.576 1.44103 11.5608 1.36857 11.531C1.29612 11.5012 1.23027 11.4574 1.1748 11.402C1.11933 11.3467 1.07534 11.281 1.04534 11.2086C1.01534 11.1362 0.999934 11.0586 1 10.9803V5.02128C0.999934 4.94294 1.01534 4.86535 1.04534 4.79297C1.07534 4.72059 1.11933 4.65485 1.1748 4.59952C1.23027 4.54419 1.29612 4.50036 1.36857 4.47055C1.44103 4.44073 1.51865 4.42552 1.597 4.42578Z" fill="url(#paint0_linear_17053_106171)"/>
<path d="M2.85156 9.9355L4.10706 7.9935L2.95706 6.0625H3.88056L4.50806 7.299C4.56606 7.416 4.60806 7.503 4.62706 7.561H4.63556C4.67656 7.46733 4.7199 7.37633 4.76556 7.288L5.43656 6.0645H6.28656L5.10706 7.9845L6.31656 9.937H5.41206L4.68706 8.5815C4.6535 8.52317 4.62489 8.46212 4.60156 8.399H4.58956C4.56837 8.46052 4.54019 8.51941 4.50556 8.5745L3.75906 9.9355H2.85156Z" fill="white"/>
<path d="M14.4016 1.5H9.78906V4.75H14.9986V2.0955C14.9986 2.01716 14.9832 1.93957 14.9532 1.86719C14.9232 1.79481 14.8792 1.72907 14.8238 1.67374C14.7683 1.61841 14.7024 1.57458 14.63 1.54477C14.5575 1.51495 14.4799 1.49974 14.4016 1.5Z" fill="#33C481"/>
<path d="M9.78906 8H14.9986V11.25H9.78906V8Z" fill="#107C41"/>
<defs>
<linearGradient id="paint0_linear_17053_106171" x1="2.247" y1="3.95778" x2="6.916" y2="12.0438" gradientUnits="userSpaceOnUse">
<stop stop-color="#18884F"/>
<stop offset="0.5" stop-color="#117E43"/>
<stop offset="1" stop-color="#0B6631"/>
</linearGradient>
</defs>
</svg>
