<svg width="20" height="20" viewBox="0 0 20 20" fill="none" xmlns="http://www.w3.org/2000/svg">
<path d="M12.2382 9.59375L5.32007 8.375V17.3806C5.31999 17.4785 5.33922 17.5754 5.37668 17.6659C5.41414 17.7563 5.46908 17.8384 5.53835 17.9076C5.60762 17.9768 5.68986 18.0316 5.78035 18.0689C5.87085 18.1062 5.96781 18.1252 6.06569 18.125H18.0032C18.1012 18.1254 18.1983 18.1065 18.2889 18.0692C18.3796 18.032 18.4619 17.9772 18.5313 17.908C18.6007 17.8389 18.6558 17.7567 18.6933 17.6662C18.7309 17.5756 18.7502 17.4786 18.7501 17.3806V14.0625L12.2382 9.59375Z" fill="#185C37"/>
<path d="M12.2382 1.875H6.06569C5.96781 1.87476 5.87085 1.89383 5.78035 1.93114C5.68986 1.96844 5.60762 2.02324 5.53835 2.0924C5.46908 2.16155 5.41414 2.2437 5.37668 2.33413C5.33922 2.42456 5.31999 2.5215 5.32007 2.61938V5.9375L12.2382 10L15.9013 11.2188L18.7501 10V5.9375L12.2382 1.875Z" fill="#21A366"/>
<path d="M5.32007 5.9375H12.2382V10H5.32007V5.9375Z" fill="#107C41"/>
<path opacity="0.1" d="M10.2713 5.125H5.32007V15.2812H10.2713C10.4686 15.2803 10.6576 15.2016 10.7973 15.0623C10.9369 14.9229 11.0161 14.7342 11.0176 14.5369V5.86937C11.0161 5.67209 10.9369 5.48333 10.7973 5.34399C10.6576 5.20466 10.4686 5.12598 10.2713 5.125Z" fill="black"/>
<path opacity="0.2" d="M9.86444 5.53125H5.32007V15.6875H9.86444C10.0617 15.6865 10.2507 15.6078 10.3904 15.4685C10.5301 15.3292 10.6092 15.1404 10.6107 14.9431V6.27562C10.6092 6.07834 10.5301 5.88958 10.3904 5.75024C10.2507 5.61091 10.0617 5.53223 9.86444 5.53125Z" fill="black"/>
<path opacity="0.2" d="M9.86444 5.53125H5.32007V14.875H9.86444C10.0617 14.874 10.2507 14.7953 10.3904 14.656C10.5301 14.5167 10.6092 14.3279 10.6107 14.1306V6.27562C10.6092 6.07834 10.5301 5.88958 10.3904 5.75024C10.2507 5.61091 10.0617 5.53223 9.86444 5.53125Z" fill="black"/>
<path opacity="0.2" d="M9.45757 5.53125H5.32007V14.875H9.45757C9.65486 14.874 9.84382 14.7953 9.9835 14.656C10.1232 14.5167 10.2023 14.3279 10.2038 14.1306V6.27562C10.2023 6.07834 10.1232 5.88958 9.9835 5.75024C9.84382 5.61091 9.65486 5.53223 9.45757 5.53125Z" fill="black"/>
<path d="M1.99625 5.53125H9.4575C9.65514 5.53109 9.84477 5.6094 9.9847 5.74898C10.1246 5.88856 10.2034 6.07799 10.2038 6.27563V13.7244C10.2034 13.922 10.1246 14.1114 9.9847 14.251C9.84477 14.3906 9.65514 14.4689 9.4575 14.4688H1.99625C1.89832 14.4691 1.80128 14.4501 1.71072 14.4128C1.62015 14.3755 1.53784 14.3207 1.4685 14.2516C1.39916 14.1824 1.34417 14.1002 1.30667 14.0098C1.26918 13.9193 1.24992 13.8223 1.25 13.7244V6.27563C1.24992 6.1777 1.26918 6.08071 1.30667 5.99024C1.34417 5.89977 1.39916 5.81759 1.4685 5.74843C1.53784 5.67927 1.62015 5.62448 1.71072 5.58721C1.80128 5.54994 1.89832 5.53092 1.99625 5.53125Z" fill="url(#paint0_linear_9293_29651)"/>
<path d="M3.5625 12.4204L5.13188 9.99285L3.69437 7.5791H4.84875L5.63312 9.12473C5.70562 9.27098 5.75813 9.37973 5.78188 9.45223H5.7925C5.84375 9.33514 5.89792 9.22139 5.955 9.11098L6.79375 7.5816H7.85625L6.38188 9.9816L7.89375 12.4222H6.76313L5.85688 10.7279C5.81492 10.6549 5.77917 10.5786 5.75 10.4997H5.735C5.70851 10.5766 5.67328 10.6502 5.63 10.7191L4.69688 12.4204H3.5625Z" fill="white"/>
<path d="M18.0037 1.875H12.238V5.9375H18.7499V2.61938C18.75 2.52145 18.7307 2.42446 18.6932 2.33399C18.6557 2.24352 18.6007 2.16134 18.5314 2.09218C18.4621 2.02302 18.3798 1.96823 18.2892 1.93096C18.1986 1.89369 18.1016 1.87467 18.0037 1.875Z" fill="#33C481"/>
<path d="M12.238 10H18.7499V14.0625H12.238V10Z" fill="#107C41"/>
<defs>
<linearGradient id="paint0_linear_9293_29651" x1="2.80875" y1="4.94625" x2="8.645" y2="15.0538" gradientUnits="userSpaceOnUse">
<stop stop-color="#18884F"/>
<stop offset="0.5" stop-color="#117E43"/>
<stop offset="1" stop-color="#0B6631"/>
</linearGradient>
</defs>
</svg>
