<svg width="72" height="74" viewBox="0 0 72 74" fill="none" xmlns="http://www.w3.org/2000/svg">
<path fill-rule="evenodd" clip-rule="evenodd" d="M53 62C54.1046 62 55 62.8954 55 64C55 65.1046 54.1046 66 53 66H35C34.8824 66 34.7673 65.9899 34.6553 65.9704C28.2305 65.687 22.3308 63.3828 17.5761 59.6779C17.1894 59.3766 16.6067 58.8771 16.1748 58.5013C15.8054 58.1799 15.3333 58 14.8436 58H10C8.89543 58 8 57.1046 8 56C8 54.8954 8.89543 54 10 54H12C13.1046 54 14 53.1046 14 52C14 50.8954 13.1046 50 12 50H7C5.89543 50 5 49.1046 5 48C5 46.8954 5.89543 46 7 46H8C9.10457 46 10 45.1046 10 44C10 42.8954 9.10457 42 8 42C7.1913 42 6.49962 41.4171 6.36506 40.6196C6.31617 40.3299 6.27734 40.0966 6.27093 40.0492C6.09227 38.7249 6 37.3732 6 36C6 19.4315 19.4315 6 36 6C41 6 46 6 51 6C52.1046 6 53 6.89543 53 8C53 9.10457 52.1046 10 51 10H48C46.8954 10 46 10.8954 46 12C46 13.1046 46.8954 14 48 14H60C61.1046 14 62 14.8954 62 16C62 17.1038 61.1058 17.9988 60.0022 18L57 18C55.8954 18 55 18.8954 55 20C55 21.1046 55.8954 22 57 22H61.306C62.0624 22 62.7556 22.4259 63.0835 23.1075C63.2807 23.5171 63.488 23.959 63.6237 24.2783C65.1536 27.8793 66 31.8408 66 36C66 37.3068 65.9164 38.5942 65.7544 39.8569C65.7271 40.0692 65.6853 40.3418 65.6398 40.6208C65.5093 41.4213 64.8111 42 64 42C62.8954 42 62 42.8954 62 44C62 45.1046 62.8954 46 64 46H65C66.1046 46 67 46.8954 67 48C67 49.1046 66.1046 50 65 50H63.7162C62.9901 50 62.3224 50.3942 61.9597 51.0232C61.7241 51.4317 61.4621 51.8761 61.2675 52.1794C60.8114 52.8903 60.326 53.5807 59.8132 54.2489C59.2981 54.9201 58.7553 55.5688 58.1864 56.1934C57.8743 56.5362 57.3685 57.044 56.974 57.4341C56.605 57.799 56.1061 58 55.5871 58H50C48.8954 58 48 58.8954 48 60C48 61.0969 48.883 61.9875 49.9769 61.9999L53 62Z" fill="url(#paint0_linear_6978_212618)"/>
<g opacity="0.1">
<path fill-rule="evenodd" clip-rule="evenodd" d="M32.9983 12.6751C34.8547 11.6033 37.1419 11.6033 38.9983 12.6751L54.6968 21.7387C56.5533 22.8105 57.6968 24.7912 57.6968 26.9348V45.0619C57.6968 47.2055 56.5533 49.1863 54.6968 50.2581L38.9983 59.3216C37.1419 60.3934 34.8547 60.3934 32.9983 59.3216L17.2998 50.2581C15.4434 49.1863 14.2998 47.2055 14.2998 45.0619L14.2998 26.9348C14.2998 24.7912 15.4434 22.8105 17.2998 21.7387L32.9983 12.6751Z" fill="#7705A4" style="mix-blend-mode:multiply"/>
</g>
<g filter="url(#filter0_d_6978_212618)">
<path fill-rule="evenodd" clip-rule="evenodd" d="M22 33H38V63.382C38 64.1253 37.2177 64.6088 36.5528 64.2764L30 61L23.4472 64.2764C22.7823 64.6088 22 64.1253 22 63.382V33Z" fill="#32B4FF"/>
</g>
<g filter="url(#filter1_d_6978_212618)">
<path fill-rule="evenodd" clip-rule="evenodd" d="M34 33H50V63.382C50 64.1253 49.2177 64.6088 48.5528 64.2764L42 61L35.4472 64.2764C34.7823 64.6088 34 64.1253 34 63.382V33Z" fill="#32B4FF"/>
</g>
<g filter="url(#filter2_d_6978_212618)">
<path fill-rule="evenodd" clip-rule="evenodd" d="M28 38H44V68.382C44 69.1253 43.2177 69.6088 42.5528 69.2764L36 66L29.4472 69.2764C28.7823 69.6088 28 69.1253 28 68.382V38Z" fill="white"/>
</g>
<mask id="mask0_6978_212618" style="mask-type:luminance" maskUnits="userSpaceOnUse" x="28" y="38" width="16" height="32">
<path fill-rule="evenodd" clip-rule="evenodd" d="M28 38H44V68.382C44 69.1253 43.2177 69.6088 42.5528 69.2764L36 66L29.4472 69.2764C28.7823 69.6088 28 69.1253 28 68.382V38Z" fill="white"/>
</mask>
<g mask="url(#mask0_6978_212618)">
<rect x="32" y="38" width="8" height="32" fill="#F55462"/>
</g>
<path style="mix-blend-mode:multiply" opacity="0.2" fill-rule="evenodd" clip-rule="evenodd" d="M33.9996 16.1531C35.2372 15.4386 36.762 15.4386 37.9996 16.1531L53.9182 25.3437C55.1558 26.0582 55.9182 27.3787 55.9182 28.8078V47.189C55.9182 48.618 55.1558 49.9386 53.9182 50.6531L37.9996 59.8437C36.762 60.5582 35.2372 60.5582 33.9996 59.8437L18.0811 50.6531C16.8435 49.9386 16.0811 48.618 16.0811 47.189L16.0811 28.8078C16.0811 27.3787 16.8435 26.0582 18.0811 25.3437L33.9996 16.1531Z" fill="#7705A4"/>
<path fill-rule="evenodd" clip-rule="evenodd" d="M54 22.677C54 22.2681 54.249 21.9004 54.6286 21.7486L58.1772 20.3291C58.5713 20.1715 59 20.4617 59 20.8862V36.323C59 36.7319 58.751 37.0996 58.3714 37.2514L54 39V22.677Z" fill="url(#paint1_linear_6978_212618)" stroke="url(#paint2_linear_6978_212618)" stroke-linecap="round" stroke-linejoin="round"/>
<mask id="mask1_6978_212618" style="mask-type:luminance" maskUnits="userSpaceOnUse" x="53" y="19" width="7" height="21">
<path fill-rule="evenodd" clip-rule="evenodd" d="M54 22.677C54 22.2681 54.249 21.9004 54.6286 21.7486L58.1772 20.3291C58.5713 20.1715 59 20.4617 59 20.8862V36.323C59 36.7319 58.751 37.0996 58.3714 37.2514L54 39V22.677Z" fill="white" stroke="white" stroke-linecap="round" stroke-linejoin="round"/>
</mask>
<g mask="url(#mask1_6978_212618)">
<g style="mix-blend-mode:multiply" opacity="0.6" filter="url(#filter3_i_6978_212618)">
<path d="M54.4999 28.8335L60.1922 26.4617C60.4471 26.3555 60.5676 26.0627 60.4614 25.8078C60.3552 25.5529 60.0625 25.4324 59.8076 25.5386L53.8076 28.0386C53.6212 28.1162 54.4999 28.8335 54.4999 28.8335Z" fill="#FABC10"/>
</g>
<g style="mix-blend-mode:multiply" opacity="0.6" filter="url(#filter4_i_6978_212618)">
<path d="M54.4999 34.8335L60.1922 32.4617C60.4471 32.3555 60.5676 32.0627 60.4614 31.8078C60.3552 31.5529 60.0625 31.4324 59.8076 31.5386L53.8076 34.0386C53.6212 34.1162 54.4999 34.8335 54.4999 34.8335Z" fill="#FABC10"/>
</g>
<g opacity="0.04">
<path fill-rule="evenodd" clip-rule="evenodd" d="M38.9987 12.6751C37.1423 11.6033 34.8552 11.6033 32.9987 12.6751L17.3002 21.7387C15.4438 22.8105 14.3002 24.7912 14.3002 26.9348V45.0619C14.3002 47.2055 15.4438 49.1863 17.3002 50.2581L32.9987 59.3216C34.8551 60.3934 37.1423 60.3934 38.9987 59.3216L54.6973 50.2581C56.5537 49.1863 57.6973 47.2055 57.6973 45.0619L57.6973 26.9348C57.6973 24.7912 56.5537 22.8105 54.6973 21.7387L38.9987 12.6751Z" fill="#7705A4" style="mix-blend-mode:multiply"/>
</g>
</g>
<path fill-rule="evenodd" clip-rule="evenodd" d="M18 22.677C18 22.2681 17.751 21.9004 17.3714 21.7486L13.8228 20.3291C13.4287 20.1715 13 20.4617 13 20.8862V36.323C13 36.7319 13.249 37.0996 13.6286 37.2514L18 39V22.677Z" fill="url(#paint3_linear_6978_212618)" stroke="url(#paint4_linear_6978_212618)" stroke-linecap="round" stroke-linejoin="round"/>
<mask id="mask2_6978_212618" style="mask-type:luminance" maskUnits="userSpaceOnUse" x="12" y="19" width="7" height="21">
<path fill-rule="evenodd" clip-rule="evenodd" d="M18 22.677C18 22.2681 17.751 21.9004 17.3714 21.7486L13.8228 20.3291C13.4287 20.1715 13 20.4617 13 20.8862V36.323C13 36.7319 13.249 37.0996 13.6286 37.2514L18 39V22.677Z" fill="white" stroke="white" stroke-linecap="round" stroke-linejoin="round"/>
</mask>
<g mask="url(#mask2_6978_212618)">
<g style="mix-blend-mode:multiply" opacity="0.6" filter="url(#filter5_i_6978_212618)">
<path d="M17.5001 28.8335L11.8078 26.4617C11.5529 26.3555 11.4324 26.0627 11.5386 25.8078C11.6448 25.5529 11.9375 25.4324 12.1924 25.5386L18.1924 28.0386C18.3788 28.1162 17.5001 28.8335 17.5001 28.8335Z" fill="#FABC10"/>
</g>
<g style="mix-blend-mode:multiply" opacity="0.6" filter="url(#filter6_i_6978_212618)">
<path d="M17.5001 34.8335L11.8078 32.4617C11.5529 32.3555 11.4324 32.0627 11.5386 31.8078C11.6448 31.5529 11.9375 31.4324 12.1924 31.5386L18.1924 34.0386C18.3788 34.1162 17.5001 34.8335 17.5001 34.8335Z" fill="#FABC10"/>
</g>
<g opacity="0.04">
<path fill-rule="evenodd" clip-rule="evenodd" d="M32.9983 12.6751C34.8547 11.6033 37.1419 11.6033 38.9983 12.6751L54.6968 21.7387C56.5533 22.8105 57.6968 24.7912 57.6968 26.9348V45.0619C57.6968 47.2055 56.5533 49.1863 54.6968 50.2581L38.9983 59.3216C37.1419 60.3934 34.8547 60.3934 32.9983 59.3216L17.2998 50.2581C15.4434 49.1863 14.2998 47.2055 14.2998 45.0619L14.2998 26.9348C14.2998 24.7912 15.4434 22.8105 17.2998 21.7387L32.9983 12.6751Z" fill="#7705A4" style="mix-blend-mode:multiply"/>
</g>
</g>
<path fill-rule="evenodd" clip-rule="evenodd" d="M50 17.3275C50 16.6631 49.3641 16.1835 48.7253 16.366L36 20.0018L23.2747 16.366C22.6359 16.1835 22 16.6631 22 17.3275V32.0018C22 32.5541 22.4477 33.0018 23 33.0018H49C49.5523 33.0018 50 32.5541 50 32.0018V17.3275Z" fill="url(#paint5_linear_6978_212618)" stroke="url(#paint6_linear_6978_212618)" stroke-linecap="round" stroke-linejoin="round"/>
<path fill-rule="evenodd" clip-rule="evenodd" d="M34 14.1547C35.2376 13.4402 36.7624 13.4402 38 14.1547L53.9186 23.3453C55.1562 24.0598 55.9186 25.3803 55.9186 26.8094V45.1906C55.9186 46.6197 55.1562 47.9402 53.9186 48.6547L38 57.8453C36.7624 58.5598 35.2376 58.5598 34 57.8453L18.0814 48.6547C16.8438 47.9402 16.0814 46.6197 16.0814 45.1906V26.8094C16.0814 25.3803 16.8438 24.0598 18.0814 23.3453L34 14.1547Z" fill="url(#paint7_linear_6978_212618)" stroke="#FFF04D" stroke-opacity="0.4"/>
<g style="mix-blend-mode:multiply" opacity="0.8" filter="url(#filter7_i_6978_212618)">
<path fill-rule="evenodd" clip-rule="evenodd" d="M51.6707 25.1901L37.5163 17.0084C36.5778 16.466 35.4216 16.466 34.4832 17.0084L20.3287 25.1901C19.3903 25.7325 18.8122 26.735 18.8122 27.8199V33.7223L17.6647 35.4455C17.4412 35.7812 17.4412 36.2183 17.6647 36.554L18.8122 38.2772V44.1832C18.8122 45.2681 19.3903 46.2706 20.3287 46.8131L34.4832 54.9947C35.4216 55.5372 36.5778 55.5372 37.5163 54.9947L51.6707 46.8131C52.6091 46.2706 53.1872 45.2681 53.1872 44.1832V38.2773L54.3347 36.554C54.5583 36.2183 54.5583 35.7812 54.3347 35.4455L53.1872 33.7222V27.8199C53.1872 26.735 52.6091 25.7325 51.6707 25.1901ZM19.8232 38.2773V44.1832C19.8232 44.9065 20.2086 45.5748 20.8342 45.9364L34.9887 54.1181C35.6143 54.4797 36.3851 54.4797 37.0107 54.1181L51.1652 45.9364C51.7908 45.5748 52.1762 44.9065 52.1762 44.1832V38.2772L51.0287 36.554C50.8052 36.2183 50.8052 35.7812 51.0287 35.4455L52.1762 33.7223V27.8199C52.1762 27.0966 51.7908 26.4283 51.1652 26.0667L37.0107 17.885C36.3851 17.5233 35.6143 17.5233 34.9887 17.885L20.8342 26.0667C20.2086 26.4283 19.8232 27.0966 19.8232 27.8199V33.7222L20.9707 35.4455C21.1942 35.7812 21.1942 36.2183 20.9707 36.554L19.8232 38.2773Z" fill="#FABC10"/>
</g>
<path d="M37.7496 14.5861C36.6667 13.9609 35.3325 13.9609 34.2496 14.5861L18.3311 23.7767C17.2482 24.4019 16.5811 25.5574 16.5811 26.8078L16.5811 45.189C16.5811 46.4394 17.2482 47.5949 18.3311 48.2201L34.2496 57.4107C35.3325 58.0359 36.6667 58.0359 37.7496 57.4107L53.6682 48.2201C54.7511 47.5949 55.4182 46.4394 55.4182 45.189V26.8078C55.4182 25.5574 54.7511 24.4019 53.6682 23.7767L37.7496 14.5861Z" stroke="#F9B307"/>
<path opacity="0.4" d="M37.75 57.4109C39.6222 56.33 40.9487 55.5642 41.7296 55.1133" stroke="white" stroke-linecap="round"/>
<path d="M55.4182 45.189V26.8078C55.4182 25.5574 54.7511 24.4019 53.6682 23.7767L37.7496 14.5861C36.6667 13.9609 35.3325 13.9609 34.2496 14.5861L18.3311 23.7767C17.2482 24.4019 16.5811 25.5574 16.5811 26.8078L16.5811 45.189" stroke="#FAC00E" stroke-linecap="round"/>
<path opacity="0.6" d="M55.4182 26.8078C55.4182 25.5574 54.7511 24.4019 53.6682 23.7767L37.7496 14.5861C36.6667 13.9609 35.3325 13.9609 34.2496 14.5861L18.3311 23.7767C17.2482 24.4019 16.5811 25.5574 16.5811 26.8078" stroke="#FDDB3D" stroke-linecap="round"/>
<path opacity="0.6" d="M37.7503 14.5861C36.6674 13.9609 35.3332 13.9609 34.2503 14.5861C34.2503 14.5861 28.9441 17.6496 26.291 19.1814" stroke="white" stroke-linecap="round"/>
<path d="M34.2502 14.5859C34.2502 14.5859 31.4419 16.2073 30.2705 16.8836" stroke="white" stroke-linecap="round"/>
<g filter="url(#filter8_d_6978_212618)">
<path fill-rule="evenodd" clip-rule="evenodd" d="M35 20.5774C35.6188 20.2201 36.3812 20.2201 37 20.5774L48.8564 27.4226C49.4752 27.7799 49.8564 28.4402 49.8564 29.1547V42.8453C49.8564 43.5598 49.4752 44.2201 48.8564 44.5774L37 51.4226C36.3812 51.7799 35.6188 51.7799 35 51.4226L23.1436 44.5774C22.5248 44.2201 22.1436 43.5598 22.1436 42.8453V29.1547C22.1436 28.4402 22.5248 27.7799 23.1436 27.4226L35 20.5774Z" fill="url(#paint8_linear_6978_212618)"/>
<path d="M34.8975 20.0654C35.6422 19.6993 36.525 19.726 37.25 20.1445L49.1064 26.9893L49.248 27.0781C49.9375 27.54 50.3563 28.3172 50.3564 29.1543V42.8457C50.3563 43.6828 49.9375 44.46 49.248 44.9219L49.1064 45.0107L37.25 51.8555C36.525 52.274 35.6422 52.3007 34.8975 51.9346L34.75 51.8555L22.8936 45.0107C22.1202 44.5642 21.6437 43.7387 21.6436 42.8457V29.1543C21.6437 28.2613 22.1202 27.4358 22.8936 26.9893L34.75 20.1445L34.8975 20.0654Z" stroke="#F5900D" stroke-opacity="0.1" style="mix-blend-mode:multiply"/>
</g>
<mask id="mask3_6978_212618" style="mask-type:luminance" maskUnits="userSpaceOnUse" x="22" y="20" width="28" height="32">
<path fill-rule="evenodd" clip-rule="evenodd" d="M35 20.5774C35.6188 20.2201 36.3812 20.2201 37 20.5774L48.8564 27.4226C49.4752 27.7799 49.8564 28.4402 49.8564 29.1547V42.8453C49.8564 43.5598 49.4752 44.2201 48.8564 44.5774L37 51.4226C36.3812 51.7799 35.6188 51.7799 35 51.4226L23.1436 44.5774C22.5248 44.2201 22.1436 43.5598 22.1436 42.8453V29.1547C22.1436 28.4402 22.5248 27.7799 23.1436 27.4226L35 20.5774Z" fill="white"/>
</mask>
<g mask="url(#mask3_6978_212618)">
<g style="mix-blend-mode:multiply" opacity="0.3">
<path fill-rule="evenodd" clip-rule="evenodd" d="M36 36L40 20H32L36 36ZM36 36L52 32V40L36 36ZM36 36L44.4853 21.8579L50.1421 27.5147L36 36ZM36 36L44.4853 50.1421L50.1421 44.4853L36 36ZM36 36L32 52H40L36 36ZM36 36L20 40V32L36 36ZM36 36L27.5147 50.1421L21.8579 44.4853L36 36ZM27.5147 21.8579L21.8579 27.5147L36 36L27.5147 21.8579Z" fill="#FFD640"/>
</g>
<path opacity="0.4" d="M48.6064 27.8549L36.75 21.0096C36.2859 20.7416 35.7141 20.7416 35.25 21.0096C33.8555 21.8146 32.8675 22.3851 32.2859 22.7209C31.0754 23.4198 30.0873 23.9902 29.3218 24.4322C28.0044 25.1928 26.0283 26.3337 23.3936 27.8549" stroke="white" stroke-linecap="round"/>
<path opacity="0.4" d="M48.6064 44.11L36.75 50.9553C36.2859 51.2232 35.7141 51.2232 35.25 50.9553" stroke="white" stroke-linecap="round"/>
<path d="M35.2502 21.0078C33.8558 21.8129 32.8678 22.3833 32.2861 22.7191" stroke="white" stroke-linecap="round"/>
</g>
<g filter="url(#filter9_d_6978_212618)">
<path fill-rule="evenodd" clip-rule="evenodd" d="M36 27L44 36L36 45L28 36L36 27Z" fill="white"/>
<path d="M36 26C36.2856 26 36.5573 26.1224 36.7471 26.3359L44.7471 35.3359C45.0839 35.7148 45.0839 36.2852 44.7471 36.6641L36.7471 45.6641C36.5573 45.8776 36.2856 46 36 46C35.7144 46 35.4427 45.8776 35.2529 45.6641L27.2529 36.6641C26.9161 36.2852 26.9161 35.7148 27.2529 35.3359L35.2529 26.3359L35.3271 26.2598C35.5103 26.0933 35.75 26 36 26Z" stroke="white" stroke-width="2" stroke-linejoin="round"/>
</g>
<path fill-rule="evenodd" clip-rule="evenodd" d="M36 27L44 36H28L36 27Z" fill="url(#paint9_linear_6978_212618)"/>
<path fill-rule="evenodd" clip-rule="evenodd" d="M36 45L44 36H28L36 45Z" fill="url(#paint10_linear_6978_212618)"/>
<path fill-rule="evenodd" clip-rule="evenodd" d="M35.9997 27L32.1426 36H39.8569L35.9997 27Z" fill="url(#paint11_linear_6978_212618)"/>
<path fill-rule="evenodd" clip-rule="evenodd" d="M35.9997 45L32.1426 36H39.8569L35.9997 45Z" fill="url(#paint12_linear_6978_212618)"/>
<g filter="url(#filter10_d_6978_212618)">
<path fill-rule="evenodd" clip-rule="evenodd" d="M46.9109 29.7799L46.3916 29.5751C46.0739 29.4498 45.918 29.0908 46.0433 28.7732C46.1061 28.6138 46.2322 28.4877 46.3916 28.4249L46.9109 28.2201C47.5098 27.9839 47.9839 27.5098 48.2201 26.9109L48.4249 26.3916C48.5502 26.0739 48.9092 25.918 49.2268 26.0433C49.3862 26.1061 49.5123 26.2322 49.5751 26.3916L49.7799 26.9109C50.0161 27.5098 50.4902 27.9839 51.0891 28.2201L51.6084 28.4249C51.9261 28.5502 52.082 28.9092 51.9567 29.2268C51.8939 29.3862 51.7678 29.5123 51.6084 29.5751L51.0891 29.7799C50.4902 30.0161 50.0161 30.4902 49.7799 31.0891L49.5751 31.6084C49.4498 31.9261 49.0908 32.082 48.7732 31.9567C48.6138 31.8939 48.4877 31.7678 48.4249 31.6084L48.2201 31.0891C47.9839 30.4902 47.5098 30.0161 46.9109 29.7799Z" fill="white"/>
</g>
<g filter="url(#filter11_d_6978_212618)">
<path fill-rule="evenodd" clip-rule="evenodd" d="M26.6073 45.52L26.261 45.3834C26.0493 45.2999 25.9453 45.0605 26.0289 44.8488C26.0707 44.7426 26.1548 44.6585 26.261 44.6166L26.6073 44.48C27.0065 44.3226 27.3226 44.0065 27.48 43.6073L27.6166 43.261C27.7001 43.0493 27.9395 42.9453 28.1512 43.0289C28.2574 43.0707 28.3415 43.1548 28.3834 43.261L28.52 43.6073C28.6774 44.0065 28.9935 44.3226 29.3927 44.48L29.739 44.6166C29.9507 44.7001 30.0547 44.9395 29.9711 45.1512C29.9293 45.2574 29.8452 45.3415 29.739 45.3834L29.3927 45.52C28.9935 45.6774 28.6774 45.9935 28.52 46.3927L28.3834 46.739C28.2999 46.9507 28.0605 47.0547 27.8488 46.9711C27.7426 46.9293 27.6585 46.8452 27.6166 46.739L27.48 46.3927C27.3226 45.9935 27.0065 45.6774 26.6073 45.52Z" fill="white"/>
</g>
<g filter="url(#filter12_d_6978_212618)">
<path fill-rule="evenodd" clip-rule="evenodd" d="M20.7591 31.1499L20.3263 30.9793C20.0616 30.8749 19.9317 30.5757 20.0361 30.311C20.0884 30.1782 20.1935 30.0731 20.3263 30.0207L20.7591 29.8501C21.2582 29.6532 21.6532 29.2582 21.8501 28.7591L22.0207 28.3263C22.1251 28.0616 22.4243 27.9317 22.689 28.0361C22.8218 28.0884 22.9269 28.1935 22.9793 28.3263L23.1499 28.7591C23.3468 29.2582 23.7418 29.6532 24.2409 29.8501L24.6737 30.0207C24.9384 30.1251 25.0683 30.4243 24.9639 30.689C24.9116 30.8218 24.8065 30.9269 24.6737 30.9793L24.2409 31.1499C23.7418 31.3468 23.3468 31.7418 23.1499 32.2409L22.9793 32.6737C22.8749 32.9384 22.5757 33.0683 22.311 32.9639C22.1782 32.9116 22.0731 32.8065 22.0207 32.6737L21.8501 32.2409C21.6532 31.7418 21.2582 31.3468 20.7591 31.1499Z" fill="white"/>
</g>
<g filter="url(#filter13_d_6978_212618)">
<path fill-rule="evenodd" clip-rule="evenodd" d="M46.4555 45.89L46.1958 45.7876C46.037 45.7249 45.959 45.5454 46.0216 45.3866C46.0531 45.3069 46.1161 45.2439 46.1958 45.2124L46.4555 45.11C46.7549 44.9919 46.9919 44.7549 47.11 44.4555L47.2124 44.1958C47.2751 44.037 47.4546 43.959 47.6134 44.0216C47.6931 44.0531 47.7561 44.1161 47.7876 44.1958L47.89 44.4555C48.0081 44.7549 48.2451 44.9919 48.5445 45.11L48.8042 45.2124C48.963 45.2751 49.041 45.4546 48.9784 45.6134C48.9469 45.6931 48.8839 45.7561 48.8042 45.7876L48.5445 45.89C48.2451 46.0081 48.0081 46.2451 47.89 46.5445L47.7876 46.8042C47.7249 46.963 47.5454 47.041 47.3866 46.9784C47.3069 46.9469 47.2439 46.8839 47.2124 46.8042L47.11 46.5445C46.9919 46.2451 46.7549 46.0081 46.4555 45.89Z" fill="white"/>
</g>
<defs>
<filter id="filter0_d_6978_212618" x="20" y="33" width="20" height="35.3828" filterUnits="userSpaceOnUse" color-interpolation-filters="sRGB">
<feFlood flood-opacity="0" result="BackgroundImageFix"/>
<feColorMatrix in="SourceAlpha" type="matrix" values="0 0 0 0 0 0 0 0 0 0 0 0 0 0 0 0 0 0 127 0" result="hardAlpha"/>
<feOffset dy="2"/>
<feGaussianBlur stdDeviation="1"/>
<feColorMatrix type="matrix" values="0 0 0 0 0.309804 0 0 0 0 0.247059 0 0 0 0 0.866667 0 0 0 0.2 0"/>
<feBlend mode="darken" in2="BackgroundImageFix" result="effect1_dropShadow_6978_212618"/>
<feBlend mode="normal" in="SourceGraphic" in2="effect1_dropShadow_6978_212618" result="shape"/>
</filter>
<filter id="filter1_d_6978_212618" x="32" y="33" width="20" height="35.3828" filterUnits="userSpaceOnUse" color-interpolation-filters="sRGB">
<feFlood flood-opacity="0" result="BackgroundImageFix"/>
<feColorMatrix in="SourceAlpha" type="matrix" values="0 0 0 0 0 0 0 0 0 0 0 0 0 0 0 0 0 0 127 0" result="hardAlpha"/>
<feOffset dy="2"/>
<feGaussianBlur stdDeviation="1"/>
<feColorMatrix type="matrix" values="0 0 0 0 0.309804 0 0 0 0 0.247059 0 0 0 0 0.866667 0 0 0 0.2 0"/>
<feBlend mode="darken" in2="BackgroundImageFix" result="effect1_dropShadow_6978_212618"/>
<feBlend mode="normal" in="SourceGraphic" in2="effect1_dropShadow_6978_212618" result="shape"/>
</filter>
<filter id="filter2_d_6978_212618" x="26" y="38" width="20" height="35.3828" filterUnits="userSpaceOnUse" color-interpolation-filters="sRGB">
<feFlood flood-opacity="0" result="BackgroundImageFix"/>
<feColorMatrix in="SourceAlpha" type="matrix" values="0 0 0 0 0 0 0 0 0 0 0 0 0 0 0 0 0 0 127 0" result="hardAlpha"/>
<feOffset dy="2"/>
<feGaussianBlur stdDeviation="1"/>
<feColorMatrix type="matrix" values="0 0 0 0 0.309804 0 0 0 0 0.247059 0 0 0 0 0.866667 0 0 0 0.2 0"/>
<feBlend mode="darken" in2="BackgroundImageFix" result="effect1_dropShadow_6978_212618"/>
<feBlend mode="normal" in="SourceGraphic" in2="effect1_dropShadow_6978_212618" result="shape"/>
</filter>
<filter id="filter3_i_6978_212618" x="53.7812" y="25.5" width="6.71875" height="4.33203" filterUnits="userSpaceOnUse" color-interpolation-filters="sRGB">
<feFlood flood-opacity="0" result="BackgroundImageFix"/>
<feBlend mode="normal" in="SourceGraphic" in2="BackgroundImageFix" result="shape"/>
<feColorMatrix in="SourceAlpha" type="matrix" values="0 0 0 0 0 0 0 0 0 0 0 0 0 0 0 0 0 0 127 0" result="hardAlpha"/>
<feOffset dy="1"/>
<feGaussianBlur stdDeviation="0.5"/>
<feComposite in2="hardAlpha" operator="arithmetic" k2="-1" k3="1"/>
<feColorMatrix type="matrix" values="0 0 0 0 0.976471 0 0 0 0 0.713726 0 0 0 0 0.0352941 0 0 0 1 0"/>
<feBlend mode="normal" in2="shape" result="effect1_innerShadow_6978_212618"/>
</filter>
<filter id="filter4_i_6978_212618" x="53.7812" y="31.5" width="6.71875" height="4.33203" filterUnits="userSpaceOnUse" color-interpolation-filters="sRGB">
<feFlood flood-opacity="0" result="BackgroundImageFix"/>
<feBlend mode="normal" in="SourceGraphic" in2="BackgroundImageFix" result="shape"/>
<feColorMatrix in="SourceAlpha" type="matrix" values="0 0 0 0 0 0 0 0 0 0 0 0 0 0 0 0 0 0 127 0" result="hardAlpha"/>
<feOffset dy="1"/>
<feGaussianBlur stdDeviation="0.5"/>
<feComposite in2="hardAlpha" operator="arithmetic" k2="-1" k3="1"/>
<feColorMatrix type="matrix" values="0 0 0 0 0.976471 0 0 0 0 0.713726 0 0 0 0 0.0352941 0 0 0 1 0"/>
<feBlend mode="normal" in2="shape" result="effect1_innerShadow_6978_212618"/>
</filter>
<filter id="filter5_i_6978_212618" x="11.5" y="25.5" width="6.71875" height="4.33203" filterUnits="userSpaceOnUse" color-interpolation-filters="sRGB">
<feFlood flood-opacity="0" result="BackgroundImageFix"/>
<feBlend mode="normal" in="SourceGraphic" in2="BackgroundImageFix" result="shape"/>
<feColorMatrix in="SourceAlpha" type="matrix" values="0 0 0 0 0 0 0 0 0 0 0 0 0 0 0 0 0 0 127 0" result="hardAlpha"/>
<feOffset dy="1"/>
<feGaussianBlur stdDeviation="0.5"/>
<feComposite in2="hardAlpha" operator="arithmetic" k2="-1" k3="1"/>
<feColorMatrix type="matrix" values="0 0 0 0 0.976471 0 0 0 0 0.713726 0 0 0 0 0.0352941 0 0 0 1 0"/>
<feBlend mode="normal" in2="shape" result="effect1_innerShadow_6978_212618"/>
</filter>
<filter id="filter6_i_6978_212618" x="11.5" y="31.5" width="6.71875" height="4.33203" filterUnits="userSpaceOnUse" color-interpolation-filters="sRGB">
<feFlood flood-opacity="0" result="BackgroundImageFix"/>
<feBlend mode="normal" in="SourceGraphic" in2="BackgroundImageFix" result="shape"/>
<feColorMatrix in="SourceAlpha" type="matrix" values="0 0 0 0 0 0 0 0 0 0 0 0 0 0 0 0 0 0 127 0" result="hardAlpha"/>
<feOffset dy="1"/>
<feGaussianBlur stdDeviation="0.5"/>
<feComposite in2="hardAlpha" operator="arithmetic" k2="-1" k3="1"/>
<feColorMatrix type="matrix" values="0 0 0 0 0.976471 0 0 0 0 0.713726 0 0 0 0 0.0352941 0 0 0 1 0"/>
<feBlend mode="normal" in2="shape" result="effect1_innerShadow_6978_212618"/>
</filter>
<filter id="filter7_i_6978_212618" x="17.4971" y="16.6016" width="37.0049" height="39.8008" filterUnits="userSpaceOnUse" color-interpolation-filters="sRGB">
<feFlood flood-opacity="0" result="BackgroundImageFix"/>
<feBlend mode="normal" in="SourceGraphic" in2="BackgroundImageFix" result="shape"/>
<feColorMatrix in="SourceAlpha" type="matrix" values="0 0 0 0 0 0 0 0 0 0 0 0 0 0 0 0 0 0 127 0" result="hardAlpha"/>
<feOffset dy="1"/>
<feGaussianBlur stdDeviation="0.5"/>
<feComposite in2="hardAlpha" operator="arithmetic" k2="-1" k3="1"/>
<feColorMatrix type="matrix" values="0 0 0 0 0.976471 0 0 0 0 0.713726 0 0 0 0 0.0352941 0 0 0 1 0"/>
<feBlend mode="normal" in2="shape" result="effect1_innerShadow_6978_212618"/>
</filter>
<filter id="filter8_d_6978_212618" x="19.1436" y="18.3086" width="33.7129" height="37.3828" filterUnits="userSpaceOnUse" color-interpolation-filters="sRGB">
<feFlood flood-opacity="0" result="BackgroundImageFix"/>
<feColorMatrix in="SourceAlpha" type="matrix" values="0 0 0 0 0 0 0 0 0 0 0 0 0 0 0 0 0 0 127 0" result="hardAlpha"/>
<feOffset dy="1"/>
<feGaussianBlur stdDeviation="1"/>
<feColorMatrix type="matrix" values="0 0 0 0 0.927721 0 0 0 0 0.665867 0 0 0 0 0.0535899 0 0 0 0.4 0"/>
<feBlend mode="normal" in2="BackgroundImageFix" result="effect1_dropShadow_6978_212618"/>
<feBlend mode="normal" in="SourceGraphic" in2="effect1_dropShadow_6978_212618" result="shape"/>
</filter>
<filter id="filter9_d_6978_212618" x="24" y="24" width="24" height="26" filterUnits="userSpaceOnUse" color-interpolation-filters="sRGB">
<feFlood flood-opacity="0" result="BackgroundImageFix"/>
<feColorMatrix in="SourceAlpha" type="matrix" values="0 0 0 0 0 0 0 0 0 0 0 0 0 0 0 0 0 0 127 0" result="hardAlpha"/>
<feOffset dy="1"/>
<feGaussianBlur stdDeviation="1"/>
<feColorMatrix type="matrix" values="0 0 0 0 0.996078 0 0 0 0 0.733333 0 0 0 0 0.105882 0 0 0 1 0"/>
<feBlend mode="normal" in2="BackgroundImageFix" result="effect1_dropShadow_6978_212618"/>
<feBlend mode="normal" in="SourceGraphic" in2="effect1_dropShadow_6978_212618" result="shape"/>
</filter>
<filter id="filter10_d_6978_212618" x="44" y="24" width="10" height="10" filterUnits="userSpaceOnUse" color-interpolation-filters="sRGB">
<feFlood flood-opacity="0" result="BackgroundImageFix"/>
<feColorMatrix in="SourceAlpha" type="matrix" values="0 0 0 0 0 0 0 0 0 0 0 0 0 0 0 0 0 0 127 0" result="hardAlpha"/>
<feOffset/>
<feGaussianBlur stdDeviation="1"/>
<feColorMatrix type="matrix" values="0 0 0 0 1 0 0 0 0 0.94902 0 0 0 0 0.305882 0 0 0 1 0"/>
<feBlend mode="normal" in2="BackgroundImageFix" result="effect1_dropShadow_6978_212618"/>
<feBlend mode="normal" in="SourceGraphic" in2="effect1_dropShadow_6978_212618" result="shape"/>
</filter>
<filter id="filter11_d_6978_212618" x="24" y="41" width="8" height="8" filterUnits="userSpaceOnUse" color-interpolation-filters="sRGB">
<feFlood flood-opacity="0" result="BackgroundImageFix"/>
<feColorMatrix in="SourceAlpha" type="matrix" values="0 0 0 0 0 0 0 0 0 0 0 0 0 0 0 0 0 0 127 0" result="hardAlpha"/>
<feOffset/>
<feGaussianBlur stdDeviation="1"/>
<feColorMatrix type="matrix" values="0 0 0 0 1 0 0 0 0 0.94902 0 0 0 0 0.305882 0 0 0 1 0"/>
<feBlend mode="normal" in2="BackgroundImageFix" result="effect1_dropShadow_6978_212618"/>
<feBlend mode="normal" in="SourceGraphic" in2="effect1_dropShadow_6978_212618" result="shape"/>
</filter>
<filter id="filter12_d_6978_212618" x="18" y="26" width="9" height="9" filterUnits="userSpaceOnUse" color-interpolation-filters="sRGB">
<feFlood flood-opacity="0" result="BackgroundImageFix"/>
<feColorMatrix in="SourceAlpha" type="matrix" values="0 0 0 0 0 0 0 0 0 0 0 0 0 0 0 0 0 0 127 0" result="hardAlpha"/>
<feOffset/>
<feGaussianBlur stdDeviation="1"/>
<feColorMatrix type="matrix" values="0 0 0 0 1 0 0 0 0 0.94902 0 0 0 0 0.305882 0 0 0 1 0"/>
<feBlend mode="normal" in2="BackgroundImageFix" result="effect1_dropShadow_6978_212618"/>
<feBlend mode="normal" in="SourceGraphic" in2="effect1_dropShadow_6978_212618" result="shape"/>
</filter>
<filter id="filter13_d_6978_212618" x="44" y="42" width="7" height="7" filterUnits="userSpaceOnUse" color-interpolation-filters="sRGB">
<feFlood flood-opacity="0" result="BackgroundImageFix"/>
<feColorMatrix in="SourceAlpha" type="matrix" values="0 0 0 0 0 0 0 0 0 0 0 0 0 0 0 0 0 0 127 0" result="hardAlpha"/>
<feOffset/>
<feGaussianBlur stdDeviation="1"/>
<feColorMatrix type="matrix" values="0 0 0 0 1 0 0 0 0 0.94902 0 0 0 0 0.305882 0 0 0 1 0"/>
<feBlend mode="normal" in2="BackgroundImageFix" result="effect1_dropShadow_6978_212618"/>
<feBlend mode="normal" in="SourceGraphic" in2="effect1_dropShadow_6978_212618" result="shape"/>
</filter>
<linearGradient id="paint0_linear_6978_212618" x1="5.95475" y1="6" x2="5.95475" y2="64.1521" gradientUnits="userSpaceOnUse">
<stop stop-color="#AE66FF"/>
<stop offset="1" stop-color="#7E07E0"/>
</linearGradient>
<linearGradient id="paint1_linear_6978_212618" x1="59" y1="20" x2="59" y2="39" gradientUnits="userSpaceOnUse">
<stop stop-color="#F7C71A"/>
<stop offset="1" stop-color="#FBAA00"/>
</linearGradient>
<linearGradient id="paint2_linear_6978_212618" x1="59" y1="20" x2="59" y2="39" gradientUnits="userSpaceOnUse">
<stop stop-color="#FFDF6B"/>
<stop offset="1" stop-color="#F8A60A"/>
</linearGradient>
<linearGradient id="paint3_linear_6978_212618" x1="13" y1="20" x2="13" y2="39" gradientUnits="userSpaceOnUse">
<stop stop-color="#F7C71A"/>
<stop offset="1" stop-color="#FBAA00"/>
</linearGradient>
<linearGradient id="paint4_linear_6978_212618" x1="13" y1="20" x2="13" y2="39" gradientUnits="userSpaceOnUse">
<stop stop-color="#FFDF6B"/>
<stop offset="1" stop-color="#F8A60A"/>
</linearGradient>
<linearGradient id="paint5_linear_6978_212618" x1="22" y1="16.3555" x2="22" y2="33.0018" gradientUnits="userSpaceOnUse">
<stop stop-color="#F7C71A"/>
<stop offset="1" stop-color="#FBAA00"/>
</linearGradient>
<linearGradient id="paint6_linear_6978_212618" x1="22" y1="16.3555" x2="22" y2="33.0018" gradientUnits="userSpaceOnUse">
<stop stop-color="#FFDF6B"/>
<stop offset="1" stop-color="#F8A60A"/>
</linearGradient>
<linearGradient id="paint7_linear_6978_212618" x1="13" y1="13" x2="13" y2="59" gradientUnits="userSpaceOnUse">
<stop stop-color="#FDE046"/>
<stop offset="1" stop-color="#F9B800"/>
</linearGradient>
<linearGradient id="paint8_linear_6978_212618" x1="20" y1="20" x2="20" y2="52" gradientUnits="userSpaceOnUse">
<stop stop-color="#FFF550"/>
<stop offset="1" stop-color="#FFD541"/>
</linearGradient>
<linearGradient id="paint9_linear_6978_212618" x1="28" y1="27" x2="28" y2="36" gradientUnits="userSpaceOnUse">
<stop stop-color="#27DEEB"/>
<stop offset="1" stop-color="#08C9FF"/>
</linearGradient>
<linearGradient id="paint10_linear_6978_212618" x1="28" y1="36" x2="28" y2="45" gradientUnits="userSpaceOnUse">
<stop stop-color="#009BF6"/>
<stop offset="1" stop-color="#00B5FF"/>
</linearGradient>
<linearGradient id="paint11_linear_6978_212618" x1="32.1426" y1="27" x2="32.1426" y2="36" gradientUnits="userSpaceOnUse">
<stop stop-color="#8AFFFF"/>
<stop offset="1" stop-color="#0DF3FF"/>
</linearGradient>
<linearGradient id="paint12_linear_6978_212618" x1="32.1426" y1="36" x2="32.1426" y2="45" gradientUnits="userSpaceOnUse">
<stop stop-color="#00BAF3"/>
<stop offset="1" stop-color="#00B5FF"/>
</linearGradient>
</defs>
</svg>
