<svg width="72" height="74" viewBox="0 0 72 74" fill="none" xmlns="http://www.w3.org/2000/svg">
<path fill-rule="evenodd" clip-rule="evenodd" d="M53 62C54.1046 62 55 62.8954 55 64C55 65.1046 54.1046 66 53 66H35C34.8824 66 34.7673 65.9899 34.6553 65.9704C28.2305 65.687 22.3308 63.3828 17.5761 59.6779C17.1894 59.3766 16.6067 58.8771 16.1748 58.5013C15.8054 58.1799 15.3333 58 14.8436 58H10C8.89543 58 8 57.1046 8 56C8 54.8954 8.89543 54 10 54H12C13.1046 54 14 53.1046 14 52C14 50.8954 13.1046 50 12 50H7C5.89543 50 5 49.1046 5 48C5 46.8954 5.89543 46 7 46H8C9.10457 46 10 45.1046 10 44C10 42.8954 9.10457 42 8 42C7.1913 42 6.49962 41.4171 6.36506 40.6196C6.31617 40.3299 6.27734 40.0966 6.27093 40.0492C6.09227 38.7249 6 37.3732 6 36C6 19.4315 19.4315 6 36 6C41 6 46 6 51 6C52.1046 6 53 6.89543 53 8C53 9.10457 52.1046 10 51 10H48C46.8954 10 46 10.8954 46 12C46 13.1046 46.8954 14 48 14H60C61.1046 14 62 14.8954 62 16C62 17.1038 61.1058 17.9988 60.0022 18L57 18C55.8954 18 55 18.8954 55 20C55 21.1046 55.8954 22 57 22H61.306C62.0624 22 62.7556 22.4259 63.0835 23.1075C63.2807 23.5171 63.488 23.959 63.6237 24.2783C65.1536 27.8793 66 31.8408 66 36C66 37.3068 65.9164 38.5942 65.7544 39.8569C65.7271 40.0692 65.6853 40.3418 65.6398 40.6208C65.5093 41.4213 64.8111 42 64 42C62.8954 42 62 42.8954 62 44C62 45.1046 62.8954 46 64 46H65C66.1046 46 67 46.8954 67 48C67 49.1046 66.1046 50 65 50H63.7162C62.9901 50 62.3224 50.3942 61.9597 51.0232C61.7241 51.4317 61.4621 51.8761 61.2675 52.1794C60.8114 52.8903 60.326 53.5807 59.8132 54.2489C59.2981 54.9201 58.7553 55.5688 58.1864 56.1934C57.8743 56.5362 57.3685 57.044 56.974 57.4341C56.605 57.799 56.1061 58 55.5871 58H50C48.8954 58 48 58.8954 48 60C48 61.0969 48.883 61.9875 49.9769 61.9999L53 62Z" fill="url(#paint0_linear_6978_212538)"/>
<g opacity="0.1">
<path fill-rule="evenodd" clip-rule="evenodd" d="M32.4733 13.5623C34.5762 12.0344 37.4238 12.0344 39.5267 13.5623L56.2497 25.7123C58.3526 27.2401 59.2326 29.9483 58.4293 32.4205L52.0417 52.0795C51.2385 54.5517 48.9347 56.2254 46.3354 56.2254H25.6646C23.0653 56.2254 20.7615 54.5517 19.9583 52.0795L13.5707 32.4205C12.7674 29.9483 13.6474 27.2401 15.7503 25.7123L32.4733 13.5623Z" fill="#0E995E" style="mix-blend-mode:multiply"/>
</g>
<g filter="url(#filter0_d_6978_212538)">
<path fill-rule="evenodd" clip-rule="evenodd" d="M28 36H44V68.3364C44 69.0906 43.1969 69.5734 42.5308 69.2195L36 65.75L29.4692 69.2195C28.8031 69.5734 28 69.0906 28 68.3364V36Z" fill="#12AAB5"/>
</g>
<mask id="mask0_6978_212538" style="mask-type:luminance" maskUnits="userSpaceOnUse" x="28" y="36" width="16" height="34">
<path fill-rule="evenodd" clip-rule="evenodd" d="M28 36H44V68.3364C44 69.0906 43.1969 69.5734 42.5308 69.2195L36 65.75L29.4692 69.2195C28.8031 69.5734 28 69.0906 28 68.3364V36Z" fill="white"/>
</mask>
<g mask="url(#mask0_6978_212538)">
<path fill-rule="evenodd" clip-rule="evenodd" d="M32 52H40V70H32V52Z" fill="white"/>
</g>
<path style="mix-blend-mode:multiply" opacity="0.2" fill-rule="evenodd" clip-rule="evenodd" d="M33.6489 16.7082C35.0508 15.6896 36.9492 15.6896 38.3511 16.7082L55.5232 29.1844C56.9251 30.203 57.5117 32.0085 56.9762 33.6565L50.4171 53.8435C49.8816 55.4916 48.3458 56.6074 46.6129 56.6074H25.3871C23.6542 56.6074 22.1184 55.4916 21.5829 53.8435L15.0238 33.6565C14.4883 32.0084 15.0749 30.203 16.4768 29.1844L33.6489 16.7082Z" fill="#18AC6C"/>
<path fill-rule="evenodd" clip-rule="evenodd" d="M33.6489 14.7082C35.0508 13.6896 36.9492 13.6896 38.3511 14.7082L55.5232 27.1844C56.9251 28.203 57.5117 30.0085 56.9762 31.6565L50.4171 51.8435C49.8816 53.4916 48.3458 54.6074 46.6129 54.6074H25.3871C23.6542 54.6074 22.1184 53.4916 21.5829 51.8435L15.0238 31.6565C14.4883 30.0084 15.0749 28.203 16.4768 27.1844L33.6489 14.7082Z" fill="url(#paint1_linear_6978_212538)"/>
<mask id="mask1_6978_212538" style="mask-type:luminance" maskUnits="userSpaceOnUse" x="14" y="13" width="44" height="42">
<path fill-rule="evenodd" clip-rule="evenodd" d="M33.6489 14.7082C35.0508 13.6896 36.9492 13.6896 38.3511 14.7082L55.5232 27.1844C56.9251 28.203 57.5117 30.0085 56.9762 31.6565L50.4171 51.8435C49.8816 53.4916 48.3458 54.6074 46.6129 54.6074H25.3871C23.6542 54.6074 22.1184 53.4916 21.5829 51.8435L15.0238 31.6565C14.4883 30.0084 15.0749 28.203 16.4768 27.1844L33.6489 14.7082Z" fill="white"/>
</mask>
<g mask="url(#mask1_6978_212538)">
<path d="M38.0576 15.1138C36.8309 14.2225 35.1698 14.2225 33.9431 15.1138L16.7711 27.59C15.5444 28.4812 15.0311 30.061 15.4997 31.5031L22.0588 51.69C22.5274 53.1321 23.8712 54.1084 25.3875 54.1084H46.6133C48.1296 54.1084 49.4734 53.1321 49.942 51.69L56.5011 31.5031C56.9697 30.061 56.4564 28.4812 55.2296 27.59L38.0576 15.1138Z" stroke="#E67515"/>
<path d="M49.9414 51.6908L56.5005 31.5039" stroke="#F68A2C" stroke-linecap="round"/>
<path d="M15.499 31.5039L22.0582 51.6908" stroke="#F68A2C" stroke-linecap="round"/>
<path d="M56.5011 31.5031C56.9697 30.061 56.4564 28.4812 55.2296 27.59L38.0576 15.1138C36.8309 14.2225 35.1698 14.2225 33.9431 15.1138L16.7711 27.59C15.5444 28.4812 15.0311 30.061 15.4997 31.5031" stroke="#FAA953" stroke-linecap="round"/>
<path opacity="0.3" d="M38.057 15.1138C36.8303 14.2225 35.1692 14.2225 33.9425 15.1138L16.7705 27.59" stroke="white" stroke-linecap="round"/>
<path d="M33.9424 15.1133L29.6494 18.2323" stroke="white" stroke-linecap="round"/>
</g>
<g filter="url(#filter1_d_6978_212538)">
<path fill-rule="evenodd" clip-rule="evenodd" d="M34.8244 20.8541C35.5254 20.3448 36.4746 20.3448 37.1756 20.8541L50.0413 30.2016C50.7423 30.7109 51.0356 31.6136 50.7679 32.4377L45.8536 47.5623C45.5858 48.3864 44.8179 48.9443 43.9515 48.9443H28.0485C27.1821 48.9443 26.4142 48.3864 26.1464 47.5623L21.2321 32.4377C20.9644 31.6136 21.2577 30.7109 21.9587 30.2016L34.8244 20.8541Z" fill="url(#paint2_linear_6978_212538)"/>
<path d="M34.6982 20.3379C35.5538 19.8156 36.6482 19.8524 37.4697 20.4492L50.335 29.7969L50.4932 29.9219C51.2038 30.5308 51.5149 31.4882 51.2979 32.3984L51.2432 32.5918L46.3291 47.7168C45.9944 48.7469 45.0342 49.4443 43.9512 49.4443H28.0488C27.0336 49.4443 26.1265 48.8314 25.7412 47.9062L25.6709 47.7168L20.7568 32.5918C20.4223 31.5618 20.7889 30.4334 21.665 29.7969L34.5303 20.4492L34.6982 20.3379Z" stroke="#E86A00" stroke-opacity="0.06"/>
</g>
<mask id="mask2_6978_212538" style="mask-type:luminance" maskUnits="userSpaceOnUse" x="21" y="20" width="30" height="29">
<path fill-rule="evenodd" clip-rule="evenodd" d="M34.8244 20.8541C35.5254 20.3448 36.4746 20.3448 37.1756 20.8541L50.0413 30.2016C50.7423 30.7109 51.0356 31.6136 50.7679 32.4377L45.8536 47.5623C45.5858 48.3864 44.8179 48.9443 43.9515 48.9443H28.0485C27.1821 48.9443 26.4142 48.3864 26.1464 47.5623L21.2321 32.4377C20.9644 31.6136 21.2577 30.7109 21.9587 30.2016L34.8244 20.8541Z" fill="white"/>
</mask>
<g mask="url(#mask2_6978_212538)">
<path fill-rule="evenodd" clip-rule="evenodd" d="M36 36L20 40V32L36 36ZM36 36L40 20H32L36 36ZM36 36L52 32V40L36 36ZM36 36L44.4853 21.8579L50.1421 27.5147L36 36ZM36 36L44.4853 50.1421L50.1421 44.4853L36 36ZM36 36L32 52H40L36 36ZM36 36L27.5147 50.1421L21.8579 44.4853L36 36Z" fill="url(#paint3_linear_6978_212538)"/>
<path d="M27.5147 21.8579L21.8579 27.5147L36 36L27.5147 21.8579Z" fill="url(#paint4_linear_6978_212538)"/>
<path d="M33.5107 22.4258C32.8164 22.9302 32.2803 23.3197 31.9023 23.5943" stroke="white" stroke-linecap="round"/>
</g>
<g filter="url(#filter2_d_6978_212538)">
<path d="M33.45 32.4906L36.0002 28.7695L38.5504 32.4906L42.8774 33.7661L40.1265 37.3413L40.2506 41.8507L36.0002 40.3393L31.7499 41.8507L31.8739 37.3413L29.123 33.7661L33.45 32.4906Z" fill="white"/>
<path d="M36 27.7695C36.3298 27.7695 36.6387 27.9321 36.8252 28.2041L39.1738 31.6309L43.1602 32.8066C43.4765 32.8999 43.7262 33.1434 43.8281 33.457C43.93 33.7707 43.871 34.1146 43.6699 34.376L41.1357 37.6689L41.25 41.8232C41.2591 42.1529 41.1047 42.4663 40.8379 42.6602C40.5711 42.8537 40.2256 42.9034 39.915 42.793L36 41.4004L32.085 42.793C31.7743 42.9034 31.4289 42.8539 31.1621 42.6602C30.8953 42.4663 30.7409 42.1529 30.75 41.8232L30.8633 37.6689L28.3301 34.376C28.129 34.1146 28.07 33.7706 28.1719 33.457C28.2738 33.1435 28.5237 32.9 28.8398 32.8066L32.8252 31.6309L35.1758 28.2041L35.251 28.1074C35.4394 27.8941 35.7115 27.7696 36 27.7695Z" stroke="white" stroke-width="2" stroke-linejoin="round"/>
</g>
<g filter="url(#filter3_i_6978_212538)">
<path d="M33.45 32.4906L36.0002 28.7695L38.5504 32.4906L42.8774 33.7661L40.1265 37.3413L40.2506 41.8507L36.0002 40.3393L31.7499 41.8507L31.8739 37.3413L29.123 33.7661L33.45 32.4906Z" fill="url(#paint5_linear_6978_212538)"/>
</g>
<defs>
<filter id="filter0_d_6978_212538" x="26" y="36" width="20" height="37.3359" filterUnits="userSpaceOnUse" color-interpolation-filters="sRGB">
<feFlood flood-opacity="0" result="BackgroundImageFix"/>
<feColorMatrix in="SourceAlpha" type="matrix" values="0 0 0 0 0 0 0 0 0 0 0 0 0 0 0 0 0 0 127 0" result="hardAlpha"/>
<feOffset dy="2"/>
<feGaussianBlur stdDeviation="1"/>
<feColorMatrix type="matrix" values="0 0 0 0 0.333333 0 0 0 0 0.819608 0 0 0 0 0.615686 0 0 0 0.2 0"/>
<feBlend mode="darken" in2="BackgroundImageFix" result="effect1_dropShadow_6978_212538"/>
<feBlend mode="normal" in="SourceGraphic" in2="effect1_dropShadow_6978_212538" result="shape"/>
</filter>
<filter id="filter1_d_6978_212538" x="18.1338" y="18.4727" width="35.7324" height="34.4727" filterUnits="userSpaceOnUse" color-interpolation-filters="sRGB">
<feFlood flood-opacity="0" result="BackgroundImageFix"/>
<feColorMatrix in="SourceAlpha" type="matrix" values="0 0 0 0 0 0 0 0 0 0 0 0 0 0 0 0 0 0 127 0" result="hardAlpha"/>
<feOffset dy="1"/>
<feGaussianBlur stdDeviation="1"/>
<feColorMatrix type="matrix" values="0 0 0 0 0.95 0 0 0 0 0.442079 0 0 0 0 0 0 0 0 0.8 0"/>
<feBlend mode="normal" in2="BackgroundImageFix" result="effect1_dropShadow_6978_212538"/>
<feBlend mode="normal" in="SourceGraphic" in2="effect1_dropShadow_6978_212538" result="shape"/>
</filter>
<filter id="filter2_d_6978_212538" x="25.123" y="25.7695" width="21.7539" height="21.082" filterUnits="userSpaceOnUse" color-interpolation-filters="sRGB">
<feFlood flood-opacity="0" result="BackgroundImageFix"/>
<feColorMatrix in="SourceAlpha" type="matrix" values="0 0 0 0 0 0 0 0 0 0 0 0 0 0 0 0 0 0 127 0" result="hardAlpha"/>
<feOffset dy="1"/>
<feGaussianBlur stdDeviation="1"/>
<feColorMatrix type="matrix" values="0 0 0 0 0.643137 0 0 0 0 0.262856 0 0 0 0 0.0196078 0 0 0 0.2 0"/>
<feBlend mode="normal" in2="BackgroundImageFix" result="effect1_dropShadow_6978_212538"/>
<feBlend mode="normal" in="SourceGraphic" in2="effect1_dropShadow_6978_212538" result="shape"/>
</filter>
<filter id="filter3_i_6978_212538" x="29.123" y="28.7695" width="13.7539" height="14.082" filterUnits="userSpaceOnUse" color-interpolation-filters="sRGB">
<feFlood flood-opacity="0" result="BackgroundImageFix"/>
<feBlend mode="normal" in="SourceGraphic" in2="BackgroundImageFix" result="shape"/>
<feColorMatrix in="SourceAlpha" type="matrix" values="0 0 0 0 0 0 0 0 0 0 0 0 0 0 0 0 0 0 127 0" result="hardAlpha"/>
<feOffset dy="1"/>
<feGaussianBlur stdDeviation="0.5"/>
<feComposite in2="hardAlpha" operator="arithmetic" k2="-1" k3="1"/>
<feColorMatrix type="matrix" values="0 0 0 0 0.921569 0 0 0 0 0.447059 0 0 0 0 0.105882 0 0 0 0.4 0"/>
<feBlend mode="normal" in2="shape" result="effect1_innerShadow_6978_212538"/>
</filter>
<linearGradient id="paint0_linear_6978_212538" x1="5" y1="6" x2="5" y2="66" gradientUnits="userSpaceOnUse">
<stop stop-color="#60DCA7"/>
<stop offset="1" stop-color="#54D09C"/>
</linearGradient>
<linearGradient id="paint1_linear_6978_212538" x1="13" y1="13" x2="13" y2="59" gradientUnits="userSpaceOnUse">
<stop stop-color="#FD9C43"/>
<stop offset="1" stop-color="#F27E1D"/>
</linearGradient>
<linearGradient id="paint2_linear_6978_212538" x1="20" y1="20" x2="20" y2="52" gradientUnits="userSpaceOnUse">
<stop stop-color="#FFD17B"/>
<stop offset="1" stop-color="#FBA152"/>
</linearGradient>
<linearGradient id="paint3_linear_6978_212538" x1="21.4926" y1="20" x2="21.4926" y2="49.0148" gradientUnits="userSpaceOnUse">
<stop stop-color="#F58425" stop-opacity="0.2"/>
<stop offset="1" stop-color="#F58425" stop-opacity="0.01"/>
</linearGradient>
<linearGradient id="paint4_linear_6978_212538" x1="21.4926" y1="20" x2="21.4926" y2="49.0148" gradientUnits="userSpaceOnUse">
<stop stop-color="#F58425" stop-opacity="0.2"/>
<stop offset="1" stop-color="#F58425" stop-opacity="0.01"/>
</linearGradient>
<linearGradient id="paint5_linear_6978_212538" x1="29.123" y1="28.7695" x2="29.123" y2="41.8507" gradientUnits="userSpaceOnUse">
<stop stop-color="#FD9B41"/>
<stop offset="1" stop-color="#F48224"/>
</linearGradient>
</defs>
</svg>
