<svg xmlns="http://www.w3.org/2000/svg"
     fill="currentColor"
     viewBox="0 0 24 24">
    <path fill="#000"
          d="m15 12.607-.59-.807-.014.01-.014.011.619.786Zm0-1.032-.637.77.044.037.049.031.545-.838Zm-3.676-3.046.638-.77-.028-.023-.03-.021-.58.814Zm-.771.455 1-.003v-.015l-1 .018Zm.015 5.983-1 .003v.025l.002.025.998-.053Zm.8.499.528.849.047-.03.043-.033-.619-.786ZM12 18.2c-1.708 0-3.536 0-5.067-.128-.765-.064-1.421-.157-1.93-.286-.544-.138-.776-.282-.841-.348l-1.415 1.415c.462.462 1.138.713 1.765.872.661.167 1.44.272 2.255.34 1.63.136 3.547.135 5.233.135v-2ZM1.4 12c0 1.669-.002 3.021.14 4.084.147 1.09.463 2.025 1.207 2.769l1.415-1.415c-.31-.31-.522-.752-.64-1.621-.12-.898-.122-2.092-.122-3.817h-2Zm19.2 0c0 1.725-.002 2.919-.123 3.817-.117.87-.328 1.311-.639 1.622l1.415 1.414c.744-.744 1.06-1.678 1.206-2.77.143-1.062.141-2.414.141-4.083h-2ZM12 20.2c1.686 0 3.603 0 5.233-.135.815-.068 1.594-.173 2.255-.34.627-.16 1.303-.41 1.765-.872l-1.415-1.415c-.065.066-.297.21-.84.348-.51.129-1.166.222-1.93.286-1.532.127-3.36.128-5.068.128v2Zm0-14.4c1.708 0 3.536 0 5.067.128.765.064 1.421.157 1.93.286.544.138.776.282.841.348l1.415-1.415c-.462-.461-1.138-.713-1.765-.872-.661-.167-1.44-.272-2.255-.34C15.603 3.8 13.686 3.8 12 3.8v2ZM22.6 12c0-1.669.002-3.02-.14-4.083-.147-1.092-.463-2.026-1.207-2.77l-1.415 1.415c.31.31.522.752.64 1.621.12.898.122 2.092.122 3.817h2ZM12 3.8c-1.686 0-3.603 0-5.233.135-.815.068-1.594.173-2.255.34-.627.16-1.303.41-1.765.872l1.415 1.415c.065-.066.297-.21.84-.348.51-.129 1.166-.222 1.93-.286C8.465 5.801 10.293 5.8 12 5.8v-2ZM3.4 12c0-1.725.002-2.919.123-3.817.117-.87.328-1.311.639-1.621L2.747 5.147c-.744.744-1.06 1.678-1.206 2.77C1.398 8.979 1.4 10.33 1.4 12h2Zm12.192 1.414c.34-.25.762-.693.76-1.34 0-.665-.444-1.102-.806-1.337l-1.09 1.676c.106.07-.103-.023-.103-.336 0-.142.049-.24.077-.283.024-.037.03-.03-.02.006l1.182 1.614Zm.047-2.61L11.962 7.76 10.686 9.3l3.677 3.046 1.276-1.54Zm-3.735-3.09c-.377-.268-.983-.47-1.577-.157-.608.32-.783.952-.774 1.445l2-.036c-.002-.074.019.196-.296.361a.605.605 0 0 1-.372.067.342.342 0 0 1-.142-.05l1.161-1.63ZM9.553 8.988l.015 5.983 2-.005-.015-5.984-2 .006Zm.017 6.033c.02.39.138 1.039.724 1.39.633.381 1.272.11 1.602-.095l-1.057-1.698c-.042.026-.019.002.061-.01a.645.645 0 0 1 .424.09.586.586 0 0 1 .242.263c.016.04.005.035.001-.046l-1.997.106Zm2.416 1.232 3.633-2.859-1.237-1.572-3.633 2.859 1.237 1.572Z" />
</svg>