<svg xmlns="http://www.w3.org/2000/svg"
     fill="currentColor"
     viewBox="0 0 24 26">
    <path fill="#000"
          d="m3.119 19.962-.798-.602.798.602Zm1.308-3.727-1-.012v.012h1Zm.028-2.253 1 .012v-.012h-1Zm16.433 5.999.81-.587-.81.587Zm-1.259-3.746-1-.013v.013h1Zm.028-2.142 1 .013v-.013h-1Zm-15.74 6.473c.754-.998 1.51-2.496 1.51-4.33h-2c0 1.275-.529 2.36-1.106 3.123l1.595 1.207Zm1.51-4.319.028-2.253-2-.025-.028 2.254 2 .024Zm16.27 3.147c-.552-.763-1.068-1.86-1.068-3.159h-2c0 1.833.725 3.333 1.45 4.333l1.619-1.174Zm-1.068-3.146.027-2.142-2-.026-.027 2.142 2 .026Zm.028-2.155C20.657 9.297 16.785 5.4 12 5.4v2c3.672 0 6.657 2.992 6.657 6.693h2Zm-.227 7.932c.76 0 1.237-.535 1.429-.99.192-.452.23-1.1-.161-1.641l-1.62 1.174c-.116-.16-.071-.287-.06-.313.01-.026.12-.23.412-.23v2ZM5.455 13.982C5.455 10.341 8.39 7.4 12 7.4v-2c-4.724 0-8.545 3.847-8.545 8.582h2ZM3.57 20.024a.51.51 0 0 1 .315.108c.063.05.089.099.098.123.01.025.018.057.015.102a.397.397 0 0 1-.083.208L2.321 19.36c-.41.54-.374 1.2-.186 1.656.187.457.664 1.01 1.436 1.01v-2Zm16.859 0H3.571v2H20.43v-2Zm-5.83 1c0 1.252-1.102 2.375-2.6 2.375v2c2.479 0 4.6-1.899 4.6-4.375h-2ZM12 23.4c-1.498 0-2.6-1.123-2.6-2.375h-2c0 2.476 2.121 4.375 4.6 4.375v-2ZM13.4 4A1.4 1.4 0 0 1 12 5.4v2A3.4 3.4 0 0 0 15.4 4h-2ZM12 5.4A1.4 1.4 0 0 1 10.6 4h-2A3.4 3.4 0 0 0 12 7.4v-2ZM10.6 4A1.4 1.4 0 0 1 12 2.6v-2A3.4 3.4 0 0 0 8.6 4h2ZM12 2.6A1.4 1.4 0 0 1 13.4 4h2A3.4 3.4 0 0 0 12 .6v2Z" />
</svg>