<svg xmlns="http://www.w3.org/2000/svg"
     fill="currentColor"
     viewBox="0 0 24 24">
    <path fill="#000"
          d="M1.8 15.413h-1 1Zm0-9h1-1Zm10.2 12.4a1 1 0 1 0 0-2v2Zm-7.8-1v-1 1ZM21 6.412h-1 1Zm-18.6.8a1 1 0 1 0 0 2v-2Zm18 2a1 1 0 1 0 0-2v2Zm-4.2 4.275-.447-.895a1 1 0 0 0-.553.895h1Zm3 6.5-.534.845a1 1 0 0 0 1.068 0l-.534-.845Zm3-6.5h1a1 1 0 0 0-.553-.895l-.447.895Zm-4.61-.695.447.894-.447-.894Zm3.22 0-.447.894.447-.894ZM4.2 5.013h14.4v-2H4.2v2Zm-1.4 10.4v-9h-2v9h2Zm9.2 1.4H4.2v2H12v-2Zm8-10.4v1.8h2v-1.8h-2Zm-15.8-3.4a3.4 3.4 0 0 0-3.4 3.4h2a1.4 1.4 0 0 1 1.4-1.4v-2Zm14.4 2a1.4 1.4 0 0 1 1.4 1.4h2a3.4 3.4 0 0 0-3.4-3.4v2ZM.8 15.413a3.4 3.4 0 0 0 3.4 3.4v-2a1.4 1.4 0 0 1-1.4-1.4h-2Zm1.6-6.2h18v-2h-18v2Zm14.742 2.685-1.39.695.895 1.79 1.39-.696-.895-1.789Zm-1.942 1.59v3.345h2v-3.345h-2Zm0 3.345c0 .846.49 1.57 1.058 2.156.59.606 1.416 1.218 2.408 1.844l1.068-1.69c-.941-.595-1.614-1.108-2.042-1.548-.448-.461-.492-.703-.492-.762h-2Zm4.534 4c.952-.601 1.791-1.153 2.386-1.729.622-.601 1.08-1.328 1.08-2.271h-2c0 .21-.076.452-.47.834-.423.408-1.084.856-2.064 1.475l1.068 1.691Zm3.466-4v-3.345h-2v3.346h2Zm-.553-4.24-1.39-.695-.895 1.789 1.39.695.895-1.789Zm-4.61 1.094a2.6 2.6 0 0 1 2.326 0l.894-1.789a4.6 4.6 0 0 0-4.115 0l.895 1.789Z" />
</svg>