<svg xmlns="http://www.w3.org/2000/svg"
     fill="currentColor"
     viewBox="0 0 24 24">
    <path fill="#000"
          d="M2.4 1.993a1 1 0 1 0 0 2v-2Zm2.293 1 .965-.262a1 1 0 0 0-.965-.738v1Zm3.725 13.755-.965.261a1 1 0 0 0 1.089.731l-.124-.992Zm11.463-1.433.124.992a1 1 0 0 0 .855-.79l-.98-.202Zm1.719-8.31.98.202a1 1 0 0 0-.98-1.202v1Zm-15.82 0-.966.261.965-.261ZM2.4 3.993h2.293v-2H2.4v2ZM8.542 17.74l11.463-1.433-.248-1.984-11.463 1.433.248 1.984Zm12.318-2.222 1.72-8.31-1.96-.406-1.719 8.31 1.959.406ZM3.727 3.254l1.087 4.012 1.93-.523-1.086-4.012-1.93.523Zm1.087 4.012 2.639 9.743 1.93-.523-2.639-9.743-1.93.523ZM21.6 6.005H5.78v2H21.6v-2ZM11 20.5a.5.5 0 0 1-.5.5v2a2.5 2.5 0 0 0 2.5-2.5h-2Zm-.5.5a.5.5 0 0 1-.5-.5H8a2.5 2.5 0 0 0 2.5 2.5v-2Zm-.5-.5a.5.5 0 0 1 .5-.5v-2A2.5 2.5 0 0 0 8 20.5h2Zm.5-.5a.5.5 0 0 1 .5.5h2a2.5 2.5 0 0 0-2.5-2.5v2Zm8.5.5a.5.5 0 0 1-.5.5v2a2.5 2.5 0 0 0 2.5-2.5h-2Zm-.5.5a.5.5 0 0 1-.5-.5h-2a2.5 2.5 0 0 0 2.5 2.5v-2Zm-.5-.5a.5.5 0 0 1 .5-.5v-2a2.5 2.5 0 0 0-2.5 2.5h2Zm.5-.5a.5.5 0 0 1 .5.5h2a2.5 2.5 0 0 0-2.5-2.5v2Z" />
</svg>