<svg xmlns="http://www.w3.org/2000/svg"
     fill="currentColor"
     viewBox="0 0 24 24">
    <path fill="#000"
          d="M4.693 17.293a1 1 0 1 0 1.414 1.414l-1.414-1.414ZM8.4 15l.707-.707a1 1 0 0 0-1.414 0L8.4 15Zm2.4 2.4-.707.707a1 1 0 0 0 1.414 0L10.8 17.4Zm5.4-5.4.707-.707a1 1 0 0 0-1.414 0L16.2 12Zm3.493 4.907a1 1 0 0 0 1.414-1.414l-1.414 1.414Zm-13.586 1.8 3-3-1.414-1.414-3 3 1.414 1.414Zm1.586-3 2.4 2.4 1.414-1.414-2.4-2.4-1.414 1.414Zm3.814 2.4 5.4-5.4-1.414-1.414-5.4 5.4 1.414 1.414Zm3.986-5.4 4.2 4.2 1.414-1.414-4.2-4.2-1.414 1.414ZM12 20.6A8.6 8.6 0 0 1 3.4 12h-2c0 5.854 4.746 10.6 10.6 10.6v-2Zm8.6-8.6a8.6 8.6 0 0 1-8.6 8.6v2c5.854 0 10.6-4.746 10.6-10.6h-2ZM12 3.4a8.6 8.6 0 0 1 8.6 8.6h2c0-5.854-4.746-10.6-10.6-10.6v2Zm0-2C6.146 1.4 1.4 6.146 1.4 12h2A8.6 8.6 0 0 1 12 3.4v-2ZM9.8 9a.8.8 0 0 1-.8.8v2A2.8 2.8 0 0 0 11.8 9h-2Zm-.8.8a.8.8 0 0 1-.8-.8h-2A2.8 2.8 0 0 0 9 11.8v-2ZM8.2 9a.8.8 0 0 1 .8-.8v-2A2.8 2.8 0 0 0 6.2 9h2Zm.8-.8a.8.8 0 0 1 .8.8h2A2.8 2.8 0 0 0 9 6.2v2Z" />
</svg>