<svg xmlns="http://www.w3.org/2000/svg"
     fill="currentColor"
     viewBox="0 0 24 24">
    <path fill="#000"
          d="M5.293 16.429a1 1 0 1 0 1.414-1.415L5.293 16.43ZM2.4 12.122l-.707-.708a1 1 0 0 0 0 1.415l.707-.708Zm4.307-2.893a1 1 0 1 0-1.414-1.415L6.707 9.23Zm12-1.415a1 1 0 0 0-1.414 1.415l1.414-1.415Zm2.893 4.307.707.708a1 1 0 0 0 0-1.415l-.707.707Zm-4.307 2.893a1 1 0 0 0 1.414 1.415l-1.414-1.415ZM9.318 18.3a1 1 0 0 0 1.932.515L9.318 18.3ZM12 12.121l-.966-.26v.002l.966.258Zm2.764-6.418a1 1 0 1 0-1.932-.52l1.931.52Zm-8.057 9.311-3.6-3.6-1.414 1.415 3.6 3.6 1.414-1.415Zm-3.6-2.185 3.6-3.6-1.414-1.415-3.6 3.6 1.414 1.415Zm14.186-3.6 3.6 3.6 1.414-1.415-3.6-3.6-1.414 1.415Zm3.6 2.185-3.6 3.6 1.414 1.415 3.6-3.6-1.414-1.415Zm-9.643 7.4 1.716-6.435-1.933-.516L9.318 18.3l1.932.515Zm1.715-6.433 1.799-6.678-1.932-.52-1.798 6.678 1.931.52Z" />
</svg>