<svg xmlns="http://www.w3.org/2000/svg"
     fill="currentColor"
     viewBox="0 0 24 24">
    <path fill="#000"
          d="m8.467 12.882-.647-.763.647.763Zm.053-.05-.713-.702.713.702ZM6.298 14.72l-.646-.763.646.763Zm-.119.125.821.571-.82-.57Zm11.514-1.886-.693.722.693-.722Zm-1.852-1.777-.692.721.692-.72Zm-.687-.005-.682-.73-.003.002.685.728ZM11.725 14.4l.683.73.002-.002-.685-.728Zm-.698-.016-.716.699.002.001.714-.7Zm-.009-.009-.716.698.716-.698Zm-.049-.047.655-.756-.655.756ZM9.3 12.88l.655-.756-.655.756Zm-.05-.048.718-.697h-.001l-.716.697Zm-.008-.009.716-.698-.001-.001-.715.7Zm-.712-.002-.71-.703-.002.001.712.702ZM16.32 6.6v-1a1 1 0 0 0-1 1h1Zm.344 0h1a1 1 0 0 0-1-1v1Zm0 .29v1a1 1 0 0 0 1-1h-1Zm-.343 0h-1a1 1 0 0 0 1 1v-1ZM1.4 6v12h2V6h-2ZM6 22.6h12v-2H6v2ZM22.6 18V6h-2v12h2ZM18 1.4H6v2h12v-2ZM22.6 6A4.6 4.6 0 0 0 18 1.4v2A2.6 2.6 0 0 1 20.6 6h2ZM18 22.6a4.6 4.6 0 0 0 4.6-4.6h-2a2.6 2.6 0 0 1-2.6 2.6v2ZM1.4 18A4.6 4.6 0 0 0 6 22.6v-2A2.6 2.6 0 0 1 3.4 18h-2Zm2-12A2.6 2.6 0 0 1 6 3.4v-2A4.6 4.6 0 0 0 1.4 6h2Zm5.713 7.645c.06-.05.108-.1.12-.112L7.806 12.13l-.008.009c-.002.002-.002.002-.001 0l.023-.02 1.293 1.525Zm-2.169 1.838 2.17-1.838L7.82 12.12l-2.168 1.838 1.292 1.526ZM7 15.416a.475.475 0 0 1-.048.06l-.008.007-1.292-1.526a1.657 1.657 0 0 0-.294.317L7 15.416Zm0 0-1.642-1.142A2 2 0 0 0 5 15.416h2ZM7 17.5v-2.084H5V17.5h2Zm-.5-.5a.5.5 0 0 1 .5.5H5A1.5 1.5 0 0 0 6.5 19v-2Zm11 0h-11v2h11v-2Zm-.5.5a.5.5 0 0 1 .5-.5v2a1.5 1.5 0 0 0 1.5-1.5h-2Zm0-3.82v3.82h2v-3.82h-2Zm0 0h2a2 2 0 0 0-.615-1.442L17 13.68Zm-1.851-1.777L17 13.68l1.385-1.442-1.851-1.777-1.385 1.442Zm.687.005a.5.5 0 0 1-.687-.005l1.385-1.442a1.5 1.5 0 0 0-2.062-.015l1.364 1.462Zm-3.426 3.22 3.429-3.222-1.37-1.458-3.429 3.223 1.37 1.457Zm-2.097-.044a1.5 1.5 0 0 0 2.095.047l-1.365-1.462a.5.5 0 0 1 .699.016l-1.43 1.4Zm-.01-.01.008.009 1.432-1.397-.009-.009-1.432 1.396Zm.012.01a.408.408 0 0 1-.022-.02c-.001-.001-.001-.001 0 0l.009.009 1.433-1.395a1.436 1.436 0 0 0-.111-.106l-1.31 1.512Zm-1.67-1.447 1.67 1.447 1.309-1.512-1.67-1.447-1.31 1.512Zm-.112-.107c.01.011.056.06.111.107l1.31-1.512.022.02h-.001l-.008-.01-1.434 1.395Zm-.008-.008.009.009 1.432-1.396-.009-.009-1.432 1.396Zm.715.003a.5.5 0 0 1-.714-.002l1.43-1.398a1.5 1.5 0 0 0-2.138-.006l1.422 1.406Zm-.008.008.01-.01-1.425-1.403-.01.01 1.425 1.403ZM16.32 7.6h.343v-2h-.343v2Zm-.657-1v.29h2V6.6h-2Zm1-.71h-.343v2h.343v-2Zm.657 1V6.6h-2v.29h2Z" />
</svg>