<svg xmlns="http://www.w3.org/2000/svg"
     fill="currentColor"
     viewBox="0 0 24 24">
    <path fill="#000"
          d="M7.447 20.19a1 1 0 1 0 .632 1.897l-.632-1.897Zm6.547 1.364-.09-.996.09.996Zm3.738-.83.439.898-.439-.899Zm3.573-3.25-.777-.63.777.63ZM18.86 15.44l.707.708-.707-.708Zm-1.645 1.646.707.707-.707-.707Zm-4.468-.27a1 1 0 1 0 0 2v-2Zm8.177-1.58-.555.832.555-.832Zm-11.897-.545.447.894-.447-.894Zm4.471-.409.263-.965-.263.965Zm1.746.476-.263.965.263-.965Zm.554 2.084-.707-.707.707.707Zm-1.681.267a1 1 0 0 0 1.414 1.414l-1.414-1.415Zm-6.039 4.978c.117-.039.368-.067.82-.035.432.031.936.107 1.513.197 1.096.173 2.483.41 3.673.3l-.182-1.99c-.887.08-1.992-.099-3.18-.285a20.797 20.797 0 0 0-1.681-.216c-.51-.037-1.089-.037-1.595.132l.632 1.897Zm6.006.463c.764-.07 1.416-.103 2.017-.212.65-.117 1.262-.322 2.069-.716l-.877-1.797c-.68.331-1.114.467-1.549.545-.485.088-.958.108-1.842.188l.182 1.992Zm4.086-.928c.783-.382 1.539-.999 2.188-1.622a21.017 21.017 0 0 0 1.723-1.897l-1.555-1.259a19.023 19.023 0 0 1-1.554 1.713c-.588.566-1.168 1.018-1.68 1.268l.878 1.797Zm-.017-6.889-1.645 1.645 1.414 1.415 1.646-1.645-1.415-1.415Zm-2.7 2.083h-2.706v2h2.706v-2Zm1.055-.438c-.28.28-.66.438-1.055.438v2c.926 0 1.814-.368 2.47-1.023l-1.415-1.415Zm4.97-1.974a2.635 2.635 0 0 0-3.325.33l1.415 1.414a.635.635 0 0 1 .801-.08l1.11-1.664Zm.603 3.7c.972-1.202.606-2.894-.603-3.7l-1.109 1.664c.307.205.331.562.157.776l1.555 1.26ZM3.194 14.661h3.323v-2H3.194v2Zm3.154-.17v7.477h2v-7.477h-2Zm.169 7.308H3.194v2h3.323v-2Zm-3.154.17v-7.477h-2v7.476h2Zm-.17-.17a.17.17 0 0 1 .17.17h-2c0 1.01.82 1.83 1.83 1.83v-2Zm3.155.17a.17.17 0 0 1 .169-.17v2a1.83 1.83 0 0 0 1.83-1.83h-2Zm.169-7.308a.17.17 0 0 1-.17-.17h2a1.83 1.83 0 0 0-1.83-1.83v2Zm-3.323-2a1.83 1.83 0 0 0-1.83 1.83h2a.17.17 0 0 1-.17.17v-2Zm5.016 3.556 1.265-.633-.895-1.788-1.264.632.894 1.789Zm3.418-1.14h.341v-2h-.34v2Zm1.608.169 1.746.476.526-1.93-1.746-.476-.526 1.93Zm1.855.888-.973.973 1.414 1.415.974-.974-1.415-1.414Zm-.109-.412c.183.05.243.278.11.412l1.414 1.414c1.22-1.22.666-3.302-.998-3.755l-.526 1.929Zm-3.013-.646a4.8 4.8 0 0 1 1.267.17l.526-1.93a6.814 6.814 0 0 0-1.793-.24v2Zm-2.494.508a4.815 4.815 0 0 1 2.153-.508v-2a6.816 6.816 0 0 0-3.048.72l.895 1.788Zm7.673-7.739a2.323 2.323 0 0 1-2.323 2.323v2a4.323 4.323 0 0 0 4.323-4.323h-2Zm-2.323 2.323a2.323 2.323 0 0 1-2.323-2.323h-2a4.323 4.323 0 0 0 4.323 4.323v-2Zm-2.323-2.323a2.323 2.323 0 0 1 2.323-2.323v-2a4.323 4.323 0 0 0-4.323 4.323h2Zm2.323-2.323a2.323 2.323 0 0 1 2.323 2.323h2a4.323 4.323 0 0 0-4.323-4.323v2Zm-3.323 1.323a2.323 2.323 0 0 1-2.323-2.323h-2a4.323 4.323 0 0 0 4.323 4.323v-2ZM9.179 4.523A2.323 2.323 0 0 1 11.502 2.2v-2a4.323 4.323 0 0 0-4.323 4.323h2ZM11.502 2.2a2.323 2.323 0 0 1 2.323 2.323h2A4.323 4.323 0 0 0 11.502.2v2Z" />
</svg>