<svg xmlns="http://www.w3.org/2000/svg"
     fill="currentColor"
     viewBox="0 0 24 24">
    <path fill="#000"
          d="M13 7.2a1 1 0 1 0-2 0h2Zm-2 9.6a1 1 0 1 0 2 0h-2Zm5.8-3.8a1 1 0 1 0 0-2v2Zm-9.6-2a1 1 0 1 0 0 2v-2Zm13.4 1a8.6 8.6 0 0 1-8.6 8.6v2c5.854 0 10.6-4.746 10.6-10.6h-2ZM12 20.6A8.6 8.6 0 0 1 3.4 12h-2c0 5.854 4.746 10.6 10.6 10.6v-2ZM3.4 12A8.6 8.6 0 0 1 12 3.4v-2C6.146 1.4 1.4 6.146 1.4 12h2ZM12 3.4a8.6 8.6 0 0 1 8.6 8.6h2c0-5.854-4.746-10.6-10.6-10.6v2Zm-1 3.8V12h2V7.2h-2Zm0 4.8v4.8h2V12h-2Zm5.8-1H12v2h4.8v-2ZM12 11H7.2v2H12v-2Z" />
</svg>