<svg xmlns="http://www.w3.org/2000/svg"
     fill="currentColor"
     viewBox="0 0 24 24">
    <path stroke="currentColor"
          stroke-width="2"
          d="M11.333 2.276a.943.943 0 0 1 1.334 0l2.691 2.691a.943.943 0 0 1 0 1.334l-2.69 2.691a.943.943 0 0 1-1.335 0l-2.691-2.69a.943.943 0 0 1 0-1.335l2.69-2.69Zm6.365 6.366a.943.943 0 0 1 1.335 0l2.69 2.69a.943.943 0 0 1 0 1.335l-2.69 2.691a.943.943 0 0 1-1.335 0l-2.69-2.69a.943.943 0 0 1 0-1.335l2.69-2.691Zm-12.731 0a.943.943 0 0 1 1.334 0l2.691 2.69a.943.943 0 0 1 0 1.335l-2.69 2.691a.943.943 0 0 1-1.335 0l-2.69-2.69a.943.943 0 0 1 0-1.335l2.69-2.691Zm6.366 6.366a.943.943 0 0 1 1.334 0l2.691 2.69a.943.943 0 0 1 0 1.335l-2.69 2.69a.943.943 0 0 1-1.335 0l-2.691-2.69a.943.943 0 0 1 0-1.335l2.69-2.69Z" />
</svg>