<svg width="16" height="16" viewBox="0 0 16 16" fill="none" xmlns="http://www.w3.org/2000/svg">
<path d="M9.79048 7.67422L4.25598 6.69922V13.9037C4.25592 13.982 4.27131 14.0596 4.30127 14.1319C4.33124 14.2043 4.37519 14.27 4.43061 14.3253C4.48602 14.3806 4.55181 14.4245 4.62421 14.4543C4.6966 14.4842 4.77418 14.4994 4.85248 14.4992H14.4025C14.4809 14.4995 14.5586 14.4844 14.6311 14.4546C14.7036 14.4248 14.7695 14.381 14.825 14.3257C14.8805 14.2703 14.9246 14.2046 14.9546 14.1321C14.9846 14.0597 15 13.9821 15 13.9037V11.2492L9.79048 7.67422Z" fill="#185C37"/>
<path d="M9.79048 1.5H4.85248C4.77418 1.4998 4.6966 1.51507 4.62421 1.54491C4.55181 1.57475 4.48602 1.6186 4.43061 1.67392C4.37519 1.72924 4.33124 1.79496 4.30127 1.8673C4.27131 1.93965 4.25592 2.0172 4.25598 2.0955V4.75L9.79048 8L12.721 8.975L15 8V4.75L9.79048 1.5Z" fill="#21A366"/>
<path d="M4.25598 4.75H9.79048V8H4.25598V4.75Z" fill="#107C41"/>
<path opacity="0.1" d="M8.21698 4.09961H4.25598V12.2246H8.21698C8.37481 12.2238 8.52598 12.1609 8.63773 12.0494C8.74947 11.9379 8.8128 11.7869 8.81398 11.6291V4.69511C8.8128 4.53728 8.74947 4.38627 8.63773 4.2748C8.52598 4.16334 8.37481 4.10039 8.21698 4.09961Z" fill="black"/>
<path opacity="0.2" d="M7.89148 4.42578H4.25598V12.5508H7.89148C8.04931 12.55 8.20048 12.4871 8.31223 12.3756C8.42397 12.2641 8.4873 12.1131 8.48848 11.9553V5.02128C8.4873 4.86345 8.42397 4.71244 8.31223 4.60098C8.20048 4.48951 8.04931 4.42657 7.89148 4.42578Z" fill="black"/>
<path opacity="0.2" d="M7.89148 4.42578H4.25598V11.9008H7.89148C8.04931 11.9 8.20048 11.8371 8.31223 11.7256C8.42397 11.6141 8.4873 11.4631 8.48848 11.3053V5.02128C8.4873 4.86345 8.42397 4.71244 8.31223 4.60098C8.20048 4.48951 8.04931 4.42657 7.89148 4.42578Z" fill="black"/>
<path opacity="0.2" d="M7.56598 4.42578H4.25598V11.9008H7.56598C7.72381 11.9 7.87498 11.8371 7.98673 11.7256C8.09847 11.6141 8.1618 11.4631 8.16298 11.3053V5.02128C8.1618 4.86345 8.09847 4.71244 7.98673 4.60098C7.87498 4.48951 7.72381 4.42657 7.56598 4.42578Z" fill="black"/>
<path d="M1.597 4.42578H7.566C7.72411 4.42565 7.87581 4.4883 7.98776 4.59996C8.0997 4.71163 8.16273 4.86317 8.163 5.02128V10.9803C8.16273 11.1384 8.0997 11.2899 7.98776 11.4016C7.87581 11.5133 7.72411 11.5759 7.566 11.5758H1.597C1.51865 11.576 1.44103 11.5608 1.36857 11.531C1.29612 11.5012 1.23027 11.4574 1.1748 11.402C1.11933 11.3467 1.07534 11.281 1.04534 11.2086C1.01534 11.1362 0.999934 11.0586 1 10.9803V5.02128C0.999934 4.94294 1.01534 4.86535 1.04534 4.79297C1.07534 4.72059 1.11933 4.65485 1.1748 4.59952C1.23027 4.54419 1.29612 4.50036 1.36857 4.47055C1.44103 4.44073 1.51865 4.42552 1.597 4.42578Z" fill="url(#paint0_linear_13535_53291)"/>
<path d="M2.84998 9.93745L4.10548 7.99545L2.95548 6.06445H3.87898L4.50648 7.30095C4.56448 7.41795 4.60648 7.50495 4.62548 7.56295H4.63398C4.67498 7.46929 4.71831 7.37829 4.76398 7.28995L5.43498 6.06645H6.28498L5.10548 7.98645L6.31498 9.93895H5.41048L4.68548 8.58345C4.65191 8.52513 4.62331 8.46408 4.59998 8.40095H4.58798C4.56679 8.46248 4.5386 8.52136 4.50398 8.57645L3.75748 9.93745H2.84998Z" fill="white"/>
<path d="M14.403 1.5H9.79053V4.75H15V2.0955C15.0001 2.01716 14.9847 1.93957 14.9547 1.86719C14.9247 1.79481 14.8807 1.72907 14.8252 1.67374C14.7698 1.61841 14.7039 1.57458 14.6315 1.54477C14.559 1.51495 14.4814 1.49974 14.403 1.5Z" fill="#33C481"/>
<path d="M9.79053 8H15V11.25H9.79053V8Z" fill="#107C41"/>
<defs>
<linearGradient id="paint0_linear_13535_53291" x1="2.247" y1="3.95778" x2="6.916" y2="12.0438" gradientUnits="userSpaceOnUse">
<stop stop-color="#18884F"/>
<stop offset="0.5" stop-color="#117E43"/>
<stop offset="1" stop-color="#0B6631"/>
</linearGradient>
</defs>
</svg>
