<svg width="221" height="228" viewBox="0 0 221 228" fill="none" xmlns="http://www.w3.org/2000/svg">
<path d="M23.663 100.03C23.663 100.03 62.4339 98.4774 70.8124 34.7463C78.2527 -21.853 143.631 3.90892 162.529 26.4708C187.01 55.6977 173.96 105.974 205.629 112.326C237.298 118.677 216.618 189.293 168.546 182.534C108.746 174.126 123.214 209.07 105.262 223.86C92.3785 234.475 39.5513 224.257 37.7907 185.723C36.3091 153.298 22.6314 153.401 12.9365 149.724C-1.04572 144.421 -9.85605 106.018 23.663 100.03Z" fill="#DEE9FF"/>
<path d="M155.462 170.807L117.371 133.168L109.828 140.801L147.92 178.44L155.462 170.807Z" fill="#699CFF"/>
<path d="M170.013 180.922L140.378 151.639C140.213 151.476 139.947 151.478 139.784 151.643L128.567 162.994C128.404 163.159 128.406 163.425 128.571 163.588L158.206 192.871C158.371 193.034 158.637 193.033 158.8 192.868L170.017 181.516C170.18 181.351 170.178 181.085 170.013 180.922Z" fill="#0E84E5"/>
<path d="M83.6106 152.098C109.816 152.098 131.06 130.854 131.06 104.649C131.06 78.4431 109.816 57.1992 83.6106 57.1992C57.405 57.1992 36.1611 78.4431 36.1611 104.649C36.1611 130.854 57.405 152.098 83.6106 152.098Z" fill="#0E84E5"/>
<path d="M83.6105 144.356C105.54 144.356 123.318 126.578 123.318 104.649C123.318 82.7189 105.54 64.9414 83.6105 64.9414C61.6808 64.9414 43.9033 82.7189 43.9033 104.649C43.9033 126.578 61.6808 144.356 83.6105 144.356Z" fill="#D4E5FF"/>
<path d="M163.829 61.7521C152.699 58.1444 140.671 64.2461 137.049 75.4218C133.441 86.5518 139.543 98.5799 150.719 102.202C161.895 105.824 173.891 99.663 177.5 88.5324C181.108 77.4019 174.96 65.3596 163.829 61.7521ZM160.471 72.1135C161.717 72.5173 162.815 73.2821 163.625 74.3107C164.436 75.3393 164.923 76.5855 165.024 77.8912C165.125 79.1969 164.837 80.5033 164.194 81.6447C163.552 82.786 162.585 83.711 161.417 84.3021C160.248 84.8933 158.93 85.1241 157.63 84.9652C156.33 84.8064 155.107 84.265 154.115 83.4098C153.123 82.5546 152.408 81.4241 152.059 80.1617C151.711 78.8993 151.745 77.5618 152.158 76.319C153.273 72.8803 157.032 70.999 160.471 72.1135ZM152.068 98.0395C148.37 96.8471 145.202 94.4062 143.106 91.1349C147.028 88.9062 151.129 88.2855 154.84 89.4881C158.55 90.6907 161.567 93.5684 163.376 97.7048C159.76 99.1247 155.762 99.243 152.068 98.0395Z" fill="#418DF9"/>
<path d="M71.1911 163.176C69.2578 164.163 67.6606 165.701 66.6014 167.595C65.5423 169.49 65.0687 171.656 65.2405 173.82C65.4124 175.983 66.222 178.048 67.567 179.751C68.912 181.455 70.7319 182.721 72.7967 183.39C74.8615 184.06 77.0783 184.102 79.1669 183.511C81.2555 182.92 83.1221 181.723 84.5305 180.072C85.9389 178.42 86.826 176.388 87.0795 174.233C87.3331 172.077 86.9417 169.895 85.9549 167.961C84.6293 165.371 82.3304 163.413 79.5625 162.516C76.7947 161.619 73.784 161.856 71.1911 163.176ZM73.7472 168.184C74.3493 167.876 75.0291 167.755 75.7005 167.834C76.3718 167.914 77.0044 168.191 77.518 168.631C78.0316 169.07 78.403 169.652 78.5852 170.303C78.7674 170.954 78.7522 171.645 78.5414 172.287C78.3306 172.93 77.9337 173.495 77.4012 173.911C76.8687 174.328 76.2245 174.577 75.5503 174.627C74.8761 174.676 74.2023 174.525 73.6143 174.191C73.0264 173.857 72.5508 173.357 72.2479 172.752C71.8465 171.947 71.7787 171.015 72.0594 170.16C72.34 169.305 72.9465 168.594 73.7472 168.183V168.184ZM80.1428 180.714C78.358 181.628 76.3107 181.894 74.3517 181.465C74.9698 179.22 76.2402 177.496 78.0337 176.581C79.8272 175.665 81.9783 175.615 84.1485 176.464C83.3465 178.302 81.9305 179.804 80.1428 180.713V180.714Z" fill="#418DF9"/>
</svg>
