<svg width="150" height="150" viewBox="0 0 150 150" fill="none" xmlns="http://www.w3.org/2000/svg">
<path d="M18.75 28.125C18.75 25.6386 19.7377 23.254 21.4959 21.4959C23.254 19.7377 25.6386 18.75 28.125 18.75H46.875V25H28.125C27.2962 25 26.5013 25.3292 25.9153 25.9153C25.3292 26.5013 25 27.2962 25 28.125V46.875H18.75V28.125ZM40.625 46.875C40.625 46.0462 40.9542 45.2513 41.5403 44.6653C42.1263 44.0792 42.9212 43.75 43.75 43.75H56.25C57.0788 43.75 57.8737 44.0792 58.4597 44.6653C59.0458 45.2513 59.375 46.0462 59.375 46.875V59.375C59.375 60.2038 59.0458 60.9987 58.4597 61.5847C57.8737 62.1708 57.0788 62.5 56.25 62.5H43.75C42.9212 62.5 42.1263 62.1708 41.5403 61.5847C40.9542 60.9987 40.625 60.2038 40.625 59.375V46.875ZM43.75 87.5C42.9212 87.5 42.1263 87.8292 41.5403 88.4153C40.9542 89.0013 40.625 89.7962 40.625 90.625V103.125C40.625 103.954 40.9542 104.749 41.5403 105.335C42.1263 105.921 42.9212 106.25 43.75 106.25H56.25C57.0788 106.25 57.8737 105.921 58.4597 105.335C59.0458 104.749 59.375 103.954 59.375 103.125V90.625C59.375 89.7962 59.0458 89.0013 58.4597 88.4153C57.8737 87.8292 57.0788 87.5 56.25 87.5H43.75ZM43.75 81.25C42.9212 81.25 42.1263 80.9208 41.5403 80.3347C40.9542 79.7487 40.625 78.9538 40.625 78.125C40.625 77.2962 40.9542 76.5013 41.5403 75.9153C42.1263 75.3292 42.9212 75 43.75 75C44.5788 75 45.3737 75.3292 45.9597 75.9153C46.5458 76.5013 46.875 77.2962 46.875 78.125C46.875 78.9538 46.5458 79.7487 45.9597 80.3347C45.3737 80.9208 44.5788 81.25 43.75 81.25Z" fill="white"/>
<path d="M46.875 71.875C46.875 72.7038 46.5458 73.4987 45.9597 74.0847C45.3737 74.6708 44.5788 75 43.75 75C42.9212 75 42.1263 74.6708 41.5403 74.0847C40.9542 73.4987 40.625 72.7038 40.625 71.875C40.625 71.0462 40.9542 70.2513 41.5403 69.6653C42.1263 69.0792 42.9212 68.75 43.75 68.75C44.5788 68.75 45.3737 69.0792 45.9597 69.6653C46.5458 70.2513 46.875 71.0462 46.875 71.875ZM46.875 71.875C46.875 71.0462 47.2042 70.2513 47.7903 69.6653C48.3763 69.0792 49.1712 68.75 50 68.75C50.8288 68.75 51.6237 69.0792 52.2097 69.6653C52.7958 70.2513 53.125 71.0462 53.125 71.875C53.125 72.7038 52.7958 73.4987 52.2097 74.0847C51.6237 74.6708 50.8288 75 50 75C49.1712 75 48.3763 74.6708 47.7903 74.0847C47.2042 73.4987 46.875 72.7038 46.875 71.875ZM56.25 81.25C55.4212 81.25 54.6263 80.9208 54.0403 80.3347C53.4542 79.7487 53.125 78.9538 53.125 78.125C53.125 77.2962 53.4542 76.5013 54.0403 75.9153C54.6263 75.3292 55.4212 75 56.25 75C57.0788 75 57.8737 75.3292 58.4597 75.9153C59.0458 76.5013 59.375 77.2962 59.375 78.125C59.375 78.9538 59.0458 79.7487 58.4597 80.3347C57.8737 80.9208 57.0788 81.25 56.25 81.25Z" fill="white"/>
<path d="M62.5 75C63.3288 75 64.1237 75.3292 64.7097 75.9153C65.2958 76.5013 65.625 77.2962 65.625 78.125C65.625 78.9538 65.2958 79.7487 64.7097 80.3347C64.1237 80.9208 63.3288 81.25 62.5 81.25C61.6712 81.25 60.8763 80.9208 60.2903 80.3347C59.7042 79.7487 59.375 78.9538 59.375 78.125C59.375 77.2962 59.7042 76.5013 60.2903 75.9153C60.8763 75.3292 61.6712 75 62.5 75ZM62.5 75C61.6712 75 60.8763 74.6708 60.2903 74.0847C59.7042 73.4987 59.375 72.7038 59.375 71.875C59.375 71.0462 59.7042 70.2513 60.2903 69.6653C60.8763 69.0792 61.6712 68.75 62.5 68.75C63.3288 68.75 64.1237 69.0792 64.7097 69.6653C65.2958 70.2513 65.625 71.0462 65.625 71.875C65.625 72.7038 65.2958 73.4987 64.7097 74.0847C64.1237 74.6708 63.3288 75 62.5 75ZM75 81.25C74.1712 81.25 73.3763 80.9208 72.7903 80.3347C72.2042 79.7487 71.875 78.9538 71.875 78.125C71.875 77.2962 72.2042 76.5013 72.7903 75.9153C73.3763 75.3292 74.1712 75 75 75C75.8288 75 76.6237 75.3292 77.2097 75.9153C77.7958 76.5013 78.125 77.2962 78.125 78.125C78.125 78.9538 77.7958 79.7487 77.2097 80.3347C76.6237 80.9208 75.8288 81.25 75 81.25Z" fill="white"/>
<path d="M78.125 84.375C78.125 83.5462 77.7958 82.7513 77.2097 82.1653C76.6237 81.5792 75.8288 81.25 75 81.25C74.1712 81.25 73.3763 81.5792 72.7903 82.1653C72.2042 82.7513 71.875 83.5462 71.875 84.375C71.875 83.7569 71.6917 83.1527 71.3483 82.6388C71.005 82.1249 70.5169 81.7244 69.9459 81.4879C69.3749 81.2514 68.7465 81.1895 68.1403 81.31C67.5342 81.4306 66.9773 81.7282 66.5403 82.1653C66.1033 82.6023 65.8056 83.1591 65.685 83.7653C65.5645 84.3715 65.6264 84.9999 65.8629 85.5709C66.0994 86.1419 66.4999 86.63 67.0138 86.9733C67.5277 87.3167 68.1319 87.5 68.75 87.5C67.9212 87.5 67.1263 87.8292 66.5403 88.4153C65.9542 89.0013 65.625 89.7962 65.625 90.625C65.625 91.4538 65.9542 92.2487 66.5403 92.8347C67.1263 93.4208 67.9212 93.75 68.75 93.75C69.5788 93.75 70.3737 93.4208 70.9597 92.8347C71.5458 92.2487 71.875 91.4538 71.875 90.625C71.875 89.7962 71.5458 89.0013 70.9597 88.4153C70.3737 87.8292 69.5788 87.5 68.75 87.5C69.5788 87.5 70.3737 87.1708 70.9597 86.5847C71.5458 85.9987 71.875 85.2038 71.875 84.375C71.875 85.2038 72.2042 85.9987 72.7903 86.5847C73.3763 87.1708 74.1712 87.5 75 87.5C75.8288 87.5 76.6237 87.1708 77.2097 86.5847C77.7958 85.9987 78.125 85.2038 78.125 84.375ZM78.125 84.375C78.125 83.5462 78.4542 82.7513 79.0403 82.1653C79.6263 81.5792 80.4212 81.25 81.25 81.25C82.0788 81.25 82.8737 81.5792 83.4597 82.1653C84.0458 82.7513 84.375 83.5462 84.375 84.375C84.375 85.2038 84.0458 85.9987 83.4597 86.5847C82.8737 87.1708 82.0788 87.5 81.25 87.5C80.4212 87.5 79.6263 87.1708 79.0403 86.5847C78.4542 85.9987 78.125 85.2038 78.125 84.375ZM78.125 71.875C78.125 72.7038 77.7958 73.4987 77.2097 74.0847C76.6237 74.6708 75.8288 75 75 75C74.1712 75 73.3763 74.6708 72.7903 74.0847C72.2042 73.4987 71.875 72.7038 71.875 71.875C71.875 71.0462 72.2042 70.2513 72.7903 69.6653C73.3763 69.0792 74.1712 68.75 75 68.75C75.8288 68.75 76.6237 69.0792 77.2097 69.6653C77.7958 70.2513 78.125 71.0462 78.125 71.875ZM78.125 71.875C78.125 71.0462 78.4542 70.2513 79.0403 69.6653C79.6263 69.0792 80.4212 68.75 81.25 68.75C82.0788 68.75 82.8737 69.0792 83.4597 69.6653C84.0458 70.2513 84.375 71.0462 84.375 71.875C84.375 72.7038 84.0458 73.4987 83.4597 74.0847C82.8737 74.6708 82.0788 75 81.25 75C80.4212 75 79.6263 74.6708 79.0403 74.0847C78.4542 73.4987 78.125 72.7038 78.125 71.875Z" fill="white"/>
<path d="M75 62.5C75.8288 62.5 76.6237 62.8292 77.2097 63.4153C77.7958 64.0013 78.125 64.7962 78.125 65.625C78.125 66.4538 77.7958 67.2487 77.2097 67.8347C76.6237 68.4208 75.8288 68.75 75 68.75C74.1712 68.75 73.3763 68.4208 72.7903 67.8347C72.2042 67.2487 71.875 66.4538 71.875 65.625C71.875 64.7962 72.2042 64.0013 72.7903 63.4153C73.3763 62.8292 74.1712 62.5 75 62.5ZM75 56.25C75.6181 56.25 76.2223 56.0667 76.7362 55.7233C77.2501 55.38 77.6506 54.8919 77.8871 54.3209C78.1236 53.7499 78.1855 53.1215 78.065 52.5153C77.9444 51.9091 77.6468 51.3523 77.2097 50.9153C76.7727 50.4783 76.2159 50.1806 75.6097 50.06C75.0035 49.9395 74.3751 50.0014 73.8041 50.2379C73.2331 50.4744 72.745 50.8749 72.4017 51.3888C72.0583 51.9027 71.875 52.5069 71.875 53.125C71.875 52.2962 71.5458 51.5013 70.9597 50.9153C70.3737 50.3292 69.5788 50 68.75 50C69.5788 50 70.3737 49.6708 70.9597 49.0847C71.5458 48.4987 71.875 47.7038 71.875 46.875C71.875 46.0462 71.5458 45.2513 70.9597 44.6653C70.3737 44.0792 69.5788 43.75 68.75 43.75C67.9212 43.75 67.1263 44.0792 66.5403 44.6653C65.9542 45.2513 65.625 46.0462 65.625 46.875C65.625 47.7038 65.9542 48.4987 66.5403 49.0847C67.1263 49.6708 67.9212 50 68.75 50C68.1319 50 67.5277 50.1833 67.0138 50.5267C66.4999 50.87 66.0994 51.3581 65.8629 51.9291C65.6264 52.5001 65.5645 53.1285 65.685 53.7347C65.8056 54.3409 66.1033 54.8977 66.5403 55.3347C66.9773 55.7718 67.5342 56.0694 68.1403 56.19C68.7465 56.3105 69.3749 56.2486 69.9459 56.0121C70.5169 55.7756 71.005 55.3751 71.3483 54.8612C71.6917 54.3473 71.875 53.7431 71.875 53.125C71.875 53.9538 72.2042 54.7487 72.7903 55.3347C73.3763 55.9208 74.1712 56.25 75 56.25Z" fill="white"/>
<path d="M75 56.25C75.8288 56.25 76.6237 56.5792 77.2097 57.1653C77.7958 57.7513 78.125 58.5462 78.125 59.375C78.125 60.2038 77.7958 60.9987 77.2097 61.5847C76.6237 62.1708 75.8288 62.5 75 62.5C74.1712 62.5 73.3763 62.1708 72.7903 61.5847C72.2042 60.9987 71.875 60.2038 71.875 59.375C71.875 58.5462 72.2042 57.7513 72.7903 57.1653C73.3763 56.5792 74.1712 56.25 75 56.25ZM71.875 65.625C71.875 66.4538 71.5458 67.2487 70.9597 67.8347C70.3737 68.4208 69.5788 68.75 68.75 68.75C67.9212 68.75 67.1263 68.4208 66.5403 67.8347C65.9542 67.2487 65.625 66.4538 65.625 65.625C65.625 64.7962 65.9542 64.0013 66.5403 63.4153C67.1263 62.8292 67.9212 62.5 68.75 62.5C69.5788 62.5 70.3737 62.8292 70.9597 63.4153C71.5458 64.0013 71.875 64.7962 71.875 65.625ZM75 100C74.1712 100 73.3763 99.6708 72.7903 99.0847C72.2042 98.4987 71.875 97.7038 71.875 96.875C71.875 96.0462 72.2042 95.2513 72.7903 94.6653C73.3763 94.0792 74.1712 93.75 75 93.75C75.8288 93.75 76.6237 94.0792 77.2097 94.6653C77.7958 95.2513 78.125 96.0462 78.125 96.875C78.125 97.7038 77.7958 98.4987 77.2097 99.0847C76.6237 99.6708 75.8288 100 75 100Z" fill="white"/>
<path d="M71.875 103.125C71.875 102.296 72.2042 101.501 72.7903 100.915C73.3763 100.329 74.1712 100 75 100C75.8288 100 76.6237 100.329 77.2097 100.915C77.7958 101.501 78.125 102.296 78.125 103.125C78.125 103.954 77.7958 104.749 77.2097 105.335C76.6237 105.921 75.8288 106.25 75 106.25C74.1712 106.25 73.3763 105.921 72.7903 105.335C72.2042 104.749 71.875 103.954 71.875 103.125ZM71.875 103.125C71.875 103.954 71.5458 104.749 70.9597 105.335C70.3737 105.921 69.5788 106.25 68.75 106.25C67.9212 106.25 67.1263 105.921 66.5403 105.335C65.9542 104.749 65.625 103.954 65.625 103.125C65.625 102.296 65.9542 101.501 66.5403 100.915C67.1263 100.329 67.9212 100 68.75 100C69.5788 100 70.3737 100.329 70.9597 100.915C71.5458 101.501 71.875 102.296 71.875 103.125ZM78.125 96.875C78.125 96.0462 78.4542 95.2513 79.0403 94.6653C79.6263 94.0792 80.4212 93.75 81.25 93.75C82.0788 93.75 82.8737 94.0792 83.4597 94.6653C84.0458 95.2513 84.375 96.0462 84.375 96.875C84.375 97.7038 84.0458 98.4987 83.4597 99.0847C82.8737 99.6708 82.0788 100 81.25 100C80.4212 100 79.6263 99.6708 79.0403 99.0847C78.4542 98.4987 78.125 97.7038 78.125 96.875ZM84.375 78.125C84.375 78.9538 84.7042 79.7487 85.2903 80.3347C85.8763 80.9208 86.6712 81.25 87.5 81.25C88.3288 81.25 89.1237 80.9208 89.7097 80.3347C90.2958 79.7487 90.625 78.9538 90.625 78.125C90.625 77.2962 90.2958 76.5013 89.7097 75.9153C89.1237 75.3292 88.3288 75 87.5 75C86.6712 75 85.8763 75.3292 85.2903 75.9153C84.7042 76.5013 84.375 77.2962 84.375 78.125ZM93.75 75C92.9212 75 92.1263 74.6708 91.5403 74.0847C90.9542 73.4987 90.625 72.7038 90.625 71.875C90.625 71.0462 90.9542 70.2513 91.5403 69.6653C92.1263 69.0792 92.9212 68.75 93.75 68.75C94.5788 68.75 95.3737 69.0792 95.9597 69.6653C96.5458 70.2513 96.875 71.0462 96.875 71.875C96.875 72.7038 96.5458 73.4987 95.9597 74.0847C95.3737 74.6708 94.5788 75 93.75 75Z" fill="white"/>
<path d="M100 75C99.1712 75 98.3763 74.6708 97.7903 74.0847C97.2042 73.4987 96.875 72.7038 96.875 71.875C96.875 71.0462 97.2042 70.2513 97.7903 69.6653C98.3763 69.0792 99.1712 68.75 100 68.75C100.829 68.75 101.624 69.0792 102.21 69.6653C102.796 70.2513 103.125 71.0462 103.125 71.875C103.125 72.7038 102.796 73.4987 102.21 74.0847C101.624 74.6708 100.829 75 100 75ZM100 75C100.829 75 101.624 75.3292 102.21 75.9153C102.796 76.5013 103.125 77.2962 103.125 78.125C103.125 78.9538 102.796 79.7487 102.21 80.3347C101.624 80.9208 100.829 81.25 100 81.25C99.1712 81.25 98.3763 80.9208 97.7903 80.3347C97.2042 79.7487 96.875 78.9538 96.875 78.125C96.875 77.2962 97.2042 76.5013 97.7903 75.9153C98.3763 75.3292 99.1712 75 100 75ZM93.75 106.25C92.9212 106.25 92.1263 105.921 91.5403 105.335C90.9542 104.749 90.625 103.954 90.625 103.125C90.625 102.296 90.9542 101.501 91.5403 100.915C92.1263 100.329 92.9212 100 93.75 100C94.5788 100 95.3737 100.329 95.9597 100.915C96.5458 101.501 96.875 102.296 96.875 103.125C96.875 103.954 96.5458 104.749 95.9597 105.335C95.3737 105.921 94.5788 106.25 93.75 106.25Z" fill="white"/>
<path d="M96.875 103.125C96.875 102.296 97.2042 101.501 97.7903 100.915C98.3763 100.329 99.1712 100 100 100C100.829 100 101.624 100.329 102.21 100.915C102.796 101.501 103.125 102.296 103.125 103.125C103.125 103.954 102.796 104.749 102.21 105.335C101.624 105.921 100.829 106.25 100 106.25C99.1712 106.25 98.3763 105.921 97.7903 105.335C97.2042 104.749 96.875 103.954 96.875 103.125ZM87.5 93.75C86.6712 93.75 85.8763 93.4208 85.2903 92.8347C84.7042 92.2487 84.375 91.4538 84.375 90.625C84.375 89.7962 84.7042 89.0013 85.2903 88.4153C85.8763 87.8292 86.6712 87.5 87.5 87.5C88.3288 87.5 89.1237 87.8292 89.7097 88.4153C90.2958 89.0013 90.625 89.7962 90.625 90.625C90.625 91.4538 90.2958 92.2487 89.7097 92.8347C89.1237 93.4208 88.3288 93.75 87.5 93.75Z" fill="white"/>
<path d="M93.75 93.75C92.9212 93.75 92.1263 93.4208 91.5403 92.8347C90.9542 92.2487 90.625 91.4538 90.625 90.625C90.625 89.7962 90.9542 89.0013 91.5403 88.4153C92.1263 87.8292 92.9212 87.5 93.75 87.5C94.5788 87.5 95.3737 87.8292 95.9597 88.4153C96.5458 89.0013 96.875 89.7962 96.875 90.625C96.875 91.4538 96.5458 92.2487 95.9597 92.8347C95.3737 93.4208 94.5788 93.75 93.75 93.75Z" fill="white"/>
<path d="M96.875 90.625C96.875 89.7962 97.2042 89.0013 97.7903 88.4153C98.3763 87.8292 99.1712 87.5 100 87.5C100.829 87.5 101.624 87.8292 102.21 88.4153C102.796 89.0013 103.125 89.7962 103.125 90.625C103.125 91.4538 102.796 92.2487 102.21 92.8347C101.624 93.4208 100.829 93.75 100 93.75C99.1712 93.75 98.3763 93.4208 97.7903 92.8347C97.2042 92.2487 96.875 91.4538 96.875 90.625ZM84.375 46.875C84.375 46.0462 84.7042 45.2513 85.2903 44.6653C85.8763 44.0792 86.6712 43.75 87.5 43.75H100C100.829 43.75 101.624 44.0792 102.21 44.6653C102.796 45.2513 103.125 46.0462 103.125 46.875V59.375C103.125 60.2038 102.796 60.9987 102.21 61.5847C101.624 62.1708 100.829 62.5 100 62.5H87.5C86.6712 62.5 85.8763 62.1708 85.2903 61.5847C84.7042 60.9987 84.375 60.2038 84.375 59.375V46.875ZM18.75 121.875C18.75 124.361 19.7377 126.746 21.4959 128.504C23.254 130.262 25.6386 131.25 28.125 131.25H46.875V125H28.125C27.2962 125 26.5013 124.671 25.9153 124.085C25.3292 123.499 25 122.704 25 121.875V103.125H18.75V121.875ZM131.25 28.125C131.25 25.6386 130.262 23.254 128.504 21.4959C126.746 19.7377 124.361 18.75 121.875 18.75H103.125V25H121.875C122.704 25 123.499 25.3292 124.085 25.9153C124.671 26.5013 125 27.2962 125 28.125V46.875H131.25V28.125ZM131.25 121.875C131.25 124.361 130.262 126.746 128.504 128.504C126.746 130.262 124.361 131.25 121.875 131.25H103.125V125H121.875C122.704 125 123.499 124.671 124.085 124.085C124.671 123.499 125 122.704 125 121.875V103.125H131.25V121.875Z" fill="white"/>
</svg>
