<svg width="268" height="140" viewBox="0 0 268 140" fill="none" xmlns="http://www.w3.org/2000/svg">
<g clip-path="url(#clip0_9245_25536)">
<path d="M0 12C0 5.37258 5.37258 0 12 0H256C262.627 0 268 5.37258 268 12V128C268 134.627 262.627 140 256 140H12C5.37259 140 0 134.627 0 128V12Z" fill="#F5F5F5"/>
<rect x="26.0781" y="-83.0684" width="156.17" height="218.082" transform="rotate(22.3483 26.0781 -83.0684)" fill="#1E1A1F"/>
<path d="M9 16C9 13.7909 10.7909 12 13 12H255C257.209 12 259 13.7909 259 16V18C259 20.2091 257.209 22 255 22H13C10.7909 22 9 20.2091 9 18V16Z" fill="#B7C7D5"/>
<path d="M9 32C9 29.7909 10.7909 28 13 28H255C257.209 28 259 29.7909 259 32V34C259 36.2091 257.209 38 255 38H13C10.7909 38 9 36.2091 9 34V32Z" fill="#B7C7D5"/>
<path d="M88.5 47C88.5 45.3431 89.8431 44 91.5 44H176.5C178.157 44 179.5 45.3431 179.5 47C179.5 48.6569 178.157 50 176.5 50H91.5C89.8431 50 88.5 48.6569 88.5 47Z" fill="#B7C7D5"/>
<path d="M107 57C107 55.3431 108.343 54 110 54H158C159.657 54 161 55.3431 161 57C161 58.6569 159.657 60 158 60H110C108.343 60 107 58.6569 107 57Z" fill="#B7C7D5"/>
<g clip-path="url(#clip1_9245_25536)">
<rect x="22.5" y="66" width="69" height="62" fill="#B7C7D5"/>
<circle cx="32.5" cy="76" r="6" fill="#C9D9E7"/>
<path d="M26.5 90C26.5 88.3431 27.8431 87 29.5 87H77.5C79.1569 87 80.5 88.3431 80.5 90C80.5 91.6569 79.1569 93 77.5 93H29.5C27.8431 93 26.5 91.6569 26.5 90Z" fill="#C9D9E7"/>
<path d="M26.5 99C26.5 97.3431 27.8431 96 29.5 96H77.5C79.1569 96 80.5 97.3431 80.5 99C80.5 100.657 79.1569 102 77.5 102H29.5C27.8431 102 26.5 100.657 26.5 99Z" fill="#C9D9E7"/>
<path d="M26.5 108C26.5 106.343 27.8431 105 29.5 105H77.5C79.1569 105 80.5 106.343 80.5 108C80.5 109.657 79.1569 111 77.5 111H29.5C27.8431 111 26.5 109.657 26.5 108Z" fill="#C9D9E7"/>
<path d="M26.5 117C26.5 115.343 27.8431 114 29.5 114H77.5C79.1569 114 80.5 115.343 80.5 117C80.5 118.657 79.1569 120 77.5 120H29.5C27.8431 120 26.5 118.657 26.5 117Z" fill="#C9D9E7"/>
</g>
<g clip-path="url(#clip2_9245_25536)">
<rect x="99.5" y="66" width="69" height="62" fill="#B7C7D5"/>
<circle cx="109.5" cy="76" r="6" fill="#C9D9E7"/>
<path d="M103.5 90C103.5 88.3431 104.843 87 106.5 87H154.5C156.157 87 157.5 88.3431 157.5 90C157.5 91.6569 156.157 93 154.5 93H106.5C104.843 93 103.5 91.6569 103.5 90Z" fill="#C9D9E7"/>
<path d="M103.5 99C103.5 97.3431 104.843 96 106.5 96H154.5C156.157 96 157.5 97.3431 157.5 99C157.5 100.657 156.157 102 154.5 102H106.5C104.843 102 103.5 100.657 103.5 99Z" fill="#C9D9E7"/>
<path d="M103.5 108C103.5 106.343 104.843 105 106.5 105H154.5C156.157 105 157.5 106.343 157.5 108C157.5 109.657 156.157 111 154.5 111H106.5C104.843 111 103.5 109.657 103.5 108Z" fill="#C9D9E7"/>
<path d="M103.5 117C103.5 115.343 104.843 114 106.5 114H154.5C156.157 114 157.5 115.343 157.5 117C157.5 118.657 156.157 120 154.5 120H106.5C104.843 120 103.5 118.657 103.5 117Z" fill="#C9D9E7"/>
</g>
<g clip-path="url(#clip3_9245_25536)">
<rect x="176.5" y="66" width="69" height="62" fill="#B7C7D5"/>
<circle cx="186.5" cy="76" r="6" fill="#C9D9E7"/>
<path d="M180.5 90C180.5 88.3431 181.843 87 183.5 87H231.5C233.157 87 234.5 88.3431 234.5 90C234.5 91.6569 233.157 93 231.5 93H183.5C181.843 93 180.5 91.6569 180.5 90Z" fill="#C9D9E7"/>
<path d="M180.5 99C180.5 97.3431 181.843 96 183.5 96H231.5C233.157 96 234.5 97.3431 234.5 99C234.5 100.657 233.157 102 231.5 102H183.5C181.843 102 180.5 100.657 180.5 99Z" fill="#C9D9E7"/>
<path d="M180.5 108C180.5 106.343 181.843 105 183.5 105H231.5C233.157 105 234.5 106.343 234.5 108C234.5 109.657 233.157 111 231.5 111H183.5C181.843 111 180.5 109.657 180.5 108Z" fill="#C9D9E7"/>
<path d="M180.5 117C180.5 115.343 181.843 114 183.5 114H231.5C233.157 114 234.5 115.343 234.5 117C234.5 118.657 233.157 120 231.5 120H183.5C181.843 120 180.5 118.657 180.5 117Z" fill="#C9D9E7"/>
</g>
</g>
<path d="M0.5 12C0.5 5.64873 5.64873 0.5 12 0.5H256C262.351 0.5 267.5 5.64873 267.5 12V128C267.5 134.351 262.351 139.5 256 139.5H12C5.64873 139.5 0.5 134.351 0.5 128V12Z" stroke="black" stroke-opacity="0.1"/>
<defs>
<clipPath id="clip0_9245_25536">
<path d="M0 12C0 5.37258 5.37258 0 12 0H256C262.627 0 268 5.37258 268 12V128C268 134.627 262.627 140 256 140H12C5.37259 140 0 134.627 0 128V12Z" fill="white"/>
</clipPath>
<clipPath id="clip1_9245_25536">
<path d="M22.5 70C22.5 67.7909 24.2909 66 26.5 66H87.5C89.7091 66 91.5 67.7909 91.5 70V124C91.5 126.209 89.7091 128 87.5 128H26.5C24.2909 128 22.5 126.209 22.5 124V70Z" fill="white"/>
</clipPath>
<clipPath id="clip2_9245_25536">
<path d="M99.5 70C99.5 67.7909 101.291 66 103.5 66H164.5C166.709 66 168.5 67.7909 168.5 70V124C168.5 126.209 166.709 128 164.5 128H103.5C101.291 128 99.5 126.209 99.5 124V70Z" fill="white"/>
</clipPath>
<clipPath id="clip3_9245_25536">
<path d="M176.5 70C176.5 67.7909 178.291 66 180.5 66H241.5C243.709 66 245.5 67.7909 245.5 70V124C245.5 126.209 243.709 128 241.5 128H180.5C178.291 128 176.5 126.209 176.5 124V70Z" fill="white"/>
</clipPath>
</defs>
</svg>
