<svg width="100" height="20" viewBox="0 0 100 20" fill="none" xmlns="http://www.w3.org/2000/svg">
<path d="M91.3266 10.9023H89.0985V19.5748H91.3266V10.9023Z" fill="white"/>
<path d="M91.3266 0H89.0985V8.67249H91.3266V0Z" fill="#F9B100"/>
<path d="M89.0991 10.8999V8.67188L80.4266 8.67187V10.8999L89.0991 10.8999Z" fill="#32B5AC"/>
<path d="M100 10.8999V8.67188L91.3275 8.67187V10.8999L100 10.8999Z" fill="#EC2024"/>
<path d="M5.59121 17.6262C3.73683 17.6262 2.22865 16.1175 2.22865 14.2631C2.22865 12.4087 3.73742 10.9005 5.59121 10.9005H8.95378V14.266C8.95261 16.1192 7.44443 17.6262 5.59121 17.6262ZM5.59121 8.67188C2.5035 8.67188 0 11.1754 0 14.2631C0 17.3508 2.50292 19.8543 5.59121 19.8543C6.85554 19.8543 8.01752 19.4297 8.95378 18.7221V19.573H11.1818V8.67188H5.59121Z" fill="white"/>
<path d="M30.4435 8.67188C27.3558 8.67188 24.8523 11.1748 24.8523 14.2631C24.8523 17.3508 27.3552 19.8543 30.4435 19.8543C31.7078 19.8543 32.8698 19.4297 33.8061 18.7221V19.573H36.0341V14.2631V8.67188H30.4435ZM30.4435 17.6262C28.5891 17.6262 27.0809 16.1175 27.0809 14.2631C27.0809 12.4087 28.5897 10.9005 30.4435 10.9005H33.8061V14.266C33.8049 16.1192 32.2973 17.6262 30.4435 17.6262Z" fill="white"/>
<path d="M66.1887 8.67188C63.101 8.67188 60.5975 11.1748 60.5975 14.2631C60.5975 17.3508 63.1005 19.8543 66.1887 19.8543C67.4531 19.8543 68.6151 19.4297 69.5513 18.7221V19.573H71.7794V14.2631V8.67188H66.1887ZM66.1882 17.6262C64.3338 17.6262 62.8256 16.1175 62.8256 14.2631C62.8256 12.4087 64.3344 10.9005 66.1882 10.9005H69.5507V14.266C69.5501 16.1192 68.042 17.6262 66.1882 17.6262Z" fill="white"/>
<path d="M21.8844 8.67188L18.575 16.6619L15.2651 8.67188H12.8534L17.3686 19.573H19.7809L24.2961 8.67188H21.8844Z" fill="white"/>
<path d="M43.0103 8.67188H38.2629V19.573H40.491V10.9005H43.0097C44.8641 10.9005 46.3723 12.4093 46.3723 14.2631V19.573H48.6003V14.2631C48.6015 11.1754 46.098 8.67188 43.0103 8.67188Z" fill="white"/>
<path d="M74.0082 8.67188V19.573H76.2362V10.9005H78.7549V8.67188H74.0082Z" fill="white"/>
<path d="M54.4938 13.4704L59.292 8.67218H56.1406L52.9184 11.8944V4.33594H50.6903V19.5733H52.9184V15.0459L57.4458 19.5733H60.5973L54.4938 13.4704Z" fill="white"/>
</svg>
