<svg xmlns="http://www.w3.org/2000/svg"
     fill="currentColor"
     viewBox="0 0 24 24">
    <path fill="#000"
          d="M17.096 11.568a1 1 0 1 0-1.28-1.537l1.28 1.537Zm-4.883 2.767-.64.768a1 1 0 0 0 1.28 0l-.64-.768ZM8.61 10.03a1 1 0 1 0-1.28 1.537l1.28-1.537Zm7.205 0-4.242 3.536 1.28 1.536 4.243-3.535-1.28-1.537Zm-2.962 3.536L8.61 10.03l-1.28 1.537 4.243 3.535 1.28-1.536ZM20.6 12a8.6 8.6 0 0 1-8.6 8.6v2c5.854 0 10.6-4.746 10.6-10.6h-2ZM12 20.6A8.6 8.6 0 0 1 3.4 12h-2c0 5.854 4.746 10.6 10.6 10.6v-2ZM3.4 12A8.6 8.6 0 0 1 12 3.4v-2C6.146 1.4 1.4 6.146 1.4 12h2ZM12 3.4a8.6 8.6 0 0 1 8.6 8.6h2c0-5.854-4.746-10.6-10.6-10.6v2Z" />
</svg>