<svg xmlns="http://www.w3.org/2000/svg"
     fill="currentColor"
     viewBox="0 0 24 24">
    <path fill="#000"
          d="M9.707 11.893a1 1 0 0 0-1.414 1.414l1.414-1.414ZM10.8 14.4l-.707.707a1 1 0 0 0 1.414 0L10.8 14.4Zm4.907-3.493a1 1 0 0 0-1.414-1.414l1.414 1.414Zm-9.144 8.712a1 1 0 1 0-1.414-1.414l1.414 1.414Zm-4.102 1.274a1 1 0 1 0 1.414 1.414l-1.414-1.414Zm17.664 1.414a1 1 0 0 0 1.414-1.414l-1.414 1.414Zm-1.274-4.102a1 1 0 0 0-1.414 1.414l1.414-1.414ZM5.507 3.107a1 1 0 0 0-1.414-1.414l1.414 1.414ZM1.093 4.693a1 1 0 0 0 1.414 1.414L1.093 4.693Zm20.4 1.414a1 1 0 0 0 1.414-1.414l-1.414 1.414Zm-1.586-4.414a1 1 0 0 0-1.414 1.414l1.414-1.414ZM8.293 13.307l1.8 1.8 1.414-1.414-1.8-1.8-1.414 1.414Zm3.214 1.8 4.2-4.2-1.414-1.414-4.2 4.2 1.414 1.414ZM5.15 18.205l-2.69 2.688 1.414 1.414 2.688-2.688-1.414-1.414Zm16.39 2.688-2.688-2.688-1.414 1.414 2.688 2.688 1.414-1.414Zm-2.091-8.125A7.448 7.448 0 0 1 12 20.216v2a9.448 9.448 0 0 0 9.448-9.448h-2ZM12 20.216a7.448 7.448 0 0 1-7.448-7.448h-2A9.448 9.448 0 0 0 12 22.216v-2Zm-7.448-7.448A7.448 7.448 0 0 1 12 5.32v-2a9.448 9.448 0 0 0-9.448 9.448h2ZM12 5.32a7.448 7.448 0 0 1 7.448 7.448h2A9.448 9.448 0 0 0 12 3.32v2ZM4.093 1.693l-3 3 1.414 1.414 3-3-1.414-1.414Zm18.814 3-3-3-1.414 1.414 3 3 1.414-1.414Z" />
</svg>