<svg xmlns="http://www.w3.org/2000/svg" width="24" height="24" fill="none" viewBox="0 0 24 24">
  <g clip-path="url(#a)">
    <path fill="#F0F0F0" d="M12 24c6.627 0 12-5.373 12-12S18.627 0 12 0 0 5.373 0 12s5.373 12 12 12Z"/>
    <path fill="#338AF3" d="M12 0A12 12 0 0 0 1.192 6.783H22.81A12 12 0 0 0 12 0Zm0 24a12 12 0 0 0 10.81-6.783H1.191A12 12 0 0 0 12.001 24Z"/>
    <path fill="#FFDA44" d="m15.587 12-1.465.69.78 1.419-1.591-.305-.202 1.608-1.108-1.183-1.109 1.183-.201-1.608-1.592.305.78-1.42L8.415 12l1.466-.69-.78-1.419 1.59.305.202-1.608 1.109 1.183 1.108-1.183.202 1.608 1.591-.305-.78 1.42 1.465.689Z"/>
  </g>
  <defs>
    <clipPath id="a">
      <path fill="#fff" d="M0 0h24v24H0z"/>
    </clipPath>
  </defs>
</svg>
