<svg xmlns="http://www.w3.org/2000/svg" width="24" height="24" fill="none" viewBox="0 0 24 24">
  <g clip-path="url(#a)">
    <path fill="#6DA544" d="M12 24c6.627 0 12-5.373 12-12S18.627 0 12 0 0 5.373 0 12s5.373 12 12 12Z"/>
    <path fill="#FFDA44" d="M12 4.696 21.915 12l-9.913 7.304L2.088 12 12 4.696Z"/>
    <path fill="#F0F0F0" d="M12 16.174a4.174 4.174 0 1 0 0-8.348 4.174 4.174 0 0 0 0 8.348Z"/>
    <path fill="#0052B4" d="M9.914 11.74c-.726 0-1.427.11-2.086.314a4.173 4.173 0 0 0 7.59 2.34 7.034 7.034 0 0 0-5.504-2.655Zm6.184 1.06a4.174 4.174 0 0 0-7.932-2.447 8.607 8.607 0 0 1 7.932 2.447Z"/>
  </g>
  <defs>
    <clipPath id="a">
      <path fill="#fff" d="M0 0h24v24H0z"/>
    </clipPath>
  </defs>
</svg>
