<svg xmlns="http://www.w3.org/2000/svg" width="24" height="24" fill="none" viewBox="0 0 24 24">
  <g clip-path="url(#a)">
    <path fill="#F0F0F0" d="M12 24.001c6.627 0 12-5.373 12-12s-5.373-12-12-12-12 5.373-12 12 5.373 12 12 12Z"/>
    <path fill="#0052B4" d="M22.542 6.262a12.027 12.027 0 0 0-7.41-5.848l-.523 5.848h7.933Zm-21.083 0h7.932L8.87.414a12.027 12.027 0 0 0-7.41 5.848Z"/>
    <path fill="#6DA544" d="M14.61 12.001v5.74h7.932A11.958 11.958 0 0 0 24 12h-9.392Zm-5.219 0H0c0 2.079.529 4.034 1.46 5.74h7.93V12Z"/>
    <path fill="#FFDA44" d="M1.459 17.74a12.027 12.027 0 0 0 7.41 5.848l.522-5.114-7.932-.734Zm13.672 5.848a12.027 12.027 0 0 0 7.41-5.848l-7.932.734.522 5.114Z"/>
    <path fill="#FFDA44" d="m14.61 18.474 7.932-.734h-7.933v.734Zm-5.219-.734H1.46l7.932.734v-.734Z"/>
    <path fill="#D80027" d="M12 .001c-1.084 0-2.133.144-3.13.413v23.174c.997.269 2.046.413 3.13.413a12.01 12.01 0 0 0 3.13-.413V.414A12.013 12.013 0 0 0 12 .001Z"/>
    <path fill="#FFDA44" d="m6.455 2.61.324.996h1.048l-.848.616.324.996-.848-.615-.847.615.324-.996-.848-.616h1.048l.323-.996Z"/>
  </g>
  <defs>
    <clipPath id="a">
      <path fill="#fff" d="M0 .001h24v24H0z"/>
    </clipPath>
  </defs>
</svg>
