<svg xmlns="http://www.w3.org/2000/svg" width="24" height="25" fill="none" viewBox="0 0 24 25">
  <g clip-path="url(#a)">
    <path fill="#F0F0F0" d="M12 24.012c6.627 0 12-5.373 12-12 0-6.628-5.373-12-12-12s-12 5.372-12 12c0 6.627 5.373 12 12 12Z"/>
    <path fill="#000" d="M12 .012a11.963 11.963 0 0 0-8.484 3.514L12 12.012v-12Zm-12 12a11.96 11.96 0 0 0 3.515 8.485L12 12.012H0Zm12 12c3.314 0 6.314-1.343 8.485-3.515L12 12.012v12Zm12-12c0-3.314-1.343-6.314-3.515-8.486L12 12.012h12Z"/>
    <path fill="#FFDA44" d="M7.826 8.36 12 8.88l4.174-.521V5.855l-1.67.835L12 4.186 9.496 6.69l-1.67-.835V8.36Z"/>
    <path fill="#D80027" d="M12 18.273a4.179 4.179 0 0 1-4.174-4.174V9.925L9.391 8.36h5.218l1.565 1.565v4.174A4.179 4.179 0 0 1 12 18.273Z"/>
    <path fill="#F0F0F0" d="M12 16.707A2.612 2.612 0 0 1 9.39 14.1V9.925h5.218v4.174a2.612 2.612 0 0 1-2.609 2.608Z"/>
    <path fill="#FFDA44" d="M7.826 8.36h1.565v1.565H7.826V8.359Zm6.784 0h1.565v1.565h-1.566V8.359Zm0 3.39h1.565v1.566h-1.566v-1.565Zm-6.784 0h1.565v1.566H7.826v-1.565ZM12 16.707a2.6 2.6 0 0 1-.783-.12v1.611a4.18 4.18 0 0 0 1.565 0v-1.61c-.247.077-.51.12-.783.12Zm-2.573-2.185-1.25 1.25c.217.492.526.936.906 1.307l1.106-1.106a2.604 2.604 0 0 1-.762-1.45Zm6.395 1.249-1.249-1.249a2.605 2.605 0 0 1-.763 1.451l1.107 1.107c.38-.372.688-.816.905-1.309Z"/>
    <path fill="#0052B4" d="M11.477 10.794v.87a.522.522 0 1 0 1.043 0v-.87h-1.043Zm0 3.479v.87a.522.522 0 1 0 1.043 0v-.87h-1.043Zm1.566-1.74v.87a.522.522 0 1 0 1.043 0v-.87h-1.043Zm-1.566 0v.87a.522.522 0 1 0 1.043 0v-.87h-1.043Zm-1.565 0v.87a.522.522 0 0 0 1.043 0v-.87H9.913Z"/>
  </g>
  <defs>
    <clipPath id="a">
      <path fill="#fff" d="M0 .012h24v24H0z"/>
    </clipPath>
  </defs>
</svg>
