<svg xmlns="http://www.w3.org/2000/svg" width="24" height="25" fill="none" viewBox="0 0 24 25">
  <g clip-path="url(#a)">
    <path fill="#F0F0F0" d="M12 24.023c6.627 0 12-5.372 12-12 0-6.627-5.373-12-12-12s-12 5.373-12 12c0 6.628 5.373 12 12 12Z"/>
    <path fill="#D80027" d="M24 12.023c0 6.628-5.373 12-12 12s-12-5.372-12-12c0-6.627 12 0 12 0h12Z"/>
    <path fill="#0052B4" d="M0 12.023c0-6.627 5.373-12 12-12v12H0Z"/>
    <path fill="#F0F0F0" d="M7.143 4.197 7.92 6.59h2.515L8.4 8.067l.777 2.391L7.143 8.98 5.11 10.458l.777-2.391-2.034-1.478h2.514l.777-2.392Z"/>
  </g>
  <defs>
    <clipPath id="a">
      <path fill="#fff" d="M0 .023h24v24H0z"/>
    </clipPath>
  </defs>
</svg>
