<svg xmlns="http://www.w3.org/2000/svg" width="24" height="25" fill="none" viewBox="0 0 24 25">
  <g clip-path="url(#a)">
    <path fill="#FFDA44" d="M12 24.036c6.627 0 12-5.373 12-12s-5.373-12-12-12-12 5.373-12 12 5.373 12 12 12Z"/>
    <path fill="#D80027" d="M12 .036a11.95 11.95 0 0 0-7.715 2.81l12.933 9.19-12.933 9.19A11.95 11.95 0 0 0 12 24.037c6.628 0 12-5.373 12-12s-5.372-12-12-12Z"/>
    <path fill="#000" d="M3.515 3.55c-4.687 4.687-4.687 12.285 0 16.971L12 12.036 3.515 3.551Z"/>
    <path fill="#F0F0F0" d="m3.327 9.287 1.826 1.728L7.36 9.813l-1.08 2.272 1.827 1.728-2.493-.325-1.08 2.271-.461-2.471-2.494-.325 2.208-1.203-.461-2.472Z"/>
  </g>
  <defs>
    <clipPath id="a">
      <path fill="#fff" d="M0 .036h24v24H0z"/>
    </clipPath>
  </defs>
</svg>
