<svg xmlns="http://www.w3.org/2000/svg" width="24" height="25" fill="none" viewBox="0 0 24 25">
  <g clip-path="url(#a)">
    <path fill="#F0F0F0" d="M12 24.047c6.627 0 12-5.373 12-12 0-6.628-5.373-12-12-12s-12 5.372-12 12c0 6.627 5.373 12 12 12Z"/>
    <path fill="#D80027" d="M12 .047C6.84.047 2.442 3.303.746 7.873h22.507C21.558 3.303 17.16.047 12 .047Z"/>
    <path fill="#000" d="M12 24.047c5.16 0 9.558-3.257 11.253-7.826H.746C2.442 20.79 6.84 24.047 12 24.047Z"/>
    <path fill="#FF9811" d="M16.174 10.743h-3.13a1.044 1.044 0 0 0-2.087 0h-3.13c0 .576.501 1.043 1.077 1.043H8.87c0 .576.467 1.044 1.043 1.044 0 .576.467 1.043 1.044 1.043h2.087c.576 0 1.043-.467 1.043-1.043.576 0 1.044-.468 1.044-1.044h-.035c.576 0 1.078-.467 1.078-1.043Z"/>
  </g>
  <defs>
    <clipPath id="a">
      <path fill="#fff" d="M0 .047h24v24H0z"/>
    </clipPath>
  </defs>
</svg>
