<svg xmlns="http://www.w3.org/2000/svg" width="24" height="25" fill="none" viewBox="0 0 24 25">
  <g clip-path="url(#a)">
    <path fill="#F0F0F0" d="M12 24.059c6.627 0 12-5.373 12-12 0-6.628-5.373-12-12-12s-12 5.372-12 12c0 6.627 5.373 12 12 12Z"/>
    <path fill="#0052B4" d="M23.898 10.493H9.391V.343c-1.109.247-2.16.645-3.13 1.175v8.975H.1a12.103 12.103 0 0 0 0 3.13h6.16V22.6c.97.53 2.021.928 3.13 1.174v-10.15h14.507a12.121 12.121 0 0 0 0-3.13Z"/>
  </g>
  <defs>
    <clipPath id="a">
      <path fill="#fff" d="M0 .059h24v24H0z"/>
    </clipPath>
  </defs>
</svg>
