<svg xmlns="http://www.w3.org/2000/svg" width="24" height="25" fill="none" viewBox="0 0 24 25">
  <g clip-path="url(#a)">
    <path fill="#F0F0F0" d="M12 24.059c6.627 0 12-5.373 12-12 0-6.628-5.373-12-12-12s-12 5.372-12 12c0 6.627 5.373 12 12 12Z"/>
    <path fill="#D80027" d="M24 12.059C24 6.899 20.743 2.5 16.174.805v22.507C20.744 21.617 24 17.218 24 12.058Z"/>
    <path fill="#0052B4" d="M0 12.059c0 5.16 3.257 9.558 7.826 11.253V.805C3.256 2.5 0 6.899 0 12.059Z"/>
  </g>
  <defs>
    <clipPath id="a">
      <path fill="#fff" d="M0 .059h24v24H0z"/>
    </clipPath>
  </defs>
</svg>
