<svg xmlns="http://www.w3.org/2000/svg" width="24" height="25" fill="none" viewBox="0 0 24 25">
  <g clip-path="url(#a)">
    <path fill="#FFDA44" d="M.746 16.233C2.442 20.803 6.84 24.06 12 24.06c5.16 0 9.558-3.257 11.253-7.826L12 15.19.746 16.233Z"/>
    <path fill="#000" d="M12 .06C6.84.06 2.442 3.316.746 7.886L12 8.929l11.253-1.043C21.558 3.316 17.16.06 12 .06Z"/>
    <path fill="#D80027" d="M.746 7.886A11.974 11.974 0 0 0 0 12.059c0 1.468.264 2.874.746 4.174h22.508c.482-1.3.746-2.706.746-4.174a11.98 11.98 0 0 0-.746-4.173H.746Z"/>
  </g>
  <defs>
    <clipPath id="a">
      <path fill="#fff" d="M0 .06h24v24H0z"/>
    </clipPath>
  </defs>
</svg>
