<svg xmlns="http://www.w3.org/2000/svg" width="24" height="25" fill="none" viewBox="0 0 24 25">
  <g clip-path="url(#a)">
    <path fill="#F9F9F9" d="M12 24.07c6.627 0 12-5.372 12-12 0-6.627-5.373-12-12-12s-12 5.373-12 12c0 6.628 5.373 12 12 12Z"/>
    <path fill="#D80027" d="M12 24.07c5.16 0 9.558-3.256 11.253-7.826H.746C2.442 20.814 6.84 24.07 12 24.07Zm4.695-14.087V8.418h.521V7.375h-1.043v.521h-1.044v-.521h-1.043v1.043h.522v1.565h-1.044V6.331h.522V5.288h-1.044v.521h-.521v-.521h-1.044v.521h-.522v-.521H9.912V6.33h.522v3.652H9.39V8.418h.522V7.375H8.868v.521H7.825v-.521H6.782v1.043h.521v1.565H6.26v4.174h11.478V9.983h-1.043Z"/>
    <path fill="#FFDA44" d="M11.999 13.636a1.565 1.565 0 0 0-.522 3.04v2.177H9.912v2.087h2.609v-4.263a1.566 1.566 0 0 0-.522-3.041Zm0 2.087a.522.522 0 1 1 0-1.044.522.522 0 0 1 0 1.043Z"/>
  </g>
  <defs>
    <clipPath id="a">
      <path fill="#fff" d="M0 .07h24v24H0z"/>
    </clipPath>
  </defs>
</svg>
