<svg xmlns="http://www.w3.org/2000/svg" width="24" height="25" fill="none" viewBox="0 0 24 25">
  <g clip-path="url(#a)">
    <path fill="#F0F0F0" d="M12 24.07c6.627 0 12-5.372 12-12 0-6.627-5.373-12-12-12s-12 5.373-12 12c0 6.628 5.373 12 12 12Z"/>
    <path fill="#338AF3" d="M12 8.94h11.587a11.932 11.932 0 0 0-1.348-3.13H12v3.13ZM4.53 21.462h14.94a12.059 12.059 0 0 0 2.77-3.13H1.761a12.062 12.062 0 0 0 2.769 3.13ZM4.174 2.974a12.059 12.059 0 0 0-2.412 2.835h2.412V2.974ZM12 12.07V8.94H7.304v3.13h-3.13V8.94H.414A12.013 12.013 0 0 0 0 12.07c0 1.083.144 2.133.413 3.13h23.174c.269-.997.413-2.047.413-3.13H12Zm0-12c-1.666 0-3.253.34-4.695.954V5.81H12V2.68h7.47A11.949 11.949 0 0 0 12 .07Z"/>
  </g>
  <defs>
    <clipPath id="a">
      <path fill="#fff" d="M0 .07h24v24H0z"/>
    </clipPath>
  </defs>
</svg>
