<svg xmlns="http://www.w3.org/2000/svg" width="24" height="25" fill="none" viewBox="0 0 24 25">
  <g clip-path="url(#a)">
    <path fill="#F0F0F0" d="M12 24.06c6.627 0 12-5.373 12-12 0-6.628-5.373-12-12-12s-12 5.372-12 12c0 6.627 5.373 12 12 12Z"/>
    <path fill="#D80027" d="M23.898 10.494H13.565V.161a12.12 12.12 0 0 0-3.13 0v10.333H.102a12.118 12.118 0 0 0 0 3.13h10.333v10.334a12.121 12.121 0 0 0 3.13 0V13.625h10.333a12.12 12.12 0 0 0 0-3.13Z"/>
    <path fill="#FFDA44" d="m15.391 12.581.783.522v-2.087l-.783.522h-2.87v-2.87l.522-.782h-2.086l.521.782v2.87h-2.87l-.782-.522v2.087l.783-.522h2.87v2.87l-.522.782h2.086l-.521-.782v-2.87h2.87Z"/>
  </g>
  <defs>
    <clipPath id="a">
      <path fill="#fff" d="M0 .06h24v24H0z"/>
    </clipPath>
  </defs>
</svg>
