<svg xmlns="http://www.w3.org/2000/svg" width="24" height="25" fill="none" viewBox="0 0 24 25">
  <g clip-path="url(#a)">
    <path fill="#A2001D" d="M24 12.49c0 6.628-5.373 12-12 12s-12-5.372-12-12c0-6.627 12-12 12-12s12 5.373 12 12Z"/>
    <path fill="#0052B4" d="M0 12.49c0-6.627 5.373-12 12-12s12 5.373 12 12"/>
    <path fill="#F0F0F0" d="M16.174 15.62 12 15.1l-4.174.522V9.36h8.348v6.26Z"/>
    <path fill="#0052B4" d="M12 15.099a2.087 2.087 0 1 0-.001-4.174 2.087 2.087 0 0 0 0 4.174Z"/>
    <path fill="#A2001D" d="M12 14.056a1.044 1.044 0 1 0 0-2.088 1.044 1.044 0 0 0 0 2.088Z"/>
    <path fill="#6DA544" d="M10.435 10.403h3.131l-1.565 1.566-1.566-1.566Z"/>
    <path fill="#FFDA44" d="M11.479 11.447h1.043v3.13h-1.043v-3.13Z"/>
    <path fill="#6DA544" d="M13.67 14.264h-3.34l-2.504 1.357h8.348l-2.504-1.357Z"/>
  </g>
  <defs>
    <clipPath id="a">
      <path fill="#fff" d="M0 .49h24v24H0z"/>
    </clipPath>
  </defs>
</svg>
