<svg xmlns="http://www.w3.org/2000/svg" width="24" height="25" fill="none" viewBox="0 0 24 25">
  <g clip-path="url(#a)">
    <path fill="#D80027" d="M12 24.49c6.627 0 12-5.372 12-12 0-6.627-5.373-12-12-12s-12 5.373-12 12c0 6.628 5.373 12 12 12Z"/>
    <path fill="#F0F0F0" d="M13.239 9.568c-.273 1.135-.758.918-.995 1.908a2.609 2.609 0 0 1 1.22-5.073c-.476 1.978.019 2.15-.225 3.165Zm-3.635.841c.995.61.639 1.004 1.506 1.536a2.609 2.609 0 0 1-4.447-2.728c1.734 1.064 2.051.646 2.94 1.192Zm-.324 3.717c.888-.758 1.153-.298 1.927-.958a2.609 2.609 0 0 1-3.969 3.387c1.548-1.321 1.249-1.752 2.042-2.43Zm3.434 1.456c-.446-1.078.073-1.188-.316-2.128a2.609 2.609 0 0 1 1.996 4.821c-.778-1.88-1.28-1.728-1.68-2.693Zm2.446-2.816c-1.162.09-1.107-.437-2.12-.357a2.609 2.609 0 0 1 5.2-.408c-2.028.159-2.039.683-3.08.765Z"/>
  </g>
  <defs>
    <clipPath id="a">
      <path fill="#fff" d="M0 .49h24v24H0z"/>
    </clipPath>
  </defs>
</svg>
