<svg xmlns="http://www.w3.org/2000/svg" width="24" height="25" fill="none" viewBox="0 0 24 25">
  <g clip-path="url(#a)">
    <path fill="#F0F0F0" d="M12 24.91c6.627 0 12-5.372 12-12 0-6.627-5.373-12-12-12s-12 5.373-12 12c0 6.628 5.373 12 12 12Z"/>
    <path fill="#A2001D" d="M12 .91C6.84.91 2.442 4.167.746 8.736h22.507C21.558 4.166 17.16.91 12 .91Z"/>
    <path fill="#000" d="M12 24.91c5.16 0 9.558-3.256 11.253-7.826H.746C2.442 21.654 6.84 24.91 12 24.91Z"/>
    <path fill="#496E2D" d="m9.13 12.127-.02.001H6.818c.116-.45.524-.783 1.01-.783V9.78a2.612 2.612 0 0 0-2.61 2.608v1.305h3.914a.26.26 0 0 1 .26.26v.522H4.174v1.566h6.782v-2.087a1.829 1.829 0 0 0-1.826-1.827Zm3.914 2.348V9.78h-1.566v6.26h2.61v-1.565h-1.044Zm5.218 0V9.78h-1.566v4.695h-.521V12.91h-1.566v3.13h4.696v-1.565h-1.043Z"/>
  </g>
  <defs>
    <clipPath id="a">
      <path fill="#fff" d="M0 .91h24v24H0z"/>
    </clipPath>
  </defs>
</svg>
