<svg xmlns="http://www.w3.org/2000/svg" width="24" height="25" fill="none" viewBox="0 0 24 25">
  <g clip-path="url(#a)">
    <path fill="#D80027" d="M12 24.91c6.627 0 12-5.372 12-12 0-6.627-5.373-12-12-12s-12 5.373-12 12c0 6.628 5.373 12 12 12Z"/>
    <path fill="#F0F0F0" d="m16.444 8.954-.848 3.027-2.545-.47-1.638-3.376-4.426 1.57-.349-.983-1.158-.143.873 2.458 3.045-.778.866 2.438-2.106 3.108 3.573 3.047-.677.793.455 1.075 1.693-1.985-2.197-2.248 1.68-1.97 3.743.27.852-4.617 1.027.19.702-.932-2.565-.474Z"/>
  </g>
  <defs>
    <clipPath id="a">
      <path fill="#fff" d="M0 .91h24v24H0z"/>
    </clipPath>
  </defs>
</svg>
