<svg xmlns="http://www.w3.org/2000/svg" width="24" height="25" fill="none" viewBox="0 0 24 25">
  <g clip-path="url(#a)">
    <path fill="#338AF3" d="M12 24.33c6.627 0 12-5.372 12-12 0-6.627-5.373-12-12-12s-12 5.373-12 12 5.373 12 12 12Z"/>
    <path fill="#FFDA44" d="M18.782 12.46H5.217c0 .937.815 1.696 1.752 1.696h-.057c0 .937.76 1.696 1.696 1.696 0 .936.76 1.695 1.696 1.695h3.391c.937 0 1.696-.759 1.696-1.695.936 0 1.695-.76 1.695-1.696h-.056c.936 0 1.752-.759 1.752-1.695Z"/>
    <path fill="#338AF3" d="M16.696 10.243a4.696 4.696 0 0 1-9.391 0"/>
    <path fill="#FFDA44" d="m15.587 10.243-1.465.69.78 1.419-1.591-.305-.202 1.608-1.108-1.182-1.109 1.182-.201-1.608-1.592.305.78-1.42-1.465-.689 1.466-.69-.78-1.419 1.59.305.202-1.608 1.109 1.183 1.108-1.183.202 1.608 1.591-.305-.78 1.42 1.465.69Z"/>
  </g>
  <defs>
    <clipPath id="a">
      <path fill="#fff" d="M0 .33h24v24H0z"/>
    </clipPath>
  </defs>
</svg>
