<svg xmlns="http://www.w3.org/2000/svg" width="24" height="25" fill="none" viewBox="0 0 24 25">
  <g clip-path="url(#a)">
    <path fill="#F0F0F0" d="M12 24.32c6.627 0 12-5.373 12-12 0-6.628-5.373-12-12-12s-12 5.372-12 12c0 6.627 5.373 12 12 12Z"/>
    <path fill="#A2001D" d="M12 .32C6.457.32 1.792 4.08.415 9.188h23.173C22.21 4.079 17.545.319 12.001.319Zm0 24c5.545 0 10.21-3.761 11.587-8.87H.414c1.377 5.109 6.042 8.87 11.587 8.87Z"/>
  </g>
  <defs>
    <clipPath id="a">
      <path fill="#fff" d="M0 .32h24v24H0z"/>
    </clipPath>
  </defs>
</svg>
