<svg xmlns="http://www.w3.org/2000/svg" width="24" height="24" fill="none" viewBox="0 0 24 24">
  <g clip-path="url(#a)">
    <path fill="#FFDA44" d="M17.216 1.19A11.952 11.952 0 0 0 12 0c-1.87 0-3.64.428-5.217 1.19L5.738 12l1.044 10.81A11.953 11.953 0 0 0 11.999 24c1.87 0 3.64-.428 5.217-1.19L18.26 12 17.216 1.19Z"/>
    <path fill="#0052B4" d="M6.783 1.191A12 12 0 0 0 0 12a12 12 0 0 0 6.783 10.809V1.19Z"/>
    <path fill="#D80027" d="M17.217 1.191V22.81A12 12 0 0 0 23.999 12a12 12 0 0 0-6.782-10.809Z"/>
    <path fill="#FF9811" d="M16.174 9.442h-2.87a1.304 1.304 0 0 0-2.608 0h-2.87c0 .709.618 1.284 1.327 1.284H9.11c0 .71.575 1.284 1.285 1.284 0 .628.45 1.15 1.046 1.261l-1.012 2.285a4.161 4.161 0 0 0 3.142 0l-1.012-2.285a1.284 1.284 0 0 0 1.046-1.26c.71 0 1.285-.576 1.285-1.285h-.043c.71 0 1.327-.575 1.327-1.284Z"/>
    <path fill="#0052B4" d="M12 11.217 10.305 12v1.565L12 14.61l1.696-1.044V12L12 11.217Z"/>
    <path fill="#D80027" d="M10.305 10.435h3.391V12h-3.391v-1.565Z"/>
  </g>
  <defs>
    <clipPath id="a">
      <path fill="#fff" d="M0 0h24v24H0z"/>
    </clipPath>
  </defs>
</svg>
