<svg xmlns="http://www.w3.org/2000/svg" width="24" height="24" fill="none" viewBox="0 0 24 24">
  <g clip-path="url(#a)">
    <path fill="#F0F0F0" d="M17.216 1.19A11.952 11.952 0 0 0 12 0c-1.87 0-3.64.428-5.217 1.19L5.738 12l1.044 10.81A11.953 11.953 0 0 0 11.999 24c1.87 0 3.64-.428 5.217-1.19L18.26 12 17.216 1.19Z"/>
    <path fill="#6DA544" d="M6.783 1.191A12 12 0 0 0 0 12a12 12 0 0 0 6.783 10.809V1.19Zm10.434 0V22.81A12 12 0 0 0 23.999 12a12 12 0 0 0-6.782-10.809ZM15.13 15.652 12 5.74l-3.13 9.913h2.347v2.609h1.565v-2.609h2.348Z"/>
  </g>
  <defs>
    <clipPath id="a">
      <path fill="#fff" d="M0 0h24v24H0z"/>
    </clipPath>
  </defs>
</svg>
