<svg xmlns="http://www.w3.org/2000/svg" width="24" height="24" fill="none" viewBox="0 0 24 24">
  <g clip-path="url(#a)">
    <path fill="#F0F0F0" d="M12 24c6.627 0 12-5.373 12-12S18.627 0 12 0 0 5.373 0 12s5.373 12 12 12Z"/>
    <path fill="#0052B4" d="M12 0a11.972 11.972 0 0 0-9.096 4.174h18.194A11.972 11.972 0 0 0 12 0Zm9.098 19.826H2.904A11.972 11.972 0 0 0 12.001 24c3.637 0 6.896-1.618 9.097-4.174Z"/>
    <path fill="#D80027" d="M22.239 5.74H1.76A11.943 11.943 0 0 0 0 12c0 2.294.644 4.438 1.761 6.26H22.24A11.943 11.943 0 0 0 24 12c0-2.294-.644-4.438-1.761-6.26Z"/>
    <path fill="#F0F0F0" d="M7.383 16.617a4.617 4.617 0 1 0 0-9.235 4.617 4.617 0 0 0 0 9.235Z"/>
    <path fill="#D80027" d="m7.382 7.383 1.036 3.188h3.358l-2.718 1.97 1.044 3.199-2.72-1.98-2.716 1.976 1.04-3.194-2.716-1.97h3.356l1.036-3.19Z"/>
  </g>
  <defs>
    <clipPath id="a">
      <path fill="#fff" d="M0 0h24v24H0z"/>
    </clipPath>
  </defs>
</svg>
