<svg xmlns="http://www.w3.org/2000/svg" width="24" height="25" fill="none" viewBox="0 0 24 25">
  <g clip-path="url(#a)">
    <path fill="#338AF3" d="M12 24.012c6.627 0 12-5.373 12-12 0-6.628-5.373-12-12-12s-12 5.372-12 12c0 6.627 5.373 12 12 12Z"/>
    <path fill="#F3F3F3" d="M11.623 19.567a.782.782 0 0 1-.696-.51.784.784 0 0 1-1.397-.36.784.784 0 0 1-1.294-.636.782.782 0 0 1-1.14-.882.781.781 0 0 1-.94-1.092.783.783 0 0 1-.701-1.26.783.783 0 0 1-.433-1.374.782.782 0 0 1-.147-1.434.783.783 0 0 1 .143-1.434.783.783 0 0 1 .43-1.376.784.784 0 0 1 .7-1.26.782.782 0 0 1 .937-1.095.782.782 0 0 1 1.137-.884.783.783 0 0 1 1.294-.637.783.783 0 0 1 1.394-.364.783.783 0 0 1 1.44-.075.783.783 0 0 1 1.425.215.783.783 0 0 1 1.353.5.783.783 0 0 1 1.224.76.783.783 0 0 1 1.046.99.783.783 0 0 1 .827 1.181.784.784 0 0 1 .571 1.324.782.782 0 0 1 .293 1.411c.28.119.477.396.477.72v.016a.783.783 0 0 1-.476.72.782.782 0 0 1-.29 1.413.783.783 0 0 1-.568 1.325.783.783 0 0 1-.824 1.182.784.784 0 0 1-1.044.994.784.784 0 0 1-1.222.763.783.783 0 0 1-.51.699c-.304.112 0 0 0 0a.783.783 0 0 1-.842-.197.783.783 0 0 1-1.425.218.782.782 0 0 1-.703.44h-.04Z"/>
    <path fill="#338AF3" d="M12 17.23a5.217 5.217 0 1 0 0-10.436 5.217 5.217 0 0 0 0 10.435Z"/>
    <path fill="#BDBCC1" d="M13.141 10.24a1.04 1.04 0 0 0 .423-.837v-.522c0-.576-.467-1.043-1.043-1.043h-1.044c-.576 0-1.043.467-1.043 1.043v.522c0 .344.167.647.423.838l-.945 9.597s.522.521 2.087.521c1.565 0 2.087-.521 2.087-.521l-.945-9.597Z"/>
    <path fill="#F0F0F0" d="m12 7.838.907 2.79h2.933l-2.373 1.724.906 2.79L12 13.418l-2.373 1.724.906-2.79-2.373-1.724h2.934L12 7.838Z"/>
  </g>
  <defs>
    <clipPath id="a">
      <path fill="#fff" d="M0 .012h24v24H0z"/>
    </clipPath>
  </defs>
</svg>
