<svg xmlns="http://www.w3.org/2000/svg" width="24" height="25" fill="none" viewBox="0 0 24 25">
  <g clip-path="url(#a)">
    <path fill="#F0F0F0" d="M12 24.012c6.627 0 12-5.373 12-12 0-6.628-5.373-12-12-12s-12 5.372-12 12c0 6.627 5.373 12 12 12Z"/>
    <path fill="#000" d="M7.305 7.838h15.95C21.558 3.268 17.16.012 12 .012a11.96 11.96 0 0 0-8.485 3.515l3.789 4.31Z"/>
    <path fill="#6DA544" d="M7.305 16.186h15.95c-1.696 4.57-6.095 7.826-11.254 7.826a11.961 11.961 0 0 1-8.485-3.515l3.789-4.311Z"/>
    <path fill="#D80027" d="M3.515 3.526c-4.687 4.687-4.687 12.285 0 16.971L12 12.012 3.515 3.526Z"/>
  </g>
  <defs>
    <clipPath id="a">
      <path fill="#fff" d="M0 .012h24v24H0z"/>
    </clipPath>
  </defs>
</svg>
