<svg xmlns="http://www.w3.org/2000/svg" width="24" height="25" fill="none" viewBox="0 0 24 25">
  <g clip-path="url(#a)">
    <path fill="#F0F0F0" d="M12 24.023c6.627 0 12-5.372 12-12 0-6.627-5.373-12-12-12s-12 5.373-12 12c0 6.628 5.373 12 12 12Z"/>
    <path fill="#D80027" d="M12 .023v12L3.517 20.51A11.962 11.962 0 0 0 12 24.023c6.627 0 12-5.372 12-12 0-6.627-12-12-12-12Z"/>
    <path fill="#0052B4" d="M12 .023a11.963 11.963 0 0 0-8.484 3.515L12 12.023h12c0-6.627-5.373-12-12-12Z"/>
    <path fill="#FFDA44" d="m8.216 12.024-1.465-.69.78-1.42-1.591.305-.202-1.607L4.63 9.794 3.52 8.612l-.202 1.607-1.59-.304.78 1.42-1.466.688 1.466.69-.78 1.42 1.59-.305.202 1.607 1.109-1.182 1.108 1.182.202-1.607 1.591.304-.78-1.42 1.465-.688ZM3.2 4.72l.488.68.799-.252-.498.674.487.682-.795-.265-.497.674.006-.838-.795-.265.799-.253.006-.838Zm0 12.414.488.681.799-.253-.498.675.487.681-.795-.265-.497.675.006-.838-.795-.265.799-.253.006-.838Zm6.956-6.208-.488.682-.799-.253.498.674-.488.682.795-.265.498.675-.006-.838.795-.265-.799-.254-.006-.838Z"/>
  </g>
  <defs>
    <clipPath id="a">
      <path fill="#fff" d="M0 .023h24v24H0z"/>
    </clipPath>
  </defs>
</svg>
