<svg xmlns="http://www.w3.org/2000/svg" width="24" height="25" fill="none" viewBox="0 0 24 25">
  <g clip-path="url(#a)">
    <path fill="#F0F0F0" d="M12 24.023c6.627 0 12-5.372 12-12 0-6.627-5.373-12-12-12s-12 5.373-12 12c0 6.628 5.373 12 12 12Z"/>
    <path fill="#751A46" d="M24 12.023c0-6.627-5.373-12-12-12-2.348 0-4.538.675-6.387 1.84l2.63 1.118-3.548 1.507 3.548 1.508-3.548 1.507L8.243 9.01l-3.548 1.507 3.548 1.507-3.548 1.508 3.548 1.507-3.548 1.507 3.548 1.507-3.548 1.507 3.548 1.508-2.629 1.116A11.944 11.944 0 0 0 12 24.024c6.627 0 12-5.373 12-12Z"/>
  </g>
  <defs>
    <clipPath id="a">
      <path fill="#fff" d="M0 .023h24v24H0z"/>
    </clipPath>
  </defs>
</svg>
