<svg xmlns="http://www.w3.org/2000/svg" width="24" height="25" fill="none" viewBox="0 0 24 25">
  <g clip-path="url(#a)">
    <path fill="#FCFCFC" d="M12 24.023c6.627 0 12-5.372 12-12 0-6.627-5.373-12-12-12s-12 5.373-12 12c0 6.628 5.373 12 12 12Z"/>
    <path fill="#D80027" d="M15.652 9.937v1.043h1.432a6.291 6.291 0 0 1-2.319 1.965 1.305 1.305 0 0 0-2.212.619 6.33 6.33 0 0 1-1.107 0 1.304 1.304 0 0 0-2.212-.619 6.29 6.29 0 0 1-2.319-1.965h1.432V9.937H4.695a7.304 7.304 0 0 0 14.609 0h-3.652Z"/>
  </g>
  <defs>
    <clipPath id="a">
      <path fill="#fff" d="M0 .023h24v24H0z"/>
    </clipPath>
  </defs>
</svg>
