<svg xmlns="http://www.w3.org/2000/svg" width="24" height="25" fill="none" viewBox="0 0 24 25">
  <g clip-path="url(#a)">
    <path fill="#F0F0F0" d="M12 24.035c6.627 0 12-5.372 12-12 0-6.627-5.373-12-12-12s-12 5.373-12 12c0 6.628 5.373 12 12 12Z"/>
    <path fill="#0052B4" d="M23.254 16.209c.482-1.3.746-2.706.746-4.174 0-1.468-.264-2.874-.746-4.174H.746A11.974 11.974 0 0 0 0 12.035c0 1.468.264 2.874.746 4.174L12 17.253l11.254-1.044Z"/>
    <path fill="#D80027" d="M12 24.035c5.16 0 9.558-3.256 11.253-7.826H.746C2.442 20.78 6.84 24.035 12 24.035Z"/>
  </g>
  <defs>
    <clipPath id="a">
      <path fill="#fff" d="M0 .035h24v24H0z"/>
    </clipPath>
  </defs>
</svg>
