<svg xmlns="http://www.w3.org/2000/svg" width="24" height="25" fill="none" viewBox="0 0 24 25">
  <g clip-path="url(#a)">
    <path fill="#FFDA44" d="M0 12.035c0 2.08.529 4.034 1.46 5.74L12 18.817l10.54-1.044A11.937 11.937 0 0 0 24 12.034l-12-1.043-12 1.043Z"/>
    <path fill="#338AF3" d="M22.54 6.296A11.997 11.997 0 0 0 12 .036a11.997 11.997 0 0 0-12 12h24c0-2.08-.529-4.035-1.46-5.74Z"/>
    <path fill="#496E2D" d="M12 24.035c4.548 0 8.506-2.53 10.54-6.26H1.46A11.997 11.997 0 0 0 12 24.035Z"/>
    <path fill="#FFDA44" d="m13.565 7.058 1.465.69-.78 1.419 1.591-.305.202 1.608 1.108-1.182 1.109 1.182.201-1.608 1.592.305-.78-1.42 1.465-.689-1.466-.69.78-1.419-1.59.305-.203-1.608-1.108 1.182-1.108-1.182-.202 1.608-1.591-.305.78 1.42-1.465.689Z"/>
  </g>
  <defs>
    <clipPath id="a">
      <path fill="#fff" d="M0 .035h24v24H0z"/>
    </clipPath>
  </defs>
</svg>
