<svg xmlns="http://www.w3.org/2000/svg" width="24" height="25" fill="none" viewBox="0 0 24 25">
  <g clip-path="url(#a)">
    <path fill="#D80027" d="M24 12.035c0 6.628-5.373 12-12 12s-12-5.372-12-12l12-12c6.627 0 12 5.373 12 12Z"/>
    <path fill="#0052B4" d="M12 12.035v-12c-6.627 0-12 5.373-12 12h12Z"/>
    <path fill="#F0F0F0" d="m9.612 7.861.194.598h.629l-.509.37.194.598-.508-.37-.509.37.195-.598-.509-.37h.629l.194-.598ZM6.455 3.166l.324.996h1.048l-.848.616.324.996-.848-.616-.847.616.324-.996-.848-.616h1.048l.323-.996ZM9.584 4.21l.324.996h1.048l-.848.615.324.997-.848-.616-.847.616.324-.997-.848-.615H9.26l.323-.997ZM7.11 8.383l.324.997H8.48l-.847.615.323.997-.847-.616-.848.616.324-.997-.848-.615h1.048l.324-.997ZM4.368 5.774l.323.997H5.74l-.848.616.324.996-.847-.616-.848.616.324-.996-.848-.616h1.048l.324-.997Z"/>
  </g>
  <defs>
    <clipPath id="a">
      <path fill="#fff" d="M0 .035h24v24H0z"/>
    </clipPath>
  </defs>
</svg>
