<svg xmlns="http://www.w3.org/2000/svg" width="24" height="25" fill="none" viewBox="0 0 24 25">
  <g clip-path="url(#a)">
    <path fill="#F0F0F0" d="M12 24.048c6.627 0 12-5.373 12-12 0-6.628-5.373-12-12-12s-12 5.372-12 12c0 6.627 5.373 12 12 12Z"/>
    <path fill="#D80027" d="M23.898 10.483H13.565V.149a12.12 12.12 0 0 0-3.13 0v10.334H.102a12.12 12.12 0 0 0 0 3.13h10.333v10.333a12.121 12.121 0 0 0 3.13 0V13.613h10.333a12.12 12.12 0 0 0 0-3.13Z"/>
    <path fill="#000" d="M17.74 4.222c-.973 0-1.79.665-2.021 1.565l2.021.522 2.021-.522a2.088 2.088 0 0 0-2.021-1.565Zm-2.087 4.695 2.608.522V8.33a2.09 2.09 0 0 0 1.5-1.499L17.74 6.31h-2.61l.523 1.565v1.043Z"/>
    <path fill="#ACABB1" d="M19.76 5.787h-4.63v2.087h.523V6.83h4.108a2.092 2.092 0 0 0 0-1.043Z"/>
    <path fill="#000" d="M6.783 4.222c-.973 0-1.79.665-2.021 1.565l2.02.522 2.022-.522a2.088 2.088 0 0 0-2.021-1.565ZM4.696 8.917l2.608.522V8.33a2.09 2.09 0 0 0 1.5-1.499L6.783 6.31h-2.61l.523 1.565v1.043Z"/>
    <path fill="#ACABB1" d="M8.804 5.787h-4.63v2.087h.522V6.83h4.108a2.09 2.09 0 0 0 0-1.043Z"/>
    <path fill="#000" d="M17.74 14.656c-.973 0-1.79.666-2.021 1.566l2.021.521 2.021-.521a2.088 2.088 0 0 0-2.021-1.566Zm-2.087 4.696 2.608.522v-1.11a2.09 2.09 0 0 0 1.5-1.499l-2.021-.521h-2.61l.523 1.565v1.043Z"/>
    <path fill="#ACABB1" d="M19.76 16.222h-4.63v2.087h.523v-1.044h4.108a2.091 2.091 0 0 0 0-1.043Z"/>
    <path fill="#000" d="M6.783 14.656c-.973 0-1.79.666-2.021 1.566l2.02.521 2.022-.521a2.088 2.088 0 0 0-2.021-1.566Zm-2.087 4.696 2.608.522v-1.11a2.09 2.09 0 0 0 1.5-1.499l-2.021-.521h-2.61l.523 1.565v1.043Z"/>
    <path fill="#ACABB1" d="M8.804 16.222h-4.63v2.087h.522v-1.044h4.108a2.09 2.09 0 0 0 0-1.043Z"/>
  </g>
  <defs>
    <clipPath id="a">
      <path fill="#fff" d="M0 .048h24v24H0z"/>
    </clipPath>
  </defs>
</svg>
