<svg xmlns="http://www.w3.org/2000/svg" width="24" height="25" fill="none" viewBox="0 0 24 25">
  <g clip-path="url(#a)">
    <path fill="#F0F0F0" d="M12 24.047c6.627 0 12-5.373 12-12 0-6.628-5.373-12-12-12s-12 5.372-12 12c0 6.627 5.373 12 12 12Z"/>
    <path fill="#0052B4" d="M19.305 2.527a11.946 11.946 0 0 0-7.306-2.48c-2.75 0-5.282.925-7.306 2.48L12 9.834l7.306-7.306ZM2.48 4.741A11.947 11.947 0 0 0 0 12.047c0 2.75.925 5.282 2.48 7.306l7.306-7.306L2.481 4.74Zm2.213 16.825A11.946 11.946 0 0 0 12 24.046c2.75 0 5.283-.924 7.306-2.48L12 14.261l-7.306 7.305Zm16.826-2.213a11.946 11.946 0 0 0 2.48-7.306c0-2.75-.925-5.282-2.48-7.306l-7.306 7.306 7.306 7.306Z"/>
  </g>
  <defs>
    <clipPath id="a">
      <path fill="#fff" d="M0 .047h24v24H0z"/>
    </clipPath>
  </defs>
</svg>
