<svg xmlns="http://www.w3.org/2000/svg" width="24" height="25" fill="none" viewBox="0 0 24 25">
  <g clip-path="url(#a)">
    <path fill="#F0F0F0" d="M23.254 16.233c.482-1.3.746-2.707.746-4.174 0-1.468-.264-2.874-.746-4.174L12 6.84.746 7.885A11.974 11.974 0 0 0 0 12.059c0 1.467.264 2.873.746 4.174L12 17.276l11.254-1.043Z"/>
    <path fill="#D80027" d="M12 24.059c5.16 0 9.558-3.257 11.253-7.826H.746C2.442 20.803 6.84 24.059 12 24.059Z"/>
    <path fill="#496E2D" d="M12 .059C6.84.059 2.442 3.315.746 7.885h22.507C21.558 3.315 17.16.059 12 .059Z"/>
    <path fill="#000" d="m12 9.45.648 1.993h2.096l-1.695 1.232.647 1.992-1.695-1.231-1.695 1.231.647-1.992-1.695-1.232h2.095l.648-1.993Z"/>
    <path fill="#F0F0F0" d="M15.565 2.406v2.435a.696.696 0 0 1-.696.696V6.58c.96 0 1.74-.78 1.74-1.739V2.406h-1.044ZM8.086 4.841a.696.696 0 0 1-.695.696V6.58A1.74 1.74 0 0 0 9.13 4.841V2.406H8.086v2.435Z"/>
    <path fill="#F0F0F0" d="M14 2.406h1.043v2.435H14V2.406Zm-1.565 1.392a.174.174 0 0 1-.348 0V2.406h-1.043v1.392a.174.174 0 0 1-.348 0V2.406H9.652v1.392a1.219 1.219 0 0 0 1.913.998 1.21 1.21 0 0 0 .85.209.696.696 0 0 1-.676.532V6.58c.96 0 1.74-.78 1.74-1.739V2.406h-1.044v1.392Z"/>
    <path fill="#F0F0F0" d="M9.652 5.537h1.566V6.58H9.651V5.537Z"/>
  </g>
  <defs>
    <clipPath id="a">
      <path fill="#fff" d="M0 .059h24v24H0z"/>
    </clipPath>
  </defs>
</svg>
