<svg xmlns="http://www.w3.org/2000/svg" width="24" height="25" fill="none" viewBox="0 0 24 25">
  <g clip-path="url(#a)">
    <path fill="#F0F0F0" d="M12 24.059c6.627 0 12-5.373 12-12 0-6.628-5.373-12-12-12s-12 5.372-12 12c0 6.627 5.373 12 12 12Z"/>
    <path fill="#000" d="M3.515 20.544c-4.687-4.687-4.687-12.284 0-16.97l6.92 8.485-6.92 8.485Z"/>
    <path fill="#FFDA44" d="M10.434 12.059 1.591 6.083a11.96 11.96 0 0 0-.724 1.489l4.477 4.487-4.477 4.487c.208.515.45 1.012.723 1.488l8.844-5.975Z"/>
    <path fill="#6DA544" d="M23.9 10.493H10.434l-6.92-6.92a12.046 12.046 0 0 0-1.923 2.51l5.965 5.976-5.965 5.975c.53.92 1.177 1.764 1.923 2.51l6.92-6.92H23.9a12.118 12.118 0 0 0 0-3.13Z"/>
    <path fill="#0052B4" d="M4.693 21.578A11.947 11.947 0 0 0 12 24.058c5.545 0 10.21-3.76 11.587-8.869H11.082l-6.389 6.389Z"/>
    <path fill="#D80027" d="M23.586 8.928c-1.377-5.11-6.042-8.87-11.587-8.87-2.75 0-5.282.926-7.306 2.481l6.39 6.39h12.503Z"/>
  </g>
  <defs>
    <clipPath id="a">
      <path fill="#fff" d="M0 .059h24v24H0z"/>
    </clipPath>
  </defs>
</svg>
