<svg xmlns="http://www.w3.org/2000/svg" width="24" height="25" fill="none" viewBox="0 0 24 25">
  <g clip-path="url(#a)">
    <path fill="#F0F0F0" d="M12 24.07c6.627 0 12-5.372 12-12 0-6.627-5.373-12-12-12s-12 5.373-12 12c0 6.628 5.373 12 12 12Z"/>
    <path fill="#D80027" d="M12 .07C6.84.07 2.442 3.327.746 7.896h22.507C21.558 3.326 17.16.07 12 .07Z"/>
    <path fill="#000" d="M12 24.07c5.16 0 9.558-3.256 11.253-7.826H.746C2.442 20.814 6.84 24.07 12 24.07Z"/>
    <path fill="#6DA544" d="m7.17 9.2.648 1.994h2.096l-1.696 1.231.648 1.993-1.695-1.231-1.696 1.231.648-1.993-1.695-1.231h2.095L7.171 9.2Zm9.66 0 .648 1.994h2.096l-1.696 1.231.648 1.993-1.695-1.231-1.695 1.231.647-1.993-1.695-1.231h2.095l.648-1.993Z"/>
  </g>
  <defs>
    <clipPath id="a">
      <path fill="#fff" d="M0 .07h24v24H0z"/>
    </clipPath>
  </defs>
</svg>
