<svg xmlns="http://www.w3.org/2000/svg" width="24" height="25" fill="none" viewBox="0 0 24 25">
  <g clip-path="url(#a)">
    <path fill="#FFDA44" d="M12 24.49c6.627 0 12-5.372 12-12 0-6.627-5.373-12-12-12s-12 5.373-12 12c0 6.628 5.373 12 12 12Z"/>
    <path fill="#000" d="M3.515 20.976c.504.503 1.04.952 1.604 1.347L21.834 5.61a12.06 12.06 0 0 0-2.952-2.952L2.168 19.372c.395.563.844 1.1 1.347 1.604Z"/>
    <path fill="#6DA544" d="M3.514 4.005C-.27 7.79-.998 13.476 1.332 17.992l16.17-16.169C12.986-.507 7.3.22 3.514 4.005Z"/>
    <path fill="#338AF3" d="M20.485 20.976c3.786-3.786 4.513-9.472 2.182-13.988L6.498 23.158c4.516 2.33 10.202 1.603 13.987-2.182Z"/>
  </g>
  <defs>
    <clipPath id="a">
      <path fill="#fff" d="M0 .49h24v24H0z"/>
    </clipPath>
  </defs>
</svg>
