<svg xmlns="http://www.w3.org/2000/svg" width="24" height="25" fill="none" viewBox="0 0 24 25">
  <g clip-path="url(#a)">
    <path fill="#F0F0F0" d="M12 24.491c6.627 0 12-5.372 12-12 0-6.627-5.373-12-12-12s-12 5.373-12 12c0 6.628 5.373 12 12 12Z"/>
    <path fill="#0052B4" d="M23.254 8.317H.746A11.973 11.973 0 0 0 0 12.491c0 1.468.264 2.874.746 4.174h22.508c.482-1.3.746-2.706.746-4.174 0-1.468-.264-2.874-.746-4.174Z"/>
    <path fill="#D80027" d="M12 .491a11.972 11.972 0 0 0-9.096 4.174h18.194A11.972 11.972 0 0 0 12 .491Zm9.098 19.826H2.904a11.973 11.973 0 0 0 9.097 4.174c3.637 0 6.896-1.618 9.097-4.174Z"/>
  </g>
  <defs>
    <clipPath id="a">
      <path fill="#fff" d="M0 .491h24v24H0z"/>
    </clipPath>
  </defs>
</svg>
