<svg xmlns="http://www.w3.org/2000/svg" width="26" height="32" fill="none" viewBox="0 0 26 32">
  <path stroke="#1751D0" stroke-linecap="round" stroke-linejoin="round" stroke-width="1.5" d="M15 1v8a2 2 0 0 0 2 2h8m-4 20H5a4 4 0 0 1-4-4V5a4 4 0 0 1 4-4h9.71a3 3 0 0 1 2.177.937l7.29 7.695A3 3 0 0 1 25 11.695V27a4 4 0 0 1-4 4ZM11 16a2 2 0 1 1-4 0 2 2 0 0 1 4 0ZM6.706 26.175l2.905-3.397a.5.5 0 0 1 .742-.02l.835.878a.5.5 0 0 0 .753-.033l2.496-3.137a.5.5 0 0 1 .766-.02l5.062 5.723a.5.5 0 0 1-.375.831H7.086a.5.5 0 0 1-.38-.825Z"/>
</svg>
