<svg xmlns="http://www.w3.org/2000/svg" width="26" height="32" fill="none" viewBox="0 0 26 32">
  <path fill="#E12121" d="m24.178 9.632-.545.516.545-.516Zm-7.29-7.695-.545.516.544-.516ZM5.25 22.853a.75.75 0 1 0 1.5 0h-1.5ZM6 18v-.75a.75.75 0 0 0-.75.75H6Zm0 2.338a.75.75 0 0 0 0 1.5v-1.5ZM11.294 18v-.75a.75.75 0 0 0-.75.75h.75Zm0 4.853h-.75c0 .414.336.75.75.75v-.75ZM17.912 18v-.75a.75.75 0 0 0-.75.75h.75Zm3.088.75a.75.75 0 0 0 0-1.5v1.5Zm-3.838 4.103a.75.75 0 1 0 1.5 0h-1.5ZM21 20.956a.75.75 0 0 0 0-1.5v1.5Zm0 9.294H5v1.5h16v-1.5ZM1.75 27V5H.25v22h1.5ZM5 1.75h9.71V.25H5v1.5Zm19.25 9.945V27h1.5V11.695h-1.5Zm.472-2.579-7.29-7.695-1.089 1.032 7.29 7.695 1.09-1.032Zm1.028 2.58a3.75 3.75 0 0 0-1.028-2.58l-1.089 1.032c.396.418.617.972.617 1.547h1.5ZM14.71 1.75a2.25 2.25 0 0 1 1.633.703l1.089-1.032A3.75 3.75 0 0 0 14.71.25v1.5ZM5 30.25A3.25 3.25 0 0 1 1.75 27H.25A4.75 4.75 0 0 0 5 31.75v-1.5Zm16 1.5A4.75 4.75 0 0 0 25.75 27h-1.5A3.25 3.25 0 0 1 21 30.25v1.5ZM1.75 5A3.25 3.25 0 0 1 5 1.75V.25A4.75 4.75 0 0 0 .25 5h1.5Zm12.5-4v8h1.5V1h-1.5ZM17 11.75h8v-1.5h-8v1.5ZM14.25 9A2.75 2.75 0 0 0 17 11.75v-1.5c-.69 0-1.25-.56-1.25-1.25h-1.5Zm-7.5 13.853V18h-1.5v4.853h1.5ZM6 18.75h1.544v-1.5H6v1.5Zm1.544 1.588H6v1.5h1.544v-1.5Zm.794-.794a.794.794 0 0 1-.794.794v1.5a2.294 2.294 0 0 0 2.294-2.294h-1.5Zm-.794-.794c.439 0 .794.355.794.794h1.5a2.294 2.294 0 0 0-2.294-2.294v1.5Zm3.75 0h1.985v-1.5h-1.985v1.5Zm1.985 3.353h-1.985v1.5h1.985v-1.5Zm-1.235.75V18h-1.5v4.853h1.5Zm2.912-2.427c0 .926-.75 1.677-1.677 1.677v1.5a3.176 3.176 0 0 0 3.177-3.177h-1.5Zm-1.677-1.676c.926 0 1.677.75 1.677 1.677h1.5a3.177 3.177 0 0 0-3.177-3.177v1.5Zm4.633 0H21v-1.5h-3.088v1.5Zm.75 4.103v-2.647h-1.5v2.647h1.5Zm0-2.647V18h-1.5v2.206h1.5Zm-.75.75H21v-1.5h-3.088v1.5Z"/>
</svg>
