<svg xmlns="http://www.w3.org/2000/svg" width="35" height="25" fill="none" viewBox="0 0 35 25">
  <g clip-path="url(#a)">
    <path fill="#ED2024" d="M0 .873h35v24H0v-24Z"/>
    <path fill="#212121" d="M12.639 5.753v6.4l2.76 1-1.944 1.96.934 1.2 2.06-2.2.467.92-1.166 1.96 1.4 2.24-.7 1.04 1.089 1.44 1.05-1.48-.584-1.04 1.167-2.32-1.05-1.84.467-.92 2.022 2.2.972-1.16-2.022-2.04 2.8-1.04v-6.32l-2.022.76-.04 1.52-1.282.12v-1.04l.66-.92 2.178-.88-.894-.16.544-.48.35.16-.31-.56-.545.2-.39-.44-2.138.44.544.44-1.477 1.96-1.478-1.92.505-.44-1.944-.48-.544.44-.584-.16-.31.56.35-.24.621.44-.894.2 2.139.8.622.92v1.16l-1.283-.12v-1.44l-2.1-.84Z"/>
    <path fill="#212121" d="M10.19 10.873h2.488v1H10.19v-1Zm0-1.64h2.488v1.08H10.19v-1.08Zm0-1.68h2.488v1.04H10.19v-1.04Zm0-1.6h2.488v1H10.19v-1Zm12.132 4.92h2.49v1h-2.49v-1Zm0-1.64h2.49v1.08h-2.49v-1.08Zm0-1.68h2.49v1.04h-2.49v-1.04Zm0-1.6h2.49v1h-2.49v-1Zm-1.556 9.36h2.49v.76h-2.49v-.76Zm-9.022 0h2.489v.76h-2.489v-.76Z"/>
  </g>
  <defs>
    <clipPath id="a">
      <rect width="35" height="24" y=".873" fill="#fff" rx="4"/>
    </clipPath>
  </defs>
</svg>
