<svg xmlns="http://www.w3.org/2000/svg" width="35" height="24" fill="none" viewBox="0 0 35 24">
  <g clip-path="url(#a)">
    <path fill="#EF3340" d="M0 0h35v24H0V0Z"/>
    <path fill="#00B5E2" d="M0 0h35v8H0V0Z"/>
    <path fill="#509E2F" d="M0 16h35v8H0v-8Z"/>
    <path fill="#fff" d="M18.12 14.92c-1.57 0-2.838-1.306-2.838-2.92 0-1.614 1.269-2.92 2.838-2.92.491 0 .948.127 1.35.352a3.442 3.442 0 0 0-2.442-1.025c-1.93 0-3.493 1.607-3.493 3.593s1.563 3.593 3.493 3.593c.949 0 1.815-.393 2.443-1.025-.403.225-.86.351-1.351.351Z"/>
    <path fill="#fff" d="m20.303 9.979.375 1.088 1.017-.499-.485 1.046 1.058.386-1.058.386.485 1.046-1.017-.499-.375 1.088-.375-1.088-1.017.498.484-1.045L18.338 12l1.057-.386-.484-1.046 1.017.499.375-1.088Z"/>
  </g>
  <defs>
    <clipPath id="a">
      <rect width="35" height="24" fill="#fff" rx="4"/>
    </clipPath>
  </defs>
</svg>
