<svg xmlns="http://www.w3.org/2000/svg" width="35" height="25" fill="none" viewBox="0 0 35 25">
  <g clip-path="url(#a)">
    <path fill="#10338C" d="M0 .033h35.007v24H0v-24Z"/>
    <path fill="#F6C500" d="M6.816.033H30.15v24"/>
    <path fill="#fff" d="M1.357 1.514 2.75.468l1.406 1.039L3.684.033H1.82l-.464 1.48Z"/>
    <path fill="#fff" d="M6.297 1.823 5.758.124l-.532 1.699H3.5L4.899 2.86l-.533 1.684 1.392-1.038 1.406 1.038-.54-1.684 1.4-1.045-1.727.007Z"/>
    <path fill="#fff" d="m9.3 4.89-.533-1.685-.532 1.684h-1.72l1.392 1.046-.532 1.684 1.392-1.038 1.405 1.038-.532-1.684 1.392-1.046H9.3Z"/>
    <path fill="#fff" d="m12.24 7.914-.533-1.691-.532 1.69H9.45l1.399 1.046-.532 1.685 1.391-1.039 1.406 1.039-.539-1.684 1.399-1.053-1.733.007Z"/>
    <path fill="#fff" d="m15.18 10.931-.532-1.684-.532 1.684h-1.733l1.405 1.053-.532 1.684 1.392-1.045 1.392 1.045-.532-1.684 1.405-1.053H15.18Z"/>
    <path fill="#fff" d="m18.122 13.956-.533-1.684-.532 1.684h-1.733l1.406 1.046-.532 1.69 1.391-1.045 1.392 1.046-.532-1.698 1.399-1.039h-1.726Z"/>
    <path fill="#fff" d="m21.06 16.98-.538-1.684-.532 1.685h-1.726l1.398 1.038-.539 1.698 1.406-1.045 1.392 1.038-.533-1.69 1.4-1.04H21.06Z"/>
    <path fill="#fff" d="m23.995 20.005-.532-1.698-.532 1.698h-1.726l1.392 1.039-.532 1.691 1.398-1.046 1.399 1.046-.532-1.691 1.392-1.039h-1.727Z"/>
    <path fill="#fff" d="m26.404 21.331-.54 1.692-1.725.007 1.35 1.003h1.815l1.358-1.01h-1.726l-.532-1.692Z"/>
  </g>
  <defs>
    <clipPath id="a">
      <rect width="35" height="24" y=".033" fill="#fff" rx="4"/>
    </clipPath>
  </defs>
</svg>
