<svg xmlns="http://www.w3.org/2000/svg" width="35" height="25" fill="none" viewBox="0 0 35 25">
  <g clip-path="url(#a)">
    <path fill="#FFC726" d="M0 .1h35v24H0V.1Z"/>
    <path fill="#00267F" d="M0 .1h11.667v24H0V.1Zm23.333 0H35v24H23.333V.1Z"/>
    <path fill="#000" d="m22.224 7.19-2.181.87c-.047.094-.395.528-.558 3.723H18.32v-4.24l-.855-1.922-.856 1.895v4.267h-1.164c-.163-3.195-.532-3.683-.578-3.778l-2.161-.817c.01.022 1.05 2.2 1.05 5.475v.88h2.853v4.987h1.711v-4.987h2.853v-.88c0-1.694.284-3.09.524-3.962.26-.953.525-1.508.528-1.514l-.002.002Z"/>
  </g>
  <defs>
    <clipPath id="a">
      <rect width="35" height="24" y=".1" fill="#fff" rx="4"/>
    </clipPath>
  </defs>
</svg>
