<svg xmlns="http://www.w3.org/2000/svg" width="35" height="25" fill="none" viewBox="0 0 35 25">
  <g clip-path="url(#a)">
    <path fill="#C8102E" d="M0 .035h35v24H0v-24Z"/>
    <path fill="#012169" d="M0 .042h17.5v12H0v-12Z"/>
    <path fill="#fff" d="M17.466.035h-1.542l-5.008 3.431V.035H6.55v3.431L1.542.035H0v1.593l3.145 2.154H0v4.491h3.145L0 10.428v1.586h1.542L6.55 8.582v3.432h4.366V8.582l5.008 3.432h1.542v-1.586L14.32 8.273h3.145V3.782H14.32l3.145-2.154V.035Z"/>
    <path fill="#C8102E" d="M9.825.035H7.64v4.87H0V7.15h7.641v4.864h2.184V7.15h7.64V4.905h-7.64V.035Z"/>
    <path fill="#C8102E" d="M0 12.014v-.772l4.264-2.969h1.542l-5.308 3.74H0ZM.498.042l5.308 3.733H4.264L0 .814V.042h.498Zm16.968 0v.772l-4.264 2.968H11.66l5.308-3.74h.498Zm-.498 11.972-5.308-3.74h1.542l4.264 2.968v.772h-.498Z"/>
    <path fill="#fff" d="M21.621 7.048v6.996c0 4.197 5.441 6.996 5.441 6.996s5.441-2.799 5.441-6.996V7.048H21.621Z"/>
    <path fill="#2F8F22" d="M30.659 18.241h-7.194c1.578 1.76 3.597 2.799 3.597 2.799s2.018-1.04 3.597-2.8Z"/>
    <path fill="#65B5D2" d="M27.063 18.241c1.502 0 2.72-1.253 2.72-2.799 0-1.545-1.218-2.798-2.72-2.798-1.503 0-2.721 1.253-2.721 2.798 0 1.546 1.218 2.799 2.72 2.799Z"/>
    <path fill="#C8102E" d="M24.34 15.443c.752 0 1.361-.626 1.361-1.4 0-.772-.609-1.398-1.36-1.398-.751 0-1.36.626-1.36 1.399s.609 1.4 1.36 1.4Zm5.442 0c.752 0 1.36-.626 1.36-1.4 0-.772-.608-1.398-1.36-1.398-.751 0-1.36.626-1.36 1.399s.609 1.4 1.36 1.4Zm-2.72-2.798c.75 0 1.36-.627 1.36-1.4 0-.773-.61-1.399-1.36-1.399-.752 0-1.36.626-1.36 1.4 0 .772.608 1.399 1.36 1.399Z"/>
  </g>
  <defs>
    <clipPath id="a">
      <rect width="35" height="24" y=".035" fill="#fff" rx="4"/>
    </clipPath>
  </defs>
</svg>
