<svg xmlns="http://www.w3.org/2000/svg" width="35" height="25" fill="none" viewBox="0 0 35 25">
  <g clip-path="url(#a)">
    <path fill="#003E87" d="M0 .134h35v24H0v-24Z"/>
    <path fill="#fff" d="M17.835 20.512c4.489 0 8.128-3.743 8.128-8.36 0-4.618-3.64-8.362-8.128-8.362-4.489 0-8.128 3.744-8.128 8.361 0 4.618 3.639 8.361 8.128 8.361Z"/>
    <path stroke="#6DA544" stroke-miterlimit="10" stroke-width="18" d="M17.903 18.951c3.568 0 6.46-2.975 6.46-6.645 0-3.67-2.892-6.645-6.46-6.645-3.567 0-6.46 2.975-6.46 6.645 0 3.67 2.893 6.645 6.46 6.645Z"/>
    <path fill="#003E87" stroke="#000" d="m17.902 10.787-3.459 1.646v1.406c0 .83.417 1.603 1.108 2.032l2.358 1.07 2.359-1.07a2.412 2.412 0 0 0 1.107-2.032v-1.406l-3.473-1.646Z"/>
    <path fill="#FFDA44" stroke="#000" d="M14.443 9.142h6.925v3.284h-6.925V9.142Z"/>
    <path fill="#CE1127" d="M0 .134h35v2.461H0V.134ZM0 21.65h35v2.462H0V21.65Z"/>
  </g>
  <defs>
    <clipPath id="a">
      <rect width="35" height="24" y=".134" fill="#fff" rx="4"/>
    </clipPath>
  </defs>
</svg>
