<svg xmlns="http://www.w3.org/2000/svg" width="35" height="25" fill="none" viewBox="0 0 35 25">
  <g clip-path="url(#a)">
    <path fill="#0021AD" d="M0 .669h35v24H0v-24Z"/>
    <path fill="#1C8A42" d="M0 .669h35v24"/>
    <path fill="#fff" d="m5.305 19.796.39.837.874-.211-.39.836.705.57-.875.204v.928l-.704-.584-.698.584v-.928l-.875-.204.705-.57-.397-.836.882.21.383-.836ZM2.769 12.84l.39.837.874-.211-.39.83.705.576-.882.204.007.929-.704-.584-.705.584.007-.929-.882-.204.711-.576-.396-.83.875.211.39-.837Zm2.536-5.689.39.83.874-.204-.39.83.705.577-.875.204v.92l-.704-.576-.698.577v-.921l-.875-.204.705-.577-.397-.83.882.204.383-.83Zm3.151 4.423.39.837.875-.21-.39.836.704.57-.875.204v.928l-.704-.577-.697.577v-.928l-.875-.204.704-.57-.39-.837.875.211.383-.837Zm-2.249 3.798.3.963H7.5l-.8.598.308.963-.8-.59-.8.59.308-.963-.8-.598H5.9l.308-.963Z"/>
    <path fill="#FFC639" d="M18.259 17.911c2.812 0 5.093-2.345 5.093-5.239 0-2.893-2.28-5.238-5.093-5.238s-5.093 2.345-5.093 5.238c0 2.894 2.28 5.24 5.093 5.24Z"/>
    <path fill="#1C8A42" d="M18.258 16.16h1.695s.738-1.336 0-2.616l1.695-1.743-.847-1.744h-.848s-.424 1.308-2.119 1.308c-1.695 0-2.12-1.308-2.12-1.308h-.847l.848 1.744-.848 1.743.848.872s.848-1.744 2.543-.872c0 0 .718 1.09 0 2.616Z"/>
    <path fill="#FFC639" d="M31.745 7.152c.041-.204-.014-1.237-.014-1.455 0-1.498-.95-2.77-2.27-3.214.404.844.63 1.786.63 2.792 0 .337-.027.668-.075.991a3.436 3.436 0 0 0-.766-.886 3.297 3.297 0 0 0-3.958-.175 6.168 6.168 0 0 1 2.577 1.265c.615.5 1.108 1.182 1.483 1.836 0 0-1.216.766-2.119 1.061-.902.296-2.891.556-2.891.556 4.922.844 9.023-2.532 9.023-2.532-.444-.942-1.08-.28-1.62-.239Z"/>
  </g>
  <defs>
    <clipPath id="a">
      <rect width="35" height="24" y=".669" fill="#fff" rx="4"/>
    </clipPath>
  </defs>
</svg>
