<svg xmlns="http://www.w3.org/2000/svg" width="35" height="25" fill="none" viewBox="0 0 35 25">
  <g clip-path="url(#a)">
    <path fill="#FFDA44" d="M0 .1h35v24H0V.1Z"/>
    <path fill="#0052B4" d="M0 12.104h35v5.998H0v-5.998Z"/>
    <path fill="#D80027" d="M0 18.102h35V24.1H0v-5.998Z"/>
    <path fill="#FFDA44" d="M17.5 16.28c2.243 0 4.06-1.87 4.06-4.176 0-2.307-1.817-4.177-4.06-4.177-2.243 0-4.06 1.87-4.06 4.177 0 2.307 1.817 4.177 4.06 4.177Z"/>
    <path fill="#4C1F00" d="M25.238 5.719s-1.86-.97-2.317-1.126c-.458-.154-3.357-.928-3.357-.492 0 .725-.922.844-1.06.844-.136 0-.136-.373-1.01-.373-.876 0-.937.338-1.08.338-.151 0-.992-.07-.992-.809 0-.365-2.933.282-3.357.492-.417.218-2.317 1.126-2.317 1.126s3.13.19 3.685.436c.553.246 2.994 1.16 2.994 1.16l-.192.935h2.584l-.26-.935s2.4-.893 2.995-1.16c.594-.268 3.684-.436 3.684-.436Z"/>
    <path fill="#57BA17" d="M14.883 12.174c0 1.484 1.176 2.693 2.618 2.693s2.618-1.21 2.618-2.693v-.809h-5.23v.809h-.006Z"/>
    <path fill="#338AF3" d="M17.501 7.87c-1.442 0-2.618 1.21-2.618 2.694v.808h5.23v-.808c.006-1.484-1.17-2.694-2.612-2.694Z"/>
  </g>
  <defs>
    <clipPath id="a">
      <rect width="35" height="24" y=".1" fill="#fff" rx="4"/>
    </clipPath>
  </defs>
</svg>
