<svg xmlns="http://www.w3.org/2000/svg" width="35" height="25" fill="none" viewBox="0 0 35 25">
  <g clip-path="url(#a)">
    <path fill="#338AF3" d="M0 .501h35v24H0v-24Z"/>
    <path fill="#56AF35" d="M0 .501h35v12.004H0V.501Z"/>
    <path fill="#D80027" d="m0 24.502 35-12.004L0 .5v24Z"/>
    <path fill="#FFC945" d="M9.207 16.78c2.297 0 4.156-1.912 4.156-4.275 0-2.363-1.86-4.275-4.156-4.275-2.297 0-4.156 1.912-4.156 4.275 0 2.363 1.86 4.275 4.156 4.275Zm0 1.71c-3.213 0-5.824-2.68-5.824-5.992s2.604-5.991 5.824-5.991c3.22 0 5.824 2.679 5.824 5.991s-2.611 5.991-5.824 5.991Z"/>
    <path fill="#FFC945" d="M8.169 12.16c.66 0 1.196-.55 1.196-1.23 0-.68-.535-1.23-1.196-1.23-.66 0-1.196.55-1.196 1.23 0 .68.535 1.23 1.196 1.23Z"/>
    <path fill="#FFC945" d="M10.177 12.878c.66 0 1.196-.551 1.196-1.23 0-.68-.535-1.232-1.196-1.232-.66 0-1.197.551-1.197 1.231s.536 1.23 1.197 1.23Z"/>
    <path fill="#FFC945" d="M9.206 11.24c.66 0 1.196-.552 1.196-1.231 0-.68-.535-1.23-1.196-1.23-.66 0-1.196.55-1.196 1.23 0 .68.535 1.23 1.196 1.23Zm-1.037 2.636c.66 0 1.196-.55 1.196-1.23 0-.68-.535-1.231-1.196-1.231-.66 0-1.196.551-1.196 1.23 0 .68.535 1.231 1.196 1.231Z"/>
    <path fill="#FFC945" d="M10.245 14.586c.66 0 1.196-.55 1.196-1.23 0-.68-.535-1.23-1.196-1.23-.66 0-1.196.55-1.196 1.23 0 .68.535 1.23 1.196 1.23Z"/>
    <path fill="#FFC945" d="M8.372 15.655c.66 0 1.196-.55 1.196-1.23 0-.68-.535-1.23-1.196-1.23-.66 0-1.196.55-1.196 1.23 0 .68.535 1.23 1.196 1.23Z"/>
    <path fill="#FFC945" d="M9.972 16.162c.66 0 1.196-.551 1.196-1.231s-.536-1.23-1.196-1.23c-.661 0-1.197.55-1.197 1.23 0 .68.536 1.23 1.197 1.23Z"/>
  </g>
  <defs>
    <clipPath id="a">
      <rect width="35" height="24" y=".501" fill="#fff" rx="4"/>
    </clipPath>
  </defs>
</svg>
