<svg xmlns="http://www.w3.org/2000/svg" width="35" height="25" fill="none" viewBox="0 0 35 25">
  <g clip-path="url(#a)">
    <path fill="#2E52B2" d="M0 .077h35v24H0v-24Z"/>
    <path fill="#fff" d="M17.5.077v1.589l-3.151 2.159H17.5v4.5h-3.151l3.151 2.159v1.596h-1.545l-5.018-3.445v3.445H6.564V8.635L1.545 12.08H0v-1.596l3.151-2.159H0v-4.5h3.151L0 1.665V.078h1.545l5.018 3.438V.077h4.375v3.438L15.954.077H17.5Z"/>
    <path fill="#D80027" d="M9.844.077H7.656V4.95H0V7.2h7.656v4.88h2.188V7.2H17.5V4.95H9.844V.077Z"/>
    <path fill="#D80027" d="M0 .077v1.061l3.924 2.687h1.545L0 .077Zm17.5 0v1.061l-3.924 2.687h-1.545L17.5.077Z"/>
    <path fill="#D80027" d="M0 .077v1.061l3.924 2.687h1.545L0 .077Zm17.5 0v1.061l-3.924 2.687h-1.545L17.5.077ZM0 12.08v-1.062l3.924-2.693h1.545L0 12.08Zm17.5 0v-1.062l-3.924-2.693h-1.545L17.5 12.08Z"/>
    <path fill="#F3F3F3" d="M20.992 9.014v6.47c0 4.331 5.503 5.66 5.503 5.66s5.496-1.336 5.496-5.667v-6.47L26.488 7.39l-5.496 1.624Z"/>
    <path fill="#D80027" d="M31.991 9.415V6.989H20.992v2.426h4.717v4.852h-4.717v1.617h4.717v5.007c.472.176.786.246.786.246s.315-.077.786-.246v-5.007h4.717v-1.617h-4.717V9.415h4.71Z"/>
  </g>
  <defs>
    <clipPath id="a">
      <rect width="35" height="24" y=".077" fill="#fff" rx="4"/>
    </clipPath>
  </defs>
</svg>
