<svg xmlns="http://www.w3.org/2000/svg" width="35" height="25" fill="none" viewBox="0 0 35 25">
  <g clip-path="url(#a)">
    <path fill="#0052B4" d="M0 .033h35v24H0v-24Z"/>
    <path fill="#fff" d="M17.5.033V8.29h-3.151l3.151 2.159v1.589h-1.545l-5.018-3.439v3.439H6.564v-3.44l-5.018 3.439H0v-1.59L3.151 8.29H0v-4.5h3.151L0 1.628V.033h1.545l5.018 3.439V.033h4.375v3.439L15.954.033H17.5Z"/>
    <path fill="#D80027" d="M9.844.033H7.656v4.88H0v2.25h7.656v4.874h2.188V7.164H17.5v-2.25H9.844V.033Z"/>
    <path fill="#2E52B2" d="M17.499 1.63v2.158h-3.151l3.151-2.159Z"/>
    <path fill="#D80027" d="M0 12.037v-.774L4.272 8.29h1.545L.5 12.037H0ZM.499.04l5.318 3.741H4.272L0 .814V.04h.499ZM17.5.04v.774l-4.273 2.974h-1.544L17 .04h.499Zm-.499 11.997-5.318-3.748h1.544l4.273 2.974v.774h-.499Z"/>
    <path fill="#fff" d="M30.31 19.519c1.095 0 1.983-1.37 1.983-3.06 0-1.689-.888-3.058-1.982-3.058-1.095 0-1.983 1.37-1.983 3.059 0 1.69.888 3.059 1.983 3.059Z"/>
    <path fill="#FFCE00" d="M27.816 23.028c.831 0 1.504-.293 1.504-.654 0-.361-.673-.654-1.504-.654-.83 0-1.503.293-1.503.654 0 .36.673.654 1.503.654Z"/>
    <path fill="#FFCE00" d="M24.883 23.028c.83 0 1.504-.293 1.504-.654 0-.361-.674-.654-1.504-.654s-1.504.293-1.504.654c0 .36.673.654 1.504.654Z"/>
    <path fill="#39B200" d="m23.379 13.4 2.967 6.112 2.973-6.111h-5.94Z"/>
    <path fill="#9B9B9B" d="M22.389 19.519c1.095 0 1.982-1.37 1.982-3.06 0-1.689-.887-3.058-1.982-3.058s-1.983 1.37-1.983 3.059c0 1.69.888 3.059 1.983 3.059Z"/>
    <path fill="#757575" d="m25.363 12.381-.99 1.02h3.957l-.991-1.02.991-3.059s-.889-2.039-1.982-2.039c-1.094 0-1.983 2.04-1.983 2.04l.998 3.058Z"/>
    <path fill="#C6B56F" d="M26.348 6.784c1.095 0 1.982-.913 1.982-2.04 0-1.126-.887-2.039-1.982-2.039s-1.983.913-1.983 2.04c0 1.126.888 2.039 1.983 2.039Z"/>
    <path fill="#A54A00" d="M26.389 8.31c1.095 0 1.982-.913 1.982-2.04 0-1.126-.887-2.039-1.982-2.039s-1.983.913-1.983 2.04c0 1.126.888 2.039 1.983 2.039Z"/>
    <path fill="#fff" d="M30.31 10.349c1.095 0 1.983-.913 1.983-2.04 0-1.125-.888-2.038-1.982-2.038-1.095 0-1.983.913-1.983 2.039 0 1.126.888 2.039 1.983 2.039Z"/>
    <path fill="#0049FF" d="M23.395 12.388c1.094 0 1.982-.913 1.982-2.039 0-1.126-.888-2.04-1.982-2.04-1.095 0-1.983.914-1.983 2.04s.888 2.04 1.983 2.04Z"/>
    <path fill="#0041F9" d="M29.38 12.388c1.096 0 1.983-.913 1.983-2.039 0-1.126-.887-2.04-1.982-2.04s-1.983.914-1.983 2.04.888 2.04 1.983 2.04Z"/>
    <path fill="#F7D71E" d="M26.389 18.5c1.095 0 1.982-.914 1.982-2.04 0-1.127-.887-2.04-1.982-2.04s-1.983.914-1.983 2.04.888 2.04 1.983 2.04Z"/>
    <path fill="#CEC851" d="M31.303 15.44c1.095 0 1.982-.913 1.982-2.039 0-1.126-.887-2.04-1.982-2.04s-1.983.914-1.983 2.04.888 2.04 1.983 2.04Z"/>
    <path fill="#fff" d="M26.348 22.43c1.095 0 1.982-.913 1.982-2.04 0-1.126-.887-2.039-1.982-2.039s-1.983.913-1.983 2.04c0 1.126.888 2.039 1.983 2.039Z"/>
    <path fill="#7C0B29" d="m25.363 9.576.992-.247.99.247c0 .527-.99.773-.99.773s-.992-.246-.992-.773Z"/>
    <path fill="#fff" d="M22.389 10.328c1.095 0 1.982-.913 1.982-2.04 0-1.126-.887-2.039-1.982-2.039s-1.983.913-1.983 2.04c0 1.126.888 2.039 1.983 2.039Z"/>
  </g>
  <defs>
    <clipPath id="a">
      <rect width="35" height="24" y=".033" fill="#fff" rx="4"/>
    </clipPath>
  </defs>
</svg>
