<svg xmlns="http://www.w3.org/2000/svg" width="35" height="25" fill="none" viewBox="0 0 35 25">
  <g clip-path="url(#a)">
    <path fill="#fff" d="M0 .668h35v24H0v-24Z"/>
    <path fill="#338AF3" d="M0 .668h11.667v24H0v-24Zm23.333 0H35v24H23.333v-24Z"/>
    <path fill="#DCC26D" d="M17.466 13.39c.961 0 1.74-.8 1.74-1.789 0-.988-.779-1.79-1.74-1.79-.96 0-1.74.802-1.74 1.79s.78 1.79 1.74 1.79Z"/>
    <path fill="#628A40" d="M13.25 11.608c0 1.551.805 2.983 2.101 3.755a.833.833 0 0 0 1.153-.316.883.883 0 0 0-.307-1.186 2.61 2.61 0 0 1-1.262-2.253.858.858 0 0 0-.846-.87c-.47 0-.839.386-.839.87Zm6.488 3.656a4.351 4.351 0 0 0 1.945-3.656.858.858 0 0 0-.846-.87.858.858 0 0 0-.846.87c0 .891-.444 1.72-1.167 2.197a.882.882 0 0 0-.28 1.193.83.83 0 0 0 1.16.287c.014-.007.02-.014.034-.02Z"/>
  </g>
  <defs>
    <clipPath id="a">
      <rect width="35" height="24" y=".668" fill="#fff" rx="4"/>
    </clipPath>
  </defs>
</svg>
