<svg xmlns="http://www.w3.org/2000/svg" width="35" height="25" fill="none" viewBox="0 0 35 25">
  <g clip-path="url(#a)">
    <path fill="#0052B4" d="M0 .167h35v24H0v-24Z"/>
    <path fill="#fff" d="m15.27 12.167.056-.065-.056.065Zm-2.336 2.948.75 1.61 1.69-.401-.757 1.607 1.36 1.11-1.693.392.005 1.786-1.355-1.118-1.354 1.118.004-1.786-1.693-.393 1.36-1.11-.758-1.606 1.692.402.75-1.611Zm13.526 2.001.357.768.807-.191-.362.766.65.53-.809.187.003.851-.646-.532-.646.532.002-.851-.808-.188.649-.529-.361-.766.806.191.358-.768Zm-3.324-8.152.357.769.807-.192-.361.766.648.53-.808.187.003.852-.646-.533-.646.533.002-.852-.808-.188.649-.529-.361-.766.806.192.358-.769Zm3.324-4.658.357.768.807-.192-.362.767.65.53-.809.187.003.851-.646-.533-.646.533.002-.851-.808-.188.649-.529-.361-.767.806.192.358-.768ZM29.363 7.8l.357.768.807-.192-.361.767.648.529-.807.187.002.852-.646-.533-.646.533.002-.852-.808-.187.649-.53-.361-.766.806.192.358-.768Zm-2.076 4.076.28.89h.91l-.735.55.28.889-.735-.55-.736.55.281-.89-.736-.55h.91l.28-.89ZM17.5.167v2.148L14.412 4.08H17.5v4.174h-4.04l4.04 2.308v1.605h-1.824l-5.024-2.87v2.87H6.848V8.75L.87 12.167H0v-2.149l3.088-1.764H0V4.08h4.04L0 1.77V.168h1.824l5.024 2.87V.168h3.804v3.415L16.63.167h.871Z"/>
    <path fill="#D80027" d="M9.844.167H7.656v4.875H0v2.25h7.656v4.875h2.188V7.292H17.5v-2.25H9.844V.167Z"/>
    <path fill="#0052B4" d="m10.652 8.254 6.848 3.913V11.06l-4.91-2.806h-1.937Z"/>
    <path fill="#fff" d="m10.652 8.254 6.848 3.913V11.06l-4.91-2.806h-1.937Z"/>
    <path fill="#D80027" d="m10.652 8.254 6.848 3.913V11.06l-4.911-2.806h-1.937Zm-5.74 0L0 11.06v1.107l6.848-3.913H4.91Z"/>
    <path fill="#0052B4" d="M6.848 4.08 0 .167v1.106L4.911 4.08h1.937Z"/>
    <path fill="#fff" d="M6.848 4.08 0 .167v1.106L4.911 4.08h1.937Z"/>
    <path fill="#D80027" d="M6.848 4.08 0 .167v1.106L4.911 4.08h1.937Zm5.74 0L17.5 1.273V.167L10.652 4.08h1.937Z"/>
  </g>
  <defs>
    <clipPath id="a">
      <rect width="35" height="24" y=".167" fill="#fff" rx="4"/>
    </clipPath>
  </defs>
</svg>
