<svg xmlns="http://www.w3.org/2000/svg" width="35" height="25" fill="none" viewBox="0 0 35 25">
  <g clip-path="url(#a)">
    <path fill="#E52D42" d="M0 .1h35v24H0V.1Z"/>
    <path fill="#fff" d="M26.833 4.886H23.71l-2.306 5.628-2.347-1.607S17.37 4.76 16.709 4.121c-.662-.68-1.276-.042-3.337.547-2.02.59-2.101 1.313-2.879 1.313-.327 0-1.357-1.228-1.89-1.565-.825-.548-1.153-.295-.948.505.082.337.744.765 1.153 1.397.532.807.866 1.817.866 1.817s.744-.723 1.154-.849c.614-.168 1.316.126 2.142 0 1.03-.168 2.142-.765 2.142-.765l.287 3.046s-3.705 3.558-3.377 4.954c.327 1.397 3.827 3.13 4.652 4.4.826 1.228-.49 1.691-.49 2.288 0 .596-.124 1.396.49 1.144.614-.253.703-1.27 1.276-2.204.41-.631.703-.975.785-1.228.123-.631-1.603-2.245-2.552-3.431-.45-.548-1.357-1.313-1.357-1.313L17.5 12.1s4.612 1.944 5.636 1.312c1.03-.631 1.316-6.898 1.316-6.898l3.207-.807-.826-.821Z"/>
    <path fill="#F8DD4E" d="M19.055 18.514a.796.796 0 0 1-.784-.807c0-.47.327-.807.784-.807.41 0 .785.337.785.807 0 .47-.375.807-.785.807ZM22.18 5.686a.796.796 0 0 1-.784-.807c0-.47.327-.807.784-.807.41 0 .785.337.785.807 0 .47-.375.807-.785.807Zm0 6.393a.796.796 0 0 1-.784-.807c0-.421.327-.807.784-.807.41 0 .785.337.785.807-.041.47-.375.807-.785.807Zm-9.34 3.214a.796.796 0 0 1-.785-.807c0-.421.328-.807.785-.807.45 0 .785.337.785.807 0 .47-.376.807-.785.807Zm3.084-9.607a.796.796 0 0 1-.785-.807c0-.47.328-.807.785-.807.41 0 .784.337.784.807 0 .47-.327.807-.784.807Zm1.562 6.393c-.41 0-.784-.723-.784-1.607s.327-1.607.784-1.607c.41 0 .785.723.785 1.607s-.328 1.607-.785 1.607ZM9.708 8.907a.796.796 0 0 1-.784-.807c0-.463.327-.807.784-.807.45 0 .785.337.785.807 0 .463-.328.807-.785.807Z"/>
  </g>
  <defs>
    <clipPath id="a">
      <rect width="35" height="24" y=".1" fill="#fff" rx="4"/>
    </clipPath>
  </defs>
</svg>
