<svg xmlns="http://www.w3.org/2000/svg" width="35" height="25" fill="none" viewBox="0 0 35 25">
  <g clip-path="url(#a)">
    <path fill="#181A93" d="M1.18.2h32.64v24H1.18V.2Z"/>
    <path fill="#FFA44A" d="M0 .2h35v8H0v-8Z"/>
    <path fill="#1A9F0B" d="M0 16.2h35v8H0v-8Z"/>
    <path fill="#fff" d="M0 8.2h35v8H0v-8Z"/>
    <path fill="#fff" d="M17.5 14.6c1.288 0 2.333-1.074 2.333-2.4 0-1.325-1.045-2.4-2.334-2.4-1.288 0-2.333 1.075-2.333 2.4 0 1.326 1.045 2.4 2.333 2.4Z"/>
    <path fill="#181A93" d="M17.5 15.4c-1.713 0-3.111-1.438-3.111-3.2 0-1.76 1.398-3.2 3.11-3.2 1.713 0 3.112 1.44 3.112 3.2 0 1.762-1.399 3.2-3.111 3.2Zm0-.8c1.241 0 2.333-1.122 2.333-2.4 0-1.276-1.085-2.4-2.333-2.4-1.249 0-2.334 1.123-2.334 2.4 0 1.278 1.092 2.4 2.334 2.4Z"/>
    <path fill="#181A93" d="M17.5 13.8c.86 0 1.556-.716 1.556-1.6 0-.883-.696-1.6-1.555-1.6-.86 0-1.556.717-1.556 1.6 0 .884.697 1.6 1.556 1.6Z"/>
  </g>
  <defs>
    <clipPath id="a">
      <rect width="35" height="24" y=".201" fill="#fff" rx="4"/>
    </clipPath>
  </defs>
</svg>
