<svg xmlns="http://www.w3.org/2000/svg" width="35" height="25" fill="none" viewBox="0 0 35 25">
  <g clip-path="url(#a)">
    <path fill="#fff" d="M0 .342h34.932v24H0v-24Z"/>
    <path fill="#6DA544" d="M0 .342h35v8H0v-8Z"/>
    <path fill="#D80027" d="M0 16.335h35v8H0v-8Zm19.021-6.533c.007.14.594 1.839.3 2.765-.45 1.425-1.077 1.53-1.35 1.72V9.745L17.5 9.45l-.47.295v4.54c-.274-.19-.847-.168-1.352-1.719-.293-.891.39-2.618.396-2.75 0 0-.648.567-1.078 1.683-.402 1.039.13 3.481 2.013 3.846.157.028.32.393.491.393.143 0 .28-.365.41-.386 1.937-.323 2.387-2.926 2.04-3.902-.37-1.024-.929-1.649-.929-1.649Z"/>
    <path fill="#fff" d="M3.043 7.283h1.521v1.712H3.043V7.283ZM0 7.283h1.521v1.712H0V7.283Zm6.086 0h1.521v1.712H6.086V7.283Zm3.043 0h1.521v1.712H9.13V7.283Zm3.043 0h1.521v1.712h-1.521V7.283Zm3.042 0h1.522v1.712h-1.522V7.283Zm3.05 0h1.522v1.712h-1.522V7.283Zm3.043 0h1.521v1.712h-1.521V7.283Zm3.043 0h1.521v1.712H24.35V7.283Zm3.043 0h1.521v1.712h-1.521V7.283Zm3.043 0h1.521v1.712h-1.521V7.283Zm3.043 0H35v1.712h-1.521V7.283Zm-30.436 8.28h1.521v1.79H3.043v-1.79Zm-3.043 0h1.521v1.79H0v-1.79Zm6.086 0h1.521v1.79H6.086v-1.79Zm3.043 0h1.521v1.79H9.13v-1.79Zm3.043 0h1.521v1.79h-1.521v-1.79Zm3.042 0h1.522v1.79h-1.522v-1.79Zm3.05 0h1.522v1.79h-1.522v-1.79Zm3.043 0h1.521v1.79h-1.521v-1.79Zm3.043 0h1.521v1.79H24.35v-1.79Zm3.043 0h1.521v1.79h-1.521v-1.79Zm3.043 0h1.521v1.79h-1.521v-1.79Zm3.043 0H35v1.79h-1.521v-1.79Z" opacity=".5"/>
  </g>
  <defs>
    <clipPath id="a">
      <rect width="35" height="24" y=".342" fill="#fff" rx="4"/>
    </clipPath>
  </defs>
</svg>
