<svg xmlns="http://www.w3.org/2000/svg" width="35" height="25" fill="none" viewBox="0 0 35 25">
  <g clip-path="url(#a)">
    <path fill="#CE1126" d="M0 .872h35v24H0v-24Z"/>
    <path fill="#FCD116" d="M17.703 18.264c2.414 0 4.371-2.013 4.371-4.496 0-2.483-1.957-4.496-4.37-4.496-2.415 0-4.372 2.013-4.372 4.496 0 2.483 1.957 4.496 4.371 4.496Z"/>
    <path fill="#FCD116" d="m19.764 6.744-1.844 2.08 2.225.52-.381-2.6Zm-4.006.016-.373 2.648 2.216-.64-1.843-2.008Zm7.334 2.136-2.698.68 1.563 1.896 1.135-2.576Zm-10.756-.144 1.205 2.616 1.571-1.816-2.776-.8Zm12.366 3.624-2.675-.792.435 2.36 2.24-1.568Zm-14.155-.208 2.481 1.584.404-2.216-2.885.632Z"/>
    <path fill="#003F87" d="M0 14.872h35v10H0v-10Z"/>
    <path fill="#fff" d="M0 22.232c1.167 0 2.333 1.04 3.5 1.04 1.167 0 2.333-1.04 3.5-1.04 1.167 0 2.333 1.04 3.5 1.04 1.167 0 2.333-1.04 3.5-1.04 1.167 0 2.333 1.04 3.5 1.04 1.167 0 2.333-1.04 3.5-1.04 1.167 0 2.333 1.04 3.5 1.04 1.167 0 2.333-1.04 3.5-1.04 1.167 0 2.333 1.04 3.5 1.04 1.167 0 2.333-1.04 3.5-1.04v-1.68c-1.167 0-2.333 1.04-3.5 1.04-1.167 0-2.333-1.04-3.5-1.04-1.167 0-2.333 1.04-3.5 1.04-1.167 0-2.333-1.04-3.5-1.04-1.167 0-2.333 1.04-3.5 1.04-1.167 0-2.333-1.04-3.5-1.04-1.167 0-2.333 1.04-3.5 1.04-1.167 0-2.333-1.04-3.5-1.04-1.167 0-2.333 1.04-3.5 1.04-1.167 0-2.333-1.04-3.5-1.04v1.68Zm0-3.44c1.167 0 2.333 1.04 3.5 1.04 1.167 0 2.333-1.04 3.5-1.04 1.167 0 2.333 1.04 3.5 1.04 1.167 0 2.333-1.04 3.5-1.04 1.167 0 2.333 1.04 3.5 1.04 1.167 0 2.333-1.04 3.5-1.04 1.167 0 2.333 1.04 3.5 1.04 1.167 0 2.333-1.04 3.5-1.04 1.167 0 2.333 1.04 3.5 1.04 1.167 0 2.333-1.04 3.5-1.04v-1.68c-1.167 0-2.333 1.04-3.5 1.04-1.167 0-2.333-1.04-3.5-1.04-1.167 0-2.333 1.04-3.5 1.04-1.167 0-2.333-1.04-3.5-1.04-1.167 0-2.333 1.04-3.5 1.04-1.167 0-2.333-1.04-3.5-1.04-1.167 0-2.333 1.04-3.5 1.04-1.167 0-2.333-1.04-3.5-1.04-1.167 0-2.333 1.04-3.5 1.04-1.167 0-2.333-1.04-3.5-1.04v1.68Zm0-3.44c1.167 0 2.333 1.04 3.5 1.04 1.167 0 2.333-1.04 3.5-1.04 1.167 0 2.333 1.04 3.5 1.04 1.167 0 2.333-1.04 3.5-1.04 1.167 0 2.333 1.04 3.5 1.04 1.167 0 2.333-1.04 3.5-1.04 1.167 0 2.333 1.04 3.5 1.04 1.167 0 2.333-1.04 3.5-1.04 1.167 0 2.333 1.04 3.5 1.04 1.167 0 2.333-1.04 3.5-1.04v-1.68c-1.167 0-2.333 1.04-3.5 1.04-1.167 0-2.333-1.04-3.5-1.04-1.167 0-2.333 1.04-3.5 1.04-1.167 0-2.333-1.04-3.5-1.04-1.167 0-2.333 1.04-3.5 1.04-1.167 0-2.333-1.04-3.5-1.04-1.167 0-2.333 1.04-3.5 1.04-1.167 0-2.333-1.04-3.5-1.04-1.167 0-2.333 1.04-3.5 1.04-1.167 0-2.333-1.04-3.5-1.04v1.68Z"/>
    <path fill="#FCD116" fill-rule="evenodd" d="m14.25 4.736-.086-.424 1.742-.296s-2.34-.568-3.11-.856c-1.113-.408-1.269-.968-1.269-.968s3.477.88 5.04.88c.335 0 .996.856.996.856s1.151-1.192 1.703-1.232c2.497-.184 5.18-.512 5.18-.512s-.777.536-1.244.68c-1.26.392-3.936.936-3.936.936l-.373.6h2.652l-1.12.344.576.552s-.607-.328-1.408-.168c-.552.104-1.198.48-1.781.64-1.455.384-2.326-1.024-2.326-1.024l-1.236-.008Z" clip-rule="evenodd"/>
  </g>
  <defs>
    <clipPath id="a">
      <rect width="35" height="24" y=".872" fill="#fff" rx="4"/>
    </clipPath>
  </defs>
</svg>
