<svg xmlns="http://www.w3.org/2000/svg" width="35" height="25" fill="none" viewBox="0 0 35 25">
  <g clip-path="url(#a)">
    <path fill="#36B6CC" d="M0 .935h35v24H0v-24Z"/>
    <path fill="#FFD400" d="M17.5 17.727c2.578 0 4.667-2.149 4.667-4.8 0-2.65-2.089-4.8-4.666-4.8-2.578 0-4.667 2.15-4.667 4.8 0 2.651 2.09 4.8 4.667 4.8Z"/>
    <path fill="#FFD400" d="m17.5 18.584-1.904 2.926-.485-3.488-2.947 1.79 1.037-3.355-3.411.295 2.347-2.561-3.2-1.264 3.193-1.263-2.347-2.561 3.411.295-1.037-3.355 2.947 1.783.485-3.488 1.903 2.926 1.904-2.926.484 3.488 2.948-1.783-1.037 3.355 3.41-.295-2.34 2.568 3.194 1.257-3.193 1.263 2.347 2.561-3.412-.295 1.037 3.355-2.947-1.783-.484 3.488c0-.007-1.904-2.933-1.904-2.933Zm0-.056c3.008 0 5.45-2.513 5.45-5.607 0-3.095-2.442-5.6-5.45-5.6-3.01 0-5.452 2.512-5.452 5.607 0 3.094 2.442 5.6 5.451 5.6ZM1.554 2.92c0-.225.163-.4.389-.4h.77c.219 0 .39.168.39.4v.792a.384.384 0 0 1-.383.4h-.777a.393.393 0 0 1-.39-.392v-.8Zm0 3.207c0-.225.163-.4.389-.4h.77c.219 0 .39.168.39.4v.793a.384.384 0 0 1-.383.4h-.777a.393.393 0 0 1-.39-.393v-.8Zm0 3.2c0-.225.163-.4.389-.4h.77c.219 0 .39.168.39.4v.793a.384.384 0 0 1-.383.4h-.777a.393.393 0 0 1-.39-.394v-.8Zm0 3.2c0-.225.163-.4.389-.4h.77c.219 0 .39.168.39.4v.792a.384.384 0 0 1-.383.4h-.777a.393.393 0 0 1-.39-.393v-.8Zm0 3.207c0-.225.163-.4.389-.4h.77c.219 0 .39.168.39.4v.793a.384.384 0 0 1-.383.4h-.777a.393.393 0 0 1-.39-.393v-.8Zm0 3.2c0-.225.163-.4.389-.4h.77c.219 0 .39.168.39.4v.793a.384.384 0 0 1-.383.4h-.777a.393.393 0 0 1-.39-.393v-.8Zm0 3.2c0-.225.163-.4.389-.4h.77c.219 0 .39.168.39.4v.792a.384.384 0 0 1-.383.4h-.777a.393.393 0 0 1-.39-.393v-.8Zm1.555-1.6c0-.225.164-.4.39-.4h.77c.218 0 .389.168.389.4v.793a.384.384 0 0 1-.382.4h-.778a.393.393 0 0 1-.389-.394v-.8Zm0-3.2c0-.225.164-.4.39-.4h.77c.218 0 .389.168.389.4v.793a.384.384 0 0 1-.382.4h-.778a.393.393 0 0 1-.389-.393v-.8Zm0-3.208c0-.224.164-.4.39-.4h.77c.218 0 .389.169.389.4v.793a.384.384 0 0 1-.382.4h-.778a.393.393 0 0 1-.389-.393v-.8Zm0-3.2c0-.224.164-.4.39-.4h.77c.218 0 .389.169.389.4v.793a.384.384 0 0 1-.382.4h-.778a.393.393 0 0 1-.389-.393v-.8Zm0-3.2c0-.224.164-.4.39-.4h.77c.218 0 .389.169.389.4v.794a.384.384 0 0 1-.382.4h-.778a.393.393 0 0 1-.389-.393v-.8Zm0-3.2c0-.224.164-.4.39-.4h.77c.218 0 .389.169.389.4v.794a.384.384 0 0 1-.382.4h-.778a.393.393 0 0 1-.389-.393v-.8Z"/>
  </g>
  <defs>
    <clipPath id="a">
      <rect width="35" height="24" y=".935" fill="#fff" rx="4"/>
    </clipPath>
  </defs>
</svg>
