<svg xmlns="http://www.w3.org/2000/svg" width="35" height="25" fill="none" viewBox="0 0 35 25">
  <g clip-path="url(#a)">
    <path fill="#D80027" d="M0 .502v24h35v-24H0Z"/>
    <path fill="#20661B" d="M24.063 10.426h-5.014L17.5 5.522l-1.55 4.904h-5.012l4.055 3.031-1.549 4.904 4.056-3.03 4.056 3.03-1.55-4.904 4.056-3.03Zm-7.934 2.652.523-1.659h1.696l.524 1.659-1.372 1.025-1.372-1.025Zm1.905-2.652h-1.068l.534-1.69.534 1.69Zm1.659 2.038-.33-1.045h1.728l-1.398 1.045Zm-4.056-1.045-.33 1.045-1.398-1.045h1.728Zm-.356 4.342.534-1.69.864.646-1.398 1.044Zm3.04-1.045.864-.645.534 1.69-1.398-1.045Z"/>
  </g>
  <defs>
    <clipPath id="a">
      <rect width="35" height="24" y=".501" fill="#fff" rx="4"/>
    </clipPath>
  </defs>
</svg>
