<svg xmlns="http://www.w3.org/2000/svg" width="35" height="25" fill="none" viewBox="0 0 35 25">
  <g clip-path="url(#a)">
    <path fill="#1E509C" d="M0 .074h35v24H0v-24Z"/>
    <path fill="#fff" d="M35 12.432V5.779L0 24.074l35-11.642Z"/>
    <path fill="#F18D36" d="M35 .074v5.705L0 24.074l35-24Z"/>
    <path fill="#fff" d="m8.645 7.042-.533-3.796-.525 3.796L6.168 5.38l.73 2.217-2.15-.75 1.611 1.46-3.691.54 3.691.54-1.61 1.46 2.149-.751-.73 2.217 1.42-1.663.524 3.797.533-3.797 1.412 1.663-.723-2.217 2.149.75-1.61-1.459 3.684-.54-3.684-.54 1.61-1.46-2.15.75.724-2.217-1.412 1.663Z"/>
  </g>
  <defs>
    <clipPath id="a">
      <rect width="35" height="24" y=".074" fill="#fff" rx="4"/>
    </clipPath>
  </defs>
</svg>
