<svg xmlns="http://www.w3.org/2000/svg" width="35" height="25" fill="none" viewBox="0 0 35 25">
  <g clip-path="url(#a)">
    <path fill="#FFDA44" d="M0 .17h35v24H0v-24Z"/>
    <path fill="#D80027" d="M26.241 24.17 17.5 11.907l1.834 12.261h6.907ZM9.131.17 17.5 11.907 15.744.17H9.13Zm6.535 24L17.5 11.907 8.758 24.17h6.908ZM0 .17v8.969l17.5 2.77L1.937.168H0Zm0 24h1.245L17.5 11.907 0 14.678v9.491Zm17.5-12.262L35 9.14V.169h-1.937L17.5 11.91ZM19.256.17 17.5 11.91 25.87.168h-6.614ZM35 24.17v-9.491l-17.5-2.77L33.755 24.17H35Z"/>
    <path fill="#D80027" d="M17.5 16.082c2.24 0 4.057-1.868 4.057-4.174 0-2.305-1.817-4.173-4.058-4.173-2.24 0-4.058 1.868-4.058 4.173 0 2.306 1.817 4.174 4.058 4.174Z"/>
    <path fill="#FFDA44" d="M17.5 15.039c1.681 0 3.044-1.402 3.044-3.13 0-1.73-1.363-3.13-3.044-3.13-1.68 0-3.043 1.4-3.043 3.13 0 1.728 1.363 3.13 3.043 3.13Z"/>
  </g>
  <defs>
    <clipPath id="a">
      <rect width="35" height="24" y=".169" fill="#fff" rx="4"/>
    </clipPath>
  </defs>
</svg>
