<svg xmlns="http://www.w3.org/2000/svg" width="35" height="25" fill="none" viewBox="0 0 35 25">
  <g clip-path="url(#a)">
    <path fill="#00745A" d="M0 .033h35v24H0v-24Z"/>
    <path fill="#fff" d="M19.53 11.533c-.287 0-.558.058-.81.152.138-.317.23-.67.23-1.047 0-1.49-1.45-2.609-1.45-2.609s-1.448 1.118-1.448 2.61c0 .376.092.729.23 1.046a2.332 2.332 0 0 0-.81-.152c-1.45 0-2.537 1.49-2.537 1.49s1.088 1.49 2.537 1.49c.85 0 1.574-.511 2.029-.935.454.424 1.18.936 2.029.936 1.45 0 2.536-1.49 2.536-1.49s-1.087-1.491-2.536-1.491Z"/>
    <path fill="#FFDA44" d="m17.5 4.729.3.947h.968l-.784.586.3.947-.784-.585-.784.585.3-.947-.784-.586h.968l.3-.947Zm-3.684 1.657.576.533.671-.398-.315.728.576.533-.771-.083-.315.728-.161-.78-.771-.083.671-.398-.161-.78ZM11.119 9.16l.758.165.388-.69.08.793.759.166-.708.324.08.793-.518-.593-.708.324.388-.69-.519-.592Zm10.064-2.774-.575.533-.672-.398.316.728-.576.533.77-.083.316.728.16-.78.772-.083-.672-.398.162-.78ZM23.88 9.16l-.758.165-.387-.69-.081.793-.758.166.708.324-.081.793.518-.593.708.324-.387-.69.518-.592Z"/>
    <path fill="#fff" d="M17.5 18.688a4.959 4.959 0 0 0 3.063-1.06h-6.127a4.958 4.958 0 0 0 3.064 1.06Zm-4.65-3.13c.16.376.363.732.605 1.06h8.09c.241-.328.444-.684.605-1.06h-9.3Z"/>
  </g>
  <defs>
    <clipPath id="a">
      <rect width="35" height="24" y=".033" fill="#fff" rx="4"/>
    </clipPath>
  </defs>
</svg>
