<svg xmlns="http://www.w3.org/2000/svg" width="35" height="25" fill="none" viewBox="0 0 35 25">
  <g clip-path="url(#a)">
    <path fill="#0052B4" d="M0 .701h35v24H0v-24Z"/>
    <path fill="#fff" d="M34.932 11.115v3.123H18.987v10.414h-3.043V14.238H0v-3.123h15.944V.701h3.043v10.414h15.945Z"/>
    <path fill="#fff" d="M6.89 3.235c.287-.014.567-.007.854.014.375.028.641.112.62.035-.034-.127-.006-.155-.054-.127-.089.07.048-.014-.505.31-.805.47-1.153.827-.975 1.473.156.568.559.723 1.521.877l.13.021c.382.063.552.098.668.154.028.014-.02-.07-.007-.119-.013.042-.266.148-.907.274l-.32.063c-1.236.26-1.85.596-1.945 1.474-.102.961.866 1.635 2.088 1.796 1.241.169 2.326-.252 2.435-1.291.069-.66-.375-1.053-1.085-1.2-.477-.098-1.112-.098-1.869-.021-.846.091-1.685.238-2.517.442a.464.464 0 0 0-.355.547.452.452 0 0 0 .532.365c.014 0 .02-.007.034-.007.791-.19 1.59-.33 2.395-.414.675-.07 1.228-.07 1.596.007.3.063.362.12.355.183-.034.358-.607.575-1.412.47-.792-.105-1.33-.477-1.303-.772.034-.302.361-.477 1.22-.66l.315-.063c1.057-.21 1.44-.372 1.603-.926.13-.456-.089-.814-.491-.997-.219-.098-.43-.147-.9-.217l-.124-.021c-.545-.091-.777-.183-.784-.21-.007-.029.123-.162.552-.415l.3-.175c.103-.056.199-.127.294-.19.314-.238.491-.498.396-.863-.13-.512-.614-.667-1.426-.73-.32-.02-.635-.028-.955-.02l-.137.006a.464.464 0 0 0-.43.491c.014.26.232.457.478.443l.116-.007Zm19.377 0a6.92 6.92 0 0 1 .853.014c.375.028.641.112.62.035-.033-.127-.006-.155-.054-.127-.088.07.048-.014-.505.31-.805.47-1.153.827-.975 1.473.157.568.56.723 1.521.877l.13.021c.382.063.552.098.668.154.028.014-.02-.07-.006-.119-.014.042-.266.148-.908.274l-.32.063c-1.235.26-1.85.596-1.945 1.474-.102.961.867 1.635 2.088 1.796 1.241.169 2.326-.252 2.435-1.291.069-.66-.375-1.053-1.084-1.2-.478-.098-1.112-.098-1.87-.021a19.3 19.3 0 0 0-2.517.442.464.464 0 0 0-.355.547.452.452 0 0 0 .532.365c.014 0 .02-.007.034-.007.792-.19 1.59-.33 2.395-.414.675-.07 1.228-.07 1.596.007.3.063.362.12.355.183-.034.358-.607.575-1.412.47-.791-.105-1.33-.477-1.303-.772.034-.302.362-.477 1.221-.66l.314-.063c1.058-.21 1.44-.372 1.603-.926.13-.456-.088-.814-.491-.997-.218-.098-.43-.147-.9-.217l-.123-.021c-.546-.091-.778-.183-.785-.21-.007-.029.123-.162.553-.415l.3-.175c.102-.056.198-.127.293-.19.314-.238.491-.498.396-.863-.13-.512-.614-.667-1.426-.73-.32-.02-.634-.028-.955-.02l-.137.006a.464.464 0 0 0-.43.491c.014.26.233.457.478.443l.116-.007ZM25.9 17.2c.286-.015.566-.008.853.014.375.028.64.112.62.035-.034-.127-.006-.155-.054-.127-.089.07.048-.014-.505.309-.805.47-1.153.828-.976 1.474.157.568.56.723 1.522.877l.13.021c.381.063.552.098.668.154.027.014-.02-.07-.007-.119-.013.042-.266.147-.907.274l-.32.063c-1.236.26-1.85.596-1.945 1.474-.103.961.866 1.635 2.087 1.796 1.242.168 2.327-.253 2.436-1.291.068-.66-.375-1.053-1.085-1.2-.477-.098-1.112-.098-1.87-.021-.845.091-1.684.238-2.517.442a.464.464 0 0 0-.354.547.452.452 0 0 0 .532.365c.013 0 .02-.007.034-.007.791-.19 1.59-.33 2.395-.414.675-.07 1.228-.07 1.596.007.3.063.362.12.355.183-.034.357-.607.575-1.412.47-.792-.105-1.33-.477-1.304-.772.035-.302.362-.477 1.222-.66l.314-.063c1.057-.21 1.44-.372 1.603-.926.13-.456-.089-.814-.491-.997-.219-.098-.43-.147-.901-.217l-.123-.021c-.546-.092-.778-.183-.784-.21-.007-.029.122-.162.552-.415l.3-.175c.103-.056.198-.127.294-.19.314-.238.491-.498.396-.863-.13-.512-.614-.667-1.426-.73-.321-.02-.635-.028-.956-.02l-.136.006a.464.464 0 0 0-.43.491.466.466 0 0 0 .478.442l.116-.006Zm-19.008 0c.286-.015.566-.008.853.014.375.028.641.112.62.035-.034-.127-.006-.155-.054-.127-.089.07.048-.014-.505.309-.805.47-1.153.828-.975 1.474.156.568.559.723 1.521.877l.13.021c.382.063.552.098.668.154.028.014-.02-.07-.007-.119-.013.042-.266.147-.907.274l-.32.063c-1.236.26-1.85.596-1.945 1.474-.102.961.866 1.635 2.088 1.796 1.241.168 2.326-.253 2.435-1.291.069-.66-.375-1.053-1.085-1.2-.477-.098-1.112-.098-1.869-.021a19.3 19.3 0 0 0-2.517.442.464.464 0 0 0-.355.547.452.452 0 0 0 .532.365c.014 0 .02-.007.034-.007.791-.19 1.59-.33 2.395-.414.675-.07 1.228-.07 1.596.007.3.063.362.12.355.183-.034.357-.607.575-1.412.47-.792-.105-1.33-.477-1.303-.772.034-.302.361-.477 1.22-.66l.315-.063c1.057-.21 1.44-.372 1.603-.926.13-.456-.089-.814-.491-.997-.219-.098-.43-.147-.9-.217l-.124-.021c-.545-.092-.777-.183-.784-.21-.007-.029.123-.162.552-.415l.3-.175c.103-.056.199-.127.294-.19.314-.238.491-.498.396-.863-.13-.512-.614-.667-1.426-.73-.32-.02-.635-.028-.955-.02l-.137.006a.464.464 0 0 0-.43.491.46.46 0 0 0 .478.442l.116-.006Z"/>
  </g>
  <defs>
    <clipPath id="a">
      <rect width="35" height="24" y=".701" fill="#fff" rx="4"/>
    </clipPath>
  </defs>
</svg>
