<svg xmlns="http://www.w3.org/2000/svg" width="35" height="25" fill="none" viewBox="0 0 35 25">
  <g clip-path="url(#a)">
    <path fill="#fff" d="M0 .102h35v24H0v-24Z"/>
    <path fill="#338AF3" d="M0 .102h35v8H0v-8Zm0 16h35v8H0v-8Z"/>
    <path fill="#FFDA44" d="M17.5 9.18c-1.568 0-2.84 1.308-2.84 2.922s1.272 2.922 2.84 2.922c1.57 0 2.841-1.308 2.841-2.922S19.07 9.18 17.501 9.18Zm0 4.592c-.896 0-1.623-.748-1.623-1.67 0-.922.727-1.67 1.624-1.67.896 0 1.623.748 1.623 1.67 0 .922-.727 1.67-1.623 1.67Z"/>
    <path fill="#0052B4" d="m18.905 12.52-1.406-.418-1.405.417-.469.835h3.749l-.469-.835Z"/>
    <path fill="#338AF3" d="m17.5 10.015-.938 1.67.938.417.937-.417-.937-1.67Z"/>
    <path fill="#6DA544" d="M16.094 12.52h2.811l-.468-.835h-1.875l-.468.835Z"/>
  </g>
  <defs>
    <clipPath id="a">
      <rect width="35" height="24" y=".102" fill="#fff" rx="4"/>
    </clipPath>
  </defs>
</svg>
