<svg xmlns="http://www.w3.org/2000/svg" width="35" height="25" fill="none" viewBox="0 0 35 25">
  <g clip-path="url(#a)">
    <path fill="#fff" d="M0 .342h35v24H0v-24Z"/>
    <path fill="#D80027" d="M0 .342h35v8H0v-8Zm0 16h35v8H0v-8Z"/>
    <path fill="#FFDA44" d="M20.096 12.342c0 1.475-1.162 2.337-2.597 2.337-1.434 0-2.597-.862-2.597-2.337 0-1.476 1.163-2.672 2.598-2.672 1.434 0 2.596 1.196 2.596 2.672Z"/>
    <path fill="#0052B4" d="M20.097 12.342c0 1.475-1.163 2.671-2.598 2.671-1.434 0-2.597-1.196-2.597-2.671"/>
    <path fill="#D80027" d="M15.877 11.674h.65v1.336h-.65v-1.336Zm2.597 0h.65v1.336h-.65v-1.336Zm-1.299-1.001h.65v2.337h-.65v-2.337Z"/>
  </g>
  <defs>
    <clipPath id="a">
      <rect width="35" height="24" y=".342" fill="#fff" rx="4"/>
    </clipPath>
  </defs>
</svg>
