<svg xmlns="http://www.w3.org/2000/svg" width="35" height="25" fill="none" viewBox="0 0 35 25">
  <g clip-path="url(#a)">
    <path fill="#fff" d="M0 .87h35v24H0v-24Z"/>
    <path fill="#D80027" d="M0 .87h35v8H0v-8Z"/>
    <path fill="#0052B4" d="M0 16.87h35v8H0v-8Z"/>
    <path fill="#6DA544" d="m19.796 10.11-.861.885c.367.377.594.899.594 1.475 0 1.153-.908 2.087-2.029 2.087-1.12 0-2.029-.934-2.029-2.087 0-.576.227-1.098.595-1.476l-.861-.885a3.377 3.377 0 0 0-.951 2.361c0 1.844 1.453 3.34 3.246 3.34s3.247-1.496 3.247-3.34c0-.922-.364-1.757-.951-2.36Z"/>
    <path fill="#FFDA44" d="m17.5 11.218.303.957h.978l-.791.59.302.957-.791-.59-.791.59.302-.956-.791-.591h.977l.303-.957Z"/>
  </g>
  <defs>
    <clipPath id="a">
      <rect width="35" height="24" y=".87" fill="#fff" rx="4"/>
    </clipPath>
  </defs>
</svg>
