<svg xmlns="http://www.w3.org/2000/svg" width="35" height="25" fill="none" viewBox="0 0 35 25">
  <g clip-path="url(#a)">
    <path fill="#338AF3" d="M0 .8h35v24H0V.8Z"/>
    <path fill="#FFDA44" d="M0 12.8h35v5.74H0V12.8Z"/>
    <path fill="#496E2D" d="M0 18.54h35v6.26H0v-6.26Z"/>
    <path fill="#FFDA44" d="m19.021 7.823 1.425.69-.758 1.419 1.547-.304.196 1.607 1.078-1.182 1.077 1.182.196-1.607 1.547.304-.758-1.42 1.424-.689-1.424-.69.758-1.418-1.547.304-.196-1.608-1.077 1.183L21.43 4.41l-.196 1.608-1.547-.304.758 1.419-1.425.69Z"/>
  </g>
  <defs>
    <clipPath id="a">
      <rect width="35" height="24" y=".801" fill="#fff" rx="4"/>
    </clipPath>
  </defs>
</svg>
