<svg xmlns="http://www.w3.org/2000/svg" width="35" height="24" fill="none" viewBox="0 0 35 24">
  <g clip-path="url(#a)">
    <path fill="#fff" d="M0 0h35v24H0V0Z"/>
    <path fill="#0052B4" d="M0 7.826h35v8.348H0V7.826Z"/>
    <path fill="#D80027" d="M0 16.174h35V24H0v-7.826Z"/>
    <path fill="#fff" d="M8.85 6.783v5.986c0 3.405 4.325 4.448 4.325 4.448s4.324-1.043 4.324-4.448V6.783H8.85Z"/>
    <path fill="#D80027" d="M9.988 6.958v5.762c0 .384.083.748.248 1.088h5.877c.164-.34.247-.703.247-1.088V6.958H9.988Z"/>
    <path fill="#fff" d="M15.128 10.975h-1.464V9.971h.976V8.967h-.976V7.962h-.977v1.005h-.976V9.97h.976v1.004h-1.464v1.005h1.464v1.004h.977V11.98h1.464v-1.005Z"/>
    <path fill="#0052B4" d="M11.568 15.21a6.92 6.92 0 0 0 1.607.748c.33-.105.977-.34 1.606-.748.635-.41 1.08-.879 1.332-1.402a1.668 1.668 0 0 0-1.374-.276 1.708 1.708 0 0 0-1.564-1.05c-.7 0-1.3.432-1.565 1.05a1.668 1.668 0 0 0-1.374.277c.253.522.697.991 1.332 1.401Z"/>
  </g>
  <defs>
    <clipPath id="a">
      <rect width="35" height="24" fill="#fff" rx="4"/>
    </clipPath>
  </defs>
</svg>
