<svg xmlns="http://www.w3.org/2000/svg" width="35" height="25" fill="none" viewBox="0 0 35 25">
  <g clip-path="url(#a)">
    <path fill="#338AF3" d="M0 .308h35v24H0v-24Z"/>
    <path fill="#fff" d="M35 .307v11.72L0 12.32V.307h35Z"/>
    <path fill="#6DA544" d="M22.13 8.588 17.5 13.35l-4.631-4.763a5.822 5.822 0 0 0-.95 3.198v1.565c0 2.513 1.58 4.654 3.77 5.429a1.776 1.776 0 0 0 .186 1.875l1.659-1.367 1.658 1.367a1.777 1.777 0 0 0 .175-1.896c2.161-.792 3.712-2.917 3.712-5.408v-1.565a5.825 5.825 0 0 0-.948-3.198Z"/>
    <path fill="#FFDA44" d="M17.5 17.525c-2.238 0-4.059-1.873-4.059-4.174v-1.566c0-2.301 1.82-4.173 4.058-4.173 2.238 0 4.058 1.872 4.058 4.174v1.565c0 2.301-1.82 4.174-4.058 4.174Z"/>
    <path fill="#338AF3" d="M20.035 13.35v-1.564c0-1.439-1.137-2.609-2.536-2.609-1.398 0-2.536 1.17-2.536 2.609v1.565l2.536.522 2.536-.522Z"/>
    <path fill="#6DA544" d="M14.963 13.35c0 1.44 1.138 2.61 2.536 2.61 1.399 0 2.536-1.17 2.536-2.61h-5.072Z"/>
    <path fill="#FFDA44" d="M20.544 7.612c0-.865-.681-1.566-1.522-1.566a1.49 1.49 0 0 0-1.014.4v-.921h.507V4.48h-.507v-.52h-1.015v.522h-.507v1.044h.507v.92a1.494 1.494 0 0 0-1.014-.399c-.84 0-1.522.701-1.522 1.566 0 .463.196.88.507 1.166v.92h5.073v-.92c.311-.287.507-.703.507-1.166Z"/>
  </g>
  <defs>
    <clipPath id="a">
      <rect width="35" height="24" y=".307" fill="#fff" rx="4"/>
    </clipPath>
  </defs>
</svg>
