<svg xmlns="http://www.w3.org/2000/svg" width="35" height="25" fill="none" viewBox="0 0 35 25">
  <g clip-path="url(#a)">
    <path fill="#0052B4" d="M0 .3h35v24H0V.3Z"/>
    <path fill="#D80027" d="M35 .3v11.72l-35 .293V.3h35Z"/>
    <path fill="#fff" d="M17.5 12.3 0 24.3V.3l17.5 12Z"/>
    <path fill="#FFDA44" d="M4.076 12.3a4.313 4.313 0 0 0-.013.322c0 2.307 1.818 4.178 4.062 4.178s4.063-1.87 4.063-4.178c0-.109-.006-.216-.014-.322H4.076Zm4.049-1.928c.69 0 1.25-.576 1.25-1.286 0-.71-.56-1.286-1.25-1.286s-1.25.576-1.25 1.286c0 .71.56 1.286 1.25 1.286Z"/>
    <path fill="#D80027" d="M5.313 8.765v4.178c0 2.215 2.812 2.893 2.812 2.893s2.813-.678 2.813-2.893V8.765H5.312Z"/>
    <path fill="#338AF3" d="M8.126 14.49c-.521-.193-1.563-.686-1.563-1.547V10.05h3.125v2.893c0 .864-1.043 1.356-1.562 1.547Z"/>
    <path fill="#F3F3F3" d="M8.75 11.657v-.642l-.625-.322-.625.322v.642l-.313.322v1.286h1.875v-1.286l-.312-.322Z"/>
  </g>
  <defs>
    <clipPath id="a">
      <rect width="35" height="24" y=".3" fill="#fff" rx="4"/>
    </clipPath>
  </defs>
</svg>
