<svg xmlns="http://www.w3.org/2000/svg" width="35" height="25" fill="none" viewBox="0 0 35 25">
  <g clip-path="url(#a)">
    <path fill="#fff" d="M0 .64h35v24H0v-24Z"/>
    <path fill="#D80027" d="M0 .64h35v8H0v-8Z"/>
    <path fill="#6DA544" d="M0 16.64h35v8H0v-8Z"/>
    <path fill="#FFDA44" d="M15.471 15.771h4.058v-1.774l-.811.418-1.218-1.253-1.217 1.253-.812-.418v1.774Zm-2.321-2.087.189.598h.61l-.494.37.19.597-.495-.37-.495.37.19-.598-.495-.369h.61l.19-.598Zm.585-2.087.19.598h.61l-.494.37.189.597-.495-.37-.494.37.189-.598-.495-.369h.611l.19-.598Zm1.674-1.565.19.598h.61l-.494.37.189.597-.495-.37-.494.37.189-.598-.495-.37h.611l.19-.597Zm6.442 3.652-.189.598h-.61l.494.37-.19.597.495-.37.495.37-.19-.598.495-.369h-.61l-.19-.598Zm-.585-2.087-.19.598h-.61l.494.37-.189.597.495-.37.494.37-.189-.598.495-.369h-.611l-.19-.598Zm-1.674-1.565-.19.598h-.61l.494.37-.189.597.495-.37.494.37-.189-.598.495-.37h-.611l-.19-.597ZM17.5 9.249l.19.598h.61l-.494.37.189.598-.495-.37-.494.37.189-.598-.495-.37h.611l.19-.598Z"/>
  </g>
  <defs>
    <clipPath id="a">
      <rect width="35" height="24" y=".641" fill="#fff" rx="4"/>
    </clipPath>
  </defs>
</svg>
