<svg xmlns="http://www.w3.org/2000/svg" width="35" height="25" fill="none" viewBox="0 0 35 25">
  <g clip-path="url(#a)">
    <path fill="#E30A17" d="M0 .2h35v24H0V.2Z"/>
    <path fill="#fff" d="M17.718 8.522a5.116 5.116 0 0 0-3.09-1.017c-2.784 0-5.036 2.161-5.036 4.835s2.259 4.835 5.035 4.835a5.123 5.123 0 0 0 3.091-1.018c-2.047 2.71-5.847 3.2-8.48 1.088-2.634-2.112-3.111-6.014-1.058-8.723 2.054-2.708 5.847-3.2 8.48-1.087a6.3 6.3 0 0 1 1.058 1.087Zm2.722 4.618-1.235 1.537.082-1.993-1.8-.73 1.862-.533.123-1.986 1.064 1.663 1.876-.498-1.194 1.543 1.044 1.678-1.822-.681Z"/>
  </g>
  <defs>
    <clipPath id="a">
      <rect width="35" height="24" y=".2" fill="#fff" rx="4"/>
    </clipPath>
  </defs>
</svg>
