<svg xmlns="http://www.w3.org/2000/svg" width="35" height="24" fill="none" viewBox="0 0 35 24">
  <g clip-path="url(#a)">
    <path fill="#fff" d="M0 0h35v24H0V0Z"/>
    <path fill="#D80027" d="M0 0h35v1.846H0V0Zm0 3.691h35v1.846H0V3.69Zm0 3.691h35v1.846H0V7.382Zm0 3.692h35v1.845H0v-1.845Zm0 3.698h35v1.845H0v-1.845Zm0 3.691h35v1.846H0v-1.846Zm0 3.691h35V24H0v-1.846Z"/>
    <path fill="#2E52B2" d="M0 0h17.5v12.92H0V0Z"/>
    <path fill="#fff" d="m3.26 9.747-.272-.898-.3.898h-.9l.73.54-.274.899.744-.554.723.554-.28-.898.744-.54h-.914Zm3.842 0-.28-.898-.286.898h-.9l.73.54-.274.899.73-.554.737.554-.273-.898.73-.54h-.914Zm3.855 0-.294-.898-.273.898h-.92l.75.54-.287.899.73-.554.75.554-.286-.898.73-.54h-.9Zm3.834 0-.273-.898-.286.898h-.908l.737.54-.273.899.73-.554.737.554-.293-.898.75-.54h-.921ZM6.822 5.284l-.286.899h-.9l.73.554-.274.884.73-.547.737.547-.273-.884.73-.554h-.914l-.28-.899Zm-3.834 0-.3.899h-.9l.73.554-.274.884.744-.547.723.547-.28-.884.744-.554h-.914l-.273-.899Zm7.675 0-.273.899h-.92l.75.554-.287.884.73-.547.75.547-.286-.884.73-.554h-.9l-.294-.899Zm3.855 0-.286.899h-.908l.737.554-.273.884.73-.547.737.547-.293-.884.75-.554h-.921l-.273-.899Zm-11.53-3.55-.3.884h-.9l.73.554-.274.891.744-.554.723.554-.28-.891.744-.554h-.914l-.273-.885Zm3.834 0-.286.884h-.9l.73.554-.274.891.73-.554.737.554-.273-.891.73-.554h-.914l-.28-.885Zm3.841 0-.273.884h-.92l.75.554-.287.891.73-.554.75.554-.286-.891.73-.554h-.9l-.294-.885Zm3.855 0-.286.884h-.908l.737.554-.273.891.73-.554.737.554-.293-.891.75-.554h-.921l-.273-.885Z"/>
  </g>
  <defs>
    <clipPath id="a">
      <rect width="35" height="24" fill="#fff" rx="4"/>
    </clipPath>
  </defs>
</svg>
