<svg xmlns="http://www.w3.org/2000/svg" width="35" height="25" fill="none" viewBox="0 0 35 25">
  <g clip-path="url(#a)">
    <path fill="#fff" d="M0 .769h35v24H0v-24Z"/>
    <path fill="#0038A8" d="M0 3.435h35v2.667H0V3.435ZM0 8.77h35v2.666H0V8.77Zm0 5.333h35v2.667H0v-2.667Zm0 5.333h35v2.667H0v-2.667Z"/>
    <path fill="#fff" d="M0 .769h17.5v13.333H0V.769Z"/>
    <path fill="#FED443" d="m8.753 10.502-1.03 1.586-.26-1.888-1.596.969.56-1.818-1.857.154 1.27-1.39-1.727-.68 1.733-.68-1.276-1.39 1.85.161-.56-1.817 1.596.968.266-1.887 1.03 1.586 1.03-1.586.26 1.887 1.597-.968-.56 1.817 1.85-.154-1.27 1.39 1.733.68-1.733.68 1.27 1.39-1.85-.154.56 1.817-1.597-.968-.266 1.888-1.023-1.593Zm0-.035c1.63.063 3.002-1.235 3.063-2.913.061-1.677-1.2-3.087-2.831-3.15h-.232c-1.631.056-2.907 1.46-2.852 3.13.04 1.6 1.296 2.884 2.852 2.933Zm0-.744c-1.283 0-2.32-1.067-2.32-2.386 0-1.32 1.037-2.386 2.32-2.386 1.282 0 2.32 1.067 2.32 2.386 0 1.32-1.045 2.386-2.32 2.386Z"/>
  </g>
  <defs>
    <clipPath id="a">
      <rect width="35" height="24" y=".769" fill="#fff" rx="4"/>
    </clipPath>
  </defs>
</svg>
