<svg xmlns="http://www.w3.org/2000/svg" width="35" height="24" fill="none" viewBox="0 0 35 24">
  <g clip-path="url(#a)">
    <path fill="#D80027" d="M0 0h35v24H0V0Z"/>
    <path fill="#6DA544" d="M0 16.696h35V24H0v-7.304Z"/>
    <path fill="#338AF3" d="M0 0h35v7.35H0V0Z"/>
    <path fill="#fff" d="M0 8.827h35v6.304H0V8.827Z"/>
    <path fill="#338AF3" d="M0 0h35v7.35H0V0Z"/>
    <path fill="#fff" d="M12.898 3.674c0-1.124.768-2.063 1.794-2.293a2.23 2.23 0 0 0-.49-.055c-1.26 0-2.282 1.052-2.282 2.348 0 1.297 1.022 2.348 2.283 2.348.168 0 .331-.02.489-.055-1.026-.23-1.794-1.169-1.794-2.293Zm3.143 1.067.154.49h.5l-.404.302.154.489-.404-.302-.405.302.155-.49-.405-.301h.5l.155-.49Zm1.596 0 .154.49h.5l-.404.302.154.489-.404-.302-.405.302.155-.49-.405-.301h.5l.155-.49Zm1.596 0 .154.49h.5l-.404.302.154.489-.404-.302-.405.302.155-.49-.405-.301h.5l.155-.49Zm1.596 0 .154.49h.5l-.404.302.154.489-.404-.302-.405.302.155-.49-.405-.301h.5l.155-.49Zm1.596 0 .154.49h.5l-.404.302.154.489-.404-.302-.405.302.155-.49-.405-.301h.5l.155-.49Zm-4.788-1.707.154.489h.5l-.404.302.154.49-.404-.303-.405.302.155-.489-.405-.302h.5l.155-.49Zm1.596 0 .154.489h.5l-.404.302.154.49-.404-.303-.405.302.155-.489-.405-.302h.5l.155-.49Zm1.596 0 .154.489h.5l-.404.302.154.49-.404-.303-.405.302.155-.489-.405-.302h.5l.155-.49Zm1.596 0 .154.489h.5l-.404.302.154.49-.404-.303-.405.302.155-.489-.405-.302h.5l.155-.49Zm-3.192-1.708.154.49h.5l-.404.302.154.489-.404-.302-.405.302.155-.49-.405-.301h.5l.155-.49Zm1.596 0 .154.49h.5l-.404.302.154.489-.404-.302-.405.302.155-.49-.405-.301h.5l.155-.49Zm1.596 0 .154.49h.5l-.404.302.154.489-.404-.302-.405.302.155-.49-.405-.301h.5l.155-.49Z"/>
  </g>
  <defs>
    <clipPath id="a">
      <rect width="35" height="24" fill="#fff" rx="4"/>
    </clipPath>
  </defs>
</svg>
