<svg xmlns="http://www.w3.org/2000/svg" width="35" height="24" fill="none" viewBox="0 0 35 24">
  <g clip-path="url(#a)">
    <path fill="#496E2D" d="M0 0h35v24H0V0Z"/>
    <path fill="#FF9811" d="M33.541 7.744H30.26c0-.62-.49-1.125-1.094-1.125-.604 0-1.094.504-1.094 1.125h-3.281a1.14 1.14 0 0 0 1.13 1.125h-.036c0 .622.49 1.125 1.093 1.125 0 .622.49 1.125 1.094 1.125h2.188c.604 0 1.093-.503 1.093-1.125.604 0 1.094-.503 1.094-1.125h-.036a1.14 1.14 0 0 0 1.13-1.125Z"/>
    <path fill="#D80027" d="M23.334 12h3.889v12h-3.889V12Z"/>
    <path fill="#FF9811" d="M31.111 12h3.89v12h-3.89V12Z"/>
    <path fill="#000" d="M27.223 12h3.889v12h-3.89V12Z"/>
  </g>
  <defs>
    <clipPath id="a">
      <rect width="35" height="24" fill="#fff" rx="4"/>
    </clipPath>
  </defs>
</svg>
