<svg width="20" height="20" viewBox="0 0 20 20" fill="none" xmlns="http://www.w3.org/2000/svg">
<path d="M16.875 5.625H3.125C2.77982 5.625 2.5 5.90482 2.5 6.25V16.25C2.5 16.5952 2.77982 16.875 3.125 16.875H16.875C17.2202 16.875 17.5 16.5952 17.5 16.25V6.25C17.5 5.90482 17.2202 5.625 16.875 5.625Z" stroke="#1D222B" stroke-linecap="round" stroke-linejoin="round"/>
<path d="M13.125 5.625V4.375C13.125 4.04348 12.9933 3.72554 12.7589 3.49112C12.5245 3.2567 12.2065 3.125 11.875 3.125H8.125C7.79348 3.125 7.47554 3.2567 7.24112 3.49112C7.0067 3.72554 6.875 4.04348 6.875 4.375V5.625" stroke="#1D222B" stroke-linecap="round" stroke-linejoin="round"/>
<path d="M17.5 9.86719C15.2205 11.1855 12.6332 11.8781 10 11.875C7.36629 11.8819 4.77803 11.189 2.5 9.86719" stroke="#1D222B" stroke-linecap="round" stroke-linejoin="round"/>
<path d="M9.0625 9.375H10.9375" stroke="#1D222B" stroke-linecap="round" stroke-linejoin="round"/>
</svg>
