<svg width="34" height="36" viewBox="0 0 34 36" fill="none" xmlns="http://www.w3.org/2000/svg">
<path opacity="0.3" fill-rule="evenodd" clip-rule="evenodd" d="M26.4034 12.3682C26.6145 10.7543 25.2845 9.42431 23.6706 9.63539C21.3116 9.94391 17.3041 10.791 14.7213 13.1865C13.8995 13.9487 13.1402 14.8694 12.4655 15.8162L10.5291 15.5395C9.98378 15.4616 9.43364 15.645 9.04414 16.0345L5.86216 19.2165C4.84246 20.2362 5.42453 21.9824 6.85211 22.1863L9.82196 22.6106L9.82215 22.6093C9.9533 22.8802 10.1307 23.1315 10.3496 23.3504L12.6884 25.6892C12.9073 25.9081 13.1585 26.0855 13.4295 26.2166L13.4282 26.2168L13.8525 29.1867C14.0564 30.6142 15.8026 31.1963 16.8223 30.1766L20.0043 26.9946C20.3938 26.6051 20.5772 26.055 20.4993 25.5097L20.2227 23.5733C21.1694 22.8986 22.0901 22.1393 22.8523 21.3175C25.2478 18.7347 26.0949 14.7272 26.4034 12.3682Z" fill="#1D222B"/>
<path d="M9.92796 26.1096L7.09953 28.938M7.80664 23.9883L6.39243 25.4025M12.0493 28.2309L10.6351 29.6451" stroke="#1D222B" stroke-width="1.5" stroke-linecap="round"/>
<path d="M17.7069 15.5041C16.9258 16.2851 16.9258 17.5514 17.7069 18.3325C18.4879 19.1135 19.7543 19.1135 20.5353 18.3325C21.3164 17.5514 21.3164 16.2851 20.5353 15.5041C19.7543 14.723 18.4879 14.723 17.7069 15.5041Z" fill="#1D222B"/>
<path d="M29 0C29.5523 0 30 0.447715 30 1V4H33C33.5523 4 34 4.44772 34 5C34 5.55228 33.5523 6 33 6H30V9C30 9.55228 29.5523 10 29 10C28.4477 10 28 9.55228 28 9V6H25C24.4477 6 24 5.55228 24 5C24 4.44772 24.4477 4 25 4H28V1C28 0.447715 28.4477 0 29 0Z" fill="#1D222B"/>
</svg>
