<svg width="24" height="24" viewBox="0 0 24 24" fill="none" xmlns="http://www.w3.org/2000/svg">
<mask id="mask0_11594_29277" style="mask-type:alpha" maskUnits="userSpaceOnUse" x="0" y="0" width="24" height="24">
<rect width="24" height="24" fill="#D9D9D9"/>
</mask>
<g mask="url(#mask0_11594_29277)">
<path d="M3 20.9984V16.2484L11.95 7.29844L10.5 5.89844L11.95 4.49844L13.85 6.39844L16.95 3.29844C17.0333 3.2151 17.1375 3.14844 17.2625 3.09844C17.3875 3.04844 17.5167 3.02344 17.65 3.02344C17.7833 3.02344 17.9083 3.04844 18.025 3.09844C18.1417 3.14844 18.25 3.2151 18.35 3.29844L20.7 5.64844C20.7833 5.74844 20.85 5.85677 20.9 5.97344C20.95 6.0901 20.975 6.2151 20.975 6.34844C20.975 6.48177 20.95 6.61094 20.9 6.73594C20.85 6.86094 20.7833 6.9651 20.7 7.04844L17.625 10.1234L19.525 12.0734L18.1 13.4984L16.7 12.0484L7.75 20.9984H3ZM5 18.9984H6.95L15.25 10.6484L13.35 8.74844L5 17.0484V18.9984ZM16.175 8.74844L18.575 6.34844L17.65 5.42344L15.25 7.82344L16.175 8.74844Z" fill="#27222A"/>
</g>
</svg>
