<svg width="20" height="20" viewBox="0 0 20 20" fill="none" xmlns="http://www.w3.org/2000/svg">
<path d="M16.875 6.25H3.125C2.77982 6.25 2.5 6.52982 2.5 6.875V9.375C2.5 9.72018 2.77982 10 3.125 10H16.875C17.2202 10 17.5 9.72018 17.5 9.375V6.875C17.5 6.52982 17.2202 6.25 16.875 6.25Z" stroke="#1D222B" stroke-linecap="round" stroke-linejoin="round"/>
<path d="M16.25 10V15.625C16.25 15.7908 16.1842 15.9497 16.0669 16.0669C15.9497 16.1842 15.7908 16.25 15.625 16.25H4.375C4.20924 16.25 4.05027 16.1842 3.93306 16.0669C3.81585 15.9497 3.75 15.7908 3.75 15.625V10" stroke="#1D222B" stroke-linecap="round" stroke-linejoin="round"/>
<path d="M10 6.25V16.25" stroke="#1D222B" stroke-linecap="round" stroke-linejoin="round"/>
<path d="M13.5391 5.36653C12.6484 6.24935 10 6.24935 10 6.24935C10 6.24935 10 3.60091 10.8828 2.71028C11.2351 2.35804 11.7128 2.16016 12.2109 2.16016C12.7091 2.16016 13.1868 2.35804 13.5391 2.71028C13.8913 3.06252 14.0892 3.54027 14.0892 4.03841C14.0892 4.53655 13.8913 5.01429 13.5391 5.36653V5.36653Z" stroke="#1D222B" stroke-linecap="round" stroke-linejoin="round"/>
<path d="M6.46102 5.36653C7.35164 6.24935 10.0001 6.24935 10.0001 6.24935C10.0001 6.24935 10.0001 3.60091 9.11727 2.71028C8.76502 2.35804 8.28728 2.16016 7.78914 2.16016C7.291 2.16016 6.81326 2.35804 6.46102 2.71028C6.10878 3.06252 5.91089 3.54027 5.91089 4.03841C5.91089 4.53655 6.10878 5.01429 6.46102 5.36653V5.36653Z" stroke="#1D222B" stroke-linecap="round" stroke-linejoin="round"/>
</svg>
