<svg width="20" height="20" viewBox="0 0 20 20" fill="none" xmlns="http://www.w3.org/2000/svg">
<path d="M2.5 18.3346H12.5M3.33333 7.5013H11.6667M11.6667 18.3346V3.33464C11.6667 2.89261 11.4911 2.46868 11.1785 2.15612C10.866 1.84356 10.442 1.66797 10 1.66797H5C4.55797 1.66797 4.13405 1.84356 3.82149 2.15612C3.50893 2.46868 3.33333 2.89261 3.33333 3.33464V18.3346M11.6667 10.8346H13.3333C13.7754 10.8346 14.1993 11.0102 14.5118 11.3228C14.8244 11.6354 15 12.0593 15 12.5013V14.168C15 14.61 15.1756 15.0339 15.4882 15.3465C15.8007 15.659 16.2246 15.8346 16.6667 15.8346C17.1087 15.8346 17.5326 15.659 17.8452 15.3465C18.1577 15.0339 18.3333 14.61 18.3333 14.168V8.19297C18.3335 7.97304 18.2902 7.75526 18.2058 7.55216C18.1214 7.34907 17.9976 7.16468 17.8417 7.00964L15 4.16797" stroke="#1D222B" stroke-linecap="round" stroke-linejoin="round"/>
</svg>
