<svg xmlns="http://www.w3.org/2000/svg"
     fill="currentColor"
     viewBox="0 0 24 24">
    <path fill="#000"
          d="M21.6 16.56v1a1 1 0 0 0 1-1h-1Zm0-5.28h1a1 1 0 0 0-1-1v1ZM7.14 6.12a1 1 0 0 0 1.08 1.682L7.14 6.12Zm7.26-3.48.79-.614a1 1 0 0 0-1.33-.227l.54.841Zm2.57 4.934a1 1 0 0 0 1.58-1.228l-1.58 1.228Zm4.63 7.986h-3.12v2h3.12v-2Zm-3.12-3.28h3.12v-2h-3.12v2Zm2.12-1v5.28h2v-5.28h-2Zm-3.76 2.64c0-.906.734-1.64 1.64-1.64v-2a3.64 3.64 0 0 0-3.64 3.64h2Zm1.64 1.64a1.64 1.64 0 0 1-1.64-1.64h-2a3.64 3.64 0 0 0 3.64 3.64v-2ZM8.22 7.801l6.72-4.32L13.86 1.8 7.14 6.12l1.08 1.682Zm5.39-4.547 3.36 4.32 1.58-1.228-3.36-4.32-1.58 1.228ZM3.36 7.96h16.32v-2H3.36v2Zm16.32 12.4H3.36v2h16.32v-2ZM3.4 20.4V7.92h-2V20.4h2Zm-.04-.04a.04.04 0 0 1 .04.04h-2a1.96 1.96 0 0 0 1.96 1.96v-2Zm16.28.04a.04.04 0 0 1 .04-.04v2a1.96 1.96 0 0 0 1.96-1.96h-2Zm.04-12.44a.04.04 0 0 1-.04-.04h2a1.96 1.96 0 0 0-1.96-1.96v2Zm-16.32-2A1.96 1.96 0 0 0 1.4 7.92h2a.04.04 0 0 1-.04.04v-2Zm16.28 11.32v3.12h2v-3.12h-2Zm0-9.36v2.52h2V7.92h-2Z" />
</svg>