<svg width="22" height="22" viewBox="0 0 22 22" fill="none" xmlns="http://www.w3.org/2000/svg">
<path id="alarm-check-icon" d="M0.399902 6.00802C0.399902 6.56031 0.847618 7.00802 1.3999 7.00802C1.95219 7.00802 2.3999 6.56031 2.3999 6.00802H0.399902ZM6.0079 2.40002C6.56019 2.40002 7.0079 1.95231 7.0079 1.40002C7.0079 0.84774 6.56019 0.400025 6.0079 0.400025V2.40002ZM15.9919 0.400024C15.4396 0.400024 14.9919 0.84774 14.9919 1.40002C14.9919 1.95231 15.4396 2.40002 15.9919 2.40002L15.9919 0.400024ZM16.7599 1.40002L16.7599 0.400024L16.7599 1.40002ZM20.5999 5.24002L19.5999 5.24002V5.24002H20.5999ZM19.5999 6.00802C19.5999 6.56031 20.0476 7.00802 20.5999 7.00802C21.1522 7.00802 21.5999 6.56031 21.5999 6.00802H19.5999ZM5.56301 18.6191C5.95353 18.2286 5.95353 17.5954 5.56301 17.2049C5.17248 16.8144 4.53932 16.8144 4.14879 17.2049L5.56301 18.6191ZM1.4608 19.8929C1.07027 20.2834 1.07027 20.9166 1.4608 21.3071C1.85132 21.6977 2.48448 21.6977 2.87501 21.3071L1.4608 19.8929ZM19.1248 21.3071C19.5153 21.6977 20.1485 21.6977 20.539 21.3071C20.9295 20.9166 20.9295 20.2834 20.539 19.8929L19.1248 21.3071ZM17.851 17.2049C17.4605 16.8144 16.8273 16.8144 16.4368 17.2049C16.0463 17.5954 16.0463 18.2286 16.4368 18.6191L17.851 17.2049ZM8.70701 10.8929C8.31648 10.5024 7.68332 10.5024 7.29279 10.8929C6.90227 11.2834 6.90227 11.9166 7.29279 12.3071L8.70701 10.8929ZM9.7999 13.4L9.09279 14.1071C9.48332 14.4977 10.1165 14.4977 10.507 14.1071L9.7999 13.4ZM14.707 9.90713C15.0975 9.51661 15.0975 8.88344 14.707 8.49292C14.3165 8.10239 13.6833 8.10239 13.2928 8.49292L14.707 9.90713ZM2.3999 6.00802V5.24002H0.399902V6.00802H2.3999ZM5.2399 2.40002H6.0079V0.400025H5.2399V2.40002ZM2.3999 5.24002C2.3999 3.67154 3.67141 2.40002 5.2399 2.40002V0.400025C2.56684 0.400025 0.399902 2.56697 0.399902 5.24002H2.3999ZM15.9919 2.40002L16.7599 2.40002L16.7599 0.400024L15.9919 0.400024L15.9919 2.40002ZM19.5999 5.24002V6.00802H21.5999V5.24002H19.5999ZM16.7599 2.40002C18.3284 2.40002 19.5999 3.67154 19.5999 5.24002L21.5999 5.24002C21.5999 2.56697 19.433 0.400025 16.7599 0.400024L16.7599 2.40002ZM4.14879 17.2049L1.4608 19.8929L2.87501 21.3071L5.56301 18.6191L4.14879 17.2049ZM20.539 19.8929L17.851 17.2049L16.4368 18.6191L19.1248 21.3071L20.539 19.8929ZM18.4479 11.768C18.4479 15.8814 15.1133 19.216 10.9999 19.216V21.216C16.2179 21.216 20.4479 16.986 20.4479 11.768H18.4479ZM10.9999 19.216C6.88648 19.216 3.5519 15.8814 3.5519 11.768H1.5519C1.5519 16.986 5.78192 21.216 10.9999 21.216V19.216ZM3.5519 11.768C3.5519 7.65461 6.88648 4.32002 10.9999 4.32002V2.32002C5.78192 2.32002 1.5519 6.55004 1.5519 11.768H3.5519ZM10.9999 4.32002C15.1133 4.32002 18.4479 7.65461 18.4479 11.768H20.4479C20.4479 6.55004 16.2179 2.32002 10.9999 2.32002V4.32002ZM7.29279 12.3071L9.09279 14.1071L10.507 12.6929L8.70701 10.8929L7.29279 12.3071ZM10.507 14.1071L14.707 9.90713L13.2928 8.49292L9.09279 12.6929L10.507 14.1071Z" fill="black"/>
</svg>
