<svg width="20" height="20" viewBox="0 0 20 20" fill="none" xmlns="http://www.w3.org/2000/svg">
<path id="arrow-left-contained-02-icon" d="M8.56883 14.6177C8.9224 15.042 9.55296 15.0993 9.97724 14.7458C10.4015 14.3922 10.4588 13.7616 10.1053 13.3373L8.56883 14.6177ZM6.02247 10L5.25425 9.35984C4.94521 9.73069 4.94521 10.2694 5.25425 10.6402L6.02247 10ZM10.1053 6.66271C10.4588 6.23843 10.4015 5.60787 9.97724 5.2543C9.55296 4.90074 8.9224 4.95806 8.56883 5.38234L10.1053 6.66271ZM13.9775 11C14.5298 11 14.9775 10.5523 14.9775 10C14.9775 9.44774 14.5298 9.00003 13.9775 9.00003V11ZM10.1053 13.3373L6.79069 9.35984L5.25425 10.6402L8.56883 14.6177L10.1053 13.3373ZM6.79069 10.6402L10.1053 6.66271L8.56883 5.38234L5.25425 9.35984L6.79069 10.6402ZM6.02247 11H13.9775V9.00003H6.02247V11ZM4.34315 4.34315C7.46734 1.21895 12.5327 1.21895 15.6569 4.34315L17.0711 2.92893C13.1658 -0.976311 6.83418 -0.976311 2.92893 2.92893L4.34315 4.34315ZM15.6569 4.34315C18.781 7.46734 18.781 12.5327 15.6569 15.6569L17.0711 17.0711C20.9763 13.1658 20.9763 6.83418 17.0711 2.92893L15.6569 4.34315ZM15.6569 15.6569C12.5327 18.781 7.46734 18.781 4.34315 15.6569L2.92893 17.0711C6.83418 20.9763 13.1658 20.9763 17.0711 17.0711L15.6569 15.6569ZM4.34315 15.6569C1.21895 12.5327 1.21895 7.46734 4.34315 4.34315L2.92893 2.92893C-0.976311 6.83418 -0.976311 13.1658 2.92893 17.0711L4.34315 15.6569Z" fill="black"/>
</svg>
