<svg width="22" height="22" viewBox="0 0 22 22" fill="none" xmlns="http://www.w3.org/2000/svg">
<path id="bank-note-06-icon" d="M4.9999 4.9999V9.1999M16.9999 4.9999V9.1999M16.3999 13.3999H18.7999C19.794 13.3999 20.5999 12.594 20.5999 11.5999V3.1999C20.5999 2.20579 19.794 1.3999 18.7999 1.3999H3.1999C2.20579 1.3999 1.3999 2.20579 1.3999 3.1999V11.5999C1.3999 12.594 2.20579 13.3999 3.1999 13.3999H5.5999M7.60484 17.2056L10.9989 20.5997M10.9989 20.5997L14.1644 17.4342M10.9989 20.5997L10.9991 13.6574M13.3999 7.3999C13.3999 8.72539 12.3254 9.7999 10.9999 9.7999C9.67442 9.7999 8.5999 8.72539 8.5999 7.3999C8.5999 6.07442 9.67442 4.9999 10.9999 4.9999C12.3254 4.9999 13.3999 6.07442 13.3999 7.3999Z" stroke="black" stroke-width="2" stroke-linecap="round" stroke-linejoin="round"/>
</svg>
