<svg width="22" height="18" viewBox="0 0 22 18" fill="none" xmlns="http://www.w3.org/2000/svg">
<g id="bank-note-04-icon">
<path d="M1.3999 15.0815L1.40012 3.25766C1.40014 2.58422 2.05233 2.10331 2.69568 2.30235L3.04375 2.41004C5.71575 3.23671 8.60455 3.23671 11.2765 2.41004C14.1974 1.50639 17.3688 1.59289 20.2274 2.65417L20.6002 2.79256L20.5999 15.575C20.5999 15.7676 20.4078 15.9012 20.2272 15.8342V15.8342C17.3685 14.7729 14.1971 14.6864 11.2763 15.59C8.6043 16.4167 5.7155 16.4167 3.04351 15.59L1.3999 15.0815Z" stroke="black" stroke-width="2" stroke-linejoin="round"/>
<path d="M13.3999 8.99004C13.3999 10.3155 12.3254 11.39 10.9999 11.39C9.67442 11.39 8.5999 10.3155 8.5999 8.99004C8.5999 7.66455 9.67442 6.59004 10.9999 6.59004C12.3254 6.59004 13.3999 7.66455 13.3999 8.99004Z" stroke="black" stroke-width="2" stroke-linejoin="round"/>
</g>
</svg>
