<svg width="20" height="20" viewBox="0 0 20 20" fill="none" xmlns="http://www.w3.org/2000/svg">
<path id="bell-ringing-04-icon" d="M7.02718 18.6606L6.52494 17.7958L6.52494 17.7958L7.02718 18.6606ZM6.28334 18.0979L5.29089 17.9752L5.29089 17.9752L6.28334 18.0979ZM5.69451 14.9505L4.82115 15.4378L4.8272 15.4483L5.69451 14.9505ZM4.80557 13.3571L5.67893 12.8699L5.67288 12.8593L4.80557 13.3571ZM18.7936 11.8266L19.2959 12.6914L19.2959 12.6914L18.7936 11.8266ZM18.6926 10.9076L19.1022 9.99535L19.1022 9.99535L18.6926 10.9076ZM16.3045 8.78824L15.4308 9.27492L15.4372 9.286L16.3045 8.78824ZM15.4606 7.27323L16.3342 6.78655L16.3279 6.77546L15.4606 7.27323ZM7.01683 4.97555L7.51907 5.84028L7.01683 4.97555ZM12.5949 18.5863L13.0972 19.451L12.5949 18.5863ZM0.0708366 9.66917C0.148722 10.2159 0.655102 10.596 1.20187 10.5182C1.74863 10.4403 2.12873 9.93389 2.05085 9.38712L0.0708366 9.66917ZM2.67196 6.23617C2.96083 5.76545 2.81342 5.14968 2.3427 4.86081C1.87199 4.57194 1.25622 4.71936 0.967351 5.19007L2.67196 6.23617ZM9.92938 0.00127271C9.3772 0.0117485 8.93806 0.467875 8.94853 1.02006C8.95901 1.57225 9.41513 2.01139 9.96732 2.00091L9.92938 0.00127271ZM12.9913 3.00264C13.4209 3.34971 14.0505 3.2828 14.3976 2.85319C14.7447 2.42359 14.6778 1.79397 14.2482 1.4469L12.9913 3.00264ZM7.27578 18.2206C7.40349 17.1878 7.3269 15.7858 6.56182 14.4528L4.8272 15.4483C5.31553 16.2992 5.38282 17.2318 5.29089 17.9752L7.27578 18.2206ZM6.5678 14.4633L5.67886 12.8699L3.93228 13.8443L4.82122 15.4377L6.5678 14.4633ZM19.1022 9.99535C18.436 9.69615 17.6701 9.1587 17.1718 8.29047L15.4372 9.286C16.2009 10.6167 17.3476 11.3998 18.2829 11.8198L19.1022 9.99535ZM17.1781 8.30159L16.3342 6.78659L14.587 7.75987L15.4309 9.27488L17.1781 8.30159ZM16.3279 6.77546C14.3436 3.31802 9.95156 2.11464 6.5146 4.11082L7.51907 5.84028C9.9847 4.40825 13.1535 5.26228 14.5933 7.771L16.3279 6.77546ZM19.2959 12.6914C19.9139 12.3324 20.0422 11.6749 19.9879 11.2323C19.9337 10.7907 19.6709 10.2507 19.1022 9.99535L18.2829 11.8198C18.06 11.7197 18.0112 11.5443 18.0028 11.476C17.9943 11.4066 18.0003 11.131 18.2914 10.9619L19.2959 12.6914ZM5.67288 12.8593C4.25598 10.3905 5.0927 7.24952 7.51907 5.84028L6.5146 4.11082C3.12407 6.08004 1.98076 10.4441 3.93826 13.8549L5.67288 12.8593ZM6.52494 17.7958C6.82514 17.6215 7.07318 17.7635 7.12666 17.805C7.17993 17.8464 7.30581 17.9777 7.27578 18.2206L5.29089 17.9752C5.21353 18.6009 5.54582 19.1097 5.90008 19.3847C6.25455 19.66 6.89817 19.8919 7.52941 19.5253L6.52494 17.7958ZM18.2914 10.9619L6.52494 17.7958L7.52941 19.5253L19.2959 12.6914L18.2914 10.9619ZM12.8802 15.2552C13.3292 16.0375 13.0551 17.1627 12.0927 17.7216L13.0972 19.451C14.9102 18.3981 15.6681 16.0947 14.6148 14.2596L12.8802 15.2552ZM12.0927 17.7216C11.1331 18.2789 10.0363 17.9563 9.58971 17.1782L7.85509 18.1738C8.91074 20.0131 11.2815 20.5056 13.0972 19.451L12.0927 17.7216ZM6.85748 2.8154C7.11907 3.27119 6.96146 3.85129 6.5146 4.11082L7.51907 5.84028C8.92242 5.02522 9.39873 3.22533 8.5921 1.81987L6.85748 2.8154ZM6.5146 4.11082C6.07126 4.36831 5.50162 4.21793 5.24201 3.7656L3.50739 4.76113C4.316 6.17006 6.1122 6.65739 7.51907 5.84028L6.5146 4.11082ZM5.24201 3.7656C4.98042 3.30981 5.13804 2.72971 5.58489 2.47018L4.58042 0.740716C3.17708 1.55578 2.70076 3.35567 3.50739 4.76113L5.24201 3.7656ZM5.58489 2.47018C6.02823 2.21269 6.59788 2.36307 6.85748 2.8154L8.5921 1.81987C7.78349 0.410943 5.98729 -0.0763918 4.58042 0.740716L5.58489 2.47018ZM2.05085 9.38712C1.89215 8.27308 2.10607 7.15829 2.67196 6.23617L0.967351 5.19007C0.14131 6.53611 -0.148992 8.12596 0.0708366 9.66917L2.05085 9.38712ZM9.96732 2.00091C11.0868 1.97967 12.157 2.32866 12.9913 3.00264L14.2482 1.4469C13.0225 0.45669 11.4855 -0.0282483 9.92938 0.00127271L9.96732 2.00091Z" fill="black"/>
</svg>
