<svg width="22" height="22" viewBox="0 0 22 22" fill="none" xmlns="http://www.w3.org/2000/svg">
<path id="bold-02-icon" d="M7.3999 15.7999H6.3999V16.7999H7.3999V15.7999ZM7.3999 6.1999V5.1999H6.3999V6.1999H7.3999ZM12.2599 14.7999H7.3999V16.7999H12.2599V14.7999ZM8.3999 15.7999V10.9999H6.3999V15.7999H8.3999ZM15.5999 13.3999C15.5999 11.5462 14.1282 9.9999 12.2599 9.9999V11.9999C12.9762 11.9999 13.5999 12.6027 13.5999 13.3999H15.5999ZM12.2599 16.7999C14.1282 16.7999 15.5999 15.2537 15.5999 13.3999H13.5999C13.5999 14.1971 12.9762 14.7999 12.2599 14.7999V16.7999ZM11.5399 9.9999H7.3999V11.9999H11.5399V9.9999ZM8.3999 10.9999V6.1999H6.3999V10.9999H8.3999ZM11.5399 5.1999H7.3999V7.1999H11.5399V5.1999ZM14.8799 8.5999C14.8799 6.74615 13.4082 5.1999 11.5399 5.1999V7.1999C12.2562 7.1999 12.8799 7.80268 12.8799 8.5999H14.8799ZM11.5399 11.9999C13.4082 11.9999 14.8799 10.4537 14.8799 8.5999H12.8799C12.8799 9.39712 12.2562 9.9999 11.5399 9.9999V11.9999ZM12.2599 9.9999H7.3999V11.9999H12.2599V9.9999ZM3.7999 2.3999H18.1999V0.399902H3.7999V2.3999ZM19.5999 3.7999V18.1999H21.5999V3.7999H19.5999ZM18.1999 19.5999H3.7999V21.5999H18.1999V19.5999ZM2.3999 18.1999V3.7999H0.399902V18.1999H2.3999ZM3.7999 19.5999C3.0267 19.5999 2.3999 18.9731 2.3999 18.1999H0.399902C0.399902 20.0777 1.92213 21.5999 3.7999 21.5999V19.5999ZM19.5999 18.1999C19.5999 18.9731 18.9731 19.5999 18.1999 19.5999V21.5999C20.0777 21.5999 21.5999 20.0777 21.5999 18.1999H19.5999ZM18.1999 2.3999C18.9731 2.3999 19.5999 3.0267 19.5999 3.7999H21.5999C21.5999 1.92213 20.0777 0.399902 18.1999 0.399902V2.3999ZM3.7999 0.399902C1.92213 0.399902 0.399902 1.92213 0.399902 3.7999H2.3999C2.3999 3.0267 3.0267 2.3999 3.7999 2.3999V0.399902Z" fill="black"/>
</svg>
