<svg width="24" height="18" viewBox="0 0 24 18" fill="none" xmlns="http://www.w3.org/2000/svg">
<path id="card-edit-icon" d="M1.50099 12.6602L0.500989 12.6602L1.50099 12.6602ZM1.50073 3.66032L2.50073 3.66029L1.50073 3.66032ZM11.7006 16.0603C12.2529 16.0603 12.7007 15.6126 12.7007 15.0603C12.7007 14.508 12.253 14.0603 11.7007 14.0603L11.7006 16.0603ZM3.90095 15.0601L3.90097 14.0601L3.90096 14.0601L3.90095 15.0601ZM20.7002 3.6591L19.7002 3.6591L19.7002 3.65912L20.7002 3.6591ZM2.10027 4.46011C1.54799 4.46011 1.10027 4.90782 1.10027 5.46011C1.10027 6.01239 1.54799 6.46011 2.10027 6.46011V4.46011ZM20.1003 6.46011C20.6526 6.46011 21.1003 6.01239 21.1003 5.46011C21.1003 4.90782 20.6526 4.46011 20.1003 4.46011V6.46011ZM15.2993 13.8601L14.5922 13.153C14.4047 13.3405 14.2993 13.5949 14.2993 13.8601H15.2993ZM19.6193 9.54011L20.3264 8.833C19.9359 8.44247 19.3027 8.44247 18.9122 8.833L19.6193 9.54011ZM22.4993 12.4201L23.2064 13.1272C23.394 12.9397 23.4993 12.6853 23.4993 12.4201C23.4993 12.1549 23.394 11.9005 23.2064 11.713L22.4993 12.4201ZM18.1793 16.7401V17.7401C18.4445 17.7401 18.6989 17.6347 18.8864 17.4472L18.1793 16.7401ZM15.2993 16.7401H14.2993C14.2993 17.2924 14.747 17.7401 15.2993 17.7401V16.7401ZM3.90073 2.26025H18.3V0.260254H3.90073V2.26025ZM2.50099 12.6601L2.50073 3.66029L0.500732 3.66035L0.500989 12.6602L2.50099 12.6601ZM11.7007 14.0603L3.90097 14.0601L3.90093 16.0601L11.7006 16.0603L11.7007 14.0603ZM19.7002 3.65912L19.7003 6.06027L21.7003 6.06023L21.7002 3.65908L19.7002 3.65912ZM3.90073 0.260254C2.02293 0.260254 0.500679 1.78254 0.500732 3.66035L2.50073 3.66029C2.50071 2.88708 3.12752 2.26025 3.90073 2.26025V0.260254ZM18.3 2.26025C19.074 2.26025 19.7002 2.88653 19.7002 3.6591L21.7002 3.65909C21.7002 1.7805 20.1772 0.260254 18.3 0.260254V2.26025ZM0.500989 12.6602C0.501043 14.5379 2.02322 16.0601 3.90093 16.0601L3.90096 14.0601C3.12779 14.0601 2.50101 13.4333 2.50099 12.6601L0.500989 12.6602ZM2.10027 6.46011H20.1003V4.46011H2.10027V6.46011ZM16.0064 14.5672L20.3264 10.2472L18.9122 8.833L14.5922 13.153L16.0064 14.5672ZM18.9122 10.2472L21.7922 13.1272L23.2064 11.713L20.3264 8.833L18.9122 10.2472ZM21.7922 11.713L17.4722 16.033L18.8864 17.4472L23.2064 13.1272L21.7922 11.713ZM18.1793 15.7401H15.2993V17.7401H18.1793V15.7401ZM16.2993 16.7401V13.8601H14.2993V16.7401H16.2993Z" fill="black"/>
</svg>
