<svg width="20" height="20" viewBox="0 0 20 20" fill="none" xmlns="http://www.w3.org/2000/svg">
<path id="clock-01-icon" d="M13.0588 13.1987C13.5827 13.3733 14.149 13.0902 14.3237 12.5662C14.4983 12.0423 14.2152 11.476 13.6912 11.3013L13.0588 13.1987ZM10 11.125H9C9 11.5554 9.27543 11.9376 9.68377 12.0737L10 11.125ZM11 6.42087C11 5.86858 10.5523 5.42087 10 5.42087C9.44772 5.42087 9 5.86858 9 6.42087H11ZM13.6912 11.3013L10.3162 10.1763L9.68377 12.0737L13.0588 13.1987L13.6912 11.3013ZM11 11.125V6.42087H9V11.125H11ZM18 10C18 14.4183 14.4183 18 10 18V20C15.5228 20 20 15.5228 20 10H18ZM10 18C5.58172 18 2 14.4183 2 10H0C0 15.5228 4.47715 20 10 20V18ZM2 10C2 5.58172 5.58172 2 10 2V0C4.47715 0 0 4.47715 0 10H2ZM10 2C14.4183 2 18 5.58172 18 10H20C20 4.47715 15.5228 0 10 0V2Z" fill="black"/>
</svg>
