<svg width="20" height="20" viewBox="0 0 20 20" fill="none" xmlns="http://www.w3.org/2000/svg">
<path id="compare-icon" d="M3.7 7.2C3.14772 7.2 2.7 7.64772 2.7 8.2C2.7 8.75228 3.14772 9.2 3.7 9.2V7.2ZM7.75 8.2L8.45711 8.90711C8.84763 8.51658 8.84763 7.88342 8.45711 7.49289L7.75 8.2ZM5.24289 9.29289C4.85237 9.68342 4.85237 10.3166 5.24289 10.7071C5.63342 11.0976 6.26658 11.0976 6.65711 10.7071L5.24289 9.29289ZM6.65711 5.69289C6.26658 5.30237 5.63342 5.30237 5.24289 5.69289C4.85237 6.08342 4.85237 6.71658 5.24289 7.10711L6.65711 5.69289ZM15.85 12.8C16.4023 12.8 16.85 12.3523 16.85 11.8C16.85 11.2477 16.4023 10.8 15.85 10.8V12.8ZM11.8 11.8L11.0929 11.0929C10.7024 11.4834 10.7024 12.1166 11.0929 12.5071L11.8 11.8ZM14.3071 10.7071C14.6976 10.3166 14.6976 9.68342 14.3071 9.29289C13.9166 8.90237 13.2834 8.90237 12.8929 9.29289L14.3071 10.7071ZM12.8929 14.3071C13.2834 14.6976 13.9166 14.6976 14.3071 14.3071C14.6976 13.9166 14.6976 13.2834 14.3071 12.8929L12.8929 14.3071ZM2.8 2H9.1V0H2.8V2ZM9.55 14.4H2.8V16.4H9.55V14.4ZM2 13.6V2.8H0V13.6H2ZM9.9 2.8V5.5H11.9V2.8H9.9ZM2.8 14.4C2.35817 14.4 2 14.0418 2 13.6H0C0 15.1464 1.2536 16.4 2.8 16.4V14.4ZM9.1 2C9.54183 2 9.9 2.35817 9.9 2.8H11.9C11.9 1.2536 10.6464 0 9.1 0V2ZM2.8 0C1.2536 0 0 1.2536 0 2.8H2C2 2.35817 2.35817 2 2.8 2V0ZM10.9 5.6H17.2V3.6H10.9V5.6ZM18 6.4V17.2H20V6.4H18ZM17.2 18H10.9V20H17.2V18ZM10.1 17.2V6.4H8.1V17.2H10.1ZM10.9 18C10.4582 18 10.1 17.6418 10.1 17.2H8.1C8.1 18.7464 9.3536 20 10.9 20V18ZM18 17.2C18 17.6418 17.6418 18 17.2 18V20C18.7464 20 20 18.7464 20 17.2H18ZM17.2 5.6C17.6418 5.6 18 5.95817 18 6.4H20C20 4.8536 18.7464 3.6 17.2 3.6V5.6ZM10.9 3.6C9.3536 3.6 8.1 4.8536 8.1 6.4H10.1C10.1 5.95817 10.4582 5.6 10.9 5.6V3.6ZM3.7 9.2H7.75V7.2H3.7V9.2ZM6.65711 10.7071L8.45711 8.90711L7.04289 7.49289L5.24289 9.29289L6.65711 10.7071ZM8.45711 7.49289L6.65711 5.69289L5.24289 7.10711L7.04289 8.90711L8.45711 7.49289ZM15.85 10.8H11.8V12.8H15.85V10.8ZM12.8929 9.29289L11.0929 11.0929L12.5071 12.5071L14.3071 10.7071L12.8929 9.29289ZM11.0929 12.5071L12.8929 14.3071L14.3071 12.8929L12.5071 11.0929L11.0929 12.5071Z" fill="black"/>
</svg>
