<svg width="22" height="22" viewBox="0 0 22 22" fill="none" xmlns="http://www.w3.org/2000/svg">
<path id="currency-coin-bath-icon" d="M10.7011 5.19174V6.59274M10.7011 14.9987V16.3997M20.5999 10.9999C20.5999 16.3018 16.3018 20.5999 10.9999 20.5999C5.69797 20.5999 1.3999 16.3018 1.3999 10.9999C1.3999 5.69797 5.69797 1.3999 10.9999 1.3999C16.3018 1.3999 20.5999 5.69797 20.5999 10.9999ZM8.59962 6.59274H12.1021C12.6595 6.59274 13.194 6.81414 13.5881 7.20825C13.9822 7.60236 14.2036 8.13688 14.2036 8.69424V8.79441C14.2036 9.32519 13.9928 9.83424 13.6174 10.2096C13.2421 10.5849 12.7331 10.7957 12.2023 10.7957H8.59962H12.1021C12.6595 10.7957 13.194 11.0171 13.5881 11.4112C13.9822 11.8054 14.2036 12.3399 14.2036 12.8972V12.9974C14.2036 13.5282 13.9928 14.0372 13.6174 14.4126C13.2421 14.7879 12.7331 14.9987 12.2023 14.9987H8.59962V6.59274Z" stroke="black" stroke-width="2" stroke-linecap="round" stroke-linejoin="round"/>
</svg>
