<svg width="22" height="22" viewBox="0 0 22 22" fill="none" xmlns="http://www.w3.org/2000/svg">
<path id="currency-coin-bitcoin-icon" d="M7.3999 7.01917H12.7846C13.3202 7.01917 13.8338 7.23192 14.2125 7.6106C14.5912 7.98929 14.8039 8.5029 14.8039 9.03845C14.8039 9.57399 14.5912 10.0876 14.2125 10.4663C13.8338 10.845 13.3202 11.0577 12.7846 11.0577M12.7846 11.0577C13.3202 11.0577 13.8338 11.2705 14.2125 11.6491C14.5912 12.0278 14.8039 12.5414 14.8039 13.077C14.8039 13.6125 14.5912 14.1261 14.2125 14.5048C13.8338 14.8835 13.3202 15.0963 12.7846 15.0963H7.3999M12.7846 11.0577H8.74608M8.74608 7.01917V15.0963M9.41917 4.9999V7.01917M12.1115 4.9999V7.01917M9.41917 15.0963V17.1155M12.1115 15.0963V17.1155M20.5999 10.9999C20.5999 16.3018 16.3018 20.5999 10.9999 20.5999C5.69797 20.5999 1.3999 16.3018 1.3999 10.9999C1.3999 5.69797 5.69797 1.3999 10.9999 1.3999C16.3018 1.3999 20.5999 5.69797 20.5999 10.9999Z" stroke="black" stroke-width="2" stroke-linecap="round" stroke-linejoin="round"/>
</svg>
