<svg width="22" height="22" viewBox="0 0 22 22" fill="none" xmlns="http://www.w3.org/2000/svg">
<path id="currency-coin-cent-icon" d="M14 7.68889C13.1656 6.93457 12.0804 6.51761 10.9555 6.5191M10.9555 6.5191C10.3574 6.5195 9.76523 6.6377 9.2128 6.86696C8.66036 7.09622 8.1585 7.43204 7.73585 7.85525C7.3132 8.27846 6.97805 8.78078 6.74953 9.33351C6.52101 9.88625 6.4036 10.4786 6.404 11.0767C6.404 13.594 8.44124 15.6343 10.9555 15.6343M10.9555 6.5191L10.9563 4.9999M10.9555 15.6343C12.0789 15.6359 13.1628 15.2201 13.997 14.4676M10.9555 15.6343L10.9563 17.1535M20.5999 10.9999C20.5999 16.3018 16.3018 20.5999 10.9999 20.5999C5.69797 20.5999 1.3999 16.3018 1.3999 10.9999C1.3999 5.69797 5.69797 1.3999 10.9999 1.3999C16.3018 1.3999 20.5999 5.69797 20.5999 10.9999Z" stroke="black" stroke-width="2" stroke-linecap="round" stroke-linejoin="round"/>
</svg>
