<svg width="22" height="22" viewBox="0 0 22 22" fill="none" xmlns="http://www.w3.org/2000/svg">
<path id="discount-star-03-icon" d="M7.40022 14.6L14.6002 7.40004M7.95412 7.94938L7.93997 7.93509M14.0646 14.1227L14.0505 14.1084M10.4991 2.63805L8.57469 1.57292C8.15197 1.33895 7.62758 1.52432 7.42842 1.97814L6.52176 4.0441C6.40376 4.31297 6.16256 4.50063 5.88181 4.54201L3.7246 4.85993C3.25074 4.92976 2.93098 5.40117 3.02564 5.8904L3.45655 8.11756C3.51264 8.40741 3.42327 8.70709 3.21946 8.91266L1.65342 10.4922C1.30942 10.8392 1.31644 11.4165 1.66875 11.7543L3.27265 13.292C3.48139 13.4921 3.578 13.7893 3.52898 14.0806L3.15229 16.3184C3.06954 16.81 3.40065 17.2728 3.87605 17.3301L6.0403 17.5909C6.32196 17.6249 6.56764 17.8061 6.69213 18.0718L7.64867 20.1131C7.85879 20.5615 8.38751 20.733 8.80442 20.4879L10.7023 19.3723C10.9493 19.2271 11.2503 19.2231 11.5007 19.3617L13.4251 20.4269C13.8478 20.6609 14.3722 20.4755 14.5714 20.0217L15.478 17.9557C15.596 17.6868 15.8372 17.4992 16.118 17.4578L18.2752 17.1399C18.7491 17.07 19.0688 16.5986 18.9742 16.1094L18.5432 13.8822C18.4872 13.5924 18.5765 13.2927 18.7803 13.0871L20.3464 11.5076C20.6904 11.1606 20.6834 10.5833 20.331 10.2455L18.7272 8.70782C18.5184 8.5077 18.4218 8.21048 18.4708 7.91924L18.8475 5.68141C18.9303 5.18984 18.5992 4.72702 18.1238 4.66973L15.9595 4.40889C15.6778 4.37495 15.4322 4.19371 15.3077 3.92804L14.3511 1.8867C14.141 1.43829 13.6123 1.26682 13.1954 1.51188L11.2975 2.62751C11.0505 2.7727 10.7495 2.77667 10.4991 2.63805Z" stroke="black" stroke-width="2" stroke-linecap="round"/>
</svg>
