<svg width="18" height="22" viewBox="0 0 18 22" fill="none" xmlns="http://www.w3.org/2000/svg">
<g id="file-shield-03-icon">
<path d="M1.19995 4.9999V16.9999C1.19995 18.9881 2.81173 20.5999 4.79995 20.5999H13.2C15.1882 20.5999 16.8 18.9881 16.8 16.9999V4.9999C16.8 3.01168 15.1882 1.3999 13.2 1.3999H4.79995C2.81173 1.3999 1.19995 3.01168 1.19995 4.9999Z" stroke="black" stroke-width="2" stroke-linejoin="round"/>
<path d="M10.6099 7.60469C9.59642 7.09794 8.40348 7.09794 7.38998 7.60469L5.99995 8.2997V11.6447C5.99995 12.5497 7.06762 13.5794 8.99995 14.7997C10.9323 13.5794 12 12.7997 12 11.6447C12 10.4897 12 8.2997 12 8.2997L10.6099 7.60469Z" stroke="black" stroke-width="2" stroke-linejoin="round"/>
</g>
</svg>
