<svg width="18" height="22" viewBox="0 0 18 22" fill="none" xmlns="http://www.w3.org/2000/svg">
<path id="file-lock-03-icon" d="M7.19995 9.1999V7.9999C7.19995 7.00579 8.00584 6.1999 8.99995 6.1999C9.99406 6.1999 10.8 7.00579 10.8 7.9999V9.7999M1.19995 16.9999V4.9999C1.19995 3.01168 2.81173 1.3999 4.79995 1.3999H13.2C15.1882 1.3999 16.8 3.01168 16.8 4.9999V16.9999C16.8 18.9881 15.1882 20.5999 13.2 20.5999H4.79995C2.81173 20.5999 1.19995 18.9881 1.19995 16.9999ZM6.59995 15.7999H11.4C12.0627 15.7999 12.6 15.2626 12.6 14.5999V10.9999C12.6 10.3372 12.0627 9.7999 11.4 9.7999H6.59995C5.93721 9.7999 5.39995 10.3372 5.39995 10.9999V14.5999C5.39995 15.2626 5.93721 15.7999 6.59995 15.7999Z" stroke="black" stroke-width="2" stroke-linecap="round" stroke-linejoin="round"/>
</svg>
