<svg width="22" height="22" viewBox="0 0 22 22" fill="none" xmlns="http://www.w3.org/2000/svg">
<path id="file-shred-icon" d="M15.5621 1.78718L14.8373 2.47611L14.8373 2.47611L15.5621 1.78718ZM17.0003 3.1999L17.6671 2.45466L17.6671 2.45466L17.0003 3.1999ZM18.4703 4.65503L17.7503 5.34908L17.7503 5.34908L18.4703 4.65503ZM18.8003 5.47773L17.8003 5.47771V5.47773H18.8003ZM3.19999 3.79989L2.19999 3.79988V3.79989H3.19999ZM1.3999 12.9999C0.847618 12.9999 0.399902 13.4476 0.399902 13.9999C0.399902 14.5522 0.847618 14.9999 1.3999 14.9999V12.9999ZM20.5999 14.9999C21.1522 14.9999 21.5999 14.5522 21.5999 13.9999C21.5999 13.4476 21.1522 12.9999 20.5999 12.9999V14.9999ZM2.19999 9.1999C2.19999 9.75219 2.64771 10.1999 3.19999 10.1999C3.75228 10.1999 4.19999 9.75219 4.19999 9.1999H2.19999ZM17.8003 9.1999C17.8003 9.75219 18.248 10.1999 18.8003 10.1999C19.3525 10.1999 19.8003 9.75219 19.8003 9.1999H17.8003ZM4.20028 18.1999C4.20028 17.6476 3.75256 17.1999 3.20028 17.1999C2.64799 17.1999 2.20028 17.6476 2.20028 18.1999H4.20028ZM2.20028 20.5999C2.20028 21.1522 2.64799 21.5999 3.20028 21.5999C3.75256 21.5999 4.20028 21.1522 4.20028 20.5999H2.20028ZM12.6003 18.1999C12.6003 17.6476 12.1526 17.1999 11.6003 17.1999C11.048 17.1999 10.6003 17.6476 10.6003 18.1999H12.6003ZM10.6003 20.5999C10.6003 21.1522 11.048 21.5999 11.6003 21.5999C12.1526 21.5999 12.6003 21.1522 12.6003 20.5999H10.6003ZM21.0003 18.1999C21.0003 17.6476 20.5526 17.1999 20.0003 17.1999C19.448 17.1999 19.0003 17.6476 19.0003 18.1999H21.0003ZM19.0003 20.5999C19.0003 21.1522 19.448 21.5999 20.0003 21.5999C20.5526 21.5999 21.0003 21.1522 21.0003 20.5999H19.0003ZM8.40028 18.1999C8.40028 17.6476 7.95256 17.1999 7.40028 17.1999C6.84799 17.1999 6.40028 17.6476 6.40028 18.1999H8.40028ZM6.40028 19.3999C6.40028 19.9522 6.84799 20.3999 7.40028 20.3999C7.95256 20.3999 8.40028 19.9522 8.40028 19.3999H6.40028ZM16.8003 18.1999C16.8003 17.6476 16.3526 17.1999 15.8003 17.1999C15.248 17.1999 14.8003 17.6476 14.8003 18.1999H16.8003ZM14.8003 19.3999C14.8003 19.9522 15.248 20.3999 15.8003 20.3999C16.3526 20.3999 16.8003 19.9522 16.8003 19.3999H14.8003ZM5.59999 2.3999H14.0003V0.399902H5.59999V2.3999ZM14.0003 2.3999H14.6697V0.399902H14.0003V2.3999ZM14.8373 2.47611C15.1933 2.85066 15.7693 3.44033 16.3335 3.94514L17.6671 2.45466C17.1631 2.00376 16.6307 1.4599 16.2869 1.09825L14.8373 2.47611ZM16.3335 3.94514C16.7199 4.29091 17.3521 4.93606 17.7503 5.34908L19.1902 3.96099C18.8008 3.55704 18.1178 2.85793 17.6671 2.45466L16.3335 3.94514ZM19.8003 5.47776C19.8003 4.91641 19.5858 4.3714 19.1902 3.96099L17.7503 5.34908C17.7806 5.38048 17.8003 5.42538 17.8003 5.47771L19.8003 5.47776ZM14.6697 2.3999C14.725 2.3999 14.7873 2.42349 14.8373 2.47611L16.287 1.09825C15.8713 0.660981 15.2902 0.399902 14.6697 0.399902V2.3999ZM5.59999 0.399902C3.72223 0.399902 2.20001 1.92212 2.19999 3.79988L4.19999 3.79989C4.2 3.0267 4.8268 2.3999 5.59999 2.3999V0.399902ZM13.0003 1.3999V4.9999H15.0003V1.3999H13.0003ZM15.2003 7.1999H18.8003V5.1999H15.2003V7.1999ZM13.0003 4.9999C13.0003 6.21493 13.9852 7.1999 15.2003 7.1999V5.1999C15.0898 5.1999 15.0003 5.11036 15.0003 4.9999H13.0003ZM1.3999 14.9999H20.5999V12.9999H1.3999V14.9999ZM2.19999 3.79989V9.1999H4.19999V3.79989H2.19999ZM17.8003 5.47773V6.1999H19.8003V5.47773H17.8003ZM17.8003 6.1999V9.1999H19.8003V6.1999H17.8003ZM2.20028 18.1999V20.5999H4.20028V18.1999H2.20028ZM10.6003 18.1999V20.5999H12.6003V18.1999H10.6003ZM19.0003 18.1999V20.5999H21.0003V18.1999H19.0003ZM6.40028 18.1999V19.3999H8.40028V18.1999H6.40028ZM14.8003 18.1999V19.3999H16.8003V18.1999H14.8003Z" fill="black"/>
</svg>
