<svg width="22" height="18" viewBox="0 0 22 18" fill="none" xmlns="http://www.w3.org/2000/svg">
<path id="folder-x-01-icon" d="M13.4 12.6L11 10.2M11 10.2L8.59999 7.80005M11 10.2L8.59999 12.6M11 10.2L13.4 7.80005M1.40093 14.541L1.40102 5.41673C1.40102 4.50281 1.40068 3.20108 1.40039 2.25853C1.40019 1.59561 1.93752 1.05884 2.60044 1.05884H8.31865L11.0837 4.01247H19.4C20.0627 4.01247 20.6 4.54976 20.6 5.21251L20.5997 14.5412C20.5996 15.8666 19.5251 16.9411 18.1997 16.9411L3.80092 16.9411C2.47543 16.9411 1.40091 15.8665 1.40093 14.541Z" stroke="black" stroke-width="2" stroke-linecap="round" stroke-linejoin="round"/>
</svg>
