<svg width="22" height="18" viewBox="0 0 22 18" fill="none" xmlns="http://www.w3.org/2000/svg">
<path id="folder-open-02-icon" d="M18.5788 7.4843V4.4422C18.5788 3.88991 18.1311 3.4422 17.5788 3.4422H10.9089C10.6436 3.4422 10.3893 3.33684 10.2017 3.1493L8.76648 1.71404C8.57894 1.5265 8.32459 1.42114 8.05937 1.42114H2.3999C1.84762 1.42114 1.3999 1.86886 1.3999 2.42114V15.579C1.3999 16.1313 1.84762 16.579 2.3999 16.579H3.57607C4.0485 16.579 4.43148 16.1961 4.43148 15.7236V15.7236C4.43148 15.6211 4.44993 15.5193 4.48595 15.4233L7.21973 8.13318C7.36609 7.74287 7.73922 7.4843 8.15606 7.4843H19.2125C19.895 7.4843 20.377 8.153 20.1612 8.80053L17.7962 15.8953C17.6601 16.3036 17.278 16.579 16.8476 16.579H3.42095" stroke="black" stroke-width="2" stroke-linecap="round" stroke-linejoin="round"/>
</svg>
