<svg width="18" height="20" viewBox="0 0 18 20" fill="none" xmlns="http://www.w3.org/2000/svg">
<path id="git-branch-05-icon" d="M3.66667 6.34209C5.13943 6.34209 6.33333 5.14625 6.33333 3.67111C6.33333 2.19596 5.13943 1.00012 3.66667 1.00012C2.19391 1.00012 1 2.19596 1 3.67111C1 5.14625 2.19391 6.34209 3.66667 6.34209ZM3.66667 6.34209V18.0668M14.3333 12.7248C15.8061 12.7248 17 13.9207 17 15.3958C17 16.8709 15.8061 18.0668 14.3333 18.0668C12.8606 18.0668 11.6667 16.8709 11.6667 15.3958C11.6667 13.9207 12.8606 12.7248 14.3333 12.7248ZM14.3333 12.7248V6.37769C14.3333 4.90493 13.1394 3.71103 11.6667 3.71103H10.0667" stroke="black" stroke-width="2" stroke-linecap="round" stroke-linejoin="round"/>
</svg>
