<svg width="24" height="22" viewBox="0 0 24 22" fill="none" xmlns="http://www.w3.org/2000/svg">
<path id="graduation-cap-01-icon" d="M5.43074 9.96817L11.3648 13.5045C11.6802 13.6925 12.0732 13.6925 12.3886 13.5045L21.9726 7.79303C22.298 7.59913 22.298 7.12791 21.9726 6.93401L12.3886 1.22254C12.0732 1.03457 11.6802 1.03457 11.3648 1.22254L1.7808 6.934C1.45542 7.12791 1.45542 7.59913 1.7808 7.79303L5.43074 9.96817ZM5.43074 9.96817L5.43074 16.2116C5.43074 16.5536 5.6056 16.872 5.89429 17.0555L10.8423 20.2007C11.477 20.6042 12.2845 20.6175 12.9321 20.235L18.3241 17.0511C18.6287 16.8712 18.8157 16.5438 18.8157 16.19L18.8157 9.96817" stroke="black" stroke-width="2"/>
</svg>
