<svg width="22" height="22" viewBox="0 0 22 22" fill="none" xmlns="http://www.w3.org/2000/svg">
<path id="header-02-icon" d="M7.51133 15.7997V10.8151M7.51133 15.7997H5.84979M7.51133 15.7997H9.17287M7.51133 10.8151V5.83049M7.51133 10.8151H14.9883M7.51133 5.83049H5.84979M7.51133 5.83049H9.17287M14.9883 10.8151V15.7997M14.9883 10.8151V5.83049M14.9883 15.7997H13.3267M14.9883 15.7997H16.6498M14.9883 5.83049H13.3267M14.9883 5.83049H16.6498M4.0499 20.5999H18.4499C19.7754 20.5999 20.8499 19.5254 20.8499 18.1999V3.7999C20.8499 2.47442 19.7754 1.3999 18.4499 1.3999H4.0499C2.72442 1.3999 1.6499 2.47442 1.6499 3.7999V18.1999C1.6499 19.5254 2.72442 20.5999 4.0499 20.5999Z" stroke="black" stroke-width="2" stroke-linecap="round" stroke-linejoin="round"/>
</svg>
