<svg width="20" height="22" viewBox="0 0 20 22" fill="none" xmlns="http://www.w3.org/2000/svg">
<path id="horizontal-chart-01-icon" d="M1 8.6452H5.17801M1 8.6452L5.1196 8.6463C5.13918 8.64631 5.15866 8.64594 5.17801 8.6452M1 8.6452L1 4.76002C1 4.22983 1.53726 3.80002 2.2 3.80002H5.12C5.78274 3.80002 6.32 4.22983 6.32 4.76002V7.6863C6.32 8.20095 5.81379 8.62099 5.17801 8.6452M1 8.6452L1 13.4918M5.17801 8.6452L10.776 8.6452C11.4387 8.6452 11.976 9.07501 11.976 9.6052V12.5318C11.976 13.062 11.4387 13.4918 10.776 13.4918M1 13.4918H10.776M1 13.4918L1 17.24C1 17.7702 1.53726 18.2 2.2 18.2L17.8 18.2C18.4627 18.2 19 17.7702 19 17.24V14.4518C19 13.9216 18.4627 13.4918 17.8 13.4918L10.776 13.4918M1 20.6V1.40002" stroke="black" stroke-width="2" stroke-linecap="round" stroke-linejoin="round"/>
</svg>
