<svg width="20" height="20" viewBox="0 0 20 20" fill="none" xmlns="http://www.w3.org/2000/svg">
<path id="image-check-icon" d="M4.30609 18.6325L13.6733 9.81624L18.0815 14.2244M4.30609 18.6325H15.3264C17.1523 18.6325 18.6325 17.1523 18.6325 15.3264V7.61218M4.30609 18.6325C2.48019 18.6325 1 17.1523 1 15.3264V4.30609C1 2.48019 2.48019 1 4.30609 1H12.5713M13.4902 3.75507L15.1427 5.4083L19 1.55101M7.61218 5.95913C7.61218 6.87208 6.87208 7.61218 5.95913 7.61218C5.04618 7.61218 4.30609 6.87208 4.30609 5.95913C4.30609 5.04618 5.04618 4.30609 5.95913 4.30609C6.87208 4.30609 7.61218 5.04618 7.61218 5.95913Z" stroke="black" stroke-width="2" stroke-linecap="round" stroke-linejoin="round"/>
</svg>
