<svg width="22" height="22" viewBox="0 0 22 22" fill="none" xmlns="http://www.w3.org/2000/svg">
<path id="map-02-icon" d="M2.22915 4.66667L17.4297 19.5065M2.22915 4.66667C2.7947 4.021 3.63942 3.61111 4.58316 3.61111H9.72177M2.22915 4.66667C1.77429 5.18596 1.5 5.85777 1.5 6.5915V17.5196C1.5 19.1656 2.88038 20.5 4.58316 20.5H15.8881C17.5909 20.5 18.9713 19.1656 18.9713 17.5196V13.049M9.72177 13.049L3.04158 19.5065M17.0057 4.87778V4.81428M20.5 4.80435C20.5 7.00725 17.0057 9.94444 17.0057 9.94444C17.0057 9.94444 13.5115 7.00725 13.5115 4.80435C13.5115 2.97941 15.0759 1.5 17.0057 1.5C18.9356 1.5 20.5 2.97941 20.5 4.80435Z" stroke="black" stroke-width="2" stroke-linecap="round" stroke-linejoin="round"/>
</svg>
