<svg width="20" height="19" viewBox="0 0 20 19" fill="none" xmlns="http://www.w3.org/2000/svg">
<path id="message-chat-01-icon" d="M17 7.5V3C17 1.89543 16.1046 1 15 1H3C1.89543 1 1 1.89543 1 3V10.8261C1 11.9307 1.89543 12.8261 3 12.8261H4.56522V17L8.73913 12.8261H9M14.163 15.3913L16.7717 18V15.3913H17C18.1046 15.3913 19 14.4959 19 13.3913V10C19 8.89543 18.1046 8 17 8H11C9.89543 8 9 8.89543 9 10V13.3913C9 14.4959 9.89543 15.3913 11 15.3913H14.163Z" stroke="black" stroke-width="2" stroke-linecap="round" stroke-linejoin="round"/>
</svg>
