<svg width="20" height="22" viewBox="0 0 20 22" fill="none" xmlns="http://www.w3.org/2000/svg">
<path id="microphone-off-01-icon" d="M7.17586 2.36394C7.79312 1.74668 8.63031 1.3999 9.50325 1.3999C10.3762 1.3999 11.2134 1.74668 11.8306 2.36394C12.4479 2.9812 12.7947 3.81839 12.7947 4.69133V7.9999M1.90005 10.177C2.16588 12.0035 3.08043 13.6733 4.4764 14.8808C5.87236 16.0883 7.6564 16.7528 9.50215 16.7528M9.50215 16.7528C11.3479 16.7528 13.1319 16.0883 14.5279 14.8808C15.9239 13.6733 16.8384 12.0035 17.1043 10.177M9.50215 16.7528V20.5999M6.21182 6.7999V9.0799C6.21182 9.95284 6.55859 10.79 7.17586 11.4073C7.79312 12.0246 8.63031 12.3713 9.50325 12.3713C10.0618 12.3713 10.6056 12.2294 11.0866 11.9655M1.30005 1.3999L18.7 18.7999" stroke="black" stroke-width="2" stroke-linecap="round" stroke-linejoin="round"/>
</svg>
