<svg width="18" height="22" viewBox="0 0 18 22" fill="none" xmlns="http://www.w3.org/2000/svg">
<path id="microphone-01-icon" d="M1.39795 10.177C1.66378 12.0035 2.57833 13.6733 3.9743 14.8808C5.37026 16.0883 7.15431 16.7528 9.00005 16.7528M9.00005 16.7528C10.8458 16.7528 12.6298 16.0883 14.0258 14.8808C15.4218 13.6733 16.3363 12.0035 16.6022 10.177M9.00005 16.7528V20.5999M9.00115 1.3999C8.12821 1.3999 7.29102 1.74668 6.67376 2.36394C6.05649 2.9812 5.70972 3.81839 5.70972 4.69133V9.0799C5.70972 9.95284 6.05649 10.79 6.67376 11.4073C7.29102 12.0246 8.12821 12.3713 9.00115 12.3713C9.87409 12.3713 10.7113 12.0246 11.3285 11.4073C11.9458 10.79 12.2926 9.95284 12.2926 9.0799V4.69133C12.2926 3.81839 11.9458 2.9812 11.3285 2.36394C10.7113 1.74668 9.87409 1.3999 9.00115 1.3999Z" stroke="black" stroke-width="2" stroke-linecap="round" stroke-linejoin="round"/>
</svg>
