<svg width="16" height="22" viewBox="0 0 16 22" fill="none" xmlns="http://www.w3.org/2000/svg">
<path id="note-01-icon" d="M14.5686 3.42105L9.51575 1.3999V16.5585C9.51555 17.4483 9.22176 18.3132 8.67994 19.019C8.13812 19.7249 7.37855 20.2322 6.51902 20.4623C5.65949 20.6925 4.74804 20.6326 3.92601 20.292C3.10398 19.9514 2.41731 19.349 1.9725 18.5784C1.52768 17.8077 1.34957 16.9118 1.46578 16.0296C1.582 15.1475 1.98605 14.3283 2.61528 13.6991C3.24451 13.07 4.06374 12.666 4.94594 12.5499C5.82814 12.4338 6.724 12.612 7.4946 13.0569C7.83146 13.2135 9.18523 14.2991 9.51574 15.0427" stroke="black" stroke-width="2" stroke-linecap="round" stroke-linejoin="round"/>
</svg>
