<svg width="22" height="22" viewBox="0 0 22 22" fill="none" xmlns="http://www.w3.org/2000/svg">
<path id="palette-icon" d="M10.7502 5.00002V5.03325M4.78313 11.0003H4.7499M14.9929 6.75757L14.9694 6.78107M6.53108 15.2194L6.50758 15.2429M6.53108 6.78069L6.50758 6.75719M10.7499 20.6C5.44797 20.6 1.1499 16.302 1.1499 11C1.1499 5.69809 5.44797 1.40002 10.7499 1.40002C16.0518 1.40002 20.3499 5.69809 20.3499 11C20.3499 12.6141 18.8585 13.688 17.2445 13.688H16.6179C16.2943 13.688 15.9752 13.7633 15.6859 13.908C14.6564 14.4228 14.2392 15.6746 14.7539 16.704C14.8986 16.9934 14.9739 17.3125 14.9739 17.636V17.8252C14.9739 18.9257 14.3563 19.968 13.2949 20.259C12.4844 20.4813 11.631 20.6 10.7499 20.6Z" stroke="black" stroke-width="2" stroke-linecap="round" stroke-linejoin="round"/>
</svg>
