<svg width="22" height="22" viewBox="0 0 22 22" fill="none" xmlns="http://www.w3.org/2000/svg">
<path id="phone-call-01-icon" d="M11.871 5.32596C13.0709 5.52705 14.1608 6.09377 15.031 6.96214C15.9011 7.8305 16.4644 8.91824 16.6705 10.1157M12.0542 1.40002C14.1883 1.76108 16.1347 2.77113 17.6826 4.31133C19.2306 5.85611 20.2381 7.7985 20.5999 9.92828M18.9329 18.4017C18.9329 18.4017 17.7742 19.5397 17.4903 19.8733C17.0277 20.3669 16.4827 20.6 15.7683 20.6C15.6996 20.6 15.6263 20.6 15.5576 20.5954C14.1974 20.5086 12.9335 19.9785 11.9855 19.526C9.39335 18.2737 7.11724 16.4959 5.22582 14.2427C3.66415 12.3643 2.61997 10.6275 1.92844 8.76284C1.50253 7.62482 1.34682 6.73818 1.41551 5.90181C1.46131 5.36708 1.6674 4.92375 2.04751 4.54442L3.60919 2.98593C3.83359 2.77569 4.07174 2.66144 4.3053 2.66144C4.59382 2.66144 4.82739 2.83511 4.97394 2.98136C4.97852 2.98593 4.9831 2.9905 4.98768 2.99507C5.26704 3.25558 5.53266 3.52523 5.81202 3.81316C5.95399 3.95941 6.10054 4.10566 6.24709 4.25648L7.49735 5.50419C7.9828 5.98864 7.9828 6.43654 7.49735 6.92099C7.36454 7.05353 7.23631 7.18607 7.1035 7.31404C6.7188 7.70709 7.021 7.40551 6.62257 7.76199C6.61341 7.77113 6.60425 7.7757 6.59967 7.78485C6.20582 8.17789 6.27909 8.5618 6.36153 8.82231C6.36611 8.83602 6.37069 8.84973 6.37527 8.86345C6.70042 9.64954 7.15839 10.3899 7.85451 11.272L7.85909 11.2766C9.12308 12.8305 10.4558 14.0416 11.9259 14.9694C12.1136 15.0882 12.306 15.1842 12.4892 15.2756C12.654 15.3579 12.8097 15.4356 12.9426 15.5179C12.9609 15.527 12.9792 15.5407 12.9975 15.5499C13.1532 15.6275 13.2998 15.6641 13.4509 15.6641C13.831 15.6641 14.0692 15.4265 14.147 15.3488L15.0447 14.4529C15.2004 14.2975 15.4477 14.1101 15.7362 14.1101C16.0202 14.1101 16.2537 14.2884 16.3957 14.4438C16.4003 14.4483 16.4003 14.4483 16.4049 14.4529L18.9283 16.9712C19.4 17.4373 18.9329 18.4017 18.9329 18.4017Z" stroke="black" stroke-width="2" stroke-linecap="round" stroke-linejoin="round"/>
</svg>
