<svg width="24" height="22" viewBox="0 0 24 22" fill="none" xmlns="http://www.w3.org/2000/svg">
<path id="scissors-02-icon" d="M4.34995 8.39505L21.15 15.7999M21.15 6.1999L4.34995 13.6047M18.1503 11.0002L18.1268 11.0237M22.9738 11.0002L22.9503 11.0237M5.54995 8.5999C3.56173 8.5999 1.94995 6.98813 1.94995 4.9999C1.94995 3.01168 3.56173 1.3999 5.54995 1.3999C7.53818 1.3999 9.14995 3.01168 9.14995 4.9999C9.14995 6.98813 7.53818 8.5999 5.54995 8.5999ZM5.54995 20.5999C3.56173 20.5999 1.94995 18.9881 1.94995 16.9999C1.94995 15.0117 3.56173 13.3999 5.54995 13.3999C7.53818 13.3999 9.14995 15.0117 9.14995 16.9999C9.14995 18.9881 7.53818 20.5999 5.54995 20.5999Z" stroke="black" stroke-width="2" stroke-linecap="round" stroke-linejoin="round"/>
</svg>
