<svg width="22" height="22" viewBox="0 0 22 22" fill="none" xmlns="http://www.w3.org/2000/svg">
<path id="server-06-icon" d="M1.3999 17.2C0.847618 17.2 0.399902 17.6477 0.399902 18.2C0.399902 18.7523 0.847618 19.2 1.3999 19.2V17.2ZM20.5999 19.2C21.1522 19.2 21.5999 18.7523 21.5999 18.2C21.5999 17.6477 21.1522 17.2 20.5999 17.2V19.2ZM19.5999 4.99999C19.5999 5.10837 19.5449 5.33133 19.1821 5.65302C18.8204 5.97367 18.24 6.30811 17.437 6.60925C15.8383 7.20875 13.5627 7.59999 10.9999 7.59999V9.59999C13.739 9.59999 16.2634 9.18535 18.1392 8.48191C19.0735 8.13157 19.899 7.69028 20.5089 7.14953C21.1176 6.60982 21.5999 5.88573 21.5999 4.99999H19.5999ZM10.9999 7.59999C8.4371 7.59999 6.16147 7.20875 4.5628 6.60925C3.75978 6.30811 3.17939 5.97367 2.81772 5.65302C2.4549 5.33133 2.3999 5.10837 2.3999 4.99999H0.399902C0.399902 5.88573 0.882166 6.60982 1.49091 7.14953C2.10082 7.69028 2.92632 8.13157 3.86055 8.48191C5.7364 9.18535 8.26077 9.59999 10.9999 9.59999V7.59999ZM2.3999 4.99999C2.3999 4.89162 2.4549 4.66865 2.81772 4.34697C3.17939 4.02632 3.75978 3.69187 4.5628 3.39074C6.16147 2.79124 8.4371 2.39999 10.9999 2.39999V0.399994C8.26077 0.399994 5.7364 0.814638 3.86055 1.51808C2.92632 1.86842 2.10082 2.30971 1.49091 2.85045C0.882166 3.39017 0.399902 4.11426 0.399902 4.99999H2.3999ZM10.9999 2.39999C13.5627 2.39999 15.8383 2.79124 17.437 3.39074C18.24 3.69187 18.8204 4.02632 19.1821 4.34697C19.5449 4.66865 19.5999 4.89162 19.5999 4.99999H21.5999C21.5999 4.11426 21.1176 3.39017 20.5089 2.85045C19.899 2.30971 19.0735 1.86842 18.1392 1.51808C16.2634 0.814638 13.739 0.399994 10.9999 0.399994V2.39999ZM19.5999 9.79999C19.5999 9.90837 19.5449 10.1313 19.1821 10.453C18.8204 10.7737 18.24 11.1081 17.437 11.4092C15.8383 12.0087 13.5627 12.4 10.9999 12.4V14.4C13.739 14.4 16.2634 13.9853 18.1392 13.2819C19.0735 12.9316 19.899 12.4903 20.5089 11.9495C21.1176 11.4098 21.5999 10.6857 21.5999 9.79999H19.5999ZM10.9999 12.4C8.4371 12.4 6.16147 12.0087 4.5628 11.4092C3.75978 11.1081 3.17939 10.7737 2.81772 10.453C2.4549 10.1313 2.3999 9.90837 2.3999 9.79999H0.399902C0.399902 10.6857 0.882166 11.4098 1.49091 11.9495C2.10082 12.4903 2.92632 12.9316 3.86055 13.2819C5.7364 13.9853 8.26077 14.4 10.9999 14.4V12.4ZM2.3999 9.79999V4.99999H0.399902V9.79999H2.3999ZM21.5999 9.79999V4.99999H19.5999V9.79999H21.5999ZM12.3999 18.2C12.3999 18.9732 11.7731 19.6 10.9999 19.6V21.6C12.8777 21.6 14.3999 20.0778 14.3999 18.2H12.3999ZM10.9999 19.6C10.2267 19.6 9.5999 18.9732 9.5999 18.2H7.5999C7.5999 20.0778 9.12213 21.6 10.9999 21.6V19.6ZM9.5999 18.2C9.5999 17.4268 10.2267 16.8 10.9999 16.8V14.8C9.12213 14.8 7.5999 16.3222 7.5999 18.2H9.5999ZM10.9999 16.8C11.7731 16.8 12.3999 17.4268 12.3999 18.2H14.3999C14.3999 16.3222 12.8777 14.8 10.9999 14.8V16.8ZM1.3999 19.2H8.5999V17.2H1.3999V19.2ZM13.3999 19.2H20.5999V17.2H13.3999V19.2ZM9.9999 13.4V15.8H11.9999V13.4H9.9999Z" fill="black"/>
</svg>
