<svg width="22" height="22" viewBox="0 0 22 22" fill="none" xmlns="http://www.w3.org/2000/svg">
<path id="smiley-neutral-icon" d="M8.1199 8.12002V7.12002C7.56762 7.12002 7.1199 7.56774 7.1199 8.12002H8.1199ZM8.21553 8.12002H9.21553C9.21553 7.56774 8.76781 7.12002 8.21553 7.12002V8.12002ZM13.8799 8.12002V7.12002C13.3276 7.12002 12.8799 7.56774 12.8799 8.12002H13.8799ZM13.9649 8.12002H14.9649C14.9649 7.56774 14.5172 7.12002 13.9649 7.12002V8.12002ZM8.21553 8.1969V9.1969C8.76781 9.1969 9.21553 8.74918 9.21553 8.1969H8.21553ZM8.1199 8.1969H7.1199C7.1199 8.74918 7.56762 9.1969 8.1199 9.1969V8.1969ZM13.9649 8.1969V9.1969C14.5172 9.1969 14.9649 8.74918 14.9649 8.1969H13.9649ZM13.8799 8.1969H12.8799C12.8799 8.74918 13.3276 9.1969 13.8799 9.1969V8.1969ZM7.67185 12.9192C7.11957 12.9192 6.67185 13.3669 6.67185 13.9192C6.67185 14.4715 7.11957 14.9192 7.67185 14.9192V12.9192ZM14.3279 14.9192C14.8802 14.9192 15.3279 14.4715 15.3279 13.9192C15.3279 13.3669 14.8802 12.9192 14.3279 12.9192V14.9192ZM19.5999 11C19.5999 15.7497 15.7495 19.6 10.9999 19.6V21.6C16.8541 21.6 21.5999 16.8542 21.5999 11H19.5999ZM10.9999 19.6C6.25025 19.6 2.3999 15.7497 2.3999 11H0.399902C0.399902 16.8542 5.14568 21.6 10.9999 21.6V19.6ZM2.3999 11C2.3999 6.25037 6.25025 2.40002 10.9999 2.40002V0.400024C5.14568 0.400024 0.399902 5.14581 0.399902 11H2.3999ZM10.9999 2.40002C15.7495 2.40002 19.5999 6.25037 19.5999 11H21.5999C21.5999 5.14581 16.8541 0.400024 10.9999 0.400024V2.40002ZM8.1199 9.12002H8.21553V7.12002H8.1199V9.12002ZM13.8799 9.12002H13.9649V7.12002H13.8799V9.12002ZM7.21553 8.12002V8.1969H9.21553V8.12002H7.21553ZM8.21553 7.1969H8.1199V9.1969H8.21553V7.1969ZM9.1199 8.1969V8.12002H7.1199V8.1969H9.1199ZM12.9649 8.12002V8.1969H14.9649V8.12002H12.9649ZM13.9649 7.1969H13.8799V9.1969H13.9649V7.1969ZM14.8799 8.1969V8.12002H12.8799V8.1969H14.8799ZM14.3279 12.9192H7.67185V14.9192H14.3279V12.9192Z" fill="black"/>
</svg>
