<svg width="24" height="22" viewBox="0 0 24 22" fill="none" xmlns="http://www.w3.org/2000/svg">
<path id="umbrella-icon" d="M12.8727 11.6751L10.4496 15.872M17.2672 2.91272C15.2148 4.16496 11.0639 7.44034 10.8788 10.5239M18.2641 3.48827C18.2513 5.91803 17.5675 11.1952 14.935 12.8658M1.80005 18.1897L4.3335 17.0751C5.88155 16.3941 7.58722 16.1525 9.26352 16.3767L9.3411 16.3871C11.0432 16.6148 12.6477 17.3138 13.9735 18.4053L16 20.0736M6.66626 8.09183L19.0792 15.2584C19.7812 15.6638 20.6789 15.4232 21.0843 14.7211C23.3812 10.7428 22.0181 5.65567 18.0397 3.35876L17.4914 3.04216C13.513 0.745251 8.4259 2.10834 6.12899 6.0867C5.72365 6.78877 5.9642 7.68649 6.66626 8.09183Z" stroke="black" stroke-width="2" stroke-linecap="round" stroke-linejoin="round"/>
</svg>
