<svg width="22" height="16" viewBox="0 0 22 16" fill="none" xmlns="http://www.w3.org/2000/svg">
<path id="users-profiles-03-icon" d="M1.3999 14.2168C2.49855 12.3843 4.90641 11.1301 8.66302 11.1301C12.4196 11.1301 14.8275 12.3843 15.9261 14.2168M16.6211 9.74056C18.6105 10.7352 19.6052 11.7299 20.5999 13.7193M14.5521 2.1376C15.4882 2.64115 16.1245 3.62991 16.1245 4.7673C16.1245 5.87183 15.5244 6.8362 14.6325 7.35216M11.6471 4.76727C11.6471 6.41533 10.3111 7.75134 8.66302 7.75134C7.01496 7.75134 5.67895 6.41533 5.67895 4.76727C5.67895 3.11922 7.01496 1.7832 8.66302 1.7832C10.3111 1.7832 11.6471 3.11922 11.6471 4.76727Z" stroke="black" stroke-width="2" stroke-linecap="round"/>
</svg>
