<svg width="22" height="22" viewBox="0 0 22 22" fill="none" xmlns="http://www.w3.org/2000/svg">
<path id="users-profiles-left-icon" d="M1.40039 20.6L1.4008 16.9996C1.40102 15.0116 3.01273 13.4 5.00079 13.4H11.0004M16.5708 17.3L13.9994 14.9M13.9994 14.9L16.5708 12.5M13.9994 14.9H20.5994M16.4004 1.40002C17.8566 2.2163 18.8004 3.5249 18.8004 5.00002C18.8004 6.47515 17.8566 7.78375 16.4004 8.60002M13.4004 5.00002C13.4004 6.98825 11.7886 8.60002 9.80039 8.60002C7.81216 8.60002 6.20039 6.98825 6.20039 5.00002C6.20039 3.0118 7.81216 1.40002 9.80039 1.40002C11.7886 1.40002 13.4004 3.0118 13.4004 5.00002Z" stroke="black" stroke-width="2" stroke-linecap="round" stroke-linejoin="round"/>
</svg>
