<svg width="34" height="34" viewBox="0 0 34 34" fill="none" xmlns="http://www.w3.org/2000/svg">
<circle cx="17" cy="17" r="17" fill="#745086" fill-opacity="0.3"/>
<path d="M15.8351 22.084C15.0511 22.084 14.3311 21.9 13.6751 21.532C13.0191 21.164 12.4991 20.656 12.1151 20.008C11.7311 19.352 11.5391 18.612 11.5391 17.788C11.5391 16.972 11.7311 16.24 12.1151 15.592C12.4991 14.936 13.0191 14.424 13.6751 14.056C14.3311 13.688 15.0511 13.504 15.8351 13.504C16.6271 13.504 17.3471 13.688 17.9951 14.056C18.6511 14.424 19.1671 14.936 19.5431 15.592C19.9271 16.24 20.1191 16.972 20.1191 17.788C20.1191 18.612 19.9271 19.352 19.5431 20.008C19.1671 20.656 18.6511 21.164 17.9951 21.532C17.3391 21.9 16.6191 22.084 15.8351 22.084ZM15.8351 20.584C16.3391 20.584 16.7831 20.472 17.1671 20.248C17.5511 20.016 17.8511 19.688 18.0671 19.264C18.2831 18.84 18.3911 18.348 18.3911 17.788C18.3911 17.228 18.2831 16.74 18.0671 16.324C17.8511 15.9 17.5511 15.576 17.1671 15.352C16.7831 15.128 16.3391 15.016 15.8351 15.016C15.3311 15.016 14.8831 15.128 14.4911 15.352C14.1071 15.576 13.8071 15.9 13.5911 16.324C13.3751 16.74 13.2671 17.228 13.2671 17.788C13.2671 18.348 13.3751 18.84 13.5911 19.264C13.8071 19.688 14.1071 20.016 14.4911 20.248C14.8831 20.472 15.3311 20.584 15.8351 20.584ZM23.049 13.624V22H21.369V13.624H23.049ZM22.209 12.82C21.985 12.82 21.797 12.744 21.645 12.592C21.493 12.44 21.417 12.252 21.417 12.028C21.417 11.804 21.493 11.616 21.645 11.464C21.797 11.304 21.985 11.224 22.209 11.224C22.433 11.224 22.621 11.304 22.773 11.464C22.933 11.616 23.013 11.804 23.013 12.028C23.013 12.252 22.933 12.44 22.773 12.592C22.621 12.744 22.433 12.82 22.209 12.82Z" fill="#745086"/>
</svg>
