<svg width="42" height="42" viewBox="0 0 42 42" fill="none" xmlns="http://www.w3.org/2000/svg">
<g clip-path="url(#clip0_8746_57154)">
<path d="M33.4417 3.12109H14.1743V11.1111H37.5567V7.23451C37.5567 4.96616 35.7107 3.12109 33.4417 3.12109Z" fill="#FAFAFA"/>
<path d="M22.5352 12.3403H0V4.92636C0 2.20972 2.21068 0 4.92828 0H12.1336C12.8497 0 13.5396 0.150925 14.1664 0.434509C15.0418 0.828964 15.7939 1.47913 16.3213 2.3286L22.5352 12.3403Z" fill="#745086"/>
<path d="M42 14.0004V37.8817C42 40.153 40.1511 42.0003 37.8789 42.0003H4.12111C1.84891 42.0003 0 40.153 0 37.8817V9.88086H37.8789C40.1511 9.88086 42 11.7288 42 14.0004Z" fill="#745086"/>
<path d="M42 14.0004V37.8817C42 40.153 40.1511 42.0003 37.8789 42.0003H21V9.88086H37.8789C40.1511 9.88086 42 11.7288 42 14.0004Z" fill="#745086"/>
<path d="M32.048 25.9405C32.048 32.0329 27.0919 36.9894 21.0001 36.9894C14.9083 36.9894 9.95215 32.0329 9.95215 25.9405C9.95215 19.8491 14.9083 14.8926 21.0001 14.8926C27.0919 14.8926 32.048 19.8491 32.048 25.9405Z" fill="#FAFAFA"/>
<path d="M32.0479 25.9405C32.0479 32.0329 27.0918 36.9894 21 36.9894V14.8926C27.0918 14.8926 32.0479 19.8491 32.0479 25.9405Z" fill="#FAFAFA"/>
<path d="M24.561 26.0758C24.3306 26.2709 24.0483 26.3661 23.7685 26.3661C23.4183 26.3661 23.0703 26.2177 22.8268 25.9287L22.2304 25.2218V29.8499C22.2304 30.5292 21.6793 31.0803 21 31.0803C20.3207 31.0803 19.7695 30.5292 19.7695 29.8499V25.2218L19.1732 25.9287C18.7342 26.4481 17.9584 26.5145 17.439 26.0758C16.9199 25.6378 16.8532 24.8617 17.2913 24.3422L19.7269 21.4548C20.0444 21.0793 20.5078 20.8633 21 20.8633C21.4922 20.8633 21.9555 21.0793 22.2731 21.4548L24.7087 24.3422C25.1467 24.8617 25.0801 25.6378 24.561 26.0758Z" fill="#745086"/>
<path d="M24.561 26.0758C24.3306 26.2709 24.0483 26.3661 23.7686 26.3661C23.4183 26.3661 23.0703 26.2177 22.8268 25.9287L22.2305 25.2218V29.8499C22.2305 30.5292 21.6793 31.0803 21 31.0803V20.8633C21.4922 20.8633 21.9555 21.0793 22.2731 21.4548L24.7087 24.3422C25.1467 24.8617 25.0801 25.6378 24.561 26.0758Z" fill="#745086"/>
</g>
<defs>
<clipPath id="clip0_8746_57154">
<rect width="42" height="42" fill="white"/>
</clipPath>
</defs>
</svg>
