<svg width="16" height="16" viewBox="0 0 16 16" fill="none" xmlns="http://www.w3.org/2000/svg">
<path d="M6.5 4.625L4.625 4.625M6.5 6.875L4.625 6.875M11.375 4.625L9.5 4.625M11.375 6.875L9.5 6.875M6.5 9.125H4.625M6.5 11.375H4.625M2 4.25L2 11.75C2 12.9926 3.00736 14 4.25 14C5.49264 14 10.5074 14 11.75 14C12.9926 14 14 12.9926 14 11.75L14 4.25C14 3.00736 12.9926 2 11.75 2L4.25 2C3.00736 2 2 3.00736 2 4.25Z" stroke="#1D222B" stroke-width="1.5" stroke-linecap="round" stroke-linejoin="round"/>
</svg>
