<svg xmlns="http://www.w3.org/2000/svg"
     fill="currentColor"
     viewBox="0 0 24 24">
    <path fill="#000"
          d="M11.2 2.4a1 1 0 1 0-2 0h2Zm-2 19.2a1 1 0 1 0 2 0h-2ZM6 3.4h12v-2H6v2ZM20.6 6v12h2V6h-2ZM18 20.6H6v2h12v-2ZM3.4 18V6h-2v12h2ZM6 20.6A2.6 2.6 0 0 1 3.4 18h-2A4.6 4.6 0 0 0 6 22.6v-2ZM20.6 18a2.6 2.6 0 0 1-2.6 2.6v2a4.6 4.6 0 0 0 4.6-4.6h-2ZM18 3.4A2.6 2.6 0 0 1 20.6 6h2A4.6 4.6 0 0 0 18 1.4v2Zm-12-2A4.6 4.6 0 0 0 1.4 6h2A2.6 2.6 0 0 1 6 3.4v-2Zm3.2 1v19.2h2V2.4h-2Zm1 10.6H21v-2H10.2v2Z" />
</svg>