<svg xmlns="http://www.w3.org/2000/svg"
     fill="currentColor"
     viewBox="0 0 25 24">
    <path fill="#000"
          d="M20.332 13.898a1 1 0 1 0-1.885-.669l1.885.669Zm-2.976 5.396.943.334-.943-.334Zm-1.371 1.187.196.981-.196-.98ZM4.014 22.876l-.985-.178a1 1 0 0 0 1.18 1.158l-.195-.98ZM6.198 10.76l.984.177-.984-.177Zm1.26-1.428.299.955-.298-.955Zm6.166-.879a1 1 0 0 0-.596-1.909l.596 1.909Zm-10.1 13.498a1 1 0 1 0 1.413 1.414l-1.414-1.414Zm6.61-3.783a1 1 0 0 0-1.413-1.415l1.414 1.415Zm12.72-8.937.708-.707-.707.707Zm0 1.733.708.707-.707-.707Zm-6.93-6.93-.706-.708.707.708Zm1.733 0-.707.707.707-.707ZM13.76 7.933l-.707.707.707-.707Zm0-1.733.707.707-.707-.707Zm5.198 6.93.707-.707-.707.707Zm1.732 0-.707-.707.707.707ZM3.594 6.6a1 1 0 0 0 2 0h-2Zm2-5.288a1 1 0 1 0-2 0h2ZM1.95 2.956a1 1 0 0 0 0 2v-2Zm5.288 2a1 1 0 1 0 0-2v2Zm11.21 8.273-2.034 5.73 1.885.67 2.033-5.731-1.885-.669Zm-2.66 6.272-11.97 2.394.392 1.961 11.971-2.394-.392-1.961Zm-10.79 3.552 2.184-12.115-1.968-.354L3.03 22.698l1.969.355Zm2.759-12.765 5.867-1.834-.596-1.909L7.16 8.38l.597 1.909Zm-.575.65a.838.838 0 0 1 .575-.65l-.597-1.91a2.838 2.838 0 0 0-1.946 2.206l1.968.354Zm9.232 8.022a.838.838 0 0 1-.625.54l.392 1.962a2.838 2.838 0 0 0 2.118-1.834l-1.885-.668ZM4.937 23.366l5.198-5.197-1.414-1.415-5.198 5.198 1.414 1.414Zm14.727-10.943-5.198-5.197-1.414 1.414 5.198 5.197 1.414-1.414Zm-5.198-5.516 2.166-2.165-1.414-1.415-2.166 2.166 1.414 1.414Zm2.484-2.165 5.198 5.197 1.414-1.414-5.198-5.198-1.414 1.415Zm5.198 5.516-2.166 2.165 1.414 1.414 2.166-2.165-1.414-1.415Zm0-.319a.225.225 0 0 1 0 .319l1.414 1.414a2.225 2.225 0 0 0 0-3.147l-1.414 1.414Zm-5.516-5.197a.225.225 0 0 1 .318 0l1.414-1.415a2.225 2.225 0 0 0-3.146 0l1.414 1.415Zm-2.166 2.484a.225.225 0 0 1 0-.319l-1.414-1.414a2.225 2.225 0 0 0 0 3.147l1.414-1.414Zm3.784 6.611a2.225 2.225 0 0 0 3.146 0l-1.414-1.414a.225.225 0 0 1-.318 0l-1.415 1.414Zm-7.682.434a1.45 1.45 0 0 1 2.05 0l1.415-1.415a3.45 3.45 0 0 0-4.88 0l1.415 1.415Zm2.05 0a1.45 1.45 0 0 1 0 2.05l1.415 1.414a3.45 3.45 0 0 0 0-4.879l-1.414 1.415Zm0 2.05a1.45 1.45 0 0 1-2.05 0l-1.414 1.414a3.45 3.45 0 0 0 4.879 0l-1.414-1.414Zm-2.05 0a1.45 1.45 0 0 1 0-2.05l-1.414-1.415a3.45 3.45 0 0 0 0 4.88l1.414-1.415Zm-4.974-9.72V3.955h-2V6.6h2Zm0-2.645V1.312h-2v2.644h2Zm-3.644 1h2.644v-2H1.95v2Zm2.644 0h2.644v-2H4.594v2Z" />
</svg>