<svg xmlns="http://www.w3.org/2000/svg"
     fill="currentColor"
     viewBox="0 0 25 24">
    <path fill="#000"
          d="M20.331 12.698a1 1 0 1 0-1.885-.67l1.885.67Zm-2.976 5.396.943.334-.943-.334Zm-1.371 1.187.196.98-.196-.98ZM4.012 21.676l-.984-.178a1 1 0 0 0 1.18 1.158l-.196-.98ZM6.197 9.56l.984.177-.984-.177Zm1.26-1.428.299.954-.299-.954Zm6.166-.88a1 1 0 1 0-.596-1.908l.596 1.909ZM3.522 20.753a1 1 0 1 0 1.414 1.414l-1.414-1.414Zm6.612-3.783a1 1 0 0 0-1.415-1.415l1.415 1.415Zm12.72-8.937.707-.707-.707.707Zm0 1.732-.707-.707.707.707Zm-6.93-6.93-.708-.707.708.707Zm1.732 0-.707.708.707-.708Zm-3.898 3.899.707-.708-.707.708Zm0-1.733.707.707L13.758 5Zm5.198 6.93-.708.707.707-.707Zm1.732 0 .707.707-.707-.707ZM1.95 1.756a1 1 0 0 0 0 2v-2Zm5.288 2a1 1 0 1 0 0-2v2Zm11.208 8.273-2.033 5.73 1.885.67 2.033-5.731-1.885-.67ZM15.788 18.3 3.816 20.695l.393 1.961 11.97-2.394-.391-1.961ZM4.997 21.853 7.18 9.738l-1.968-.355-2.185 12.115 1.969.355ZM7.756 9.087l5.867-1.833-.596-1.909-5.868 1.834.597 1.908Zm-.575.651a.838.838 0 0 1 .575-.65l-.597-1.91a2.838 2.838 0 0 0-1.946 2.205l1.968.355Zm9.232 8.021a.838.838 0 0 1-.625.542l.392 1.96a2.838 2.838 0 0 0 2.118-1.833l-1.885-.669ZM4.936 22.166l5.198-5.197-1.415-1.415-5.197 5.198 1.414 1.414Zm14.727-10.943-5.198-5.198-1.414 1.415 5.197 5.197 1.415-1.414Zm-5.198-5.516 2.166-2.165-1.415-1.415-2.165 2.166 1.414 1.414Zm2.484-2.165 5.197 5.197 1.415-1.414-5.198-5.198-1.414 1.415Zm5.197 5.515-2.165 2.166 1.414 1.414 2.166-2.165-1.415-1.415Zm0-.318a.225.225 0 0 1 0 .318l1.415 1.415a2.225 2.225 0 0 0 0-3.147l-1.415 1.414Zm-5.515-5.197a.225.225 0 0 1 .318 0l1.414-1.415a2.225 2.225 0 0 0-3.147 0l1.415 1.415Zm-2.166 2.483a.225.225 0 0 1 0-.318l-1.414-1.414a2.225 2.225 0 0 0 0 3.147l1.414-1.415Zm3.783 6.612a2.225 2.225 0 0 0 3.147 0l-1.414-1.414a.225.225 0 0 1-.318 0l-1.415 1.414Zm-7.681.433a1.45 1.45 0 0 1 2.05 0l1.415-1.414a3.45 3.45 0 0 0-4.88 0l1.415 1.414Zm2.05 0a1.45 1.45 0 0 1 0 2.051l1.415 1.414a3.45 3.45 0 0 0 0-4.879l-1.414 1.414Zm0 2.051a1.45 1.45 0 0 1-2.05 0l-1.414 1.414a3.45 3.45 0 0 0 4.879 0l-1.414-1.414Zm-2.05 0a1.45 1.45 0 0 1 0-2.05l-1.414-1.415a3.45 3.45 0 0 0 0 4.88l1.414-1.415ZM1.95 3.756h5.288v-2H1.95v2Z" />
</svg>