<svg xmlns="http://www.w3.org/2000/svg"
     fill="currentColor"
     viewBox="0 0 25 24">
    <path stroke="currentColor"
          stroke-linecap="round"
          stroke-width="2"
          d="M6.113 2.4A2.963 2.963 0 0 0 3.15 5.363M14.883 2.4h-4.266M22.35 5.363A2.963 2.963 0 0 0 19.387 2.4M3.15 9.867v4.266m19.2 0V9.867m-19.2 8.77A2.963 2.963 0 0 0 6.113 21.6m13.274 0a2.963 2.963 0 0 0 2.963-2.963M10.617 21.6h4.266M3.15 12h7.467c1.178 0 2.133.955 2.133 2.133V21.6h-6.4a3.2 3.2 0 0 1-3.2-3.2V12Z" />
</svg>