<svg xmlns="http://www.w3.org/2000/svg" width="24" height="24" fill="none" viewBox="0 0 24 24">
  <g clip-path="url(#a)">
    <path fill="#D80027" d="M17.216 1.19A11.952 11.952 0 0 0 12 0c-1.87 0-3.64.428-5.217 1.19L5.738 12l1.044 10.81A11.953 11.953 0 0 0 11.999 24c1.87 0 3.64-.428 5.217-1.19L18.26 12 17.216 1.19Z"/>
    <path fill="#000" d="M6.783 1.191A12 12 0 0 0 0 12a12 12 0 0 0 6.783 10.809V1.19Z"/>
    <path fill="#496E2D" d="M17.217 1.191V22.81A12 12 0 0 0 23.999 12a12 12 0 0 0-6.782-10.809Z"/>
    <path fill="#FFDA44" d="M12 7.826a4.174 4.174 0 1 0 0 8.348 4.174 4.174 0 0 0 0-8.348Zm0 6.783a2.609 2.609 0 1 1 0-5.218 2.609 2.609 0 0 1 0 5.218Z"/>
    <path fill="#FFDA44" d="M12 10.435c-.576 0-1.043.467-1.043 1.043v1.565h2.087v-1.565c0-.576-.467-1.043-1.043-1.043Z"/>
  </g>
  <defs>
    <clipPath id="a">
      <path fill="#fff" d="M0 0h24v24H0z"/>
    </clipPath>
  </defs>
</svg>
