<svg xmlns="http://www.w3.org/2000/svg" width="24" height="24" fill="none" viewBox="0 0 24 24">
  <g clip-path="url(#a)">
    <path fill="#FFDA44" d="M23.587 15.13A12.01 12.01 0 0 0 24 12a12.01 12.01 0 0 0-.413-3.13L10.957.046a11.939 11.939 0 0 0-6.261 2.433L.413 8.87A12.013 12.013 0 0 0 0 12c0 1.077.143 2.12.409 3.113l4.287 6.407a11.938 11.938 0 0 0 6.26 2.434l12.63-8.824Z"/>
    <path fill="#0052B4" d="M.414 15.13a12.01 12.01 0 0 0 4.282 6.39v-6.39H.414Zm10.543 8.824c.344.03.692.046 1.043.046 5.545 0 10.21-3.76 11.587-8.87h-12.63v8.824ZM23.587 8.87C22.21 3.76 17.545 0 12.001 0c-.352 0-.7.016-1.044.046V8.87h12.63ZM4.696 2.48A12.01 12.01 0 0 0 .414 8.87h4.282V2.48Z"/>
    <path fill="#D80027" d="M23.898 10.435H9.391V.285C8.282.531 7.231.93 6.261 1.46v8.976H.1a12.103 12.103 0 0 0 0 3.13h6.16v8.976c.97.53 2.021.928 3.13 1.174v-10.15h14.507a12.121 12.121 0 0 0 0-3.13Z"/>
  </g>
  <defs>
    <clipPath id="a">
      <path fill="#fff" d="M0 0h24v24H0z"/>
    </clipPath>
  </defs>
</svg>
