<svg xmlns="http://www.w3.org/2000/svg" width="24" height="24" fill="none" viewBox="0 0 24 24">
  <g clip-path="url(#a)">
    <path fill="#D80027" d="M0 12C0 5.373 5.373 0 12 0s12 5.373 12 12c-.522 0-12 1.565-12 1.565L0 12Z"/>
    <path fill="#000" d="M24 12c0 6.627-5.373 12-12 12S0 18.627 0 12"/>
    <path fill="#FFDA44" d="m10.355 9.544 1.018.739-.388 1.195 1.017-.74 1.017.739-.39-1.195 1.017-.74-1.257.001L12 8.348l-.388 1.195-1.257.001Z"/>
    <path fill="#FFDA44" d="M15 6.804a5.961 5.961 0 0 0-3-.802v1.565a4.405 4.405 0 0 1 2.218.592 4.44 4.44 0 0 1 1.623 6.058 4.44 4.44 0 0 1-6.058 1.624 4.406 4.406 0 0 1-1.482-1.398l-1.307.862A5.963 5.963 0 0 0 9 17.196 6.007 6.007 0 0 0 17.197 15 6.007 6.007 0 0 0 15 6.804Z"/>
    <path fill="#FFDA44" d="M8.54 10.956a1.565 1.565 0 0 0 .622 2.125l5.083 2.778c-.345.632-.162 1.4.47 1.746l1.374.752a1.304 1.304 0 0 0 1.77-.519l.751-1.373-10.07-5.509Z"/>
  </g>
  <defs>
    <clipPath id="a">
      <path fill="#fff" d="M0 0h24v24H0z"/>
    </clipPath>
  </defs>
</svg>
