<svg xmlns="http://www.w3.org/2000/svg" width="24" height="24" fill="none" viewBox="0 0 24 24">
  <g clip-path="url(#a)">
    <path fill="#0052B4" d="M24 12c0 6.627-5.373 12-12 12S0 18.627 0 12C0 12.003 12 .001 12 0c6.627 0 12 5.373 12 12Z"/>
    <path fill="#F0F0F0" d="M11.969 12H12v-.032l-.032.032Z"/>
    <path fill="#F0F0F0" d="M12 6.26V0h-.002C5.372.001 0 5.373 0 12h6.26V8.474L9.787 12h2.182l.032-.032V9.786L8.474 6.261H12Z"/>
    <path fill="#D80027" d="M6.07 1.565a12.057 12.057 0 0 0-4.506 4.506V12h3.13V4.696H12v-3.13H6.07Z"/>
    <path fill="#D80027" d="M11.999 10.524 7.735 6.261H6.26L11.999 12v-1.476Z"/>
    <path fill="#F0F0F0" d="m7.236 14.087.659 1.377 1.487-.344-.666 1.374 1.196.948-1.489.336.004 1.526-1.19-.955-1.192.955.005-1.526-1.49-.336 1.197-.948-.667-1.374 1.488.344.658-1.377Zm10.729 2.609.33.688.743-.172-.333.687.598.474-.745.168.002.763-.595-.477-.596.477.003-.763-.745-.168.598-.474-.333-.687.744.172.329-.688Zm-3.063-7.305.33.689.743-.172-.333.687.598.474-.744.168.002.763-.596-.477-.595.477.002-.763-.744-.168.597-.474-.333-.687.744.172.33-.689Zm3.063-4.174.33.689.743-.172-.333.687.598.474-.745.168.002.763-.595-.477-.596.477.003-.763-.745-.168.598-.474-.333-.687.744.172.329-.689Zm2.675 3.131.33.688.744-.171-.333.686.598.475-.745.167.002.764-.595-.478-.596.478.002-.764-.744-.167.598-.475-.333-.686.743.171.33-.688ZM18.728 12l.259.797h.838l-.678.493.26.797-.679-.493-.678.493.259-.797-.678-.493h.838l.26-.797Z"/>
  </g>
  <defs>
    <clipPath id="a">
      <path fill="#fff" d="M0 0h24v24H0z"/>
    </clipPath>
  </defs>
</svg>
