<svg xmlns="http://www.w3.org/2000/svg" width="24" height="24" fill="none" viewBox="0 0 24 24">
  <g clip-path="url(#a)">
    <path fill="#FFDA44" d="M17.216 1.19A11.952 11.952 0 0 0 12 0c-1.87 0-3.64.428-5.217 1.19L5.738 12l1.044 10.81A11.953 11.953 0 0 0 11.999 24c1.87 0 3.64-.428 5.217-1.19L18.26 12 17.216 1.19Z"/>
    <path fill="#0052B4" d="M6.783 1.191A12 12 0 0 0 0 12a12 12 0 0 0 6.783 10.809V1.19Zm10.434 0V22.81A12 12 0 0 0 23.999 12a12 12 0 0 0-6.782-10.809Z"/>
    <path fill="#000" d="m15.653 7.304.7.35-.7-.35-.7-.35c-.042.085-.957 1.944-1.106 4.785h-1.064V7.304l-.782-1.043-.783 1.043v4.435h-1.064c-.15-2.84-1.063-4.7-1.106-4.785l-1.4.7c.01.02.961 1.956.961 4.868v.782h2.609v4.435h1.565v-4.435h2.609v-.782c0-1.506.26-2.747.479-3.524.238-.846.48-1.34.483-1.345l-.701-.349Z"/>
  </g>
  <defs>
    <clipPath id="a">
      <path fill="#fff" d="M0 0h24v24H0z"/>
    </clipPath>
  </defs>
</svg>
