<svg xmlns="http://www.w3.org/2000/svg" width="24" height="24" fill="none" viewBox="0 0 24 24">
  <g clip-path="url(#a)">
    <path fill="#0052B4" d="M24 12c0 6.627-5.373 12-12 12S0 18.627 0 12C0 12.003 12 .001 12 0c6.627 0 12 5.373 12 12Z"/>
    <path fill="#F0F0F0" d="M11.969 12H12v-.032l-.032.032Z"/>
    <path fill="#F0F0F0" d="M12 6.26V0h-.002C5.371.001 0 5.373 0 12h6.26V8.474L9.787 12h2.182l.032-.032V9.786L8.474 6.261H12Z"/>
    <path fill="#D80027" d="M6.07 1.565a12.057 12.057 0 0 0-4.506 4.506V12h3.13V4.696H12v-3.13H6.07Z"/>
    <path fill="#FFDA44" d="m17.218 12-3.243 3.243a3.651 3.651 0 0 0 6.487 0L17.218 12Z"/>
    <path fill="#D80027" d="M12 10.524 7.738 6.261H6.262L12 12v-1.476Z"/>
    <path fill="#6DA544" d="M13.565 6.26V12c0 2.796 3.652 3.652 3.652 3.652s3.652-.856 3.652-3.652V6.26h-7.304Z"/>
    <path fill="#F0F0F0" d="M16.436 8.87H18v4.173h-1.566V8.87Z"/>
    <path fill="#A2001D" d="M17.218 9.652a.783.783 0 1 0 0-1.565.783.783 0 0 0 0 1.565Z"/>
    <path fill="#FFDA44" d="M14.61 7.304h1.043v1.044h-1.044V7.304Zm0 2.348h1.043v1.044h-1.044V9.652Zm0 2.348h1.043v1.043h-1.044V12Zm4.173-4.696h1.044v1.044h-1.044V7.304Zm0 2.348h1.044v1.044h-1.044V9.652Zm0 2.348h1.044v1.043h-1.044V12Z"/>
  </g>
  <defs>
    <clipPath id="a">
      <path fill="#fff" d="M0 0h24v24H0z"/>
    </clipPath>
  </defs>
</svg>
