<svg xmlns="http://www.w3.org/2000/svg" width="24" height="24" fill="none" viewBox="0 0 24 24">
  <g clip-path="url(#a)">
    <path fill="#F0F0F0" d="M12 23.998c6.627 0 11.998-5.372 11.998-11.998C23.998 5.374 18.627.002 12 .002 5.374.002.002 5.374.002 12c0 6.627 5.372 11.998 11.998 11.998Z"/>
    <path fill="#000" d="M1.61 6A12.007 12.007 0 0 0 .401 8.919l20.066 11.585A12.008 12.008 0 0 0 22.391 18L1.609 6.001Z"/>
    <path fill="#FFDA44" d="M17.998 1.61c-4.8-2.774-10.72-1.85-14.467 1.886l20.066 11.585c1.362-5.113-.798-10.701-5.599-13.473ZM6 22.39c4.801 2.773 10.72 1.849 14.467-1.887L.402 8.918C-.96 14.031 1.199 19.62 6 22.391Z"/>
    <path fill="#D80027" d="M15.39 10.696a3.39 3.39 0 1 1-6.374-1.613 4.173 4.173 0 1 0 5.966 0c.26.48.408 1.029.408 1.613Z"/>
    <path fill="#D80027" d="M11.217 6.783h1.565v7.825h-1.565V6.783Z"/>
    <path fill="#D80027" d="M14.607 8.348H9.391c0 .36.313.652.674.652h-.022c0 .36.292.653.652.653 0 .36.292.652.652.652h1.304c.36 0 .652-.292.652-.652.36 0 .652-.292.652-.653h-.021c.36 0 .673-.291.673-.652ZM8.348 15.13h7.303v1.565H8.348V15.13Z"/>
    <path fill="#D80027" d="M13.565 15.652h3.13v1.565h-3.13v-1.565Zm-6.26 0h3.13v1.565h-3.13v-1.565Z"/>
  </g>
  <defs>
    <clipPath id="a">
      <path fill="#fff" d="M0 0h24v24H0z"/>
    </clipPath>
  </defs>
</svg>
