<svg xmlns="http://www.w3.org/2000/svg" width="24" height="25" fill="none" viewBox="0 0 24 25">
  <g clip-path="url(#a)">
    <path fill="#F0F0F0" d="M12 24.012c6.627 0 12-5.373 12-12 0-6.628-5.373-12-12-12s-12 5.372-12 12c0 6.627 5.373 12 12 12Z"/>
    <path fill="#0052B4" d="M12 24.012c3.638 0 6.897-1.619 9.098-4.174H2.904a11.973 11.973 0 0 0 9.097 4.174Zm12-12c0-6.628-5.373-12-12-12s-12 5.372-12 12c0 1.083.144 2.132.413 3.13h23.174a12.01 12.01 0 0 0 .413-3.13Z"/>
    <path fill="#D80027" d="M.953 16.707c.231.544.502 1.067.808 1.566h20.477c.306-.5.576-1.022.808-1.566H.953Z"/>
    <path fill="#FFDA44" d="m8.577 12.794.194.598H9.4l-.509.37.194.598-.508-.37-.509.37.194-.598-.508-.37h.629l.194-.598Zm0 7.826.194.598H9.4l-.509.37.194.598-.508-.37-.509.37.194-.598-.508-.37h.629l.194-.598Zm-3.643-2.646.194.597h.63l-.51.37.195.598-.509-.37-.508.37.194-.598-.509-.37h.629l.194-.597Zm1.391-4.397.194.598h.629l-.509.37.194.597-.508-.37-.509.37.195-.598-.51-.37h.63l.194-.597Zm-2.214 2.462h.629l.194-.598.194.598h.63l-.51.37.195.597-.509-.37-.508.37.194-.598-.509-.369Zm1.705 5.25.195-.598-.51-.37h.63l.194-.597.194.598h.629l-.509.369.194.598-.508-.37-.509.37Zm6.404-3.315-.195.597h-.629l.509.37-.194.598.508-.37.509.37-.194-.598.508-.37h-.628l-.195-.597Zm-1.393-4.397-.194.598h-.63l.51.37-.195.597.509-.37.508.37-.194-.598.509-.37h-.629l-.194-.597Zm2.215 2.462h-.628l-.195-.598-.194.598h-.629l.509.37-.194.597.508-.37.509.37-.194-.598.508-.369Zm-1.707 5.25-.194-.598.509-.37h-.629l-.194-.597-.194.598h-.63l.51.369-.195.598.509-.37.508.37Z"/>
  </g>
  <defs>
    <clipPath id="a">
      <path fill="#fff" d="M0 .012h24v24H0z"/>
    </clipPath>
  </defs>
</svg>
