<svg xmlns="http://www.w3.org/2000/svg" width="24" height="25" fill="none" viewBox="0 0 24 25">
  <g clip-path="url(#a)">
    <path fill="#FFDA44" d="M22.667 6.533a11.994 11.994 0 0 0-2.182-2.983 11.964 11.964 0 0 0-2.983-2.182L9.048 9.084l-7.716 8.453a11.992 11.992 0 0 0 2.182 2.984c.9.9 1.909 1.627 2.983 2.182l8.454-7.716 7.716-8.454Z"/>
    <path fill="#D80027" d="M3.514 20.52c.503.504 1.04.953 1.603 1.349L21.832 5.154a12.068 12.068 0 0 0-2.951-2.952L2.166 18.917c.395.563.844 1.1 1.348 1.604Z"/>
    <path fill="#338AF3" d="M3.514 3.55C-.272 7.336-.998 13.02 1.333 17.538l16.17-16.17C12.985-.963 7.3-.236 3.513 3.55Zm16.972 16.97c3.786-3.785 4.513-9.47 2.182-13.987l-16.17 16.17c4.516 2.33 10.202 1.604 13.988-2.182Z"/>
    <path fill="#FFDA44" d="m6.395 3.687.648 1.993h2.096L7.443 6.912l.648 1.993-1.696-1.232L4.7 8.905l.648-1.993L3.652 5.68h2.096l.647-1.993Z"/>
  </g>
  <defs>
    <clipPath id="a">
      <path fill="#fff" d="M0 .035h24v24H0z"/>
    </clipPath>
  </defs>
</svg>
