<svg xmlns="http://www.w3.org/2000/svg" width="24" height="25" fill="none" viewBox="0 0 24 25">
  <g clip-path="url(#a)">
    <path fill="#F0F0F0" d="M12 24.047c6.627 0 12-5.373 12-12 0-6.628-5.373-12-12-12s-12 5.372-12 12c0 6.627 5.373 12 12 12Z"/>
    <path fill="#6DA544" d="M7.305 7.873h15.95C21.558 3.303 17.16.047 12 .047a11.96 11.96 0 0 0-8.485 3.515l3.789 4.311Z"/>
    <path fill="#D80027" d="M7.305 16.22h15.95C21.558 20.79 17.16 24.048 12 24.048a11.961 11.961 0 0 1-8.485-3.515l3.789-4.311Z"/>
    <path fill="#0052B4" d="M3.515 3.562c-4.687 4.686-4.687 12.284 0 16.97L12 12.047 3.515 3.562Z"/>
    <path fill="#DEDDE0" d="M14.088 9.96v2.609c0 1.597 2.087 2.087 2.087 2.087s2.087-.49 2.087-2.087V9.96h-4.174Z"/>
    <path fill="#786145" d="M15.652 12.099h1.044v1.513h-1.044v-1.513Z"/>
    <path fill="#6DA544" d="M17.218 11.525a1.043 1.043 0 1 0-2.087 0 .522.522 0 0 0 0 1.044h2.087a.522.522 0 0 0 0-1.044Z"/>
  </g>
  <defs>
    <clipPath id="a">
      <path fill="#fff" d="M0 .047h24v24H0z"/>
    </clipPath>
  </defs>
</svg>
