<svg xmlns="http://www.w3.org/2000/svg" width="24" height="25" fill="none" viewBox="0 0 24 25">
  <g clip-path="url(#a)">
    <path fill="#F0F0F0" d="M12 24.07c6.627 0 12-5.372 12-12 0-6.627-5.373-12-12-12s-12 5.373-12 12c0 6.628 5.373 12 12 12Z"/>
    <path fill="#338AF3" d="M24 12.07a12 12 0 0 0-6.783-10.809V22.88a12 12 0 0 0 6.782-10.81Zm-24 0a12 12 0 0 0 6.783 10.81V1.26A12 12 0 0 0 0 12.071Z"/>
    <path fill="#ACABB1" d="m15.135 14.1-2.029-2.03 1.931-1.931-.087-1.02-.553-.553-2.398 2.397-2.398-2.397-.553.553-.087 1.02 1.931 1.931-2.029 2.03 1.107 1.106L12 13.177l2.028 2.03 1.107-1.108Z"/>
    <path fill="#6DA544" d="m14.951 9.119-1.106 1.107a2.609 2.609 0 1 1-3.69 0L9.05 9.119a4.174 4.174 0 1 0 5.903 0Z"/>
  </g>
  <defs>
    <clipPath id="a">
      <path fill="#fff" d="M0 .07h24v24H0z"/>
    </clipPath>
  </defs>
</svg>
