<svg xmlns="http://www.w3.org/2000/svg" width="24" height="25" fill="none" viewBox="0 0 24 25">
  <g clip-path="url(#a)">
    <path fill="#F0F0F0" d="M12 24.49c6.627 0 12-5.372 12-12 0-6.627-5.373-12-12-12s-12 5.373-12 12c0 6.628 5.373 12 12 12Z"/>
    <path fill="#6DA544" d="M12 .49c-2.122 0-4.114.552-5.844 1.518v20.965A11.944 11.944 0 0 0 12 24.49c6.627 0 12-5.372 12-12 0-6.627-5.373-12-12-12Z"/>
    <path fill="#F0F0F0" d="M6.192 1.988A12.024 12.024 0 0 0 4.285 3.3l9.19 9.19-9.19 9.19a12.117 12.117 0 0 1 1.907 1.313L24 12.49 6.192 1.988Z"/>
    <path fill="#FFDA44" d="M5.177 2.618c-.366.253-.717.526-1.052.817L12 12.49l-7.874 9.056c.335.29.686.564 1.052.817l16.768-9.873L5.177 2.618Z"/>
    <path fill="#000" d="M4.286 3.3c-.267.224-.524.459-.77.705l7.441 8.485-7.441 8.486c.246.246.503.48.77.705l9.19-9.19L4.287 3.3Z"/>
    <path fill="#D80027" d="M3.515 4.005c-4.687 4.686-4.687 12.284 0 16.97L12 12.49 3.515 4.005Z"/>
  </g>
  <defs>
    <clipPath id="a">
      <path fill="#fff" d="M0 .49h24v24H0z"/>
    </clipPath>
  </defs>
</svg>
