<svg xmlns="http://www.w3.org/2000/svg" width="24" height="25" fill="none" viewBox="0 0 24 25">
  <g clip-path="url(#a)">
    <path fill="#F0F0F0" d="M.746 8.316A11.975 11.975 0 0 0 0 12.49c0 1.468.264 2.874.746 4.174L12 17.708l11.254-1.044c.482-1.3.746-2.706.746-4.174 0-1.468-.264-2.874-.746-4.174L12 7.273.746 8.316Z"/>
    <path fill="#D80027" d="M12 .49C6.84.49 2.442 3.747.746 8.316h22.507C21.558 3.746 17.16.49 12 .49Z"/>
    <path fill="#6DA544" d="M12 24.49c5.16 0 9.558-3.256 11.253-7.826H.746C2.442 21.234 6.84 24.49 12 24.49Z"/>
  </g>
  <defs>
    <clipPath id="a">
      <path fill="#fff" d="M0 .49h24v24H0z"/>
    </clipPath>
  </defs>
</svg>
