<svg xmlns="http://www.w3.org/2000/svg" width="24" height="25" fill="none" viewBox="0 0 24 25">
  <g clip-path="url(#a)">
    <path fill="#F0F0F0" d="M12 24.48c6.627 0 12-5.373 12-12 0-6.628-5.373-12-12-12s-12 5.372-12 12c0 6.627 5.373 12 12 12Z"/>
    <path fill="#FF9811" d="M12 .48A12 12 0 0 0 1.192 7.261H22.81A12 12 0 0 0 12 .48Z"/>
    <path fill="#6DA544" d="M12 24.48a12 12 0 0 0 10.81-6.783H1.191a12 12 0 0 0 10.81 6.783Z"/>
    <path fill="#0052B4" d="M12 16.653a4.174 4.174 0 1 0 0-8.348 4.174 4.174 0 0 0 0 8.348Z"/>
    <path fill="#F0F0F0" d="M12 15.088a2.609 2.609 0 1 0 0-5.217 2.609 2.609 0 0 0 0 5.217Z"/>
    <path fill="#0052B4" d="m12 9.26.806 1.826 1.983-.216-1.179 1.61 1.179 1.609-1.983-.216L12 15.7l-.805-1.826-1.983.216 1.178-1.61-1.178-1.61 1.983.217L12 9.26Z"/>
  </g>
  <defs>
    <clipPath id="a">
      <path fill="#fff" d="M0 .48h24v24H0z"/>
    </clipPath>
  </defs>
</svg>
