<svg xmlns="http://www.w3.org/2000/svg" width="24" height="25" fill="none" viewBox="0 0 24 25">
  <g clip-path="url(#a)">
    <path fill="#F0F0F0" d="M12 24.491c6.627 0 12-5.372 12-12 0-6.627-5.373-12-12-12s-12 5.373-12 12c0 6.628 5.373 12 12 12Z"/>
    <path fill="#D80027" d="M15.897 9.36h-1.57c.012.173.02.347.02.522 0 1.161-.29 2.286-.796 3.087-.156.247-.418.596-.77.832V9.36h-1.565v4.44c-.35-.236-.613-.585-.769-.832-.506-.8-.796-1.926-.796-3.087 0-.175.008-.349.02-.521h-1.57c-.01.171-.015.345-.015.521 0 3.219 1.719 5.74 3.913 5.74s3.913-2.521 3.913-5.74c0-.176-.005-.35-.015-.521Z"/>
    <path fill="#6DA544" d="M4.957 6.23h1.565v1.044h1.566V6.23h1.565v1.044h1.565V6.23h1.565v1.044h1.565V6.23h1.566v1.044h1.565V6.23h1.565v1.044h3.766A12 12 0 0 0 12 .49 12 12 0 0 0 1.192 7.274h3.766V6.23Z"/>
    <path fill="#D80027" d="M19.044 17.709v1.043H17.48V17.71h-1.565v1.043H14.35V17.71h-1.566v1.043h-1.565V17.71H9.653v1.043H8.088V17.71H6.522v1.043H4.957V17.71H1.191a12 12 0 0 0 10.81 6.782A12 12 0 0 0 22.81 17.71h-3.766Z"/>
  </g>
  <defs>
    <clipPath id="a">
      <path fill="#fff" d="M0 .491h24v24H0z"/>
    </clipPath>
  </defs>
</svg>
