<svg xmlns="http://www.w3.org/2000/svg" width="24" height="25" fill="none" viewBox="0 0 24 25">
  <g clip-path="url(#a)">
    <path fill="#F0F0F0" d="M12 24.33c6.627 0 12-5.372 12-12 0-6.627-5.373-12-12-12s-12 5.373-12 12 5.373 12 12 12Z"/>
    <path fill="#000" d="M12 .33A12 12 0 0 0 1.192 7.113H22.81A12 12 0 0 0 12 .33Z"/>
    <path fill="#496E2D" d="M12 24.33a12 12 0 0 1-10.809-6.782H22.81A12 12 0 0 1 12 24.33Z"/>
    <path fill="#A2001D" d="M23.433 8.678H.567A11.991 11.991 0 0 0 0 12.33c0 1.274.2 2.5.567 3.652h22.866A11.99 11.99 0 0 0 24 12.33c0-1.274-.2-2.5-.567-3.652Z"/>
    <path fill="#F0F0F0" d="m15.737 5.875-1.421-.656L12 10.463 9.685 5.219l-1.421.656 2.874 6.455-2.874 6.455 1.42.656L12 14.198l2.316 5.243 1.421-.656-2.875-6.455 2.875-6.455Z"/>
    <path fill="#F0F0F0" d="M12.966 6.494c-.55-.601-.966-.947-.966-.947s-.415.346-.965.947v11.672c.55.601.965.947.965.947s.415-.346.966-.947V6.494Z"/>
    <path fill="#A2001D" d="M9.39 8.732v7.196a12.582 12.582 0 0 0 1.827 2.434V6.298A12.583 12.583 0 0 0 9.39 8.732Zm5.217 0a12.582 12.582 0 0 0-1.826-2.434v12.064a12.58 12.58 0 0 0 1.826-2.434V8.732Z"/>
    <path fill="#000" d="M14.61 8.732v7.196c.588-1.043 1.043-2.276 1.043-3.598s-.455-2.555-1.044-3.598Zm-5.219 0v7.196c-.588-1.043-1.043-2.276-1.043-3.598s.455-2.555 1.043-3.598Z"/>
  </g>
  <defs>
    <clipPath id="a">
      <path fill="#fff" d="M0 .33h24v24H0z"/>
    </clipPath>
  </defs>
</svg>
