<svg xmlns="http://www.w3.org/2000/svg" width="24" height="24" fill="none" viewBox="0 0 24 24">
  <g clip-path="url(#a)">
    <path fill="#FFDA44" d="M17.216 1.19A11.952 11.952 0 0 0 12 0c-1.87 0-3.64.428-5.217 1.19L5.738 12l1.044 10.81A11.953 11.953 0 0 0 11.999 24c1.87 0 3.64-.428 5.217-1.19L18.26 12 17.216 1.19Z"/>
    <path fill="#0052B4" d="M6.783 1.191A12 12 0 0 0 0 12a12 12 0 0 0 6.783 10.809V1.19Zm10.434 0V22.81A12 12 0 0 0 23.999 12a12 12 0 0 0-6.782-10.809Z"/>
    <path fill="#D80027" d="m15.391 13.043.783 1.044V9.913l-.783 1.043h-2.348V8.61l1.044-.783H9.913l1.044.783v2.348H8.609l-.783-1.044v4.174l.783-1.044h2.348v2.348l-1.044.783h4.174l-1.043-.783v-2.348h2.347Z"/>
    <path fill="#F0F0F0" d="M15.13 11.478h-2.609V8.87h-1.043v2.608H8.869v1.044h2.609v2.608h1.043v-2.608h2.609v-1.044Z"/>
  </g>
  <defs>
    <clipPath id="a">
      <path fill="#fff" d="M0 0h24v24H0z"/>
    </clipPath>
  </defs>
</svg>
