<svg xmlns="http://www.w3.org/2000/svg" width="24" height="24" fill="none" viewBox="0 0 24 24">
  <g clip-path="url(#a)">
    <path fill="#FFDA44" d="M16.174.746A11.975 11.975 0 0 0 12.001 0c-1.468 0-2.874.264-4.174.746L6.783 12l1.044 11.254c1.3.482 2.706.746 4.174.746a11.98 11.98 0 0 0 4.173-.746L17.218 12 16.174.746Z"/>
    <path fill="#D80027" d="M24 12c0-5.16-3.257-9.558-7.826-11.254v22.508C20.744 21.558 24 17.16 24 12Z"/>
    <path fill="#6DA544" d="M0 12c0 5.16 3.256 9.558 7.826 11.254V.746C3.256 2.442 0 6.84 0 12Z"/>
  </g>
  <defs>
    <clipPath id="a">
      <path fill="#fff" d="M0 0h24v24H0z"/>
    </clipPath>
  </defs>
</svg>
