<svg xmlns="http://www.w3.org/2000/svg" width="24" height="24" fill="none" viewBox="0 0 24 24">
  <g clip-path="url(#a)">
    <path fill="#338AF3" d="M12 24c6.627 0 12-5.373 12-12S18.627 0 12 0 0 5.373 0 12s5.373 12 12 12Z"/>
    <path fill="#818085" d="M5.738 13.043H18.26v1.566H5.738v-1.566Z"/>
    <path fill="#FFDA44" d="M7.826 8.348 12 8.87l4.174-.522V5.844l-1.67.834L12 4.174 9.496 6.678l-1.67-.834v2.504Z"/>
    <path fill="#F0F0F0" d="M6.782 16.174H5.217v-2.87l.522-.782-.522-.783V9.913h1.565v6.261Zm12 0h-1.565v-6.26h1.565v1.825l-.522.796.522.77v2.869Z"/>
    <path fill="#ACABB1" d="M5.217 11.74h13.565v1.564H5.217V11.74Z"/>
    <path fill="#F0F0F0" d="M12 18.26a4.179 4.179 0 0 1-4.174-4.173v-5.74h8.348v5.74A4.179 4.179 0 0 1 12 18.261Z"/>
    <path fill="#0052B4" d="M12 16.696a2.612 2.612 0 0 1-2.61-2.61V9.914h5.218v4.174a2.612 2.612 0 0 1-2.609 2.609Z"/>
    <path fill="#D80027" d="M7.826 8.348h1.565v1.565H7.826V8.348Zm6.784 0h1.565v1.565h-1.566V8.348Zm0 3.392h1.565v1.564h-1.566V11.74Zm-6.784 0h1.565v1.564H7.826V11.74Zm3.391-3.392h1.565v1.565h-1.565V8.348ZM12 16.696a2.6 2.6 0 0 1-.783-.12v1.61a4.172 4.172 0 0 0 1.565 0v-1.61c-.247.077-.51.12-.783.12ZM9.427 14.51l-1.25 1.25c.217.493.526.936.906 1.308l1.106-1.107a2.604 2.604 0 0 1-.762-1.45Zm6.395 1.25-1.249-1.25a2.605 2.605 0 0 1-.763 1.452l1.107 1.106c.38-.372.688-.815.905-1.308Z"/>
  </g>
  <defs>
    <clipPath id="a">
      <path fill="#fff" d="M0 0h24v24H0z"/>
    </clipPath>
  </defs>
</svg>
