<svg xmlns="http://www.w3.org/2000/svg" width="24" height="24" fill="none" viewBox="0 0 24 24">
  <g clip-path="url(#a)">
    <path fill="#F0F0F0" d="M12 24c6.627 0 12-5.373 12-12S18.627 0 12 0 0 5.373 0 12s5.373 12 12 12Z"/>
    <path fill="#A2001D" d="M3.515 20.485c.504.504 1.041.953 1.604 1.348L21.834 5.119a12.067 12.067 0 0 0-2.952-2.952L2.168 18.882c.395.563.844 1.1 1.347 1.603Z"/>
    <path fill="#0052B4" d="M3.514 3.515C-.272 7.3-.998 12.985 1.332 17.502l16.17-16.17C12.986-.997 7.3-.27 3.514 3.516Z"/>
    <path fill="#496E2D" d="M20.485 20.485c3.786-3.785 4.513-9.471 2.182-13.987L6.498 22.668c4.516 2.33 10.202 1.603 13.987-2.183Z"/>
    <path fill="#FFDA44" d="m9.914 6.783-1.345.632.716 1.302-1.46-.279-.185 1.475-1.017-1.085-1.017 1.085-.185-1.475-1.46.28.716-1.303-1.345-.632 1.345-.633-.716-1.302 1.46.28.185-1.476 1.017 1.085L7.64 3.652l.185 1.475 1.46-.279-.716 1.302 1.345.633Z"/>
  </g>
  <defs>
    <clipPath id="a">
      <path fill="#fff" d="M0 0h24v24H0z"/>
    </clipPath>
  </defs>
</svg>
