<svg xmlns="http://www.w3.org/2000/svg" width="24" height="25" fill="none" viewBox="0 0 24 25">
  <g clip-path="url(#a)">
    <path fill="#F0F0F0" d="M12 24.012c6.627 0 12-5.373 12-12 0-6.628-5.373-12-12-12s-12 5.372-12 12c0 6.627 5.373 12 12 12Z"/>
    <path fill="#D80027" d="M0 12.012c0 4.548 2.53 8.505 6.26 10.54V1.472A11.997 11.997 0 0 0 0 12.01Z"/>
    <path fill="#D80027" d="M23.254 16.186c.482-1.3.746-2.706.746-4.174 0-1.468-.264-2.874-.746-4.174H.746A11.973 11.973 0 0 0 0 12.012c0 1.468.264 2.874.746 4.174L12 17.229l11.254-1.043Z"/>
    <path fill="#6DA544" d="M12 24.012c5.16 0 9.558-3.257 11.253-7.826H.746C2.442 20.756 6.84 24.012 12 24.012Z"/>
    <path fill="#D80027" d="M0 12.012c0 5.544 3.76 10.21 8.87 11.586V.425C3.76 1.802 0 6.467 0 12.012Z"/>
    <path fill="#F0F0F0" d="M7.342 5.292 6.235 4.186l-.738.738-.738-.738-1.107 1.106.738.738-.738.738L4.76 7.875l.738-.738.738.738 1.107-1.107-.738-.738.738-.738Z"/>
  </g>
  <defs>
    <clipPath id="a">
      <path fill="#fff" d="M0 .012h24v24H0z"/>
    </clipPath>
  </defs>
</svg>
