<svg xmlns="http://www.w3.org/2000/svg" width="24" height="25" fill="none" viewBox="0 0 24 25">
  <g clip-path="url(#a)">
    <path fill="#FFDA44" d="M23.587 15.142a12.01 12.01 0 0 0 .413-3.13c0-1.083-.144-2.133-.413-3.13L10.957.056A11.939 11.939 0 0 0 4.696 2.49L.413 8.881A12.013 12.013 0 0 0 0 12.011c0 1.078.143 2.12.409 3.114l4.287 6.407a11.94 11.94 0 0 0 6.26 2.434l12.63-8.824Z"/>
    <path fill="#D80027" d="M.414 15.142a12.01 12.01 0 0 0 4.282 6.39v-6.39H.414Zm10.543 8.824c.344.03.692.046 1.043.046 5.545 0 10.21-3.76 11.587-8.87h-12.63v8.824Zm12.63-15.085C22.21 3.772 17.545.011 12.001.011c-.352 0-.7.017-1.044.046v8.824h12.63ZM4.696 2.491a12.01 12.01 0 0 0-4.282 6.39h4.282v-6.39Z"/>
    <path fill="#0052B4" d="M23.898 10.447H9.391V.297c-1.109.246-2.16.644-3.13 1.174v8.976H.1a12.12 12.12 0 0 0 0 3.13h6.16v8.976c.97.529 2.021.928 3.13 1.174v-10.15h14.507a12.12 12.12 0 0 0 0-3.13Z"/>
  </g>
  <defs>
    <clipPath id="a">
      <path fill="#fff" d="M0 .012h24v24H0z"/>
    </clipPath>
  </defs>
</svg>
