<svg xmlns="http://www.w3.org/2000/svg" width="24" height="25" fill="none" viewBox="0 0 24 25">
  <g clip-path="url(#a)">
    <path fill="#D80027" d="M23.254 16.186c.482-1.3.746-2.707.746-4.174 0-1.468-.264-2.874-.746-4.174L12 6.794.746 7.838A11.974 11.974 0 0 0 0 12.012c0 1.467.264 2.874.746 4.174L12 17.229l11.254-1.043Z"/>
    <path fill="#FFDA44" d="M12 24.012c5.16 0 9.558-3.257 11.253-7.826H.746C2.442 20.756 6.84 24.012 12 24.012Z"/>
    <path fill="#F0F0F0" d="M12 .012C6.84.012 2.442 3.268.746 7.838h22.507C21.558 3.268 17.16.012 12 .012Z"/>
  </g>
  <defs>
    <clipPath id="a">
      <path fill="#fff" d="M0 .012h24v24H0z"/>
    </clipPath>
  </defs>
</svg>
