<svg xmlns="http://www.w3.org/2000/svg" width="24" height="25" fill="none" viewBox="0 0 24 25">
  <g clip-path="url(#a)">
    <path fill="#F0F0F0" d="M12 24.012c6.627 0 12-5.373 12-12 0-6.628-5.373-12-12-12s-12 5.372-12 12c0 6.627 5.373 12 12 12Z"/>
    <path fill="#F0F0F0" d="M0 12.012c0 4.548 2.53 8.505 6.26 10.54V1.472A11.997 11.997 0 0 0 0 12.01Z"/>
    <path fill="#496E2D" d="M12 .012C9.923.012 7.968.54 6.263 1.47v21.082c1.705.93 3.66 1.459 5.739 1.459 6.627 0 12-5.373 12-12 0-6.628-5.373-12-12-12Z"/>
    <path fill="#F0F0F0" d="M17.13 13.996a3.391 3.391 0 1 1-2.426-6.112 4.174 4.174 0 1 0 3.495 4.837 3.376 3.376 0 0 1-1.07 1.275Zm-.065-6.158.855.921 1.14-.528-.611 1.098.855.922-1.234-.243-.612 1.098-.15-1.248-1.234-.243 1.141-.529-.15-1.248Z"/>
  </g>
  <defs>
    <clipPath id="a">
      <path fill="#fff" d="M0 .012h24v24H0z"/>
    </clipPath>
  </defs>
</svg>
