<svg xmlns="http://www.w3.org/2000/svg" width="24" height="25" fill="none" viewBox="0 0 24 25">
  <g clip-path="url(#a)">
    <path fill="#FFDA44" d="m6.504 22.706 8.816-7.35 7.35-8.816a12.054 12.054 0 0 0-5.169-5.172L8.68 8.715l-7.347 8.822a12.052 12.052 0 0 0 5.172 5.169Z"/>
    <path fill="#D80027" d="M20.486 20.52c3.786-3.785 4.513-9.471 2.182-13.987l-16.17 16.17c4.516 2.33 10.202 1.604 13.988-2.182Z"/>
    <path fill="#6DA544" d="M3.514 3.55C-.272 7.334-.998 13.02 1.332 17.536l16.17-16.17C12.986-.962 7.3-.235 3.514 3.55Z"/>
  </g>
  <defs>
    <clipPath id="a">
      <path fill="#fff" d="M0 .035h24v24H0z"/>
    </clipPath>
  </defs>
</svg>
