<svg xmlns="http://www.w3.org/2000/svg" width="24" height="25" fill="none" viewBox="0 0 24 25">
  <g clip-path="url(#a)">
    <path fill="#FFDA44" d="M17.216 1.238A11.952 11.952 0 0 0 12 .047c-1.87 0-3.64.428-5.217 1.19l-1.044 10.81 1.044 10.81A11.953 11.953 0 0 0 12 24.047c1.87 0 3.64-.428 5.217-1.19l1.044-10.81-1.044-10.81Z"/>
    <path fill="#496E2D" d="m12 7.873 1.036 3.189h3.353l-2.713 1.97 1.036 3.189L12 14.25l-2.712 1.97 1.036-3.189-2.713-1.97h3.353L12 7.873ZM6.783 1.238A12 12 0 0 0 0 12.047a12 12 0 0 0 6.783 10.809V1.238Z"/>
    <path fill="#D80027" d="M17.217 1.238v21.618a12 12 0 0 0 6.782-10.81 12 12 0 0 0-6.782-10.808Z"/>
  </g>
  <defs>
    <clipPath id="a">
      <path fill="#fff" d="M0 .047h24v24H0z"/>
    </clipPath>
  </defs>
</svg>
