<svg xmlns="http://www.w3.org/2000/svg" width="24" height="25" fill="none" viewBox="0 0 24 25">
  <g clip-path="url(#a)">
    <path fill="#D80027" d="M10.957 13.102s-7.434-9.53-7.441-9.529A11.962 11.962 0 0 1 12 .06c6.627 0 12 5.372 12 12l-13.044 1.043Z"/>
    <path fill="#0052B4" d="M10.957 12.059s-7.434 8.487-7.441 8.485A11.963 11.963 0 0 0 12 24.059c6.627 0 12-5.373 12-12H10.957Z"/>
    <path fill="#F0F0F0" d="M3.515 3.573c-4.687 4.687-4.687 12.284 0 16.97L12 12.06 3.515 3.573Z"/>
    <path fill="#FFDA44" d="M1.316 12.059a3.391 3.391 0 1 0 6.76 0h-6.76Zm3.38-1.566a1.043 1.043 0 1 0 0-2.087 1.043 1.043 0 0 0 0 2.087Z"/>
    <path fill="#D80027" d="M2.348 9.19v3.39c0 1.798 2.347 2.348 2.347 2.348s2.348-.55 2.348-2.348V9.19H2.348Z"/>
    <path fill="#338AF3" d="M4.696 13.836c-.435-.157-1.305-.557-1.305-1.256v-2.348h2.608v2.348c0 .701-.87 1.1-1.303 1.256Z"/>
    <path fill="#F3F3F3" d="M5.216 11.537v-.522l-.521-.26-.522.26v.522l-.26.26v1.044h1.564v-1.043l-.26-.261Z"/>
  </g>
  <defs>
    <clipPath id="a">
      <path fill="#fff" d="M0 .059h24v24H0z"/>
    </clipPath>
  </defs>
</svg>
