<svg xmlns="http://www.w3.org/2000/svg" width="24" height="25" fill="none" viewBox="0 0 24 25">
  <g clip-path="url(#a)">
    <path fill="#496E2D" d="M20.485 20.544c4.5-4.5 4.679-11.686.535-16.4L12 12.06l-7.914 9.02c4.714 4.143 11.899 3.966 16.4-.535Z"/>
    <path fill="#0052B4" d="M3.514 3.573c4.5-4.5 11.686-4.678 16.4-.535L12 12.058l-9.02 7.914C-1.165 15.26-.987 8.073 3.513 3.573Z"/>
    <path fill="#FFDA44" d="M19.913 3.038 2.979 19.972a12.116 12.116 0 0 0 1.106 1.107L21.02 4.145a12.177 12.177 0 0 0-1.107-1.107Z"/>
    <path fill="#F0F0F0" d="m5.056 4.232.26.797h.837l-.678.493.26.797-.679-.493-.678.493.26-.797-.679-.493h.838l.26-.797Zm4.281 0 .26.797h.838l-.678.493.259.797-.679-.493-.678.493.26-.797-.679-.493h.838l.26-.797ZM5.056 8.406l.26.797h.837l-.678.493.26.797-.679-.492-.678.492.26-.797-.679-.493h.838l.26-.797Zm4.281 0 .26.797h.838l-.678.493.259.797-.679-.492-.678.492.26-.797-.679-.493h.838l.26-.797ZM7.197 6.32l.259.796h.838l-.678.493.259.797-.678-.492-.678.492.259-.797-.678-.493h.838l.259-.797Z"/>
  </g>
  <defs>
    <clipPath id="a">
      <path fill="#fff" d="M0 .059h24v24H0z"/>
    </clipPath>
  </defs>
</svg>
