<svg xmlns="http://www.w3.org/2000/svg" width="24" height="25" fill="none" viewBox="0 0 24 25">
  <g clip-path="url(#a)">
    <path fill="#D80027" d="M24 12.49c0 6.627-5.373 12-12 12s-12-5.373-12-12l12-12c6.627 0 12 5.372 12 12Z"/>
    <path fill="#0052B4" d="M12 12.49v-12c-6.627 0-12 5.372-12 12h12Z"/>
    <path fill="#F0F0F0" d="m10.435 7.512-1.466.69.78 1.419-1.59-.305-.202 1.608-1.109-1.182-1.108 1.182-.202-1.608-1.591.305.78-1.42-1.465-.689 1.465-.69-.78-1.419 1.591.305L5.74 4.1l1.108 1.183L7.957 4.1l.201 1.608 1.592-.305-.78 1.42 1.465.69Z"/>
    <path fill="#0052B4" d="M6.849 9.746a2.234 2.234 0 1 0 0-4.468 2.234 2.234 0 0 0 0 4.468Z"/>
    <path fill="#F0F0F0" d="M6.848 8.702c-.656 0-1.19-.534-1.19-1.19a1.19 1.19 0 1 1 1.19 1.19Z"/>
  </g>
  <defs>
    <clipPath id="a">
      <path fill="#fff" d="M0 .49h24v24H0z"/>
    </clipPath>
  </defs>
</svg>
