<svg xmlns="http://www.w3.org/2000/svg" width="24" height="25" fill="none" viewBox="0 0 24 25">
  <g clip-path="url(#a)">
    <path fill="#FFDA44" d="M12 24.49c6.627 0 12-5.372 12-12 0-6.627-5.373-12-12-12s-12 5.373-12 12c0 6.628 5.373 12 12 12Z"/>
    <path fill="#0052B4" d="M19.304 6.23a8.008 8.008 0 0 0-.156 1.617 7.855 7.855 0 0 0 4.591 7.139c.17-.805.261-1.64.261-2.496 0-6.627-5.373-12-12-12s-12 5.373-12 12c0 6.628 5.373 12 12 12 4.11 0 7.737-2.067 9.9-5.217H6.783v-1.565h16.026c.164-.34.313-.688.445-1.044H6.783L19.304 6.23Z"/>
    <path fill="#F0F0F0" d="m8.816 6.751.259.797h.838l-.678.493.26.797-.679-.493-.678.493.259-.797-.678-.493h.838l.259-.797ZM5.412 12.49l.324.997h1.048l-.848.615.324.997-.848-.616-.847.616.324-.997-.848-.615h1.048l.323-.997Zm0-8.348.324.997h1.048l-.848.616.324.996-.848-.616-.847.616.324-.996-.848-.616h1.048l.323-.997ZM2.803 8.838l.324.997h1.047l-.847.615.324.997-.848-.616-.848.616.324-.997-.847-.615h1.047l.324-.997Z"/>
  </g>
  <defs>
    <clipPath id="a">
      <path fill="#fff" d="M0 .49h24v24H0z"/>
    </clipPath>
  </defs>
</svg>
