<svg xmlns="http://www.w3.org/2000/svg" width="24" height="25" fill="none" viewBox="0 0 24 25">
  <g clip-path="url(#a)">
    <path fill="#F0F0F0" d="M12 24.49c6.627 0 12-5.373 12-12 0-6.628-5.373-12-12-12s-12 5.372-12 12c0 6.627 5.373 12 12 12Z"/>
    <path fill="#D80027" d="M7.826 6.75V5.185H6.26V6.75H4.695v1.565h1.566v1.566h1.565V8.315H9.39V6.75H7.826Z"/>
    <path fill="#D80027" d="M12 .49v12H0c0 6.627 5.373 12 12 12s12-5.373 12-12c0-6.628-5.373-12-12-12Z"/>
  </g>
  <defs>
    <clipPath id="a">
      <path fill="#fff" d="M0 .49h24v24H0z"/>
    </clipPath>
  </defs>
</svg>
