<svg xmlns="http://www.w3.org/2000/svg" width="24" height="25" fill="none" viewBox="0 0 24 25">
  <g clip-path="url(#a)">
    <path fill="#338AF3" d="M24 12.91c0 6.628-5.373 12-12 12s-12-5.372-12-12c0 .003 12-11.999 12-12 6.627 0 12 5.373 12 12Z"/>
    <path fill="#0052B4" d="M5.738 12.91h4.048L6.26 8.736l-.522 1.565v2.61ZM12 10.697 7.826 6.649H12v4.048Z"/>
    <path fill="#F0F0F0" d="M11.969 12.91H12v-.032l-.032.032ZM12 7.171V.911h-.002C5.372.91 0 6.282 0 12.91h6.26V9.384l3.526 3.525h2.182l.032-.032v-2.181L8.474 7.17H12Z"/>
    <path fill="#D80027" d="M6.07 2.475a12.057 12.057 0 0 0-4.506 4.506v5.93h3.13V5.605H12v-3.13H6.07Z"/>
    <path fill="#D80027" d="M11.999 11.434 7.735 7.171H6.26l5.739 5.74v-1.477Z"/>
    <path fill="#FFDA44" d="m13.097 20.736.26.797h.837l-.678.493.26.797-.679-.492-.678.492.26-.797-.679-.493h.838l.26-.797Zm6.676-5.217.259.797h.838l-.678.493.26.797-.679-.493-.678.493.259-.797-.678-.493h.838l.259-.797Zm1.672-7.826.259.797h.838l-.678.493.259.797-.678-.493-.678.493.259-.797-.678-.493h.838l.259-.797Zm.414 5.739.259.797h.838l-.678.493.26.797-.68-.493-.677.493.259-.797-.678-.493h.838l.259-.797ZM14.3 18.861l.747.38.592-.592-.13.828.746.38-.828.132-.13.828-.381-.747-.828.13.593-.592-.381-.747Zm0-3.131.747.381.592-.592-.13.828.746.38-.828.131-.13.828-.381-.747-.828.131.593-.592-.381-.747Zm2.607 2.008.747.38.593-.593-.131.828.747.38-.828.132-.131.828-.38-.747-.829.131.593-.593-.38-.747Zm0-6.703.747.38.593-.592-.131.828.747.38-.828.132-.131.827-.38-.746-.829.13.593-.592-.38-.747Zm2.53-.08.747.38.592-.592-.13.828.746.38-.828.131-.131.828-.38-.747-.828.131.592-.592-.38-.747Z"/>
  </g>
  <defs>
    <clipPath id="a">
      <path fill="#fff" d="M0 .91h24v24H0z"/>
    </clipPath>
  </defs>
</svg>
