<svg xmlns="http://www.w3.org/2000/svg" width="24" height="25" fill="none" viewBox="0 0 24 25">
  <g clip-path="url(#a)">
    <path fill="#F0F0F0" d="M12 24.91c6.627 0 12-5.373 12-12 0-6.628-5.373-12-12-12s-12 5.372-12 12c0 6.627 5.373 12 12 12Z"/>
    <path fill="#000" d="m6.783 17.083 1.044 7.08c1.3.482 2.706.746 4.174.746 5.16 0 9.558-3.256 11.253-7.826H6.784Z"/>
    <path fill="#6DA544" d="m6.783 8.735 1.044-7.08A11.98 11.98 0 0 1 12 .91c5.16 0 9.558 3.257 11.253 7.826H6.784Z"/>
    <path fill="#A2001D" d="M0 12.91c0 5.159 3.257 9.557 7.826 11.253V1.656C3.256 3.35 0 7.75 0 12.909Z"/>
  </g>
  <defs>
    <clipPath id="a">
      <path fill="#fff" d="M0 .91h24v24H0z"/>
    </clipPath>
  </defs>
</svg>
