<svg xmlns="http://www.w3.org/2000/svg" width="24" height="25" fill="none" viewBox="0 0 24 25">
  <g clip-path="url(#a)">
    <path fill="#000" d="M24 12.331c0-.53-.035-1.053-.102-1.565H10.435l-6.92-6.92c-4.687 4.686-4.687 12.284 0 16.97l6.92-6.92h13.463c.067-.512.102-1.034.102-1.565Z"/>
    <path fill="#F0F0F0" d="m23.998 12.604-.002.07.002-.07Zm-.012.328c0 .023-.002.046-.004.069l.004-.07Zm-.016.262a8.415 8.415 0 0 1-.007.1l.007-.1Zm-.04-2.171.012.12-.012-.12Zm.052.639.004.068a.753.753 0 0 0-.004-.068Zm.014.327.002.07-.002-.07Zm-.033-.621.007.1-.007-.1Z"/>
    <path fill="#D80027" d="m23.898 10.766.015.123C23.2 4.942 18.139.331 11.999.331a11.962 11.962 0 0 0-8.485 3.515l6.92 6.92h13.464Z"/>
    <path fill="#6DA544" d="M23.898 13.896H10.434l-6.92 6.92a11.962 11.962 0 0 0 8.485 3.515c6.14 0 11.201-4.61 11.914-10.558l-.015.123Z"/>
    <path fill="#F0F0F0" d="m23.94 13.519-.012.12.012-.12Z"/>
    <path fill="#000" d="M23.969 11.469Zm-.055-.579Zm.027.254ZM24 12.331Zm-.02.669Zm-.019.295Zm-.031.344Zm.066-1.581Zm-.012-.328Zm.01.944Z"/>
    <path fill="#FFDA44" d="M23.987 11.805H9.993L2.804 4.617a6.13 6.13 0 0 0-.64.831l6.875 6.879-6.88 6.88c.135.242.432.601.64.835l7.194-7.194h13.996a12.209 12.209 0 0 0-.002-1.043Z"/>
    <path fill="#FFDA44" d="M2.914 14.89v-1.006a1.821 1.821 0 0 0 1.82-1.819c0-.71-.578-1.287-1.288-1.287a.878.878 0 0 0-.877.877c0 .309.252.56.561.56a.317.317 0 0 0 .317-.316h1.005c0 .729-.593 1.322-1.322 1.322a1.567 1.567 0 0 1-1.566-1.566c0-1.038.845-1.882 1.882-1.882a2.295 2.295 0 0 1 2.292 2.292 2.827 2.827 0 0 1-2.824 2.824Z"/>
  </g>
  <defs>
    <clipPath id="a">
      <path fill="#fff" d="M0 .331h24v24H0z"/>
    </clipPath>
  </defs>
</svg>
