<svg xmlns="http://www.w3.org/2000/svg" width="24" height="25" fill="none" viewBox="0 0 24 25">
  <g clip-path="url(#a)">
    <path fill="#F0F0F0" d="M12 24.33c6.627 0 12-5.372 12-12 0-6.627-5.373-12-12-12s-12 5.373-12 12 5.373 12 12 12Z"/>
    <path fill="#496E2D" d="M24 12.33c0 6.627-5.373 12-12 12s-12-5.372-12-12"/>
    <path fill="#D80027" d="M20.766 8.68a3.131 3.131 0 0 0-2.952-2.09H15.13A3.13 3.13 0 0 0 12 9.722c0 .565.15 1.108.412 1.566-.996-.009-1.919.006-2.499 0V8.22l.123-.124c.554-.553.37-1.475.37-1.475s-.923-.185-1.477.368l-.644.645h-.72a2.87 2.87 0 0 0-2.87 2.87h2.088v2.348c0 .343.069.67.194.968l-.716.597H5.217v-1.043H4.174v2.086h4.695v2.087H7.826v1.044h2.087v-2.087l.957-1.148h2.26l.957 1.148v1.043h-1.044v1.044h4.174v-5.74a1.565 1.565 0 0 1 1.632-1.563 2.087 2.087 0 0 1 1.917-2.608Zm-5.636 8.867v-2.19h.087l.957 1.147v1.043H15.13Z"/>
  </g>
  <defs>
    <clipPath id="a">
      <path fill="#fff" d="M0 .33h24v24H0z"/>
    </clipPath>
  </defs>
</svg>
