<svg xmlns="http://www.w3.org/2000/svg" width="24" height="25" fill="none" viewBox="0 0 24 25">
  <g clip-path="url(#a)">
    <path fill="#496E2D" d="M12 24.035c6.627 0 12-5.372 12-12 0-6.627-5.373-12-12-12s-12 5.373-12 12c0 6.628 5.373 12 12 12Z"/>
    <path fill="#D80027" d="M16.696 12.035H12v12c1.403 0 2.749-.241 4-.684l.696-11.316Z"/>
    <path fill="#FF9811" d="M20 20.979a11.97 11.97 0 0 0 4-8.944h-4.695L20 20.98Z"/>
    <path fill="#000" d="M16 12.035v11.316a11.991 11.991 0 0 0 4-2.372v-8.944h-4Z"/>
    <path fill="#FF9811" d="M22.174 7.861h-3.13a1.044 1.044 0 0 0-2.087 0h-3.13c0 .577.501 1.044 1.077 1.044h-.034c0 .576.467 1.043 1.043 1.043 0 .576.467 1.044 1.044 1.044h2.087c.576 0 1.043-.468 1.043-1.044.576 0 1.044-.467 1.044-1.043h-.035c.576 0 1.078-.467 1.078-1.044Z"/>
  </g>
  <defs>
    <clipPath id="a">
      <path fill="#fff" d="M0 .035h24v24H0z"/>
    </clipPath>
  </defs>
</svg>
