<svg xmlns="http://www.w3.org/2000/svg"
     fill="currentColor"
     viewBox="0 0 24 24">
    <path fill="#000"
          d="M1.4 21.6a1 1 0 0 0 2 0h-2Zm1-3.6h1-1Zm10.2-2.6a1 1 0 1 0 0-2v2Zm9 1.2a1 1 0 1 0 0-2v2Zm-5.4-2a1 1 0 1 0 0 2v-2Zm1.7 3.7a1 1 0 0 0 2 0h-2Zm2-5.4a1 1 0 1 0-2 0h2ZM17.889 1.528a1 1 0 1 0-.978 1.744l.978-1.744Zm-.978 7.2a1 1 0 0 0 .978 1.744l-.978-1.744ZM13.4 6a2.6 2.6 0 0 1-2.6 2.6v2A4.6 4.6 0 0 0 15.4 6h-2Zm-2.6 2.6A2.6 2.6 0 0 1 8.2 6h-2a4.6 4.6 0 0 0 4.6 4.6v-2ZM8.2 6a2.6 2.6 0 0 1 2.6-2.6v-2A4.6 4.6 0 0 0 6.2 6h2Zm2.6-2.6A2.6 2.6 0 0 1 13.4 6h2a4.6 4.6 0 0 0-4.6-4.6v2ZM3.4 21.6V18h-2v3.6h2ZM6 13.4A4.6 4.6 0 0 0 1.4 18h2A2.6 2.6 0 0 1 6 15.4v-2Zm0 2h6.6v-2H6v2Zm15.6-.8h-2.7v2h2.7v-2Zm-2.7 0h-2.7v2h2.7v-2Zm1 3.7v-2.7h-2v2.7h2Zm0-2.7v-2.7h-2v2.7h2ZM16.911 3.272C18.15 3.966 18.8 4.986 18.8 6h2c0-1.936-1.236-3.534-2.911-4.472l-.978 1.744ZM18.8 6c0 1.014-.651 2.034-1.889 2.728l.978 1.744C19.564 9.533 20.8 7.936 20.8 6h-2Z" />
</svg>